ISO-10303-21;
HEADER;
/* Generated by software containing ST-Developer
 * from STEP Tools, Inc. (www.steptools.com) 
 */
/* OPTION: using custom renumber hook */

FILE_DESCRIPTION(
/* description */ ('STEP AP242 Edition 2',
'CAx-IF Rec.Pracs.---Representation and Presentation of Product Manufa
cturing Information (PMI)---4.0---2014-10-13',
'CAx-IF Rec.Pracs.---3D Tessellated Geometry---0.4---2014-09-14','2;1',
'CAx-IF Rec.Pracs.---User Defined Attributes---1.5---2016-08-15'),
/* implementation_level */ '2;1');

FILE_NAME(
/* name */ '6961f39b46b9ae42405cfcf2',
/* time_stamp */ '2026-01-10T06:37:15Z',
/* author */ (''),
/* organization */ (''),
/* preprocessor_version */ 'ST-DEVELOPER v20',
/* originating_system */ 'ONSHAPE BY PTC INC, 1.209',
/* authorisation */ '  ');

FILE_SCHEMA (('AP242_MANAGED_MODEL_BASED_3D_ENGINEERING_MIM_LF { 1 0 10303 442 3 1 4 }'));
ENDSEC;

DATA;
#10=SHAPE_REPRESENTATION_RELATIONSHIP('','',#571,#11);
#11=ADVANCED_BREP_SHAPE_REPRESENTATION('',(#569),#947);
#12=CIRCLE('',#582,0.00175);
#13=CIRCLE('',#583,0.00175);
#14=CIRCLE('',#585,0.0025);
#15=CIRCLE('',#586,0.0025);
#16=CIRCLE('',#588,0.00175);
#17=CIRCLE('',#589,0.00175);
#18=CIRCLE('',#592,0.0016);
#19=CIRCLE('',#593,0.0016);
#20=CIRCLE('',#594,0.0016);
#21=CIRCLE('',#595,0.0016);
#22=CIRCLE('',#596,0.003);
#23=CIRCLE('',#597,0.003);
#24=CIRCLE('',#598,0.003);
#25=CIRCLE('',#599,0.003);
#26=CIRCLE('',#600,0.019);
#27=CIRCLE('',#601,0.019);
#28=CIRCLE('',#603,0.0016);
#29=CIRCLE('',#604,0.0016);
#30=CIRCLE('',#605,0.019);
#31=CIRCLE('',#606,0.003);
#32=CIRCLE('',#607,0.003);
#33=CIRCLE('',#611,0.019);
#34=CIRCLE('',#613,0.0016);
#35=CIRCLE('',#615,0.0016);
#36=CIRCLE('',#618,0.003);
#37=CIRCLE('',#625,0.003);
#38=CYLINDRICAL_SURFACE('',#581,0.00175);
#39=CYLINDRICAL_SURFACE('',#584,0.0025);
#40=CYLINDRICAL_SURFACE('',#587,0.00175);
#41=CYLINDRICAL_SURFACE('',#608,0.0016);
#42=CYLINDRICAL_SURFACE('',#610,0.019);
#43=CYLINDRICAL_SURFACE('',#612,0.0016);
#44=CYLINDRICAL_SURFACE('',#614,0.0016);
#45=CYLINDRICAL_SURFACE('',#616,0.0016);
#46=CYLINDRICAL_SURFACE('',#617,0.003);
#47=CYLINDRICAL_SURFACE('',#620,0.003);
#48=CYLINDRICAL_SURFACE('',#622,0.003);
#49=CYLINDRICAL_SURFACE('',#624,0.003);
#50=CYLINDRICAL_SURFACE('',#626,0.019);
#51=LINE('',#795,#95);
#52=LINE('',#797,#96);
#53=LINE('',#799,#97);
#54=LINE('',#801,#98);
#55=LINE('',#804,#99);
#56=LINE('',#808,#100);
#57=LINE('',#810,#101);
#58=LINE('',#813,#102);
#59=LINE('',#815,#103);
#60=LINE('',#818,#104);
#61=LINE('',#820,#105);
#62=LINE('',#823,#106);
#63=LINE('',#826,#107);
#64=LINE('',#828,#108);
#65=LINE('',#845,#109);
#66=LINE('',#846,#110);
#67=LINE('',#856,#111);
#68=LINE('',#861,#112);
#69=LINE('',#865,#113);
#70=LINE('',#869,#114);
#71=LINE('',#872,#115);
#72=LINE('',#879,#116);
#73=LINE('',#886,#117);
#74=LINE('',#890,#118);
#75=LINE('',#894,#119);
#76=LINE('',#897,#120);
#77=LINE('',#899,#121);
#78=LINE('',#901,#122);
#79=LINE('',#903,#123);
#80=LINE('',#907,#124);
#81=LINE('',#918,#125);
#82=LINE('',#920,#126);
#83=LINE('',#922,#127);
#84=LINE('',#923,#128);
#85=LINE('',#925,#129);
#86=LINE('',#927,#130);
#87=LINE('',#929,#131);
#88=LINE('',#931,#132);
#89=LINE('',#933,#133);
#90=LINE('',#935,#134);
#91=LINE('',#939,#135);
#92=LINE('',#940,#136);
#93=LINE('',#942,#137);
#94=LINE('',#943,#138);
#95=VECTOR('',#636,1.);
#96=VECTOR('',#637,1.);
#97=VECTOR('',#638,1.);
#98=VECTOR('',#641,1.);
#99=VECTOR('',#642,1.);
#100=VECTOR('',#645,1.);
#101=VECTOR('',#648,1.);
#102=VECTOR('',#649,1.);
#103=VECTOR('',#650,1.);
#104=VECTOR('',#653,1.);
#105=VECTOR('',#656,1.);
#106=VECTOR('',#657,1.);
#107=VECTOR('',#660,1.);
#108=VECTOR('',#661,1.);
#109=VECTOR('',#682,1.);
#110=VECTOR('',#683,1.);
#111=VECTOR('',#694,1.);
#112=VECTOR('',#697,1.);
#113=VECTOR('',#700,1.);
#114=VECTOR('',#703,1.);
#115=VECTOR('',#706,1.);
#116=VECTOR('',#711,1.);
#117=VECTOR('',#720,1.);
#118=VECTOR('',#723,1.);
#119=VECTOR('',#726,1.);
#120=VECTOR('',#731,1.);
#121=VECTOR('',#732,1.);
#122=VECTOR('',#733,1.);
#123=VECTOR('',#736,1.);
#124=VECTOR('',#739,1.);
#125=VECTOR('',#754,1.);
#126=VECTOR('',#757,1.);
#127=VECTOR('',#758,1.);
#128=VECTOR('',#759,1.);
#129=VECTOR('',#762,1.);
#130=VECTOR('',#765,1.);
#131=VECTOR('',#768,1.);
#132=VECTOR('',#771,1.);
#133=VECTOR('',#772,1.);
#134=VECTOR('',#773,1.);
#135=VECTOR('',#780,1.);
#136=VECTOR('',#781,1.);
#137=VECTOR('',#784,1.);
#138=VECTOR('',#785,1.);
#139=ORIENTED_EDGE('',*,*,#287,.F.);
#140=ORIENTED_EDGE('',*,*,#288,.F.);
#141=ORIENTED_EDGE('',*,*,#289,.T.);
#142=ORIENTED_EDGE('',*,*,#290,.F.);
#143=ORIENTED_EDGE('',*,*,#291,.T.);
#144=ORIENTED_EDGE('',*,*,#292,.F.);
#145=ORIENTED_EDGE('',*,*,#293,.F.);
#146=ORIENTED_EDGE('',*,*,#294,.T.);
#147=ORIENTED_EDGE('',*,*,#295,.T.);
#148=ORIENTED_EDGE('',*,*,#296,.F.);
#149=ORIENTED_EDGE('',*,*,#297,.T.);
#150=ORIENTED_EDGE('',*,*,#298,.T.);
#151=ORIENTED_EDGE('',*,*,#290,.T.);
#152=ORIENTED_EDGE('',*,*,#299,.F.);
#153=ORIENTED_EDGE('',*,*,#300,.F.);
#154=ORIENTED_EDGE('',*,*,#301,.F.);
#155=ORIENTED_EDGE('',*,*,#294,.F.);
#156=ORIENTED_EDGE('',*,*,#302,.F.);
#157=ORIENTED_EDGE('',*,*,#303,.F.);
#158=ORIENTED_EDGE('',*,*,#304,.F.);
#159=ORIENTED_EDGE('',*,*,#305,.T.);
#160=ORIENTED_EDGE('',*,*,#306,.F.);
#161=ORIENTED_EDGE('',*,*,#307,.T.);
#162=ORIENTED_EDGE('',*,*,#308,.T.);
#163=ORIENTED_EDGE('',*,*,#309,.T.);
#164=ORIENTED_EDGE('',*,*,#310,.T.);
#165=ORIENTED_EDGE('',*,*,#311,.T.);
#166=ORIENTED_EDGE('',*,*,#304,.T.);
#167=ORIENTED_EDGE('',*,*,#312,.F.);
#168=ORIENTED_EDGE('',*,*,#296,.T.);
#169=ORIENTED_EDGE('',*,*,#313,.T.);
#170=ORIENTED_EDGE('',*,*,#314,.T.);
#171=ORIENTED_EDGE('',*,*,#315,.T.);
#172=ORIENTED_EDGE('',*,*,#316,.T.);
#173=ORIENTED_EDGE('',*,*,#317,.T.);
#174=ORIENTED_EDGE('',*,*,#318,.F.);
#175=ORIENTED_EDGE('',*,*,#319,.T.);
#176=ORIENTED_EDGE('',*,*,#320,.F.);
#177=ORIENTED_EDGE('',*,*,#321,.F.);
#178=ORIENTED_EDGE('',*,*,#322,.F.);
#179=ORIENTED_EDGE('',*,*,#323,.T.);
#180=ORIENTED_EDGE('',*,*,#324,.F.);
#181=ORIENTED_EDGE('',*,*,#325,.F.);
#182=ORIENTED_EDGE('',*,*,#326,.T.);
#183=ORIENTED_EDGE('',*,*,#327,.T.);
#184=ORIENTED_EDGE('',*,*,#328,.T.);
#185=ORIENTED_EDGE('',*,*,#329,.F.);
#186=ORIENTED_EDGE('',*,*,#330,.F.);
#187=ORIENTED_EDGE('',*,*,#331,.F.);
#188=ORIENTED_EDGE('',*,*,#292,.T.);
#189=ORIENTED_EDGE('',*,*,#332,.T.);
#190=ORIENTED_EDGE('',*,*,#333,.T.);
#191=ORIENTED_EDGE('',*,*,#334,.F.);
#192=ORIENTED_EDGE('',*,*,#335,.T.);
#193=ORIENTED_EDGE('',*,*,#336,.F.);
#194=ORIENTED_EDGE('',*,*,#288,.T.);
#195=ORIENTED_EDGE('',*,*,#313,.F.);
#196=ORIENTED_EDGE('',*,*,#329,.T.);
#197=ORIENTED_EDGE('',*,*,#323,.F.);
#198=ORIENTED_EDGE('',*,*,#337,.F.);
#199=ORIENTED_EDGE('',*,*,#338,.T.);
#200=ORIENTED_EDGE('',*,*,#339,.T.);
#201=ORIENTED_EDGE('',*,*,#326,.F.);
#202=ORIENTED_EDGE('',*,*,#340,.F.);
#203=ORIENTED_EDGE('',*,*,#341,.T.);
#204=ORIENTED_EDGE('',*,*,#342,.T.);
#205=ORIENTED_EDGE('',*,*,#316,.F.);
#206=ORIENTED_EDGE('',*,*,#343,.T.);
#207=ORIENTED_EDGE('',*,*,#315,.F.);
#208=ORIENTED_EDGE('',*,*,#344,.T.);
#209=ORIENTED_EDGE('',*,*,#314,.F.);
#210=ORIENTED_EDGE('',*,*,#330,.T.);
#211=ORIENTED_EDGE('',*,*,#324,.T.);
#212=ORIENTED_EDGE('',*,*,#339,.F.);
#213=ORIENTED_EDGE('',*,*,#345,.F.);
#214=ORIENTED_EDGE('',*,*,#346,.T.);
#215=ORIENTED_EDGE('',*,*,#347,.F.);
#216=ORIENTED_EDGE('',*,*,#299,.T.);
#217=ORIENTED_EDGE('',*,*,#289,.F.);
#218=ORIENTED_EDGE('',*,*,#336,.T.);
#219=ORIENTED_EDGE('',*,*,#348,.T.);
#220=ORIENTED_EDGE('',*,*,#317,.F.);
#221=ORIENTED_EDGE('',*,*,#346,.F.);
#222=ORIENTED_EDGE('',*,*,#349,.T.);
#223=ORIENTED_EDGE('',*,*,#318,.T.);
#224=ORIENTED_EDGE('',*,*,#348,.F.);
#225=ORIENTED_EDGE('',*,*,#335,.F.);
#226=ORIENTED_EDGE('',*,*,#350,.T.);
#227=ORIENTED_EDGE('',*,*,#319,.F.);
#228=ORIENTED_EDGE('',*,*,#350,.F.);
#229=ORIENTED_EDGE('',*,*,#334,.T.);
#230=ORIENTED_EDGE('',*,*,#351,.T.);
#231=ORIENTED_EDGE('',*,*,#320,.T.);
#232=ORIENTED_EDGE('',*,*,#351,.F.);
#233=ORIENTED_EDGE('',*,*,#333,.F.);
#234=ORIENTED_EDGE('',*,*,#352,.T.);
#235=ORIENTED_EDGE('',*,*,#332,.F.);
#236=ORIENTED_EDGE('',*,*,#291,.F.);
#237=ORIENTED_EDGE('',*,*,#301,.T.);
#238=ORIENTED_EDGE('',*,*,#353,.T.);
#239=ORIENTED_EDGE('',*,*,#354,.F.);
#240=ORIENTED_EDGE('',*,*,#355,.T.);
#241=ORIENTED_EDGE('',*,*,#321,.T.);
#242=ORIENTED_EDGE('',*,*,#352,.F.);
#243=ORIENTED_EDGE('',*,*,#322,.T.);
#244=ORIENTED_EDGE('',*,*,#355,.F.);
#245=ORIENTED_EDGE('',*,*,#356,.F.);
#246=ORIENTED_EDGE('',*,*,#337,.T.);
#247=ORIENTED_EDGE('',*,*,#327,.F.);
#248=ORIENTED_EDGE('',*,*,#357,.F.);
#249=ORIENTED_EDGE('',*,*,#302,.T.);
#250=ORIENTED_EDGE('',*,*,#293,.T.);
#251=ORIENTED_EDGE('',*,*,#331,.T.);
#252=ORIENTED_EDGE('',*,*,#287,.T.);
#253=ORIENTED_EDGE('',*,*,#298,.F.);
#254=ORIENTED_EDGE('',*,*,#358,.T.);
#255=ORIENTED_EDGE('',*,*,#354,.T.);
#256=ORIENTED_EDGE('',*,*,#359,.T.);
#257=ORIENTED_EDGE('',*,*,#341,.F.);
#258=ORIENTED_EDGE('',*,*,#360,.T.);
#259=ORIENTED_EDGE('',*,*,#349,.F.);
#260=ORIENTED_EDGE('',*,*,#345,.T.);
#261=ORIENTED_EDGE('',*,*,#338,.F.);
#262=ORIENTED_EDGE('',*,*,#356,.T.);
#263=ORIENTED_EDGE('',*,*,#343,.F.);
#264=ORIENTED_EDGE('',*,*,#344,.F.);
#265=ORIENTED_EDGE('',*,*,#305,.F.);
#266=ORIENTED_EDGE('',*,*,#307,.F.);
#267=ORIENTED_EDGE('',*,*,#309,.F.);
#268=ORIENTED_EDGE('',*,*,#303,.T.);
#269=ORIENTED_EDGE('',*,*,#357,.T.);
#270=ORIENTED_EDGE('',*,*,#328,.F.);
#271=ORIENTED_EDGE('',*,*,#358,.F.);
#272=ORIENTED_EDGE('',*,*,#297,.F.);
#273=ORIENTED_EDGE('',*,*,#312,.T.);
#274=ORIENTED_EDGE('',*,*,#306,.T.);
#275=ORIENTED_EDGE('',*,*,#353,.F.);
#276=ORIENTED_EDGE('',*,*,#300,.T.);
#277=ORIENTED_EDGE('',*,*,#311,.F.);
#278=ORIENTED_EDGE('',*,*,#295,.F.);
#279=ORIENTED_EDGE('',*,*,#347,.T.);
#280=ORIENTED_EDGE('',*,*,#360,.F.);
#281=ORIENTED_EDGE('',*,*,#340,.T.);
#282=ORIENTED_EDGE('',*,*,#325,.T.);
#283=ORIENTED_EDGE('',*,*,#342,.F.);
#284=ORIENTED_EDGE('',*,*,#359,.F.);
#285=ORIENTED_EDGE('',*,*,#310,.F.);
#286=ORIENTED_EDGE('',*,*,#308,.F.);
#287=EDGE_CURVE('',#361,#362,#415,.T.);
#288=EDGE_CURVE('',#363,#361,#51,.T.);
#289=EDGE_CURVE('',#363,#364,#52,.T.);
#290=EDGE_CURVE('',#362,#364,#53,.T.);
#291=EDGE_CURVE('',#365,#366,#54,.T.);
#292=EDGE_CURVE('',#367,#366,#55,.T.);
#293=EDGE_CURVE('',#368,#367,#416,.T.);
#294=EDGE_CURVE('',#368,#365,#56,.T.);
#295=EDGE_CURVE('',#369,#370,#57,.T.);
#296=EDGE_CURVE('',#371,#370,#58,.T.);
#297=EDGE_CURVE('',#371,#372,#59,.T.);
#298=EDGE_CURVE('',#372,#362,#417,.T.);
#299=EDGE_CURVE('',#369,#364,#60,.T.);
#300=EDGE_CURVE('',#373,#374,#61,.T.);
#301=EDGE_CURVE('',#365,#373,#62,.T.);
#302=EDGE_CURVE('',#375,#368,#418,.T.);
#303=EDGE_CURVE('',#376,#375,#63,.T.);
#304=EDGE_CURVE('',#374,#376,#64,.T.);
#305=EDGE_CURVE('',#377,#377,#12,.T.);
#306=EDGE_CURVE('',#378,#378,#13,.T.);
#307=EDGE_CURVE('',#379,#379,#14,.T.);
#308=EDGE_CURVE('',#380,#380,#15,.T.);
#309=EDGE_CURVE('',#381,#381,#16,.T.);
#310=EDGE_CURVE('',#382,#382,#17,.T.);
#311=EDGE_CURVE('',#370,#374,#65,.T.);
#312=EDGE_CURVE('',#371,#376,#66,.T.);
#313=EDGE_CURVE('',#383,#383,#18,.T.);
#314=EDGE_CURVE('',#384,#384,#19,.T.);
#315=EDGE_CURVE('',#385,#385,#20,.T.);
#316=EDGE_CURVE('',#386,#386,#21,.T.);
#317=EDGE_CURVE('',#387,#388,#67,.T.);
#318=EDGE_CURVE('',#389,#388,#22,.T.);
#319=EDGE_CURVE('',#389,#390,#68,.T.);
#320=EDGE_CURVE('',#391,#390,#23,.T.);
#321=EDGE_CURVE('',#392,#391,#69,.T.);
#322=EDGE_CURVE('',#393,#392,#24,.T.);
#323=EDGE_CURVE('',#393,#394,#70,.T.);
#324=EDGE_CURVE('',#387,#394,#25,.T.);
#325=EDGE_CURVE('',#395,#396,#71,.T.);
#326=EDGE_CURVE('',#395,#396,#26,.T.);
#327=EDGE_CURVE('',#397,#398,#27,.T.);
#328=EDGE_CURVE('',#398,#397,#72,.T.);
#329=EDGE_CURVE('',#399,#399,#28,.T.);
#330=EDGE_CURVE('',#400,#400,#29,.T.);
#331=EDGE_CURVE('',#367,#361,#30,.T.);
#332=EDGE_CURVE('',#366,#401,#73,.T.);
#333=EDGE_CURVE('',#401,#402,#31,.T.);
#334=EDGE_CURVE('',#403,#402,#74,.T.);
#335=EDGE_CURVE('',#403,#404,#32,.T.);
#336=EDGE_CURVE('',#363,#404,#75,.T.);
#337=EDGE_CURVE('',#405,#393,#76,.T.);
#338=EDGE_CURVE('',#405,#406,#77,.T.);
#339=EDGE_CURVE('',#406,#394,#78,.T.);
#340=EDGE_CURVE('',#407,#395,#79,.T.);
#341=EDGE_CURVE('',#407,#408,#33,.T.);
#342=EDGE_CURVE('',#408,#396,#80,.T.);
#343=EDGE_CURVE('',#409,#409,#34,.T.);
#344=EDGE_CURVE('',#410,#410,#35,.T.);
#345=EDGE_CURVE('',#411,#406,#36,.T.);
#346=EDGE_CURVE('',#411,#387,#81,.T.);
#347=EDGE_CURVE('',#369,#412,#82,.T.);
#348=EDGE_CURVE('',#404,#388,#83,.T.);
#349=EDGE_CURVE('',#411,#412,#84,.T.);
#350=EDGE_CURVE('',#403,#389,#85,.T.);
#351=EDGE_CURVE('',#402,#390,#86,.T.);
#352=EDGE_CURVE('',#401,#391,#87,.T.);
#353=EDGE_CURVE('',#373,#413,#88,.T.);
#354=EDGE_CURVE('',#414,#413,#89,.T.);
#355=EDGE_CURVE('',#414,#392,#90,.T.);
#356=EDGE_CURVE('',#405,#414,#37,.T.);
#357=EDGE_CURVE('',#375,#397,#91,.T.);
#358=EDGE_CURVE('',#372,#398,#92,.T.);
#359=EDGE_CURVE('',#413,#408,#93,.T.);
#360=EDGE_CURVE('',#407,#412,#94,.T.);
#361=VERTEX_POINT('',#793);
#362=VERTEX_POINT('',#794);
#363=VERTEX_POINT('',#796);
#364=VERTEX_POINT('',#798);
#365=VERTEX_POINT('',#802);
#366=VERTEX_POINT('',#803);
#367=VERTEX_POINT('',#805);
#368=VERTEX_POINT('',#807);
#369=VERTEX_POINT('',#811);
#370=VERTEX_POINT('',#812);
#371=VERTEX_POINT('',#814);
#372=VERTEX_POINT('',#816);
#373=VERTEX_POINT('',#821);
#374=VERTEX_POINT('',#822);
#375=VERTEX_POINT('',#825);
#376=VERTEX_POINT('',#827);
#377=VERTEX_POINT('',#831);
#378=VERTEX_POINT('',#833);
#379=VERTEX_POINT('',#836);
#380=VERTEX_POINT('',#838);
#381=VERTEX_POINT('',#841);
#382=VERTEX_POINT('',#843);
#383=VERTEX_POINT('',#849);
#384=VERTEX_POINT('',#851);
#385=VERTEX_POINT('',#853);
#386=VERTEX_POINT('',#855);
#387=VERTEX_POINT('',#857);
#388=VERTEX_POINT('',#858);
#389=VERTEX_POINT('',#860);
#390=VERTEX_POINT('',#862);
#391=VERTEX_POINT('',#864);
#392=VERTEX_POINT('',#866);
#393=VERTEX_POINT('',#868);
#394=VERTEX_POINT('',#870);
#395=VERTEX_POINT('',#873);
#396=VERTEX_POINT('',#874);
#397=VERTEX_POINT('',#877);
#398=VERTEX_POINT('',#878);
#399=VERTEX_POINT('',#882);
#400=VERTEX_POINT('',#884);
#401=VERTEX_POINT('',#887);
#402=VERTEX_POINT('',#889);
#403=VERTEX_POINT('',#891);
#404=VERTEX_POINT('',#893);
#405=VERTEX_POINT('',#898);
#406=VERTEX_POINT('',#900);
#407=VERTEX_POINT('',#904);
#408=VERTEX_POINT('',#906);
#409=VERTEX_POINT('',#910);
#410=VERTEX_POINT('',#913);
#411=VERTEX_POINT('',#917);
#412=VERTEX_POINT('',#921);
#413=VERTEX_POINT('',#932);
#414=VERTEX_POINT('',#934);
#415=ELLIPSE('',#574,0.0268700576850888,0.019);
#416=ELLIPSE('',#576,0.0268700576850888,0.019);
#417=ELLIPSE('',#578,0.0268700576850945,0.019);
#418=ELLIPSE('',#580,0.0268700576850892,0.019);
#419=EDGE_LOOP('',(#139,#140,#141,#142));
#420=EDGE_LOOP('',(#143,#144,#145,#146));
#421=EDGE_LOOP('',(#147,#148,#149,#150,#151,#152));
#422=EDGE_LOOP('',(#153,#154,#155,#156,#157,#158));
#423=EDGE_LOOP('',(#159));
#424=EDGE_LOOP('',(#160));
#425=EDGE_LOOP('',(#161));
#426=EDGE_LOOP('',(#162));
#427=EDGE_LOOP('',(#163));
#428=EDGE_LOOP('',(#164));
#429=EDGE_LOOP('',(#165,#166,#167,#168));
#430=EDGE_LOOP('',(#169));
#431=EDGE_LOOP('',(#170));
#432=EDGE_LOOP('',(#171));
#433=EDGE_LOOP('',(#172));
#434=EDGE_LOOP('',(#173,#174,#175,#176,#177,#178,#179,#180));
#435=EDGE_LOOP('',(#181,#182));
#436=EDGE_LOOP('',(#183,#184));
#437=EDGE_LOOP('',(#185));
#438=EDGE_LOOP('',(#186));
#439=EDGE_LOOP('',(#187,#188,#189,#190,#191,#192,#193,#194));
#440=EDGE_LOOP('',(#195));
#441=EDGE_LOOP('',(#196));
#442=EDGE_LOOP('',(#197,#198,#199,#200));
#443=EDGE_LOOP('',(#201,#202,#203,#204));
#444=EDGE_LOOP('',(#205));
#445=EDGE_LOOP('',(#206));
#446=EDGE_LOOP('',(#207));
#447=EDGE_LOOP('',(#208));
#448=EDGE_LOOP('',(#209));
#449=EDGE_LOOP('',(#210));
#450=EDGE_LOOP('',(#211,#212,#213,#214));
#451=EDGE_LOOP('',(#215,#216,#217,#218,#219,#220,#221,#222));
#452=EDGE_LOOP('',(#223,#224,#225,#226));
#453=EDGE_LOOP('',(#227,#228,#229,#230));
#454=EDGE_LOOP('',(#231,#232,#233,#234));
#455=EDGE_LOOP('',(#235,#236,#237,#238,#239,#240,#241,#242));
#456=EDGE_LOOP('',(#243,#244,#245,#246));
#457=EDGE_LOOP('',(#247,#248,#249,#250,#251,#252,#253,#254));
#458=EDGE_LOOP('',(#255,#256,#257,#258,#259,#260,#261,#262));
#459=EDGE_LOOP('',(#263));
#460=EDGE_LOOP('',(#264));
#461=EDGE_LOOP('',(#265));
#462=EDGE_LOOP('',(#266));
#463=EDGE_LOOP('',(#267));
#464=EDGE_LOOP('',(#268,#269,#270,#271,#272,#273));
#465=EDGE_LOOP('',(#274));
#466=EDGE_LOOP('',(#275,#276,#277,#278,#279,#280,#281,#282,#283,#284));
#467=EDGE_LOOP('',(#285));
#468=EDGE_LOOP('',(#286));
#469=FACE_BOUND('',#419,.T.);
#470=FACE_BOUND('',#420,.T.);
#471=FACE_BOUND('',#421,.T.);
#472=FACE_BOUND('',#422,.T.);
#473=FACE_BOUND('',#423,.T.);
#474=FACE_BOUND('',#424,.T.);
#475=FACE_BOUND('',#425,.T.);
#476=FACE_BOUND('',#426,.T.);
#477=FACE_BOUND('',#427,.T.);
#478=FACE_BOUND('',#428,.T.);
#479=FACE_BOUND('',#429,.T.);
#480=FACE_BOUND('',#430,.T.);
#481=FACE_BOUND('',#431,.T.);
#482=FACE_BOUND('',#432,.T.);
#483=FACE_BOUND('',#433,.T.);
#484=FACE_BOUND('',#434,.T.);
#485=FACE_BOUND('',#435,.T.);
#486=FACE_BOUND('',#436,.T.);
#487=FACE_BOUND('',#437,.T.);
#488=FACE_BOUND('',#438,.T.);
#489=FACE_BOUND('',#439,.T.);
#490=FACE_BOUND('',#440,.T.);
#491=FACE_BOUND('',#441,.T.);
#492=FACE_BOUND('',#442,.T.);
#493=FACE_BOUND('',#443,.T.);
#494=FACE_BOUND('',#444,.T.);
#495=FACE_BOUND('',#445,.T.);
#496=FACE_BOUND('',#446,.T.);
#497=FACE_BOUND('',#447,.T.);
#498=FACE_BOUND('',#448,.T.);
#499=FACE_BOUND('',#449,.T.);
#500=FACE_BOUND('',#450,.T.);
#501=FACE_BOUND('',#451,.T.);
#502=FACE_BOUND('',#452,.T.);
#503=FACE_BOUND('',#453,.T.);
#504=FACE_BOUND('',#454,.T.);
#505=FACE_BOUND('',#455,.T.);
#506=FACE_BOUND('',#456,.T.);
#507=FACE_BOUND('',#457,.T.);
#508=FACE_BOUND('',#458,.T.);
#509=FACE_BOUND('',#459,.T.);
#510=FACE_BOUND('',#460,.T.);
#511=FACE_BOUND('',#461,.T.);
#512=FACE_BOUND('',#462,.T.);
#513=FACE_BOUND('',#463,.T.);
#514=FACE_BOUND('',#464,.T.);
#515=FACE_BOUND('',#465,.T.);
#516=FACE_BOUND('',#466,.T.);
#517=FACE_BOUND('',#467,.T.);
#518=FACE_BOUND('',#468,.T.);
#519=PLANE('',#573);
#520=PLANE('',#575);
#521=PLANE('',#577);
#522=PLANE('',#579);
#523=PLANE('',#590);
#524=PLANE('',#591);
#525=PLANE('',#602);
#526=PLANE('',#609);
#527=PLANE('',#619);
#528=PLANE('',#621);
#529=PLANE('',#623);
#530=PLANE('',#627);
#531=PLANE('',#628);
#532=PLANE('',#629);
#533=ADVANCED_FACE('',(#469),#519,.T.);
#534=ADVANCED_FACE('',(#470),#520,.T.);
#535=ADVANCED_FACE('',(#471),#521,.F.);
#536=ADVANCED_FACE('',(#472),#522,.T.);
#537=ADVANCED_FACE('',(#473,#474),#38,.F.);
#538=ADVANCED_FACE('',(#475,#476),#39,.F.);
#539=ADVANCED_FACE('',(#477,#478),#40,.F.);
#540=ADVANCED_FACE('',(#479),#523,.T.);
#541=ADVANCED_FACE('',(#480,#481,#482,#483,#484,#485,#486),#524,.F.);
#542=ADVANCED_FACE('',(#487,#488,#489),#525,.T.);
#543=ADVANCED_FACE('',(#490,#491),#41,.F.);
#544=ADVANCED_FACE('',(#492),#526,.T.);
#545=ADVANCED_FACE('',(#493),#42,.F.);
#546=ADVANCED_FACE('',(#494,#495),#43,.F.);
#547=ADVANCED_FACE('',(#496,#497),#44,.F.);
#548=ADVANCED_FACE('',(#498,#499),#45,.F.);
#549=ADVANCED_FACE('',(#500),#46,.T.);
#550=ADVANCED_FACE('',(#501),#527,.T.);
#551=ADVANCED_FACE('',(#502),#47,.T.);
#552=ADVANCED_FACE('',(#503),#528,.T.);
#553=ADVANCED_FACE('',(#504),#48,.T.);
#554=ADVANCED_FACE('',(#505),#529,.F.);
#555=ADVANCED_FACE('',(#506),#49,.T.);
#556=ADVANCED_FACE('',(#507),#50,.F.);
#557=ADVANCED_FACE('',(#508,#509,#510),#530,.T.);
#558=ADVANCED_FACE('',(#511,#512,#513,#514),#531,.T.);
#559=ADVANCED_FACE('',(#515,#516,#517,#518),#532,.F.);
#560=CLOSED_SHELL('',(#533,#534,#535,#536,#537,#538,#539,#540,#541,#542,
#543,#544,#545,#546,#547,#548,#549,#550,#551,#552,#553,#554,#555,#556,#557,
#558,#559));
#561=STYLED_ITEM('',(#562),#569);
#562=PRESENTATION_STYLE_ASSIGNMENT((#563));
#563=SURFACE_STYLE_USAGE(.BOTH.,#564);
#564=SURFACE_SIDE_STYLE('',(#565));
#565=SURFACE_STYLE_FILL_AREA(#566);
#566=FILL_AREA_STYLE('',(#567));
#567=FILL_AREA_STYLE_COLOUR('',#568);
#568=COLOUR_RGB('',0.129411764705882,0.341176470588236,0.352941176470589);
#569=MANIFOLD_SOLID_BREP('BLTouch Mount',#560);
#570=SHAPE_DEFINITION_REPRESENTATION(#952,#571);
#571=SHAPE_REPRESENTATION('BLTouch Mount',(#572),#947);
#572=AXIS2_PLACEMENT_3D('',#790,#630,#631);
#573=AXIS2_PLACEMENT_3D('',#791,#632,#633);
#574=AXIS2_PLACEMENT_3D('',#792,#634,#635);
#575=AXIS2_PLACEMENT_3D('',#800,#639,#640);
#576=AXIS2_PLACEMENT_3D('',#806,#643,#644);
#577=AXIS2_PLACEMENT_3D('',#809,#646,#647);
#578=AXIS2_PLACEMENT_3D('',#817,#651,#652);
#579=AXIS2_PLACEMENT_3D('',#819,#654,#655);
#580=AXIS2_PLACEMENT_3D('',#824,#658,#659);
#581=AXIS2_PLACEMENT_3D('',#829,#662,#663);
#582=AXIS2_PLACEMENT_3D('',#830,#664,#665);
#583=AXIS2_PLACEMENT_3D('',#832,#666,#667);
#584=AXIS2_PLACEMENT_3D('',#834,#668,#669);
#585=AXIS2_PLACEMENT_3D('',#835,#670,#671);
#586=AXIS2_PLACEMENT_3D('',#837,#672,#673);
#587=AXIS2_PLACEMENT_3D('',#839,#674,#675);
#588=AXIS2_PLACEMENT_3D('',#840,#676,#677);
#589=AXIS2_PLACEMENT_3D('',#842,#678,#679);
#590=AXIS2_PLACEMENT_3D('',#844,#680,#681);
#591=AXIS2_PLACEMENT_3D('',#847,#684,#685);
#592=AXIS2_PLACEMENT_3D('',#848,#686,#687);
#593=AXIS2_PLACEMENT_3D('',#850,#688,#689);
#594=AXIS2_PLACEMENT_3D('',#852,#690,#691);
#595=AXIS2_PLACEMENT_3D('',#854,#692,#693);
#596=AXIS2_PLACEMENT_3D('',#859,#695,#696);
#597=AXIS2_PLACEMENT_3D('',#863,#698,#699);
#598=AXIS2_PLACEMENT_3D('',#867,#701,#702);
#599=AXIS2_PLACEMENT_3D('',#871,#704,#705);
#600=AXIS2_PLACEMENT_3D('',#875,#707,#708);
#601=AXIS2_PLACEMENT_3D('',#876,#709,#710);
#602=AXIS2_PLACEMENT_3D('',#880,#712,#713);
#603=AXIS2_PLACEMENT_3D('',#881,#714,#715);
#604=AXIS2_PLACEMENT_3D('',#883,#716,#717);
#605=AXIS2_PLACEMENT_3D('',#885,#718,#719);
#606=AXIS2_PLACEMENT_3D('',#888,#721,#722);
#607=AXIS2_PLACEMENT_3D('',#892,#724,#725);
#608=AXIS2_PLACEMENT_3D('',#895,#727,#728);
#609=AXIS2_PLACEMENT_3D('',#896,#729,#730);
#610=AXIS2_PLACEMENT_3D('',#902,#734,#735);
#611=AXIS2_PLACEMENT_3D('',#905,#737,#738);
#612=AXIS2_PLACEMENT_3D('',#908,#740,#741);
#613=AXIS2_PLACEMENT_3D('',#909,#742,#743);
#614=AXIS2_PLACEMENT_3D('',#911,#744,#745);
#615=AXIS2_PLACEMENT_3D('',#912,#746,#747);
#616=AXIS2_PLACEMENT_3D('',#914,#748,#749);
#617=AXIS2_PLACEMENT_3D('',#915,#750,#751);
#618=AXIS2_PLACEMENT_3D('',#916,#752,#753);
#619=AXIS2_PLACEMENT_3D('',#919,#755,#756);
#620=AXIS2_PLACEMENT_3D('',#924,#760,#761);
#621=AXIS2_PLACEMENT_3D('',#926,#763,#764);
#622=AXIS2_PLACEMENT_3D('',#928,#766,#767);
#623=AXIS2_PLACEMENT_3D('',#930,#769,#770);
#624=AXIS2_PLACEMENT_3D('',#936,#774,#775);
#625=AXIS2_PLACEMENT_3D('',#937,#776,#777);
#626=AXIS2_PLACEMENT_3D('',#938,#778,#779);
#627=AXIS2_PLACEMENT_3D('',#941,#782,#783);
#628=AXIS2_PLACEMENT_3D('',#944,#786,#787);
#629=AXIS2_PLACEMENT_3D('',#945,#788,#789);
#630=DIRECTION('',(0.,0.,1.));
#631=DIRECTION('',(1.,0.,0.));
#632=DIRECTION('',(0.707106781186548,-0.405579787672614,-0.579227965339586));
#633=DIRECTION('',(0.,0.819152044289016,-0.573576436351011));
#634=DIRECTION('',(0.707106781186548,-0.405579787672614,-0.579227965339586));
#635=DIRECTION('',(0.707106781186547,0.405579787672615,0.579227965339586));
#636=DIRECTION('',(0.,0.819152044289016,-0.573576436351011));
#637=DIRECTION('',(-0.707106781186547,-0.405579787672615,-0.579227965339586));
#638=DIRECTION('',(0.577350269189708,-0.14178314334923,0.804092163205551));
#639=DIRECTION('',(0.707106781186548,-0.405579787672614,-0.579227965339586));
#640=DIRECTION('',(0.,0.819152044289016,-0.573576436351011));
#641=DIRECTION('',(0.707106781186547,0.405579787672615,0.579227965339586));
#642=DIRECTION('',(0.,0.819152044289016,-0.573576436351011));
#643=DIRECTION('',(0.707106781186548,-0.405579787672614,-0.579227965339586));
#644=DIRECTION('',(0.707106781186547,0.405579787672615,0.579227965339586));
#645=DIRECTION('',(0.577350269189631,0.804092163205573,0.141783143349422));
#646=DIRECTION('',(0.,0.984807753012238,0.173648177666761));
#647=DIRECTION('',(1.,0.,0.));
#648=DIRECTION('',(0.,0.173648177666761,-0.984807753012238));
#649=DIRECTION('',(-1.,0.,0.));
#650=DIRECTION('',(0.,-0.173648177666761,0.984807753012238));
#651=DIRECTION('',(0.,0.984807753012238,0.173648177666761));
#652=DIRECTION('',(0.,-0.173648177666761,0.984807753012238));
#653=DIRECTION('',(1.,0.,0.));
#654=DIRECTION('',(0.,0.173648177666984,-0.984807753012199));
#655=DIRECTION('',(-1.,0.,0.));
#656=DIRECTION('',(0.,-0.984807753012199,-0.173648177666984));
#657=DIRECTION('',(-1.,0.,0.));
#658=DIRECTION('',(0.,0.173648177666984,-0.984807753012199));
#659=DIRECTION('',(0.,0.984807753012199,0.173648177666984));
#660=DIRECTION('',(0.,0.984807753012199,0.173648177666984));
#661=DIRECTION('',(1.,0.,0.));
#662=DIRECTION('',(-1.,0.,0.));
#663=DIRECTION('',(0.,0.,1.));
#664=DIRECTION('',(1.,0.,0.));
#665=DIRECTION('',(0.,0.,-1.));
#666=DIRECTION('',(1.,0.,0.));
#667=DIRECTION('',(0.,0.,1.));
#668=DIRECTION('',(-1.,0.,0.));
#669=DIRECTION('',(0.,0.,1.));
#670=DIRECTION('',(1.,0.,0.));
#671=DIRECTION('',(0.,0.,-1.));
#672=DIRECTION('',(-1.,0.,0.));
#673=DIRECTION('',(0.,0.,1.));
#674=DIRECTION('',(-1.,0.,0.));
#675=DIRECTION('',(0.,0.,1.));
#676=DIRECTION('',(1.,0.,0.));
#677=DIRECTION('',(0.,0.,-1.));
#678=DIRECTION('',(-1.,0.,0.));
#679=DIRECTION('',(0.,0.,1.));
#680=DIRECTION('',(0.,-0.573576436351011,-0.819152044289016));
#681=DIRECTION('',(1.,0.,0.));
#682=DIRECTION('',(0.,0.819152044289016,-0.573576436351011));
#683=DIRECTION('',(0.,0.819152044289016,-0.573576436351011));
#684=DIRECTION('',(0.,-0.573576436351011,-0.819152044289016));
#685=DIRECTION('',(1.,0.,0.));
#686=DIRECTION('',(0.,-0.573576436351011,-0.819152044289016));
#687=DIRECTION('',(0.,0.819152044289016,-0.573576436351011));
#688=DIRECTION('',(0.,-0.573576436351011,-0.819152044289016));
#689=DIRECTION('',(0.,0.819152044289016,-0.573576436351011));
#690=DIRECTION('',(0.,-0.573576436351011,-0.819152044289016));
#691=DIRECTION('',(0.,0.819152044289016,-0.573576436351011));
#692=DIRECTION('',(0.,-0.573576436351011,-0.819152044289016));
#693=DIRECTION('',(0.,0.819152044289016,-0.573576436351011));
#694=DIRECTION('',(1.,0.,0.));
#695=DIRECTION('',(0.,-0.573576436351011,-0.819152044289016));
#696=DIRECTION('',(0.,0.819152044289016,-0.573576436351011));
#697=DIRECTION('',(0.,0.819152044289,-0.573576436351035));
#698=DIRECTION('',(0.,-0.573576436351011,-0.819152044289016));
#699=DIRECTION('',(0.,0.819152044289016,-0.573576436351011));
#700=DIRECTION('',(1.,0.,0.));
#701=DIRECTION('',(0.,-0.573576436351011,-0.819152044289016));
#702=DIRECTION('',(0.,0.819152044289016,-0.573576436351011));
#703=DIRECTION('',(0.,-0.819152044288986,0.573576436351055));
#704=DIRECTION('',(0.,-0.573576436351011,-0.819152044289016));
#705=DIRECTION('',(0.,0.819152044289016,-0.573576436351011));
#706=DIRECTION('',(0.,0.819152044289016,-0.573576436351011));
#707=DIRECTION('',(0.,-0.573576436351011,-0.819152044289016));
#708=DIRECTION('',(0.,0.819152044289016,-0.573576436351011));
#709=DIRECTION('',(0.,-0.573576436351011,-0.819152044289016));
#710=DIRECTION('',(0.,0.819152044289016,-0.573576436351011));
#711=DIRECTION('',(0.,0.819152044289016,-0.573576436351011));
#712=DIRECTION('',(0.,-0.573576436351011,-0.819152044289016));
#713=DIRECTION('',(1.,0.,0.));
#714=DIRECTION('',(0.,-0.573576436351011,-0.819152044289016));
#715=DIRECTION('',(0.,0.819152044289016,-0.573576436351011));
#716=DIRECTION('',(0.,-0.573576436351011,-0.819152044289016));
#717=DIRECTION('',(0.,0.819152044289016,-0.573576436351011));
#718=DIRECTION('',(0.,-0.573576436351011,-0.819152044289016));
#719=DIRECTION('',(0.,0.819152044289016,-0.573576436351011));
#720=DIRECTION('',(1.,0.,0.));
#721=DIRECTION('',(0.,-0.573576436351011,-0.819152044289016));
#722=DIRECTION('',(0.,0.819152044289016,-0.573576436351011));
#723=DIRECTION('',(0.,0.819152044289,-0.573576436351035));
#724=DIRECTION('',(0.,-0.573576436351011,-0.819152044289016));
#725=DIRECTION('',(0.,0.819152044289016,-0.573576436351011));
#726=DIRECTION('',(1.,0.,0.));
#727=DIRECTION('',(0.,0.573576436351011,0.819152044289016));
#728=DIRECTION('',(0.,-0.819152044289016,0.573576436351011));
#729=DIRECTION('',(-1.,0.,0.));
#730=DIRECTION('',(0.,0.,1.));
#731=DIRECTION('',(0.,0.573576436351011,0.819152044289016));
#732=DIRECTION('',(0.,-0.819152044288986,0.573576436351055));
#733=DIRECTION('',(0.,0.573576436351011,0.819152044289016));
#734=DIRECTION('',(0.,0.573576436351011,0.819152044289016));
#735=DIRECTION('',(0.,-0.819152044289016,0.573576436351011));
#736=DIRECTION('',(0.,0.573576436351011,0.819152044289016));
#737=DIRECTION('',(0.,-0.573576436351011,-0.819152044289016));
#738=DIRECTION('',(0.,0.819152044289016,-0.573576436351011));
#739=DIRECTION('',(0.,0.573576436351011,0.819152044289016));
#740=DIRECTION('',(0.,0.573576436351011,0.819152044289016));
#741=DIRECTION('',(0.,-0.819152044289016,0.573576436351011));
#742=DIRECTION('',(0.,-0.573576436351011,-0.819152044289016));
#743=DIRECTION('',(0.,0.819152044289016,-0.573576436351011));
#744=DIRECTION('',(0.,0.573576436351011,0.819152044289016));
#745=DIRECTION('',(0.,-0.819152044289016,0.573576436351011));
#746=DIRECTION('',(0.,-0.573576436351011,-0.819152044289016));
#747=DIRECTION('',(0.,0.819152044289016,-0.573576436351011));
#748=DIRECTION('',(0.,0.573576436351011,0.819152044289016));
#749=DIRECTION('',(0.,-0.819152044289016,0.573576436351011));
#750=DIRECTION('',(0.,0.573576436351011,0.819152044289016));
#751=DIRECTION('',(0.,-0.819152044289016,0.573576436351011));
#752=DIRECTION('',(0.,-0.573576436351011,-0.819152044289016));
#753=DIRECTION('',(0.,0.819152044289016,-0.573576436351011));
#754=DIRECTION('',(0.,0.573576436351011,0.819152044289016));
#755=DIRECTION('',(0.,-0.819152044289016,0.573576436351011));
#756=DIRECTION('',(0.,-0.573576436351011,-0.819152044289016));
#757=DIRECTION('',(0.,0.573576436351011,0.819152044289016));
#758=DIRECTION('',(0.,0.573576436351011,0.819152044289016));
#759=DIRECTION('',(1.,0.,0.));
#760=DIRECTION('',(0.,0.573576436351011,0.819152044289016));
#761=DIRECTION('',(0.,-0.819152044289016,0.573576436351011));
#762=DIRECTION('',(0.,0.573576436351011,0.819152044289016));
#763=DIRECTION('',(1.,0.,0.));
#764=DIRECTION('',(0.,0.,-1.));
#765=DIRECTION('',(0.,0.573576436351011,0.819152044289016));
#766=DIRECTION('',(0.,0.573576436351011,0.819152044289016));
#767=DIRECTION('',(0.,-0.819152044289016,0.573576436351011));
#768=DIRECTION('',(0.,0.573576436351011,0.819152044289016));
#769=DIRECTION('',(0.,-0.819152044289016,0.573576436351011));
#770=DIRECTION('',(0.,-0.573576436351011,-0.819152044289016));
#771=DIRECTION('',(0.,0.573576436351011,0.819152044289016));
#772=DIRECTION('',(1.,0.,0.));
#773=DIRECTION('',(0.,0.573576436351011,0.819152044289016));
#774=DIRECTION('',(0.,0.573576436351011,0.819152044289016));
#775=DIRECTION('',(0.,-0.819152044289016,0.573576436351011));
#776=DIRECTION('',(0.,-0.573576436351011,-0.819152044289016));
#777=DIRECTION('',(0.,0.819152044289016,-0.573576436351011));
#778=DIRECTION('',(0.,0.573576436351011,0.819152044289016));
#779=DIRECTION('',(0.,-0.819152044289016,0.573576436351011));
#780=DIRECTION('',(0.,0.573576436351011,0.819152044289016));
#781=DIRECTION('',(0.,0.573576436351011,0.819152044289016));
#782=DIRECTION('',(0.,-0.573576436351011,-0.819152044289016));
#783=DIRECTION('',(1.,0.,0.));
#784=DIRECTION('',(0.,-0.819152044289016,0.573576436351011));
#785=DIRECTION('',(0.,-0.819152044289016,0.573576436351011));
#786=DIRECTION('',(1.,0.,0.));
#787=DIRECTION('',(0.,0.,-1.));
#788=DIRECTION('',(1.,0.,0.));
#789=DIRECTION('',(0.,0.,-1.));
#790=CARTESIAN_POINT('',(0.,0.,0.));
#791=CARTESIAN_POINT('',(0.10079171096245,-0.00573718871434849,0.00719446637708499));
#792=CARTESIAN_POINT('',(0.1081917109624,-0.00149272308537937,0.0132561915047825));
#793=CARTESIAN_POINT('',(0.11279171096245,-0.0139551344585619,0.0275980290009186));
#794=CARTESIAN_POINT('',(0.101618432921135,-0.0198657962148603,0.0180966650124826));
#795=CARTESIAN_POINT('',(0.11279171096245,-0.0131891982078593,0.0270617146643882));
#796=CARTESIAN_POINT('',(0.11279171096245,-0.0152373123639151,0.0284958196355743));
#797=CARTESIAN_POINT('',(0.10079171096245,-0.0221202296001282,0.0186659951041048));
#798=CARTESIAN_POINT('',(0.103791710962452,-0.0203995002910742,0.0211234512369732));
#799=CARTESIAN_POINT('',(0.0951250442957846,-0.0182711783556143,0.00905313773809441));
#800=CARTESIAN_POINT('',(0.10079171096245,-0.00573718871434849,0.00719446637708499));
#801=CARTESIAN_POINT('',(0.120991710962425,0.02223209618571,0.012269808944681));
#802=CARTESIAN_POINT('',(0.10379171096245,0.012366581480487,-0.00181960621706954));
#803=CARTESIAN_POINT('',(0.11279171096245,0.0175287694076461,0.00555276218153161));
#804=CARTESIAN_POINT('',(0.11279171096245,0.017528769407646,0.00555276218153153));
#805=CARTESIAN_POINT('',(0.11279171096245,0.0162465915022903,0.00645055281618793));
#806=CARTESIAN_POINT('',(0.1081917109624,-0.00149272308537937,0.0132561915047825));
#807=CARTESIAN_POINT('',(0.10161843292113,0.00933979525599096,-0.00235331029328507));
#808=CARTESIAN_POINT('',(0.0951250442957826,0.000296267981605682,-0.00394792815253258));
#809=CARTESIAN_POINT('',(0.08719171096245,-0.0203995002910742,0.0211234512369732));
#810=CARTESIAN_POINT('',(0.09779171096245,-0.0203995002910742,0.0211234512369732));
#811=CARTESIAN_POINT('',(0.09779171096245,-0.0203995002910742,0.0211234512369732));
#812=CARTESIAN_POINT('',(0.09779171096245,-0.0194171978593231,0.0155525373144117));
#813=CARTESIAN_POINT('',(0.108191710962425,-0.0194171978593231,0.0155525373144117));
#814=CARTESIAN_POINT('',(0.10079171096245,-0.0194171978593231,0.0155525373144117));
#815=CARTESIAN_POINT('',(0.10079171096245,-0.0190488344474174,0.0134634445934565));
#816=CARTESIAN_POINT('',(0.10079171096245,-0.0197854911062029,0.0176412321097309));
#817=CARTESIAN_POINT('',(0.1081917109624,-0.015487988132319,-0.00673111837583378));
#818=CARTESIAN_POINT('',(0.08719171096245,-0.0203995002910742,0.0211234512369732));
#819=CARTESIAN_POINT('',(0.108191710962425,0.0067956675579268,-0.00280190864882163));
#820=CARTESIAN_POINT('',(0.09779171096245,0.0067956675579268,-0.00280190864882163));
#821=CARTESIAN_POINT('',(0.09779171096245,0.012366581480487,-0.00181960621706954));
#822=CARTESIAN_POINT('',(0.09779171096245,0.0067956675579268,-0.00280190864882163));
#823=CARTESIAN_POINT('',(0.09779171096245,0.012366581480487,-0.00181960621706954));
#824=CARTESIAN_POINT('',(0.1081917109624,-0.0154879881323168,-0.00673111837583055));
#825=CARTESIAN_POINT('',(0.10079171096245,0.00888436235324193,-0.00243361540194212));
#826=CARTESIAN_POINT('',(0.10079171096245,0.00470657483696527,-0.00317027206072894));
#827=CARTESIAN_POINT('',(0.10079171096245,0.0067956675579268,-0.00280190864882163));
#828=CARTESIAN_POINT('',(0.10079171096245,0.0067956675579268,-0.00280190864882163));
#829=CARTESIAN_POINT('',(0.1281937109624,0.00478985008418402,0.00653761469351596));
#830=CARTESIAN_POINT('',(0.10079171096245,0.00478985008418402,0.00653761469351596));
#831=CARTESIAN_POINT('',(0.10079171096245,0.00478985008418402,0.00478761469351596));
#832=CARTESIAN_POINT('',(0.09779171096245,0.00478985008418402,0.00653761469351596));
#833=CARTESIAN_POINT('',(0.09779171096245,0.00478985008418402,0.00828761469351596));
#834=CARTESIAN_POINT('',(0.1281937109624,-0.00258251831441712,0.0116998026206751));
#835=CARTESIAN_POINT('',(0.10079171096245,-0.00258251831441712,0.0116998026206751));
#836=CARTESIAN_POINT('',(0.10079171096245,-0.00258251831441712,0.0091998026206751));
#837=CARTESIAN_POINT('',(0.09779171096245,-0.00258251831441712,0.0116998026206751));
#838=CARTESIAN_POINT('',(0.09779171096245,-0.00258251831441712,0.0141998026206751));
#839=CARTESIAN_POINT('',(0.1281937109624,-0.00995488671301827,0.0168619905478341));
#840=CARTESIAN_POINT('',(0.10079171096245,-0.00995488671301827,0.0168619905478341));
#841=CARTESIAN_POINT('',(0.10079171096245,-0.00995488671301827,0.0151119905478341));
#842=CARTESIAN_POINT('',(0.09779171096245,-0.00995488671301827,0.0168619905478341));
#843=CARTESIAN_POINT('',(0.09779171096245,-0.00995488671301827,0.0186119905478341));
#844=CARTESIAN_POINT('',(0.108191710962425,-0.00631076515069859,0.00637531433279533));
#845=CARTESIAN_POINT('',(0.09779171096245,-0.0063107651506995,0.00637531433279597));
#846=CARTESIAN_POINT('',(0.10079171096245,-0.0063107651506995,0.00637531433279597));
#847=CARTESIAN_POINT('',(0.108191710962425,0.00286645783091759,0.0194817470414196));
#848=CARTESIAN_POINT('',(0.1241917109624,0.0159728905395431,0.0103045240598025));
#849=CARTESIAN_POINT('',(0.1241917109624,0.0172835338104055,0.00938680176164088));
#850=CARTESIAN_POINT('',(0.1241917109624,-0.0102399748777064,0.0286589700230356));
#851=CARTESIAN_POINT('',(0.1241917109624,-0.00892933160684397,0.027741247724874));
#852=CARTESIAN_POINT('',(0.09219171096245,0.0159728905395431,0.0103045240598025));
#853=CARTESIAN_POINT('',(0.09219171096245,0.0172835338104055,0.00938680176164088));
#854=CARTESIAN_POINT('',(0.09219171096245,-0.0102399748777064,0.0286589700230356));
#855=CARTESIAN_POINT('',(0.09219171096245,-0.00892933160684397,0.027741247724874));
#856=CARTESIAN_POINT('',(0.08719171096245,-0.013516583054862,0.0309532757684414));
#857=CARTESIAN_POINT('',(0.09119171096245,-0.0135165830548629,0.0309532757684401));
#858=CARTESIAN_POINT('',(0.1251917109624,-0.013516583054862,0.0309532757684414));
#859=CARTESIAN_POINT('',(0.1251917109624,-0.0110591269219964,0.0292325464593894));
#860=CARTESIAN_POINT('',(0.1281917109624,-0.0110591269219964,0.0292325464593894));
#861=CARTESIAN_POINT('',(0.1281917109624,-0.011059126922,0.02923254645939));
#862=CARTESIAN_POINT('',(0.1281917109624,0.0167920425838309,0.00973094762345135));
#863=CARTESIAN_POINT('',(0.1251917109624,0.0167920425838309,0.00973094762345134));
#864=CARTESIAN_POINT('',(0.1251917109624,0.0192494987166986,0.00801021831439788));
#865=CARTESIAN_POINT('',(0.1291917109624,0.0192494987166991,0.00801021831439866));
#866=CARTESIAN_POINT('',(0.09119171096245,0.0192494987166988,0.00801021831439885));
#867=CARTESIAN_POINT('',(0.09119171096245,0.0167920425838315,0.00973094762345208));
#868=CARTESIAN_POINT('',(0.08819171096245,0.0167920425838315,0.00973094762345208));
#869=CARTESIAN_POINT('',(0.08819171096245,0.01679204258383,0.009730947623451));
#870=CARTESIAN_POINT('',(0.08819171096245,-0.0110591269219973,0.0292325464593881));
#871=CARTESIAN_POINT('',(0.09119171096245,-0.0110591269219973,0.0292325464593881));
#872=CARTESIAN_POINT('',(0.09779171096245,0.00286645783091668,0.0194817470414202));
#873=CARTESIAN_POINT('',(0.09779171096245,-0.0101588324353279,0.0286021534732139));
#874=CARTESIAN_POINT('',(0.09779171096245,0.0158917480971623,0.0103613406096268));
#875=CARTESIAN_POINT('',(0.1081917109624,0.00286645783091719,0.0194817470414203));
#876=CARTESIAN_POINT('',(0.1081917109624,0.00286645783091719,0.0194817470414203));
#877=CARTESIAN_POINT('',(0.10079171096245,0.0172013845606405,0.0094443232855851));
#878=CARTESIAN_POINT('',(0.10079171096245,-0.0114684688988061,0.0295191707972555));
#879=CARTESIAN_POINT('',(0.10079171096245,0.00286645783091668,0.0194817470414202));
#880=CARTESIAN_POINT('',(0.108191710962425,0.00114572852186456,0.0170242909085526));
#881=CARTESIAN_POINT('',(0.1241917109624,0.0142521612304901,0.00784706792693548));
#882=CARTESIAN_POINT('',(0.1241917109624,0.0155628045013525,0.00692934562877386));
#883=CARTESIAN_POINT('',(0.1241917109624,-0.0119607041867595,0.0262015138901685));
#884=CARTESIAN_POINT('',(0.1241917109624,-0.0106500609158971,0.0252837915920069));
#885=CARTESIAN_POINT('',(0.1081917109624,0.00114572852186416,0.0170242909085532));
#886=CARTESIAN_POINT('',(0.1291917109624,0.0175287694076461,0.00555276218153161));
#887=CARTESIAN_POINT('',(0.1251917109624,0.0175287694076455,0.00555276218153083));
#888=CARTESIAN_POINT('',(0.1251917109624,0.0150713132747778,0.00727349149058429));
#889=CARTESIAN_POINT('',(0.1281917109624,0.0150713132747779,0.0072734914905843));
#890=CARTESIAN_POINT('',(0.1281917109624,-0.012779856231053,0.0267750903265229));
#891=CARTESIAN_POINT('',(0.1281917109624,-0.0127798562310494,0.0267750903265223));
#892=CARTESIAN_POINT('',(0.1251917109624,-0.0127798562310494,0.0267750903265223));
#893=CARTESIAN_POINT('',(0.1251917109624,-0.015237312363915,0.0284958196355743));
#894=CARTESIAN_POINT('',(0.08719171096245,-0.0152373123639151,0.0284958196355743));
#895=CARTESIAN_POINT('',(0.1241917109624,0.0142521612304901,0.00784706792693548));
#896=CARTESIAN_POINT('',(0.08819171096245,0.0150713132747769,0.00727349149058395));
#897=CARTESIAN_POINT('',(0.08819171096245,0.0150713132747784,0.00727349149058503));
#898=CARTESIAN_POINT('',(0.08819171096245,0.0150713132747784,0.00727349149058503));
#899=CARTESIAN_POINT('',(0.08819171096245,0.0150713132747769,0.00727349149058395));
#900=CARTESIAN_POINT('',(0.08819171096245,-0.0127798562310503,0.026775090326521));
#901=CARTESIAN_POINT('',(0.08819171096245,-0.0127798562310503,0.026775090326521));
#902=CARTESIAN_POINT('',(0.1081917109624,0.00114572852186416,0.0170242909085532));
#903=CARTESIAN_POINT('',(0.09779171096245,-0.0118795617443809,0.0261446973403468));
#904=CARTESIAN_POINT('',(0.09779171096245,-0.0118795617443809,0.0261446973403468));
#905=CARTESIAN_POINT('',(0.1081917109624,0.00114572852186416,0.0170242909085532));
#906=CARTESIAN_POINT('',(0.09779171096245,0.014171018788109,0.00790388447675943));
#907=CARTESIAN_POINT('',(0.09779171096245,0.0141710187881092,0.00790388447675971));
#908=CARTESIAN_POINT('',(0.09219171096245,-0.0119607041867595,0.0262015138901685));
#909=CARTESIAN_POINT('',(0.09219171096245,-0.0119607041867595,0.0262015138901685));
#910=CARTESIAN_POINT('',(0.09219171096245,-0.0106500609158971,0.0252837915920069));
#911=CARTESIAN_POINT('',(0.09219171096245,0.0142521612304901,0.00784706792693548));
#912=CARTESIAN_POINT('',(0.09219171096245,0.0142521612304901,0.00784706792693548));
#913=CARTESIAN_POINT('',(0.09219171096245,0.0155628045013525,0.00692934562877386));
#914=CARTESIAN_POINT('',(0.1241917109624,-0.0119607041867595,0.0262015138901685));
#915=CARTESIAN_POINT('',(0.09119171096245,-0.0127798562310503,0.026775090326521));
#916=CARTESIAN_POINT('',(0.09119171096245,-0.0127798562310503,0.026775090326521));
#917=CARTESIAN_POINT('',(0.09119171096245,-0.0152373123639159,0.0284958196355731));
#918=CARTESIAN_POINT('',(0.09119171096245,-0.0152373123639159,0.0284958196355731));
#919=CARTESIAN_POINT('',(0.08719171096245,-0.0152373123639151,0.0284958196355743));
#920=CARTESIAN_POINT('',(0.09779171096245,-0.0226938060364787,0.0178468430598164));
#921=CARTESIAN_POINT('',(0.09779171096245,-0.0152373123639155,0.0284958196355737));
#922=CARTESIAN_POINT('',(0.1251917109624,-0.015237312363915,0.0284958196355743));
#923=CARTESIAN_POINT('',(0.08719171096245,-0.0152373123639151,0.0284958196355743));
#924=CARTESIAN_POINT('',(0.1251917109624,-0.0127798562310494,0.0267750903265223));
#925=CARTESIAN_POINT('',(0.1281917109624,-0.0127798562310494,0.0267750903265223));
#926=CARTESIAN_POINT('',(0.1281917109624,-0.012779856231053,0.0267750903265229));
#927=CARTESIAN_POINT('',(0.1281917109624,0.0150713132747779,0.0072734914905843));
#928=CARTESIAN_POINT('',(0.1251917109624,0.0150713132747778,0.00727349149058429));
#929=CARTESIAN_POINT('',(0.1251917109624,0.0175287694076455,0.00555276218153083));
#930=CARTESIAN_POINT('',(0.1291917109624,0.0175287694076461,0.00555276218153161));
#931=CARTESIAN_POINT('',(0.09779171096245,0.0100722757350829,-0.00509621439422564));
#932=CARTESIAN_POINT('',(0.09779171096245,0.017528769407646,0.00555276218153153));
#933=CARTESIAN_POINT('',(0.1291917109624,0.0175287694076461,0.00555276218153161));
#934=CARTESIAN_POINT('',(0.09119171096245,0.0175287694076458,0.0055527621815318));
#935=CARTESIAN_POINT('',(0.09119171096245,0.0175287694076458,0.0055527621815318));
#936=CARTESIAN_POINT('',(0.09119171096245,0.0150713132747784,0.00727349149058503));
#937=CARTESIAN_POINT('',(0.09119171096245,0.0150713132747784,0.00727349149058503));
#938=CARTESIAN_POINT('',(0.1081917109624,0.00114572852186416,0.0170242909085532));
#939=CARTESIAN_POINT('',(0.10079171096245,0.0154806552515874,0.00698686715271805));
#940=CARTESIAN_POINT('',(0.10079171096245,-0.0131891982078591,0.0270617146643885));
#941=CARTESIAN_POINT('',(0.108191710962425,0.00114572852186456,0.0170242909085526));
#942=CARTESIAN_POINT('',(0.09779171096245,0.00114572852186456,0.0170242909085526));
#943=CARTESIAN_POINT('',(0.09779171096245,0.00114572852186456,0.0170242909085526));
#944=CARTESIAN_POINT('',(0.10079171096245,0.00114572852186365,0.0170242909085532));
#945=CARTESIAN_POINT('',(0.09779171096245,0.00114572852186365,0.0170242909085532));
#946=MECHANICAL_DESIGN_GEOMETRIC_PRESENTATION_REPRESENTATION('',(#561),
#947);
#947=(
GEOMETRIC_REPRESENTATION_CONTEXT(3)
GLOBAL_UNCERTAINTY_ASSIGNED_CONTEXT((#948))
GLOBAL_UNIT_ASSIGNED_CONTEXT((#951,#950,#949))
REPRESENTATION_CONTEXT('BLTouch Mount','TOP_LEVEL_ASSEMBLY_PART')
);
#948=UNCERTAINTY_MEASURE_WITH_UNIT(LENGTH_MEASURE(1.E-6),#951,
'DISTANCE_ACCURACY_VALUE','Maximum Tolerance applied to model');
#949=(
NAMED_UNIT(*)
SI_UNIT($,.STERADIAN.)
SOLID_ANGLE_UNIT()
);
#950=(
NAMED_UNIT(*)
PLANE_ANGLE_UNIT()
SI_UNIT($,.RADIAN.)
);
#951=(
LENGTH_UNIT()
NAMED_UNIT(*)
SI_UNIT($,.METRE.)
);
#952=PRODUCT_DEFINITION_SHAPE('','',#953);
#953=PRODUCT_DEFINITION('','',#955,#954);
#954=PRODUCT_DEFINITION_CONTEXT('',#961,'design');
#955=PRODUCT_DEFINITION_FORMATION_WITH_SPECIFIED_SOURCE('','',#957,
 .NOT_KNOWN.);
#956=PRODUCT_RELATED_PRODUCT_CATEGORY('','',(#957));
#957=PRODUCT('BLTouch Mount','BLTouch Mount','BLTouch Mount',(#959));
#958=PRODUCT_CATEGORY('','');
#959=PRODUCT_CONTEXT('',#961,'mechanical');
#960=APPLICATION_PROTOCOL_DEFINITION('international standard',
'ap242_managed_model_based_3d_engineering',2020,#961);
#961=APPLICATION_CONTEXT('managed model based 3d engineering');
ENDSEC;
END-ISO-10303-21;
