ISO-10303-21;
HEADER;
/* Generated by software containing ST-Developer
 * from STEP Tools, Inc. (www.steptools.com) 
 */
/* OPTION: using custom renumber hook */

FILE_DESCRIPTION(
/* description */ ('STEP AP242 Edition 2',
'CAx-IF Rec.Pracs.---Representation and Presentation of Product Manufa
cturing Information (PMI)---4.0---2014-10-13',
'CAx-IF Rec.Pracs.---3D Tessellated Geometry---0.4---2014-09-14','2;1',
'CAx-IF Rec.Pracs.---User Defined Attributes---1.5---2016-08-15'),
/* implementation_level */ '2;1');

FILE_NAME(
/* name */ '6961f47c46b9ae42405cfe3d',
/* time_stamp */ '2026-01-10T06:41:00Z',
/* author */ (''),
/* organization */ (''),
/* preprocessor_version */ 'ST-DEVELOPER v20',
/* originating_system */ 'ONSHAPE BY PTC INC, 1.209',
/* authorisation */ '  ');

FILE_SCHEMA (('AP242_MANAGED_MODEL_BASED_3D_ENGINEERING_MIM_LF { 1 0 10303 442 3 1 4 }'));
ENDSEC;

DATA;
#10=SHAPE_REPRESENTATION_RELATIONSHIP('','',#422,#11);
#11=ADVANCED_BREP_SHAPE_REPRESENTATION('',(#420),#680);
#12=CIRCLE('',#427,0.00175);
#13=CIRCLE('',#428,0.00175);
#14=CIRCLE('',#433,0.00175);
#15=CIRCLE('',#437,0.00175);
#16=CIRCLE('',#439,0.0082);
#17=CIRCLE('',#440,0.0082);
#18=CIRCLE('',#443,0.0061);
#19=CIRCLE('',#446,0.0061);
#20=CIRCLE('',#448,0.0082);
#21=CIRCLE('',#451,0.0082);
#22=CYLINDRICAL_SURFACE('',#426,0.00175);
#23=CYLINDRICAL_SURFACE('',#436,0.00175);
#24=CYLINDRICAL_SURFACE('',#438,0.0082);
#25=CYLINDRICAL_SURFACE('',#445,0.0061);
#26=CYLINDRICAL_SURFACE('',#450,0.0082);
#27=ORIENTED_EDGE('',*,*,#137,.T.);
#28=ORIENTED_EDGE('',*,*,#138,.T.);
#29=ORIENTED_EDGE('',*,*,#139,.F.);
#30=ORIENTED_EDGE('',*,*,#140,.F.);
#31=ORIENTED_EDGE('',*,*,#141,.F.);
#32=ORIENTED_EDGE('',*,*,#138,.F.);
#33=ORIENTED_EDGE('',*,*,#142,.F.);
#34=ORIENTED_EDGE('',*,*,#143,.T.);
#35=ORIENTED_EDGE('',*,*,#144,.F.);
#36=ORIENTED_EDGE('',*,*,#145,.T.);
#37=ORIENTED_EDGE('',*,*,#146,.T.);
#38=ORIENTED_EDGE('',*,*,#147,.F.);
#39=ORIENTED_EDGE('',*,*,#148,.F.);
#40=ORIENTED_EDGE('',*,*,#149,.F.);
#41=ORIENTED_EDGE('',*,*,#150,.T.);
#42=ORIENTED_EDGE('',*,*,#151,.T.);
#43=ORIENTED_EDGE('',*,*,#139,.T.);
#44=ORIENTED_EDGE('',*,*,#141,.T.);
#45=ORIENTED_EDGE('',*,*,#152,.T.);
#46=ORIENTED_EDGE('',*,*,#153,.F.);
#47=ORIENTED_EDGE('',*,*,#154,.T.);
#48=ORIENTED_EDGE('',*,*,#150,.F.);
#49=ORIENTED_EDGE('',*,*,#155,.F.);
#50=ORIENTED_EDGE('',*,*,#156,.F.);
#51=ORIENTED_EDGE('',*,*,#157,.T.);
#52=ORIENTED_EDGE('',*,*,#153,.T.);
#53=ORIENTED_EDGE('',*,*,#158,.F.);
#54=ORIENTED_EDGE('',*,*,#146,.F.);
#55=ORIENTED_EDGE('',*,*,#159,.F.);
#56=ORIENTED_EDGE('',*,*,#157,.F.);
#57=ORIENTED_EDGE('',*,*,#160,.F.);
#58=ORIENTED_EDGE('',*,*,#161,.F.);
#59=ORIENTED_EDGE('',*,*,#140,.T.);
#60=ORIENTED_EDGE('',*,*,#151,.F.);
#61=ORIENTED_EDGE('',*,*,#154,.F.);
#62=ORIENTED_EDGE('',*,*,#148,.T.);
#63=ORIENTED_EDGE('',*,*,#145,.F.);
#64=ORIENTED_EDGE('',*,*,#162,.F.);
#65=ORIENTED_EDGE('',*,*,#163,.T.);
#66=ORIENTED_EDGE('',*,*,#147,.T.);
#67=ORIENTED_EDGE('',*,*,#163,.F.);
#68=ORIENTED_EDGE('',*,*,#164,.T.);
#69=ORIENTED_EDGE('',*,*,#165,.T.);
#70=ORIENTED_EDGE('',*,*,#166,.F.);
#71=ORIENTED_EDGE('',*,*,#167,.T.);
#72=ORIENTED_EDGE('',*,*,#168,.T.);
#73=ORIENTED_EDGE('',*,*,#169,.T.);
#74=ORIENTED_EDGE('',*,*,#170,.T.);
#75=ORIENTED_EDGE('',*,*,#155,.T.);
#76=ORIENTED_EDGE('',*,*,#149,.T.);
#77=ORIENTED_EDGE('',*,*,#159,.T.);
#78=ORIENTED_EDGE('',*,*,#171,.F.);
#79=ORIENTED_EDGE('',*,*,#169,.F.);
#80=ORIENTED_EDGE('',*,*,#172,.F.);
#81=ORIENTED_EDGE('',*,*,#173,.F.);
#82=ORIENTED_EDGE('',*,*,#174,.T.);
#83=ORIENTED_EDGE('',*,*,#175,.T.);
#84=ORIENTED_EDGE('',*,*,#158,.T.);
#85=ORIENTED_EDGE('',*,*,#152,.F.);
#86=ORIENTED_EDGE('',*,*,#170,.F.);
#87=ORIENTED_EDGE('',*,*,#174,.F.);
#88=ORIENTED_EDGE('',*,*,#176,.F.);
#89=ORIENTED_EDGE('',*,*,#168,.F.);
#90=ORIENTED_EDGE('',*,*,#177,.F.);
#91=ORIENTED_EDGE('',*,*,#178,.F.);
#92=ORIENTED_EDGE('',*,*,#172,.T.);
#93=ORIENTED_EDGE('',*,*,#175,.F.);
#94=ORIENTED_EDGE('',*,*,#179,.F.);
#95=ORIENTED_EDGE('',*,*,#180,.T.);
#96=ORIENTED_EDGE('',*,*,#160,.T.);
#97=ORIENTED_EDGE('',*,*,#156,.T.);
#98=ORIENTED_EDGE('',*,*,#167,.F.);
#99=ORIENTED_EDGE('',*,*,#181,.F.);
#100=ORIENTED_EDGE('',*,*,#182,.F.);
#101=ORIENTED_EDGE('',*,*,#177,.T.);
#102=ORIENTED_EDGE('',*,*,#183,.F.);
#103=ORIENTED_EDGE('',*,*,#184,.T.);
#104=ORIENTED_EDGE('',*,*,#181,.T.);
#105=ORIENTED_EDGE('',*,*,#166,.T.);
#106=ORIENTED_EDGE('',*,*,#137,.F.);
#107=ORIENTED_EDGE('',*,*,#161,.T.);
#108=ORIENTED_EDGE('',*,*,#180,.F.);
#109=ORIENTED_EDGE('',*,*,#185,.T.);
#110=ORIENTED_EDGE('',*,*,#186,.T.);
#111=ORIENTED_EDGE('',*,*,#142,.T.);
#112=ORIENTED_EDGE('',*,*,#165,.F.);
#113=ORIENTED_EDGE('',*,*,#187,.F.);
#114=ORIENTED_EDGE('',*,*,#188,.F.);
#115=ORIENTED_EDGE('',*,*,#183,.T.);
#116=ORIENTED_EDGE('',*,*,#189,.T.);
#117=ORIENTED_EDGE('',*,*,#143,.F.);
#118=ORIENTED_EDGE('',*,*,#186,.F.);
#119=ORIENTED_EDGE('',*,*,#190,.T.);
#120=ORIENTED_EDGE('',*,*,#164,.F.);
#121=ORIENTED_EDGE('',*,*,#162,.T.);
#122=ORIENTED_EDGE('',*,*,#144,.T.);
#123=ORIENTED_EDGE('',*,*,#189,.F.);
#124=ORIENTED_EDGE('',*,*,#191,.F.);
#125=ORIENTED_EDGE('',*,*,#187,.T.);
#126=ORIENTED_EDGE('',*,*,#171,.T.);
#127=ORIENTED_EDGE('',*,*,#190,.F.);
#128=ORIENTED_EDGE('',*,*,#185,.F.);
#129=ORIENTED_EDGE('',*,*,#179,.T.);
#130=ORIENTED_EDGE('',*,*,#176,.T.);
#131=ORIENTED_EDGE('',*,*,#173,.T.);
#132=ORIENTED_EDGE('',*,*,#178,.T.);
#133=ORIENTED_EDGE('',*,*,#182,.T.);
#134=ORIENTED_EDGE('',*,*,#184,.F.);
#135=ORIENTED_EDGE('',*,*,#188,.T.);
#136=ORIENTED_EDGE('',*,*,#191,.T.);
#137=EDGE_CURVE('',#192,#193,#230,.T.);
#138=EDGE_CURVE('',#193,#194,#231,.T.);
#139=EDGE_CURVE('',#195,#194,#232,.T.);
#140=EDGE_CURVE('',#192,#195,#233,.T.);
#141=EDGE_CURVE('',#194,#196,#234,.T.);
#142=EDGE_CURVE('',#197,#193,#235,.T.);
#143=EDGE_CURVE('',#197,#198,#236,.T.);
#144=EDGE_CURVE('',#199,#198,#237,.T.);
#145=EDGE_CURVE('',#199,#196,#238,.T.);
#146=EDGE_CURVE('',#200,#200,#12,.T.);
#147=EDGE_CURVE('',#201,#201,#13,.T.);
#148=EDGE_CURVE('',#202,#196,#239,.T.);
#149=EDGE_CURVE('',#203,#202,#240,.T.);
#150=EDGE_CURVE('',#203,#204,#241,.T.);
#151=EDGE_CURVE('',#204,#195,#242,.T.);
#152=EDGE_CURVE('',#205,#206,#243,.T.);
#153=EDGE_CURVE('',#207,#206,#244,.T.);
#154=EDGE_CURVE('',#207,#204,#245,.T.);
#155=EDGE_CURVE('',#205,#203,#246,.T.);
#156=EDGE_CURVE('',#208,#209,#247,.T.);
#157=EDGE_CURVE('',#208,#207,#248,.T.);
#158=EDGE_CURVE('',#209,#206,#249,.T.);
#159=EDGE_CURVE('',#210,#210,#14,.T.);
#160=EDGE_CURVE('',#211,#208,#250,.T.);
#161=EDGE_CURVE('',#192,#211,#251,.T.);
#162=EDGE_CURVE('',#212,#199,#252,.T.);
#163=EDGE_CURVE('',#212,#202,#253,.T.);
#164=EDGE_CURVE('',#212,#213,#254,.T.);
#165=EDGE_CURVE('',#213,#214,#255,.T.);
#166=EDGE_CURVE('',#215,#214,#256,.T.);
#167=EDGE_CURVE('',#215,#216,#257,.T.);
#168=EDGE_CURVE('',#216,#217,#258,.T.);
#169=EDGE_CURVE('',#217,#218,#259,.T.);
#170=EDGE_CURVE('',#218,#205,#260,.T.);
#171=EDGE_CURVE('',#219,#219,#15,.T.);
#172=EDGE_CURVE('',#220,#217,#16,.T.);
#173=EDGE_CURVE('',#221,#220,#261,.T.);
#174=EDGE_CURVE('',#221,#218,#17,.T.);
#175=EDGE_CURVE('',#222,#209,#262,.T.);
#176=EDGE_CURVE('',#222,#221,#263,.T.);
#177=EDGE_CURVE('',#223,#216,#18,.T.);
#178=EDGE_CURVE('',#220,#223,#264,.T.);
#179=EDGE_CURVE('',#224,#222,#265,.T.);
#180=EDGE_CURVE('',#224,#211,#266,.T.);
#181=EDGE_CURVE('',#225,#215,#19,.T.);
#182=EDGE_CURVE('',#223,#225,#267,.T.);
#183=EDGE_CURVE('',#226,#214,#20,.T.);
#184=EDGE_CURVE('',#226,#225,#268,.T.);
#185=EDGE_CURVE('',#224,#227,#269,.T.);
#186=EDGE_CURVE('',#227,#197,#270,.T.);
#187=EDGE_CURVE('',#228,#213,#21,.T.);
#188=EDGE_CURVE('',#226,#228,#271,.T.);
#189=EDGE_CURVE('',#229,#198,#272,.T.);
#190=EDGE_CURVE('',#227,#229,#273,.T.);
#191=EDGE_CURVE('',#228,#229,#274,.T.);
#192=VERTEX_POINT('',#567);
#193=VERTEX_POINT('',#568);
#194=VERTEX_POINT('',#570);
#195=VERTEX_POINT('',#572);
#196=VERTEX_POINT('',#576);
#197=VERTEX_POINT('',#578);
#198=VERTEX_POINT('',#580);
#199=VERTEX_POINT('',#582);
#200=VERTEX_POINT('',#586);
#201=VERTEX_POINT('',#588);
#202=VERTEX_POINT('',#591);
#203=VERTEX_POINT('',#593);
#204=VERTEX_POINT('',#595);
#205=VERTEX_POINT('',#599);
#206=VERTEX_POINT('',#600);
#207=VERTEX_POINT('',#602);
#208=VERTEX_POINT('',#607);
#209=VERTEX_POINT('',#608);
#210=VERTEX_POINT('',#613);
#211=VERTEX_POINT('',#615);
#212=VERTEX_POINT('',#619);
#213=VERTEX_POINT('',#623);
#214=VERTEX_POINT('',#625);
#215=VERTEX_POINT('',#627);
#216=VERTEX_POINT('',#629);
#217=VERTEX_POINT('',#631);
#218=VERTEX_POINT('',#633);
#219=VERTEX_POINT('',#637);
#220=VERTEX_POINT('',#640);
#221=VERTEX_POINT('',#642);
#222=VERTEX_POINT('',#646);
#223=VERTEX_POINT('',#650);
#224=VERTEX_POINT('',#654);
#225=VERTEX_POINT('',#658);
#226=VERTEX_POINT('',#662);
#227=VERTEX_POINT('',#666);
#228=VERTEX_POINT('',#670);
#229=VERTEX_POINT('',#674);
#230=LINE('',#566,#275);
#231=LINE('',#569,#276);
#232=LINE('',#571,#277);
#233=LINE('',#573,#278);
#234=LINE('',#575,#279);
#235=LINE('',#577,#280);
#236=LINE('',#579,#281);
#237=LINE('',#581,#282);
#238=LINE('',#583,#283);
#239=LINE('',#590,#284);
#240=LINE('',#592,#285);
#241=LINE('',#594,#286);
#242=LINE('',#596,#287);
#243=LINE('',#598,#288);
#244=LINE('',#601,#289);
#245=LINE('',#603,#290);
#246=LINE('',#604,#291);
#247=LINE('',#606,#292);
#248=LINE('',#609,#293);
#249=LINE('',#610,#294);
#250=LINE('',#614,#295);
#251=LINE('',#616,#296);
#252=LINE('',#618,#297);
#253=LINE('',#620,#298);
#254=LINE('',#622,#299);
#255=LINE('',#624,#300);
#256=LINE('',#626,#301);
#257=LINE('',#628,#302);
#258=LINE('',#630,#303);
#259=LINE('',#632,#304);
#260=LINE('',#634,#305);
#261=LINE('',#641,#306);
#262=LINE('',#645,#307);
#263=LINE('',#647,#308);
#264=LINE('',#651,#309);
#265=LINE('',#653,#310);
#266=LINE('',#655,#311);
#267=LINE('',#659,#312);
#268=LINE('',#663,#313);
#269=LINE('',#665,#314);
#270=LINE('',#667,#315);
#271=LINE('',#671,#316);
#272=LINE('',#673,#317);
#273=LINE('',#675,#318);
#274=LINE('',#677,#319);
#275=VECTOR('',#459,1.);
#276=VECTOR('',#460,1.);
#277=VECTOR('',#461,1.);
#278=VECTOR('',#462,1.);
#279=VECTOR('',#465,1.);
#280=VECTOR('',#466,1.);
#281=VECTOR('',#467,1.);
#282=VECTOR('',#468,1.);
#283=VECTOR('',#469,1.);
#284=VECTOR('',#478,1.);
#285=VECTOR('',#479,1.);
#286=VECTOR('',#480,1.);
#287=VECTOR('',#481,1.);
#288=VECTOR('',#484,1.);
#289=VECTOR('',#485,1.);
#290=VECTOR('',#486,1.);
#291=VECTOR('',#487,1.);
#292=VECTOR('',#490,1.);
#293=VECTOR('',#491,1.);
#294=VECTOR('',#492,1.);
#295=VECTOR('',#497,1.);
#296=VECTOR('',#498,1.);
#297=VECTOR('',#501,1.);
#298=VECTOR('',#502,1.);
#299=VECTOR('',#505,1.);
#300=VECTOR('',#506,1.);
#301=VECTOR('',#507,1.);
#302=VECTOR('',#508,1.);
#303=VECTOR('',#509,1.);
#304=VECTOR('',#510,1.);
#305=VECTOR('',#511,1.);
#306=VECTOR('',#520,1.);
#307=VECTOR('',#525,1.);
#308=VECTOR('',#526,1.);
#309=VECTOR('',#531,1.);
#310=VECTOR('',#534,1.);
#311=VECTOR('',#535,1.);
#312=VECTOR('',#540,1.);
#313=VECTOR('',#545,1.);
#314=VECTOR('',#548,1.);
#315=VECTOR('',#549,1.);
#316=VECTOR('',#554,1.);
#317=VECTOR('',#557,1.);
#318=VECTOR('',#558,1.);
#319=VECTOR('',#561,1.);
#320=EDGE_LOOP('',(#27,#28,#29,#30));
#321=EDGE_LOOP('',(#31,#32,#33,#34,#35,#36));
#322=EDGE_LOOP('',(#37));
#323=EDGE_LOOP('',(#38));
#324=EDGE_LOOP('',(#39,#40,#41,#42,#43,#44));
#325=EDGE_LOOP('',(#45,#46,#47,#48,#49));
#326=EDGE_LOOP('',(#50,#51,#52,#53));
#327=EDGE_LOOP('',(#54));
#328=EDGE_LOOP('',(#55));
#329=EDGE_LOOP('',(#56,#57,#58,#59,#60,#61));
#330=EDGE_LOOP('',(#62,#63,#64,#65));
#331=EDGE_LOOP('',(#66));
#332=EDGE_LOOP('',(#67,#68,#69,#70,#71,#72,#73,#74,#75,#76));
#333=EDGE_LOOP('',(#77));
#334=EDGE_LOOP('',(#78));
#335=EDGE_LOOP('',(#79,#80,#81,#82));
#336=EDGE_LOOP('',(#83,#84,#85,#86,#87,#88));
#337=EDGE_LOOP('',(#89,#90,#91,#92));
#338=EDGE_LOOP('',(#93,#94,#95,#96,#97));
#339=EDGE_LOOP('',(#98,#99,#100,#101));
#340=EDGE_LOOP('',(#102,#103,#104,#105));
#341=EDGE_LOOP('',(#106,#107,#108,#109,#110,#111));
#342=EDGE_LOOP('',(#112,#113,#114,#115));
#343=EDGE_LOOP('',(#116,#117,#118,#119));
#344=EDGE_LOOP('',(#120,#121,#122,#123,#124,#125));
#345=EDGE_LOOP('',(#126));
#346=EDGE_LOOP('',(#127,#128,#129,#130,#131,#132,#133,#134,#135,#136));
#347=FACE_BOUND('',#320,.T.);
#348=FACE_BOUND('',#321,.T.);
#349=FACE_BOUND('',#322,.T.);
#350=FACE_BOUND('',#323,.T.);
#351=FACE_BOUND('',#324,.T.);
#352=FACE_BOUND('',#325,.T.);
#353=FACE_BOUND('',#326,.T.);
#354=FACE_BOUND('',#327,.T.);
#355=FACE_BOUND('',#328,.T.);
#356=FACE_BOUND('',#329,.T.);
#357=FACE_BOUND('',#330,.T.);
#358=FACE_BOUND('',#331,.T.);
#359=FACE_BOUND('',#332,.T.);
#360=FACE_BOUND('',#333,.T.);
#361=FACE_BOUND('',#334,.T.);
#362=FACE_BOUND('',#335,.T.);
#363=FACE_BOUND('',#336,.T.);
#364=FACE_BOUND('',#337,.T.);
#365=FACE_BOUND('',#338,.T.);
#366=FACE_BOUND('',#339,.T.);
#367=FACE_BOUND('',#340,.T.);
#368=FACE_BOUND('',#341,.T.);
#369=FACE_BOUND('',#342,.T.);
#370=FACE_BOUND('',#343,.T.);
#371=FACE_BOUND('',#344,.T.);
#372=FACE_BOUND('',#345,.T.);
#373=FACE_BOUND('',#346,.T.);
#374=PLANE('',#424);
#375=PLANE('',#425);
#376=PLANE('',#429);
#377=PLANE('',#430);
#378=PLANE('',#431);
#379=PLANE('',#432);
#380=PLANE('',#434);
#381=PLANE('',#435);
#382=PLANE('',#441);
#383=PLANE('',#442);
#384=PLANE('',#444);
#385=PLANE('',#447);
#386=PLANE('',#449);
#387=PLANE('',#452);
#388=PLANE('',#453);
#389=PLANE('',#454);
#390=ADVANCED_FACE('',(#347),#374,.T.);
#391=ADVANCED_FACE('',(#348),#375,.T.);
#392=ADVANCED_FACE('',(#349,#350),#22,.F.);
#393=ADVANCED_FACE('',(#351),#376,.T.);
#394=ADVANCED_FACE('',(#352),#377,.T.);
#395=ADVANCED_FACE('',(#353),#378,.T.);
#396=ADVANCED_FACE('',(#354,#355,#356),#379,.T.);
#397=ADVANCED_FACE('',(#357),#380,.T.);
#398=ADVANCED_FACE('',(#358,#359),#381,.F.);
#399=ADVANCED_FACE('',(#360,#361),#23,.F.);
#400=ADVANCED_FACE('',(#362),#24,.F.);
#401=ADVANCED_FACE('',(#363),#382,.T.);
#402=ADVANCED_FACE('',(#364),#383,.F.);
#403=ADVANCED_FACE('',(#365),#384,.T.);
#404=ADVANCED_FACE('',(#366),#25,.F.);
#405=ADVANCED_FACE('',(#367),#385,.T.);
#406=ADVANCED_FACE('',(#368),#386,.F.);
#407=ADVANCED_FACE('',(#369),#26,.F.);
#408=ADVANCED_FACE('',(#370),#387,.F.);
#409=ADVANCED_FACE('',(#371),#388,.T.);
#410=ADVANCED_FACE('',(#372,#373),#389,.F.);
#411=CLOSED_SHELL('',(#390,#391,#392,#393,#394,#395,#396,#397,#398,#399,
#400,#401,#402,#403,#404,#405,#406,#407,#408,#409,#410));
#412=STYLED_ITEM('',(#413),#420);
#413=PRESENTATION_STYLE_ASSIGNMENT((#414));
#414=SURFACE_STYLE_USAGE(.BOTH.,#415);
#415=SURFACE_SIDE_STYLE('',(#416));
#416=SURFACE_STYLE_FILL_AREA(#417);
#417=FILL_AREA_STYLE('',(#418));
#418=FILL_AREA_STYLE_COLOUR('',#419);
#419=COLOUR_RGB('',0.129411764705882,0.341176470588236,0.352941176470589);
#420=MANIFOLD_SOLID_BREP('Hotend Clamp',#411);
#421=SHAPE_DEFINITION_REPRESENTATION(#685,#422);
#422=SHAPE_REPRESENTATION('Hotend Clamp',(#423),#680);
#423=AXIS2_PLACEMENT_3D('',#564,#455,#456);
#424=AXIS2_PLACEMENT_3D('',#565,#457,#458);
#425=AXIS2_PLACEMENT_3D('',#574,#463,#464);
#426=AXIS2_PLACEMENT_3D('',#584,#470,#471);
#427=AXIS2_PLACEMENT_3D('',#585,#472,#473);
#428=AXIS2_PLACEMENT_3D('',#587,#474,#475);
#429=AXIS2_PLACEMENT_3D('',#589,#476,#477);
#430=AXIS2_PLACEMENT_3D('',#597,#482,#483);
#431=AXIS2_PLACEMENT_3D('',#605,#488,#489);
#432=AXIS2_PLACEMENT_3D('',#611,#493,#494);
#433=AXIS2_PLACEMENT_3D('',#612,#495,#496);
#434=AXIS2_PLACEMENT_3D('',#617,#499,#500);
#435=AXIS2_PLACEMENT_3D('',#621,#503,#504);
#436=AXIS2_PLACEMENT_3D('',#635,#512,#513);
#437=AXIS2_PLACEMENT_3D('',#636,#514,#515);
#438=AXIS2_PLACEMENT_3D('',#638,#516,#517);
#439=AXIS2_PLACEMENT_3D('',#639,#518,#519);
#440=AXIS2_PLACEMENT_3D('',#643,#521,#522);
#441=AXIS2_PLACEMENT_3D('',#644,#523,#524);
#442=AXIS2_PLACEMENT_3D('',#648,#527,#528);
#443=AXIS2_PLACEMENT_3D('',#649,#529,#530);
#444=AXIS2_PLACEMENT_3D('',#652,#532,#533);
#445=AXIS2_PLACEMENT_3D('',#656,#536,#537);
#446=AXIS2_PLACEMENT_3D('',#657,#538,#539);
#447=AXIS2_PLACEMENT_3D('',#660,#541,#542);
#448=AXIS2_PLACEMENT_3D('',#661,#543,#544);
#449=AXIS2_PLACEMENT_3D('',#664,#546,#547);
#450=AXIS2_PLACEMENT_3D('',#668,#550,#551);
#451=AXIS2_PLACEMENT_3D('',#669,#552,#553);
#452=AXIS2_PLACEMENT_3D('',#672,#555,#556);
#453=AXIS2_PLACEMENT_3D('',#676,#559,#560);
#454=AXIS2_PLACEMENT_3D('',#678,#562,#563);
#455=DIRECTION('',(0.,0.,1.));
#456=DIRECTION('',(1.,0.,0.));
#457=DIRECTION('',(3.330669073875E-15,2.22044604925E-16,-1.));
#458=DIRECTION('',(6.661338147751E-16,-1.,-2.22044604925E-16));
#459=DIRECTION('',(1.,8.88178419700108E-16,3.330669073875E-15));
#460=DIRECTION('',(8.881784197001E-16,-1.,1.998401444325E-15));
#461=DIRECTION('',(1.,8.88178419700108E-16,3.330669073875E-15));
#462=DIRECTION('',(8.881784197001E-16,-1.,1.998401444325E-15));
#463=DIRECTION('',(1.,-1.821814790015E-15,1.036208156317E-15));
#464=DIRECTION('',(1.821814790015E-15,1.,-1.998401444325E-15));
#465=DIRECTION('',(-1.036208156317E-15,2.331468351713E-15,1.));
#466=DIRECTION('',(1.036208156317E-15,-2.331468351713E-15,-1.));
#467=DIRECTION('',(-2.02092740613811E-15,-0.707106781186548,0.707106781186548));
#468=DIRECTION('',(1.821814790015E-15,1.,1.11022302462507E-16));
#469=DIRECTION('',(-5.55507778032992E-16,-0.707106781186548,-0.707106781186548));
#470=DIRECTION('',(-1.,1.554312234475E-15,-1.221245327088E-15));
#471=DIRECTION('',(1.554312234475E-15,1.,-2.553512956638E-15));
#472=DIRECTION('',(1.,-1.7763568394E-15,9.992007221626E-16));
#473=DIRECTION('',(1.7763568394E-15,1.,0.));
#474=DIRECTION('',(1.,-1.7763568394E-15,9.992007221626E-16));
#475=DIRECTION('',(1.7763568394E-15,1.,0.));
#476=DIRECTION('',(8.881784197001E-16,-1.,2.331468351713E-15));
#477=DIRECTION('',(-3.885780586188E-15,2.331468351713E-15,1.));
#478=DIRECTION('',(1.,-1.7763568394E-15,1.054711873394E-15));
#479=DIRECTION('',(-9.99200722162596E-16,2.331468351713E-15,1.));
#480=DIRECTION('',(1.,8.88178419700109E-16,3.55944299686257E-15));
#481=DIRECTION('',(-9.99200722162596E-16,2.331468351713E-15,1.));
#482=DIRECTION('',(3.14494326380199E-15,-0.707106781186548,-0.707106781186548));
#483=DIRECTION('',(1.,8.082763518858E-16,3.63934506468E-15));
#484=DIRECTION('',(1.,-1.7763568394E-15,1.054711873394E-15));
#485=DIRECTION('',(-0.577350269189626,0.577350269189626,-0.577350269189626));
#486=DIRECTION('',(-1.96261557335375E-15,-0.707106781186548,0.707106781186548));
#487=DIRECTION('',(-1.96261557335375E-15,-0.707106781186548,0.707106781186548));
#488=DIRECTION('',(0.707106781186548,-1.43253271547908E-15,-0.707106781186548));
#489=DIRECTION('',(8.189143932438E-16,-1.,2.844821588019E-15));
#490=DIRECTION('',(-0.577350269189626,-0.577350269189626,-0.577350269189626));
#491=DIRECTION('',(1.110223024625E-15,-1.,2.553512956638E-15));
#492=DIRECTION('',(1.110223024625E-15,-1.,2.553512956638E-15));
#493=DIRECTION('',(1.,-1.7763568394E-15,9.992007221626E-16));
#494=DIRECTION('',(-9.992007221626E-16,-7.771561172376E-16,1.));
#495=DIRECTION('',(1.,-1.7763568394E-15,9.992007221626E-16));
#496=DIRECTION('',(1.7763568394E-15,1.,0.));
#497=DIRECTION('',(3.21868954029994E-15,-0.707106781186548,-0.707106781186548));
#498=DIRECTION('',(9.99200722162596E-16,-2.331468351713E-15,-1.));
#499=DIRECTION('',(-1.83801548097382E-15,-0.707106781186548,0.707106781186548));
#500=DIRECTION('',(-1.,1.660495693527E-15,-9.388507275202E-16));
#501=DIRECTION('',(1.,-1.7763568394E-15,1.054711873394E-15));
#502=DIRECTION('',(-5.49532360538948E-16,-0.707106781186548,-0.707106781186548));
#503=DIRECTION('',(1.,-1.7763568394E-15,9.992007221626E-16));
#504=DIRECTION('',(-9.992007221626E-16,-7.771561172376E-16,1.));
#505=DIRECTION('',(-1.33226762955E-15,1.,-2.553512956638E-15));
#506=DIRECTION('',(2.46162383163E-15,-1.608913366834E-15,-1.));
#507=DIRECTION('',(-1.7763568394E-15,-1.,9.775378338773E-16));
#508=DIRECTION('',(2.500049648121E-15,-1.199582438802E-15,-1.));
#509=DIRECTION('',(-8.881784197001E-16,-1.,1.643671648652E-15));
#510=DIRECTION('',(2.46162383163E-15,-1.608913366834E-15,-1.));
#511=DIRECTION('',(1.33226762955E-15,-1.,2.553512956638E-15));
#512=DIRECTION('',(-1.,1.554312234475E-15,-1.221245327088E-15));
#513=DIRECTION('',(1.554312234475E-15,1.,-2.553512956638E-15));
#514=DIRECTION('',(1.,-1.7763568394E-15,9.992007221626E-16));
#515=DIRECTION('',(1.7763568394E-15,1.,0.));
#516=DIRECTION('',(2.46162383163E-15,-1.608913366834E-15,-1.));
#517=DIRECTION('',(2.22044604925E-16,1.,-1.608913366834E-15));
#518=DIRECTION('',(3.166183462896E-15,-5.334486240272E-16,-1.));
#519=DIRECTION('',(1.,0.,3.166183462896E-15));
#520=DIRECTION('',(-2.46162383163E-15,1.608913366834E-15,1.));
#521=DIRECTION('',(3.719247132494E-15,1.110223024625E-16,-1.));
#522=DIRECTION('',(-1.,0.,-3.719247132494E-15));
#523=DIRECTION('',(3.719247132494E-15,1.110223024625E-16,-1.));
#524=DIRECTION('',(1.110223024625E-15,-1.,-1.110223024625E-16));
#525=DIRECTION('',(1.,-1.7763568394E-15,1.054711873394E-15));
#526=DIRECTION('',(1.33226762955E-15,-1.,2.553512956638E-15));
#527=DIRECTION('',(-3.166183462896E-15,5.334486240272E-16,1.));
#528=DIRECTION('',(1.,-6.661338147751E-16,3.166183462896E-15));
#529=DIRECTION('',(2.05596043827E-15,-1.643671648652E-15,-1.));
#530=DIRECTION('',(-2.22044604925E-16,1.,-1.643671648652E-15));
#531=DIRECTION('',(-8.881784197001E-16,-1.,1.643671648652E-15));
#532=DIRECTION('',(1.7223433581149E-15,0.707106781186548,-0.707106781186548));
#533=DIRECTION('',(1.,-1.578703151058E-15,8.57058185052E-16));
#534=DIRECTION('',(3.21868954029994E-15,-0.707106781186548,-0.707106781186548));
#535=DIRECTION('',(1.,8.88178419700108E-16,3.32393975580942E-15));
#536=DIRECTION('',(2.500049648121E-15,-1.199582438802E-15,-1.));
#537=DIRECTION('',(9.379748568177E-32,1.,-1.199582438802E-15));
#538=DIRECTION('',(2.05596043827E-15,-1.643671648652E-15,-1.));
#539=DIRECTION('',(-2.22044604925E-16,1.,-1.643671648652E-15));
#540=DIRECTION('',(-2.722094253046E-15,9.775378338773E-16,1.));
#541=DIRECTION('',(-3.056526388909E-15,7.554932289522E-16,1.));
#542=DIRECTION('',(1.,-2.22044604925E-16,3.056526388909E-15));
#543=DIRECTION('',(2.46162383163E-15,-1.608913366834E-15,-1.));
#544=DIRECTION('',(9.860761315263E-31,1.,-1.608913366834E-15));
#545=DIRECTION('',(-1.7763568394E-15,-1.,9.775378338773E-16));
#546=DIRECTION('',(8.881784197001E-16,-1.,2.331468351713E-15));
#547=DIRECTION('',(-3.885780586188E-15,2.331468351713E-15,1.));
#548=DIRECTION('',(-4.107825191113E-15,-5.551115123126E-16,1.));
#549=DIRECTION('',(1.,-1.7763568394E-15,1.054711873394E-15));
#550=DIRECTION('',(2.46162383163E-15,-1.608913366834E-15,-1.));
#551=DIRECTION('',(2.22044604925E-16,1.,-1.608913366834E-15));
#552=DIRECTION('',(2.46162383163E-15,-1.608913366834E-15,-1.));
#553=DIRECTION('',(2.22044604925E-16,1.,-1.608913366834E-15));
#554=DIRECTION('',(-2.683668436555E-15,1.386868761909E-15,1.));
#555=DIRECTION('',(1.34765999594614E-15,-0.707106781186548,-0.707106781186548));
#556=DIRECTION('',(1.,-4.625948345289E-16,2.368473878265E-15));
#557=DIRECTION('',(1.,-1.7763568394E-15,1.054711873394E-15));
#558=DIRECTION('',(-1.96261557335375E-15,-0.707106781186548,0.707106781186548));
#559=DIRECTION('',(-3.719247132494E-15,-1.110223024625E-16,1.));
#560=DIRECTION('',(-1.110223024625E-15,1.,1.110223024625E-16));
#561=DIRECTION('',(-1.33226762955E-15,1.,-2.553512956638E-15));
#562=DIRECTION('',(1.,-1.7763568394E-15,9.992007221626E-16));
#563=DIRECTION('',(-9.992007221626E-16,-7.771561172376E-16,1.));
#564=CARTESIAN_POINT('',(0.,0.,0.));
#565=CARTESIAN_POINT('',(0.011,0.0127,-0.0342));
#566=CARTESIAN_POINT('',(0.011,0.0127,-0.0342));
#567=CARTESIAN_POINT('',(0.011,0.0127,-0.0342));
#568=CARTESIAN_POINT('',(0.028,0.0127,-0.0342));
#569=CARTESIAN_POINT('',(0.028,0.0127,-0.0342));
#570=CARTESIAN_POINT('',(0.028,-0.0127,-0.0342));
#571=CARTESIAN_POINT('',(1.45994327738175E-16,-0.0127,-0.0342));
#572=CARTESIAN_POINT('',(0.011,-0.0127,-0.0342));
#573=CARTESIAN_POINT('',(0.011,0.0127,-0.0342));
#574=CARTESIAN_POINT('',(0.028,-8.903253410458E-18,-0.0318));
#575=CARTESIAN_POINT('',(0.028,-0.0127,-0.0324));
#576=CARTESIAN_POINT('',(0.028,-0.0127,-0.0314));
#577=CARTESIAN_POINT('',(0.028,0.0127,-0.0324));
#578=CARTESIAN_POINT('',(0.028,0.0127,-0.0314));
#579=CARTESIAN_POINT('',(0.028,0.00655,-0.02525));
#580=CARTESIAN_POINT('',(0.028,0.0107,-0.0294));
#581=CARTESIAN_POINT('',(0.028,-0.0127,-0.0294));
#582=CARTESIAN_POINT('',(0.028,-0.0107,-0.0294));
#583=CARTESIAN_POINT('',(0.028,-0.00655,-0.02525));
#584=CARTESIAN_POINT('',(1.560418461111E-16,-0.01,-0.0373));
#585=CARTESIAN_POINT('',(0.011,-0.01,-0.0373));
#586=CARTESIAN_POINT('',(0.011,-0.00825,-0.0373));
#587=CARTESIAN_POINT('',(1.31880792503773E-16,-0.01,-0.0373));
#588=CARTESIAN_POINT('',(1.34989416972723E-16,-0.00825,-0.0373));
#589=CARTESIAN_POINT('',(1.399991234052E-16,-0.0127,-0.0324));
#590=CARTESIAN_POINT('',(7.436273818939E-17,-0.0127,-0.0314));
#591=CARTESIAN_POINT('',(7.869260798543E-17,-0.0127,-0.0314));
#592=CARTESIAN_POINT('',(1.2593471230252E-16,-0.0127,-0.03614916342696));
#593=CARTESIAN_POINT('',(1.50179806622194E-16,-0.0127,-0.0403999999999933));
#594=CARTESIAN_POINT('',(1.684746673801E-16,-0.0127,-0.0404));
#595=CARTESIAN_POINT('',(0.011,-0.0127,-0.0403999999999933));
#596=CARTESIAN_POINT('',(0.011,-0.0127,-0.0324));
#597=CARTESIAN_POINT('',(1.742495037149E-16,-0.0117,-0.0414));
#598=CARTESIAN_POINT('',(1.770805724277E-16,-0.0107,-0.0424));
#599=CARTESIAN_POINT('',(1.058930720887E-16,-0.0107,-0.0424));
#600=CARTESIAN_POINT('',(0.01,-0.0107,-0.0424));
#601=CARTESIAN_POINT('',(0.005266666666667,-0.005966666666667,-0.04713333333333));
#602=CARTESIAN_POINT('',(0.011,-0.0117,-0.0414));
#603=CARTESIAN_POINT('',(0.011,-0.01008770914325,-0.04301229085674));
#604=CARTESIAN_POINT('',(1.745720899252E-16,-0.01008770914325,-0.04301229085674));
#605=CARTESIAN_POINT('',(0.0105,0.0107,-0.0419));
#606=CARTESIAN_POINT('',(0.008833333333333,0.009533333333333,-0.04356666666666));
#607=CARTESIAN_POINT('',(0.011,0.0117,-0.0414));
#608=CARTESIAN_POINT('',(0.01,0.0107,-0.0424));
#609=CARTESIAN_POINT('',(0.011,0.0107,-0.0414));
#610=CARTESIAN_POINT('',(0.01,0.0107,-0.0424));
#611=CARTESIAN_POINT('',(0.011,1.80457834256E-17,-0.03614916342696));
#612=CARTESIAN_POINT('',(0.011,0.01,-0.0373));
#613=CARTESIAN_POINT('',(0.011,0.01175,-0.0373));
#614=CARTESIAN_POINT('',(0.011,0.010087709143259,-0.04301229085674));
#615=CARTESIAN_POINT('',(0.011,0.0127,-0.0403999999999995));
#616=CARTESIAN_POINT('',(0.011,0.0127,-0.0324));
#617=CARTESIAN_POINT('',(7.50843831554E-17,-0.0117,-0.0304));
#618=CARTESIAN_POINT('',(7.580602812141E-17,-0.0107,-0.0294));
#619=CARTESIAN_POINT('',(7.536193891156E-17,-0.0107,-0.0294));
#620=CARTESIAN_POINT('',(6.693559617469E-17,-0.01021229085674,-0.02891229085674));
#621=CARTESIAN_POINT('',(1.484944441629E-16,2.048827407978E-17,-0.03614916342696));
#622=CARTESIAN_POINT('',(1.37689859514E-16,-0.0127,-0.0294));
#623=CARTESIAN_POINT('',(7.325251516477E-17,-0.0082,-0.0294));
#624=CARTESIAN_POINT('',(7.599346573989E-17,-0.0082,-0.0344));
#625=CARTESIAN_POINT('',(8.057704427008E-17,-0.0082,-0.0344));
#626=CARTESIAN_POINT('',(9.055959182297E-17,-4.116664574072E-17,-0.0344));
#627=CARTESIAN_POINT('',(8.26853261727E-17,-0.0061,-0.0344));
#628=CARTESIAN_POINT('',(9.805378299572E-17,-0.0061,-0.0402));
#629=CARTESIAN_POINT('',(-2.561183185029E-18,-0.0061,-0.0402));
#630=CARTESIAN_POINT('',(1.160062750604E-16,-2.707169756523E-17,-0.0402));
#631=CARTESIAN_POINT('',(1.03059353328476E-16,-0.0082,-0.0402));
#632=CARTESIAN_POINT('',(1.32180552720421E-16,-0.0082,-0.0344));
#633=CARTESIAN_POINT('',(2.17210233952363E-17,-0.0082,-0.0424));
#634=CARTESIAN_POINT('',(1.572519892079E-16,0.0127,-0.0424));
#635=CARTESIAN_POINT('',(1.338373856186E-16,0.01,-0.0373));
#636=CARTESIAN_POINT('',(1.67407929291772E-16,0.01,-0.0373));
#637=CARTESIAN_POINT('',(1.70516553760722E-16,0.01175,-0.0373));
#638=CARTESIAN_POINT('',(9.231819421748E-17,-4.770828540966E-17,-0.0344));
#639=CARTESIAN_POINT('',(1.06595612440934E-16,-5.70399829372972E-17,-0.0402));
#640=CARTESIAN_POINT('',(1.11018292124878E-16,0.0082,-0.0402));
#641=CARTESIAN_POINT('',(1.61312804886581E-16,0.0082,-0.0344));
#642=CARTESIAN_POINT('',(1.4823697824795E-16,0.0082,-0.0424));
#643=CARTESIAN_POINT('',(1.1201118487052E-16,-6.0579592344332E-17,-0.0424));
#644=CARTESIAN_POINT('',(1.506572644416E-16,0.0127,-0.0424));
#645=CARTESIAN_POINT('',(1.52433621281E-16,0.0107,-0.0424));
#646=CARTESIAN_POINT('',(1.106448266341E-16,0.0107,-0.0424));
#647=CARTESIAN_POINT('',(1.572519892079E-16,0.0127,-0.0424));
#648=CARTESIAN_POINT('',(1.244957772437E-16,-2.39808173319E-17,-0.0402));
#649=CARTESIAN_POINT('',(1.005019958544E-16,1.42108547152E-17,-0.0402));
#650=CARTESIAN_POINT('',(1.018564679445E-16,0.0061,-0.0402));
#651=CARTESIAN_POINT('',(1.160062750604E-16,-2.707169756523E-17,-0.0402));
#652=CARTESIAN_POINT('',(1.478261957288E-16,0.0117,-0.0414));
#653=CARTESIAN_POINT('',(1.566527187946E-16,0.010087709143259,-0.04301229085674));
#654=CARTESIAN_POINT('',(1.33260007726901E-16,0.0127,-0.0403999999999993));
#655=CARTESIAN_POINT('',(1.43614077553291E-16,0.0127,-0.0404));
#656=CARTESIAN_POINT('',(1.094281889724E-16,-3.929702092187E-17,-0.0402));
#657=CARTESIAN_POINT('',(8.600170789535E-17,2.13162820728E-17,-0.0344));
#658=CARTESIAN_POINT('',(8.735617998539E-17,0.0061,-0.0344));
#659=CARTESIAN_POINT('',(1.094281889724E-16,0.0061,-0.0402));
#660=CARTESIAN_POINT('',(1.002463049523E-16,-4.070601759871E-17,-0.0344));
#661=CARTESIAN_POINT('',(9.231819421748E-17,-2.13162820728E-17,-0.0344));
#662=CARTESIAN_POINT('',(9.413895997786E-17,0.0082,-0.0344));
#663=CARTESIAN_POINT('',(9.055959182297E-17,-4.116664574072E-17,-0.0344));
#664=CARTESIAN_POINT('',(1.117994585798E-16,0.0127,-0.0324));
#665=CARTESIAN_POINT('',(1.161737372968E-16,0.0127,-0.0324));
#666=CARTESIAN_POINT('',(8.433254095053E-17,0.0127,-0.0314));
#667=CARTESIAN_POINT('',(8.000267115449E-17,0.0127,-0.0314));
#668=CARTESIAN_POINT('',(9.231819421748E-17,-4.770828540966E-17,-0.0344));
#669=CARTESIAN_POINT('',(8.001007505933E-17,-3.966371857549E-17,-0.0294));
#670=CARTESIAN_POINT('',(7.880733224031E-17,0.0082,-0.0294));
#671=CARTESIAN_POINT('',(9.413895997786E-17,0.0082,-0.0344));
#672=CARTESIAN_POINT('',(7.717160244169E-17,0.0117,-0.0304));
#673=CARTESIAN_POINT('',(7.43405337289E-17,0.0107,-0.0294));
#674=CARTESIAN_POINT('',(1.086242207293E-16,0.0107,-0.0294));
#675=CARTESIAN_POINT('',(1.032169415933E-16,0.010212290856741,-0.02891229085674));
#676=CARTESIAN_POINT('',(1.283417816467E-16,-0.0127,-0.0294));
#677=CARTESIAN_POINT('',(1.37689859514E-16,-0.0127,-0.0294));
#678=CARTESIAN_POINT('',(1.484944441629E-16,2.048827407978E-17,-0.03614916342696));
#679=MECHANICAL_DESIGN_GEOMETRIC_PRESENTATION_REPRESENTATION('',(#412),
#680);
#680=(
GEOMETRIC_REPRESENTATION_CONTEXT(3)
GLOBAL_UNCERTAINTY_ASSIGNED_CONTEXT((#681))
GLOBAL_UNIT_ASSIGNED_CONTEXT((#684,#683,#682))
REPRESENTATION_CONTEXT('Hotend Clamp','TOP_LEVEL_ASSEMBLY_PART')
);
#681=UNCERTAINTY_MEASURE_WITH_UNIT(LENGTH_MEASURE(1.E-6),#684,
'DISTANCE_ACCURACY_VALUE','Maximum Tolerance applied to model');
#682=(
NAMED_UNIT(*)
SI_UNIT($,.STERADIAN.)
SOLID_ANGLE_UNIT()
);
#683=(
NAMED_UNIT(*)
PLANE_ANGLE_UNIT()
SI_UNIT($,.RADIAN.)
);
#684=(
LENGTH_UNIT()
NAMED_UNIT(*)
SI_UNIT($,.METRE.)
);
#685=PRODUCT_DEFINITION_SHAPE('','',#686);
#686=PRODUCT_DEFINITION('','',#688,#687);
#687=PRODUCT_DEFINITION_CONTEXT('',#694,'design');
#688=PRODUCT_DEFINITION_FORMATION_WITH_SPECIFIED_SOURCE('','',#690,
 .NOT_KNOWN.);
#689=PRODUCT_RELATED_PRODUCT_CATEGORY('','',(#690));
#690=PRODUCT('Hotend Clamp','Hotend Clamp','Hotend Clamp',(#692));
#691=PRODUCT_CATEGORY('','');
#692=PRODUCT_CONTEXT('',#694,'mechanical');
#693=APPLICATION_PROTOCOL_DEFINITION('international standard',
'ap242_managed_model_based_3d_engineering',2020,#694);
#694=APPLICATION_CONTEXT('managed model based 3d engineering');
ENDSEC;
END-ISO-10303-21;
