ISO-10303-21;
HEADER;
/* Generated by software containing ST-Developer
 * from STEP Tools, Inc. (www.steptools.com) 
 */
/* OPTION: using custom renumber hook */

FILE_DESCRIPTION(
/* description */ ('STEP AP242 Edition 2',
'CAx-IF Rec.Pracs.---Representation and Presentation of Product Manufa
cturing Information (PMI)---4.0---2014-10-13',
'CAx-IF Rec.Pracs.---3D Tessellated Geometry---0.4---2014-09-14','2;1',
'CAx-IF Rec.Pracs.---User Defined Attributes---1.5---2016-08-15'),
/* implementation_level */ '2;1');

FILE_NAME(
/* name */ 'Base and Z Axis - Fan Retainer',
/* time_stamp */ '2026-01-10T06:34:51Z',
/* author */ (''),
/* organization */ (''),
/* preprocessor_version */ 'ST-DEVELOPER v20',
/* originating_system */ 'ONSHAPE BY PTC INC, 1.209',
/* authorisation */ '  ');

FILE_SCHEMA (('AP242_MANAGED_MODEL_BASED_3D_ENGINEERING_MIM_LF { 1 0 10303 442 3 1 4 }'));
ENDSEC;

DATA;
#10=SHAPE_REPRESENTATION_RELATIONSHIP('','',#867,#11);
#11=ADVANCED_BREP_SHAPE_REPRESENTATION('',(#865),#1403);
#12=CYLINDRICAL_SURFACE('',#877,0.00175);
#13=CYLINDRICAL_SURFACE('',#879,0.00175);
#14=CYLINDRICAL_SURFACE('',#881,0.00175);
#15=CYLINDRICAL_SURFACE('',#884,0.00175);
#16=CYLINDRICAL_SURFACE('',#895,0.003);
#17=CYLINDRICAL_SURFACE('',#898,0.003);
#18=CYLINDRICAL_SURFACE('',#901,0.003);
#19=CYLINDRICAL_SURFACE('',#904,0.003);
#20=ELLIPSE('',#873,0.00346410161513776,0.003);
#21=ELLIPSE('',#874,0.00346410161513776,0.003);
#22=ELLIPSE('',#875,0.00346410161513776,0.003);
#23=ELLIPSE('',#876,0.00346410161513776,0.003);
#24=ELLIPSE('',#888,0.00424264068711928,0.003);
#25=ELLIPSE('',#889,0.00424264068711928,0.003);
#26=ELLIPSE('',#891,0.00424264068711929,0.003);
#27=ELLIPSE('',#892,0.00424264068711929,0.003);
#28=CIRCLE('',#870,0.00175);
#29=CIRCLE('',#871,0.00175);
#30=CIRCLE('',#878,0.00175);
#31=CIRCLE('',#880,0.00175);
#32=CIRCLE('',#882,0.00175);
#33=CIRCLE('',#883,0.00175);
#34=CIRCLE('',#885,0.00175);
#35=CIRCLE('',#886,0.00175);
#36=CIRCLE('',#894,0.003);
#37=CIRCLE('',#897,0.003);
#38=CIRCLE('',#900,0.003);
#39=CIRCLE('',#903,0.003);
#40=ORIENTED_EDGE('',*,*,#276,.F.);
#41=ORIENTED_EDGE('',*,*,#277,.T.);
#42=ORIENTED_EDGE('',*,*,#278,.T.);
#43=ORIENTED_EDGE('',*,*,#279,.T.);
#44=ORIENTED_EDGE('',*,*,#280,.F.);
#45=ORIENTED_EDGE('',*,*,#281,.F.);
#46=ORIENTED_EDGE('',*,*,#282,.T.);
#47=ORIENTED_EDGE('',*,*,#283,.F.);
#48=ORIENTED_EDGE('',*,*,#284,.T.);
#49=ORIENTED_EDGE('',*,*,#285,.T.);
#50=ORIENTED_EDGE('',*,*,#286,.F.);
#51=ORIENTED_EDGE('',*,*,#287,.T.);
#52=ORIENTED_EDGE('',*,*,#288,.T.);
#53=ORIENTED_EDGE('',*,*,#289,.T.);
#54=ORIENTED_EDGE('',*,*,#290,.T.);
#55=ORIENTED_EDGE('',*,*,#291,.F.);
#56=ORIENTED_EDGE('',*,*,#292,.F.);
#57=ORIENTED_EDGE('',*,*,#293,.T.);
#58=ORIENTED_EDGE('',*,*,#294,.T.);
#59=ORIENTED_EDGE('',*,*,#295,.T.);
#60=ORIENTED_EDGE('',*,*,#296,.F.);
#61=ORIENTED_EDGE('',*,*,#297,.F.);
#62=ORIENTED_EDGE('',*,*,#298,.T.);
#63=ORIENTED_EDGE('',*,*,#299,.T.);
#64=ORIENTED_EDGE('',*,*,#300,.T.);
#65=ORIENTED_EDGE('',*,*,#301,.F.);
#66=ORIENTED_EDGE('',*,*,#302,.F.);
#67=ORIENTED_EDGE('',*,*,#303,.T.);
#68=ORIENTED_EDGE('',*,*,#304,.T.);
#69=ORIENTED_EDGE('',*,*,#305,.F.);
#70=ORIENTED_EDGE('',*,*,#306,.F.);
#71=ORIENTED_EDGE('',*,*,#277,.F.);
#72=ORIENTED_EDGE('',*,*,#307,.F.);
#73=ORIENTED_EDGE('',*,*,#308,.T.);
#74=ORIENTED_EDGE('',*,*,#309,.F.);
#75=ORIENTED_EDGE('',*,*,#284,.F.);
#76=ORIENTED_EDGE('',*,*,#310,.F.);
#77=ORIENTED_EDGE('',*,*,#311,.T.);
#78=ORIENTED_EDGE('',*,*,#312,.F.);
#79=ORIENTED_EDGE('',*,*,#313,.T.);
#80=ORIENTED_EDGE('',*,*,#314,.F.);
#81=ORIENTED_EDGE('',*,*,#315,.T.);
#82=ORIENTED_EDGE('',*,*,#316,.F.);
#83=ORIENTED_EDGE('',*,*,#317,.T.);
#84=ORIENTED_EDGE('',*,*,#318,.F.);
#85=ORIENTED_EDGE('',*,*,#319,.T.);
#86=ORIENTED_EDGE('',*,*,#299,.F.);
#87=ORIENTED_EDGE('',*,*,#320,.T.);
#88=ORIENTED_EDGE('',*,*,#294,.F.);
#89=ORIENTED_EDGE('',*,*,#321,.T.);
#90=ORIENTED_EDGE('',*,*,#322,.F.);
#91=ORIENTED_EDGE('',*,*,#323,.F.);
#92=ORIENTED_EDGE('',*,*,#324,.F.);
#93=ORIENTED_EDGE('',*,*,#325,.T.);
#94=ORIENTED_EDGE('',*,*,#326,.F.);
#95=ORIENTED_EDGE('',*,*,#288,.F.);
#96=ORIENTED_EDGE('',*,*,#327,.T.);
#97=ORIENTED_EDGE('',*,*,#303,.F.);
#98=ORIENTED_EDGE('',*,*,#328,.F.);
#99=ORIENTED_EDGE('',*,*,#329,.F.);
#100=ORIENTED_EDGE('',*,*,#330,.F.);
#101=ORIENTED_EDGE('',*,*,#331,.F.);
#102=ORIENTED_EDGE('',*,*,#332,.T.);
#103=ORIENTED_EDGE('',*,*,#333,.F.);
#104=ORIENTED_EDGE('',*,*,#334,.T.);
#105=ORIENTED_EDGE('',*,*,#335,.T.);
#106=ORIENTED_EDGE('',*,*,#336,.F.);
#107=ORIENTED_EDGE('',*,*,#337,.F.);
#108=ORIENTED_EDGE('',*,*,#315,.F.);
#109=ORIENTED_EDGE('',*,*,#338,.T.);
#110=ORIENTED_EDGE('',*,*,#339,.F.);
#111=ORIENTED_EDGE('',*,*,#334,.F.);
#112=ORIENTED_EDGE('',*,*,#340,.F.);
#113=ORIENTED_EDGE('',*,*,#332,.F.);
#114=ORIENTED_EDGE('',*,*,#341,.T.);
#115=ORIENTED_EDGE('',*,*,#342,.T.);
#116=ORIENTED_EDGE('',*,*,#343,.F.);
#117=ORIENTED_EDGE('',*,*,#344,.F.);
#118=ORIENTED_EDGE('',*,*,#319,.F.);
#119=ORIENTED_EDGE('',*,*,#345,.T.);
#120=ORIENTED_EDGE('',*,*,#346,.F.);
#121=ORIENTED_EDGE('',*,*,#341,.F.);
#122=ORIENTED_EDGE('',*,*,#347,.F.);
#123=ORIENTED_EDGE('',*,*,#304,.F.);
#124=ORIENTED_EDGE('',*,*,#327,.F.);
#125=ORIENTED_EDGE('',*,*,#287,.F.);
#126=ORIENTED_EDGE('',*,*,#348,.T.);
#127=ORIENTED_EDGE('',*,*,#349,.T.);
#128=ORIENTED_EDGE('',*,*,#350,.F.);
#129=ORIENTED_EDGE('',*,*,#351,.F.);
#130=ORIENTED_EDGE('',*,*,#308,.F.);
#131=ORIENTED_EDGE('',*,*,#352,.T.);
#132=ORIENTED_EDGE('',*,*,#353,.F.);
#133=ORIENTED_EDGE('',*,*,#348,.F.);
#134=ORIENTED_EDGE('',*,*,#354,.F.);
#135=ORIENTED_EDGE('',*,*,#295,.F.);
#136=ORIENTED_EDGE('',*,*,#320,.F.);
#137=ORIENTED_EDGE('',*,*,#298,.F.);
#138=ORIENTED_EDGE('',*,*,#355,.T.);
#139=ORIENTED_EDGE('',*,*,#356,.T.);
#140=ORIENTED_EDGE('',*,*,#357,.F.);
#141=ORIENTED_EDGE('',*,*,#358,.F.);
#142=ORIENTED_EDGE('',*,*,#311,.F.);
#143=ORIENTED_EDGE('',*,*,#359,.T.);
#144=ORIENTED_EDGE('',*,*,#360,.F.);
#145=ORIENTED_EDGE('',*,*,#355,.F.);
#146=ORIENTED_EDGE('',*,*,#361,.F.);
#147=ORIENTED_EDGE('',*,*,#325,.F.);
#148=ORIENTED_EDGE('',*,*,#362,.F.);
#149=ORIENTED_EDGE('',*,*,#328,.T.);
#150=ORIENTED_EDGE('',*,*,#302,.T.);
#151=ORIENTED_EDGE('',*,*,#363,.T.);
#152=ORIENTED_EDGE('',*,*,#363,.F.);
#153=ORIENTED_EDGE('',*,*,#301,.T.);
#154=ORIENTED_EDGE('',*,*,#364,.T.);
#155=ORIENTED_EDGE('',*,*,#365,.F.);
#156=ORIENTED_EDGE('',*,*,#300,.F.);
#157=ORIENTED_EDGE('',*,*,#323,.T.);
#158=ORIENTED_EDGE('',*,*,#366,.T.);
#159=ORIENTED_EDGE('',*,*,#364,.F.);
#160=ORIENTED_EDGE('',*,*,#289,.F.);
#161=ORIENTED_EDGE('',*,*,#367,.F.);
#162=ORIENTED_EDGE('',*,*,#368,.F.);
#163=ORIENTED_EDGE('',*,*,#369,.F.);
#164=ORIENTED_EDGE('',*,*,#293,.F.);
#165=ORIENTED_EDGE('',*,*,#370,.T.);
#166=ORIENTED_EDGE('',*,*,#281,.T.);
#167=ORIENTED_EDGE('',*,*,#371,.T.);
#168=ORIENTED_EDGE('',*,*,#372,.F.);
#169=ORIENTED_EDGE('',*,*,#291,.T.);
#170=ORIENTED_EDGE('',*,*,#373,.T.);
#171=ORIENTED_EDGE('',*,*,#374,.T.);
#172=ORIENTED_EDGE('',*,*,#290,.F.);
#173=ORIENTED_EDGE('',*,*,#369,.T.);
#174=ORIENTED_EDGE('',*,*,#375,.T.);
#175=ORIENTED_EDGE('',*,*,#376,.F.);
#176=ORIENTED_EDGE('',*,*,#373,.F.);
#177=ORIENTED_EDGE('',*,*,#377,.F.);
#178=ORIENTED_EDGE('',*,*,#317,.F.);
#179=ORIENTED_EDGE('',*,*,#378,.T.);
#180=ORIENTED_EDGE('',*,*,#379,.F.);
#181=ORIENTED_EDGE('',*,*,#313,.F.);
#182=ORIENTED_EDGE('',*,*,#380,.T.);
#183=ORIENTED_EDGE('',*,*,#381,.F.);
#184=ORIENTED_EDGE('',*,*,#375,.F.);
#185=ORIENTED_EDGE('',*,*,#368,.T.);
#186=ORIENTED_EDGE('',*,*,#382,.T.);
#187=ORIENTED_EDGE('',*,*,#383,.F.);
#188=ORIENTED_EDGE('',*,*,#382,.F.);
#189=ORIENTED_EDGE('',*,*,#367,.T.);
#190=ORIENTED_EDGE('',*,*,#330,.T.);
#191=ORIENTED_EDGE('',*,*,#384,.T.);
#192=ORIENTED_EDGE('',*,*,#321,.F.);
#193=ORIENTED_EDGE('',*,*,#371,.F.);
#194=ORIENTED_EDGE('',*,*,#280,.T.);
#195=ORIENTED_EDGE('',*,*,#370,.F.);
#196=ORIENTED_EDGE('',*,*,#292,.T.);
#197=ORIENTED_EDGE('',*,*,#372,.T.);
#198=ORIENTED_EDGE('',*,*,#385,.T.);
#199=ORIENTED_EDGE('',*,*,#282,.F.);
#200=ORIENTED_EDGE('',*,*,#374,.F.);
#201=ORIENTED_EDGE('',*,*,#376,.T.);
#202=ORIENTED_EDGE('',*,*,#381,.T.);
#203=ORIENTED_EDGE('',*,*,#383,.T.);
#204=ORIENTED_EDGE('',*,*,#329,.T.);
#205=ORIENTED_EDGE('',*,*,#362,.T.);
#206=ORIENTED_EDGE('',*,*,#365,.T.);
#207=ORIENTED_EDGE('',*,*,#366,.F.);
#208=ORIENTED_EDGE('',*,*,#322,.T.);
#209=ORIENTED_EDGE('',*,*,#384,.F.);
#210=ORIENTED_EDGE('',*,*,#279,.F.);
#211=ORIENTED_EDGE('',*,*,#385,.F.);
#212=ORIENTED_EDGE('',*,*,#331,.T.);
#213=ORIENTED_EDGE('',*,*,#386,.F.);
#214=ORIENTED_EDGE('',*,*,#335,.F.);
#215=ORIENTED_EDGE('',*,*,#339,.T.);
#216=ORIENTED_EDGE('',*,*,#333,.T.);
#217=ORIENTED_EDGE('',*,*,#340,.T.);
#218=ORIENTED_EDGE('',*,*,#336,.T.);
#219=ORIENTED_EDGE('',*,*,#386,.T.);
#220=ORIENTED_EDGE('',*,*,#324,.T.);
#221=ORIENTED_EDGE('',*,*,#387,.F.);
#222=ORIENTED_EDGE('',*,*,#356,.F.);
#223=ORIENTED_EDGE('',*,*,#360,.T.);
#224=ORIENTED_EDGE('',*,*,#326,.T.);
#225=ORIENTED_EDGE('',*,*,#361,.T.);
#226=ORIENTED_EDGE('',*,*,#357,.T.);
#227=ORIENTED_EDGE('',*,*,#387,.T.);
#228=ORIENTED_EDGE('',*,*,#297,.T.);
#229=ORIENTED_EDGE('',*,*,#388,.F.);
#230=ORIENTED_EDGE('',*,*,#349,.F.);
#231=ORIENTED_EDGE('',*,*,#353,.T.);
#232=ORIENTED_EDGE('',*,*,#296,.T.);
#233=ORIENTED_EDGE('',*,*,#354,.T.);
#234=ORIENTED_EDGE('',*,*,#350,.T.);
#235=ORIENTED_EDGE('',*,*,#388,.T.);
#236=ORIENTED_EDGE('',*,*,#286,.T.);
#237=ORIENTED_EDGE('',*,*,#389,.F.);
#238=ORIENTED_EDGE('',*,*,#342,.F.);
#239=ORIENTED_EDGE('',*,*,#346,.T.);
#240=ORIENTED_EDGE('',*,*,#305,.T.);
#241=ORIENTED_EDGE('',*,*,#347,.T.);
#242=ORIENTED_EDGE('',*,*,#343,.T.);
#243=ORIENTED_EDGE('',*,*,#389,.T.);
#244=ORIENTED_EDGE('',*,*,#390,.F.);
#245=ORIENTED_EDGE('',*,*,#285,.F.);
#246=ORIENTED_EDGE('',*,*,#309,.T.);
#247=ORIENTED_EDGE('',*,*,#358,.T.);
#248=ORIENTED_EDGE('',*,*,#283,.T.);
#249=ORIENTED_EDGE('',*,*,#390,.T.);
#250=ORIENTED_EDGE('',*,*,#359,.F.);
#251=ORIENTED_EDGE('',*,*,#310,.T.);
#252=ORIENTED_EDGE('',*,*,#391,.F.);
#253=ORIENTED_EDGE('',*,*,#278,.F.);
#254=ORIENTED_EDGE('',*,*,#306,.T.);
#255=ORIENTED_EDGE('',*,*,#351,.T.);
#256=ORIENTED_EDGE('',*,*,#276,.T.);
#257=ORIENTED_EDGE('',*,*,#391,.T.);
#258=ORIENTED_EDGE('',*,*,#352,.F.);
#259=ORIENTED_EDGE('',*,*,#307,.T.);
#260=ORIENTED_EDGE('',*,*,#392,.F.);
#261=ORIENTED_EDGE('',*,*,#378,.F.);
#262=ORIENTED_EDGE('',*,*,#316,.T.);
#263=ORIENTED_EDGE('',*,*,#344,.T.);
#264=ORIENTED_EDGE('',*,*,#377,.T.);
#265=ORIENTED_EDGE('',*,*,#392,.T.);
#266=ORIENTED_EDGE('',*,*,#345,.F.);
#267=ORIENTED_EDGE('',*,*,#318,.T.);
#268=ORIENTED_EDGE('',*,*,#393,.F.);
#269=ORIENTED_EDGE('',*,*,#380,.F.);
#270=ORIENTED_EDGE('',*,*,#312,.T.);
#271=ORIENTED_EDGE('',*,*,#337,.T.);
#272=ORIENTED_EDGE('',*,*,#379,.T.);
#273=ORIENTED_EDGE('',*,*,#393,.T.);
#274=ORIENTED_EDGE('',*,*,#338,.F.);
#275=ORIENTED_EDGE('',*,*,#314,.T.);
#276=EDGE_CURVE('',#394,#395,#472,.T.);
#277=EDGE_CURVE('',#394,#396,#28,.T.);
#278=EDGE_CURVE('',#396,#395,#473,.T.);
#279=EDGE_CURVE('',#397,#398,#474,.T.);
#280=EDGE_CURVE('',#399,#398,#475,.T.);
#281=EDGE_CURVE('',#400,#399,#476,.T.);
#282=EDGE_CURVE('',#400,#397,#477,.T.);
#283=EDGE_CURVE('',#401,#402,#478,.T.);
#284=EDGE_CURVE('',#401,#403,#29,.T.);
#285=EDGE_CURVE('',#403,#402,#479,.T.);
#286=EDGE_CURVE('',#404,#405,#480,.T.);
#287=EDGE_CURVE('',#404,#406,#20,.T.);
#288=EDGE_CURVE('',#406,#407,#481,.F.);
#289=EDGE_CURVE('',#407,#408,#482,.T.);
#290=EDGE_CURVE('',#408,#409,#483,.T.);
#291=EDGE_CURVE('',#410,#409,#484,.T.);
#292=EDGE_CURVE('',#411,#410,#485,.T.);
#293=EDGE_CURVE('',#411,#412,#486,.T.);
#294=EDGE_CURVE('',#412,#413,#487,.F.);
#295=EDGE_CURVE('',#413,#414,#21,.T.);
#296=EDGE_CURVE('',#415,#414,#488,.T.);
#297=EDGE_CURVE('',#416,#415,#489,.T.);
#298=EDGE_CURVE('',#416,#417,#22,.T.);
#299=EDGE_CURVE('',#417,#418,#490,.F.);
#300=EDGE_CURVE('',#418,#419,#491,.T.);
#301=EDGE_CURVE('',#420,#419,#492,.T.);
#302=EDGE_CURVE('',#421,#420,#493,.T.);
#303=EDGE_CURVE('',#421,#422,#494,.F.);
#304=EDGE_CURVE('',#422,#423,#23,.T.);
#305=EDGE_CURVE('',#405,#423,#495,.T.);
#306=EDGE_CURVE('',#396,#424,#496,.T.);
#307=EDGE_CURVE('',#425,#394,#497,.T.);
#308=EDGE_CURVE('',#425,#424,#30,.F.);
#309=EDGE_CURVE('',#403,#426,#498,.T.);
#310=EDGE_CURVE('',#427,#401,#499,.T.);
#311=EDGE_CURVE('',#427,#426,#31,.F.);
#312=EDGE_CURVE('',#428,#429,#500,.T.);
#313=EDGE_CURVE('',#428,#430,#32,.T.);
#314=EDGE_CURVE('',#431,#430,#501,.T.);
#315=EDGE_CURVE('',#431,#429,#33,.F.);
#316=EDGE_CURVE('',#432,#433,#502,.T.);
#317=EDGE_CURVE('',#432,#434,#34,.T.);
#318=EDGE_CURVE('',#435,#434,#503,.T.);
#319=EDGE_CURVE('',#435,#433,#35,.F.);
#320=EDGE_CURVE('',#417,#413,#24,.F.);
#321=EDGE_CURVE('',#412,#436,#504,.T.);
#322=EDGE_CURVE('',#437,#436,#505,.F.);
#323=EDGE_CURVE('',#418,#437,#506,.T.);
#324=EDGE_CURVE('',#438,#439,#507,.F.);
#325=EDGE_CURVE('',#438,#440,#25,.F.);
#326=EDGE_CURVE('',#439,#440,#508,.F.);
#327=EDGE_CURVE('',#406,#422,#26,.F.);
#328=EDGE_CURVE('',#441,#421,#509,.T.);
#329=EDGE_CURVE('',#442,#441,#510,.F.);
#330=EDGE_CURVE('',#407,#442,#511,.T.);
#331=EDGE_CURVE('',#443,#444,#512,.F.);
#332=EDGE_CURVE('',#443,#445,#27,.F.);
#333=EDGE_CURVE('',#444,#445,#513,.F.);
#334=EDGE_CURVE('',#446,#447,#36,.F.);
#335=EDGE_CURVE('',#447,#448,#514,.F.);
#336=EDGE_CURVE('',#446,#448,#515,.F.);
#337=EDGE_CURVE('',#429,#449,#516,.T.);
#338=EDGE_CURVE('',#431,#449,#517,.T.);
#339=EDGE_CURVE('',#447,#443,#518,.T.);
#340=EDGE_CURVE('',#445,#446,#519,.T.);
#341=EDGE_CURVE('',#450,#451,#37,.F.);
#342=EDGE_CURVE('',#451,#452,#520,.F.);
#343=EDGE_CURVE('',#450,#452,#521,.F.);
#344=EDGE_CURVE('',#433,#453,#522,.T.);
#345=EDGE_CURVE('',#435,#453,#523,.T.);
#346=EDGE_CURVE('',#451,#404,#524,.T.);
#347=EDGE_CURVE('',#423,#450,#525,.T.);
#348=EDGE_CURVE('',#454,#455,#38,.F.);
#349=EDGE_CURVE('',#455,#456,#526,.F.);
#350=EDGE_CURVE('',#454,#456,#527,.F.);
#351=EDGE_CURVE('',#424,#457,#528,.T.);
#352=EDGE_CURVE('',#425,#457,#529,.T.);
#353=EDGE_CURVE('',#455,#416,#530,.T.);
#354=EDGE_CURVE('',#414,#454,#531,.T.);
#355=EDGE_CURVE('',#458,#459,#39,.F.);
#356=EDGE_CURVE('',#459,#460,#532,.F.);
#357=EDGE_CURVE('',#458,#460,#533,.F.);
#358=EDGE_CURVE('',#426,#461,#534,.T.);
#359=EDGE_CURVE('',#427,#461,#535,.T.);
#360=EDGE_CURVE('',#459,#438,#536,.T.);
#361=EDGE_CURVE('',#440,#458,#537,.T.);
#362=EDGE_CURVE('',#441,#462,#538,.T.);
#363=EDGE_CURVE('',#420,#462,#539,.T.);
#364=EDGE_CURVE('',#419,#463,#540,.T.);
#365=EDGE_CURVE('',#462,#463,#541,.T.);
#366=EDGE_CURVE('',#437,#463,#542,.T.);
#367=EDGE_CURVE('',#464,#407,#543,.T.);
#368=EDGE_CURVE('',#465,#464,#544,.T.);
#369=EDGE_CURVE('',#408,#465,#545,.T.);
#370=EDGE_CURVE('',#411,#400,#546,.T.);
#371=EDGE_CURVE('',#399,#412,#547,.T.);
#372=EDGE_CURVE('',#410,#466,#548,.T.);
#373=EDGE_CURVE('',#409,#467,#549,.T.);
#374=EDGE_CURVE('',#467,#466,#550,.T.);
#375=EDGE_CURVE('',#465,#468,#551,.T.);
#376=EDGE_CURVE('',#467,#468,#552,.T.);
#377=EDGE_CURVE('',#434,#469,#553,.T.);
#378=EDGE_CURVE('',#432,#469,#554,.T.);
#379=EDGE_CURVE('',#430,#470,#555,.T.);
#380=EDGE_CURVE('',#428,#470,#556,.T.);
#381=EDGE_CURVE('',#468,#471,#557,.T.);
#382=EDGE_CURVE('',#464,#471,#558,.T.);
#383=EDGE_CURVE('',#471,#442,#559,.T.);
#384=EDGE_CURVE('',#398,#436,#560,.T.);
#385=EDGE_CURVE('',#466,#397,#561,.T.);
#386=EDGE_CURVE('',#448,#444,#562,.T.);
#387=EDGE_CURVE('',#460,#439,#563,.T.);
#388=EDGE_CURVE('',#456,#415,#564,.T.);
#389=EDGE_CURVE('',#452,#405,#565,.T.);
#390=EDGE_CURVE('',#402,#461,#566,.T.);
#391=EDGE_CURVE('',#395,#457,#567,.T.);
#392=EDGE_CURVE('',#469,#453,#568,.T.);
#393=EDGE_CURVE('',#470,#449,#569,.T.);
#394=VERTEX_POINT('',#1164);
#395=VERTEX_POINT('',#1165);
#396=VERTEX_POINT('',#1167);
#397=VERTEX_POINT('',#1170);
#398=VERTEX_POINT('',#1171);
#399=VERTEX_POINT('',#1173);
#400=VERTEX_POINT('',#1175);
#401=VERTEX_POINT('',#1178);
#402=VERTEX_POINT('',#1179);
#403=VERTEX_POINT('',#1181);
#404=VERTEX_POINT('',#1185);
#405=VERTEX_POINT('',#1186);
#406=VERTEX_POINT('',#1188);
#407=VERTEX_POINT('',#1190);
#408=VERTEX_POINT('',#1192);
#409=VERTEX_POINT('',#1194);
#410=VERTEX_POINT('',#1196);
#411=VERTEX_POINT('',#1198);
#412=VERTEX_POINT('',#1200);
#413=VERTEX_POINT('',#1202);
#414=VERTEX_POINT('',#1204);
#415=VERTEX_POINT('',#1206);
#416=VERTEX_POINT('',#1208);
#417=VERTEX_POINT('',#1210);
#418=VERTEX_POINT('',#1212);
#419=VERTEX_POINT('',#1214);
#420=VERTEX_POINT('',#1216);
#421=VERTEX_POINT('',#1218);
#422=VERTEX_POINT('',#1220);
#423=VERTEX_POINT('',#1222);
#424=VERTEX_POINT('',#1226);
#425=VERTEX_POINT('',#1228);
#426=VERTEX_POINT('',#1232);
#427=VERTEX_POINT('',#1234);
#428=VERTEX_POINT('',#1238);
#429=VERTEX_POINT('',#1239);
#430=VERTEX_POINT('',#1241);
#431=VERTEX_POINT('',#1243);
#432=VERTEX_POINT('',#1247);
#433=VERTEX_POINT('',#1248);
#434=VERTEX_POINT('',#1250);
#435=VERTEX_POINT('',#1252);
#436=VERTEX_POINT('',#1257);
#437=VERTEX_POINT('',#1259);
#438=VERTEX_POINT('',#1262);
#439=VERTEX_POINT('',#1263);
#440=VERTEX_POINT('',#1265);
#441=VERTEX_POINT('',#1270);
#442=VERTEX_POINT('',#1272);
#443=VERTEX_POINT('',#1275);
#444=VERTEX_POINT('',#1276);
#445=VERTEX_POINT('',#1278);
#446=VERTEX_POINT('',#1282);
#447=VERTEX_POINT('',#1283);
#448=VERTEX_POINT('',#1285);
#449=VERTEX_POINT('',#1288);
#450=VERTEX_POINT('',#1295);
#451=VERTEX_POINT('',#1296);
#452=VERTEX_POINT('',#1298);
#453=VERTEX_POINT('',#1301);
#454=VERTEX_POINT('',#1308);
#455=VERTEX_POINT('',#1309);
#456=VERTEX_POINT('',#1311);
#457=VERTEX_POINT('',#1314);
#458=VERTEX_POINT('',#1321);
#459=VERTEX_POINT('',#1322);
#460=VERTEX_POINT('',#1324);
#461=VERTEX_POINT('',#1327);
#462=VERTEX_POINT('',#1334);
#463=VERTEX_POINT('',#1338);
#464=VERTEX_POINT('',#1344);
#465=VERTEX_POINT('',#1346);
#466=VERTEX_POINT('',#1353);
#467=VERTEX_POINT('',#1355);
#468=VERTEX_POINT('',#1359);
#469=VERTEX_POINT('',#1363);
#470=VERTEX_POINT('',#1366);
#471=VERTEX_POINT('',#1369);
#472=LINE('',#1163,#570);
#473=LINE('',#1168,#571);
#474=LINE('',#1169,#572);
#475=LINE('',#1172,#573);
#476=LINE('',#1174,#574);
#477=LINE('',#1176,#575);
#478=LINE('',#1177,#576);
#479=LINE('',#1182,#577);
#480=LINE('',#1184,#578);
#481=LINE('',#1189,#579);
#482=LINE('',#1191,#580);
#483=LINE('',#1193,#581);
#484=LINE('',#1195,#582);
#485=LINE('',#1197,#583);
#486=LINE('',#1199,#584);
#487=LINE('',#1201,#585);
#488=LINE('',#1205,#586);
#489=LINE('',#1207,#587);
#490=LINE('',#1211,#588);
#491=LINE('',#1213,#589);
#492=LINE('',#1215,#590);
#493=LINE('',#1217,#591);
#494=LINE('',#1219,#592);
#495=LINE('',#1223,#593);
#496=LINE('',#1225,#594);
#497=LINE('',#1227,#595);
#498=LINE('',#1231,#596);
#499=LINE('',#1233,#597);
#500=LINE('',#1237,#598);
#501=LINE('',#1242,#599);
#502=LINE('',#1246,#600);
#503=LINE('',#1251,#601);
#504=LINE('',#1256,#602);
#505=LINE('',#1258,#603);
#506=LINE('',#1260,#604);
#507=LINE('',#1261,#605);
#508=LINE('',#1266,#606);
#509=LINE('',#1269,#607);
#510=LINE('',#1271,#608);
#511=LINE('',#1273,#609);
#512=LINE('',#1274,#610);
#513=LINE('',#1279,#611);
#514=LINE('',#1284,#612);
#515=LINE('',#1286,#613);
#516=LINE('',#1287,#614);
#517=LINE('',#1289,#615);
#518=LINE('',#1291,#616);
#519=LINE('',#1292,#617);
#520=LINE('',#1297,#618);
#521=LINE('',#1299,#619);
#522=LINE('',#1300,#620);
#523=LINE('',#1302,#621);
#524=LINE('',#1304,#622);
#525=LINE('',#1305,#623);
#526=LINE('',#1310,#624);
#527=LINE('',#1312,#625);
#528=LINE('',#1313,#626);
#529=LINE('',#1315,#627);
#530=LINE('',#1317,#628);
#531=LINE('',#1318,#629);
#532=LINE('',#1323,#630);
#533=LINE('',#1325,#631);
#534=LINE('',#1326,#632);
#535=LINE('',#1328,#633);
#536=LINE('',#1330,#634);
#537=LINE('',#1331,#635);
#538=LINE('',#1333,#636);
#539=LINE('',#1335,#637);
#540=LINE('',#1337,#638);
#541=LINE('',#1339,#639);
#542=LINE('',#1341,#640);
#543=LINE('',#1343,#641);
#544=LINE('',#1345,#642);
#545=LINE('',#1347,#643);
#546=LINE('',#1349,#644);
#547=LINE('',#1350,#645);
#548=LINE('',#1352,#646);
#549=LINE('',#1354,#647);
#550=LINE('',#1356,#648);
#551=LINE('',#1358,#649);
#552=LINE('',#1360,#650);
#553=LINE('',#1362,#651);
#554=LINE('',#1364,#652);
#555=LINE('',#1365,#653);
#556=LINE('',#1367,#654);
#557=LINE('',#1368,#655);
#558=LINE('',#1370,#656);
#559=LINE('',#1372,#657);
#560=LINE('',#1374,#658);
#561=LINE('',#1376,#659);
#562=LINE('',#1379,#660);
#563=LINE('',#1382,#661);
#564=LINE('',#1385,#662);
#565=LINE('',#1388,#663);
#566=LINE('',#1391,#664);
#567=LINE('',#1394,#665);
#568=LINE('',#1397,#666);
#569=LINE('',#1400,#667);
#570=VECTOR('',#937,1.);
#571=VECTOR('',#940,1.);
#572=VECTOR('',#941,1.);
#573=VECTOR('',#942,1.);
#574=VECTOR('',#943,1.);
#575=VECTOR('',#944,1.);
#576=VECTOR('',#945,1.);
#577=VECTOR('',#948,1.);
#578=VECTOR('',#951,1.);
#579=VECTOR('',#954,1.);
#580=VECTOR('',#955,1.);
#581=VECTOR('',#956,1.);
#582=VECTOR('',#957,1.);
#583=VECTOR('',#958,1.);
#584=VECTOR('',#959,1.);
#585=VECTOR('',#960,1.);
#586=VECTOR('',#963,1.);
#587=VECTOR('',#964,1.);
#588=VECTOR('',#967,1.);
#589=VECTOR('',#968,1.);
#590=VECTOR('',#969,1.);
#591=VECTOR('',#970,1.);
#592=VECTOR('',#971,1.);
#593=VECTOR('',#974,1.);
#594=VECTOR('',#977,1.);
#595=VECTOR('',#978,1.);
#596=VECTOR('',#983,1.);
#597=VECTOR('',#984,1.);
#598=VECTOR('',#989,1.);
#599=VECTOR('',#992,1.);
#600=VECTOR('',#997,1.);
#601=VECTOR('',#1000,1.);
#602=VECTOR('',#1007,1.);
#603=VECTOR('',#1008,1.);
#604=VECTOR('',#1009,1.);
#605=VECTOR('',#1010,1.);
#606=VECTOR('',#1013,1.);
#607=VECTOR('',#1018,1.);
#608=VECTOR('',#1019,1.);
#609=VECTOR('',#1020,1.);
#610=VECTOR('',#1021,1.);
#611=VECTOR('',#1024,1.);
#612=VECTOR('',#1029,1.);
#613=VECTOR('',#1030,1.);
#614=VECTOR('',#1031,1.);
#615=VECTOR('',#1032,1.);
#616=VECTOR('',#1035,1.);
#617=VECTOR('',#1036,1.);
#618=VECTOR('',#1041,1.);
#619=VECTOR('',#1042,1.);
#620=VECTOR('',#1043,1.);
#621=VECTOR('',#1044,1.);
#622=VECTOR('',#1047,1.);
#623=VECTOR('',#1048,1.);
#624=VECTOR('',#1053,1.);
#625=VECTOR('',#1054,1.);
#626=VECTOR('',#1055,1.);
#627=VECTOR('',#1056,1.);
#628=VECTOR('',#1059,1.);
#629=VECTOR('',#1060,1.);
#630=VECTOR('',#1065,1.);
#631=VECTOR('',#1066,1.);
#632=VECTOR('',#1067,1.);
#633=VECTOR('',#1068,1.);
#634=VECTOR('',#1071,1.);
#635=VECTOR('',#1072,1.);
#636=VECTOR('',#1075,1.);
#637=VECTOR('',#1076,1.);
#638=VECTOR('',#1079,1.);
#639=VECTOR('',#1080,1.);
#640=VECTOR('',#1083,1.);
#641=VECTOR('',#1086,1.);
#642=VECTOR('',#1087,1.);
#643=VECTOR('',#1088,1.);
#644=VECTOR('',#1091,1.);
#645=VECTOR('',#1092,1.);
#646=VECTOR('',#1095,1.);
#647=VECTOR('',#1096,1.);
#648=VECTOR('',#1097,1.);
#649=VECTOR('',#1100,1.);
#650=VECTOR('',#1101,1.);
#651=VECTOR('',#1104,1.);
#652=VECTOR('',#1105,1.);
#653=VECTOR('',#1106,1.);
#654=VECTOR('',#1107,1.);
#655=VECTOR('',#1108,1.);
#656=VECTOR('',#1109,1.);
#657=VECTOR('',#1112,1.);
#658=VECTOR('',#1115,1.);
#659=VECTOR('',#1118,1.);
#660=VECTOR('',#1123,1.);
#661=VECTOR('',#1128,1.);
#662=VECTOR('',#1133,1.);
#663=VECTOR('',#1138,1.);
#664=VECTOR('',#1143,1.);
#665=VECTOR('',#1148,1.);
#666=VECTOR('',#1153,1.);
#667=VECTOR('',#1158,1.);
#668=EDGE_LOOP('',(#40,#41,#42));
#669=EDGE_LOOP('',(#43,#44,#45,#46));
#670=EDGE_LOOP('',(#47,#48,#49));
#671=EDGE_LOOP('',(#50,#51,#52,#53,#54,#55,#56,#57,#58,#59,#60,#61,#62,
#63,#64,#65,#66,#67,#68,#69));
#672=EDGE_LOOP('',(#70,#71,#72,#73));
#673=EDGE_LOOP('',(#74,#75,#76,#77));
#674=EDGE_LOOP('',(#78,#79,#80,#81));
#675=EDGE_LOOP('',(#82,#83,#84,#85));
#676=EDGE_LOOP('',(#86,#87,#88,#89,#90,#91));
#677=EDGE_LOOP('',(#92,#93,#94));
#678=EDGE_LOOP('',(#95,#96,#97,#98,#99,#100));
#679=EDGE_LOOP('',(#101,#102,#103));
#680=EDGE_LOOP('',(#104,#105,#106));
#681=EDGE_LOOP('',(#107,#108,#109));
#682=EDGE_LOOP('',(#110,#111,#112,#113));
#683=EDGE_LOOP('',(#114,#115,#116));
#684=EDGE_LOOP('',(#117,#118,#119));
#685=EDGE_LOOP('',(#120,#121,#122,#123,#124,#125));
#686=EDGE_LOOP('',(#126,#127,#128));
#687=EDGE_LOOP('',(#129,#130,#131));
#688=EDGE_LOOP('',(#132,#133,#134,#135,#136,#137));
#689=EDGE_LOOP('',(#138,#139,#140));
#690=EDGE_LOOP('',(#141,#142,#143));
#691=EDGE_LOOP('',(#144,#145,#146,#147));
#692=EDGE_LOOP('',(#148,#149,#150,#151));
#693=EDGE_LOOP('',(#152,#153,#154,#155));
#694=EDGE_LOOP('',(#156,#157,#158,#159));
#695=EDGE_LOOP('',(#160,#161,#162,#163));
#696=EDGE_LOOP('',(#164,#165,#166,#167));
#697=EDGE_LOOP('',(#168,#169,#170,#171));
#698=EDGE_LOOP('',(#172,#173,#174,#175,#176));
#699=EDGE_LOOP('',(#177,#178,#179));
#700=EDGE_LOOP('',(#180,#181,#182));
#701=EDGE_LOOP('',(#183,#184,#185,#186));
#702=EDGE_LOOP('',(#187,#188,#189,#190));
#703=EDGE_LOOP('',(#191,#192,#193,#194));
#704=EDGE_LOOP('',(#195,#196,#197,#198,#199));
#705=EDGE_LOOP('',(#200,#201,#202,#203,#204,#205,#206,#207,#208,#209,#210,
#211));
#706=EDGE_LOOP('',(#212,#213,#214,#215));
#707=EDGE_LOOP('',(#216,#217,#218,#219));
#708=EDGE_LOOP('',(#220,#221,#222,#223));
#709=EDGE_LOOP('',(#224,#225,#226,#227));
#710=EDGE_LOOP('',(#228,#229,#230,#231));
#711=EDGE_LOOP('',(#232,#233,#234,#235));
#712=EDGE_LOOP('',(#236,#237,#238,#239));
#713=EDGE_LOOP('',(#240,#241,#242,#243));
#714=EDGE_LOOP('',(#244,#245,#246,#247));
#715=EDGE_LOOP('',(#248,#249,#250,#251));
#716=EDGE_LOOP('',(#252,#253,#254,#255));
#717=EDGE_LOOP('',(#256,#257,#258,#259));
#718=EDGE_LOOP('',(#260,#261,#262,#263));
#719=EDGE_LOOP('',(#264,#265,#266,#267));
#720=EDGE_LOOP('',(#268,#269,#270,#271));
#721=EDGE_LOOP('',(#272,#273,#274,#275));
#722=FACE_BOUND('',#668,.T.);
#723=FACE_BOUND('',#669,.T.);
#724=FACE_BOUND('',#670,.T.);
#725=FACE_BOUND('',#671,.T.);
#726=FACE_BOUND('',#672,.T.);
#727=FACE_BOUND('',#673,.T.);
#728=FACE_BOUND('',#674,.T.);
#729=FACE_BOUND('',#675,.T.);
#730=FACE_BOUND('',#676,.T.);
#731=FACE_BOUND('',#677,.T.);
#732=FACE_BOUND('',#678,.T.);
#733=FACE_BOUND('',#679,.T.);
#734=FACE_BOUND('',#680,.T.);
#735=FACE_BOUND('',#681,.T.);
#736=FACE_BOUND('',#682,.T.);
#737=FACE_BOUND('',#683,.T.);
#738=FACE_BOUND('',#684,.T.);
#739=FACE_BOUND('',#685,.T.);
#740=FACE_BOUND('',#686,.T.);
#741=FACE_BOUND('',#687,.T.);
#742=FACE_BOUND('',#688,.T.);
#743=FACE_BOUND('',#689,.T.);
#744=FACE_BOUND('',#690,.T.);
#745=FACE_BOUND('',#691,.T.);
#746=FACE_BOUND('',#692,.T.);
#747=FACE_BOUND('',#693,.T.);
#748=FACE_BOUND('',#694,.T.);
#749=FACE_BOUND('',#695,.T.);
#750=FACE_BOUND('',#696,.T.);
#751=FACE_BOUND('',#697,.T.);
#752=FACE_BOUND('',#698,.T.);
#753=FACE_BOUND('',#699,.T.);
#754=FACE_BOUND('',#700,.T.);
#755=FACE_BOUND('',#701,.T.);
#756=FACE_BOUND('',#702,.T.);
#757=FACE_BOUND('',#703,.T.);
#758=FACE_BOUND('',#704,.T.);
#759=FACE_BOUND('',#705,.T.);
#760=FACE_BOUND('',#706,.T.);
#761=FACE_BOUND('',#707,.T.);
#762=FACE_BOUND('',#708,.T.);
#763=FACE_BOUND('',#709,.T.);
#764=FACE_BOUND('',#710,.T.);
#765=FACE_BOUND('',#711,.T.);
#766=FACE_BOUND('',#712,.T.);
#767=FACE_BOUND('',#713,.T.);
#768=FACE_BOUND('',#714,.T.);
#769=FACE_BOUND('',#715,.T.);
#770=FACE_BOUND('',#716,.T.);
#771=FACE_BOUND('',#717,.T.);
#772=FACE_BOUND('',#718,.T.);
#773=FACE_BOUND('',#719,.T.);
#774=FACE_BOUND('',#720,.T.);
#775=FACE_BOUND('',#721,.T.);
#776=PLANE('',#869);
#777=PLANE('',#872);
#778=PLANE('',#887);
#779=PLANE('',#890);
#780=PLANE('',#893);
#781=PLANE('',#896);
#782=PLANE('',#899);
#783=PLANE('',#902);
#784=PLANE('',#905);
#785=PLANE('',#906);
#786=PLANE('',#907);
#787=PLANE('',#908);
#788=PLANE('',#909);
#789=PLANE('',#910);
#790=PLANE('',#911);
#791=PLANE('',#912);
#792=PLANE('',#913);
#793=PLANE('',#914);
#794=PLANE('',#915);
#795=PLANE('',#916);
#796=PLANE('',#917);
#797=PLANE('',#918);
#798=PLANE('',#919);
#799=PLANE('',#920);
#800=PLANE('',#921);
#801=PLANE('',#922);
#802=PLANE('',#923);
#803=PLANE('',#924);
#804=PLANE('',#925);
#805=PLANE('',#926);
#806=PLANE('',#927);
#807=PLANE('',#928);
#808=PLANE('',#929);
#809=PLANE('',#930);
#810=PLANE('',#931);
#811=PLANE('',#932);
#812=ADVANCED_FACE('',(#722,#723,#724),#776,.F.);
#813=ADVANCED_FACE('',(#725),#777,.F.);
#814=ADVANCED_FACE('',(#726),#12,.F.);
#815=ADVANCED_FACE('',(#727),#13,.F.);
#816=ADVANCED_FACE('',(#728),#14,.F.);
#817=ADVANCED_FACE('',(#729),#15,.F.);
#818=ADVANCED_FACE('',(#730,#731),#778,.T.);
#819=ADVANCED_FACE('',(#732,#733),#779,.T.);
#820=ADVANCED_FACE('',(#734,#735),#780,.F.);
#821=ADVANCED_FACE('',(#736),#16,.F.);
#822=ADVANCED_FACE('',(#737,#738),#781,.F.);
#823=ADVANCED_FACE('',(#739),#17,.F.);
#824=ADVANCED_FACE('',(#740,#741),#782,.F.);
#825=ADVANCED_FACE('',(#742),#18,.F.);
#826=ADVANCED_FACE('',(#743,#744),#783,.F.);
#827=ADVANCED_FACE('',(#745),#19,.F.);
#828=ADVANCED_FACE('',(#746),#784,.T.);
#829=ADVANCED_FACE('',(#747),#785,.T.);
#830=ADVANCED_FACE('',(#748),#786,.F.);
#831=ADVANCED_FACE('',(#749),#787,.F.);
#832=ADVANCED_FACE('',(#750),#788,.F.);
#833=ADVANCED_FACE('',(#751),#789,.F.);
#834=ADVANCED_FACE('',(#752),#790,.T.);
#835=ADVANCED_FACE('',(#753,#754,#755),#791,.T.);
#836=ADVANCED_FACE('',(#756),#792,.T.);
#837=ADVANCED_FACE('',(#757),#793,.F.);
#838=ADVANCED_FACE('',(#758),#794,.F.);
#839=ADVANCED_FACE('',(#759),#795,.T.);
#840=ADVANCED_FACE('',(#760),#796,.T.);
#841=ADVANCED_FACE('',(#761),#797,.T.);
#842=ADVANCED_FACE('',(#762),#798,.T.);
#843=ADVANCED_FACE('',(#763),#799,.T.);
#844=ADVANCED_FACE('',(#764),#800,.T.);
#845=ADVANCED_FACE('',(#765),#801,.T.);
#846=ADVANCED_FACE('',(#766),#802,.T.);
#847=ADVANCED_FACE('',(#767),#803,.T.);
#848=ADVANCED_FACE('',(#768),#804,.T.);
#849=ADVANCED_FACE('',(#769),#805,.T.);
#850=ADVANCED_FACE('',(#770),#806,.T.);
#851=ADVANCED_FACE('',(#771),#807,.T.);
#852=ADVANCED_FACE('',(#772),#808,.T.);
#853=ADVANCED_FACE('',(#773),#809,.T.);
#854=ADVANCED_FACE('',(#774),#810,.T.);
#855=ADVANCED_FACE('',(#775),#811,.T.);
#856=CLOSED_SHELL('',(#812,#813,#814,#815,#816,#817,#818,#819,#820,#821,
#822,#823,#824,#825,#826,#827,#828,#829,#830,#831,#832,#833,#834,#835,#836,
#837,#838,#839,#840,#841,#842,#843,#844,#845,#846,#847,#848,#849,#850,#851,
#852,#853,#854,#855));
#857=STYLED_ITEM('',(#858),#865);
#858=PRESENTATION_STYLE_ASSIGNMENT((#859));
#859=SURFACE_STYLE_USAGE(.BOTH.,#860);
#860=SURFACE_SIDE_STYLE('',(#861));
#861=SURFACE_STYLE_FILL_AREA(#862);
#862=FILL_AREA_STYLE('',(#863));
#863=FILL_AREA_STYLE_COLOUR('',#864);
#864=COLOUR_RGB('',0.129411764705882,0.341176470588236,0.352941176470589);
#865=MANIFOLD_SOLID_BREP('Fan Retainer',#856);
#866=SHAPE_DEFINITION_REPRESENTATION(#1408,#867);
#867=SHAPE_REPRESENTATION('Fan Retainer',(#868),#1403);
#868=AXIS2_PLACEMENT_3D('',#1161,#933,#934);
#869=AXIS2_PLACEMENT_3D('',#1162,#935,#936);
#870=AXIS2_PLACEMENT_3D('',#1166,#938,#939);
#871=AXIS2_PLACEMENT_3D('',#1180,#946,#947);
#872=AXIS2_PLACEMENT_3D('',#1183,#949,#950);
#873=AXIS2_PLACEMENT_3D('',#1187,#952,#953);
#874=AXIS2_PLACEMENT_3D('',#1203,#961,#962);
#875=AXIS2_PLACEMENT_3D('',#1209,#965,#966);
#876=AXIS2_PLACEMENT_3D('',#1221,#972,#973);
#877=AXIS2_PLACEMENT_3D('',#1224,#975,#976);
#878=AXIS2_PLACEMENT_3D('',#1229,#979,#980);
#879=AXIS2_PLACEMENT_3D('',#1230,#981,#982);
#880=AXIS2_PLACEMENT_3D('',#1235,#985,#986);
#881=AXIS2_PLACEMENT_3D('',#1236,#987,#988);
#882=AXIS2_PLACEMENT_3D('',#1240,#990,#991);
#883=AXIS2_PLACEMENT_3D('',#1244,#993,#994);
#884=AXIS2_PLACEMENT_3D('',#1245,#995,#996);
#885=AXIS2_PLACEMENT_3D('',#1249,#998,#999);
#886=AXIS2_PLACEMENT_3D('',#1253,#1001,#1002);
#887=AXIS2_PLACEMENT_3D('',#1254,#1003,#1004);
#888=AXIS2_PLACEMENT_3D('',#1255,#1005,#1006);
#889=AXIS2_PLACEMENT_3D('',#1264,#1011,#1012);
#890=AXIS2_PLACEMENT_3D('',#1267,#1014,#1015);
#891=AXIS2_PLACEMENT_3D('',#1268,#1016,#1017);
#892=AXIS2_PLACEMENT_3D('',#1277,#1022,#1023);
#893=AXIS2_PLACEMENT_3D('',#1280,#1025,#1026);
#894=AXIS2_PLACEMENT_3D('',#1281,#1027,#1028);
#895=AXIS2_PLACEMENT_3D('',#1290,#1033,#1034);
#896=AXIS2_PLACEMENT_3D('',#1293,#1037,#1038);
#897=AXIS2_PLACEMENT_3D('',#1294,#1039,#1040);
#898=AXIS2_PLACEMENT_3D('',#1303,#1045,#1046);
#899=AXIS2_PLACEMENT_3D('',#1306,#1049,#1050);
#900=AXIS2_PLACEMENT_3D('',#1307,#1051,#1052);
#901=AXIS2_PLACEMENT_3D('',#1316,#1057,#1058);
#902=AXIS2_PLACEMENT_3D('',#1319,#1061,#1062);
#903=AXIS2_PLACEMENT_3D('',#1320,#1063,#1064);
#904=AXIS2_PLACEMENT_3D('',#1329,#1069,#1070);
#905=AXIS2_PLACEMENT_3D('',#1332,#1073,#1074);
#906=AXIS2_PLACEMENT_3D('',#1336,#1077,#1078);
#907=AXIS2_PLACEMENT_3D('',#1340,#1081,#1082);
#908=AXIS2_PLACEMENT_3D('',#1342,#1084,#1085);
#909=AXIS2_PLACEMENT_3D('',#1348,#1089,#1090);
#910=AXIS2_PLACEMENT_3D('',#1351,#1093,#1094);
#911=AXIS2_PLACEMENT_3D('',#1357,#1098,#1099);
#912=AXIS2_PLACEMENT_3D('',#1361,#1102,#1103);
#913=AXIS2_PLACEMENT_3D('',#1371,#1110,#1111);
#914=AXIS2_PLACEMENT_3D('',#1373,#1113,#1114);
#915=AXIS2_PLACEMENT_3D('',#1375,#1116,#1117);
#916=AXIS2_PLACEMENT_3D('',#1377,#1119,#1120);
#917=AXIS2_PLACEMENT_3D('',#1378,#1121,#1122);
#918=AXIS2_PLACEMENT_3D('',#1380,#1124,#1125);
#919=AXIS2_PLACEMENT_3D('',#1381,#1126,#1127);
#920=AXIS2_PLACEMENT_3D('',#1383,#1129,#1130);
#921=AXIS2_PLACEMENT_3D('',#1384,#1131,#1132);
#922=AXIS2_PLACEMENT_3D('',#1386,#1134,#1135);
#923=AXIS2_PLACEMENT_3D('',#1387,#1136,#1137);
#924=AXIS2_PLACEMENT_3D('',#1389,#1139,#1140);
#925=AXIS2_PLACEMENT_3D('',#1390,#1141,#1142);
#926=AXIS2_PLACEMENT_3D('',#1392,#1144,#1145);
#927=AXIS2_PLACEMENT_3D('',#1393,#1146,#1147);
#928=AXIS2_PLACEMENT_3D('',#1395,#1149,#1150);
#929=AXIS2_PLACEMENT_3D('',#1396,#1151,#1152);
#930=AXIS2_PLACEMENT_3D('',#1398,#1154,#1155);
#931=AXIS2_PLACEMENT_3D('',#1399,#1156,#1157);
#932=AXIS2_PLACEMENT_3D('',#1401,#1159,#1160);
#933=DIRECTION('',(0.,0.,1.));
#934=DIRECTION('',(1.,0.,0.));
#935=DIRECTION('',(-1.82602471155453E-16,-1.26705917393897E-31,-1.));
#936=DIRECTION('',(-1.,0.,1.82602471155453E-16));
#937=DIRECTION('',(-0.500000000000008,-0.866025403784434,9.13012355777281E-17));
#938=DIRECTION('',(-1.82602471155453E-16,-1.26705917393897E-31,-1.));
#939=DIRECTION('',(-1.,0.,1.82602471155453E-16));
#940=DIRECTION('',(-0.500000000000008,0.866025403784435,0.));
#941=DIRECTION('',(-6.93889390390723E-16,1.,-1.80059938364105E-47));
#942=DIRECTION('',(1.,6.93889390390723E-16,-1.82602471155453E-16));
#943=DIRECTION('',(-6.93889390390723E-16,1.,-1.80059938364105E-47));
#944=DIRECTION('',(1.,6.93889390390723E-16,-1.82602471155453E-16));
#945=DIRECTION('',(-0.500000000000008,-0.866025403784434,9.13012355777281E-17));
#946=DIRECTION('',(-1.82602471155453E-16,-1.26705917393897E-31,-1.));
#947=DIRECTION('',(-1.,0.,1.82602471155453E-16));
#948=DIRECTION('',(-0.500000000000008,0.866025403784435,0.));
#949=DIRECTION('',(0.5,3.46944695195362E-16,0.866025403784438));
#950=DIRECTION('',(0.866025403784439,0.,-0.5));
#951=DIRECTION('',(-0.480384461415261,0.832050294337844,0.277350098112614));
#952=DIRECTION('',(0.5,3.46944695195362E-16,0.866025403784438));
#953=DIRECTION('',(0.866025403784439,9.16330107854283E-16,-0.5));
#954=DIRECTION('',(0.774596669241483,0.447213595499958,-0.447213595499959));
#955=DIRECTION('',(-6.93889390390723E-16,1.,1.26705917393897E-31));
#956=DIRECTION('',(0.866025403784439,6.00925839494864E-16,-0.5));
#957=DIRECTION('',(8.44120850264439E-16,-1.,-8.67361737988404E-17));
#958=DIRECTION('',(0.866025403784439,6.00925839494864E-16,-0.5));
#959=DIRECTION('',(-6.93889390390723E-16,1.,1.26705917393897E-31));
#960=DIRECTION('',(-0.774596669241483,0.447213595499958,0.447213595499959));
#961=DIRECTION('',(0.5,3.46944695195362E-16,0.866025403784438));
#962=DIRECTION('',(0.866025403784439,9.16330107854283E-16,-0.5));
#963=DIRECTION('',(0.480384461415261,0.832050294337844,-0.277350098112615));
#964=DIRECTION('',(-0.480384461415261,0.832050294337844,0.277350098112614));
#965=DIRECTION('',(0.5,3.46944695195362E-16,0.866025403784438));
#966=DIRECTION('',(0.866025403784439,9.16330107854283E-16,-0.5));
#967=DIRECTION('',(-0.774596669241483,0.447213595499958,0.447213595499959));
#968=DIRECTION('',(0.866025403784438,6.00925839494864E-16,-0.5));
#969=DIRECTION('',(-6.93889390390723E-16,1.,1.26705917393897E-31));
#970=DIRECTION('',(0.866025403784439,6.00925839494864E-16,-0.5));
#971=DIRECTION('',(0.774596669241483,0.447213595499958,-0.447213595499959));
#972=DIRECTION('',(0.5,3.46944695195362E-16,0.866025403784438));
#973=DIRECTION('',(0.866025403784439,9.16330107854283E-16,-0.5));
#974=DIRECTION('',(0.480384461415261,0.832050294337844,-0.277350098112615));
#975=DIRECTION('',(-1.82602471155453E-16,-1.26705917393897E-31,-1.));
#976=DIRECTION('',(-1.,0.,1.82602471155453E-16));
#977=DIRECTION('',(-1.82602471155453E-16,-1.26705917393897E-31,-1.));
#978=DIRECTION('',(1.82602471155453E-16,1.26705917393897E-31,1.));
#979=DIRECTION('',(1.82602471155453E-16,-1.57702134179709E-16,1.));
#980=DIRECTION('',(1.,0.,-1.82602471155453E-16));
#981=DIRECTION('',(-1.82602471155453E-16,-1.26705917393897E-31,-1.));
#982=DIRECTION('',(-1.,0.,1.82602471155453E-16));
#983=DIRECTION('',(-1.82602471155453E-16,-1.26705917393897E-31,-1.));
#984=DIRECTION('',(1.82602471155453E-16,1.26705917393897E-31,1.));
#985=DIRECTION('',(1.82602471155453E-16,-1.57702134179709E-16,1.));
#986=DIRECTION('',(1.,0.,-1.82602471155453E-16));
#987=DIRECTION('',(-1.82602471155453E-16,-1.26705917393897E-31,-1.));
#988=DIRECTION('',(-1.,0.,1.82602471155453E-16));
#989=DIRECTION('',(-1.82602471155453E-16,-1.26705917393897E-31,-1.));
#990=DIRECTION('',(1.82602471155453E-16,1.26705917393897E-31,1.));
#991=DIRECTION('',(1.,0.,-1.82602471155453E-16));
#992=DIRECTION('',(1.82602471155453E-16,1.26705917393897E-31,1.));
#993=DIRECTION('',(1.82602471155453E-16,-1.57702134179709E-16,1.));
#994=DIRECTION('',(1.,0.,-1.82602471155453E-16));
#995=DIRECTION('',(-1.82602471155453E-16,-1.26705917393897E-31,-1.));
#996=DIRECTION('',(-1.,0.,1.82602471155453E-16));
#997=DIRECTION('',(-1.82602471155453E-16,-1.26705917393897E-31,-1.));
#998=DIRECTION('',(1.82602471155453E-16,1.26705917393897E-31,1.));
#999=DIRECTION('',(1.,0.,-1.82602471155453E-16));
#1000=DIRECTION('',(1.82602471155453E-16,1.26705917393897E-31,1.));
#1001=DIRECTION('',(1.82602471155453E-16,-1.57702134179709E-16,1.));
#1002=DIRECTION('',(1.,0.,-1.82602471155453E-16));
#1003=DIRECTION('',(-6.19773338954122E-16,0.707106781186547,-0.707106781186548));
#1004=DIRECTION('',(-1.,-6.93889390390723E-16,1.82602471155453E-16));
#1005=DIRECTION('',(-6.19773338954122E-16,0.707106781186547,-0.707106781186548));
#1006=DIRECTION('',(3.61534447723238E-16,-0.707106781186548,-0.707106781186547));
#1007=DIRECTION('',(1.,6.93889390390723E-16,-1.82602471155453E-16));
#1008=DIRECTION('',(3.61534447723238E-16,-0.707106781186548,-0.707106781186547));
#1009=DIRECTION('',(1.,6.93889390390723E-16,-1.82602471155453E-16));
#1010=DIRECTION('',(0.377964473009228,-0.654653670707977,-0.654653670707977));
#1011=DIRECTION('',(-6.19773338954122E-16,0.707106781186547,-0.707106781186548));
#1012=DIRECTION('',(3.61534447723238E-16,-0.707106781186548,-0.707106781186547));
#1013=DIRECTION('',(-0.377964473009228,-0.654653670707977,-0.654653670707977));
#1014=DIRECTION('',(3.61534447723238E-16,-0.707106781186548,-0.707106781186547));
#1015=DIRECTION('',(-1.,-6.93889390390723E-16,1.82602471155453E-16));
#1016=DIRECTION('',(3.61534447723238E-16,-0.707106781186548,-0.707106781186547));
#1017=DIRECTION('',(-6.19773338954121E-16,0.707106781186547,-0.707106781186548));
#1018=DIRECTION('',(-1.,-6.93889390390723E-16,1.82602471155453E-16));
#1019=DIRECTION('',(6.19773338954122E-16,-0.707106781186547,0.707106781186548));
#1020=DIRECTION('',(1.,6.93889390390723E-16,-1.82602471155453E-16));
#1021=DIRECTION('',(0.377964473009228,-0.654653670707976,0.654653670707978));
#1022=DIRECTION('',(3.61534447723238E-16,-0.707106781186548,-0.707106781186547));
#1023=DIRECTION('',(-6.19773338954121E-16,0.707106781186547,-0.707106781186548));
#1024=DIRECTION('',(-0.377964473009227,-0.654653670707977,0.654653670707978));
#1025=DIRECTION('',(1.82602471155453E-16,-1.57702134179709E-16,1.));
#1026=DIRECTION('',(1.,2.87967994077038E-32,-1.82602471155453E-16));
#1027=DIRECTION('',(1.82602471155453E-16,-1.57702134179709E-16,1.));
#1028=DIRECTION('',(1.,0.,-1.82602471155453E-16));
#1029=DIRECTION('',(0.5,-0.866025403784438,-2.27875290008378E-16));
#1030=DIRECTION('',(0.5,0.866025403784439,4.5272818852924E-17));
#1031=DIRECTION('',(-0.500000000000008,0.866025403784434,2.27875290008378E-16));
#1032=DIRECTION('',(-0.500000000000008,-0.866025403784435,0.));
#1033=DIRECTION('',(-1.82602471155453E-16,1.57702134179709E-16,-1.));
#1034=DIRECTION('',(-1.,0.,1.82602471155453E-16));
#1035=DIRECTION('',(-1.82602471155453E-16,1.57702134179709E-16,-1.));
#1036=DIRECTION('',(1.82602471155453E-16,-1.57702134179709E-16,1.));
#1037=DIRECTION('',(1.82602471155453E-16,-1.57702134179709E-16,1.));
#1038=DIRECTION('',(1.,2.87967994077038E-32,-1.82602471155453E-16));
#1039=DIRECTION('',(1.82602471155453E-16,-1.57702134179709E-16,1.));
#1040=DIRECTION('',(1.,0.,-1.82602471155453E-16));
#1041=DIRECTION('',(0.5,-0.866025403784439,-2.27875290008377E-16));
#1042=DIRECTION('',(0.5,0.866025403784439,4.52728188529242E-17));
#1043=DIRECTION('',(-0.500000000000008,0.866025403784434,2.27875290008378E-16));
#1044=DIRECTION('',(-0.500000000000008,-0.866025403784435,0.));
#1045=DIRECTION('',(-1.82602471155453E-16,1.57702134179709E-16,-1.));
#1046=DIRECTION('',(-1.,0.,1.82602471155453E-16));
#1047=DIRECTION('',(-1.82602471155453E-16,1.57702134179709E-16,-1.));
#1048=DIRECTION('',(1.82602471155453E-16,-1.57702134179709E-16,1.));
#1049=DIRECTION('',(1.82602471155453E-16,-1.57702134179709E-16,1.));
#1050=DIRECTION('',(1.,2.87967994077038E-32,-1.82602471155453E-16));
#1051=DIRECTION('',(1.82602471155453E-16,-1.57702134179709E-16,1.));
#1052=DIRECTION('',(1.,0.,-1.82602471155453E-16));
#1053=DIRECTION('',(0.5,-0.866025403784439,-2.27875290008377E-16));
#1054=DIRECTION('',(0.5,0.866025403784439,4.52728188529242E-17));
#1055=DIRECTION('',(-0.500000000000008,0.866025403784434,2.27875290008378E-16));
#1056=DIRECTION('',(-0.500000000000008,-0.866025403784435,0.));
#1057=DIRECTION('',(-1.82602471155453E-16,1.57702134179709E-16,-1.));
#1058=DIRECTION('',(-1.,0.,1.82602471155453E-16));
#1059=DIRECTION('',(-1.82602471155453E-16,1.57702134179709E-16,-1.));
#1060=DIRECTION('',(1.82602471155453E-16,-1.57702134179709E-16,1.));
#1061=DIRECTION('',(1.82602471155453E-16,-1.57702134179709E-16,1.));
#1062=DIRECTION('',(1.,2.87967994077038E-32,-1.82602471155453E-16));
#1063=DIRECTION('',(1.82602471155453E-16,-1.57702134179709E-16,1.));
#1064=DIRECTION('',(1.,0.,-1.82602471155453E-16));
#1065=DIRECTION('',(0.5,-0.866025403784438,-2.27875290008378E-16));
#1066=DIRECTION('',(0.5,0.866025403784439,4.5272818852924E-17));
#1067=DIRECTION('',(-0.500000000000008,0.866025403784434,2.27875290008378E-16));
#1068=DIRECTION('',(-0.500000000000013,-0.866025403784432,0.));
#1069=DIRECTION('',(-1.82602471155453E-16,1.57702134179709E-16,-1.));
#1070=DIRECTION('',(-1.,0.,1.82602471155453E-16));
#1071=DIRECTION('',(-1.82602471155453E-16,1.57702134179709E-16,-1.));
#1072=DIRECTION('',(1.82602471155453E-16,-1.57702134179709E-16,1.));
#1073=DIRECTION('',(6.93889390390723E-16,-1.,-1.26705917393897E-31));
#1074=DIRECTION('',(1.,6.93889390390723E-16,0.));
#1075=DIRECTION('',(-1.82602471155453E-16,1.1973985901213E-46,-1.));
#1076=DIRECTION('',(1.,6.93889390390723E-16,-1.82602471155453E-16));
#1077=DIRECTION('',(-1.82602471155453E-16,1.57702134179709E-16,-1.));
#1078=DIRECTION('',(-1.,0.,1.82602471155453E-16));
#1079=DIRECTION('',(1.,6.93889390390723E-16,-1.82602471155453E-16));
#1080=DIRECTION('',(-6.93889390390723E-16,1.,1.57702134179709E-16));
#1081=DIRECTION('',(6.93889390390723E-16,-1.,-1.26705917393897E-31));
#1082=DIRECTION('',(1.,6.93889390390723E-16,0.));
#1083=DIRECTION('',(-1.82602471155453E-16,1.710569414459E-47,-1.));
#1084=DIRECTION('',(1.,6.93889390390723E-16,-1.82602471155453E-16));
#1085=DIRECTION('',(-6.93889390390723E-16,1.,1.26705917393897E-31));
#1086=DIRECTION('',(-1.82602471155453E-16,1.3684555315672E-46,-1.));
#1087=DIRECTION('',(6.93889390390723E-16,-1.,0.));
#1088=DIRECTION('',(1.82602471155453E-16,-1.710569414459E-47,1.));
#1089=DIRECTION('',(1.,6.93889390390723E-16,-1.82602471155453E-16));
#1090=DIRECTION('',(-6.93889390390723E-16,1.,1.26705917393897E-31));
#1091=DIRECTION('',(1.82602471155453E-16,-1.710569414459E-47,1.));
#1092=DIRECTION('',(-1.82602471155453E-16,-5.30276518482292E-46,-1.));
#1093=DIRECTION('',(-1.82602471155453E-16,8.67361737988403E-17,-1.));
#1094=DIRECTION('',(-1.,0.,1.82602471155453E-16));
#1095=DIRECTION('',(1.,6.93889390390723E-16,-1.82602471155453E-16));
#1096=DIRECTION('',(1.,6.93889390390723E-16,-1.82602471155453E-16));
#1097=DIRECTION('',(-6.93889390390723E-16,1.,8.67361737988404E-17));
#1098=DIRECTION('',(-6.93889390390723E-16,1.,1.26705917393897E-31));
#1099=DIRECTION('',(-1.,-6.93889390390723E-16,0.));
#1100=DIRECTION('',(1.,6.93889390390723E-16,-1.82602471155453E-16));
#1101=DIRECTION('',(1.82602471155453E-16,-1.710569414459E-47,1.));
#1102=DIRECTION('',(1.82602471155453E-16,1.26705917393897E-31,1.));
#1103=DIRECTION('',(1.,0.,-1.82602471155453E-16));
#1104=DIRECTION('',(-0.500000000000008,-0.866025403784434,9.13012355777281E-17));
#1105=DIRECTION('',(-0.500000000000008,0.866025403784435,0.));
#1106=DIRECTION('',(-0.500000000000008,-0.866025403784434,9.13012355777281E-17));
#1107=DIRECTION('',(-0.500000000000008,0.866025403784435,0.));
#1108=DIRECTION('',(6.93889390390723E-16,-1.,0.));
#1109=DIRECTION('',(1.,6.93889390390723E-16,-1.82602471155453E-16));
#1110=DIRECTION('',(6.93889390390723E-16,-1.,-1.26705917393897E-31));
#1111=DIRECTION('',(1.,6.93889390390723E-16,0.));
#1112=DIRECTION('',(-1.82602471155453E-16,1.3684555315672E-46,-1.));
#1113=DIRECTION('',(6.93889390390723E-16,-1.,-1.26705917393896E-31));
#1114=DIRECTION('',(1.,6.93889390390723E-16,0.));
#1115=DIRECTION('',(-1.82602471155453E-16,-5.30276518482292E-46,-1.));
#1116=DIRECTION('',(-6.93889390390723E-16,1.,1.26705917393897E-31));
#1117=DIRECTION('',(-1.,-6.93889390390723E-16,0.));
#1118=DIRECTION('',(1.82602471155453E-16,-1.710569414459E-47,1.));
#1119=DIRECTION('',(1.,6.93889390390723E-16,-1.82602471155453E-16));
#1120=DIRECTION('',(-6.93889390390723E-16,1.,1.26705917393897E-31));
#1121=DIRECTION('',(0.866025403784438,0.5,-7.92873117245826E-17));
#1122=DIRECTION('',(-0.5,0.866025403784438,0.));
#1123=DIRECTION('',(-1.82602471155453E-16,1.57702134179709E-16,-1.));
#1124=DIRECTION('',(0.866025403784439,-0.5,-2.36989445904292E-16));
#1125=DIRECTION('',(0.5,0.866025403784439,0.));
#1126=DIRECTION('',(0.866025403784438,0.5,-7.92873117245827E-17));
#1127=DIRECTION('',(-0.5,0.866025403784438,0.));
#1128=DIRECTION('',(-1.82602471155453E-16,1.57702134179709E-16,-1.));
#1129=DIRECTION('',(0.866025403784439,-0.5,-2.36989445904292E-16));
#1130=DIRECTION('',(0.5,0.866025403784439,0.));
#1131=DIRECTION('',(0.866025403784439,0.5,-7.9287311724583E-17));
#1132=DIRECTION('',(-0.5,0.866025403784439,0.));
#1133=DIRECTION('',(-1.82602471155453E-16,1.57702134179709E-16,-1.));
#1134=DIRECTION('',(0.866025403784439,-0.5,-2.36989445904292E-16));
#1135=DIRECTION('',(0.5,0.866025403784439,0.));
#1136=DIRECTION('',(0.866025403784439,0.5,-7.92873117245829E-17));
#1137=DIRECTION('',(-0.5,0.866025403784439,0.));
#1138=DIRECTION('',(-1.82602471155453E-16,1.57702134179709E-16,-1.));
#1139=DIRECTION('',(0.866025403784439,-0.5,-2.36989445904292E-16));
#1140=DIRECTION('',(0.5,0.866025403784439,0.));
#1141=DIRECTION('',(0.866025403784434,0.500000000000008,-1.58138378814436E-16));
#1142=DIRECTION('',(-0.500000000000008,0.866025403784434,0.));
#1143=DIRECTION('',(-1.82602471155453E-16,-1.26705917393897E-31,-1.));
#1144=DIRECTION('',(0.866025403784434,-0.500000000000008,-1.58138378814436E-16));
#1145=DIRECTION('',(0.500000000000008,0.866025403784434,0.));
#1146=DIRECTION('',(0.866025403784434,0.500000000000008,-1.58138378814436E-16));
#1147=DIRECTION('',(-0.500000000000008,0.866025403784434,0.));
#1148=DIRECTION('',(-1.82602471155453E-16,-1.26705917393897E-31,-1.));
#1149=DIRECTION('',(0.866025403784434,-0.500000000000008,-1.58138378814436E-16));
#1150=DIRECTION('',(0.500000000000008,0.866025403784434,0.));
#1151=DIRECTION('',(0.866025403784434,0.500000000000008,-1.58138378814436E-16));
#1152=DIRECTION('',(-0.500000000000008,0.866025403784434,0.));
#1153=DIRECTION('',(-1.82602471155453E-16,-1.26705917393897E-31,-1.));
#1154=DIRECTION('',(0.866025403784434,-0.500000000000008,-1.58138378814436E-16));
#1155=DIRECTION('',(0.500000000000008,0.866025403784434,0.));
#1156=DIRECTION('',(0.866025403784434,0.500000000000008,-1.58138378814436E-16));
#1157=DIRECTION('',(-0.500000000000008,0.866025403784434,0.));
#1158=DIRECTION('',(-1.82602471155453E-16,-1.26705917393897E-31,-1.));
#1159=DIRECTION('',(0.866025403784434,-0.500000000000008,-1.58138378814436E-16));
#1160=DIRECTION('',(0.500000000000008,0.866025403784434,0.));
#1161=CARTESIAN_POINT('',(0.,0.,0.));
#1162=CARTESIAN_POINT('',(-0.04,0.345,0.02));
#1163=CARTESIAN_POINT('',(-0.0389485571585151,0.344392949192432,0.02));
#1164=CARTESIAN_POINT('',(-0.0375156068490573,0.346875035848912,0.0199985687328735));
#1165=CARTESIAN_POINT('',(-0.0380207259421637,0.346,0.02));
#1166=CARTESIAN_POINT('',(-0.036,0.346,0.02));
#1167=CARTESIAN_POINT('',(-0.0375152455962376,0.34512431420135,0.0199990651244832));
#1168=CARTESIAN_POINT('',(-0.0375155444566228,0.345125,0.02));
#1169=CARTESIAN_POINT('',(-3.85291214138007E-17,0.345,0.02));
#1170=CARTESIAN_POINT('',(-3.50596744618471E-17,0.34,0.02));
#1171=CARTESIAN_POINT('',(-4.19985683657543E-17,0.35,0.02));
#1172=CARTESIAN_POINT('',(-0.04,0.35,0.02));
#1173=CARTESIAN_POINT('',(-0.04,0.35,0.02));
#1174=CARTESIAN_POINT('',(-0.04,0.345,0.02));
#1175=CARTESIAN_POINT('',(-0.04,0.34,0.02));
#1176=CARTESIAN_POINT('',(-0.04,0.34,0.02));
#1177=CARTESIAN_POINT('',(-0.0149485571585154,0.33053654273188,0.02));
#1178=CARTESIAN_POINT('',(-0.00551560684905737,0.346875035848912,0.0199985687328735));
#1179=CARTESIAN_POINT('',(-0.00602072594216375,0.346,0.02));
#1180=CARTESIAN_POINT('',(-0.004,0.346,0.02));
#1181=CARTESIAN_POINT('',(-0.00551524559623739,0.34512431420135,0.0199990651244831));
#1182=CARTESIAN_POINT('',(-0.00551554445662281,0.345125,0.02));
#1183=CARTESIAN_POINT('',(-0.0322057713659401,0.297998,0.0135));
#1184=CARTESIAN_POINT('',(-0.0388287859527678,0.292899600993931,0.0173237992545518));
#1185=CARTESIAN_POINT('',(-0.0385980762113533,0.2925,0.0171905989232414));
#1186=CARTESIAN_POINT('',(-0.0394641016151378,0.294,0.0176905989232415));
#1187=CARTESIAN_POINT('',(-0.036,0.294,0.0156905989232414));
#1188=CARTESIAN_POINT('',(-0.0375356142570765,0.291422813772064,0.016577186227936));
#1189=CARTESIAN_POINT('',(-0.0309940286209649,0.2951996,0.0128004));
#1190=CARTESIAN_POINT('',(-0.04,0.29,0.018));
#1191=CARTESIAN_POINT('',(-0.04,0.297998,0.018));
#1192=CARTESIAN_POINT('',(-0.04,0.3,0.018));
#1193=CARTESIAN_POINT('',(-0.0387009618943234,0.3,0.01725));
#1194=CARTESIAN_POINT('',(-0.026143593539449,0.3,0.01));
#1195=CARTESIAN_POINT('',(-0.026143593539449,0.32,0.01));
#1196=CARTESIAN_POINT('',(-0.026143593539449,0.34,0.01));
#1197=CARTESIAN_POINT('',(-0.0387009618943234,0.34,0.01725));
#1198=CARTESIAN_POINT('',(-0.04,0.34,0.018));
#1199=CARTESIAN_POINT('',(-0.04,0.297998,0.018));
#1200=CARTESIAN_POINT('',(-0.04,0.35,0.018));
#1201=CARTESIAN_POINT('',(-0.0157505958737127,0.3359996,0.00399959999999993));
#1202=CARTESIAN_POINT('',(-0.0375356142570766,0.348577186227936,0.0165771862279361));
#1203=CARTESIAN_POINT('',(-0.036,0.346,0.0156905989232414));
#1204=CARTESIAN_POINT('',(-0.0385980762113533,0.3475,0.0171905989232414));
#1205=CARTESIAN_POINT('',(-0.0564173621995972,0.316636091313762,0.027478568485321));
#1206=CARTESIAN_POINT('',(-0.0394641016151378,0.346,0.0176905989232415));
#1207=CARTESIAN_POINT('',(-0.0180441762619412,0.308899600993931,0.00532379925455173));
#1208=CARTESIAN_POINT('',(-0.0385980762113533,0.3445,0.0171905989232414));
#1209=CARTESIAN_POINT('',(-0.036,0.346,0.0156905989232414));
#1210=CARTESIAN_POINT('',(-0.0330002841277857,0.345958712156927,0.0139587121569261));
#1211=CARTESIAN_POINT('',(-0.0157505958737127,0.3359996,0.00399959999999993));
#1212=CARTESIAN_POINT('',(-0.0261435935394491,0.342,0.01));
#1213=CARTESIAN_POINT('',(-0.0322057713659401,0.342,0.0135));
#1214=CARTESIAN_POINT('',(-0.0244115427318802,0.342,0.009));
#1215=CARTESIAN_POINT('',(-0.0244115427318802,0.297998,0.009));
#1216=CARTESIAN_POINT('',(-0.0244115427318802,0.298,0.009));
#1217=CARTESIAN_POINT('',(-0.0322057713659401,0.298,0.0135));
#1218=CARTESIAN_POINT('',(-0.026143593539449,0.298,0.01));
#1219=CARTESIAN_POINT('',(-0.0309940286209649,0.2951996,0.0128004));
#1220=CARTESIAN_POINT('',(-0.0330002841277857,0.294041287843074,0.0139587121569261));
#1221=CARTESIAN_POINT('',(-0.036,0.294,0.0156905989232414));
#1222=CARTESIAN_POINT('',(-0.0385980762113533,0.2955,0.0171905989232414));
#1223=CARTESIAN_POINT('',(-0.0356327525087707,0.300636091313762,0.0154785684853209));
#1224=CARTESIAN_POINT('',(-0.036,0.346,0.024002));
#1225=CARTESIAN_POINT('',(-0.0375155444566228,0.345125,0.019997));
#1226=CARTESIAN_POINT('',(-0.0375156122893407,0.34512496111988,0.0179995681627822));
#1227=CARTESIAN_POINT('',(-0.0375155444566228,0.346875,0.019997));
#1228=CARTESIAN_POINT('',(-0.037515150684939,0.346875903594153,0.0179999069933887));
#1229=CARTESIAN_POINT('',(-0.036,0.346,0.018));
#1230=CARTESIAN_POINT('',(-0.004,0.346,0.024002));
#1231=CARTESIAN_POINT('',(-0.00551554445662281,0.345125,0.019997));
#1232=CARTESIAN_POINT('',(-0.00551561228934077,0.34512496111988,0.0179995681627822));
#1233=CARTESIAN_POINT('',(-0.00551554445662281,0.346875,0.019997));
#1234=CARTESIAN_POINT('',(-0.00551515068493903,0.346875903594153,0.0179999069933887));
#1235=CARTESIAN_POINT('',(-0.004,0.346,0.018));
#1236=CARTESIAN_POINT('',(-0.004,0.294,0.024002));
#1237=CARTESIAN_POINT('',(-0.00551554445662277,0.293125,0.019997));
#1238=CARTESIAN_POINT('',(-0.00551524557826652,0.293124314173928,0.0199990650805837));
#1239=CARTESIAN_POINT('',(-0.00551561228934073,0.29312496111988,0.0179995681627822));
#1240=CARTESIAN_POINT('',(-0.004,0.294,0.02));
#1241=CARTESIAN_POINT('',(-0.00551560684902934,0.294875035848883,0.0199985687328736));
#1242=CARTESIAN_POINT('',(-0.00551554445662278,0.294875,0.019997));
#1243=CARTESIAN_POINT('',(-0.00551515068493903,0.294875903594153,0.0179999069933886));
#1244=CARTESIAN_POINT('',(-0.004,0.294,0.018));
#1245=CARTESIAN_POINT('',(-0.036,0.294,0.024002));
#1246=CARTESIAN_POINT('',(-0.0375155444566228,0.293125,0.019997));
#1247=CARTESIAN_POINT('',(-0.0375152455782665,0.293124314173928,0.0199990650805837));
#1248=CARTESIAN_POINT('',(-0.0375156122893407,0.29312496111988,0.0179995681627822));
#1249=CARTESIAN_POINT('',(-0.036,0.294,0.02));
#1250=CARTESIAN_POINT('',(-0.0375156068490293,0.294875035848883,0.0199985687328736));
#1251=CARTESIAN_POINT('',(-0.0375155444566228,0.294875,0.019997));
#1252=CARTESIAN_POINT('',(-0.037515150684939,0.294875903594153,0.0179999069933886));
#1253=CARTESIAN_POINT('',(-0.036,0.294,0.018));
#1254=CARTESIAN_POINT('',(-0.04,0.342,0.01));
#1255=CARTESIAN_POINT('',(-0.036,0.346,0.014));
#1256=CARTESIAN_POINT('',(-0.04,0.35,0.018));
#1257=CARTESIAN_POINT('',(-4.23637733080652E-17,0.35,0.018));
#1258=CARTESIAN_POINT('',(-3.46944695195361E-17,0.342,0.01));
#1259=CARTESIAN_POINT('',(-3.82734779541831E-17,0.342,0.01));
#1260=CARTESIAN_POINT('',(-3.8273477954183E-17,0.342,0.01));
#1261=CARTESIAN_POINT('',(-0.010132600461468,0.350621975581783,0.0186219755817827));
#1262=CARTESIAN_POINT('',(-0.00659807621135336,0.3445,0.0125));
#1263=CARTESIAN_POINT('',(-0.0074641016151378,0.346,0.014));
#1264=CARTESIAN_POINT('',(-0.00400000000000005,0.346,0.014));
#1265=CARTESIAN_POINT('',(-0.00659807621135336,0.3475,0.0155));
#1266=CARTESIAN_POINT('',(-0.0140915737359112,0.334520881561075,0.00252088156107429));
#1267=CARTESIAN_POINT('',(-0.04,0.29,0.018));
#1268=CARTESIAN_POINT('',(-0.036,0.294,0.014));
#1269=CARTESIAN_POINT('',(-0.04,0.298,0.01));
#1270=CARTESIAN_POINT('',(-7.74234477699123E-18,0.298,0.01));
#1271=CARTESIAN_POINT('',(0.,0.29,0.018));
#1272=CARTESIAN_POINT('',(-7.30409884621809E-19,0.29,0.018));
#1273=CARTESIAN_POINT('',(-0.04,0.29,0.018));
#1274=CARTESIAN_POINT('',(-0.0101326004614679,0.298621975581783,0.00937802441821713));
#1275=CARTESIAN_POINT('',(-0.00659807621135332,0.2925,0.0155));
#1276=CARTESIAN_POINT('',(-0.00746410161513776,0.294,0.014));
#1277=CARTESIAN_POINT('',(-0.004,0.294,0.014));
#1278=CARTESIAN_POINT('',(-0.00659807621135333,0.2955,0.0125));
#1279=CARTESIAN_POINT('',(-0.0140915737359111,0.282520881561075,0.0254791184389256));
#1280=CARTESIAN_POINT('',(-0.04,0.3,0.018));
#1281=CARTESIAN_POINT('',(-0.004,0.294,0.018));
#1282=CARTESIAN_POINT('',(-0.00659761170018291,0.295501159635924,0.0179993082881529));
#1283=CARTESIAN_POINT('',(-0.00659752014245573,0.292498698751707,0.0179993585055613));
#1284=CARTESIAN_POINT('',(-0.00659807621135332,0.2925,0.018));
#1285=CARTESIAN_POINT('',(-0.00746410161513778,0.294,0.018));
#1286=CARTESIAN_POINT('',(-0.013,0.284411542731881,0.018));
#1287=CARTESIAN_POINT('',(-0.0171136206679764,0.31321345726812,0.018));
#1288=CARTESIAN_POINT('',(-0.00602072594216372,0.294,0.018));
#1289=CARTESIAN_POINT('',(-0.00551554445662277,0.294875,0.018));
#1290=CARTESIAN_POINT('',(-0.004,0.294,0.018002));
#1291=CARTESIAN_POINT('',(-0.00659807621135332,0.2925,0.017997));
#1292=CARTESIAN_POINT('',(-0.00659807621135333,0.2955,0.017997));
#1293=CARTESIAN_POINT('',(-0.04,0.3,0.018));
#1294=CARTESIAN_POINT('',(-0.036,0.294,0.018));
#1295=CARTESIAN_POINT('',(-0.0385976117739679,0.295501159499861,0.017999308234441));
#1296=CARTESIAN_POINT('',(-0.0385975202897454,0.292498699020612,0.017999358409369));
#1297=CARTESIAN_POINT('',(-0.0385980762113533,0.2925,0.018));
#1298=CARTESIAN_POINT('',(-0.0394641016151378,0.294,0.018));
#1299=CARTESIAN_POINT('',(-0.037,0.298267949192431,0.018));
#1300=CARTESIAN_POINT('',(-0.0411136206679762,0.299357050807569,0.018));
#1301=CARTESIAN_POINT('',(-0.0380207259421637,0.294,0.018));
#1302=CARTESIAN_POINT('',(-0.0375155444566228,0.294875,0.018));
#1303=CARTESIAN_POINT('',(-0.036,0.294,0.018002));
#1304=CARTESIAN_POINT('',(-0.0385980762113533,0.2925,0.017997));
#1305=CARTESIAN_POINT('',(-0.0385980762113533,0.2955,0.017997));
#1306=CARTESIAN_POINT('',(-0.04,0.3,0.018));
#1307=CARTESIAN_POINT('',(-0.036,0.346,0.018));
#1308=CARTESIAN_POINT('',(-0.0385976117739679,0.347501159499861,0.017999308234441));
#1309=CARTESIAN_POINT('',(-0.0385975202897454,0.344498699020613,0.0179993584093691));
#1310=CARTESIAN_POINT('',(-0.0385980762113533,0.3445,0.018));
#1311=CARTESIAN_POINT('',(-0.0394641016151378,0.346,0.018));
#1312=CARTESIAN_POINT('',(-0.0595166604983955,0.311267949192432,0.018));
#1313=CARTESIAN_POINT('',(-0.0185969601695804,0.31235705080757,0.018));
#1314=CARTESIAN_POINT('',(-0.0380207259421637,0.346,0.018));
#1315=CARTESIAN_POINT('',(-0.0375155444566228,0.346875,0.018));
#1316=CARTESIAN_POINT('',(-0.036,0.346,0.018002));
#1317=CARTESIAN_POINT('',(-0.0385980762113533,0.3445,0.017997));
#1318=CARTESIAN_POINT('',(-0.0385980762113533,0.3475,0.017997));
#1319=CARTESIAN_POINT('',(-0.04,0.3,0.018));
#1320=CARTESIAN_POINT('',(-0.004,0.346,0.018));
#1321=CARTESIAN_POINT('',(-0.00659761170018198,0.347501159635926,0.0179993082881537));
#1322=CARTESIAN_POINT('',(-0.00659752014245578,0.344498698751707,0.0179993585055613));
#1323=CARTESIAN_POINT('',(-0.00659807621135336,0.3445,0.018));
#1324=CARTESIAN_POINT('',(-0.0074641016151378,0.346,0.018));
#1325=CARTESIAN_POINT('',(-0.0355166604983955,0.29741154273188,0.018));
#1326=CARTESIAN_POINT('',(0.00540303983041925,0.326213457268121,0.018));
#1327=CARTESIAN_POINT('',(-0.00602072594216375,0.346,0.018));
#1328=CARTESIAN_POINT('',(-0.00551554445662281,0.346875,0.018));
#1329=CARTESIAN_POINT('',(-0.004,0.346,0.018002));
#1330=CARTESIAN_POINT('',(-0.00659807621135336,0.3445,0.017997));
#1331=CARTESIAN_POINT('',(-0.00659807621135336,0.3475,0.017997));
#1332=CARTESIAN_POINT('',(-0.04,0.298,0.0135));
#1333=CARTESIAN_POINT('',(-7.10323612794714E-18,0.298,0.0135));
#1334=CARTESIAN_POINT('',(-7.92494724814668E-18,0.298,0.009));
#1335=CARTESIAN_POINT('',(-0.04,0.298,0.009));
#1336=CARTESIAN_POINT('',(-0.04,0.309,0.009));
#1337=CARTESIAN_POINT('',(-0.04,0.342,0.009));
#1338=CARTESIAN_POINT('',(-3.84560804253386E-17,0.342,0.009));
#1339=CARTESIAN_POINT('',(-1.55577305424446E-17,0.309,0.009));
#1340=CARTESIAN_POINT('',(-0.04,0.342,0.0135));
#1341=CARTESIAN_POINT('',(-3.7634369305139E-17,0.342,0.0135));
#1342=CARTESIAN_POINT('',(-0.04,0.32,0.0165));
#1343=CARTESIAN_POINT('',(-0.04,0.29,0.019));
#1344=CARTESIAN_POINT('',(-0.04,0.29,0.02));
#1345=CARTESIAN_POINT('',(-0.04,0.295,0.02));
#1346=CARTESIAN_POINT('',(-0.04,0.3,0.02));
#1347=CARTESIAN_POINT('',(-0.04,0.3,0.015));
#1348=CARTESIAN_POINT('',(-0.04,0.32,0.0165));
#1349=CARTESIAN_POINT('',(-0.04,0.34,0.015));
#1350=CARTESIAN_POINT('',(-0.04,0.35,0.019));
#1351=CARTESIAN_POINT('',(-0.04,0.32,0.01));
#1352=CARTESIAN_POINT('',(-0.04,0.34,0.01));
#1353=CARTESIAN_POINT('',(-3.68856991734017E-17,0.34,0.01));
#1354=CARTESIAN_POINT('',(-0.04,0.3,0.01));
#1355=CARTESIAN_POINT('',(-9.13012355777267E-18,0.3,0.01));
#1356=CARTESIAN_POINT('',(-2.30079113655871E-17,0.32,0.01));
#1357=CARTESIAN_POINT('',(-0.04,0.3,0.015));
#1358=CARTESIAN_POINT('',(-0.04,0.3,0.02));
#1359=CARTESIAN_POINT('',(-7.30409884621814E-18,0.3,0.02));
#1360=CARTESIAN_POINT('',(-8.21711120199541E-18,0.3,0.015));
#1361=CARTESIAN_POINT('',(-0.04,0.295,0.02));
#1362=CARTESIAN_POINT('',(-0.0375155444566228,0.294875,0.02));
#1363=CARTESIAN_POINT('',(-0.0380207259421637,0.294,0.02));
#1364=CARTESIAN_POINT('',(-0.0375155444566228,0.293125,0.02));
#1365=CARTESIAN_POINT('',(-0.00551554445662278,0.294875,0.02));
#1366=CARTESIAN_POINT('',(-0.00602072594216372,0.294,0.02));
#1367=CARTESIAN_POINT('',(-0.00551554445662277,0.293125,0.02));
#1368=CARTESIAN_POINT('',(-3.83465189426453E-18,0.295,0.02));
#1369=CARTESIAN_POINT('',(-3.65204942310904E-19,0.29,0.02));
#1370=CARTESIAN_POINT('',(-0.04,0.29,0.02));
#1371=CARTESIAN_POINT('',(-0.04,0.29,0.019));
#1372=CARTESIAN_POINT('',(-5.47807413466354E-19,0.29,0.019));
#1373=CARTESIAN_POINT('',(-0.04,0.35,0.019));
#1374=CARTESIAN_POINT('',(-4.21811708369098E-17,0.35,0.019));
#1375=CARTESIAN_POINT('',(-0.04,0.34,0.015));
#1376=CARTESIAN_POINT('',(-3.59726868176243E-17,0.34,0.015));
#1377=CARTESIAN_POINT('',(-2.18209953030767E-17,0.32,0.0165));
#1378=CARTESIAN_POINT('',(-0.00659807621135332,0.2925,0.017997));
#1379=CARTESIAN_POINT('',(-0.00746410161513776,0.294,0.017997));
#1380=CARTESIAN_POINT('',(-0.00659807621135333,0.2955,0.017997));
#1381=CARTESIAN_POINT('',(-0.00659807621135336,0.3445,0.017997));
#1382=CARTESIAN_POINT('',(-0.0074641016151378,0.346,0.017997));
#1383=CARTESIAN_POINT('',(-0.00659807621135336,0.3475,0.017997));
#1384=CARTESIAN_POINT('',(-0.0385980762113533,0.3445,0.017997));
#1385=CARTESIAN_POINT('',(-0.0394641016151378,0.346,0.017997));
#1386=CARTESIAN_POINT('',(-0.0385980762113533,0.3475,0.017997));
#1387=CARTESIAN_POINT('',(-0.0385980762113533,0.2925,0.017997));
#1388=CARTESIAN_POINT('',(-0.0394641016151378,0.294,0.017997));
#1389=CARTESIAN_POINT('',(-0.0385980762113533,0.2955,0.017997));
#1390=CARTESIAN_POINT('',(-0.00551554445662281,0.345125,0.019997));
#1391=CARTESIAN_POINT('',(-0.00602072594216375,0.346,0.019997));
#1392=CARTESIAN_POINT('',(-0.00551554445662281,0.346875,0.019997));
#1393=CARTESIAN_POINT('',(-0.0375155444566228,0.345125,0.019997));
#1394=CARTESIAN_POINT('',(-0.0380207259421637,0.346,0.019997));
#1395=CARTESIAN_POINT('',(-0.0375155444566228,0.346875,0.019997));
#1396=CARTESIAN_POINT('',(-0.0375155444566228,0.293125,0.019997));
#1397=CARTESIAN_POINT('',(-0.0380207259421637,0.294,0.019997));
#1398=CARTESIAN_POINT('',(-0.0375155444566228,0.294875,0.019997));
#1399=CARTESIAN_POINT('',(-0.00551554445662277,0.293125,0.019997));
#1400=CARTESIAN_POINT('',(-0.00602072594216371,0.294,0.019997));
#1401=CARTESIAN_POINT('',(-0.00551554445662278,0.294875,0.019997));
#1402=MECHANICAL_DESIGN_GEOMETRIC_PRESENTATION_REPRESENTATION('',(#857),
#1403);
#1403=(
GEOMETRIC_REPRESENTATION_CONTEXT(3)
GLOBAL_UNCERTAINTY_ASSIGNED_CONTEXT((#1404))
GLOBAL_UNIT_ASSIGNED_CONTEXT((#1407,#1406,#1405))
REPRESENTATION_CONTEXT('Fan Retainer','TOP_LEVEL_ASSEMBLY_PART')
);
#1404=UNCERTAINTY_MEASURE_WITH_UNIT(LENGTH_MEASURE(2.65009120049358E-5),
#1407,'DISTANCE_ACCURACY_VALUE','Maximum Tolerance applied to model');
#1405=(
NAMED_UNIT(*)
SI_UNIT($,.STERADIAN.)
SOLID_ANGLE_UNIT()
);
#1406=(
NAMED_UNIT(*)
PLANE_ANGLE_UNIT()
SI_UNIT($,.RADIAN.)
);
#1407=(
LENGTH_UNIT()
NAMED_UNIT(*)
SI_UNIT($,.METRE.)
);
#1408=PRODUCT_DEFINITION_SHAPE('','',#1409);
#1409=PRODUCT_DEFINITION('','',#1411,#1410);
#1410=PRODUCT_DEFINITION_CONTEXT('',#1417,'design');
#1411=PRODUCT_DEFINITION_FORMATION_WITH_SPECIFIED_SOURCE('','',#1413,
 .NOT_KNOWN.);
#1412=PRODUCT_RELATED_PRODUCT_CATEGORY('','',(#1413));
#1413=PRODUCT('Fan Retainer','Fan Retainer','Fan Retainer',(#1415));
#1414=PRODUCT_CATEGORY('','');
#1415=PRODUCT_CONTEXT('',#1417,'mechanical');
#1416=APPLICATION_PROTOCOL_DEFINITION('international standard',
'ap242_managed_model_based_3d_engineering',2020,#1417);
#1417=APPLICATION_CONTEXT('managed model based 3d engineering');
ENDSEC;
END-ISO-10303-21;
