ISO-10303-21;
HEADER;
/* Generated by software containing ST-Developer
 * from STEP Tools, Inc. (www.steptools.com) 
 */
/* OPTION: using custom renumber hook */

FILE_DESCRIPTION(
/* description */ ('STEP AP242 Edition 2',
'CAx-IF Rec.Pracs.---Representation and Presentation of Product Manufa
cturing Information (PMI)---4.0---2014-10-13',
'CAx-IF Rec.Pracs.---3D Tessellated Geometry---0.4---2014-09-14','2;1',
'CAx-IF Rec.Pracs.---User Defined Attributes---1.5---2016-08-15'),
/* implementation_level */ '2;1');

FILE_NAME(
/* name */ 'Base and Z Axis - Front Right Top Plate',
/* time_stamp */ '2026-01-10T06:34:52Z',
/* author */ (''),
/* organization */ (''),
/* preprocessor_version */ 'ST-DEVELOPER v20',
/* originating_system */ 'ONSHAPE BY PTC INC, 1.209',
/* authorisation */ '  ');

FILE_SCHEMA (('AP242_MANAGED_MODEL_BASED_3D_ENGINEERING_MIM_LF { 1 0 10303 442 3 1 4 }'));
ENDSEC;

DATA;
#10=SHAPE_REPRESENTATION_RELATIONSHIP('','',#614,#11);
#11=ADVANCED_BREP_SHAPE_REPRESENTATION('',(#612),#968);
#12=CYLINDRICAL_SURFACE('',#621,0.002);
#13=CYLINDRICAL_SURFACE('',#626,0.003);
#14=CYLINDRICAL_SURFACE('',#629,0.003);
#15=CIRCLE('',#619,0.003);
#16=CIRCLE('',#620,0.003);
#17=CIRCLE('',#622,0.002);
#18=CIRCLE('',#623,0.002);
#19=CIRCLE('',#627,0.003);
#20=CIRCLE('',#630,0.003);
#21=ORIENTED_EDGE('',*,*,#183,.F.);
#22=ORIENTED_EDGE('',*,*,#184,.F.);
#23=ORIENTED_EDGE('',*,*,#185,.T.);
#24=ORIENTED_EDGE('',*,*,#186,.T.);
#25=ORIENTED_EDGE('',*,*,#187,.T.);
#26=ORIENTED_EDGE('',*,*,#188,.F.);
#27=ORIENTED_EDGE('',*,*,#189,.F.);
#28=ORIENTED_EDGE('',*,*,#190,.T.);
#29=ORIENTED_EDGE('',*,*,#191,.T.);
#30=ORIENTED_EDGE('',*,*,#192,.F.);
#31=ORIENTED_EDGE('',*,*,#193,.T.);
#32=ORIENTED_EDGE('',*,*,#194,.T.);
#33=ORIENTED_EDGE('',*,*,#195,.F.);
#34=ORIENTED_EDGE('',*,*,#196,.F.);
#35=ORIENTED_EDGE('',*,*,#197,.T.);
#36=ORIENTED_EDGE('',*,*,#198,.T.);
#37=ORIENTED_EDGE('',*,*,#199,.F.);
#38=ORIENTED_EDGE('',*,*,#200,.F.);
#39=ORIENTED_EDGE('',*,*,#201,.F.);
#40=ORIENTED_EDGE('',*,*,#202,.T.);
#41=ORIENTED_EDGE('',*,*,#203,.T.);
#42=ORIENTED_EDGE('',*,*,#204,.T.);
#43=ORIENTED_EDGE('',*,*,#205,.F.);
#44=ORIENTED_EDGE('',*,*,#187,.F.);
#45=ORIENTED_EDGE('',*,*,#206,.F.);
#46=ORIENTED_EDGE('',*,*,#194,.F.);
#47=ORIENTED_EDGE('',*,*,#207,.F.);
#48=ORIENTED_EDGE('',*,*,#208,.T.);
#49=ORIENTED_EDGE('',*,*,#209,.T.);
#50=ORIENTED_EDGE('',*,*,#210,.F.);
#51=ORIENTED_EDGE('',*,*,#211,.F.);
#52=ORIENTED_EDGE('',*,*,#212,.F.);
#53=ORIENTED_EDGE('',*,*,#213,.T.);
#54=ORIENTED_EDGE('',*,*,#214,.T.);
#55=ORIENTED_EDGE('',*,*,#215,.F.);
#56=ORIENTED_EDGE('',*,*,#216,.T.);
#57=ORIENTED_EDGE('',*,*,#217,.F.);
#58=ORIENTED_EDGE('',*,*,#218,.F.);
#59=ORIENTED_EDGE('',*,*,#219,.T.);
#60=ORIENTED_EDGE('',*,*,#220,.T.);
#61=ORIENTED_EDGE('',*,*,#221,.T.);
#62=ORIENTED_EDGE('',*,*,#222,.T.);
#63=ORIENTED_EDGE('',*,*,#204,.F.);
#64=ORIENTED_EDGE('',*,*,#223,.F.);
#65=ORIENTED_EDGE('',*,*,#224,.F.);
#66=ORIENTED_EDGE('',*,*,#225,.T.);
#67=ORIENTED_EDGE('',*,*,#226,.F.);
#68=ORIENTED_EDGE('',*,*,#223,.T.);
#69=ORIENTED_EDGE('',*,*,#207,.T.);
#70=ORIENTED_EDGE('',*,*,#193,.F.);
#71=ORIENTED_EDGE('',*,*,#227,.F.);
#72=ORIENTED_EDGE('',*,*,#184,.T.);
#73=ORIENTED_EDGE('',*,*,#228,.F.);
#74=ORIENTED_EDGE('',*,*,#229,.T.);
#75=ORIENTED_EDGE('',*,*,#230,.F.);
#76=ORIENTED_EDGE('',*,*,#213,.F.);
#77=ORIENTED_EDGE('',*,*,#205,.T.);
#78=ORIENTED_EDGE('',*,*,#222,.F.);
#79=ORIENTED_EDGE('',*,*,#231,.F.);
#80=ORIENTED_EDGE('',*,*,#188,.T.);
#81=ORIENTED_EDGE('',*,*,#232,.F.);
#82=ORIENTED_EDGE('',*,*,#233,.T.);
#83=ORIENTED_EDGE('',*,*,#234,.F.);
#84=ORIENTED_EDGE('',*,*,#202,.F.);
#85=ORIENTED_EDGE('',*,*,#235,.F.);
#86=ORIENTED_EDGE('',*,*,#229,.F.);
#87=ORIENTED_EDGE('',*,*,#236,.T.);
#88=ORIENTED_EDGE('',*,*,#237,.F.);
#89=ORIENTED_EDGE('',*,*,#233,.F.);
#90=ORIENTED_EDGE('',*,*,#238,.T.);
#91=ORIENTED_EDGE('',*,*,#239,.F.);
#92=ORIENTED_EDGE('',*,*,#224,.T.);
#93=ORIENTED_EDGE('',*,*,#183,.T.);
#94=ORIENTED_EDGE('',*,*,#231,.T.);
#95=ORIENTED_EDGE('',*,*,#221,.F.);
#96=ORIENTED_EDGE('',*,*,#240,.T.);
#97=ORIENTED_EDGE('',*,*,#185,.F.);
#98=ORIENTED_EDGE('',*,*,#227,.T.);
#99=ORIENTED_EDGE('',*,*,#196,.T.);
#100=ORIENTED_EDGE('',*,*,#241,.F.);
#101=ORIENTED_EDGE('',*,*,#206,.T.);
#102=ORIENTED_EDGE('',*,*,#186,.F.);
#103=ORIENTED_EDGE('',*,*,#241,.T.);
#104=ORIENTED_EDGE('',*,*,#195,.T.);
#105=ORIENTED_EDGE('',*,*,#239,.T.);
#106=ORIENTED_EDGE('',*,*,#242,.F.);
#107=ORIENTED_EDGE('',*,*,#243,.F.);
#108=ORIENTED_EDGE('',*,*,#225,.F.);
#109=ORIENTED_EDGE('',*,*,#244,.T.);
#110=ORIENTED_EDGE('',*,*,#242,.T.);
#111=ORIENTED_EDGE('',*,*,#240,.F.);
#112=ORIENTED_EDGE('',*,*,#220,.F.);
#113=ORIENTED_EDGE('',*,*,#245,.F.);
#114=ORIENTED_EDGE('',*,*,#218,.T.);
#115=ORIENTED_EDGE('',*,*,#246,.T.);
#116=ORIENTED_EDGE('',*,*,#226,.T.);
#117=ORIENTED_EDGE('',*,*,#243,.T.);
#118=ORIENTED_EDGE('',*,*,#244,.F.);
#119=ORIENTED_EDGE('',*,*,#219,.F.);
#120=ORIENTED_EDGE('',*,*,#208,.F.);
#121=ORIENTED_EDGE('',*,*,#247,.F.);
#122=ORIENTED_EDGE('',*,*,#248,.T.);
#123=ORIENTED_EDGE('',*,*,#249,.T.);
#124=ORIENTED_EDGE('',*,*,#211,.T.);
#125=ORIENTED_EDGE('',*,*,#250,.F.);
#126=ORIENTED_EDGE('',*,*,#251,.F.);
#127=ORIENTED_EDGE('',*,*,#247,.T.);
#128=ORIENTED_EDGE('',*,*,#210,.T.);
#129=ORIENTED_EDGE('',*,*,#252,.F.);
#130=ORIENTED_EDGE('',*,*,#253,.F.);
#131=ORIENTED_EDGE('',*,*,#250,.T.);
#132=ORIENTED_EDGE('',*,*,#209,.F.);
#133=ORIENTED_EDGE('',*,*,#249,.F.);
#134=ORIENTED_EDGE('',*,*,#254,.T.);
#135=ORIENTED_EDGE('',*,*,#252,.T.);
#136=ORIENTED_EDGE('',*,*,#255,.F.);
#137=ORIENTED_EDGE('',*,*,#216,.F.);
#138=ORIENTED_EDGE('',*,*,#256,.T.);
#139=ORIENTED_EDGE('',*,*,#248,.F.);
#140=ORIENTED_EDGE('',*,*,#251,.T.);
#141=ORIENTED_EDGE('',*,*,#253,.T.);
#142=ORIENTED_EDGE('',*,*,#254,.F.);
#143=ORIENTED_EDGE('',*,*,#255,.T.);
#144=ORIENTED_EDGE('',*,*,#257,.T.);
#145=ORIENTED_EDGE('',*,*,#246,.F.);
#146=ORIENTED_EDGE('',*,*,#217,.T.);
#147=ORIENTED_EDGE('',*,*,#257,.F.);
#148=ORIENTED_EDGE('',*,*,#256,.F.);
#149=ORIENTED_EDGE('',*,*,#215,.T.);
#150=ORIENTED_EDGE('',*,*,#245,.T.);
#151=ORIENTED_EDGE('',*,*,#258,.F.);
#152=ORIENTED_EDGE('',*,*,#238,.F.);
#153=ORIENTED_EDGE('',*,*,#232,.T.);
#154=ORIENTED_EDGE('',*,*,#201,.T.);
#155=ORIENTED_EDGE('',*,*,#237,.T.);
#156=ORIENTED_EDGE('',*,*,#258,.T.);
#157=ORIENTED_EDGE('',*,*,#203,.F.);
#158=ORIENTED_EDGE('',*,*,#234,.T.);
#159=ORIENTED_EDGE('',*,*,#259,.F.);
#160=ORIENTED_EDGE('',*,*,#236,.F.);
#161=ORIENTED_EDGE('',*,*,#228,.T.);
#162=ORIENTED_EDGE('',*,*,#212,.T.);
#163=ORIENTED_EDGE('',*,*,#235,.T.);
#164=ORIENTED_EDGE('',*,*,#259,.T.);
#165=ORIENTED_EDGE('',*,*,#214,.F.);
#166=ORIENTED_EDGE('',*,*,#230,.T.);
#167=ORIENTED_EDGE('',*,*,#189,.T.);
#168=ORIENTED_EDGE('',*,*,#260,.T.);
#169=ORIENTED_EDGE('',*,*,#197,.F.);
#170=ORIENTED_EDGE('',*,*,#261,.F.);
#171=ORIENTED_EDGE('',*,*,#192,.T.);
#172=ORIENTED_EDGE('',*,*,#262,.T.);
#173=ORIENTED_EDGE('',*,*,#198,.F.);
#174=ORIENTED_EDGE('',*,*,#260,.F.);
#175=ORIENTED_EDGE('',*,*,#261,.T.);
#176=ORIENTED_EDGE('',*,*,#200,.T.);
#177=ORIENTED_EDGE('',*,*,#263,.F.);
#178=ORIENTED_EDGE('',*,*,#190,.F.);
#179=ORIENTED_EDGE('',*,*,#263,.T.);
#180=ORIENTED_EDGE('',*,*,#199,.T.);
#181=ORIENTED_EDGE('',*,*,#262,.F.);
#182=ORIENTED_EDGE('',*,*,#191,.F.);
#183=EDGE_CURVE('',#264,#265,#318,.T.);
#184=EDGE_CURVE('',#266,#264,#319,.T.);
#185=EDGE_CURVE('',#266,#267,#320,.T.);
#186=EDGE_CURVE('',#267,#268,#321,.T.);
#187=EDGE_CURVE('',#268,#269,#322,.T.);
#188=EDGE_CURVE('',#265,#269,#323,.T.);
#189=EDGE_CURVE('',#270,#271,#324,.T.);
#190=EDGE_CURVE('',#270,#272,#325,.T.);
#191=EDGE_CURVE('',#272,#273,#326,.T.);
#192=EDGE_CURVE('',#271,#273,#327,.T.);
#193=EDGE_CURVE('',#274,#275,#328,.T.);
#194=EDGE_CURVE('',#275,#276,#329,.T.);
#195=EDGE_CURVE('',#277,#276,#330,.T.);
#196=EDGE_CURVE('',#274,#277,#331,.T.);
#197=EDGE_CURVE('',#278,#279,#332,.T.);
#198=EDGE_CURVE('',#279,#280,#333,.T.);
#199=EDGE_CURVE('',#281,#280,#334,.T.);
#200=EDGE_CURVE('',#278,#281,#335,.T.);
#201=EDGE_CURVE('',#282,#283,#336,.T.);
#202=EDGE_CURVE('',#282,#284,#15,.T.);
#203=EDGE_CURVE('',#284,#283,#337,.T.);
#204=EDGE_CURVE('',#285,#286,#338,.T.);
#205=EDGE_CURVE('',#269,#286,#339,.T.);
#206=EDGE_CURVE('',#276,#268,#340,.T.);
#207=EDGE_CURVE('',#285,#275,#341,.T.);
#208=EDGE_CURVE('',#287,#288,#342,.T.);
#209=EDGE_CURVE('',#288,#289,#343,.T.);
#210=EDGE_CURVE('',#290,#289,#344,.T.);
#211=EDGE_CURVE('',#287,#290,#345,.T.);
#212=EDGE_CURVE('',#291,#292,#346,.T.);
#213=EDGE_CURVE('',#291,#293,#16,.T.);
#214=EDGE_CURVE('',#293,#292,#347,.T.);
#215=EDGE_CURVE('',#294,#295,#348,.T.);
#216=EDGE_CURVE('',#294,#296,#17,.T.);
#217=EDGE_CURVE('',#297,#296,#349,.T.);
#218=EDGE_CURVE('',#295,#297,#18,.F.);
#219=EDGE_CURVE('',#298,#299,#350,.T.);
#220=EDGE_CURVE('',#299,#300,#351,.T.);
#221=EDGE_CURVE('',#300,#301,#352,.T.);
#222=EDGE_CURVE('',#301,#286,#353,.T.);
#223=EDGE_CURVE('',#298,#285,#354,.T.);
#224=EDGE_CURVE('',#302,#264,#355,.T.);
#225=EDGE_CURVE('',#302,#303,#356,.T.);
#226=EDGE_CURVE('',#298,#303,#357,.T.);
#227=EDGE_CURVE('',#266,#274,#358,.T.);
#228=EDGE_CURVE('',#304,#291,#359,.T.);
#229=EDGE_CURVE('',#304,#305,#19,.T.);
#230=EDGE_CURVE('',#293,#305,#360,.T.);
#231=EDGE_CURVE('',#265,#301,#361,.T.);
#232=EDGE_CURVE('',#306,#282,#362,.T.);
#233=EDGE_CURVE('',#306,#307,#20,.T.);
#234=EDGE_CURVE('',#284,#307,#363,.T.);
#235=EDGE_CURVE('',#305,#308,#364,.T.);
#236=EDGE_CURVE('',#304,#308,#365,.T.);
#237=EDGE_CURVE('',#307,#309,#366,.T.);
#238=EDGE_CURVE('',#306,#309,#367,.T.);
#239=EDGE_CURVE('',#302,#310,#368,.T.);
#240=EDGE_CURVE('',#300,#310,#369,.T.);
#241=EDGE_CURVE('',#267,#277,#370,.T.);
#242=EDGE_CURVE('',#311,#310,#371,.T.);
#243=EDGE_CURVE('',#303,#311,#372,.T.);
#244=EDGE_CURVE('',#299,#311,#373,.T.);
#245=EDGE_CURVE('',#295,#312,#374,.T.);
#246=EDGE_CURVE('',#297,#312,#375,.T.);
#247=EDGE_CURVE('',#313,#287,#376,.T.);
#248=EDGE_CURVE('',#313,#314,#377,.T.);
#249=EDGE_CURVE('',#314,#288,#378,.T.);
#250=EDGE_CURVE('',#315,#290,#379,.T.);
#251=EDGE_CURVE('',#313,#315,#380,.T.);
#252=EDGE_CURVE('',#316,#289,#381,.T.);
#253=EDGE_CURVE('',#315,#316,#382,.T.);
#254=EDGE_CURVE('',#314,#316,#383,.T.);
#255=EDGE_CURVE('',#296,#317,#384,.T.);
#256=EDGE_CURVE('',#294,#317,#385,.T.);
#257=EDGE_CURVE('',#317,#312,#386,.T.);
#258=EDGE_CURVE('',#309,#283,#387,.T.);
#259=EDGE_CURVE('',#308,#292,#388,.T.);
#260=EDGE_CURVE('',#271,#279,#389,.T.);
#261=EDGE_CURVE('',#270,#278,#390,.T.);
#262=EDGE_CURVE('',#273,#280,#391,.T.);
#263=EDGE_CURVE('',#272,#281,#392,.T.);
#264=VERTEX_POINT('',#804);
#265=VERTEX_POINT('',#805);
#266=VERTEX_POINT('',#807);
#267=VERTEX_POINT('',#809);
#268=VERTEX_POINT('',#811);
#269=VERTEX_POINT('',#813);
#270=VERTEX_POINT('',#816);
#271=VERTEX_POINT('',#817);
#272=VERTEX_POINT('',#819);
#273=VERTEX_POINT('',#821);
#274=VERTEX_POINT('',#825);
#275=VERTEX_POINT('',#826);
#276=VERTEX_POINT('',#828);
#277=VERTEX_POINT('',#830);
#278=VERTEX_POINT('',#833);
#279=VERTEX_POINT('',#834);
#280=VERTEX_POINT('',#836);
#281=VERTEX_POINT('',#838);
#282=VERTEX_POINT('',#842);
#283=VERTEX_POINT('',#843);
#284=VERTEX_POINT('',#845);
#285=VERTEX_POINT('',#848);
#286=VERTEX_POINT('',#849);
#287=VERTEX_POINT('',#854);
#288=VERTEX_POINT('',#855);
#289=VERTEX_POINT('',#857);
#290=VERTEX_POINT('',#859);
#291=VERTEX_POINT('',#862);
#292=VERTEX_POINT('',#863);
#293=VERTEX_POINT('',#865);
#294=VERTEX_POINT('',#869);
#295=VERTEX_POINT('',#870);
#296=VERTEX_POINT('',#872);
#297=VERTEX_POINT('',#874);
#298=VERTEX_POINT('',#878);
#299=VERTEX_POINT('',#879);
#300=VERTEX_POINT('',#881);
#301=VERTEX_POINT('',#883);
#302=VERTEX_POINT('',#888);
#303=VERTEX_POINT('',#890);
#304=VERTEX_POINT('',#895);
#305=VERTEX_POINT('',#897);
#306=VERTEX_POINT('',#903);
#307=VERTEX_POINT('',#905);
#308=VERTEX_POINT('',#909);
#309=VERTEX_POINT('',#912);
#310=VERTEX_POINT('',#915);
#311=VERTEX_POINT('',#922);
#312=VERTEX_POINT('',#928);
#313=VERTEX_POINT('',#932);
#314=VERTEX_POINT('',#934);
#315=VERTEX_POINT('',#938);
#316=VERTEX_POINT('',#942);
#317=VERTEX_POINT('',#948);
#318=LINE('',#803,#393);
#319=LINE('',#806,#394);
#320=LINE('',#808,#395);
#321=LINE('',#810,#396);
#322=LINE('',#812,#397);
#323=LINE('',#814,#398);
#324=LINE('',#815,#399);
#325=LINE('',#818,#400);
#326=LINE('',#820,#401);
#327=LINE('',#822,#402);
#328=LINE('',#824,#403);
#329=LINE('',#827,#404);
#330=LINE('',#829,#405);
#331=LINE('',#831,#406);
#332=LINE('',#832,#407);
#333=LINE('',#835,#408);
#334=LINE('',#837,#409);
#335=LINE('',#839,#410);
#336=LINE('',#841,#411);
#337=LINE('',#846,#412);
#338=LINE('',#847,#413);
#339=LINE('',#850,#414);
#340=LINE('',#851,#415);
#341=LINE('',#852,#416);
#342=LINE('',#853,#417);
#343=LINE('',#856,#418);
#344=LINE('',#858,#419);
#345=LINE('',#860,#420);
#346=LINE('',#861,#421);
#347=LINE('',#866,#422);
#348=LINE('',#868,#423);
#349=LINE('',#873,#424);
#350=LINE('',#877,#425);
#351=LINE('',#880,#426);
#352=LINE('',#882,#427);
#353=LINE('',#884,#428);
#354=LINE('',#885,#429);
#355=LINE('',#887,#430);
#356=LINE('',#889,#431);
#357=LINE('',#891,#432);
#358=LINE('',#892,#433);
#359=LINE('',#894,#434);
#360=LINE('',#898,#435);
#361=LINE('',#900,#436);
#362=LINE('',#902,#437);
#363=LINE('',#906,#438);
#364=LINE('',#908,#439);
#365=LINE('',#910,#440);
#366=LINE('',#911,#441);
#367=LINE('',#913,#442);
#368=LINE('',#914,#443);
#369=LINE('',#916,#444);
#370=LINE('',#918,#445);
#371=LINE('',#921,#446);
#372=LINE('',#923,#447);
#373=LINE('',#925,#448);
#374=LINE('',#927,#449);
#375=LINE('',#929,#450);
#376=LINE('',#931,#451);
#377=LINE('',#933,#452);
#378=LINE('',#935,#453);
#379=LINE('',#937,#454);
#380=LINE('',#939,#455);
#381=LINE('',#941,#456);
#382=LINE('',#943,#457);
#383=LINE('',#945,#458);
#384=LINE('',#947,#459);
#385=LINE('',#949,#460);
#386=LINE('',#951,#461);
#387=LINE('',#954,#462);
#388=LINE('',#957,#463);
#389=LINE('',#960,#464);
#390=LINE('',#961,#465);
#391=LINE('',#963,#466);
#392=LINE('',#965,#467);
#393=VECTOR('',#656,1.);
#394=VECTOR('',#657,1.);
#395=VECTOR('',#658,1.);
#396=VECTOR('',#659,1.);
#397=VECTOR('',#660,1.);
#398=VECTOR('',#661,1.);
#399=VECTOR('',#662,1.);
#400=VECTOR('',#663,1.);
#401=VECTOR('',#664,1.);
#402=VECTOR('',#665,1.);
#403=VECTOR('',#668,1.);
#404=VECTOR('',#669,1.);
#405=VECTOR('',#670,1.);
#406=VECTOR('',#671,1.);
#407=VECTOR('',#672,1.);
#408=VECTOR('',#673,1.);
#409=VECTOR('',#674,1.);
#410=VECTOR('',#675,1.);
#411=VECTOR('',#678,1.);
#412=VECTOR('',#681,1.);
#413=VECTOR('',#682,1.);
#414=VECTOR('',#683,1.);
#415=VECTOR('',#684,1.);
#416=VECTOR('',#685,1.);
#417=VECTOR('',#686,1.);
#418=VECTOR('',#687,1.);
#419=VECTOR('',#688,1.);
#420=VECTOR('',#689,1.);
#421=VECTOR('',#690,1.);
#422=VECTOR('',#693,1.);
#423=VECTOR('',#696,1.);
#424=VECTOR('',#699,1.);
#425=VECTOR('',#704,1.);
#426=VECTOR('',#705,1.);
#427=VECTOR('',#706,1.);
#428=VECTOR('',#707,1.);
#429=VECTOR('',#708,1.);
#430=VECTOR('',#711,1.);
#431=VECTOR('',#712,1.);
#432=VECTOR('',#713,1.);
#433=VECTOR('',#714,1.);
#434=VECTOR('',#717,1.);
#435=VECTOR('',#720,1.);
#436=VECTOR('',#723,1.);
#437=VECTOR('',#726,1.);
#438=VECTOR('',#729,1.);
#439=VECTOR('',#732,1.);
#440=VECTOR('',#733,1.);
#441=VECTOR('',#734,1.);
#442=VECTOR('',#735,1.);
#443=VECTOR('',#736,1.);
#444=VECTOR('',#737,1.);
#445=VECTOR('',#740,1.);
#446=VECTOR('',#745,1.);
#447=VECTOR('',#746,1.);
#448=VECTOR('',#749,1.);
#449=VECTOR('',#752,1.);
#450=VECTOR('',#753,1.);
#451=VECTOR('',#756,1.);
#452=VECTOR('',#757,1.);
#453=VECTOR('',#758,1.);
#454=VECTOR('',#761,1.);
#455=VECTOR('',#762,1.);
#456=VECTOR('',#765,1.);
#457=VECTOR('',#766,1.);
#458=VECTOR('',#769,1.);
#459=VECTOR('',#772,1.);
#460=VECTOR('',#773,1.);
#461=VECTOR('',#776,1.);
#462=VECTOR('',#781,1.);
#463=VECTOR('',#786,1.);
#464=VECTOR('',#791,1.);
#465=VECTOR('',#792,1.);
#466=VECTOR('',#795,1.);
#467=VECTOR('',#798,1.);
#468=EDGE_LOOP('',(#21,#22,#23,#24,#25,#26));
#469=EDGE_LOOP('',(#27,#28,#29,#30));
#470=EDGE_LOOP('',(#31,#32,#33,#34));
#471=EDGE_LOOP('',(#35,#36,#37,#38));
#472=EDGE_LOOP('',(#39,#40,#41));
#473=EDGE_LOOP('',(#42,#43,#44,#45,#46,#47));
#474=EDGE_LOOP('',(#48,#49,#50,#51));
#475=EDGE_LOOP('',(#52,#53,#54));
#476=EDGE_LOOP('',(#55,#56,#57,#58));
#477=EDGE_LOOP('',(#59,#60,#61,#62,#63,#64));
#478=EDGE_LOOP('',(#65,#66,#67,#68,#69,#70,#71,#72));
#479=EDGE_LOOP('',(#73,#74,#75,#76));
#480=EDGE_LOOP('',(#77,#78,#79,#80));
#481=EDGE_LOOP('',(#81,#82,#83,#84));
#482=EDGE_LOOP('',(#85,#86,#87));
#483=EDGE_LOOP('',(#88,#89,#90));
#484=EDGE_LOOP('',(#91,#92,#93,#94,#95,#96));
#485=EDGE_LOOP('',(#97,#98,#99,#100));
#486=EDGE_LOOP('',(#101,#102,#103,#104));
#487=EDGE_LOOP('',(#105,#106,#107,#108));
#488=EDGE_LOOP('',(#109,#110,#111,#112));
#489=EDGE_LOOP('',(#113,#114,#115));
#490=EDGE_LOOP('',(#116,#117,#118,#119));
#491=EDGE_LOOP('',(#120,#121,#122,#123));
#492=EDGE_LOOP('',(#124,#125,#126,#127));
#493=EDGE_LOOP('',(#128,#129,#130,#131));
#494=EDGE_LOOP('',(#132,#133,#134,#135));
#495=EDGE_LOOP('',(#136,#137,#138));
#496=EDGE_LOOP('',(#139,#140,#141,#142));
#497=EDGE_LOOP('',(#143,#144,#145,#146));
#498=EDGE_LOOP('',(#147,#148,#149,#150));
#499=EDGE_LOOP('',(#151,#152,#153,#154));
#500=EDGE_LOOP('',(#155,#156,#157,#158));
#501=EDGE_LOOP('',(#159,#160,#161,#162));
#502=EDGE_LOOP('',(#163,#164,#165,#166));
#503=EDGE_LOOP('',(#167,#168,#169,#170));
#504=EDGE_LOOP('',(#171,#172,#173,#174));
#505=EDGE_LOOP('',(#175,#176,#177,#178));
#506=EDGE_LOOP('',(#179,#180,#181,#182));
#507=FACE_BOUND('',#468,.T.);
#508=FACE_BOUND('',#469,.T.);
#509=FACE_BOUND('',#470,.T.);
#510=FACE_BOUND('',#471,.T.);
#511=FACE_BOUND('',#472,.T.);
#512=FACE_BOUND('',#473,.T.);
#513=FACE_BOUND('',#474,.T.);
#514=FACE_BOUND('',#475,.T.);
#515=FACE_BOUND('',#476,.T.);
#516=FACE_BOUND('',#477,.T.);
#517=FACE_BOUND('',#478,.T.);
#518=FACE_BOUND('',#479,.T.);
#519=FACE_BOUND('',#480,.T.);
#520=FACE_BOUND('',#481,.T.);
#521=FACE_BOUND('',#482,.T.);
#522=FACE_BOUND('',#483,.T.);
#523=FACE_BOUND('',#484,.T.);
#524=FACE_BOUND('',#485,.T.);
#525=FACE_BOUND('',#486,.T.);
#526=FACE_BOUND('',#487,.T.);
#527=FACE_BOUND('',#488,.T.);
#528=FACE_BOUND('',#489,.T.);
#529=FACE_BOUND('',#490,.T.);
#530=FACE_BOUND('',#491,.T.);
#531=FACE_BOUND('',#492,.T.);
#532=FACE_BOUND('',#493,.T.);
#533=FACE_BOUND('',#494,.T.);
#534=FACE_BOUND('',#495,.T.);
#535=FACE_BOUND('',#496,.T.);
#536=FACE_BOUND('',#497,.T.);
#537=FACE_BOUND('',#498,.T.);
#538=FACE_BOUND('',#499,.T.);
#539=FACE_BOUND('',#500,.T.);
#540=FACE_BOUND('',#501,.T.);
#541=FACE_BOUND('',#502,.T.);
#542=FACE_BOUND('',#503,.T.);
#543=FACE_BOUND('',#504,.T.);
#544=FACE_BOUND('',#505,.T.);
#545=FACE_BOUND('',#506,.T.);
#546=PLANE('',#616);
#547=PLANE('',#617);
#548=PLANE('',#618);
#549=PLANE('',#624);
#550=PLANE('',#625);
#551=PLANE('',#628);
#552=PLANE('',#631);
#553=PLANE('',#632);
#554=PLANE('',#633);
#555=PLANE('',#634);
#556=PLANE('',#635);
#557=PLANE('',#636);
#558=PLANE('',#637);
#559=PLANE('',#638);
#560=PLANE('',#639);
#561=PLANE('',#640);
#562=PLANE('',#641);
#563=PLANE('',#642);
#564=PLANE('',#643);
#565=PLANE('',#644);
#566=PLANE('',#645);
#567=PLANE('',#646);
#568=PLANE('',#647);
#569=PLANE('',#648);
#570=PLANE('',#649);
#571=PLANE('',#650);
#572=PLANE('',#651);
#573=ADVANCED_FACE('',(#507,#508),#546,.F.);
#574=ADVANCED_FACE('',(#509,#510),#547,.F.);
#575=ADVANCED_FACE('',(#511,#512,#513,#514),#548,.F.);
#576=ADVANCED_FACE('',(#515),#12,.F.);
#577=ADVANCED_FACE('',(#516),#549,.T.);
#578=ADVANCED_FACE('',(#517),#550,.F.);
#579=ADVANCED_FACE('',(#518),#13,.F.);
#580=ADVANCED_FACE('',(#519),#551,.F.);
#581=ADVANCED_FACE('',(#520),#14,.F.);
#582=ADVANCED_FACE('',(#521,#522,#523),#552,.T.);
#583=ADVANCED_FACE('',(#524),#553,.F.);
#584=ADVANCED_FACE('',(#525),#554,.F.);
#585=ADVANCED_FACE('',(#526),#555,.F.);
#586=ADVANCED_FACE('',(#527),#556,.T.);
#587=ADVANCED_FACE('',(#528,#529),#557,.T.);
#588=ADVANCED_FACE('',(#530),#558,.T.);
#589=ADVANCED_FACE('',(#531),#559,.F.);
#590=ADVANCED_FACE('',(#532),#560,.F.);
#591=ADVANCED_FACE('',(#533),#561,.T.);
#592=ADVANCED_FACE('',(#534,#535),#562,.T.);
#593=ADVANCED_FACE('',(#536),#563,.T.);
#594=ADVANCED_FACE('',(#537),#564,.T.);
#595=ADVANCED_FACE('',(#538),#565,.T.);
#596=ADVANCED_FACE('',(#539),#566,.T.);
#597=ADVANCED_FACE('',(#540),#567,.T.);
#598=ADVANCED_FACE('',(#541),#568,.T.);
#599=ADVANCED_FACE('',(#542),#569,.T.);
#600=ADVANCED_FACE('',(#543),#570,.T.);
#601=ADVANCED_FACE('',(#544),#571,.F.);
#602=ADVANCED_FACE('',(#545),#572,.F.);
#603=CLOSED_SHELL('',(#573,#574,#575,#576,#577,#578,#579,#580,#581,#582,
#583,#584,#585,#586,#587,#588,#589,#590,#591,#592,#593,#594,#595,#596,#597,
#598,#599,#600,#601,#602));
#604=STYLED_ITEM('',(#605),#612);
#605=PRESENTATION_STYLE_ASSIGNMENT((#606));
#606=SURFACE_STYLE_USAGE(.BOTH.,#607);
#607=SURFACE_SIDE_STYLE('',(#608));
#608=SURFACE_STYLE_FILL_AREA(#609);
#609=FILL_AREA_STYLE('',(#610));
#610=FILL_AREA_STYLE_COLOUR('',#611);
#611=COLOUR_RGB('',0.129411764705882,0.341176470588236,0.352941176470589);
#612=MANIFOLD_SOLID_BREP('Front Right Top Plate',#603);
#613=SHAPE_DEFINITION_REPRESENTATION(#973,#614);
#614=SHAPE_REPRESENTATION('Front Right Top Plate',(#615),#968);
#615=AXIS2_PLACEMENT_3D('',#801,#652,#653);
#616=AXIS2_PLACEMENT_3D('',#802,#654,#655);
#617=AXIS2_PLACEMENT_3D('',#823,#666,#667);
#618=AXIS2_PLACEMENT_3D('',#840,#676,#677);
#619=AXIS2_PLACEMENT_3D('',#844,#679,#680);
#620=AXIS2_PLACEMENT_3D('',#864,#691,#692);
#621=AXIS2_PLACEMENT_3D('',#867,#694,#695);
#622=AXIS2_PLACEMENT_3D('',#871,#697,#698);
#623=AXIS2_PLACEMENT_3D('',#875,#700,#701);
#624=AXIS2_PLACEMENT_3D('',#876,#702,#703);
#625=AXIS2_PLACEMENT_3D('',#886,#709,#710);
#626=AXIS2_PLACEMENT_3D('',#893,#715,#716);
#627=AXIS2_PLACEMENT_3D('',#896,#718,#719);
#628=AXIS2_PLACEMENT_3D('',#899,#721,#722);
#629=AXIS2_PLACEMENT_3D('',#901,#724,#725);
#630=AXIS2_PLACEMENT_3D('',#904,#727,#728);
#631=AXIS2_PLACEMENT_3D('',#907,#730,#731);
#632=AXIS2_PLACEMENT_3D('',#917,#738,#739);
#633=AXIS2_PLACEMENT_3D('',#919,#741,#742);
#634=AXIS2_PLACEMENT_3D('',#920,#743,#744);
#635=AXIS2_PLACEMENT_3D('',#924,#747,#748);
#636=AXIS2_PLACEMENT_3D('',#926,#750,#751);
#637=AXIS2_PLACEMENT_3D('',#930,#754,#755);
#638=AXIS2_PLACEMENT_3D('',#936,#759,#760);
#639=AXIS2_PLACEMENT_3D('',#940,#763,#764);
#640=AXIS2_PLACEMENT_3D('',#944,#767,#768);
#641=AXIS2_PLACEMENT_3D('',#946,#770,#771);
#642=AXIS2_PLACEMENT_3D('',#950,#774,#775);
#643=AXIS2_PLACEMENT_3D('',#952,#777,#778);
#644=AXIS2_PLACEMENT_3D('',#953,#779,#780);
#645=AXIS2_PLACEMENT_3D('',#955,#782,#783);
#646=AXIS2_PLACEMENT_3D('',#956,#784,#785);
#647=AXIS2_PLACEMENT_3D('',#958,#787,#788);
#648=AXIS2_PLACEMENT_3D('',#959,#789,#790);
#649=AXIS2_PLACEMENT_3D('',#962,#793,#794);
#650=AXIS2_PLACEMENT_3D('',#964,#796,#797);
#651=AXIS2_PLACEMENT_3D('',#966,#799,#800);
#652=DIRECTION('',(0.,0.,1.));
#653=DIRECTION('',(1.,0.,0.));
#654=DIRECTION('',(-2.1350442781253E-16,1.,3.89864361211991E-32));
#655=DIRECTION('',(-1.,-2.1350442781253E-16,0.));
#656=DIRECTION('',(1.,2.1350442781253E-16,-1.82602471155453E-16));
#657=DIRECTION('',(0.,0.,1.));
#658=DIRECTION('',(1.,0.,0.));
#659=DIRECTION('',(-1.66533453693773E-16,0.,1.));
#660=DIRECTION('',(1.,2.1350442781253E-16,-1.82602471155453E-16));
#661=DIRECTION('',(-1.82602471155453E-16,5.47382212626882E-48,-1.));
#662=DIRECTION('',(0.,0.,1.));
#663=DIRECTION('',(-1.,0.,0.));
#664=DIRECTION('',(0.,0.,1.));
#665=DIRECTION('',(-1.,0.,2.16840434497101E-16));
#666=DIRECTION('',(0.,-1.,0.));
#667=DIRECTION('',(1.,0.,0.));
#668=DIRECTION('',(0.,0.,1.));
#669=DIRECTION('',(1.,2.1350442781253E-16,-1.82602471155453E-16));
#670=DIRECTION('',(-1.66533453693773E-16,0.,1.));
#671=DIRECTION('',(1.,0.,0.));
#672=DIRECTION('',(0.,0.,1.));
#673=DIRECTION('',(-1.,0.,2.16840434497101E-16));
#674=DIRECTION('',(0.,0.,1.));
#675=DIRECTION('',(-1.,0.,0.));
#676=DIRECTION('',(1.82602471155453E-16,0.,1.));
#677=DIRECTION('',(1.,0.,-1.82602471155453E-16));
#678=DIRECTION('',(0.866025403784439,0.5,-1.58138378814437E-16));
#679=DIRECTION('',(1.82602471155453E-16,0.,1.));
#680=DIRECTION('',(1.,0.,-1.82602471155453E-16));
#681=DIRECTION('',(-0.866025403784438,0.5,0.));
#682=DIRECTION('',(1.,0.,-1.82602471155453E-16));
#683=DIRECTION('',(1.73472347597712E-16,1.,-3.16764793484799E-32));
#684=DIRECTION('',(0.,-1.,0.));
#685=DIRECTION('',(0.,-1.,0.));
#686=DIRECTION('',(0.,1.,0.));
#687=DIRECTION('',(-1.,0.,1.82602471155453E-16));
#688=DIRECTION('',(0.,1.,0.));
#689=DIRECTION('',(-1.,0.,1.82602471155453E-16));
#690=DIRECTION('',(0.866025403784439,0.5,-1.58138378814437E-16));
#691=DIRECTION('',(1.82602471155453E-16,0.,1.));
#692=DIRECTION('',(1.,0.,-1.82602471155453E-16));
#693=DIRECTION('',(-0.866025403784438,0.5,0.));
#694=DIRECTION('',(1.82602471155453E-16,0.,1.));
#695=DIRECTION('',(1.,0.,-1.82602471155453E-16));
#696=DIRECTION('',(1.82602471155453E-16,0.,1.));
#697=DIRECTION('',(-1.82602471155453E-16,0.,-1.));
#698=DIRECTION('',(-1.,0.,1.82602471155453E-16));
#699=DIRECTION('',(-1.82602471155453E-16,0.,-1.));
#700=DIRECTION('',(1.82602471155453E-16,0.,1.));
#701=DIRECTION('',(1.,0.,-1.82602471155453E-16));
#702=DIRECTION('',(0.,1.,0.));
#703=DIRECTION('',(0.,0.,1.));
#704=DIRECTION('',(1.,0.,-1.82602471155453E-16));
#705=DIRECTION('',(1.82602471155453E-16,0.,1.));
#706=DIRECTION('',(1.,0.,-1.82602471155453E-16));
#707=DIRECTION('',(-1.82602471155453E-16,0.,-1.));
#708=DIRECTION('',(-1.82602471155453E-16,0.,-1.));
#709=DIRECTION('',(1.,0.,-1.82602471155453E-16));
#710=DIRECTION('',(-1.82602471155453E-16,0.,-1.));
#711=DIRECTION('',(0.,-1.,0.));
#712=DIRECTION('',(-1.82602471155453E-16,0.,-1.));
#713=DIRECTION('',(0.,-1.,0.));
#714=DIRECTION('',(0.,1.,0.));
#715=DIRECTION('',(-1.82602471155453E-16,0.,-1.));
#716=DIRECTION('',(-1.,0.,1.82602471155453E-16));
#717=DIRECTION('',(-1.82602471155453E-16,0.,-1.));
#718=DIRECTION('',(1.82602471155453E-16,0.,1.));
#719=DIRECTION('',(1.,0.,-1.82602471155453E-16));
#720=DIRECTION('',(1.82602471155453E-16,0.,1.));
#721=DIRECTION('',(-1.,1.73472347597712E-16,1.82602471155453E-16));
#722=DIRECTION('',(1.82602471155453E-16,0.,1.));
#723=DIRECTION('',(1.73472347597712E-16,1.,-3.16764793484799E-32));
#724=DIRECTION('',(-1.82602471155453E-16,0.,-1.));
#725=DIRECTION('',(-1.,0.,1.82602471155453E-16));
#726=DIRECTION('',(-1.82602471155453E-16,0.,-1.));
#727=DIRECTION('',(1.82602471155453E-16,0.,1.));
#728=DIRECTION('',(1.,0.,-1.82602471155453E-16));
#729=DIRECTION('',(1.82602471155453E-16,0.,1.));
#730=DIRECTION('',(1.82602471155453E-16,0.,1.));
#731=DIRECTION('',(1.,0.,-1.82602471155453E-16));
#732=DIRECTION('',(-0.866025403784439,0.5,1.58138378814437E-16));
#733=DIRECTION('',(0.866025403784442,0.5,0.));
#734=DIRECTION('',(-0.866025403784439,0.5,1.58138378814437E-16));
#735=DIRECTION('',(0.866025403784442,0.5,0.));
#736=DIRECTION('',(1.,0.,-1.82602471155453E-16));
#737=DIRECTION('',(0.,-1.,0.));
#738=DIRECTION('',(0.,0.,1.));
#739=DIRECTION('',(1.,0.,0.));
#740=DIRECTION('',(0.,1.,0.));
#741=DIRECTION('',(-1.,0.,-1.66533453693773E-16));
#742=DIRECTION('',(-1.66533453693773E-16,0.,1.));
#743=DIRECTION('',(0.,-1.,0.));
#744=DIRECTION('',(0.,0.,-1.));
#745=DIRECTION('',(1.82602471155453E-16,0.,1.));
#746=DIRECTION('',(1.,0.,-1.82602471155453E-16));
#747=DIRECTION('',(-1.,0.,1.82602471155453E-16));
#748=DIRECTION('',(1.82602471155453E-16,0.,1.));
#749=DIRECTION('',(0.,-1.,0.));
#750=DIRECTION('',(1.82602471155453E-16,0.,1.));
#751=DIRECTION('',(1.,0.,-1.82602471155453E-16));
#752=DIRECTION('',(-0.86602540378444,0.5,1.58138378814437E-16));
#753=DIRECTION('',(0.866025403784441,0.5,0.));
#754=DIRECTION('',(-1.,0.,1.82602471155453E-16));
#755=DIRECTION('',(1.82602471155453E-16,0.,1.));
#756=DIRECTION('',(-1.82602471155453E-16,0.,-1.));
#757=DIRECTION('',(0.,1.,0.));
#758=DIRECTION('',(-1.82602471155453E-16,0.,-1.));
#759=DIRECTION('',(0.,-1.,0.));
#760=DIRECTION('',(0.,0.,-1.));
#761=DIRECTION('',(-1.82602471155453E-16,0.,-1.));
#762=DIRECTION('',(-1.,0.,1.82602471155453E-16));
#763=DIRECTION('',(-1.,0.,1.82602471155453E-16));
#764=DIRECTION('',(1.82602471155453E-16,0.,1.));
#765=DIRECTION('',(-1.82602471155453E-16,0.,-1.));
#766=DIRECTION('',(0.,1.,0.));
#767=DIRECTION('',(0.,-1.,0.));
#768=DIRECTION('',(0.,0.,-1.));
#769=DIRECTION('',(-1.,0.,1.82602471155453E-16));
#770=DIRECTION('',(-1.82602471155453E-16,0.,-1.));
#771=DIRECTION('',(1.,0.,-1.82602471155453E-16));
#772=DIRECTION('',(0.86602540378444,0.5,-1.58138378814437E-16));
#773=DIRECTION('',(-0.866025403784441,0.5,0.));
#774=DIRECTION('',(0.5,-0.866025403784439,-9.13012355777262E-17));
#775=DIRECTION('',(0.86602540378444,0.5,0.));
#776=DIRECTION('',(1.82602471155453E-16,1.42327829994538E-32,1.));
#777=DIRECTION('',(-0.5,-0.86602540378444,9.13012355777262E-17));
#778=DIRECTION('',(0.86602540378444,-0.5,0.));
#779=DIRECTION('',(0.5,-0.866025403784439,-9.13012355777265E-17));
#780=DIRECTION('',(0.866025403784439,0.5,0.));
#781=DIRECTION('',(-1.82602471155453E-16,0.,-1.));
#782=DIRECTION('',(-0.5,-0.866025403784439,9.13012355777265E-17));
#783=DIRECTION('',(0.866025403784439,-0.5,0.));
#784=DIRECTION('',(0.5,-0.866025403784439,-9.13012355777265E-17));
#785=DIRECTION('',(0.866025403784439,0.5,0.));
#786=DIRECTION('',(-1.82602471155453E-16,-1.90683135537553E-33,-1.));
#787=DIRECTION('',(-0.5,-0.866025403784439,9.13012355777265E-17));
#788=DIRECTION('',(0.866025403784439,-0.5,0.));
#789=DIRECTION('',(-1.,0.,0.));
#790=DIRECTION('',(0.,0.,1.));
#791=DIRECTION('',(0.,1.,0.));
#792=DIRECTION('',(0.,1.,0.));
#793=DIRECTION('',(-2.16840434497101E-16,0.,-1.));
#794=DIRECTION('',(-1.,0.,2.16840434497101E-16));
#795=DIRECTION('',(0.,1.,0.));
#796=DIRECTION('',(0.,0.,-1.));
#797=DIRECTION('',(-1.,0.,0.));
#798=DIRECTION('',(0.,1.,0.));
#799=DIRECTION('',(-1.,0.,0.));
#800=DIRECTION('',(0.,0.,1.));
#801=CARTESIAN_POINT('',(0.,0.,0.));
#802=CARTESIAN_POINT('',(-0.045,0.0850000000000073,0.024));
#803=CARTESIAN_POINT('',(-0.045,0.0850000000000073,0.024));
#804=CARTESIAN_POINT('',(-0.11,0.0850000000000072,0.024));
#805=CARTESIAN_POINT('',(0.02,0.0850000000000073,0.024));
#806=CARTESIAN_POINT('',(-0.11,0.0850000000000072,0.009));
#807=CARTESIAN_POINT('',(-0.11,0.0850000000000072,-0.006));
#808=CARTESIAN_POINT('',(-0.055,0.0850000000000072,-0.006));
#809=CARTESIAN_POINT('',(5.04420519100714E-18,0.0850000000000072,-0.006));
#810=CARTESIAN_POINT('',(2.54620338560054E-18,0.0850000000000072,0.009));
#811=CARTESIAN_POINT('',(3.57167697484521E-19,0.0850000000000073,0.02));
#812=CARTESIAN_POINT('',(-0.045,0.0850000000000073,0.02));
#813=CARTESIAN_POINT('',(0.02,0.0850000000000073,0.02));
#814=CARTESIAN_POINT('',(0.02,0.0850000000000073,0.024));
#815=CARTESIAN_POINT('',(-0.035,0.0850000000000072,0.003));
#816=CARTESIAN_POINT('',(-0.035,0.0850000000000072,0.));
#817=CARTESIAN_POINT('',(-0.035,0.0850000000000072,0.006));
#818=CARTESIAN_POINT('',(-0.045,0.0850000000000072,0.));
#819=CARTESIAN_POINT('',(-0.055,0.0850000000000072,0.));
#820=CARTESIAN_POINT('',(-0.055,0.0850000000000072,0.003));
#821=CARTESIAN_POINT('',(-0.055,0.0850000000000073,0.006));
#822=CARTESIAN_POINT('',(-0.045,0.0850000000000072,0.006));
#823=CARTESIAN_POINT('',(-0.185,0.0900000000000072,0.009));
#824=CARTESIAN_POINT('',(-0.11,0.0900000000000072,0.009));
#825=CARTESIAN_POINT('',(-0.11,0.0900000000000072,-0.006));
#826=CARTESIAN_POINT('',(-0.11,0.0900000000000073,0.02));
#827=CARTESIAN_POINT('',(-0.045,0.0900000000000073,0.02));
#828=CARTESIAN_POINT('',(7.14335394969041E-19,0.0900000000000072,0.02));
#829=CARTESIAN_POINT('',(2.54620338560054E-18,0.0900000000000072,0.009));
#830=CARTESIAN_POINT('',(5.04420519100714E-18,0.0900000000000072,-0.006));
#831=CARTESIAN_POINT('',(-0.055,0.0900000000000072,-0.006));
#832=CARTESIAN_POINT('',(-0.035,0.0900000000000072,0.003));
#833=CARTESIAN_POINT('',(-0.035,0.0900000000000072,0.));
#834=CARTESIAN_POINT('',(-0.035,0.0900000000000072,0.006));
#835=CARTESIAN_POINT('',(-0.045,0.0900000000000072,0.006));
#836=CARTESIAN_POINT('',(-0.055,0.0900000000000072,0.006));
#837=CARTESIAN_POINT('',(-0.055,0.0900000000000072,0.003));
#838=CARTESIAN_POINT('',(-0.055,0.0900000000000072,0.));
#839=CARTESIAN_POINT('',(-0.045,0.0900000000000072,0.));
#840=CARTESIAN_POINT('',(-0.175,0.20499875,0.02));
#841=CARTESIAN_POINT('',(-0.0934444616050387,0.0637404138612929,0.02));
#842=CARTESIAN_POINT('',(0.00849992976818958,0.122598198468989,0.0199996122137113));
#843=CARTESIAN_POINT('',(0.01,0.123464101615138,0.02));
#844=CARTESIAN_POINT('',(0.01,0.12,0.02));
#845=CARTESIAN_POINT('',(0.0115016321392893,0.122597378773241,0.0199999862104497));
#846=CARTESIAN_POINT('',(0.0115,0.122598076211353,0.02));
#847=CARTESIAN_POINT('',(-0.045,0.13,0.02));
#848=CARTESIAN_POINT('',(-0.11,0.13,0.02));
#849=CARTESIAN_POINT('',(0.02,0.13,0.02));
#850=CARTESIAN_POINT('',(0.02,0.110000000000004,0.02));
#851=CARTESIAN_POINT('',(0.,0.20499875,0.02));
#852=CARTESIAN_POINT('',(-0.11,0.110000000000004,0.02));
#853=CARTESIAN_POINT('',(-0.1015,0.1245,0.02));
#854=CARTESIAN_POINT('',(-0.1015,0.1215,0.02));
#855=CARTESIAN_POINT('',(-0.1015,0.1275,0.02));
#856=CARTESIAN_POINT('',(-0.1045,0.1275,0.02));
#857=CARTESIAN_POINT('',(-0.1075,0.1275,0.02));
#858=CARTESIAN_POINT('',(-0.1075,0.1245,0.02));
#859=CARTESIAN_POINT('',(-0.1075,0.1215,0.02));
#860=CARTESIAN_POINT('',(-0.1045,0.1215,0.02));
#861=CARTESIAN_POINT('',(-0.0847842075671974,0.0487404138612982,0.02));
#862=CARTESIAN_POINT('',(0.00849992976818954,0.102598198468996,0.019999612213711));
#863=CARTESIAN_POINT('',(0.00999999999999974,0.103464101615145,0.02));
#864=CARTESIAN_POINT('',(0.00999999999999975,0.100000000000007,0.02));
#865=CARTESIAN_POINT('',(0.0115016321392939,0.102597378773246,0.0199999862104499));
#866=CARTESIAN_POINT('',(0.0114999999999997,0.10259807621136,0.02));
#867=CARTESIAN_POINT('',(-0.1045,0.1245,0.019998));
#868=CARTESIAN_POINT('',(-0.1035,0.126232050807569,0.021003));
#869=CARTESIAN_POINT('',(-0.103499199007695,0.126231703734866,0.0210008697803856));
#870=CARTESIAN_POINT('',(-0.103499955187363,0.126232128997244,0.0220004228596287));
#871=CARTESIAN_POINT('',(-0.1045,0.1245,0.021));
#872=CARTESIAN_POINT('',(-0.105500040840971,0.126232122067457,0.0210014220303784));
#873=CARTESIAN_POINT('',(-0.1055,0.126232050807569,0.021003));
#874=CARTESIAN_POINT('',(-0.10550104882772,0.126231596347146,0.0220000702220945));
#875=CARTESIAN_POINT('',(-0.1045,0.1245,0.022));
#876=CARTESIAN_POINT('',(-0.045,0.13,0.024));
#877=CARTESIAN_POINT('',(-0.045,0.13,0.022));
#878=CARTESIAN_POINT('',(-0.11,0.13,0.022));
#879=CARTESIAN_POINT('',(-0.0995,0.13,0.022));
#880=CARTESIAN_POINT('',(-0.0995,0.13,0.024));
#881=CARTESIAN_POINT('',(-0.0995,0.13,0.024));
#882=CARTESIAN_POINT('',(-0.045,0.13,0.024));
#883=CARTESIAN_POINT('',(0.02,0.13,0.024));
#884=CARTESIAN_POINT('',(0.02,0.13,0.024));
#885=CARTESIAN_POINT('',(-0.11,0.13,0.024));
#886=CARTESIAN_POINT('',(-0.11,0.110000000000004,0.024));
#887=CARTESIAN_POINT('',(-0.11,0.110000000000004,0.024));
#888=CARTESIAN_POINT('',(-0.11,0.1195,0.024));
#889=CARTESIAN_POINT('',(-0.11,0.1195,0.024));
#890=CARTESIAN_POINT('',(-0.11,0.1195,0.022));
#891=CARTESIAN_POINT('',(-0.11,0.110000000000004,0.022));
#892=CARTESIAN_POINT('',(-0.11,0.0849980000000072,-0.006));
#893=CARTESIAN_POINT('',(0.00999999999999975,0.100000000000007,0.024));
#894=CARTESIAN_POINT('',(0.00849999999999975,0.10259807621136,0.023997));
#895=CARTESIAN_POINT('',(0.00849869876134689,0.10259752014757,0.0239993585017478));
#896=CARTESIAN_POINT('',(0.00999999999999975,0.100000000000007,0.024));
#897=CARTESIAN_POINT('',(0.0115000616323772,0.102598183770155,0.0239986148133177));
#898=CARTESIAN_POINT('',(0.0114999999999997,0.10259807621136,0.023997));
#899=CARTESIAN_POINT('',(0.02,0.110000000000004,0.024));
#900=CARTESIAN_POINT('',(0.02,0.110000000000004,0.024));
#901=CARTESIAN_POINT('',(0.01,0.12,0.024));
#902=CARTESIAN_POINT('',(0.0085,0.122598076211353,0.023997));
#903=CARTESIAN_POINT('',(0.00849869876135153,0.122597520147565,0.0239993585017461));
#904=CARTESIAN_POINT('',(0.01,0.12,0.024));
#905=CARTESIAN_POINT('',(0.0115000616323776,0.122598183770148,0.0239986148133179));
#906=CARTESIAN_POINT('',(0.0115,0.122598076211353,0.023997));
#907=CARTESIAN_POINT('',(-0.175,0.20499875,0.024));
#908=CARTESIAN_POINT('',(0.0114999999999997,0.10259807621136,0.024));
#909=CARTESIAN_POINT('',(0.00999999999999975,0.103464101615145,0.024));
#910=CARTESIAN_POINT('',(0.00849999999999973,0.10259807621136,0.024));
#911=CARTESIAN_POINT('',(0.0115,0.122598076211353,0.024));
#912=CARTESIAN_POINT('',(0.01,0.123464101615138,0.024));
#913=CARTESIAN_POINT('',(0.0085,0.122598076211353,0.024));
#914=CARTESIAN_POINT('',(-0.11,0.1195,0.024));
#915=CARTESIAN_POINT('',(-0.0995,0.1195,0.024));
#916=CARTESIAN_POINT('',(-0.0995,0.13,0.024));
#917=CARTESIAN_POINT('',(-0.055,0.0849980000000072,-0.006));
#918=CARTESIAN_POINT('',(5.04420519100714E-18,0.0849980000000072,-0.006));
#919=CARTESIAN_POINT('',(2.54620338560054E-18,0.0849980000000072,0.009));
#920=CARTESIAN_POINT('',(-0.11,0.1195,0.022));
#921=CARTESIAN_POINT('',(-0.0995,0.1195,0.022));
#922=CARTESIAN_POINT('',(-0.0995,0.1195,0.022));
#923=CARTESIAN_POINT('',(-0.11,0.1195,0.022));
#924=CARTESIAN_POINT('',(-0.0995,0.13,0.022));
#925=CARTESIAN_POINT('',(-0.0995,0.13,0.022));
#926=CARTESIAN_POINT('',(-0.2128500125,0.2460000125,0.022));
#927=CARTESIAN_POINT('',(-0.1035,0.126232050807569,0.022));
#928=CARTESIAN_POINT('',(-0.1045,0.126809401076759,0.022));
#929=CARTESIAN_POINT('',(-0.1055,0.126232050807569,0.022));
#930=CARTESIAN_POINT('',(-0.1015,0.1245,0.021));
#931=CARTESIAN_POINT('',(-0.1015,0.1215,0.021));
#932=CARTESIAN_POINT('',(-0.1015,0.1215,0.021));
#933=CARTESIAN_POINT('',(-0.1015,0.1245,0.021));
#934=CARTESIAN_POINT('',(-0.1015,0.1275,0.021));
#935=CARTESIAN_POINT('',(-0.1015,0.1275,0.021));
#936=CARTESIAN_POINT('',(-0.1045,0.1215,0.021));
#937=CARTESIAN_POINT('',(-0.1075,0.1215,0.021));
#938=CARTESIAN_POINT('',(-0.1075,0.1215,0.021));
#939=CARTESIAN_POINT('',(-0.1045,0.1215,0.021));
#940=CARTESIAN_POINT('',(-0.1075,0.1245,0.021));
#941=CARTESIAN_POINT('',(-0.1075,0.1275,0.021));
#942=CARTESIAN_POINT('',(-0.1075,0.1275,0.021));
#943=CARTESIAN_POINT('',(-0.1075,0.1245,0.021));
#944=CARTESIAN_POINT('',(-0.1045,0.1275,0.021));
#945=CARTESIAN_POINT('',(-0.1045,0.1275,0.021));
#946=CARTESIAN_POINT('',(-0.23575,0.2215,0.021));
#947=CARTESIAN_POINT('',(-0.1055,0.126232050807569,0.021));
#948=CARTESIAN_POINT('',(-0.1045,0.126809401076759,0.021));
#949=CARTESIAN_POINT('',(-0.1035,0.126232050807569,0.021));
#950=CARTESIAN_POINT('',(-0.1055,0.126232050807569,0.021003));
#951=CARTESIAN_POINT('',(-0.1045,0.126809401076759,0.021003));
#952=CARTESIAN_POINT('',(-0.1035,0.126232050807569,0.021003));
#953=CARTESIAN_POINT('',(0.0085,0.122598076211353,0.023997));
#954=CARTESIAN_POINT('',(0.01,0.123464101615138,0.023997));
#955=CARTESIAN_POINT('',(0.0115,0.122598076211353,0.023997));
#956=CARTESIAN_POINT('',(0.00849999999999975,0.10259807621136,0.023997));
#957=CARTESIAN_POINT('',(0.00999999999999975,0.103464101615145,0.023997));
#958=CARTESIAN_POINT('',(0.0114999999999997,0.10259807621136,0.023997));
#959=CARTESIAN_POINT('',(-0.035,0.0849980000000072,0.003));
#960=CARTESIAN_POINT('',(-0.035,0.0849980000000072,0.006));
#961=CARTESIAN_POINT('',(-0.035,0.0849980000000072,0.));
#962=CARTESIAN_POINT('',(-0.045,0.0849980000000072,0.006));
#963=CARTESIAN_POINT('',(-0.055,0.0849980000000072,0.006));
#964=CARTESIAN_POINT('',(-0.045,0.0849980000000072,0.));
#965=CARTESIAN_POINT('',(-0.055,0.0849980000000072,0.));
#966=CARTESIAN_POINT('',(-0.055,0.0849980000000072,0.003));
#967=MECHANICAL_DESIGN_GEOMETRIC_PRESENTATION_REPRESENTATION('',(#604),
#968);
#968=(
GEOMETRIC_REPRESENTATION_CONTEXT(3)
GLOBAL_UNCERTAINTY_ASSIGNED_CONTEXT((#969))
GLOBAL_UNIT_ASSIGNED_CONTEXT((#972,#971,#970))
REPRESENTATION_CONTEXT('Front Right Top Plate',
'TOP_LEVEL_ASSEMBLY_PART')
);
#969=UNCERTAINTY_MEASURE_WITH_UNIT(LENGTH_MEASURE(2.65008942782231E-5),
#972,'DISTANCE_ACCURACY_VALUE','Maximum Tolerance applied to model');
#970=(
NAMED_UNIT(*)
SI_UNIT($,.STERADIAN.)
SOLID_ANGLE_UNIT()
);
#971=(
NAMED_UNIT(*)
PLANE_ANGLE_UNIT()
SI_UNIT($,.RADIAN.)
);
#972=(
LENGTH_UNIT()
NAMED_UNIT(*)
SI_UNIT($,.METRE.)
);
#973=PRODUCT_DEFINITION_SHAPE('','',#974);
#974=PRODUCT_DEFINITION('','',#976,#975);
#975=PRODUCT_DEFINITION_CONTEXT('',#982,'design');
#976=PRODUCT_DEFINITION_FORMATION_WITH_SPECIFIED_SOURCE('','',#978,
 .NOT_KNOWN.);
#977=PRODUCT_RELATED_PRODUCT_CATEGORY('','',(#978));
#978=PRODUCT('Front Right Top Plate','Front Right Top Plate',
'Front Right Top Plate',(#980));
#979=PRODUCT_CATEGORY('','');
#980=PRODUCT_CONTEXT('',#982,'mechanical');
#981=APPLICATION_PROTOCOL_DEFINITION('international standard',
'ap242_managed_model_based_3d_engineering',2020,#982);
#982=APPLICATION_CONTEXT('managed model based 3d engineering');
ENDSEC;
END-ISO-10303-21;
