ISO-10303-21;
HEADER;
/* Generated by software containing ST-Developer
 * from STEP Tools, Inc. (www.steptools.com) 
 */
/* OPTION: using custom renumber hook */

FILE_DESCRIPTION(
/* description */ ('STEP AP242 Edition 2',
'CAx-IF Rec.Pracs.---Representation and Presentation of Product Manufa
cturing Information (PMI)---4.0---2014-10-13',
'CAx-IF Rec.Pracs.---3D Tessellated Geometry---0.4---2014-09-14','2;1',
'CAx-IF Rec.Pracs.---User Defined Attributes---1.5---2016-08-15'),
/* implementation_level */ '2;1');

FILE_NAME(
/* name */ 'Base and Z Axis - Front Mid Top Plate',
/* time_stamp */ '2026-01-10T06:34:51Z',
/* author */ (''),
/* organization */ (''),
/* preprocessor_version */ 'ST-DEVELOPER v20',
/* originating_system */ 'ONSHAPE BY PTC INC, 1.209',
/* authorisation */ '  ');

FILE_SCHEMA (('AP242_MANAGED_MODEL_BASED_3D_ENGINEERING_MIM_LF { 1 0 10303 442 3 1 4 }'));
ENDSEC;

DATA;
#10=SHAPE_REPRESENTATION_RELATIONSHIP('','',#723,#11);
#11=ADVANCED_BREP_SHAPE_REPRESENTATION('',(#721),#1137);
#12=CIRCLE('',#729,0.002);
#13=CIRCLE('',#730,0.002);
#14=CIRCLE('',#732,0.002);
#15=CIRCLE('',#733,0.002);
#16=CYLINDRICAL_SURFACE('',#728,0.002);
#17=CYLINDRICAL_SURFACE('',#731,0.002);
#18=ORIENTED_EDGE('',*,*,#210,.F.);
#19=ORIENTED_EDGE('',*,*,#211,.T.);
#20=ORIENTED_EDGE('',*,*,#212,.T.);
#21=ORIENTED_EDGE('',*,*,#213,.T.);
#22=ORIENTED_EDGE('',*,*,#214,.F.);
#23=ORIENTED_EDGE('',*,*,#215,.F.);
#24=ORIENTED_EDGE('',*,*,#216,.T.);
#25=ORIENTED_EDGE('',*,*,#217,.T.);
#26=ORIENTED_EDGE('',*,*,#218,.F.);
#27=ORIENTED_EDGE('',*,*,#219,.F.);
#28=ORIENTED_EDGE('',*,*,#220,.F.);
#29=ORIENTED_EDGE('',*,*,#221,.F.);
#30=ORIENTED_EDGE('',*,*,#222,.T.);
#31=ORIENTED_EDGE('',*,*,#223,.T.);
#32=ORIENTED_EDGE('',*,*,#224,.F.);
#33=ORIENTED_EDGE('',*,*,#225,.F.);
#34=ORIENTED_EDGE('',*,*,#226,.T.);
#35=ORIENTED_EDGE('',*,*,#227,.T.);
#36=ORIENTED_EDGE('',*,*,#228,.F.);
#37=ORIENTED_EDGE('',*,*,#229,.F.);
#38=ORIENTED_EDGE('',*,*,#230,.T.);
#39=ORIENTED_EDGE('',*,*,#231,.T.);
#40=ORIENTED_EDGE('',*,*,#218,.T.);
#41=ORIENTED_EDGE('',*,*,#232,.F.);
#42=ORIENTED_EDGE('',*,*,#233,.T.);
#43=ORIENTED_EDGE('',*,*,#234,.T.);
#44=ORIENTED_EDGE('',*,*,#235,.T.);
#45=ORIENTED_EDGE('',*,*,#236,.T.);
#46=ORIENTED_EDGE('',*,*,#237,.F.);
#47=ORIENTED_EDGE('',*,*,#238,.F.);
#48=ORIENTED_EDGE('',*,*,#239,.F.);
#49=ORIENTED_EDGE('',*,*,#240,.T.);
#50=ORIENTED_EDGE('',*,*,#241,.F.);
#51=ORIENTED_EDGE('',*,*,#242,.F.);
#52=ORIENTED_EDGE('',*,*,#243,.F.);
#53=ORIENTED_EDGE('',*,*,#244,.T.);
#54=ORIENTED_EDGE('',*,*,#245,.F.);
#55=ORIENTED_EDGE('',*,*,#246,.F.);
#56=ORIENTED_EDGE('',*,*,#247,.F.);
#57=ORIENTED_EDGE('',*,*,#248,.T.);
#58=ORIENTED_EDGE('',*,*,#249,.T.);
#59=ORIENTED_EDGE('',*,*,#250,.T.);
#60=ORIENTED_EDGE('',*,*,#233,.F.);
#61=ORIENTED_EDGE('',*,*,#251,.F.);
#62=ORIENTED_EDGE('',*,*,#249,.F.);
#63=ORIENTED_EDGE('',*,*,#252,.T.);
#64=ORIENTED_EDGE('',*,*,#253,.T.);
#65=ORIENTED_EDGE('',*,*,#254,.T.);
#66=ORIENTED_EDGE('',*,*,#210,.T.);
#67=ORIENTED_EDGE('',*,*,#255,.F.);
#68=ORIENTED_EDGE('',*,*,#256,.F.);
#69=ORIENTED_EDGE('',*,*,#257,.F.);
#70=ORIENTED_EDGE('',*,*,#258,.F.);
#71=ORIENTED_EDGE('',*,*,#259,.F.);
#72=ORIENTED_EDGE('',*,*,#260,.F.);
#73=ORIENTED_EDGE('',*,*,#261,.F.);
#74=ORIENTED_EDGE('',*,*,#251,.T.);
#75=ORIENTED_EDGE('',*,*,#232,.T.);
#76=ORIENTED_EDGE('',*,*,#221,.T.);
#77=ORIENTED_EDGE('',*,*,#262,.F.);
#78=ORIENTED_EDGE('',*,*,#211,.F.);
#79=ORIENTED_EDGE('',*,*,#254,.F.);
#80=ORIENTED_EDGE('',*,*,#263,.F.);
#81=ORIENTED_EDGE('',*,*,#264,.T.);
#82=ORIENTED_EDGE('',*,*,#265,.T.);
#83=ORIENTED_EDGE('',*,*,#230,.F.);
#84=ORIENTED_EDGE('',*,*,#266,.F.);
#85=ORIENTED_EDGE('',*,*,#258,.T.);
#86=ORIENTED_EDGE('',*,*,#234,.F.);
#87=ORIENTED_EDGE('',*,*,#250,.F.);
#88=ORIENTED_EDGE('',*,*,#259,.T.);
#89=ORIENTED_EDGE('',*,*,#266,.T.);
#90=ORIENTED_EDGE('',*,*,#267,.F.);
#91=ORIENTED_EDGE('',*,*,#255,.T.);
#92=ORIENTED_EDGE('',*,*,#213,.F.);
#93=ORIENTED_EDGE('',*,*,#268,.T.);
#94=ORIENTED_EDGE('',*,*,#219,.T.);
#95=ORIENTED_EDGE('',*,*,#231,.F.);
#96=ORIENTED_EDGE('',*,*,#265,.F.);
#97=ORIENTED_EDGE('',*,*,#269,.T.);
#98=ORIENTED_EDGE('',*,*,#212,.F.);
#99=ORIENTED_EDGE('',*,*,#262,.T.);
#100=ORIENTED_EDGE('',*,*,#220,.T.);
#101=ORIENTED_EDGE('',*,*,#268,.F.);
#102=ORIENTED_EDGE('',*,*,#263,.T.);
#103=ORIENTED_EDGE('',*,*,#257,.T.);
#104=ORIENTED_EDGE('',*,*,#270,.F.);
#105=ORIENTED_EDGE('',*,*,#271,.F.);
#106=ORIENTED_EDGE('',*,*,#267,.T.);
#107=ORIENTED_EDGE('',*,*,#272,.F.);
#108=ORIENTED_EDGE('',*,*,#270,.T.);
#109=ORIENTED_EDGE('',*,*,#256,.T.);
#110=ORIENTED_EDGE('',*,*,#273,.F.);
#111=ORIENTED_EDGE('',*,*,#246,.T.);
#112=ORIENTED_EDGE('',*,*,#274,.T.);
#113=ORIENTED_EDGE('',*,*,#271,.T.);
#114=ORIENTED_EDGE('',*,*,#272,.T.);
#115=ORIENTED_EDGE('',*,*,#269,.F.);
#116=ORIENTED_EDGE('',*,*,#264,.F.);
#117=ORIENTED_EDGE('',*,*,#260,.T.);
#118=ORIENTED_EDGE('',*,*,#253,.F.);
#119=ORIENTED_EDGE('',*,*,#275,.F.);
#120=ORIENTED_EDGE('',*,*,#276,.T.);
#121=ORIENTED_EDGE('',*,*,#277,.F.);
#122=ORIENTED_EDGE('',*,*,#242,.T.);
#123=ORIENTED_EDGE('',*,*,#278,.T.);
#124=ORIENTED_EDGE('',*,*,#261,.T.);
#125=ORIENTED_EDGE('',*,*,#276,.F.);
#126=ORIENTED_EDGE('',*,*,#279,.F.);
#127=ORIENTED_EDGE('',*,*,#247,.T.);
#128=ORIENTED_EDGE('',*,*,#252,.F.);
#129=ORIENTED_EDGE('',*,*,#248,.F.);
#130=ORIENTED_EDGE('',*,*,#279,.T.);
#131=ORIENTED_EDGE('',*,*,#275,.T.);
#132=ORIENTED_EDGE('',*,*,#226,.F.);
#133=ORIENTED_EDGE('',*,*,#280,.F.);
#134=ORIENTED_EDGE('',*,*,#281,.T.);
#135=ORIENTED_EDGE('',*,*,#282,.T.);
#136=ORIENTED_EDGE('',*,*,#229,.T.);
#137=ORIENTED_EDGE('',*,*,#283,.F.);
#138=ORIENTED_EDGE('',*,*,#284,.F.);
#139=ORIENTED_EDGE('',*,*,#280,.T.);
#140=ORIENTED_EDGE('',*,*,#228,.T.);
#141=ORIENTED_EDGE('',*,*,#285,.F.);
#142=ORIENTED_EDGE('',*,*,#286,.F.);
#143=ORIENTED_EDGE('',*,*,#283,.T.);
#144=ORIENTED_EDGE('',*,*,#227,.F.);
#145=ORIENTED_EDGE('',*,*,#282,.F.);
#146=ORIENTED_EDGE('',*,*,#287,.T.);
#147=ORIENTED_EDGE('',*,*,#285,.T.);
#148=ORIENTED_EDGE('',*,*,#288,.F.);
#149=ORIENTED_EDGE('',*,*,#244,.F.);
#150=ORIENTED_EDGE('',*,*,#289,.T.);
#151=ORIENTED_EDGE('',*,*,#281,.F.);
#152=ORIENTED_EDGE('',*,*,#284,.T.);
#153=ORIENTED_EDGE('',*,*,#286,.T.);
#154=ORIENTED_EDGE('',*,*,#287,.F.);
#155=ORIENTED_EDGE('',*,*,#235,.F.);
#156=ORIENTED_EDGE('',*,*,#290,.F.);
#157=ORIENTED_EDGE('',*,*,#291,.T.);
#158=ORIENTED_EDGE('',*,*,#292,.T.);
#159=ORIENTED_EDGE('',*,*,#238,.T.);
#160=ORIENTED_EDGE('',*,*,#293,.F.);
#161=ORIENTED_EDGE('',*,*,#294,.F.);
#162=ORIENTED_EDGE('',*,*,#290,.T.);
#163=ORIENTED_EDGE('',*,*,#237,.T.);
#164=ORIENTED_EDGE('',*,*,#295,.F.);
#165=ORIENTED_EDGE('',*,*,#296,.F.);
#166=ORIENTED_EDGE('',*,*,#293,.T.);
#167=ORIENTED_EDGE('',*,*,#236,.F.);
#168=ORIENTED_EDGE('',*,*,#292,.F.);
#169=ORIENTED_EDGE('',*,*,#297,.T.);
#170=ORIENTED_EDGE('',*,*,#295,.T.);
#171=ORIENTED_EDGE('',*,*,#298,.F.);
#172=ORIENTED_EDGE('',*,*,#240,.F.);
#173=ORIENTED_EDGE('',*,*,#299,.T.);
#174=ORIENTED_EDGE('',*,*,#291,.F.);
#175=ORIENTED_EDGE('',*,*,#294,.T.);
#176=ORIENTED_EDGE('',*,*,#296,.T.);
#177=ORIENTED_EDGE('',*,*,#297,.F.);
#178=ORIENTED_EDGE('',*,*,#298,.T.);
#179=ORIENTED_EDGE('',*,*,#300,.T.);
#180=ORIENTED_EDGE('',*,*,#278,.F.);
#181=ORIENTED_EDGE('',*,*,#241,.T.);
#182=ORIENTED_EDGE('',*,*,#300,.F.);
#183=ORIENTED_EDGE('',*,*,#299,.F.);
#184=ORIENTED_EDGE('',*,*,#239,.T.);
#185=ORIENTED_EDGE('',*,*,#277,.T.);
#186=ORIENTED_EDGE('',*,*,#288,.T.);
#187=ORIENTED_EDGE('',*,*,#301,.T.);
#188=ORIENTED_EDGE('',*,*,#274,.F.);
#189=ORIENTED_EDGE('',*,*,#245,.T.);
#190=ORIENTED_EDGE('',*,*,#301,.F.);
#191=ORIENTED_EDGE('',*,*,#289,.F.);
#192=ORIENTED_EDGE('',*,*,#243,.T.);
#193=ORIENTED_EDGE('',*,*,#273,.T.);
#194=ORIENTED_EDGE('',*,*,#215,.T.);
#195=ORIENTED_EDGE('',*,*,#302,.T.);
#196=ORIENTED_EDGE('',*,*,#222,.F.);
#197=ORIENTED_EDGE('',*,*,#303,.F.);
#198=ORIENTED_EDGE('',*,*,#303,.T.);
#199=ORIENTED_EDGE('',*,*,#225,.T.);
#200=ORIENTED_EDGE('',*,*,#304,.F.);
#201=ORIENTED_EDGE('',*,*,#216,.F.);
#202=ORIENTED_EDGE('',*,*,#304,.T.);
#203=ORIENTED_EDGE('',*,*,#224,.T.);
#204=ORIENTED_EDGE('',*,*,#305,.F.);
#205=ORIENTED_EDGE('',*,*,#217,.F.);
#206=ORIENTED_EDGE('',*,*,#214,.T.);
#207=ORIENTED_EDGE('',*,*,#305,.T.);
#208=ORIENTED_EDGE('',*,*,#223,.F.);
#209=ORIENTED_EDGE('',*,*,#302,.F.);
#210=EDGE_CURVE('',#306,#307,#370,.T.);
#211=EDGE_CURVE('',#306,#308,#371,.T.);
#212=EDGE_CURVE('',#308,#309,#372,.T.);
#213=EDGE_CURVE('',#309,#307,#373,.T.);
#214=EDGE_CURVE('',#310,#311,#374,.T.);
#215=EDGE_CURVE('',#312,#310,#375,.T.);
#216=EDGE_CURVE('',#312,#313,#376,.T.);
#217=EDGE_CURVE('',#313,#311,#377,.T.);
#218=EDGE_CURVE('',#314,#315,#378,.T.);
#219=EDGE_CURVE('',#316,#314,#379,.T.);
#220=EDGE_CURVE('',#317,#316,#380,.T.);
#221=EDGE_CURVE('',#315,#317,#381,.T.);
#222=EDGE_CURVE('',#318,#319,#382,.T.);
#223=EDGE_CURVE('',#319,#320,#383,.T.);
#224=EDGE_CURVE('',#321,#320,#384,.T.);
#225=EDGE_CURVE('',#318,#321,#385,.T.);
#226=EDGE_CURVE('',#322,#323,#386,.T.);
#227=EDGE_CURVE('',#323,#324,#387,.T.);
#228=EDGE_CURVE('',#325,#324,#388,.T.);
#229=EDGE_CURVE('',#322,#325,#389,.T.);
#230=EDGE_CURVE('',#326,#327,#390,.T.);
#231=EDGE_CURVE('',#327,#314,#391,.T.);
#232=EDGE_CURVE('',#328,#315,#392,.T.);
#233=EDGE_CURVE('',#328,#329,#393,.T.);
#234=EDGE_CURVE('',#329,#326,#394,.T.);
#235=EDGE_CURVE('',#330,#331,#395,.T.);
#236=EDGE_CURVE('',#331,#332,#396,.T.);
#237=EDGE_CURVE('',#333,#332,#397,.T.);
#238=EDGE_CURVE('',#330,#333,#398,.T.);
#239=EDGE_CURVE('',#334,#335,#399,.T.);
#240=EDGE_CURVE('',#334,#336,#12,.T.);
#241=EDGE_CURVE('',#337,#336,#400,.T.);
#242=EDGE_CURVE('',#335,#337,#13,.F.);
#243=EDGE_CURVE('',#338,#339,#401,.T.);
#244=EDGE_CURVE('',#338,#340,#14,.T.);
#245=EDGE_CURVE('',#341,#340,#402,.T.);
#246=EDGE_CURVE('',#339,#341,#15,.F.);
#247=EDGE_CURVE('',#342,#343,#403,.T.);
#248=EDGE_CURVE('',#342,#344,#404,.T.);
#249=EDGE_CURVE('',#344,#345,#405,.T.);
#250=EDGE_CURVE('',#345,#329,#406,.T.);
#251=EDGE_CURVE('',#343,#328,#407,.T.);
#252=EDGE_CURVE('',#344,#346,#408,.T.);
#253=EDGE_CURVE('',#346,#347,#409,.T.);
#254=EDGE_CURVE('',#347,#306,#410,.T.);
#255=EDGE_CURVE('',#348,#307,#411,.T.);
#256=EDGE_CURVE('',#349,#348,#412,.T.);
#257=EDGE_CURVE('',#350,#349,#413,.T.);
#258=EDGE_CURVE('',#351,#350,#414,.T.);
#259=EDGE_CURVE('',#345,#351,#415,.T.);
#260=EDGE_CURVE('',#352,#347,#416,.T.);
#261=EDGE_CURVE('',#343,#352,#417,.T.);
#262=EDGE_CURVE('',#308,#317,#418,.T.);
#263=EDGE_CURVE('',#353,#350,#419,.T.);
#264=EDGE_CURVE('',#353,#354,#420,.T.);
#265=EDGE_CURVE('',#354,#327,#421,.T.);
#266=EDGE_CURVE('',#351,#326,#422,.T.);
#267=EDGE_CURVE('',#348,#355,#423,.T.);
#268=EDGE_CURVE('',#309,#316,#424,.T.);
#269=EDGE_CURVE('',#354,#355,#425,.T.);
#270=EDGE_CURVE('',#356,#349,#426,.T.);
#271=EDGE_CURVE('',#353,#356,#427,.T.);
#272=EDGE_CURVE('',#356,#355,#428,.T.);
#273=EDGE_CURVE('',#339,#357,#429,.T.);
#274=EDGE_CURVE('',#341,#357,#430,.T.);
#275=EDGE_CURVE('',#358,#346,#431,.T.);
#276=EDGE_CURVE('',#358,#352,#432,.T.);
#277=EDGE_CURVE('',#335,#359,#433,.T.);
#278=EDGE_CURVE('',#337,#359,#434,.T.);
#279=EDGE_CURVE('',#342,#358,#435,.T.);
#280=EDGE_CURVE('',#360,#322,#436,.T.);
#281=EDGE_CURVE('',#360,#361,#437,.T.);
#282=EDGE_CURVE('',#361,#323,#438,.T.);
#283=EDGE_CURVE('',#362,#325,#439,.T.);
#284=EDGE_CURVE('',#360,#362,#440,.T.);
#285=EDGE_CURVE('',#363,#324,#441,.T.);
#286=EDGE_CURVE('',#362,#363,#442,.T.);
#287=EDGE_CURVE('',#361,#363,#443,.T.);
#288=EDGE_CURVE('',#340,#364,#444,.T.);
#289=EDGE_CURVE('',#338,#364,#445,.T.);
#290=EDGE_CURVE('',#365,#330,#446,.T.);
#291=EDGE_CURVE('',#365,#366,#447,.T.);
#292=EDGE_CURVE('',#366,#331,#448,.T.);
#293=EDGE_CURVE('',#367,#333,#449,.T.);
#294=EDGE_CURVE('',#365,#367,#450,.T.);
#295=EDGE_CURVE('',#368,#332,#451,.T.);
#296=EDGE_CURVE('',#367,#368,#452,.T.);
#297=EDGE_CURVE('',#366,#368,#453,.T.);
#298=EDGE_CURVE('',#336,#369,#454,.T.);
#299=EDGE_CURVE('',#334,#369,#455,.T.);
#300=EDGE_CURVE('',#369,#359,#456,.T.);
#301=EDGE_CURVE('',#364,#357,#457,.T.);
#302=EDGE_CURVE('',#310,#319,#458,.T.);
#303=EDGE_CURVE('',#312,#318,#459,.T.);
#304=EDGE_CURVE('',#313,#321,#460,.T.);
#305=EDGE_CURVE('',#311,#320,#461,.T.);
#306=VERTEX_POINT('',#942);
#307=VERTEX_POINT('',#943);
#308=VERTEX_POINT('',#945);
#309=VERTEX_POINT('',#947);
#310=VERTEX_POINT('',#950);
#311=VERTEX_POINT('',#951);
#312=VERTEX_POINT('',#953);
#313=VERTEX_POINT('',#955);
#314=VERTEX_POINT('',#959);
#315=VERTEX_POINT('',#960);
#316=VERTEX_POINT('',#962);
#317=VERTEX_POINT('',#964);
#318=VERTEX_POINT('',#967);
#319=VERTEX_POINT('',#968);
#320=VERTEX_POINT('',#970);
#321=VERTEX_POINT('',#972);
#322=VERTEX_POINT('',#976);
#323=VERTEX_POINT('',#977);
#324=VERTEX_POINT('',#979);
#325=VERTEX_POINT('',#981);
#326=VERTEX_POINT('',#984);
#327=VERTEX_POINT('',#985);
#328=VERTEX_POINT('',#988);
#329=VERTEX_POINT('',#990);
#330=VERTEX_POINT('',#993);
#331=VERTEX_POINT('',#994);
#332=VERTEX_POINT('',#996);
#333=VERTEX_POINT('',#998);
#334=VERTEX_POINT('',#1002);
#335=VERTEX_POINT('',#1003);
#336=VERTEX_POINT('',#1005);
#337=VERTEX_POINT('',#1007);
#338=VERTEX_POINT('',#1011);
#339=VERTEX_POINT('',#1012);
#340=VERTEX_POINT('',#1014);
#341=VERTEX_POINT('',#1016);
#342=VERTEX_POINT('',#1020);
#343=VERTEX_POINT('',#1021);
#344=VERTEX_POINT('',#1023);
#345=VERTEX_POINT('',#1025);
#346=VERTEX_POINT('',#1030);
#347=VERTEX_POINT('',#1032);
#348=VERTEX_POINT('',#1035);
#349=VERTEX_POINT('',#1037);
#350=VERTEX_POINT('',#1039);
#351=VERTEX_POINT('',#1041);
#352=VERTEX_POINT('',#1045);
#353=VERTEX_POINT('',#1050);
#354=VERTEX_POINT('',#1052);
#355=VERTEX_POINT('',#1058);
#356=VERTEX_POINT('',#1064);
#357=VERTEX_POINT('',#1070);
#358=VERTEX_POINT('',#1074);
#359=VERTEX_POINT('',#1078);
#360=VERTEX_POINT('',#1084);
#361=VERTEX_POINT('',#1086);
#362=VERTEX_POINT('',#1090);
#363=VERTEX_POINT('',#1094);
#364=VERTEX_POINT('',#1100);
#365=VERTEX_POINT('',#1104);
#366=VERTEX_POINT('',#1106);
#367=VERTEX_POINT('',#1110);
#368=VERTEX_POINT('',#1114);
#369=VERTEX_POINT('',#1120);
#370=LINE('',#941,#462);
#371=LINE('',#944,#463);
#372=LINE('',#946,#464);
#373=LINE('',#948,#465);
#374=LINE('',#949,#466);
#375=LINE('',#952,#467);
#376=LINE('',#954,#468);
#377=LINE('',#956,#469);
#378=LINE('',#958,#470);
#379=LINE('',#961,#471);
#380=LINE('',#963,#472);
#381=LINE('',#965,#473);
#382=LINE('',#966,#474);
#383=LINE('',#969,#475);
#384=LINE('',#971,#476);
#385=LINE('',#973,#477);
#386=LINE('',#975,#478);
#387=LINE('',#978,#479);
#388=LINE('',#980,#480);
#389=LINE('',#982,#481);
#390=LINE('',#983,#482);
#391=LINE('',#986,#483);
#392=LINE('',#987,#484);
#393=LINE('',#989,#485);
#394=LINE('',#991,#486);
#395=LINE('',#992,#487);
#396=LINE('',#995,#488);
#397=LINE('',#997,#489);
#398=LINE('',#999,#490);
#399=LINE('',#1001,#491);
#400=LINE('',#1006,#492);
#401=LINE('',#1010,#493);
#402=LINE('',#1015,#494);
#403=LINE('',#1019,#495);
#404=LINE('',#1022,#496);
#405=LINE('',#1024,#497);
#406=LINE('',#1026,#498);
#407=LINE('',#1027,#499);
#408=LINE('',#1029,#500);
#409=LINE('',#1031,#501);
#410=LINE('',#1033,#502);
#411=LINE('',#1034,#503);
#412=LINE('',#1036,#504);
#413=LINE('',#1038,#505);
#414=LINE('',#1040,#506);
#415=LINE('',#1042,#507);
#416=LINE('',#1044,#508);
#417=LINE('',#1046,#509);
#418=LINE('',#1047,#510);
#419=LINE('',#1049,#511);
#420=LINE('',#1051,#512);
#421=LINE('',#1053,#513);
#422=LINE('',#1054,#514);
#423=LINE('',#1057,#515);
#424=LINE('',#1059,#516);
#425=LINE('',#1060,#517);
#426=LINE('',#1063,#518);
#427=LINE('',#1065,#519);
#428=LINE('',#1067,#520);
#429=LINE('',#1069,#521);
#430=LINE('',#1071,#522);
#431=LINE('',#1073,#523);
#432=LINE('',#1075,#524);
#433=LINE('',#1077,#525);
#434=LINE('',#1079,#526);
#435=LINE('',#1080,#527);
#436=LINE('',#1083,#528);
#437=LINE('',#1085,#529);
#438=LINE('',#1087,#530);
#439=LINE('',#1089,#531);
#440=LINE('',#1091,#532);
#441=LINE('',#1093,#533);
#442=LINE('',#1095,#534);
#443=LINE('',#1097,#535);
#444=LINE('',#1099,#536);
#445=LINE('',#1101,#537);
#446=LINE('',#1103,#538);
#447=LINE('',#1105,#539);
#448=LINE('',#1107,#540);
#449=LINE('',#1109,#541);
#450=LINE('',#1111,#542);
#451=LINE('',#1113,#543);
#452=LINE('',#1115,#544);
#453=LINE('',#1117,#545);
#454=LINE('',#1119,#546);
#455=LINE('',#1121,#547);
#456=LINE('',#1123,#548);
#457=LINE('',#1126,#549);
#458=LINE('',#1129,#550);
#459=LINE('',#1130,#551);
#460=LINE('',#1132,#552);
#461=LINE('',#1134,#553);
#462=VECTOR('',#769,1.);
#463=VECTOR('',#770,1.);
#464=VECTOR('',#771,1.);
#465=VECTOR('',#772,1.);
#466=VECTOR('',#773,1.);
#467=VECTOR('',#774,1.);
#468=VECTOR('',#775,1.);
#469=VECTOR('',#776,1.);
#470=VECTOR('',#779,1.);
#471=VECTOR('',#780,1.);
#472=VECTOR('',#781,1.);
#473=VECTOR('',#782,1.);
#474=VECTOR('',#783,1.);
#475=VECTOR('',#784,1.);
#476=VECTOR('',#785,1.);
#477=VECTOR('',#786,1.);
#478=VECTOR('',#789,1.);
#479=VECTOR('',#790,1.);
#480=VECTOR('',#791,1.);
#481=VECTOR('',#792,1.);
#482=VECTOR('',#793,1.);
#483=VECTOR('',#794,1.);
#484=VECTOR('',#795,1.);
#485=VECTOR('',#796,1.);
#486=VECTOR('',#797,1.);
#487=VECTOR('',#798,1.);
#488=VECTOR('',#799,1.);
#489=VECTOR('',#800,1.);
#490=VECTOR('',#801,1.);
#491=VECTOR('',#804,1.);
#492=VECTOR('',#807,1.);
#493=VECTOR('',#812,1.);
#494=VECTOR('',#815,1.);
#495=VECTOR('',#820,1.);
#496=VECTOR('',#821,1.);
#497=VECTOR('',#822,1.);
#498=VECTOR('',#823,1.);
#499=VECTOR('',#824,1.);
#500=VECTOR('',#827,1.);
#501=VECTOR('',#828,1.);
#502=VECTOR('',#829,1.);
#503=VECTOR('',#830,1.);
#504=VECTOR('',#831,1.);
#505=VECTOR('',#832,1.);
#506=VECTOR('',#833,1.);
#507=VECTOR('',#834,1.);
#508=VECTOR('',#837,1.);
#509=VECTOR('',#838,1.);
#510=VECTOR('',#839,1.);
#511=VECTOR('',#842,1.);
#512=VECTOR('',#843,1.);
#513=VECTOR('',#844,1.);
#514=VECTOR('',#845,1.);
#515=VECTOR('',#850,1.);
#516=VECTOR('',#851,1.);
#517=VECTOR('',#852,1.);
#518=VECTOR('',#857,1.);
#519=VECTOR('',#858,1.);
#520=VECTOR('',#861,1.);
#521=VECTOR('',#864,1.);
#522=VECTOR('',#865,1.);
#523=VECTOR('',#868,1.);
#524=VECTOR('',#869,1.);
#525=VECTOR('',#872,1.);
#526=VECTOR('',#873,1.);
#527=VECTOR('',#874,1.);
#528=VECTOR('',#879,1.);
#529=VECTOR('',#880,1.);
#530=VECTOR('',#881,1.);
#531=VECTOR('',#884,1.);
#532=VECTOR('',#885,1.);
#533=VECTOR('',#888,1.);
#534=VECTOR('',#889,1.);
#535=VECTOR('',#892,1.);
#536=VECTOR('',#895,1.);
#537=VECTOR('',#896,1.);
#538=VECTOR('',#899,1.);
#539=VECTOR('',#900,1.);
#540=VECTOR('',#901,1.);
#541=VECTOR('',#904,1.);
#542=VECTOR('',#905,1.);
#543=VECTOR('',#908,1.);
#544=VECTOR('',#909,1.);
#545=VECTOR('',#912,1.);
#546=VECTOR('',#915,1.);
#547=VECTOR('',#916,1.);
#548=VECTOR('',#919,1.);
#549=VECTOR('',#924,1.);
#550=VECTOR('',#929,1.);
#551=VECTOR('',#930,1.);
#552=VECTOR('',#933,1.);
#553=VECTOR('',#936,1.);
#554=EDGE_LOOP('',(#18,#19,#20,#21));
#555=EDGE_LOOP('',(#22,#23,#24,#25));
#556=EDGE_LOOP('',(#26,#27,#28,#29));
#557=EDGE_LOOP('',(#30,#31,#32,#33));
#558=EDGE_LOOP('',(#34,#35,#36,#37));
#559=EDGE_LOOP('',(#38,#39,#40,#41,#42,#43));
#560=EDGE_LOOP('',(#44,#45,#46,#47));
#561=EDGE_LOOP('',(#48,#49,#50,#51));
#562=EDGE_LOOP('',(#52,#53,#54,#55));
#563=EDGE_LOOP('',(#56,#57,#58,#59,#60,#61));
#564=EDGE_LOOP('',(#62,#63,#64,#65,#66,#67,#68,#69,#70,#71));
#565=EDGE_LOOP('',(#72,#73,#74,#75,#76,#77,#78,#79));
#566=EDGE_LOOP('',(#80,#81,#82,#83,#84,#85));
#567=EDGE_LOOP('',(#86,#87,#88,#89));
#568=EDGE_LOOP('',(#90,#91,#92,#93,#94,#95,#96,#97));
#569=EDGE_LOOP('',(#98,#99,#100,#101));
#570=EDGE_LOOP('',(#102,#103,#104,#105));
#571=EDGE_LOOP('',(#106,#107,#108,#109));
#572=EDGE_LOOP('',(#110,#111,#112));
#573=EDGE_LOOP('',(#113,#114,#115,#116));
#574=EDGE_LOOP('',(#117,#118,#119,#120));
#575=EDGE_LOOP('',(#121,#122,#123));
#576=EDGE_LOOP('',(#124,#125,#126,#127));
#577=EDGE_LOOP('',(#128,#129,#130,#131));
#578=EDGE_LOOP('',(#132,#133,#134,#135));
#579=EDGE_LOOP('',(#136,#137,#138,#139));
#580=EDGE_LOOP('',(#140,#141,#142,#143));
#581=EDGE_LOOP('',(#144,#145,#146,#147));
#582=EDGE_LOOP('',(#148,#149,#150));
#583=EDGE_LOOP('',(#151,#152,#153,#154));
#584=EDGE_LOOP('',(#155,#156,#157,#158));
#585=EDGE_LOOP('',(#159,#160,#161,#162));
#586=EDGE_LOOP('',(#163,#164,#165,#166));
#587=EDGE_LOOP('',(#167,#168,#169,#170));
#588=EDGE_LOOP('',(#171,#172,#173));
#589=EDGE_LOOP('',(#174,#175,#176,#177));
#590=EDGE_LOOP('',(#178,#179,#180,#181));
#591=EDGE_LOOP('',(#182,#183,#184,#185));
#592=EDGE_LOOP('',(#186,#187,#188,#189));
#593=EDGE_LOOP('',(#190,#191,#192,#193));
#594=EDGE_LOOP('',(#194,#195,#196,#197));
#595=EDGE_LOOP('',(#198,#199,#200,#201));
#596=EDGE_LOOP('',(#202,#203,#204,#205));
#597=EDGE_LOOP('',(#206,#207,#208,#209));
#598=FACE_BOUND('',#554,.T.);
#599=FACE_BOUND('',#555,.T.);
#600=FACE_BOUND('',#556,.T.);
#601=FACE_BOUND('',#557,.T.);
#602=FACE_BOUND('',#558,.T.);
#603=FACE_BOUND('',#559,.T.);
#604=FACE_BOUND('',#560,.T.);
#605=FACE_BOUND('',#561,.T.);
#606=FACE_BOUND('',#562,.T.);
#607=FACE_BOUND('',#563,.T.);
#608=FACE_BOUND('',#564,.T.);
#609=FACE_BOUND('',#565,.T.);
#610=FACE_BOUND('',#566,.T.);
#611=FACE_BOUND('',#567,.T.);
#612=FACE_BOUND('',#568,.T.);
#613=FACE_BOUND('',#569,.T.);
#614=FACE_BOUND('',#570,.T.);
#615=FACE_BOUND('',#571,.T.);
#616=FACE_BOUND('',#572,.T.);
#617=FACE_BOUND('',#573,.T.);
#618=FACE_BOUND('',#574,.T.);
#619=FACE_BOUND('',#575,.T.);
#620=FACE_BOUND('',#576,.T.);
#621=FACE_BOUND('',#577,.T.);
#622=FACE_BOUND('',#578,.T.);
#623=FACE_BOUND('',#579,.T.);
#624=FACE_BOUND('',#580,.T.);
#625=FACE_BOUND('',#581,.T.);
#626=FACE_BOUND('',#582,.T.);
#627=FACE_BOUND('',#583,.T.);
#628=FACE_BOUND('',#584,.T.);
#629=FACE_BOUND('',#585,.T.);
#630=FACE_BOUND('',#586,.T.);
#631=FACE_BOUND('',#587,.T.);
#632=FACE_BOUND('',#588,.T.);
#633=FACE_BOUND('',#589,.T.);
#634=FACE_BOUND('',#590,.T.);
#635=FACE_BOUND('',#591,.T.);
#636=FACE_BOUND('',#592,.T.);
#637=FACE_BOUND('',#593,.T.);
#638=FACE_BOUND('',#594,.T.);
#639=FACE_BOUND('',#595,.T.);
#640=FACE_BOUND('',#596,.T.);
#641=FACE_BOUND('',#597,.T.);
#642=PLANE('',#725);
#643=PLANE('',#726);
#644=PLANE('',#727);
#645=PLANE('',#734);
#646=PLANE('',#735);
#647=PLANE('',#736);
#648=PLANE('',#737);
#649=PLANE('',#738);
#650=PLANE('',#739);
#651=PLANE('',#740);
#652=PLANE('',#741);
#653=PLANE('',#742);
#654=PLANE('',#743);
#655=PLANE('',#744);
#656=PLANE('',#745);
#657=PLANE('',#746);
#658=PLANE('',#747);
#659=PLANE('',#748);
#660=PLANE('',#749);
#661=PLANE('',#750);
#662=PLANE('',#751);
#663=PLANE('',#752);
#664=PLANE('',#753);
#665=PLANE('',#754);
#666=PLANE('',#755);
#667=PLANE('',#756);
#668=PLANE('',#757);
#669=PLANE('',#758);
#670=PLANE('',#759);
#671=PLANE('',#760);
#672=PLANE('',#761);
#673=PLANE('',#762);
#674=PLANE('',#763);
#675=PLANE('',#764);
#676=ADVANCED_FACE('',(#598,#599),#642,.T.);
#677=ADVANCED_FACE('',(#600,#601),#643,.F.);
#678=ADVANCED_FACE('',(#602,#603,#604),#644,.F.);
#679=ADVANCED_FACE('',(#605),#16,.F.);
#680=ADVANCED_FACE('',(#606),#17,.F.);
#681=ADVANCED_FACE('',(#607),#645,.T.);
#682=ADVANCED_FACE('',(#608),#646,.T.);
#683=ADVANCED_FACE('',(#609),#647,.F.);
#684=ADVANCED_FACE('',(#610),#648,.T.);
#685=ADVANCED_FACE('',(#611),#649,.T.);
#686=ADVANCED_FACE('',(#612),#650,.T.);
#687=ADVANCED_FACE('',(#613),#651,.F.);
#688=ADVANCED_FACE('',(#614),#652,.F.);
#689=ADVANCED_FACE('',(#615),#653,.F.);
#690=ADVANCED_FACE('',(#616,#617),#654,.T.);
#691=ADVANCED_FACE('',(#618),#655,.T.);
#692=ADVANCED_FACE('',(#619,#620),#656,.T.);
#693=ADVANCED_FACE('',(#621),#657,.T.);
#694=ADVANCED_FACE('',(#622),#658,.T.);
#695=ADVANCED_FACE('',(#623),#659,.F.);
#696=ADVANCED_FACE('',(#624),#660,.F.);
#697=ADVANCED_FACE('',(#625),#661,.T.);
#698=ADVANCED_FACE('',(#626,#627),#662,.T.);
#699=ADVANCED_FACE('',(#628),#663,.T.);
#700=ADVANCED_FACE('',(#629),#664,.F.);
#701=ADVANCED_FACE('',(#630),#665,.F.);
#702=ADVANCED_FACE('',(#631),#666,.T.);
#703=ADVANCED_FACE('',(#632,#633),#667,.T.);
#704=ADVANCED_FACE('',(#634),#668,.T.);
#705=ADVANCED_FACE('',(#635),#669,.T.);
#706=ADVANCED_FACE('',(#636),#670,.T.);
#707=ADVANCED_FACE('',(#637),#671,.T.);
#708=ADVANCED_FACE('',(#638),#672,.T.);
#709=ADVANCED_FACE('',(#639),#673,.F.);
#710=ADVANCED_FACE('',(#640),#674,.F.);
#711=ADVANCED_FACE('',(#641),#675,.T.);
#712=CLOSED_SHELL('',(#676,#677,#678,#679,#680,#681,#682,#683,#684,#685,
#686,#687,#688,#689,#690,#691,#692,#693,#694,#695,#696,#697,#698,#699,#700,
#701,#702,#703,#704,#705,#706,#707,#708,#709,#710,#711));
#713=STYLED_ITEM('',(#714),#721);
#714=PRESENTATION_STYLE_ASSIGNMENT((#715));
#715=SURFACE_STYLE_USAGE(.BOTH.,#716);
#716=SURFACE_SIDE_STYLE('',(#717));
#717=SURFACE_STYLE_FILL_AREA(#718);
#718=FILL_AREA_STYLE('',(#719));
#719=FILL_AREA_STYLE_COLOUR('',#720);
#720=COLOUR_RGB('',0.129411764705882,0.341176470588236,0.352941176470589);
#721=MANIFOLD_SOLID_BREP('Front Mid Top Plate',#712);
#722=SHAPE_DEFINITION_REPRESENTATION(#1142,#723);
#723=SHAPE_REPRESENTATION('Front Mid Top Plate',(#724),#1137);
#724=AXIS2_PLACEMENT_3D('',#939,#765,#766);
#725=AXIS2_PLACEMENT_3D('',#940,#767,#768);
#726=AXIS2_PLACEMENT_3D('',#957,#777,#778);
#727=AXIS2_PLACEMENT_3D('',#974,#787,#788);
#728=AXIS2_PLACEMENT_3D('',#1000,#802,#803);
#729=AXIS2_PLACEMENT_3D('',#1004,#805,#806);
#730=AXIS2_PLACEMENT_3D('',#1008,#808,#809);
#731=AXIS2_PLACEMENT_3D('',#1009,#810,#811);
#732=AXIS2_PLACEMENT_3D('',#1013,#813,#814);
#733=AXIS2_PLACEMENT_3D('',#1017,#816,#817);
#734=AXIS2_PLACEMENT_3D('',#1018,#818,#819);
#735=AXIS2_PLACEMENT_3D('',#1028,#825,#826);
#736=AXIS2_PLACEMENT_3D('',#1043,#835,#836);
#737=AXIS2_PLACEMENT_3D('',#1048,#840,#841);
#738=AXIS2_PLACEMENT_3D('',#1055,#846,#847);
#739=AXIS2_PLACEMENT_3D('',#1056,#848,#849);
#740=AXIS2_PLACEMENT_3D('',#1061,#853,#854);
#741=AXIS2_PLACEMENT_3D('',#1062,#855,#856);
#742=AXIS2_PLACEMENT_3D('',#1066,#859,#860);
#743=AXIS2_PLACEMENT_3D('',#1068,#862,#863);
#744=AXIS2_PLACEMENT_3D('',#1072,#866,#867);
#745=AXIS2_PLACEMENT_3D('',#1076,#870,#871);
#746=AXIS2_PLACEMENT_3D('',#1081,#875,#876);
#747=AXIS2_PLACEMENT_3D('',#1082,#877,#878);
#748=AXIS2_PLACEMENT_3D('',#1088,#882,#883);
#749=AXIS2_PLACEMENT_3D('',#1092,#886,#887);
#750=AXIS2_PLACEMENT_3D('',#1096,#890,#891);
#751=AXIS2_PLACEMENT_3D('',#1098,#893,#894);
#752=AXIS2_PLACEMENT_3D('',#1102,#897,#898);
#753=AXIS2_PLACEMENT_3D('',#1108,#902,#903);
#754=AXIS2_PLACEMENT_3D('',#1112,#906,#907);
#755=AXIS2_PLACEMENT_3D('',#1116,#910,#911);
#756=AXIS2_PLACEMENT_3D('',#1118,#913,#914);
#757=AXIS2_PLACEMENT_3D('',#1122,#917,#918);
#758=AXIS2_PLACEMENT_3D('',#1124,#920,#921);
#759=AXIS2_PLACEMENT_3D('',#1125,#922,#923);
#760=AXIS2_PLACEMENT_3D('',#1127,#925,#926);
#761=AXIS2_PLACEMENT_3D('',#1128,#927,#928);
#762=AXIS2_PLACEMENT_3D('',#1131,#931,#932);
#763=AXIS2_PLACEMENT_3D('',#1133,#934,#935);
#764=AXIS2_PLACEMENT_3D('',#1135,#937,#938);
#765=DIRECTION('',(0.,0.,1.));
#766=DIRECTION('',(1.,0.,0.));
#767=DIRECTION('',(0.,-1.,0.));
#768=DIRECTION('',(1.,0.,0.));
#769=DIRECTION('',(1.,0.,0.));
#770=DIRECTION('',(-1.82602471155453E-16,0.,-1.));
#771=DIRECTION('',(1.,0.,0.));
#772=DIRECTION('',(0.,0.,1.));
#773=DIRECTION('',(0.,0.,1.));
#774=DIRECTION('',(1.,0.,0.));
#775=DIRECTION('',(0.,0.,1.));
#776=DIRECTION('',(1.,0.,2.16840434497101E-16));
#777=DIRECTION('',(0.,-1.,0.));
#778=DIRECTION('',(1.,0.,0.));
#779=DIRECTION('',(-1.,-2.1350442781253E-16,1.82602471155453E-16));
#780=DIRECTION('',(0.,0.,1.));
#781=DIRECTION('',(1.,0.,0.));
#782=DIRECTION('',(-1.82602471155453E-16,0.,-1.));
#783=DIRECTION('',(1.,0.,0.));
#784=DIRECTION('',(0.,0.,1.));
#785=DIRECTION('',(1.,0.,2.16840434497101E-16));
#786=DIRECTION('',(0.,0.,1.));
#787=DIRECTION('',(1.82602471155453E-16,0.,1.));
#788=DIRECTION('',(1.,0.,-1.82602471155453E-16));
#789=DIRECTION('',(1.,0.,-1.82602471155453E-16));
#790=DIRECTION('',(0.,1.,0.));
#791=DIRECTION('',(1.,0.,-1.82602471155453E-16));
#792=DIRECTION('',(0.,1.,0.));
#793=DIRECTION('',(1.,0.,-1.82602471155453E-16));
#794=DIRECTION('',(0.,-1.,0.));
#795=DIRECTION('',(0.,-1.,0.));
#796=DIRECTION('',(1.,1.8332612691961E-16,-1.82602471155453E-16));
#797=DIRECTION('',(0.,1.,0.));
#798=DIRECTION('',(-1.,0.,1.82602471155453E-16));
#799=DIRECTION('',(0.,-1.,0.));
#800=DIRECTION('',(-1.,0.,1.82602471155453E-16));
#801=DIRECTION('',(0.,-1.,0.));
#802=DIRECTION('',(1.82602471155453E-16,0.,1.));
#803=DIRECTION('',(1.,0.,-1.82602471155453E-16));
#804=DIRECTION('',(1.82602471155453E-16,0.,1.));
#805=DIRECTION('',(-1.82602471155453E-16,0.,-1.));
#806=DIRECTION('',(-1.,0.,1.82602471155453E-16));
#807=DIRECTION('',(-1.82602471155453E-16,0.,-1.));
#808=DIRECTION('',(1.82602471155453E-16,0.,1.));
#809=DIRECTION('',(1.,0.,-1.82602471155453E-16));
#810=DIRECTION('',(1.82602471155453E-16,0.,1.));
#811=DIRECTION('',(1.,0.,-1.82602471155453E-16));
#812=DIRECTION('',(1.82602471155453E-16,0.,1.));
#813=DIRECTION('',(-1.82602471155453E-16,0.,-1.));
#814=DIRECTION('',(-1.,0.,1.82602471155453E-16));
#815=DIRECTION('',(-1.82602471155453E-16,0.,-1.));
#816=DIRECTION('',(1.82602471155453E-16,0.,1.));
#817=DIRECTION('',(1.,0.,-1.82602471155453E-16));
#818=DIRECTION('',(-1.8332612691961E-16,1.,3.3475803802879E-32));
#819=DIRECTION('',(-1.,-1.8332612691961E-16,0.));
#820=DIRECTION('',(-1.,0.,1.82602471155453E-16));
#821=DIRECTION('',(1.82602471155453E-16,0.,1.));
#822=DIRECTION('',(1.,1.8332612691961E-16,-1.82602471155453E-16));
#823=DIRECTION('',(-1.82602471155453E-16,0.,-1.));
#824=DIRECTION('',(-1.82602471155453E-16,0.,-1.));
#825=DIRECTION('',(1.82602471155453E-16,0.,1.));
#826=DIRECTION('',(1.,0.,-1.82602471155453E-16));
#827=DIRECTION('',(0.,-1.,0.));
#828=DIRECTION('',(-1.,0.,1.82602471155453E-16));
#829=DIRECTION('',(0.,-1.,0.));
#830=DIRECTION('',(0.,-1.,0.));
#831=DIRECTION('',(1.,0.,-1.82602471155453E-16));
#832=DIRECTION('',(0.,-1.,0.));
#833=DIRECTION('',(1.,0.,-1.82602471155453E-16));
#834=DIRECTION('',(0.,1.,0.));
#835=DIRECTION('',(1.,0.,-1.82602471155453E-16));
#836=DIRECTION('',(-1.82602471155453E-16,0.,-1.));
#837=DIRECTION('',(1.82602471155453E-16,0.,1.));
#838=DIRECTION('',(0.,-1.,0.));
#839=DIRECTION('',(0.,1.,0.));
#840=DIRECTION('',(0.,1.,0.));
#841=DIRECTION('',(0.,0.,1.));
#842=DIRECTION('',(1.82602471155453E-16,0.,1.));
#843=DIRECTION('',(1.,0.,-1.82602471155453E-16));
#844=DIRECTION('',(-1.82602471155453E-16,0.,-1.));
#845=DIRECTION('',(-1.82602471155453E-16,0.,-1.));
#846=DIRECTION('',(-1.,0.,1.82602471155453E-16));
#847=DIRECTION('',(1.82602471155453E-16,0.,1.));
#848=DIRECTION('',(1.,0.,-1.82602471155453E-16));
#849=DIRECTION('',(-1.82602471155453E-16,0.,-1.));
#850=DIRECTION('',(-1.82602471155453E-16,0.,-1.));
#851=DIRECTION('',(0.,1.,0.));
#852=DIRECTION('',(0.,-1.,0.));
#853=DIRECTION('',(0.,0.,1.));
#854=DIRECTION('',(1.,0.,0.));
#855=DIRECTION('',(-1.,0.,1.82602471155453E-16));
#856=DIRECTION('',(1.82602471155453E-16,0.,1.));
#857=DIRECTION('',(1.82602471155453E-16,0.,1.));
#858=DIRECTION('',(0.,-1.,0.));
#859=DIRECTION('',(0.,-1.,0.));
#860=DIRECTION('',(0.,0.,-1.));
#861=DIRECTION('',(1.,0.,-1.82602471155453E-16));
#862=DIRECTION('',(1.82602471155453E-16,0.,1.));
#863=DIRECTION('',(1.,0.,-1.82602471155453E-16));
#864=DIRECTION('',(-0.86602540378444,0.5,1.58138378814437E-16));
#865=DIRECTION('',(0.866025403784441,0.5,0.));
#866=DIRECTION('',(0.,1.,0.));
#867=DIRECTION('',(0.,0.,1.));
#868=DIRECTION('',(1.82602471155453E-16,0.,1.));
#869=DIRECTION('',(-1.,0.,1.82602471155453E-16));
#870=DIRECTION('',(1.82602471155453E-16,0.,1.));
#871=DIRECTION('',(1.,0.,-1.82602471155453E-16));
#872=DIRECTION('',(-0.86602540378444,0.5,1.58138378814437E-16));
#873=DIRECTION('',(0.866025403784441,0.5,0.));
#874=DIRECTION('',(0.,-1.,0.));
#875=DIRECTION('',(-1.,0.,1.82602471155453E-16));
#876=DIRECTION('',(1.82602471155453E-16,0.,1.));
#877=DIRECTION('',(0.,1.,0.));
#878=DIRECTION('',(0.,0.,1.));
#879=DIRECTION('',(-1.82602471155453E-16,0.,-1.));
#880=DIRECTION('',(1.,0.,-1.82602471155453E-16));
#881=DIRECTION('',(-1.82602471155453E-16,0.,-1.));
#882=DIRECTION('',(-1.,0.,1.82602471155453E-16));
#883=DIRECTION('',(1.82602471155453E-16,0.,1.));
#884=DIRECTION('',(-1.82602471155453E-16,0.,-1.));
#885=DIRECTION('',(0.,1.,0.));
#886=DIRECTION('',(0.,1.,0.));
#887=DIRECTION('',(0.,0.,1.));
#888=DIRECTION('',(-1.82602471155453E-16,0.,-1.));
#889=DIRECTION('',(1.,0.,-1.82602471155453E-16));
#890=DIRECTION('',(-1.,0.,1.82602471155453E-16));
#891=DIRECTION('',(1.82602471155453E-16,0.,1.));
#892=DIRECTION('',(0.,1.,0.));
#893=DIRECTION('',(-1.82602471155453E-16,0.,-1.));
#894=DIRECTION('',(1.,0.,-1.82602471155453E-16));
#895=DIRECTION('',(0.86602540378444,0.5,-1.58138378814437E-16));
#896=DIRECTION('',(-0.866025403784441,0.5,0.));
#897=DIRECTION('',(0.,-1.,0.));
#898=DIRECTION('',(0.,0.,-1.));
#899=DIRECTION('',(-1.82602471155453E-16,0.,-1.));
#900=DIRECTION('',(-1.,0.,1.82602471155453E-16));
#901=DIRECTION('',(-1.82602471155453E-16,0.,-1.));
#902=DIRECTION('',(1.,0.,-1.82602471155453E-16));
#903=DIRECTION('',(-1.82602471155453E-16,0.,-1.));
#904=DIRECTION('',(-1.82602471155453E-16,0.,-1.));
#905=DIRECTION('',(0.,-1.,0.));
#906=DIRECTION('',(0.,-1.,0.));
#907=DIRECTION('',(0.,0.,-1.));
#908=DIRECTION('',(-1.82602471155453E-16,0.,-1.));
#909=DIRECTION('',(-1.,0.,1.82602471155453E-16));
#910=DIRECTION('',(1.,0.,-1.82602471155453E-16));
#911=DIRECTION('',(-1.82602471155453E-16,0.,-1.));
#912=DIRECTION('',(0.,-1.,0.));
#913=DIRECTION('',(-1.82602471155453E-16,0.,-1.));
#914=DIRECTION('',(1.,0.,-1.82602471155453E-16));
#915=DIRECTION('',(0.86602540378444,0.5,-1.58138378814437E-16));
#916=DIRECTION('',(-0.866025403784441,0.5,0.));
#917=DIRECTION('',(0.5,-0.86602540378444,-9.13012355777262E-17));
#918=DIRECTION('',(0.86602540378444,0.5,0.));
#919=DIRECTION('',(1.82602471155453E-16,-1.23259516440783E-32,1.));
#920=DIRECTION('',(-0.5,-0.86602540378444,9.13012355777262E-17));
#921=DIRECTION('',(0.86602540378444,-0.5,0.));
#922=DIRECTION('',(0.5,-0.866025403784439,-9.13012355777262E-17));
#923=DIRECTION('',(0.86602540378444,0.5,0.));
#924=DIRECTION('',(1.82602471155453E-16,1.42327829994538E-32,1.));
#925=DIRECTION('',(-0.5,-0.86602540378444,9.13012355777262E-17));
#926=DIRECTION('',(0.86602540378444,-0.5,0.));
#927=DIRECTION('',(0.,0.,1.));
#928=DIRECTION('',(1.,0.,0.));
#929=DIRECTION('',(0.,1.,0.));
#930=DIRECTION('',(0.,1.,0.));
#931=DIRECTION('',(-1.,0.,0.));
#932=DIRECTION('',(0.,0.,1.));
#933=DIRECTION('',(0.,1.,0.));
#934=DIRECTION('',(-2.16840434497101E-16,0.,1.));
#935=DIRECTION('',(1.,0.,2.16840434497101E-16));
#936=DIRECTION('',(0.,1.,0.));
#937=DIRECTION('',(-1.,0.,0.));
#938=DIRECTION('',(0.,0.,1.));
#939=CARTESIAN_POINT('',(0.,0.,0.));
#940=CARTESIAN_POINT('',(-0.185,0.0850000000000072,0.009));
#941=CARTESIAN_POINT('',(-0.175,0.0850000000000072,0.024));
#942=CARTESIAN_POINT('',(-0.24,0.0850000000000072,0.024));
#943=CARTESIAN_POINT('',(-0.11,0.0850000000000072,0.024));
#944=CARTESIAN_POINT('',(-0.24,0.0850000000000072,0.024));
#945=CARTESIAN_POINT('',(-0.24,0.0850000000000072,-0.006));
#946=CARTESIAN_POINT('',(-0.175,0.0850000000000072,-0.006));
#947=CARTESIAN_POINT('',(-0.11,0.0850000000000072,-0.006));
#948=CARTESIAN_POINT('',(-0.11,0.0850000000000072,0.009));
#949=CARTESIAN_POINT('',(-0.165,0.0850000000000072,0.003));
#950=CARTESIAN_POINT('',(-0.165,0.0850000000000072,-2.08166817117217E-17));
#951=CARTESIAN_POINT('',(-0.165,0.0850000000000072,0.006));
#952=CARTESIAN_POINT('',(-0.175,0.0850000000000072,0.));
#953=CARTESIAN_POINT('',(-0.185,0.0850000000000072,0.));
#954=CARTESIAN_POINT('',(-0.185,0.0850000000000072,0.003));
#955=CARTESIAN_POINT('',(-0.185,0.0850000000000072,0.006));
#956=CARTESIAN_POINT('',(-0.175,0.0850000000000072,0.006));
#957=CARTESIAN_POINT('',(-0.185,0.0900000000000072,0.009));
#958=CARTESIAN_POINT('',(-0.175,0.0900000000000073,0.02));
#959=CARTESIAN_POINT('',(-0.11,0.0900000000000072,0.02));
#960=CARTESIAN_POINT('',(-0.24,0.0900000000000072,0.02));
#961=CARTESIAN_POINT('',(-0.11,0.0900000000000072,0.009));
#962=CARTESIAN_POINT('',(-0.11,0.0900000000000072,-0.006));
#963=CARTESIAN_POINT('',(-0.175,0.0900000000000072,-0.006));
#964=CARTESIAN_POINT('',(-0.24,0.0900000000000072,-0.006));
#965=CARTESIAN_POINT('',(-0.24,0.0900000000000072,0.024));
#966=CARTESIAN_POINT('',(-0.175,0.0900000000000072,0.));
#967=CARTESIAN_POINT('',(-0.185,0.0900000000000072,0.));
#968=CARTESIAN_POINT('',(-0.165,0.0900000000000072,-1.99493199737333E-17));
#969=CARTESIAN_POINT('',(-0.165,0.0900000000000072,0.003));
#970=CARTESIAN_POINT('',(-0.165,0.0900000000000072,0.006));
#971=CARTESIAN_POINT('',(-0.175,0.0900000000000072,0.006));
#972=CARTESIAN_POINT('',(-0.185,0.0900000000000072,0.006));
#973=CARTESIAN_POINT('',(-0.185,0.0900000000000072,0.003));
#974=CARTESIAN_POINT('',(-0.175,0.20499875,0.02));
#975=CARTESIAN_POINT('',(-0.1155,0.1215,0.02));
#976=CARTESIAN_POINT('',(-0.1185,0.1215,0.02));
#977=CARTESIAN_POINT('',(-0.1125,0.1215,0.02));
#978=CARTESIAN_POINT('',(-0.1125,0.1245,0.02));
#979=CARTESIAN_POINT('',(-0.1125,0.1275,0.02));
#980=CARTESIAN_POINT('',(-0.1155,0.1275,0.02));
#981=CARTESIAN_POINT('',(-0.1185,0.1275,0.02));
#982=CARTESIAN_POINT('',(-0.1185,0.1245,0.02));
#983=CARTESIAN_POINT('',(-0.13715,0.13,0.02));
#984=CARTESIAN_POINT('',(-0.1643,0.13,0.02));
#985=CARTESIAN_POINT('',(-0.11,0.13,0.02));
#986=CARTESIAN_POINT('',(-0.11,0.110000000000004,0.02));
#987=CARTESIAN_POINT('',(-0.24,0.101500000000004,0.02));
#988=CARTESIAN_POINT('',(-0.24,0.113,0.02));
#989=CARTESIAN_POINT('',(-0.20215,0.113,0.02));
#990=CARTESIAN_POINT('',(-0.1643,0.113,0.02));
#991=CARTESIAN_POINT('',(-0.1643,0.1215,0.02));
#992=CARTESIAN_POINT('',(-0.2345,0.1105,0.02));
#993=CARTESIAN_POINT('',(-0.2315,0.1105,0.02));
#994=CARTESIAN_POINT('',(-0.2375,0.1105,0.02));
#995=CARTESIAN_POINT('',(-0.2375,0.1075,0.02));
#996=CARTESIAN_POINT('',(-0.2375,0.1045,0.02));
#997=CARTESIAN_POINT('',(-0.2345,0.1045,0.02));
#998=CARTESIAN_POINT('',(-0.2315,0.1045,0.02));
#999=CARTESIAN_POINT('',(-0.2315,0.1075,0.02));
#1000=CARTESIAN_POINT('',(-0.2345,0.1075,0.019998));
#1001=CARTESIAN_POINT('',(-0.2335,0.109232050807569,0.021003));
#1002=CARTESIAN_POINT('',(-0.2334991990077,0.109231703734868,0.0210008697803886));
#1003=CARTESIAN_POINT('',(-0.233499955187363,0.109232128997244,0.0220004228596286));
#1004=CARTESIAN_POINT('',(-0.2345,0.1075,0.021));
#1005=CARTESIAN_POINT('',(-0.235500040840971,0.109232122067457,0.0210014220303788));
#1006=CARTESIAN_POINT('',(-0.2355,0.109232050807569,0.021003));
#1007=CARTESIAN_POINT('',(-0.235501048827717,0.109231596347147,0.0220000702220951));
#1008=CARTESIAN_POINT('',(-0.2345,0.1075,0.022));
#1009=CARTESIAN_POINT('',(-0.1155,0.1245,0.019998));
#1010=CARTESIAN_POINT('',(-0.1145,0.126232050807569,0.021003));
#1011=CARTESIAN_POINT('',(-0.114499199007697,0.126231703734867,0.0210008697803869));
#1012=CARTESIAN_POINT('',(-0.114499955187363,0.126232128997244,0.0220004228596287));
#1013=CARTESIAN_POINT('',(-0.1155,0.1245,0.021));
#1014=CARTESIAN_POINT('',(-0.116500040840971,0.126232122067457,0.0210014220303788));
#1015=CARTESIAN_POINT('',(-0.1165,0.126232050807569,0.021003));
#1016=CARTESIAN_POINT('',(-0.11650104882772,0.126231596347146,0.0220000702220945));
#1017=CARTESIAN_POINT('',(-0.1155,0.1245,0.022));
#1018=CARTESIAN_POINT('',(-0.20215,0.113,0.024));
#1019=CARTESIAN_POINT('',(-0.24,0.113,0.022));
#1020=CARTESIAN_POINT('',(-0.2295,0.113,0.022));
#1021=CARTESIAN_POINT('',(-0.24,0.113,0.022));
#1022=CARTESIAN_POINT('',(-0.2295,0.113,0.022));
#1023=CARTESIAN_POINT('',(-0.2295,0.113,0.024));
#1024=CARTESIAN_POINT('',(-0.20215,0.113,0.024));
#1025=CARTESIAN_POINT('',(-0.1643,0.113,0.024));
#1026=CARTESIAN_POINT('',(-0.1643,0.113,0.024));
#1027=CARTESIAN_POINT('',(-0.24,0.113,0.024));
#1028=CARTESIAN_POINT('',(-0.175,0.20499875,0.024));
#1029=CARTESIAN_POINT('',(-0.2295,0.1075,0.024));
#1030=CARTESIAN_POINT('',(-0.2295,0.102,0.024));
#1031=CARTESIAN_POINT('',(-0.24,0.102,0.024));
#1032=CARTESIAN_POINT('',(-0.24,0.102,0.024));
#1033=CARTESIAN_POINT('',(-0.24,0.101500000000004,0.024));
#1034=CARTESIAN_POINT('',(-0.11,0.110000000000004,0.024));
#1035=CARTESIAN_POINT('',(-0.11,0.1195,0.024));
#1036=CARTESIAN_POINT('',(-0.11,0.1195,0.024));
#1037=CARTESIAN_POINT('',(-0.1205,0.1195,0.024));
#1038=CARTESIAN_POINT('',(-0.1205,0.13,0.024));
#1039=CARTESIAN_POINT('',(-0.1205,0.13,0.024));
#1040=CARTESIAN_POINT('',(-0.13715,0.13,0.024));
#1041=CARTESIAN_POINT('',(-0.1643,0.13,0.024));
#1042=CARTESIAN_POINT('',(-0.1643,0.1215,0.024));
#1043=CARTESIAN_POINT('',(-0.24,0.101500000000004,0.024));
#1044=CARTESIAN_POINT('',(-0.24,0.102,0.024));
#1045=CARTESIAN_POINT('',(-0.24,0.102,0.022));
#1046=CARTESIAN_POINT('',(-0.24,0.101500000000004,0.022));
#1047=CARTESIAN_POINT('',(-0.24,0.0849980000000072,-0.006));
#1048=CARTESIAN_POINT('',(-0.13715,0.13,0.024));
#1049=CARTESIAN_POINT('',(-0.1205,0.13,0.024));
#1050=CARTESIAN_POINT('',(-0.1205,0.13,0.022));
#1051=CARTESIAN_POINT('',(-0.13715,0.13,0.022));
#1052=CARTESIAN_POINT('',(-0.11,0.13,0.022));
#1053=CARTESIAN_POINT('',(-0.11,0.13,0.024));
#1054=CARTESIAN_POINT('',(-0.1643,0.13,0.024));
#1055=CARTESIAN_POINT('',(-0.1643,0.1215,0.024));
#1056=CARTESIAN_POINT('',(-0.11,0.110000000000004,0.024));
#1057=CARTESIAN_POINT('',(-0.11,0.1195,0.024));
#1058=CARTESIAN_POINT('',(-0.11,0.1195,0.022));
#1059=CARTESIAN_POINT('',(-0.11,0.0849980000000072,-0.006));
#1060=CARTESIAN_POINT('',(-0.11,0.110000000000004,0.022));
#1061=CARTESIAN_POINT('',(-0.175,0.0849980000000072,-0.006));
#1062=CARTESIAN_POINT('',(-0.1205,0.13,0.022));
#1063=CARTESIAN_POINT('',(-0.1205,0.1195,0.022));
#1064=CARTESIAN_POINT('',(-0.1205,0.1195,0.022));
#1065=CARTESIAN_POINT('',(-0.1205,0.13,0.022));
#1066=CARTESIAN_POINT('',(-0.11,0.1195,0.022));
#1067=CARTESIAN_POINT('',(-0.11,0.1195,0.022));
#1068=CARTESIAN_POINT('',(-0.2128500125,0.2460000125,0.022));
#1069=CARTESIAN_POINT('',(-0.1145,0.126232050807569,0.022));
#1070=CARTESIAN_POINT('',(-0.1155,0.126809401076759,0.022));
#1071=CARTESIAN_POINT('',(-0.1165,0.126232050807569,0.022));
#1072=CARTESIAN_POINT('',(-0.24,0.102,0.022));
#1073=CARTESIAN_POINT('',(-0.2295,0.102,0.022));
#1074=CARTESIAN_POINT('',(-0.2295,0.102,0.022));
#1075=CARTESIAN_POINT('',(-0.24,0.102,0.022));
#1076=CARTESIAN_POINT('',(-0.2128500125,0.2460000125,0.022));
#1077=CARTESIAN_POINT('',(-0.2335,0.109232050807569,0.022));
#1078=CARTESIAN_POINT('',(-0.2345,0.109809401076759,0.022));
#1079=CARTESIAN_POINT('',(-0.2355,0.109232050807569,0.022));
#1080=CARTESIAN_POINT('',(-0.2295,0.1075,0.022));
#1081=CARTESIAN_POINT('',(-0.2295,0.1075,0.022));
#1082=CARTESIAN_POINT('',(-0.1155,0.1215,0.021));
#1083=CARTESIAN_POINT('',(-0.1185,0.1215,0.021));
#1084=CARTESIAN_POINT('',(-0.1185,0.1215,0.021));
#1085=CARTESIAN_POINT('',(-0.1155,0.1215,0.021));
#1086=CARTESIAN_POINT('',(-0.1125,0.1215,0.021));
#1087=CARTESIAN_POINT('',(-0.1125,0.1215,0.021));
#1088=CARTESIAN_POINT('',(-0.1185,0.1245,0.021));
#1089=CARTESIAN_POINT('',(-0.1185,0.1275,0.021));
#1090=CARTESIAN_POINT('',(-0.1185,0.1275,0.021));
#1091=CARTESIAN_POINT('',(-0.1185,0.1245,0.021));
#1092=CARTESIAN_POINT('',(-0.1155,0.1275,0.021));
#1093=CARTESIAN_POINT('',(-0.1125,0.1275,0.021));
#1094=CARTESIAN_POINT('',(-0.1125,0.1275,0.021));
#1095=CARTESIAN_POINT('',(-0.1155,0.1275,0.021));
#1096=CARTESIAN_POINT('',(-0.1125,0.1245,0.021));
#1097=CARTESIAN_POINT('',(-0.1125,0.1245,0.021));
#1098=CARTESIAN_POINT('',(-0.23575,0.2215,0.021));
#1099=CARTESIAN_POINT('',(-0.1165,0.126232050807569,0.021));
#1100=CARTESIAN_POINT('',(-0.1155,0.126809401076759,0.021));
#1101=CARTESIAN_POINT('',(-0.1145,0.126232050807569,0.021));
#1102=CARTESIAN_POINT('',(-0.2345,0.1105,0.021));
#1103=CARTESIAN_POINT('',(-0.2315,0.1105,0.021));
#1104=CARTESIAN_POINT('',(-0.2315,0.1105,0.021));
#1105=CARTESIAN_POINT('',(-0.2345,0.1105,0.021));
#1106=CARTESIAN_POINT('',(-0.2375,0.1105,0.021));
#1107=CARTESIAN_POINT('',(-0.2375,0.1105,0.021));
#1108=CARTESIAN_POINT('',(-0.2315,0.1075,0.021));
#1109=CARTESIAN_POINT('',(-0.2315,0.1045,0.021));
#1110=CARTESIAN_POINT('',(-0.2315,0.1045,0.021));
#1111=CARTESIAN_POINT('',(-0.2315,0.1075,0.021));
#1112=CARTESIAN_POINT('',(-0.2345,0.1045,0.021));
#1113=CARTESIAN_POINT('',(-0.2375,0.1045,0.021));
#1114=CARTESIAN_POINT('',(-0.2375,0.1045,0.021));
#1115=CARTESIAN_POINT('',(-0.2345,0.1045,0.021));
#1116=CARTESIAN_POINT('',(-0.2375,0.1075,0.021));
#1117=CARTESIAN_POINT('',(-0.2375,0.1075,0.021));
#1118=CARTESIAN_POINT('',(-0.23575,0.2215,0.021));
#1119=CARTESIAN_POINT('',(-0.2355,0.109232050807569,0.021));
#1120=CARTESIAN_POINT('',(-0.2345,0.109809401076759,0.021));
#1121=CARTESIAN_POINT('',(-0.2335,0.109232050807569,0.021));
#1122=CARTESIAN_POINT('',(-0.2355,0.109232050807569,0.021003));
#1123=CARTESIAN_POINT('',(-0.2345,0.109809401076759,0.021003));
#1124=CARTESIAN_POINT('',(-0.2335,0.109232050807569,0.021003));
#1125=CARTESIAN_POINT('',(-0.1165,0.126232050807569,0.021003));
#1126=CARTESIAN_POINT('',(-0.1155,0.126809401076759,0.021003));
#1127=CARTESIAN_POINT('',(-0.1145,0.126232050807569,0.021003));
#1128=CARTESIAN_POINT('',(-0.175,0.0849980000000072,0.));
#1129=CARTESIAN_POINT('',(-0.165,0.0849980000000072,-1.99493199737333E-17));
#1130=CARTESIAN_POINT('',(-0.185,0.0849980000000072,0.));
#1131=CARTESIAN_POINT('',(-0.185,0.0849980000000072,0.003));
#1132=CARTESIAN_POINT('',(-0.185,0.0849980000000072,0.006));
#1133=CARTESIAN_POINT('',(-0.175,0.0849980000000072,0.006));
#1134=CARTESIAN_POINT('',(-0.165,0.0849980000000072,0.006));
#1135=CARTESIAN_POINT('',(-0.165,0.0849980000000072,0.003));
#1136=MECHANICAL_DESIGN_GEOMETRIC_PRESENTATION_REPRESENTATION('',(#713),
#1137);
#1137=(
GEOMETRIC_REPRESENTATION_CONTEXT(3)
GLOBAL_UNCERTAINTY_ASSIGNED_CONTEXT((#1138))
GLOBAL_UNIT_ASSIGNED_CONTEXT((#1141,#1140,#1139))
REPRESENTATION_CONTEXT('Front Mid Top Plate','TOP_LEVEL_ASSEMBLY_PART')
);
#1138=UNCERTAINTY_MEASURE_WITH_UNIT(LENGTH_MEASURE(2.56042952679883E-5),
#1141,'DISTANCE_ACCURACY_VALUE','Maximum Tolerance applied to model');
#1139=(
NAMED_UNIT(*)
SI_UNIT($,.STERADIAN.)
SOLID_ANGLE_UNIT()
);
#1140=(
NAMED_UNIT(*)
PLANE_ANGLE_UNIT()
SI_UNIT($,.RADIAN.)
);
#1141=(
LENGTH_UNIT()
NAMED_UNIT(*)
SI_UNIT($,.METRE.)
);
#1142=PRODUCT_DEFINITION_SHAPE('','',#1143);
#1143=PRODUCT_DEFINITION('','',#1145,#1144);
#1144=PRODUCT_DEFINITION_CONTEXT('',#1151,'design');
#1145=PRODUCT_DEFINITION_FORMATION_WITH_SPECIFIED_SOURCE('','',#1147,
 .NOT_KNOWN.);
#1146=PRODUCT_RELATED_PRODUCT_CATEGORY('','',(#1147));
#1147=PRODUCT('Front Mid Top Plate','Front Mid Top Plate',
'Front Mid Top Plate',(#1149));
#1148=PRODUCT_CATEGORY('','');
#1149=PRODUCT_CONTEXT('',#1151,'mechanical');
#1150=APPLICATION_PROTOCOL_DEFINITION('international standard',
'ap242_managed_model_based_3d_engineering',2020,#1151);
#1151=APPLICATION_CONTEXT('managed model based 3d engineering');
ENDSEC;
END-ISO-10303-21;
