ISO-10303-21;
HEADER;
/* Generated by software containing ST-Developer
 * from STEP Tools, Inc. (www.steptools.com) 
 */
/* OPTION: using custom renumber hook */

FILE_DESCRIPTION(
/* description */ ('STEP AP242 Edition 2',
'CAx-IF Rec.Pracs.---Representation and Presentation of Product Manufa
cturing Information (PMI)---4.0---2014-10-13',
'CAx-IF Rec.Pracs.---3D Tessellated Geometry---0.4---2014-09-14','2;1',
'CAx-IF Rec.Pracs.---User Defined Attributes---1.5---2016-08-15'),
/* implementation_level */ '2;1');

FILE_NAME(
/* name */ 'Base and Z Axis - Front Left Top Plate',
/* time_stamp */ '2026-01-10T06:34:51Z',
/* author */ (''),
/* organization */ (''),
/* preprocessor_version */ 'ST-DEVELOPER v20',
/* originating_system */ 'ONSHAPE BY PTC INC, 1.209',
/* authorisation */ '  ');

FILE_SCHEMA (('AP242_MANAGED_MODEL_BASED_3D_ENGINEERING_MIM_LF { 1 0 10303 442 3 1 4 }'));
ENDSEC;

DATA;
#10=SHAPE_REPRESENTATION_RELATIONSHIP('','',#874,#11);
#11=ADVANCED_BREP_SHAPE_REPRESENTATION('',(#872),#1380);
#12=CYLINDRICAL_SURFACE('',#879,0.002);
#13=CYLINDRICAL_SURFACE('',#882,0.002);
#14=CYLINDRICAL_SURFACE('',#890,0.003);
#15=CYLINDRICAL_SURFACE('',#893,0.003);
#16=CIRCLE('',#877,0.003);
#17=CIRCLE('',#878,0.003);
#18=CIRCLE('',#880,0.002);
#19=CIRCLE('',#881,0.002);
#20=CIRCLE('',#883,0.002);
#21=CIRCLE('',#884,0.002);
#22=CIRCLE('',#891,0.003);
#23=CIRCLE('',#894,0.003);
#24=ORIENTED_EDGE('',*,*,#258,.F.);
#25=ORIENTED_EDGE('',*,*,#259,.T.);
#26=ORIENTED_EDGE('',*,*,#260,.T.);
#27=ORIENTED_EDGE('',*,*,#261,.T.);
#28=ORIENTED_EDGE('',*,*,#262,.T.);
#29=ORIENTED_EDGE('',*,*,#263,.F.);
#30=ORIENTED_EDGE('',*,*,#264,.F.);
#31=ORIENTED_EDGE('',*,*,#265,.F.);
#32=ORIENTED_EDGE('',*,*,#266,.F.);
#33=ORIENTED_EDGE('',*,*,#267,.F.);
#34=ORIENTED_EDGE('',*,*,#268,.T.);
#35=ORIENTED_EDGE('',*,*,#269,.F.);
#36=ORIENTED_EDGE('',*,*,#270,.T.);
#37=ORIENTED_EDGE('',*,*,#271,.F.);
#38=ORIENTED_EDGE('',*,*,#272,.T.);
#39=ORIENTED_EDGE('',*,*,#273,.T.);
#40=ORIENTED_EDGE('',*,*,#274,.T.);
#41=ORIENTED_EDGE('',*,*,#275,.F.);
#42=ORIENTED_EDGE('',*,*,#276,.F.);
#43=ORIENTED_EDGE('',*,*,#277,.F.);
#44=ORIENTED_EDGE('',*,*,#278,.T.);
#45=ORIENTED_EDGE('',*,*,#279,.T.);
#46=ORIENTED_EDGE('',*,*,#280,.F.);
#47=ORIENTED_EDGE('',*,*,#281,.T.);
#48=ORIENTED_EDGE('',*,*,#282,.F.);
#49=ORIENTED_EDGE('',*,*,#283,.F.);
#50=ORIENTED_EDGE('',*,*,#284,.F.);
#51=ORIENTED_EDGE('',*,*,#285,.T.);
#52=ORIENTED_EDGE('',*,*,#286,.F.);
#53=ORIENTED_EDGE('',*,*,#287,.F.);
#54=ORIENTED_EDGE('',*,*,#288,.F.);
#55=ORIENTED_EDGE('',*,*,#289,.T.);
#56=ORIENTED_EDGE('',*,*,#267,.T.);
#57=ORIENTED_EDGE('',*,*,#290,.F.);
#58=ORIENTED_EDGE('',*,*,#291,.F.);
#59=ORIENTED_EDGE('',*,*,#292,.F.);
#60=ORIENTED_EDGE('',*,*,#293,.T.);
#61=ORIENTED_EDGE('',*,*,#294,.T.);
#62=ORIENTED_EDGE('',*,*,#295,.T.);
#63=ORIENTED_EDGE('',*,*,#296,.T.);
#64=ORIENTED_EDGE('',*,*,#297,.T.);
#65=ORIENTED_EDGE('',*,*,#298,.F.);
#66=ORIENTED_EDGE('',*,*,#268,.F.);
#67=ORIENTED_EDGE('',*,*,#289,.F.);
#68=ORIENTED_EDGE('',*,*,#299,.F.);
#69=ORIENTED_EDGE('',*,*,#300,.T.);
#70=ORIENTED_EDGE('',*,*,#301,.T.);
#71=ORIENTED_EDGE('',*,*,#302,.F.);
#72=ORIENTED_EDGE('',*,*,#271,.T.);
#73=ORIENTED_EDGE('',*,*,#303,.T.);
#74=ORIENTED_EDGE('',*,*,#304,.T.);
#75=ORIENTED_EDGE('',*,*,#296,.F.);
#76=ORIENTED_EDGE('',*,*,#305,.F.);
#77=ORIENTED_EDGE('',*,*,#306,.T.);
#78=ORIENTED_EDGE('',*,*,#307,.F.);
#79=ORIENTED_EDGE('',*,*,#308,.T.);
#80=ORIENTED_EDGE('',*,*,#309,.F.);
#81=ORIENTED_EDGE('',*,*,#310,.T.);
#82=ORIENTED_EDGE('',*,*,#265,.T.);
#83=ORIENTED_EDGE('',*,*,#311,.F.);
#84=ORIENTED_EDGE('',*,*,#272,.F.);
#85=ORIENTED_EDGE('',*,*,#306,.F.);
#86=ORIENTED_EDGE('',*,*,#312,.T.);
#87=ORIENTED_EDGE('',*,*,#311,.T.);
#88=ORIENTED_EDGE('',*,*,#313,.F.);
#89=ORIENTED_EDGE('',*,*,#314,.T.);
#90=ORIENTED_EDGE('',*,*,#315,.F.);
#91=ORIENTED_EDGE('',*,*,#259,.F.);
#92=ORIENTED_EDGE('',*,*,#316,.T.);
#93=ORIENTED_EDGE('',*,*,#317,.T.);
#94=ORIENTED_EDGE('',*,*,#318,.F.);
#95=ORIENTED_EDGE('',*,*,#290,.T.);
#96=ORIENTED_EDGE('',*,*,#266,.T.);
#97=ORIENTED_EDGE('',*,*,#310,.F.);
#98=ORIENTED_EDGE('',*,*,#319,.F.);
#99=ORIENTED_EDGE('',*,*,#320,.T.);
#100=ORIENTED_EDGE('',*,*,#321,.F.);
#101=ORIENTED_EDGE('',*,*,#278,.F.);
#102=ORIENTED_EDGE('',*,*,#322,.F.);
#103=ORIENTED_EDGE('',*,*,#320,.F.);
#104=ORIENTED_EDGE('',*,*,#323,.T.);
#105=ORIENTED_EDGE('',*,*,#324,.F.);
#106=ORIENTED_EDGE('',*,*,#314,.F.);
#107=ORIENTED_EDGE('',*,*,#325,.T.);
#108=ORIENTED_EDGE('',*,*,#326,.F.);
#109=ORIENTED_EDGE('',*,*,#291,.T.);
#110=ORIENTED_EDGE('',*,*,#318,.T.);
#111=ORIENTED_EDGE('',*,*,#327,.T.);
#112=ORIENTED_EDGE('',*,*,#328,.F.);
#113=ORIENTED_EDGE('',*,*,#307,.T.);
#114=ORIENTED_EDGE('',*,*,#312,.F.);
#115=ORIENTED_EDGE('',*,*,#305,.T.);
#116=ORIENTED_EDGE('',*,*,#295,.F.);
#117=ORIENTED_EDGE('',*,*,#329,.T.);
#118=ORIENTED_EDGE('',*,*,#330,.F.);
#119=ORIENTED_EDGE('',*,*,#331,.F.);
#120=ORIENTED_EDGE('',*,*,#332,.T.);
#121=ORIENTED_EDGE('',*,*,#333,.T.);
#122=ORIENTED_EDGE('',*,*,#334,.F.);
#123=ORIENTED_EDGE('',*,*,#269,.T.);
#124=ORIENTED_EDGE('',*,*,#298,.T.);
#125=ORIENTED_EDGE('',*,*,#335,.F.);
#126=ORIENTED_EDGE('',*,*,#303,.F.);
#127=ORIENTED_EDGE('',*,*,#270,.F.);
#128=ORIENTED_EDGE('',*,*,#334,.T.);
#129=ORIENTED_EDGE('',*,*,#336,.F.);
#130=ORIENTED_EDGE('',*,*,#335,.T.);
#131=ORIENTED_EDGE('',*,*,#297,.F.);
#132=ORIENTED_EDGE('',*,*,#304,.F.);
#133=ORIENTED_EDGE('',*,*,#336,.T.);
#134=ORIENTED_EDGE('',*,*,#326,.T.);
#135=ORIENTED_EDGE('',*,*,#337,.F.);
#136=ORIENTED_EDGE('',*,*,#338,.F.);
#137=ORIENTED_EDGE('',*,*,#292,.T.);
#138=ORIENTED_EDGE('',*,*,#339,.T.);
#139=ORIENTED_EDGE('',*,*,#337,.T.);
#140=ORIENTED_EDGE('',*,*,#329,.F.);
#141=ORIENTED_EDGE('',*,*,#294,.F.);
#142=ORIENTED_EDGE('',*,*,#340,.F.);
#143=ORIENTED_EDGE('',*,*,#287,.T.);
#144=ORIENTED_EDGE('',*,*,#341,.T.);
#145=ORIENTED_EDGE('',*,*,#288,.T.);
#146=ORIENTED_EDGE('',*,*,#338,.T.);
#147=ORIENTED_EDGE('',*,*,#339,.F.);
#148=ORIENTED_EDGE('',*,*,#293,.F.);
#149=ORIENTED_EDGE('',*,*,#328,.T.);
#150=ORIENTED_EDGE('',*,*,#342,.F.);
#151=ORIENTED_EDGE('',*,*,#343,.F.);
#152=ORIENTED_EDGE('',*,*,#308,.F.);
#153=ORIENTED_EDGE('',*,*,#344,.F.);
#154=ORIENTED_EDGE('',*,*,#283,.T.);
#155=ORIENTED_EDGE('',*,*,#345,.T.);
#156=ORIENTED_EDGE('',*,*,#309,.T.);
#157=ORIENTED_EDGE('',*,*,#343,.T.);
#158=ORIENTED_EDGE('',*,*,#346,.F.);
#159=ORIENTED_EDGE('',*,*,#316,.F.);
#160=ORIENTED_EDGE('',*,*,#327,.F.);
#161=ORIENTED_EDGE('',*,*,#317,.F.);
#162=ORIENTED_EDGE('',*,*,#346,.T.);
#163=ORIENTED_EDGE('',*,*,#342,.T.);
#164=ORIENTED_EDGE('',*,*,#261,.F.);
#165=ORIENTED_EDGE('',*,*,#347,.F.);
#166=ORIENTED_EDGE('',*,*,#348,.T.);
#167=ORIENTED_EDGE('',*,*,#349,.T.);
#168=ORIENTED_EDGE('',*,*,#264,.T.);
#169=ORIENTED_EDGE('',*,*,#350,.F.);
#170=ORIENTED_EDGE('',*,*,#351,.F.);
#171=ORIENTED_EDGE('',*,*,#347,.T.);
#172=ORIENTED_EDGE('',*,*,#263,.T.);
#173=ORIENTED_EDGE('',*,*,#352,.F.);
#174=ORIENTED_EDGE('',*,*,#353,.F.);
#175=ORIENTED_EDGE('',*,*,#350,.T.);
#176=ORIENTED_EDGE('',*,*,#262,.F.);
#177=ORIENTED_EDGE('',*,*,#349,.F.);
#178=ORIENTED_EDGE('',*,*,#354,.T.);
#179=ORIENTED_EDGE('',*,*,#352,.T.);
#180=ORIENTED_EDGE('',*,*,#355,.F.);
#181=ORIENTED_EDGE('',*,*,#285,.F.);
#182=ORIENTED_EDGE('',*,*,#356,.T.);
#183=ORIENTED_EDGE('',*,*,#348,.F.);
#184=ORIENTED_EDGE('',*,*,#351,.T.);
#185=ORIENTED_EDGE('',*,*,#353,.T.);
#186=ORIENTED_EDGE('',*,*,#354,.F.);
#187=ORIENTED_EDGE('',*,*,#273,.F.);
#188=ORIENTED_EDGE('',*,*,#357,.F.);
#189=ORIENTED_EDGE('',*,*,#358,.T.);
#190=ORIENTED_EDGE('',*,*,#359,.T.);
#191=ORIENTED_EDGE('',*,*,#276,.T.);
#192=ORIENTED_EDGE('',*,*,#360,.F.);
#193=ORIENTED_EDGE('',*,*,#361,.F.);
#194=ORIENTED_EDGE('',*,*,#357,.T.);
#195=ORIENTED_EDGE('',*,*,#275,.T.);
#196=ORIENTED_EDGE('',*,*,#362,.F.);
#197=ORIENTED_EDGE('',*,*,#363,.F.);
#198=ORIENTED_EDGE('',*,*,#360,.T.);
#199=ORIENTED_EDGE('',*,*,#274,.F.);
#200=ORIENTED_EDGE('',*,*,#359,.F.);
#201=ORIENTED_EDGE('',*,*,#364,.T.);
#202=ORIENTED_EDGE('',*,*,#362,.T.);
#203=ORIENTED_EDGE('',*,*,#365,.F.);
#204=ORIENTED_EDGE('',*,*,#281,.F.);
#205=ORIENTED_EDGE('',*,*,#366,.T.);
#206=ORIENTED_EDGE('',*,*,#358,.F.);
#207=ORIENTED_EDGE('',*,*,#361,.T.);
#208=ORIENTED_EDGE('',*,*,#363,.T.);
#209=ORIENTED_EDGE('',*,*,#364,.F.);
#210=ORIENTED_EDGE('',*,*,#365,.T.);
#211=ORIENTED_EDGE('',*,*,#367,.T.);
#212=ORIENTED_EDGE('',*,*,#345,.F.);
#213=ORIENTED_EDGE('',*,*,#282,.T.);
#214=ORIENTED_EDGE('',*,*,#367,.F.);
#215=ORIENTED_EDGE('',*,*,#366,.F.);
#216=ORIENTED_EDGE('',*,*,#280,.T.);
#217=ORIENTED_EDGE('',*,*,#344,.T.);
#218=ORIENTED_EDGE('',*,*,#355,.T.);
#219=ORIENTED_EDGE('',*,*,#368,.T.);
#220=ORIENTED_EDGE('',*,*,#341,.F.);
#221=ORIENTED_EDGE('',*,*,#286,.T.);
#222=ORIENTED_EDGE('',*,*,#368,.F.);
#223=ORIENTED_EDGE('',*,*,#356,.F.);
#224=ORIENTED_EDGE('',*,*,#284,.T.);
#225=ORIENTED_EDGE('',*,*,#340,.T.);
#226=ORIENTED_EDGE('',*,*,#369,.F.);
#227=ORIENTED_EDGE('',*,*,#325,.F.);
#228=ORIENTED_EDGE('',*,*,#313,.T.);
#229=ORIENTED_EDGE('',*,*,#258,.T.);
#230=ORIENTED_EDGE('',*,*,#324,.T.);
#231=ORIENTED_EDGE('',*,*,#369,.T.);
#232=ORIENTED_EDGE('',*,*,#260,.F.);
#233=ORIENTED_EDGE('',*,*,#315,.T.);
#234=ORIENTED_EDGE('',*,*,#370,.F.);
#235=ORIENTED_EDGE('',*,*,#323,.F.);
#236=ORIENTED_EDGE('',*,*,#319,.T.);
#237=ORIENTED_EDGE('',*,*,#277,.T.);
#238=ORIENTED_EDGE('',*,*,#322,.T.);
#239=ORIENTED_EDGE('',*,*,#370,.T.);
#240=ORIENTED_EDGE('',*,*,#279,.F.);
#241=ORIENTED_EDGE('',*,*,#321,.T.);
#242=ORIENTED_EDGE('',*,*,#371,.T.);
#243=ORIENTED_EDGE('',*,*,#331,.T.);
#244=ORIENTED_EDGE('',*,*,#372,.F.);
#245=ORIENTED_EDGE('',*,*,#300,.F.);
#246=ORIENTED_EDGE('',*,*,#372,.T.);
#247=ORIENTED_EDGE('',*,*,#330,.T.);
#248=ORIENTED_EDGE('',*,*,#373,.F.);
#249=ORIENTED_EDGE('',*,*,#301,.F.);
#250=ORIENTED_EDGE('',*,*,#302,.T.);
#251=ORIENTED_EDGE('',*,*,#373,.T.);
#252=ORIENTED_EDGE('',*,*,#333,.F.);
#253=ORIENTED_EDGE('',*,*,#374,.F.);
#254=ORIENTED_EDGE('',*,*,#299,.T.);
#255=ORIENTED_EDGE('',*,*,#374,.T.);
#256=ORIENTED_EDGE('',*,*,#332,.F.);
#257=ORIENTED_EDGE('',*,*,#371,.F.);
#258=EDGE_CURVE('',#375,#376,#453,.T.);
#259=EDGE_CURVE('',#375,#377,#16,.T.);
#260=EDGE_CURVE('',#377,#376,#454,.T.);
#261=EDGE_CURVE('',#378,#379,#455,.T.);
#262=EDGE_CURVE('',#379,#380,#456,.T.);
#263=EDGE_CURVE('',#381,#380,#457,.T.);
#264=EDGE_CURVE('',#378,#381,#458,.T.);
#265=EDGE_CURVE('',#382,#383,#459,.T.);
#266=EDGE_CURVE('',#384,#382,#460,.T.);
#267=EDGE_CURVE('',#385,#384,#461,.T.);
#268=EDGE_CURVE('',#385,#386,#462,.T.);
#269=EDGE_CURVE('',#387,#386,#463,.T.);
#270=EDGE_CURVE('',#387,#388,#464,.T.);
#271=EDGE_CURVE('',#389,#388,#465,.T.);
#272=EDGE_CURVE('',#389,#383,#466,.T.);
#273=EDGE_CURVE('',#390,#391,#467,.T.);
#274=EDGE_CURVE('',#391,#392,#468,.T.);
#275=EDGE_CURVE('',#393,#392,#469,.T.);
#276=EDGE_CURVE('',#390,#393,#470,.T.);
#277=EDGE_CURVE('',#394,#395,#471,.T.);
#278=EDGE_CURVE('',#394,#396,#17,.T.);
#279=EDGE_CURVE('',#396,#395,#472,.T.);
#280=EDGE_CURVE('',#397,#398,#473,.T.);
#281=EDGE_CURVE('',#397,#399,#18,.T.);
#282=EDGE_CURVE('',#400,#399,#474,.T.);
#283=EDGE_CURVE('',#398,#400,#19,.F.);
#284=EDGE_CURVE('',#401,#402,#475,.T.);
#285=EDGE_CURVE('',#401,#403,#20,.T.);
#286=EDGE_CURVE('',#404,#403,#476,.T.);
#287=EDGE_CURVE('',#402,#404,#21,.F.);
#288=EDGE_CURVE('',#405,#406,#477,.T.);
#289=EDGE_CURVE('',#405,#385,#478,.T.);
#290=EDGE_CURVE('',#407,#384,#479,.T.);
#291=EDGE_CURVE('',#408,#407,#480,.T.);
#292=EDGE_CURVE('',#406,#408,#481,.T.);
#293=EDGE_CURVE('',#405,#409,#482,.T.);
#294=EDGE_CURVE('',#409,#410,#483,.T.);
#295=EDGE_CURVE('',#410,#411,#484,.T.);
#296=EDGE_CURVE('',#411,#412,#485,.T.);
#297=EDGE_CURVE('',#412,#413,#486,.T.);
#298=EDGE_CURVE('',#386,#413,#487,.T.);
#299=EDGE_CURVE('',#414,#415,#488,.T.);
#300=EDGE_CURVE('',#414,#416,#489,.T.);
#301=EDGE_CURVE('',#416,#417,#490,.T.);
#302=EDGE_CURVE('',#415,#417,#491,.T.);
#303=EDGE_CURVE('',#388,#418,#492,.T.);
#304=EDGE_CURVE('',#418,#412,#493,.T.);
#305=EDGE_CURVE('',#419,#411,#494,.T.);
#306=EDGE_CURVE('',#419,#389,#495,.T.);
#307=EDGE_CURVE('',#420,#421,#496,.T.);
#308=EDGE_CURVE('',#420,#422,#497,.T.);
#309=EDGE_CURVE('',#423,#422,#498,.T.);
#310=EDGE_CURVE('',#423,#382,#499,.T.);
#311=EDGE_CURVE('',#421,#383,#500,.T.);
#312=EDGE_CURVE('',#419,#421,#501,.T.);
#313=EDGE_CURVE('',#424,#375,#502,.T.);
#314=EDGE_CURVE('',#424,#425,#22,.T.);
#315=EDGE_CURVE('',#377,#425,#503,.T.);
#316=EDGE_CURVE('',#423,#426,#504,.T.);
#317=EDGE_CURVE('',#426,#427,#505,.T.);
#318=EDGE_CURVE('',#407,#427,#506,.T.);
#319=EDGE_CURVE('',#428,#394,#507,.T.);
#320=EDGE_CURVE('',#428,#429,#23,.T.);
#321=EDGE_CURVE('',#396,#429,#508,.T.);
#322=EDGE_CURVE('',#429,#430,#509,.T.);
#323=EDGE_CURVE('',#428,#430,#510,.T.);
#324=EDGE_CURVE('',#425,#431,#511,.T.);
#325=EDGE_CURVE('',#424,#431,#512,.T.);
#326=EDGE_CURVE('',#408,#432,#513,.T.);
#327=EDGE_CURVE('',#427,#433,#514,.T.);
#328=EDGE_CURVE('',#420,#433,#515,.T.);
#329=EDGE_CURVE('',#410,#432,#516,.T.);
#330=EDGE_CURVE('',#434,#435,#517,.T.);
#331=EDGE_CURVE('',#436,#434,#518,.T.);
#332=EDGE_CURVE('',#436,#437,#519,.T.);
#333=EDGE_CURVE('',#437,#435,#520,.T.);
#334=EDGE_CURVE('',#387,#438,#521,.T.);
#335=EDGE_CURVE('',#438,#413,#522,.T.);
#336=EDGE_CURVE('',#418,#438,#523,.T.);
#337=EDGE_CURVE('',#439,#432,#524,.T.);
#338=EDGE_CURVE('',#406,#439,#525,.T.);
#339=EDGE_CURVE('',#409,#439,#526,.T.);
#340=EDGE_CURVE('',#402,#440,#527,.T.);
#341=EDGE_CURVE('',#404,#440,#528,.T.);
#342=EDGE_CURVE('',#441,#433,#529,.T.);
#343=EDGE_CURVE('',#422,#441,#530,.T.);
#344=EDGE_CURVE('',#398,#442,#531,.T.);
#345=EDGE_CURVE('',#400,#442,#532,.T.);
#346=EDGE_CURVE('',#426,#441,#533,.T.);
#347=EDGE_CURVE('',#443,#378,#534,.T.);
#348=EDGE_CURVE('',#443,#444,#535,.T.);
#349=EDGE_CURVE('',#444,#379,#536,.T.);
#350=EDGE_CURVE('',#445,#381,#537,.T.);
#351=EDGE_CURVE('',#443,#445,#538,.T.);
#352=EDGE_CURVE('',#446,#380,#539,.T.);
#353=EDGE_CURVE('',#445,#446,#540,.T.);
#354=EDGE_CURVE('',#444,#446,#541,.T.);
#355=EDGE_CURVE('',#403,#447,#542,.T.);
#356=EDGE_CURVE('',#401,#447,#543,.T.);
#357=EDGE_CURVE('',#448,#390,#544,.T.);
#358=EDGE_CURVE('',#448,#449,#545,.T.);
#359=EDGE_CURVE('',#449,#391,#546,.T.);
#360=EDGE_CURVE('',#450,#393,#547,.T.);
#361=EDGE_CURVE('',#448,#450,#548,.T.);
#362=EDGE_CURVE('',#451,#392,#549,.T.);
#363=EDGE_CURVE('',#450,#451,#550,.T.);
#364=EDGE_CURVE('',#449,#451,#551,.T.);
#365=EDGE_CURVE('',#399,#452,#552,.T.);
#366=EDGE_CURVE('',#397,#452,#553,.T.);
#367=EDGE_CURVE('',#452,#442,#554,.T.);
#368=EDGE_CURVE('',#447,#440,#555,.T.);
#369=EDGE_CURVE('',#431,#376,#556,.T.);
#370=EDGE_CURVE('',#430,#395,#557,.T.);
#371=EDGE_CURVE('',#414,#436,#558,.T.);
#372=EDGE_CURVE('',#416,#434,#559,.T.);
#373=EDGE_CURVE('',#417,#435,#560,.T.);
#374=EDGE_CURVE('',#415,#437,#561,.T.);
#375=VERTEX_POINT('',#1143);
#376=VERTEX_POINT('',#1144);
#377=VERTEX_POINT('',#1146);
#378=VERTEX_POINT('',#1149);
#379=VERTEX_POINT('',#1150);
#380=VERTEX_POINT('',#1152);
#381=VERTEX_POINT('',#1154);
#382=VERTEX_POINT('',#1157);
#383=VERTEX_POINT('',#1158);
#384=VERTEX_POINT('',#1160);
#385=VERTEX_POINT('',#1162);
#386=VERTEX_POINT('',#1164);
#387=VERTEX_POINT('',#1166);
#388=VERTEX_POINT('',#1168);
#389=VERTEX_POINT('',#1170);
#390=VERTEX_POINT('',#1173);
#391=VERTEX_POINT('',#1174);
#392=VERTEX_POINT('',#1176);
#393=VERTEX_POINT('',#1178);
#394=VERTEX_POINT('',#1181);
#395=VERTEX_POINT('',#1182);
#396=VERTEX_POINT('',#1184);
#397=VERTEX_POINT('',#1188);
#398=VERTEX_POINT('',#1189);
#399=VERTEX_POINT('',#1191);
#400=VERTEX_POINT('',#1193);
#401=VERTEX_POINT('',#1197);
#402=VERTEX_POINT('',#1198);
#403=VERTEX_POINT('',#1200);
#404=VERTEX_POINT('',#1202);
#405=VERTEX_POINT('',#1206);
#406=VERTEX_POINT('',#1207);
#407=VERTEX_POINT('',#1210);
#408=VERTEX_POINT('',#1212);
#409=VERTEX_POINT('',#1216);
#410=VERTEX_POINT('',#1218);
#411=VERTEX_POINT('',#1220);
#412=VERTEX_POINT('',#1222);
#413=VERTEX_POINT('',#1224);
#414=VERTEX_POINT('',#1228);
#415=VERTEX_POINT('',#1229);
#416=VERTEX_POINT('',#1231);
#417=VERTEX_POINT('',#1233);
#418=VERTEX_POINT('',#1236);
#419=VERTEX_POINT('',#1239);
#420=VERTEX_POINT('',#1243);
#421=VERTEX_POINT('',#1244);
#422=VERTEX_POINT('',#1246);
#423=VERTEX_POINT('',#1248);
#424=VERTEX_POINT('',#1255);
#425=VERTEX_POINT('',#1257);
#426=VERTEX_POINT('',#1261);
#427=VERTEX_POINT('',#1263);
#428=VERTEX_POINT('',#1267);
#429=VERTEX_POINT('',#1269);
#430=VERTEX_POINT('',#1273);
#431=VERTEX_POINT('',#1276);
#432=VERTEX_POINT('',#1279);
#433=VERTEX_POINT('',#1281);
#434=VERTEX_POINT('',#1286);
#435=VERTEX_POINT('',#1287);
#436=VERTEX_POINT('',#1289);
#437=VERTEX_POINT('',#1291);
#438=VERTEX_POINT('',#1294);
#439=VERTEX_POINT('',#1301);
#440=VERTEX_POINT('',#1307);
#441=VERTEX_POINT('',#1311);
#442=VERTEX_POINT('',#1315);
#443=VERTEX_POINT('',#1321);
#444=VERTEX_POINT('',#1323);
#445=VERTEX_POINT('',#1327);
#446=VERTEX_POINT('',#1331);
#447=VERTEX_POINT('',#1337);
#448=VERTEX_POINT('',#1341);
#449=VERTEX_POINT('',#1343);
#450=VERTEX_POINT('',#1347);
#451=VERTEX_POINT('',#1351);
#452=VERTEX_POINT('',#1357);
#453=LINE('',#1142,#562);
#454=LINE('',#1147,#563);
#455=LINE('',#1148,#564);
#456=LINE('',#1151,#565);
#457=LINE('',#1153,#566);
#458=LINE('',#1155,#567);
#459=LINE('',#1156,#568);
#460=LINE('',#1159,#569);
#461=LINE('',#1161,#570);
#462=LINE('',#1163,#571);
#463=LINE('',#1165,#572);
#464=LINE('',#1167,#573);
#465=LINE('',#1169,#574);
#466=LINE('',#1171,#575);
#467=LINE('',#1172,#576);
#468=LINE('',#1175,#577);
#469=LINE('',#1177,#578);
#470=LINE('',#1179,#579);
#471=LINE('',#1180,#580);
#472=LINE('',#1185,#581);
#473=LINE('',#1187,#582);
#474=LINE('',#1192,#583);
#475=LINE('',#1196,#584);
#476=LINE('',#1201,#585);
#477=LINE('',#1205,#586);
#478=LINE('',#1208,#587);
#479=LINE('',#1209,#588);
#480=LINE('',#1211,#589);
#481=LINE('',#1213,#590);
#482=LINE('',#1215,#591);
#483=LINE('',#1217,#592);
#484=LINE('',#1219,#593);
#485=LINE('',#1221,#594);
#486=LINE('',#1223,#595);
#487=LINE('',#1225,#596);
#488=LINE('',#1227,#597);
#489=LINE('',#1230,#598);
#490=LINE('',#1232,#599);
#491=LINE('',#1234,#600);
#492=LINE('',#1235,#601);
#493=LINE('',#1237,#602);
#494=LINE('',#1238,#603);
#495=LINE('',#1240,#604);
#496=LINE('',#1242,#605);
#497=LINE('',#1245,#606);
#498=LINE('',#1247,#607);
#499=LINE('',#1249,#608);
#500=LINE('',#1250,#609);
#501=LINE('',#1252,#610);
#502=LINE('',#1254,#611);
#503=LINE('',#1258,#612);
#504=LINE('',#1260,#613);
#505=LINE('',#1262,#614);
#506=LINE('',#1264,#615);
#507=LINE('',#1266,#616);
#508=LINE('',#1270,#617);
#509=LINE('',#1272,#618);
#510=LINE('',#1274,#619);
#511=LINE('',#1275,#620);
#512=LINE('',#1277,#621);
#513=LINE('',#1278,#622);
#514=LINE('',#1280,#623);
#515=LINE('',#1282,#624);
#516=LINE('',#1283,#625);
#517=LINE('',#1285,#626);
#518=LINE('',#1288,#627);
#519=LINE('',#1290,#628);
#520=LINE('',#1292,#629);
#521=LINE('',#1293,#630);
#522=LINE('',#1295,#631);
#523=LINE('',#1297,#632);
#524=LINE('',#1300,#633);
#525=LINE('',#1302,#634);
#526=LINE('',#1304,#635);
#527=LINE('',#1306,#636);
#528=LINE('',#1308,#637);
#529=LINE('',#1310,#638);
#530=LINE('',#1312,#639);
#531=LINE('',#1314,#640);
#532=LINE('',#1316,#641);
#533=LINE('',#1317,#642);
#534=LINE('',#1320,#643);
#535=LINE('',#1322,#644);
#536=LINE('',#1324,#645);
#537=LINE('',#1326,#646);
#538=LINE('',#1328,#647);
#539=LINE('',#1330,#648);
#540=LINE('',#1332,#649);
#541=LINE('',#1334,#650);
#542=LINE('',#1336,#651);
#543=LINE('',#1338,#652);
#544=LINE('',#1340,#653);
#545=LINE('',#1342,#654);
#546=LINE('',#1344,#655);
#547=LINE('',#1346,#656);
#548=LINE('',#1348,#657);
#549=LINE('',#1350,#658);
#550=LINE('',#1352,#659);
#551=LINE('',#1354,#660);
#552=LINE('',#1356,#661);
#553=LINE('',#1358,#662);
#554=LINE('',#1360,#663);
#555=LINE('',#1363,#664);
#556=LINE('',#1366,#665);
#557=LINE('',#1369,#666);
#558=LINE('',#1372,#667);
#559=LINE('',#1373,#668);
#560=LINE('',#1375,#669);
#561=LINE('',#1377,#670);
#562=VECTOR('',#931,1.);
#563=VECTOR('',#934,1.);
#564=VECTOR('',#935,1.);
#565=VECTOR('',#936,1.);
#566=VECTOR('',#937,1.);
#567=VECTOR('',#938,1.);
#568=VECTOR('',#939,1.);
#569=VECTOR('',#940,1.);
#570=VECTOR('',#941,1.);
#571=VECTOR('',#942,1.);
#572=VECTOR('',#943,1.);
#573=VECTOR('',#944,1.);
#574=VECTOR('',#945,1.);
#575=VECTOR('',#946,1.);
#576=VECTOR('',#947,1.);
#577=VECTOR('',#948,1.);
#578=VECTOR('',#949,1.);
#579=VECTOR('',#950,1.);
#580=VECTOR('',#951,1.);
#581=VECTOR('',#954,1.);
#582=VECTOR('',#957,1.);
#583=VECTOR('',#960,1.);
#584=VECTOR('',#965,1.);
#585=VECTOR('',#968,1.);
#586=VECTOR('',#973,1.);
#587=VECTOR('',#974,1.);
#588=VECTOR('',#975,1.);
#589=VECTOR('',#976,1.);
#590=VECTOR('',#977,1.);
#591=VECTOR('',#980,1.);
#592=VECTOR('',#981,1.);
#593=VECTOR('',#982,1.);
#594=VECTOR('',#983,1.);
#595=VECTOR('',#984,1.);
#596=VECTOR('',#985,1.);
#597=VECTOR('',#988,1.);
#598=VECTOR('',#989,1.);
#599=VECTOR('',#990,1.);
#600=VECTOR('',#991,1.);
#601=VECTOR('',#992,1.);
#602=VECTOR('',#993,1.);
#603=VECTOR('',#994,1.);
#604=VECTOR('',#995,1.);
#605=VECTOR('',#998,1.);
#606=VECTOR('',#999,1.);
#607=VECTOR('',#1000,1.);
#608=VECTOR('',#1001,1.);
#609=VECTOR('',#1002,1.);
#610=VECTOR('',#1005,1.);
#611=VECTOR('',#1008,1.);
#612=VECTOR('',#1011,1.);
#613=VECTOR('',#1014,1.);
#614=VECTOR('',#1015,1.);
#615=VECTOR('',#1016,1.);
#616=VECTOR('',#1019,1.);
#617=VECTOR('',#1022,1.);
#618=VECTOR('',#1025,1.);
#619=VECTOR('',#1026,1.);
#620=VECTOR('',#1027,1.);
#621=VECTOR('',#1028,1.);
#622=VECTOR('',#1029,1.);
#623=VECTOR('',#1030,1.);
#624=VECTOR('',#1031,1.);
#625=VECTOR('',#1032,1.);
#626=VECTOR('',#1035,1.);
#627=VECTOR('',#1036,1.);
#628=VECTOR('',#1037,1.);
#629=VECTOR('',#1038,1.);
#630=VECTOR('',#1039,1.);
#631=VECTOR('',#1040,1.);
#632=VECTOR('',#1043,1.);
#633=VECTOR('',#1048,1.);
#634=VECTOR('',#1049,1.);
#635=VECTOR('',#1052,1.);
#636=VECTOR('',#1055,1.);
#637=VECTOR('',#1056,1.);
#638=VECTOR('',#1059,1.);
#639=VECTOR('',#1060,1.);
#640=VECTOR('',#1063,1.);
#641=VECTOR('',#1064,1.);
#642=VECTOR('',#1065,1.);
#643=VECTOR('',#1070,1.);
#644=VECTOR('',#1071,1.);
#645=VECTOR('',#1072,1.);
#646=VECTOR('',#1075,1.);
#647=VECTOR('',#1076,1.);
#648=VECTOR('',#1079,1.);
#649=VECTOR('',#1080,1.);
#650=VECTOR('',#1083,1.);
#651=VECTOR('',#1086,1.);
#652=VECTOR('',#1087,1.);
#653=VECTOR('',#1090,1.);
#654=VECTOR('',#1091,1.);
#655=VECTOR('',#1092,1.);
#656=VECTOR('',#1095,1.);
#657=VECTOR('',#1096,1.);
#658=VECTOR('',#1099,1.);
#659=VECTOR('',#1100,1.);
#660=VECTOR('',#1103,1.);
#661=VECTOR('',#1106,1.);
#662=VECTOR('',#1107,1.);
#663=VECTOR('',#1110,1.);
#664=VECTOR('',#1115,1.);
#665=VECTOR('',#1120,1.);
#666=VECTOR('',#1125,1.);
#667=VECTOR('',#1130,1.);
#668=VECTOR('',#1131,1.);
#669=VECTOR('',#1134,1.);
#670=VECTOR('',#1137,1.);
#671=EDGE_LOOP('',(#24,#25,#26));
#672=EDGE_LOOP('',(#27,#28,#29,#30));
#673=EDGE_LOOP('',(#31,#32,#33,#34,#35,#36,#37,#38));
#674=EDGE_LOOP('',(#39,#40,#41,#42));
#675=EDGE_LOOP('',(#43,#44,#45));
#676=EDGE_LOOP('',(#46,#47,#48,#49));
#677=EDGE_LOOP('',(#50,#51,#52,#53));
#678=EDGE_LOOP('',(#54,#55,#56,#57,#58,#59));
#679=EDGE_LOOP('',(#60,#61,#62,#63,#64,#65,#66,#67));
#680=EDGE_LOOP('',(#68,#69,#70,#71));
#681=EDGE_LOOP('',(#72,#73,#74,#75,#76,#77));
#682=EDGE_LOOP('',(#78,#79,#80,#81,#82,#83));
#683=EDGE_LOOP('',(#84,#85,#86,#87));
#684=EDGE_LOOP('',(#88,#89,#90,#91));
#685=EDGE_LOOP('',(#92,#93,#94,#95,#96,#97));
#686=EDGE_LOOP('',(#98,#99,#100,#101));
#687=EDGE_LOOP('',(#102,#103,#104));
#688=EDGE_LOOP('',(#105,#106,#107));
#689=EDGE_LOOP('',(#108,#109,#110,#111,#112,#113,#114,#115,#116,#117));
#690=EDGE_LOOP('',(#118,#119,#120,#121));
#691=EDGE_LOOP('',(#122,#123,#124,#125));
#692=EDGE_LOOP('',(#126,#127,#128,#129));
#693=EDGE_LOOP('',(#130,#131,#132,#133));
#694=EDGE_LOOP('',(#134,#135,#136,#137));
#695=EDGE_LOOP('',(#138,#139,#140,#141));
#696=EDGE_LOOP('',(#142,#143,#144));
#697=EDGE_LOOP('',(#145,#146,#147,#148));
#698=EDGE_LOOP('',(#149,#150,#151,#152));
#699=EDGE_LOOP('',(#153,#154,#155));
#700=EDGE_LOOP('',(#156,#157,#158,#159));
#701=EDGE_LOOP('',(#160,#161,#162,#163));
#702=EDGE_LOOP('',(#164,#165,#166,#167));
#703=EDGE_LOOP('',(#168,#169,#170,#171));
#704=EDGE_LOOP('',(#172,#173,#174,#175));
#705=EDGE_LOOP('',(#176,#177,#178,#179));
#706=EDGE_LOOP('',(#180,#181,#182));
#707=EDGE_LOOP('',(#183,#184,#185,#186));
#708=EDGE_LOOP('',(#187,#188,#189,#190));
#709=EDGE_LOOP('',(#191,#192,#193,#194));
#710=EDGE_LOOP('',(#195,#196,#197,#198));
#711=EDGE_LOOP('',(#199,#200,#201,#202));
#712=EDGE_LOOP('',(#203,#204,#205));
#713=EDGE_LOOP('',(#206,#207,#208,#209));
#714=EDGE_LOOP('',(#210,#211,#212,#213));
#715=EDGE_LOOP('',(#214,#215,#216,#217));
#716=EDGE_LOOP('',(#218,#219,#220,#221));
#717=EDGE_LOOP('',(#222,#223,#224,#225));
#718=EDGE_LOOP('',(#226,#227,#228,#229));
#719=EDGE_LOOP('',(#230,#231,#232,#233));
#720=EDGE_LOOP('',(#234,#235,#236,#237));
#721=EDGE_LOOP('',(#238,#239,#240,#241));
#722=EDGE_LOOP('',(#242,#243,#244,#245));
#723=EDGE_LOOP('',(#246,#247,#248,#249));
#724=EDGE_LOOP('',(#250,#251,#252,#253));
#725=EDGE_LOOP('',(#254,#255,#256,#257));
#726=FACE_BOUND('',#671,.T.);
#727=FACE_BOUND('',#672,.T.);
#728=FACE_BOUND('',#673,.T.);
#729=FACE_BOUND('',#674,.T.);
#730=FACE_BOUND('',#675,.T.);
#731=FACE_BOUND('',#676,.T.);
#732=FACE_BOUND('',#677,.T.);
#733=FACE_BOUND('',#678,.T.);
#734=FACE_BOUND('',#679,.T.);
#735=FACE_BOUND('',#680,.T.);
#736=FACE_BOUND('',#681,.T.);
#737=FACE_BOUND('',#682,.T.);
#738=FACE_BOUND('',#683,.T.);
#739=FACE_BOUND('',#684,.T.);
#740=FACE_BOUND('',#685,.T.);
#741=FACE_BOUND('',#686,.T.);
#742=FACE_BOUND('',#687,.T.);
#743=FACE_BOUND('',#688,.T.);
#744=FACE_BOUND('',#689,.T.);
#745=FACE_BOUND('',#690,.T.);
#746=FACE_BOUND('',#691,.T.);
#747=FACE_BOUND('',#692,.T.);
#748=FACE_BOUND('',#693,.T.);
#749=FACE_BOUND('',#694,.T.);
#750=FACE_BOUND('',#695,.T.);
#751=FACE_BOUND('',#696,.T.);
#752=FACE_BOUND('',#697,.T.);
#753=FACE_BOUND('',#698,.T.);
#754=FACE_BOUND('',#699,.T.);
#755=FACE_BOUND('',#700,.T.);
#756=FACE_BOUND('',#701,.T.);
#757=FACE_BOUND('',#702,.T.);
#758=FACE_BOUND('',#703,.T.);
#759=FACE_BOUND('',#704,.T.);
#760=FACE_BOUND('',#705,.T.);
#761=FACE_BOUND('',#706,.T.);
#762=FACE_BOUND('',#707,.T.);
#763=FACE_BOUND('',#708,.T.);
#764=FACE_BOUND('',#709,.T.);
#765=FACE_BOUND('',#710,.T.);
#766=FACE_BOUND('',#711,.T.);
#767=FACE_BOUND('',#712,.T.);
#768=FACE_BOUND('',#713,.T.);
#769=FACE_BOUND('',#714,.T.);
#770=FACE_BOUND('',#715,.T.);
#771=FACE_BOUND('',#716,.T.);
#772=FACE_BOUND('',#717,.T.);
#773=FACE_BOUND('',#718,.T.);
#774=FACE_BOUND('',#719,.T.);
#775=FACE_BOUND('',#720,.T.);
#776=FACE_BOUND('',#721,.T.);
#777=FACE_BOUND('',#722,.T.);
#778=FACE_BOUND('',#723,.T.);
#779=FACE_BOUND('',#724,.T.);
#780=FACE_BOUND('',#725,.T.);
#781=PLANE('',#876);
#782=PLANE('',#885);
#783=PLANE('',#886);
#784=PLANE('',#887);
#785=PLANE('',#888);
#786=PLANE('',#889);
#787=PLANE('',#892);
#788=PLANE('',#895);
#789=PLANE('',#896);
#790=PLANE('',#897);
#791=PLANE('',#898);
#792=PLANE('',#899);
#793=PLANE('',#900);
#794=PLANE('',#901);
#795=PLANE('',#902);
#796=PLANE('',#903);
#797=PLANE('',#904);
#798=PLANE('',#905);
#799=PLANE('',#906);
#800=PLANE('',#907);
#801=PLANE('',#908);
#802=PLANE('',#909);
#803=PLANE('',#910);
#804=PLANE('',#911);
#805=PLANE('',#912);
#806=PLANE('',#913);
#807=PLANE('',#914);
#808=PLANE('',#915);
#809=PLANE('',#916);
#810=PLANE('',#917);
#811=PLANE('',#918);
#812=PLANE('',#919);
#813=PLANE('',#920);
#814=PLANE('',#921);
#815=PLANE('',#922);
#816=PLANE('',#923);
#817=PLANE('',#924);
#818=PLANE('',#925);
#819=PLANE('',#926);
#820=ADVANCED_FACE('',(#726,#727,#728,#729,#730),#781,.F.);
#821=ADVANCED_FACE('',(#731),#12,.F.);
#822=ADVANCED_FACE('',(#732),#13,.F.);
#823=ADVANCED_FACE('',(#733),#782,.F.);
#824=ADVANCED_FACE('',(#734),#783,.T.);
#825=ADVANCED_FACE('',(#735,#736),#784,.F.);
#826=ADVANCED_FACE('',(#737),#785,.F.);
#827=ADVANCED_FACE('',(#738),#786,.T.);
#828=ADVANCED_FACE('',(#739),#14,.F.);
#829=ADVANCED_FACE('',(#740),#787,.F.);
#830=ADVANCED_FACE('',(#741),#15,.F.);
#831=ADVANCED_FACE('',(#742,#743,#744),#788,.T.);
#832=ADVANCED_FACE('',(#745,#746),#789,.F.);
#833=ADVANCED_FACE('',(#747),#790,.F.);
#834=ADVANCED_FACE('',(#748),#791,.F.);
#835=ADVANCED_FACE('',(#749),#792,.F.);
#836=ADVANCED_FACE('',(#750),#793,.T.);
#837=ADVANCED_FACE('',(#751,#752),#794,.T.);
#838=ADVANCED_FACE('',(#753),#795,.F.);
#839=ADVANCED_FACE('',(#754,#755),#796,.T.);
#840=ADVANCED_FACE('',(#756),#797,.T.);
#841=ADVANCED_FACE('',(#757),#798,.T.);
#842=ADVANCED_FACE('',(#758),#799,.F.);
#843=ADVANCED_FACE('',(#759),#800,.F.);
#844=ADVANCED_FACE('',(#760),#801,.T.);
#845=ADVANCED_FACE('',(#761,#762),#802,.T.);
#846=ADVANCED_FACE('',(#763),#803,.T.);
#847=ADVANCED_FACE('',(#764),#804,.F.);
#848=ADVANCED_FACE('',(#765),#805,.F.);
#849=ADVANCED_FACE('',(#766),#806,.T.);
#850=ADVANCED_FACE('',(#767,#768),#807,.T.);
#851=ADVANCED_FACE('',(#769),#808,.T.);
#852=ADVANCED_FACE('',(#770),#809,.T.);
#853=ADVANCED_FACE('',(#771),#810,.T.);
#854=ADVANCED_FACE('',(#772),#811,.T.);
#855=ADVANCED_FACE('',(#773),#812,.T.);
#856=ADVANCED_FACE('',(#774),#813,.T.);
#857=ADVANCED_FACE('',(#775),#814,.T.);
#858=ADVANCED_FACE('',(#776),#815,.T.);
#859=ADVANCED_FACE('',(#777),#816,.F.);
#860=ADVANCED_FACE('',(#778),#817,.F.);
#861=ADVANCED_FACE('',(#779),#818,.T.);
#862=ADVANCED_FACE('',(#780),#819,.T.);
#863=CLOSED_SHELL('',(#820,#821,#822,#823,#824,#825,#826,#827,#828,#829,
#830,#831,#832,#833,#834,#835,#836,#837,#838,#839,#840,#841,#842,#843,#844,
#845,#846,#847,#848,#849,#850,#851,#852,#853,#854,#855,#856,#857,#858,#859,
#860,#861,#862));
#864=STYLED_ITEM('',(#865),#872);
#865=PRESENTATION_STYLE_ASSIGNMENT((#866));
#866=SURFACE_STYLE_USAGE(.BOTH.,#867);
#867=SURFACE_SIDE_STYLE('',(#868));
#868=SURFACE_STYLE_FILL_AREA(#869);
#869=FILL_AREA_STYLE('',(#870));
#870=FILL_AREA_STYLE_COLOUR('',#871);
#871=COLOUR_RGB('',0.129411764705882,0.341176470588236,0.352941176470589);
#872=MANIFOLD_SOLID_BREP('Front Left Top Plate',#863);
#873=SHAPE_DEFINITION_REPRESENTATION(#1385,#874);
#874=SHAPE_REPRESENTATION('Front Left Top Plate',(#875),#1380);
#875=AXIS2_PLACEMENT_3D('',#1140,#927,#928);
#876=AXIS2_PLACEMENT_3D('',#1141,#929,#930);
#877=AXIS2_PLACEMENT_3D('',#1145,#932,#933);
#878=AXIS2_PLACEMENT_3D('',#1183,#952,#953);
#879=AXIS2_PLACEMENT_3D('',#1186,#955,#956);
#880=AXIS2_PLACEMENT_3D('',#1190,#958,#959);
#881=AXIS2_PLACEMENT_3D('',#1194,#961,#962);
#882=AXIS2_PLACEMENT_3D('',#1195,#963,#964);
#883=AXIS2_PLACEMENT_3D('',#1199,#966,#967);
#884=AXIS2_PLACEMENT_3D('',#1203,#969,#970);
#885=AXIS2_PLACEMENT_3D('',#1204,#971,#972);
#886=AXIS2_PLACEMENT_3D('',#1214,#978,#979);
#887=AXIS2_PLACEMENT_3D('',#1226,#986,#987);
#888=AXIS2_PLACEMENT_3D('',#1241,#996,#997);
#889=AXIS2_PLACEMENT_3D('',#1251,#1003,#1004);
#890=AXIS2_PLACEMENT_3D('',#1253,#1006,#1007);
#891=AXIS2_PLACEMENT_3D('',#1256,#1009,#1010);
#892=AXIS2_PLACEMENT_3D('',#1259,#1012,#1013);
#893=AXIS2_PLACEMENT_3D('',#1265,#1017,#1018);
#894=AXIS2_PLACEMENT_3D('',#1268,#1020,#1021);
#895=AXIS2_PLACEMENT_3D('',#1271,#1023,#1024);
#896=AXIS2_PLACEMENT_3D('',#1284,#1033,#1034);
#897=AXIS2_PLACEMENT_3D('',#1296,#1041,#1042);
#898=AXIS2_PLACEMENT_3D('',#1298,#1044,#1045);
#899=AXIS2_PLACEMENT_3D('',#1299,#1046,#1047);
#900=AXIS2_PLACEMENT_3D('',#1303,#1050,#1051);
#901=AXIS2_PLACEMENT_3D('',#1305,#1053,#1054);
#902=AXIS2_PLACEMENT_3D('',#1309,#1057,#1058);
#903=AXIS2_PLACEMENT_3D('',#1313,#1061,#1062);
#904=AXIS2_PLACEMENT_3D('',#1318,#1066,#1067);
#905=AXIS2_PLACEMENT_3D('',#1319,#1068,#1069);
#906=AXIS2_PLACEMENT_3D('',#1325,#1073,#1074);
#907=AXIS2_PLACEMENT_3D('',#1329,#1077,#1078);
#908=AXIS2_PLACEMENT_3D('',#1333,#1081,#1082);
#909=AXIS2_PLACEMENT_3D('',#1335,#1084,#1085);
#910=AXIS2_PLACEMENT_3D('',#1339,#1088,#1089);
#911=AXIS2_PLACEMENT_3D('',#1345,#1093,#1094);
#912=AXIS2_PLACEMENT_3D('',#1349,#1097,#1098);
#913=AXIS2_PLACEMENT_3D('',#1353,#1101,#1102);
#914=AXIS2_PLACEMENT_3D('',#1355,#1104,#1105);
#915=AXIS2_PLACEMENT_3D('',#1359,#1108,#1109);
#916=AXIS2_PLACEMENT_3D('',#1361,#1111,#1112);
#917=AXIS2_PLACEMENT_3D('',#1362,#1113,#1114);
#918=AXIS2_PLACEMENT_3D('',#1364,#1116,#1117);
#919=AXIS2_PLACEMENT_3D('',#1365,#1118,#1119);
#920=AXIS2_PLACEMENT_3D('',#1367,#1121,#1122);
#921=AXIS2_PLACEMENT_3D('',#1368,#1123,#1124);
#922=AXIS2_PLACEMENT_3D('',#1370,#1126,#1127);
#923=AXIS2_PLACEMENT_3D('',#1371,#1128,#1129);
#924=AXIS2_PLACEMENT_3D('',#1374,#1132,#1133);
#925=AXIS2_PLACEMENT_3D('',#1376,#1135,#1136);
#926=AXIS2_PLACEMENT_3D('',#1378,#1138,#1139);
#927=DIRECTION('',(0.,0.,1.));
#928=DIRECTION('',(1.,0.,0.));
#929=DIRECTION('',(1.82602471155453E-16,0.,1.));
#930=DIRECTION('',(1.,0.,-1.82602471155453E-16));
#931=DIRECTION('',(0.866025403784439,0.5,-1.58138378814437E-16));
#932=DIRECTION('',(1.82602471155453E-16,0.,1.));
#933=DIRECTION('',(1.,0.,-1.82602471155453E-16));
#934=DIRECTION('',(-0.866025403784438,0.5,0.));
#935=DIRECTION('',(0.,-1.,0.));
#936=DIRECTION('',(1.,0.,-1.82602471155453E-16));
#937=DIRECTION('',(0.,-1.,0.));
#938=DIRECTION('',(1.,0.,-1.82602471155453E-16));
#939=DIRECTION('',(-1.,0.,1.82602471155453E-16));
#940=DIRECTION('',(0.,1.,0.));
#941=DIRECTION('',(-1.,0.,1.82602471155453E-16));
#942=DIRECTION('',(0.,-1.,0.));
#943=DIRECTION('',(1.,0.,-1.82602471155453E-16));
#944=DIRECTION('',(0.,-1.,0.));
#945=DIRECTION('',(1.,0.,-1.82602471155453E-16));
#946=DIRECTION('',(0.,1.,0.));
#947=DIRECTION('',(1.,0.,-1.82602471155453E-16));
#948=DIRECTION('',(0.,1.,0.));
#949=DIRECTION('',(1.,0.,-1.82602471155453E-16));
#950=DIRECTION('',(0.,1.,0.));
#951=DIRECTION('',(0.866025403784439,0.5,-1.58138378814437E-16));
#952=DIRECTION('',(1.82602471155453E-16,0.,1.));
#953=DIRECTION('',(1.,0.,-1.82602471155453E-16));
#954=DIRECTION('',(-0.866025403784438,0.5,0.));
#955=DIRECTION('',(1.82602471155453E-16,0.,1.));
#956=DIRECTION('',(1.,0.,-1.82602471155453E-16));
#957=DIRECTION('',(1.82602471155453E-16,0.,1.));
#958=DIRECTION('',(-1.82602471155453E-16,0.,-1.));
#959=DIRECTION('',(-1.,0.,1.82602471155453E-16));
#960=DIRECTION('',(-1.82602471155453E-16,0.,-1.));
#961=DIRECTION('',(1.82602471155453E-16,0.,1.));
#962=DIRECTION('',(1.,0.,-1.82602471155453E-16));
#963=DIRECTION('',(1.82602471155453E-16,0.,1.));
#964=DIRECTION('',(1.,0.,-1.82602471155453E-16));
#965=DIRECTION('',(1.82602471155453E-16,0.,1.));
#966=DIRECTION('',(-1.82602471155453E-16,0.,-1.));
#967=DIRECTION('',(-1.,0.,1.82602471155453E-16));
#968=DIRECTION('',(-1.82602471155453E-16,0.,-1.));
#969=DIRECTION('',(1.82602471155453E-16,0.,1.));
#970=DIRECTION('',(1.,0.,-1.82602471155453E-16));
#971=DIRECTION('',(0.,-1.,0.));
#972=DIRECTION('',(0.,0.,-1.));
#973=DIRECTION('',(-1.,0.,1.82602471155453E-16));
#974=DIRECTION('',(-1.82602471155453E-16,0.,-1.));
#975=DIRECTION('',(-1.82602471155453E-16,0.,-1.));
#976=DIRECTION('',(-1.,0.,1.82602471155453E-16));
#977=DIRECTION('',(1.82602471155453E-16,0.,1.));
#978=DIRECTION('',(1.,0.,-1.82602471155453E-16));
#979=DIRECTION('',(-1.82602471155453E-16,0.,-1.));
#980=DIRECTION('',(0.,-1.,0.));
#981=DIRECTION('',(1.82602471155453E-16,0.,1.));
#982=DIRECTION('',(0.,-1.,0.));
#983=DIRECTION('',(0.,0.,-1.));
#984=DIRECTION('',(0.,1.,0.));
#985=DIRECTION('',(0.,0.,-1.));
#986=DIRECTION('',(0.,1.,0.));
#987=DIRECTION('',(0.,0.,1.));
#988=DIRECTION('',(0.,0.,1.));
#989=DIRECTION('',(-1.,0.,0.));
#990=DIRECTION('',(0.,0.,1.));
#991=DIRECTION('',(-1.,0.,2.16840434497102E-16));
#992=DIRECTION('',(0.,0.,-1.));
#993=DIRECTION('',(1.,0.,0.));
#994=DIRECTION('',(1.,0.,-1.82602471155453E-16));
#995=DIRECTION('',(-1.82602471155453E-16,0.,-1.));
#996=DIRECTION('',(0.,-1.,0.));
#997=DIRECTION('',(0.,0.,-1.));
#998=DIRECTION('',(-1.,0.,1.82602471155453E-16));
#999=DIRECTION('',(-1.82602471155453E-16,0.,-1.));
#1000=DIRECTION('',(-1.,0.,1.82602471155453E-16));
#1001=DIRECTION('',(-1.82602471155453E-16,0.,-1.));
#1002=DIRECTION('',(-1.82602471155453E-16,0.,-1.));
#1003=DIRECTION('',(-1.,0.,1.82602471155453E-16));
#1004=DIRECTION('',(1.82602471155453E-16,0.,1.));
#1005=DIRECTION('',(0.,1.,0.));
#1006=DIRECTION('',(-1.82602471155453E-16,0.,-1.));
#1007=DIRECTION('',(-1.,0.,1.82602471155453E-16));
#1008=DIRECTION('',(-1.82602471155453E-16,0.,-1.));
#1009=DIRECTION('',(1.82602471155453E-16,0.,1.));
#1010=DIRECTION('',(1.,0.,-1.82602471155453E-16));
#1011=DIRECTION('',(1.82602471155453E-16,0.,1.));
#1012=DIRECTION('',(-1.,0.,1.82602471155453E-16));
#1013=DIRECTION('',(1.82602471155453E-16,0.,1.));
#1014=DIRECTION('',(0.,-1.,0.));
#1015=DIRECTION('',(1.82602471155453E-16,0.,1.));
#1016=DIRECTION('',(0.,1.,0.));
#1017=DIRECTION('',(-1.82602471155453E-16,0.,-1.));
#1018=DIRECTION('',(-1.,0.,1.82602471155453E-16));
#1019=DIRECTION('',(-1.82602471155453E-16,0.,-1.));
#1020=DIRECTION('',(1.82602471155453E-16,0.,1.));
#1021=DIRECTION('',(1.,0.,-1.82602471155453E-16));
#1022=DIRECTION('',(1.82602471155453E-16,0.,1.));
#1023=DIRECTION('',(1.82602471155453E-16,0.,1.));
#1024=DIRECTION('',(1.,0.,-1.82602471155453E-16));
#1025=DIRECTION('',(-0.866025403784438,0.5,1.58138378814437E-16));
#1026=DIRECTION('',(0.866025403784438,0.5,0.));
#1027=DIRECTION('',(-0.866025403784438,0.5,1.58138378814437E-16));
#1028=DIRECTION('',(0.866025403784438,0.5,0.));
#1029=DIRECTION('',(0.,-1.,0.));
#1030=DIRECTION('',(-1.,0.,1.82602471155453E-16));
#1031=DIRECTION('',(0.,-1.,0.));
#1032=DIRECTION('',(-1.,0.,1.82602471155453E-16));
#1033=DIRECTION('',(0.,-1.,0.));
#1034=DIRECTION('',(1.,0.,0.));
#1035=DIRECTION('',(0.,0.,1.));
#1036=DIRECTION('',(-1.,0.,0.));
#1037=DIRECTION('',(0.,0.,1.));
#1038=DIRECTION('',(-1.,0.,2.16840434497102E-16));
#1039=DIRECTION('',(0.,0.,-1.));
#1040=DIRECTION('',(1.,0.,0.));
#1041=DIRECTION('',(1.,0.,0.));
#1042=DIRECTION('',(0.,0.,-1.));
#1043=DIRECTION('',(0.,1.,0.));
#1044=DIRECTION('',(0.,0.,1.));
#1045=DIRECTION('',(1.,0.,0.));
#1046=DIRECTION('',(-1.,0.,1.82602471155453E-16));
#1047=DIRECTION('',(1.82602471155453E-16,0.,1.));
#1048=DIRECTION('',(1.82602471155453E-16,0.,1.));
#1049=DIRECTION('',(0.,-1.,0.));
#1050=DIRECTION('',(0.,1.,0.));
#1051=DIRECTION('',(0.,0.,1.));
#1052=DIRECTION('',(-1.,0.,1.82602471155453E-16));
#1053=DIRECTION('',(1.82602471155453E-16,0.,1.));
#1054=DIRECTION('',(1.,0.,-1.82602471155453E-16));
#1055=DIRECTION('',(-0.86602540378444,0.5,1.58138378814437E-16));
#1056=DIRECTION('',(0.866025403784441,0.5,0.));
#1057=DIRECTION('',(-1.,0.,1.82602471155453E-16));
#1058=DIRECTION('',(1.82602471155453E-16,0.,1.));
#1059=DIRECTION('',(1.82602471155453E-16,0.,1.));
#1060=DIRECTION('',(0.,-1.,0.));
#1061=DIRECTION('',(1.82602471155453E-16,0.,1.));
#1062=DIRECTION('',(1.,0.,-1.82602471155453E-16));
#1063=DIRECTION('',(-0.86602540378444,0.5,1.58138378814437E-16));
#1064=DIRECTION('',(0.866025403784441,0.5,0.));
#1065=DIRECTION('',(-1.,0.,1.82602471155453E-16));
#1066=DIRECTION('',(0.,1.,0.));
#1067=DIRECTION('',(0.,0.,1.));
#1068=DIRECTION('',(1.,0.,-1.82602471155453E-16));
#1069=DIRECTION('',(-1.82602471155453E-16,0.,-1.));
#1070=DIRECTION('',(-1.82602471155453E-16,0.,-1.));
#1071=DIRECTION('',(0.,-1.,0.));
#1072=DIRECTION('',(-1.82602471155453E-16,0.,-1.));
#1073=DIRECTION('',(0.,1.,0.));
#1074=DIRECTION('',(0.,0.,1.));
#1075=DIRECTION('',(-1.82602471155453E-16,0.,-1.));
#1076=DIRECTION('',(1.,0.,-1.82602471155453E-16));
#1077=DIRECTION('',(1.,0.,-1.82602471155453E-16));
#1078=DIRECTION('',(-1.82602471155453E-16,0.,-1.));
#1079=DIRECTION('',(-1.82602471155453E-16,0.,-1.));
#1080=DIRECTION('',(0.,-1.,0.));
#1081=DIRECTION('',(0.,1.,0.));
#1082=DIRECTION('',(0.,0.,1.));
#1083=DIRECTION('',(1.,0.,-1.82602471155453E-16));
#1084=DIRECTION('',(-1.82602471155453E-16,0.,-1.));
#1085=DIRECTION('',(1.,0.,-1.82602471155453E-16));
#1086=DIRECTION('',(0.86602540378444,0.5,-1.58138378814437E-16));
#1087=DIRECTION('',(-0.866025403784441,0.5,3.00462919747433E-15));
#1088=DIRECTION('',(0.,1.,0.));
#1089=DIRECTION('',(0.,0.,1.));
#1090=DIRECTION('',(-1.82602471155453E-16,0.,-1.));
#1091=DIRECTION('',(1.,0.,-1.82602471155453E-16));
#1092=DIRECTION('',(-1.82602471155453E-16,0.,-1.));
#1093=DIRECTION('',(-1.,0.,1.82602471155453E-16));
#1094=DIRECTION('',(1.82602471155453E-16,0.,1.));
#1095=DIRECTION('',(-1.82602471155453E-16,0.,-1.));
#1096=DIRECTION('',(0.,1.,0.));
#1097=DIRECTION('',(0.,1.,0.));
#1098=DIRECTION('',(0.,0.,1.));
#1099=DIRECTION('',(-1.82602471155453E-16,0.,-1.));
#1100=DIRECTION('',(1.,0.,-1.82602471155453E-16));
#1101=DIRECTION('',(-1.,0.,1.82602471155453E-16));
#1102=DIRECTION('',(1.82602471155453E-16,0.,1.));
#1103=DIRECTION('',(0.,1.,0.));
#1104=DIRECTION('',(-1.82602471155453E-16,0.,-1.));
#1105=DIRECTION('',(1.,0.,-1.82602471155453E-16));
#1106=DIRECTION('',(0.86602540378444,0.5,-1.58138378814437E-16));
#1107=DIRECTION('',(-0.866025403784441,0.5,0.));
#1108=DIRECTION('',(0.5,-0.86602540378444,-9.13012355777262E-17));
#1109=DIRECTION('',(0.86602540378444,0.5,0.));
#1110=DIRECTION('',(1.82602471155453E-16,0.,1.));
#1111=DIRECTION('',(-0.5,-0.86602540378444,9.13012355777262E-17));
#1112=DIRECTION('',(0.86602540378444,-0.5,0.));
#1113=DIRECTION('',(0.5,-0.86602540378444,-9.13012355777262E-17));
#1114=DIRECTION('',(0.86602540378444,0.5,0.));
#1115=DIRECTION('',(1.82602471155453E-16,1.90683135537552E-33,1.));
#1116=DIRECTION('',(-0.5,-0.86602540378444,9.13012355777262E-17));
#1117=DIRECTION('',(0.86602540378444,-0.5,0.));
#1118=DIRECTION('',(0.5,-0.866025403784439,-9.13012355777266E-17));
#1119=DIRECTION('',(0.866025403784439,0.5,0.));
#1120=DIRECTION('',(-1.82602471155453E-16,-1.42327829994538E-32,-1.));
#1121=DIRECTION('',(-0.5,-0.866025403784438,9.13012355777266E-17));
#1122=DIRECTION('',(0.866025403784438,-0.5,0.));
#1123=DIRECTION('',(0.5,-0.866025403784439,-9.13012355777266E-17));
#1124=DIRECTION('',(0.866025403784439,0.5,0.));
#1125=DIRECTION('',(-1.82602471155453E-16,-1.42327829994538E-32,-1.));
#1126=DIRECTION('',(-0.5,-0.866025403784438,9.13012355777266E-17));
#1127=DIRECTION('',(0.866025403784438,-0.5,0.));
#1128=DIRECTION('',(0.,0.,-1.));
#1129=DIRECTION('',(-1.,0.,0.));
#1130=DIRECTION('',(0.,1.,0.));
#1131=DIRECTION('',(0.,1.,0.));
#1132=DIRECTION('',(-1.,0.,0.));
#1133=DIRECTION('',(0.,0.,1.));
#1134=DIRECTION('',(0.,1.,0.));
#1135=DIRECTION('',(-2.16840434497102E-16,0.,-1.));
#1136=DIRECTION('',(-1.,0.,2.16840434497102E-16));
#1137=DIRECTION('',(0.,1.,0.));
#1138=DIRECTION('',(-1.,0.,0.));
#1139=DIRECTION('',(0.,0.,1.));
#1140=CARTESIAN_POINT('',(0.,0.,0.));
#1141=CARTESIAN_POINT('',(-0.175,0.20499875,0.02));
#1142=CARTESIAN_POINT('',(-0.185944461605039,0.223955113561414,0.02));
#1143=CARTESIAN_POINT('',(-0.36150007023181,0.122598198468988,0.0199996122137106));
#1144=CARTESIAN_POINT('',(-0.36,0.123464101615138,0.02));
#1145=CARTESIAN_POINT('',(-0.36,0.12,0.02));
#1146=CARTESIAN_POINT('',(-0.358498367860695,0.122597378773236,0.019999986210451));
#1147=CARTESIAN_POINT('',(-0.3585,0.122598076211353,0.02));
#1148=CARTESIAN_POINT('',(-0.2485,0.1075,0.02));
#1149=CARTESIAN_POINT('',(-0.2485,0.1105,0.02));
#1150=CARTESIAN_POINT('',(-0.2485,0.1045,0.02));
#1151=CARTESIAN_POINT('',(-0.2455,0.1045,0.02));
#1152=CARTESIAN_POINT('',(-0.2425,0.1045,0.02));
#1153=CARTESIAN_POINT('',(-0.2425,0.1075,0.02));
#1154=CARTESIAN_POINT('',(-0.2425,0.1105,0.02));
#1155=CARTESIAN_POINT('',(-0.2455,0.1105,0.02));
#1156=CARTESIAN_POINT('',(-0.32565,0.13,0.02));
#1157=CARTESIAN_POINT('',(-0.2813,0.13,0.02));
#1158=CARTESIAN_POINT('',(-0.37,0.13,0.02));
#1159=CARTESIAN_POINT('',(-0.2813,0.1215,0.02));
#1160=CARTESIAN_POINT('',(-0.2813,0.113,0.02));
#1161=CARTESIAN_POINT('',(-0.26065,0.113,0.02));
#1162=CARTESIAN_POINT('',(-0.24,0.113,0.02));
#1163=CARTESIAN_POINT('',(-0.24,0.101500000000004,0.02));
#1164=CARTESIAN_POINT('',(-0.24,0.0900000000000072,0.02));
#1165=CARTESIAN_POINT('',(-0.305,0.0900000000000072,0.02));
#1166=CARTESIAN_POINT('',(-0.35,0.0900000000000072,0.02));
#1167=CARTESIAN_POINT('',(-0.35,0.0850000000000072,0.02));
#1168=CARTESIAN_POINT('',(-0.35,0.0850000000000072,0.02));
#1169=CARTESIAN_POINT('',(-0.305,0.0850000000000072,0.02));
#1170=CARTESIAN_POINT('',(-0.37,0.0850000000000072,0.02));
#1171=CARTESIAN_POINT('',(-0.37,0.110000000000004,0.02));
#1172=CARTESIAN_POINT('',(-0.2868,0.1215,0.02));
#1173=CARTESIAN_POINT('',(-0.2898,0.1215,0.02));
#1174=CARTESIAN_POINT('',(-0.2838,0.1215,0.02));
#1175=CARTESIAN_POINT('',(-0.2838,0.1245,0.02));
#1176=CARTESIAN_POINT('',(-0.2838,0.1275,0.02));
#1177=CARTESIAN_POINT('',(-0.2868,0.1275,0.02));
#1178=CARTESIAN_POINT('',(-0.2898,0.1275,0.02));
#1179=CARTESIAN_POINT('',(-0.2898,0.1245,0.02));
#1180=CARTESIAN_POINT('',(-0.177284207567198,0.20895511356142,0.02));
#1181=CARTESIAN_POINT('',(-0.36150007023181,0.102598198468995,0.0199996122137106));
#1182=CARTESIAN_POINT('',(-0.36,0.103464101615145,0.02));
#1183=CARTESIAN_POINT('',(-0.36,0.100000000000007,0.02));
#1184=CARTESIAN_POINT('',(-0.358498367860695,0.102597378773243,0.019999986210451));
#1185=CARTESIAN_POINT('',(-0.3585,0.102598076211361,0.02));
#1186=CARTESIAN_POINT('',(-0.2868,0.1245,0.019998));
#1187=CARTESIAN_POINT('',(-0.2858,0.126232050807569,0.021003));
#1188=CARTESIAN_POINT('',(-0.285799199007695,0.126231703734866,0.0210008697803853));
#1189=CARTESIAN_POINT('',(-0.285799955187363,0.126232128997243,0.0220004228596286));
#1190=CARTESIAN_POINT('',(-0.2868,0.1245,0.021));
#1191=CARTESIAN_POINT('',(-0.287800040840971,0.126232122067457,0.0210014220303787));
#1192=CARTESIAN_POINT('',(-0.2878,0.126232050807569,0.021003));
#1193=CARTESIAN_POINT('',(-0.287801048827724,0.126231596347145,0.0220000702220939));
#1194=CARTESIAN_POINT('',(-0.2868,0.1245,0.022));
#1195=CARTESIAN_POINT('',(-0.2455,0.1075,0.019998));
#1196=CARTESIAN_POINT('',(-0.2445,0.109232050807569,0.021003));
#1197=CARTESIAN_POINT('',(-0.244499199007701,0.109231703734868,0.0210008697803886));
#1198=CARTESIAN_POINT('',(-0.244499955187364,0.109232128997244,0.0220004228596286));
#1199=CARTESIAN_POINT('',(-0.2455,0.1075,0.021));
#1200=CARTESIAN_POINT('',(-0.246500040840971,0.109232122067457,0.0210014220303788));
#1201=CARTESIAN_POINT('',(-0.2465,0.109232050807569,0.021003));
#1202=CARTESIAN_POINT('',(-0.246501048827717,0.109231596347147,0.0220000702220951));
#1203=CARTESIAN_POINT('',(-0.2455,0.1075,0.022));
#1204=CARTESIAN_POINT('',(-0.26065,0.113,0.024));
#1205=CARTESIAN_POINT('',(-0.24,0.113,0.022));
#1206=CARTESIAN_POINT('',(-0.24,0.113,0.022));
#1207=CARTESIAN_POINT('',(-0.2505,0.113,0.022));
#1208=CARTESIAN_POINT('',(-0.24,0.113,0.024));
#1209=CARTESIAN_POINT('',(-0.2813,0.113,0.024));
#1210=CARTESIAN_POINT('',(-0.2813,0.113,0.024));
#1211=CARTESIAN_POINT('',(-0.26065,0.113,0.024));
#1212=CARTESIAN_POINT('',(-0.2505,0.113,0.024));
#1213=CARTESIAN_POINT('',(-0.2505,0.113,0.022));
#1214=CARTESIAN_POINT('',(-0.24,0.101500000000004,0.024));
#1215=CARTESIAN_POINT('',(-0.24,0.101500000000004,0.022));
#1216=CARTESIAN_POINT('',(-0.24,0.102,0.022));
#1217=CARTESIAN_POINT('',(-0.24,0.102,0.024));
#1218=CARTESIAN_POINT('',(-0.24,0.102,0.024));
#1219=CARTESIAN_POINT('',(-0.24,0.101500000000004,0.024));
#1220=CARTESIAN_POINT('',(-0.24,0.0850000000000072,0.024));
#1221=CARTESIAN_POINT('',(-0.24,0.0850000000000072,0.009));
#1222=CARTESIAN_POINT('',(-0.24,0.0850000000000072,-0.006));
#1223=CARTESIAN_POINT('',(-0.24,0.0850000000000072,-0.006));
#1224=CARTESIAN_POINT('',(-0.24,0.0900000000000072,-0.006));
#1225=CARTESIAN_POINT('',(-0.24,0.0900000000000072,0.009));
#1226=CARTESIAN_POINT('',(-0.305,0.0850000000000072,0.024));
#1227=CARTESIAN_POINT('',(-0.295,0.0850000000000072,0.003));
#1228=CARTESIAN_POINT('',(-0.295,0.0850000000000072,0.));
#1229=CARTESIAN_POINT('',(-0.295,0.0850000000000072,0.006));
#1230=CARTESIAN_POINT('',(-0.305,0.0850000000000072,0.));
#1231=CARTESIAN_POINT('',(-0.315,0.0850000000000072,0.));
#1232=CARTESIAN_POINT('',(-0.315,0.0850000000000072,0.003));
#1233=CARTESIAN_POINT('',(-0.315,0.0850000000000072,0.006));
#1234=CARTESIAN_POINT('',(-0.305,0.0850000000000072,0.006));
#1235=CARTESIAN_POINT('',(-0.35,0.0850000000000072,0.009));
#1236=CARTESIAN_POINT('',(-0.35,0.0850000000000072,-0.006));
#1237=CARTESIAN_POINT('',(-0.295,0.0850000000000072,-0.006));
#1238=CARTESIAN_POINT('',(-0.305,0.0850000000000072,0.024));
#1239=CARTESIAN_POINT('',(-0.37,0.0850000000000072,0.024));
#1240=CARTESIAN_POINT('',(-0.37,0.0850000000000072,0.024));
#1241=CARTESIAN_POINT('',(-0.32565,0.13,0.024));
#1242=CARTESIAN_POINT('',(-0.32565,0.13,0.024));
#1243=CARTESIAN_POINT('',(-0.2923,0.13,0.024));
#1244=CARTESIAN_POINT('',(-0.37,0.13,0.024));
#1245=CARTESIAN_POINT('',(-0.2923,0.13,0.024));
#1246=CARTESIAN_POINT('',(-0.2923,0.13,0.022));
#1247=CARTESIAN_POINT('',(-0.32565,0.13,0.022));
#1248=CARTESIAN_POINT('',(-0.2813,0.13,0.022));
#1249=CARTESIAN_POINT('',(-0.2813,0.13,0.024));
#1250=CARTESIAN_POINT('',(-0.37,0.13,0.024));
#1251=CARTESIAN_POINT('',(-0.37,0.110000000000004,0.024));
#1252=CARTESIAN_POINT('',(-0.37,0.110000000000004,0.024));
#1253=CARTESIAN_POINT('',(-0.36,0.12,0.024));
#1254=CARTESIAN_POINT('',(-0.3615,0.122598076211353,0.023997));
#1255=CARTESIAN_POINT('',(-0.361501301238663,0.12259752014756,0.0239993585017519));
#1256=CARTESIAN_POINT('',(-0.36,0.12,0.024));
#1257=CARTESIAN_POINT('',(-0.358499938367623,0.122598183770147,0.0239986148133172));
#1258=CARTESIAN_POINT('',(-0.3585,0.122598076211353,0.023997));
#1259=CARTESIAN_POINT('',(-0.2813,0.1215,0.024));
#1260=CARTESIAN_POINT('',(-0.2813,0.13,0.022));
#1261=CARTESIAN_POINT('',(-0.2813,0.1195,0.022));
#1262=CARTESIAN_POINT('',(-0.2813,0.1195,0.022));
#1263=CARTESIAN_POINT('',(-0.2813,0.1195,0.024));
#1264=CARTESIAN_POINT('',(-0.2813,0.1215,0.024));
#1265=CARTESIAN_POINT('',(-0.36,0.100000000000007,0.024));
#1266=CARTESIAN_POINT('',(-0.3615,0.102598076211361,0.023997));
#1267=CARTESIAN_POINT('',(-0.361501301238663,0.102597520147567,0.0239993585017519));
#1268=CARTESIAN_POINT('',(-0.36,0.100000000000007,0.024));
#1269=CARTESIAN_POINT('',(-0.358499938367623,0.102598183770154,0.0239986148133172));
#1270=CARTESIAN_POINT('',(-0.3585,0.102598076211361,0.023997));
#1271=CARTESIAN_POINT('',(-0.175,0.20499875,0.024));
#1272=CARTESIAN_POINT('',(-0.3585,0.102598076211361,0.024));
#1273=CARTESIAN_POINT('',(-0.36,0.103464101615145,0.024));
#1274=CARTESIAN_POINT('',(-0.3615,0.102598076211361,0.024));
#1275=CARTESIAN_POINT('',(-0.3585,0.122598076211353,0.024));
#1276=CARTESIAN_POINT('',(-0.36,0.123464101615138,0.024));
#1277=CARTESIAN_POINT('',(-0.3615,0.122598076211353,0.024));
#1278=CARTESIAN_POINT('',(-0.2505,0.1075,0.024));
#1279=CARTESIAN_POINT('',(-0.2505,0.102,0.024));
#1280=CARTESIAN_POINT('',(-0.2868,0.1195,0.024));
#1281=CARTESIAN_POINT('',(-0.2923,0.1195,0.024));
#1282=CARTESIAN_POINT('',(-0.2923,0.13,0.024));
#1283=CARTESIAN_POINT('',(-0.24,0.102,0.024));
#1284=CARTESIAN_POINT('',(-0.185,0.0900000000000072,0.009));
#1285=CARTESIAN_POINT('',(-0.315,0.0900000000000072,0.003));
#1286=CARTESIAN_POINT('',(-0.315,0.0900000000000072,0.));
#1287=CARTESIAN_POINT('',(-0.315,0.0900000000000072,0.006));
#1288=CARTESIAN_POINT('',(-0.305,0.0900000000000072,0.));
#1289=CARTESIAN_POINT('',(-0.295,0.0900000000000072,0.));
#1290=CARTESIAN_POINT('',(-0.295,0.0900000000000072,0.003));
#1291=CARTESIAN_POINT('',(-0.295,0.0900000000000072,0.006));
#1292=CARTESIAN_POINT('',(-0.305,0.0900000000000072,0.006));
#1293=CARTESIAN_POINT('',(-0.35,0.0900000000000072,0.009));
#1294=CARTESIAN_POINT('',(-0.35,0.0900000000000072,-0.006));
#1295=CARTESIAN_POINT('',(-0.295,0.0900000000000072,-0.006));
#1296=CARTESIAN_POINT('',(-0.35,0.0850000000000072,0.009));
#1297=CARTESIAN_POINT('',(-0.35,0.0850000000000072,-0.006));
#1298=CARTESIAN_POINT('',(-0.295,0.0850000000000072,-0.006));
#1299=CARTESIAN_POINT('',(-0.2505,0.1075,0.022));
#1300=CARTESIAN_POINT('',(-0.2505,0.102,0.022));
#1301=CARTESIAN_POINT('',(-0.2505,0.102,0.022));
#1302=CARTESIAN_POINT('',(-0.2505,0.1075,0.022));
#1303=CARTESIAN_POINT('',(-0.24,0.102,0.022));
#1304=CARTESIAN_POINT('',(-0.24,0.102,0.022));
#1305=CARTESIAN_POINT('',(-0.2128500125,0.2460000125,0.022));
#1306=CARTESIAN_POINT('',(-0.2445,0.109232050807569,0.022));
#1307=CARTESIAN_POINT('',(-0.2455,0.109809401076759,0.022));
#1308=CARTESIAN_POINT('',(-0.2465,0.109232050807569,0.022));
#1309=CARTESIAN_POINT('',(-0.2923,0.13,0.022));
#1310=CARTESIAN_POINT('',(-0.2923,0.1195,0.022));
#1311=CARTESIAN_POINT('',(-0.2923,0.1195,0.022));
#1312=CARTESIAN_POINT('',(-0.2923,0.13,0.022));
#1313=CARTESIAN_POINT('',(-0.2128500125,0.2460000125,0.022));
#1314=CARTESIAN_POINT('',(-0.2858,0.126232050807569,0.022));
#1315=CARTESIAN_POINT('',(-0.2868,0.126809401076758,0.022));
#1316=CARTESIAN_POINT('',(-0.2878,0.126232050807569,0.022));
#1317=CARTESIAN_POINT('',(-0.2868,0.1195,0.022));
#1318=CARTESIAN_POINT('',(-0.2868,0.1195,0.022));
#1319=CARTESIAN_POINT('',(-0.2485,0.1075,0.021));
#1320=CARTESIAN_POINT('',(-0.2485,0.1105,0.021));
#1321=CARTESIAN_POINT('',(-0.2485,0.1105,0.021));
#1322=CARTESIAN_POINT('',(-0.2485,0.1075,0.021));
#1323=CARTESIAN_POINT('',(-0.2485,0.1045,0.021));
#1324=CARTESIAN_POINT('',(-0.2485,0.1045,0.021));
#1325=CARTESIAN_POINT('',(-0.2455,0.1105,0.021));
#1326=CARTESIAN_POINT('',(-0.2425,0.1105,0.021));
#1327=CARTESIAN_POINT('',(-0.2425,0.1105,0.021));
#1328=CARTESIAN_POINT('',(-0.2455,0.1105,0.021));
#1329=CARTESIAN_POINT('',(-0.2425,0.1075,0.021));
#1330=CARTESIAN_POINT('',(-0.2425,0.1045,0.021));
#1331=CARTESIAN_POINT('',(-0.2425,0.1045,0.021));
#1332=CARTESIAN_POINT('',(-0.2425,0.1075,0.021));
#1333=CARTESIAN_POINT('',(-0.2455,0.1045,0.021));
#1334=CARTESIAN_POINT('',(-0.2455,0.1045,0.021));
#1335=CARTESIAN_POINT('',(-0.23575,0.2215,0.021));
#1336=CARTESIAN_POINT('',(-0.2465,0.109232050807569,0.021));
#1337=CARTESIAN_POINT('',(-0.2455,0.109809401076759,0.021));
#1338=CARTESIAN_POINT('',(-0.2445,0.109232050807569,0.021));
#1339=CARTESIAN_POINT('',(-0.2868,0.1215,0.021));
#1340=CARTESIAN_POINT('',(-0.2898,0.1215,0.021));
#1341=CARTESIAN_POINT('',(-0.2898,0.1215,0.021));
#1342=CARTESIAN_POINT('',(-0.2868,0.1215,0.021));
#1343=CARTESIAN_POINT('',(-0.2838,0.1215,0.021));
#1344=CARTESIAN_POINT('',(-0.2838,0.1215,0.021));
#1345=CARTESIAN_POINT('',(-0.2898,0.1245,0.021));
#1346=CARTESIAN_POINT('',(-0.2898,0.1275,0.021));
#1347=CARTESIAN_POINT('',(-0.2898,0.1275,0.021));
#1348=CARTESIAN_POINT('',(-0.2898,0.1245,0.021));
#1349=CARTESIAN_POINT('',(-0.2868,0.1275,0.021));
#1350=CARTESIAN_POINT('',(-0.2838,0.1275,0.021));
#1351=CARTESIAN_POINT('',(-0.2838,0.1275,0.021));
#1352=CARTESIAN_POINT('',(-0.2868,0.1275,0.021));
#1353=CARTESIAN_POINT('',(-0.2838,0.1245,0.021));
#1354=CARTESIAN_POINT('',(-0.2838,0.1245,0.021));
#1355=CARTESIAN_POINT('',(-0.23575,0.2215,0.021));
#1356=CARTESIAN_POINT('',(-0.2878,0.126232050807569,0.021));
#1357=CARTESIAN_POINT('',(-0.2868,0.126809401076758,0.021));
#1358=CARTESIAN_POINT('',(-0.2858,0.126232050807569,0.021));
#1359=CARTESIAN_POINT('',(-0.2878,0.126232050807569,0.021003));
#1360=CARTESIAN_POINT('',(-0.2868,0.126809401076758,0.021003));
#1361=CARTESIAN_POINT('',(-0.2858,0.126232050807569,0.021003));
#1362=CARTESIAN_POINT('',(-0.2465,0.109232050807569,0.021003));
#1363=CARTESIAN_POINT('',(-0.2455,0.109809401076759,0.021003));
#1364=CARTESIAN_POINT('',(-0.2445,0.109232050807569,0.021003));
#1365=CARTESIAN_POINT('',(-0.3615,0.122598076211353,0.023997));
#1366=CARTESIAN_POINT('',(-0.36,0.123464101615138,0.023997));
#1367=CARTESIAN_POINT('',(-0.3585,0.122598076211353,0.023997));
#1368=CARTESIAN_POINT('',(-0.3615,0.102598076211361,0.023997));
#1369=CARTESIAN_POINT('',(-0.36,0.103464101615145,0.023997));
#1370=CARTESIAN_POINT('',(-0.3585,0.102598076211361,0.023997));
#1371=CARTESIAN_POINT('',(-0.305,0.0849980000000072,0.));
#1372=CARTESIAN_POINT('',(-0.295,0.0849980000000072,0.));
#1373=CARTESIAN_POINT('',(-0.315,0.0849980000000072,0.));
#1374=CARTESIAN_POINT('',(-0.315,0.0849980000000072,0.003));
#1375=CARTESIAN_POINT('',(-0.315,0.0849980000000072,0.006));
#1376=CARTESIAN_POINT('',(-0.305,0.0849980000000072,0.006));
#1377=CARTESIAN_POINT('',(-0.295,0.0849980000000072,0.006));
#1378=CARTESIAN_POINT('',(-0.295,0.0849980000000072,0.003));
#1379=MECHANICAL_DESIGN_GEOMETRIC_PRESENTATION_REPRESENTATION('',(#864),
#1380);
#1380=(
GEOMETRIC_REPRESENTATION_CONTEXT(3)
GLOBAL_UNCERTAINTY_ASSIGNED_CONTEXT((#1381))
GLOBAL_UNIT_ASSIGNED_CONTEXT((#1384,#1383,#1382))
REPRESENTATION_CONTEXT('Front Left Top Plate','TOP_LEVEL_ASSEMBLY_PART')
);
#1381=UNCERTAINTY_MEASURE_WITH_UNIT(LENGTH_MEASURE(2.65008942956539E-5),
#1384,'DISTANCE_ACCURACY_VALUE','Maximum Tolerance applied to model');
#1382=(
NAMED_UNIT(*)
SI_UNIT($,.STERADIAN.)
SOLID_ANGLE_UNIT()
);
#1383=(
NAMED_UNIT(*)
PLANE_ANGLE_UNIT()
SI_UNIT($,.RADIAN.)
);
#1384=(
LENGTH_UNIT()
NAMED_UNIT(*)
SI_UNIT($,.METRE.)
);
#1385=PRODUCT_DEFINITION_SHAPE('','',#1386);
#1386=PRODUCT_DEFINITION('','',#1388,#1387);
#1387=PRODUCT_DEFINITION_CONTEXT('',#1394,'design');
#1388=PRODUCT_DEFINITION_FORMATION_WITH_SPECIFIED_SOURCE('','',#1390,
 .NOT_KNOWN.);
#1389=PRODUCT_RELATED_PRODUCT_CATEGORY('','',(#1390));
#1390=PRODUCT('Front Left Top Plate','Front Left Top Plate',
'Front Left Top Plate',(#1392));
#1391=PRODUCT_CATEGORY('','');
#1392=PRODUCT_CONTEXT('',#1394,'mechanical');
#1393=APPLICATION_PROTOCOL_DEFINITION('international standard',
'ap242_managed_model_based_3d_engineering',2020,#1394);
#1394=APPLICATION_CONTEXT('managed model based 3d engineering');
ENDSEC;
END-ISO-10303-21;
