ISO-10303-21;
HEADER;
/* Generated by software containing ST-Developer
 * from STEP Tools, Inc. (www.steptools.com) 
 */
/* OPTION: using custom renumber hook */

FILE_DESCRIPTION(
/* description */ ('STEP AP242 Edition 2',
'CAx-IF Rec.Pracs.---Representation and Presentation of Product Manufa
cturing Information (PMI)---4.0---2014-10-13',
'CAx-IF Rec.Pracs.---3D Tessellated Geometry---0.4---2014-09-14','2;1',
'CAx-IF Rec.Pracs.---User Defined Attributes---1.5---2016-08-15'),
/* implementation_level */ '2;1');

FILE_NAME(
/* name */ 'Base and Z Axis - Left Mid Top Plate',
/* time_stamp */ '2026-01-10T06:34:52Z',
/* author */ (''),
/* organization */ (''),
/* preprocessor_version */ 'ST-DEVELOPER v20',
/* originating_system */ 'ONSHAPE BY PTC INC, 1.209',
/* authorisation */ '  ');

FILE_SCHEMA (('AP242_MANAGED_MODEL_BASED_3D_ENGINEERING_MIM_LF { 1 0 10303 442 3 1 4 }'));
ENDSEC;

DATA;
#10=SHAPE_REPRESENTATION_RELATIONSHIP('','',#1347,#11);
#11=ADVANCED_BREP_SHAPE_REPRESENTATION('',(#1345),#2161);
#12=CYLINDRICAL_SURFACE('',#1409,0.002);
#13=CYLINDRICAL_SURFACE('',#1411,0.002);
#14=CYLINDRICAL_SURFACE('',#1416,0.0045);
#15=CYLINDRICAL_SURFACE('',#1418,0.0125);
#16=CYLINDRICAL_SURFACE('',#1420,0.003);
#17=CYLINDRICAL_SURFACE('',#1422,0.003);
#18=CYLINDRICAL_SURFACE('',#1425,0.0045);
#19=CIRCLE('',#1364,0.002);
#20=CIRCLE('',#1366,0.002);
#21=CIRCLE('',#1369,0.002);
#22=CIRCLE('',#1373,0.002);
#23=CIRCLE('',#1391,0.002);
#24=CIRCLE('',#1393,0.002);
#25=CIRCLE('',#1396,0.002);
#26=CIRCLE('',#1400,0.002);
#27=CIRCLE('',#1404,0.0045);
#28=CIRCLE('',#1405,0.0045);
#29=CIRCLE('',#1406,0.0125);
#30=CIRCLE('',#1407,0.003);
#31=CIRCLE('',#1408,0.003);
#32=CIRCLE('',#1410,0.002);
#33=CIRCLE('',#1412,0.002);
#34=CIRCLE('',#1417,0.0045);
#35=CIRCLE('',#1419,0.0125);
#36=CIRCLE('',#1421,0.003);
#37=CIRCLE('',#1423,0.003);
#38=CIRCLE('',#1426,0.0045);
#39=ORIENTED_EDGE('',*,*,#395,.F.);
#40=ORIENTED_EDGE('',*,*,#396,.F.);
#41=ORIENTED_EDGE('',*,*,#397,.T.);
#42=ORIENTED_EDGE('',*,*,#398,.T.);
#43=ORIENTED_EDGE('',*,*,#399,.T.);
#44=ORIENTED_EDGE('',*,*,#400,.F.);
#45=ORIENTED_EDGE('',*,*,#401,.F.);
#46=ORIENTED_EDGE('',*,*,#402,.T.);
#47=ORIENTED_EDGE('',*,*,#403,.T.);
#48=ORIENTED_EDGE('',*,*,#404,.T.);
#49=ORIENTED_EDGE('',*,*,#405,.F.);
#50=ORIENTED_EDGE('',*,*,#399,.F.);
#51=ORIENTED_EDGE('',*,*,#406,.T.);
#52=ORIENTED_EDGE('',*,*,#407,.T.);
#53=ORIENTED_EDGE('',*,*,#408,.T.);
#54=ORIENTED_EDGE('',*,*,#409,.F.);
#55=ORIENTED_EDGE('',*,*,#410,.F.);
#56=ORIENTED_EDGE('',*,*,#411,.T.);
#57=ORIENTED_EDGE('',*,*,#412,.T.);
#58=ORIENTED_EDGE('',*,*,#401,.T.);
#59=ORIENTED_EDGE('',*,*,#413,.F.);
#60=ORIENTED_EDGE('',*,*,#414,.F.);
#61=ORIENTED_EDGE('',*,*,#415,.T.);
#62=ORIENTED_EDGE('',*,*,#396,.T.);
#63=ORIENTED_EDGE('',*,*,#416,.T.);
#64=ORIENTED_EDGE('',*,*,#397,.F.);
#65=ORIENTED_EDGE('',*,*,#417,.F.);
#66=ORIENTED_EDGE('',*,*,#418,.T.);
#67=ORIENTED_EDGE('',*,*,#419,.T.);
#68=ORIENTED_EDGE('',*,*,#420,.F.);
#69=ORIENTED_EDGE('',*,*,#421,.F.);
#70=ORIENTED_EDGE('',*,*,#403,.F.);
#71=ORIENTED_EDGE('',*,*,#422,.F.);
#72=ORIENTED_EDGE('',*,*,#404,.F.);
#73=ORIENTED_EDGE('',*,*,#423,.T.);
#74=ORIENTED_EDGE('',*,*,#414,.T.);
#75=ORIENTED_EDGE('',*,*,#424,.T.);
#76=ORIENTED_EDGE('',*,*,#425,.F.);
#77=ORIENTED_EDGE('',*,*,#426,.F.);
#78=ORIENTED_EDGE('',*,*,#407,.F.);
#79=ORIENTED_EDGE('',*,*,#427,.F.);
#80=ORIENTED_EDGE('',*,*,#408,.F.);
#81=ORIENTED_EDGE('',*,*,#428,.T.);
#82=ORIENTED_EDGE('',*,*,#429,.T.);
#83=ORIENTED_EDGE('',*,*,#430,.F.);
#84=ORIENTED_EDGE('',*,*,#429,.F.);
#85=ORIENTED_EDGE('',*,*,#431,.T.);
#86=ORIENTED_EDGE('',*,*,#410,.T.);
#87=ORIENTED_EDGE('',*,*,#432,.T.);
#88=ORIENTED_EDGE('',*,*,#411,.F.);
#89=ORIENTED_EDGE('',*,*,#433,.F.);
#90=ORIENTED_EDGE('',*,*,#434,.T.);
#91=ORIENTED_EDGE('',*,*,#435,.T.);
#92=ORIENTED_EDGE('',*,*,#436,.T.);
#93=ORIENTED_EDGE('',*,*,#402,.F.);
#94=ORIENTED_EDGE('',*,*,#412,.F.);
#95=ORIENTED_EDGE('',*,*,#437,.T.);
#96=ORIENTED_EDGE('',*,*,#398,.F.);
#97=ORIENTED_EDGE('',*,*,#438,.T.);
#98=ORIENTED_EDGE('',*,*,#439,.F.);
#99=ORIENTED_EDGE('',*,*,#440,.T.);
#100=ORIENTED_EDGE('',*,*,#406,.F.);
#101=ORIENTED_EDGE('',*,*,#400,.T.);
#102=ORIENTED_EDGE('',*,*,#422,.T.);
#103=ORIENTED_EDGE('',*,*,#441,.T.);
#104=ORIENTED_EDGE('',*,*,#442,.T.);
#105=ORIENTED_EDGE('',*,*,#413,.T.);
#106=ORIENTED_EDGE('',*,*,#395,.T.);
#107=ORIENTED_EDGE('',*,*,#443,.F.);
#108=ORIENTED_EDGE('',*,*,#433,.T.);
#109=ORIENTED_EDGE('',*,*,#431,.F.);
#110=ORIENTED_EDGE('',*,*,#428,.F.);
#111=ORIENTED_EDGE('',*,*,#426,.T.);
#112=ORIENTED_EDGE('',*,*,#430,.T.);
#113=ORIENTED_EDGE('',*,*,#409,.T.);
#114=ORIENTED_EDGE('',*,*,#444,.T.);
#115=ORIENTED_EDGE('',*,*,#423,.F.);
#116=ORIENTED_EDGE('',*,*,#421,.T.);
#117=ORIENTED_EDGE('',*,*,#445,.T.);
#118=ORIENTED_EDGE('',*,*,#417,.T.);
#119=ORIENTED_EDGE('',*,*,#415,.F.);
#120=ORIENTED_EDGE('',*,*,#438,.F.);
#121=ORIENTED_EDGE('',*,*,#416,.F.);
#122=ORIENTED_EDGE('',*,*,#446,.T.);
#123=ORIENTED_EDGE('',*,*,#447,.F.);
#124=ORIENTED_EDGE('',*,*,#405,.T.);
#125=ORIENTED_EDGE('',*,*,#427,.T.);
#126=ORIENTED_EDGE('',*,*,#448,.T.);
#127=ORIENTED_EDGE('',*,*,#436,.F.);
#128=ORIENTED_EDGE('',*,*,#449,.T.);
#129=ORIENTED_EDGE('',*,*,#450,.T.);
#130=ORIENTED_EDGE('',*,*,#419,.F.);
#131=ORIENTED_EDGE('',*,*,#432,.F.);
#132=ORIENTED_EDGE('',*,*,#451,.F.);
#133=ORIENTED_EDGE('',*,*,#452,.T.);
#134=ORIENTED_EDGE('',*,*,#437,.F.);
#135=ORIENTED_EDGE('',*,*,#453,.F.);
#136=ORIENTED_EDGE('',*,*,#454,.F.);
#137=ORIENTED_EDGE('',*,*,#455,.T.);
#138=ORIENTED_EDGE('',*,*,#456,.T.);
#139=ORIENTED_EDGE('',*,*,#457,.T.);
#140=ORIENTED_EDGE('',*,*,#458,.F.);
#141=ORIENTED_EDGE('',*,*,#459,.F.);
#142=ORIENTED_EDGE('',*,*,#460,.T.);
#143=ORIENTED_EDGE('',*,*,#461,.T.);
#144=ORIENTED_EDGE('',*,*,#462,.T.);
#145=ORIENTED_EDGE('',*,*,#463,.F.);
#146=ORIENTED_EDGE('',*,*,#457,.F.);
#147=ORIENTED_EDGE('',*,*,#464,.T.);
#148=ORIENTED_EDGE('',*,*,#465,.T.);
#149=ORIENTED_EDGE('',*,*,#466,.T.);
#150=ORIENTED_EDGE('',*,*,#467,.F.);
#151=ORIENTED_EDGE('',*,*,#468,.F.);
#152=ORIENTED_EDGE('',*,*,#469,.T.);
#153=ORIENTED_EDGE('',*,*,#470,.T.);
#154=ORIENTED_EDGE('',*,*,#459,.T.);
#155=ORIENTED_EDGE('',*,*,#471,.F.);
#156=ORIENTED_EDGE('',*,*,#472,.F.);
#157=ORIENTED_EDGE('',*,*,#473,.T.);
#158=ORIENTED_EDGE('',*,*,#454,.T.);
#159=ORIENTED_EDGE('',*,*,#474,.T.);
#160=ORIENTED_EDGE('',*,*,#455,.F.);
#161=ORIENTED_EDGE('',*,*,#475,.F.);
#162=ORIENTED_EDGE('',*,*,#476,.T.);
#163=ORIENTED_EDGE('',*,*,#477,.T.);
#164=ORIENTED_EDGE('',*,*,#478,.F.);
#165=ORIENTED_EDGE('',*,*,#479,.F.);
#166=ORIENTED_EDGE('',*,*,#461,.F.);
#167=ORIENTED_EDGE('',*,*,#480,.F.);
#168=ORIENTED_EDGE('',*,*,#462,.F.);
#169=ORIENTED_EDGE('',*,*,#481,.T.);
#170=ORIENTED_EDGE('',*,*,#472,.T.);
#171=ORIENTED_EDGE('',*,*,#482,.T.);
#172=ORIENTED_EDGE('',*,*,#483,.F.);
#173=ORIENTED_EDGE('',*,*,#484,.F.);
#174=ORIENTED_EDGE('',*,*,#465,.F.);
#175=ORIENTED_EDGE('',*,*,#485,.F.);
#176=ORIENTED_EDGE('',*,*,#466,.F.);
#177=ORIENTED_EDGE('',*,*,#486,.T.);
#178=ORIENTED_EDGE('',*,*,#487,.T.);
#179=ORIENTED_EDGE('',*,*,#488,.F.);
#180=ORIENTED_EDGE('',*,*,#487,.F.);
#181=ORIENTED_EDGE('',*,*,#489,.T.);
#182=ORIENTED_EDGE('',*,*,#468,.T.);
#183=ORIENTED_EDGE('',*,*,#490,.T.);
#184=ORIENTED_EDGE('',*,*,#469,.F.);
#185=ORIENTED_EDGE('',*,*,#491,.F.);
#186=ORIENTED_EDGE('',*,*,#492,.T.);
#187=ORIENTED_EDGE('',*,*,#493,.T.);
#188=ORIENTED_EDGE('',*,*,#494,.T.);
#189=ORIENTED_EDGE('',*,*,#460,.F.);
#190=ORIENTED_EDGE('',*,*,#470,.F.);
#191=ORIENTED_EDGE('',*,*,#495,.T.);
#192=ORIENTED_EDGE('',*,*,#456,.F.);
#193=ORIENTED_EDGE('',*,*,#496,.T.);
#194=ORIENTED_EDGE('',*,*,#497,.F.);
#195=ORIENTED_EDGE('',*,*,#498,.T.);
#196=ORIENTED_EDGE('',*,*,#464,.F.);
#197=ORIENTED_EDGE('',*,*,#458,.T.);
#198=ORIENTED_EDGE('',*,*,#480,.T.);
#199=ORIENTED_EDGE('',*,*,#499,.F.);
#200=ORIENTED_EDGE('',*,*,#500,.F.);
#201=ORIENTED_EDGE('',*,*,#471,.T.);
#202=ORIENTED_EDGE('',*,*,#453,.T.);
#203=ORIENTED_EDGE('',*,*,#501,.F.);
#204=ORIENTED_EDGE('',*,*,#491,.T.);
#205=ORIENTED_EDGE('',*,*,#489,.F.);
#206=ORIENTED_EDGE('',*,*,#486,.F.);
#207=ORIENTED_EDGE('',*,*,#484,.T.);
#208=ORIENTED_EDGE('',*,*,#488,.T.);
#209=ORIENTED_EDGE('',*,*,#467,.T.);
#210=ORIENTED_EDGE('',*,*,#502,.F.);
#211=ORIENTED_EDGE('',*,*,#481,.F.);
#212=ORIENTED_EDGE('',*,*,#479,.T.);
#213=ORIENTED_EDGE('',*,*,#503,.T.);
#214=ORIENTED_EDGE('',*,*,#475,.T.);
#215=ORIENTED_EDGE('',*,*,#473,.F.);
#216=ORIENTED_EDGE('',*,*,#496,.F.);
#217=ORIENTED_EDGE('',*,*,#474,.F.);
#218=ORIENTED_EDGE('',*,*,#504,.T.);
#219=ORIENTED_EDGE('',*,*,#505,.F.);
#220=ORIENTED_EDGE('',*,*,#463,.T.);
#221=ORIENTED_EDGE('',*,*,#485,.T.);
#222=ORIENTED_EDGE('',*,*,#506,.F.);
#223=ORIENTED_EDGE('',*,*,#494,.F.);
#224=ORIENTED_EDGE('',*,*,#507,.T.);
#225=ORIENTED_EDGE('',*,*,#508,.T.);
#226=ORIENTED_EDGE('',*,*,#477,.F.);
#227=ORIENTED_EDGE('',*,*,#490,.F.);
#228=ORIENTED_EDGE('',*,*,#509,.F.);
#229=ORIENTED_EDGE('',*,*,#510,.T.);
#230=ORIENTED_EDGE('',*,*,#495,.F.);
#231=ORIENTED_EDGE('',*,*,#511,.T.);
#232=ORIENTED_EDGE('',*,*,#512,.T.);
#233=ORIENTED_EDGE('',*,*,#513,.F.);
#234=ORIENTED_EDGE('',*,*,#514,.F.);
#235=ORIENTED_EDGE('',*,*,#515,.T.);
#236=ORIENTED_EDGE('',*,*,#516,.T.);
#237=ORIENTED_EDGE('',*,*,#517,.T.);
#238=ORIENTED_EDGE('',*,*,#518,.T.);
#239=ORIENTED_EDGE('',*,*,#519,.T.);
#240=ORIENTED_EDGE('',*,*,#520,.T.);
#241=ORIENTED_EDGE('',*,*,#521,.F.);
#242=ORIENTED_EDGE('',*,*,#522,.T.);
#243=ORIENTED_EDGE('',*,*,#523,.T.);
#244=ORIENTED_EDGE('',*,*,#524,.T.);
#245=ORIENTED_EDGE('',*,*,#525,.T.);
#246=ORIENTED_EDGE('',*,*,#526,.F.);
#247=ORIENTED_EDGE('',*,*,#527,.F.);
#248=ORIENTED_EDGE('',*,*,#528,.F.);
#249=ORIENTED_EDGE('',*,*,#506,.T.);
#250=ORIENTED_EDGE('',*,*,#502,.T.);
#251=ORIENTED_EDGE('',*,*,#499,.T.);
#252=ORIENTED_EDGE('',*,*,#500,.T.);
#253=ORIENTED_EDGE('',*,*,#529,.T.);
#254=ORIENTED_EDGE('',*,*,#442,.F.);
#255=ORIENTED_EDGE('',*,*,#448,.F.);
#256=ORIENTED_EDGE('',*,*,#444,.F.);
#257=ORIENTED_EDGE('',*,*,#441,.F.);
#258=ORIENTED_EDGE('',*,*,#530,.T.);
#259=ORIENTED_EDGE('',*,*,#531,.T.);
#260=ORIENTED_EDGE('',*,*,#532,.T.);
#261=ORIENTED_EDGE('',*,*,#533,.F.);
#262=ORIENTED_EDGE('',*,*,#534,.T.);
#263=ORIENTED_EDGE('',*,*,#535,.T.);
#264=ORIENTED_EDGE('',*,*,#522,.F.);
#265=ORIENTED_EDGE('',*,*,#536,.F.);
#266=ORIENTED_EDGE('',*,*,#520,.F.);
#267=ORIENTED_EDGE('',*,*,#537,.F.);
#268=ORIENTED_EDGE('',*,*,#538,.T.);
#269=ORIENTED_EDGE('',*,*,#539,.T.);
#270=ORIENTED_EDGE('',*,*,#540,.F.);
#271=ORIENTED_EDGE('',*,*,#541,.T.);
#272=ORIENTED_EDGE('',*,*,#537,.T.);
#273=ORIENTED_EDGE('',*,*,#523,.F.);
#274=ORIENTED_EDGE('',*,*,#535,.F.);
#275=ORIENTED_EDGE('',*,*,#542,.T.);
#276=ORIENTED_EDGE('',*,*,#543,.T.);
#277=ORIENTED_EDGE('',*,*,#516,.F.);
#278=ORIENTED_EDGE('',*,*,#544,.T.);
#279=ORIENTED_EDGE('',*,*,#517,.F.);
#280=ORIENTED_EDGE('',*,*,#545,.T.);
#281=ORIENTED_EDGE('',*,*,#518,.F.);
#282=ORIENTED_EDGE('',*,*,#546,.T.);
#283=ORIENTED_EDGE('',*,*,#519,.F.);
#284=ORIENTED_EDGE('',*,*,#547,.F.);
#285=ORIENTED_EDGE('',*,*,#548,.T.);
#286=ORIENTED_EDGE('',*,*,#549,.F.);
#287=ORIENTED_EDGE('',*,*,#536,.T.);
#288=ORIENTED_EDGE('',*,*,#521,.T.);
#289=ORIENTED_EDGE('',*,*,#539,.F.);
#290=ORIENTED_EDGE('',*,*,#550,.T.);
#291=ORIENTED_EDGE('',*,*,#515,.F.);
#292=ORIENTED_EDGE('',*,*,#551,.F.);
#293=ORIENTED_EDGE('',*,*,#547,.T.);
#294=ORIENTED_EDGE('',*,*,#538,.F.);
#295=ORIENTED_EDGE('',*,*,#541,.F.);
#296=ORIENTED_EDGE('',*,*,#552,.F.);
#297=ORIENTED_EDGE('',*,*,#553,.F.);
#298=ORIENTED_EDGE('',*,*,#532,.F.);
#299=ORIENTED_EDGE('',*,*,#554,.T.);
#300=ORIENTED_EDGE('',*,*,#546,.F.);
#301=ORIENTED_EDGE('',*,*,#545,.F.);
#302=ORIENTED_EDGE('',*,*,#544,.F.);
#303=ORIENTED_EDGE('',*,*,#543,.F.);
#304=ORIENTED_EDGE('',*,*,#550,.F.);
#305=ORIENTED_EDGE('',*,*,#551,.T.);
#306=ORIENTED_EDGE('',*,*,#555,.F.);
#307=ORIENTED_EDGE('',*,*,#556,.F.);
#308=ORIENTED_EDGE('',*,*,#548,.F.);
#309=ORIENTED_EDGE('',*,*,#529,.F.);
#310=ORIENTED_EDGE('',*,*,#549,.T.);
#311=ORIENTED_EDGE('',*,*,#556,.T.);
#312=ORIENTED_EDGE('',*,*,#557,.F.);
#313=ORIENTED_EDGE('',*,*,#530,.F.);
#314=ORIENTED_EDGE('',*,*,#554,.F.);
#315=ORIENTED_EDGE('',*,*,#531,.F.);
#316=ORIENTED_EDGE('',*,*,#557,.T.);
#317=ORIENTED_EDGE('',*,*,#555,.T.);
#318=ORIENTED_EDGE('',*,*,#553,.T.);
#319=ORIENTED_EDGE('',*,*,#558,.F.);
#320=ORIENTED_EDGE('',*,*,#559,.F.);
#321=ORIENTED_EDGE('',*,*,#533,.T.);
#322=ORIENTED_EDGE('',*,*,#540,.T.);
#323=ORIENTED_EDGE('',*,*,#560,.F.);
#324=ORIENTED_EDGE('',*,*,#558,.T.);
#325=ORIENTED_EDGE('',*,*,#552,.T.);
#326=ORIENTED_EDGE('',*,*,#528,.T.);
#327=ORIENTED_EDGE('',*,*,#534,.F.);
#328=ORIENTED_EDGE('',*,*,#559,.T.);
#329=ORIENTED_EDGE('',*,*,#560,.T.);
#330=ORIENTED_EDGE('',*,*,#542,.F.);
#331=ORIENTED_EDGE('',*,*,#440,.F.);
#332=ORIENTED_EDGE('',*,*,#561,.F.);
#333=ORIENTED_EDGE('',*,*,#562,.F.);
#334=ORIENTED_EDGE('',*,*,#424,.F.);
#335=ORIENTED_EDGE('',*,*,#524,.F.);
#336=ORIENTED_EDGE('',*,*,#563,.F.);
#337=ORIENTED_EDGE('',*,*,#451,.T.);
#338=ORIENTED_EDGE('',*,*,#434,.F.);
#339=ORIENTED_EDGE('',*,*,#443,.T.);
#340=ORIENTED_EDGE('',*,*,#425,.T.);
#341=ORIENTED_EDGE('',*,*,#562,.T.);
#342=ORIENTED_EDGE('',*,*,#564,.T.);
#343=ORIENTED_EDGE('',*,*,#527,.T.);
#344=ORIENTED_EDGE('',*,*,#565,.F.);
#345=ORIENTED_EDGE('',*,*,#449,.F.);
#346=ORIENTED_EDGE('',*,*,#435,.F.);
#347=ORIENTED_EDGE('',*,*,#452,.F.);
#348=ORIENTED_EDGE('',*,*,#563,.T.);
#349=ORIENTED_EDGE('',*,*,#526,.T.);
#350=ORIENTED_EDGE('',*,*,#566,.F.);
#351=ORIENTED_EDGE('',*,*,#446,.F.);
#352=ORIENTED_EDGE('',*,*,#418,.F.);
#353=ORIENTED_EDGE('',*,*,#445,.F.);
#354=ORIENTED_EDGE('',*,*,#420,.T.);
#355=ORIENTED_EDGE('',*,*,#450,.F.);
#356=ORIENTED_EDGE('',*,*,#565,.T.);
#357=ORIENTED_EDGE('',*,*,#525,.F.);
#358=ORIENTED_EDGE('',*,*,#564,.F.);
#359=ORIENTED_EDGE('',*,*,#561,.T.);
#360=ORIENTED_EDGE('',*,*,#439,.T.);
#361=ORIENTED_EDGE('',*,*,#447,.T.);
#362=ORIENTED_EDGE('',*,*,#566,.T.);
#363=ORIENTED_EDGE('',*,*,#511,.F.);
#364=ORIENTED_EDGE('',*,*,#567,.F.);
#365=ORIENTED_EDGE('',*,*,#509,.T.);
#366=ORIENTED_EDGE('',*,*,#492,.F.);
#367=ORIENTED_EDGE('',*,*,#501,.T.);
#368=ORIENTED_EDGE('',*,*,#483,.T.);
#369=ORIENTED_EDGE('',*,*,#568,.T.);
#370=ORIENTED_EDGE('',*,*,#569,.T.);
#371=ORIENTED_EDGE('',*,*,#514,.T.);
#372=ORIENTED_EDGE('',*,*,#570,.F.);
#373=ORIENTED_EDGE('',*,*,#507,.F.);
#374=ORIENTED_EDGE('',*,*,#493,.F.);
#375=ORIENTED_EDGE('',*,*,#510,.F.);
#376=ORIENTED_EDGE('',*,*,#567,.T.);
#377=ORIENTED_EDGE('',*,*,#513,.T.);
#378=ORIENTED_EDGE('',*,*,#571,.F.);
#379=ORIENTED_EDGE('',*,*,#504,.F.);
#380=ORIENTED_EDGE('',*,*,#476,.F.);
#381=ORIENTED_EDGE('',*,*,#503,.F.);
#382=ORIENTED_EDGE('',*,*,#478,.T.);
#383=ORIENTED_EDGE('',*,*,#508,.F.);
#384=ORIENTED_EDGE('',*,*,#570,.T.);
#385=ORIENTED_EDGE('',*,*,#512,.F.);
#386=ORIENTED_EDGE('',*,*,#569,.F.);
#387=ORIENTED_EDGE('',*,*,#572,.T.);
#388=ORIENTED_EDGE('',*,*,#497,.T.);
#389=ORIENTED_EDGE('',*,*,#505,.T.);
#390=ORIENTED_EDGE('',*,*,#571,.T.);
#391=ORIENTED_EDGE('',*,*,#498,.F.);
#392=ORIENTED_EDGE('',*,*,#572,.F.);
#393=ORIENTED_EDGE('',*,*,#568,.F.);
#394=ORIENTED_EDGE('',*,*,#482,.F.);
#395=EDGE_CURVE('',#573,#574,#685,.T.);
#396=EDGE_CURVE('',#575,#573,#686,.T.);
#397=EDGE_CURVE('',#575,#576,#687,.F.);
#398=EDGE_CURVE('',#576,#577,#688,.T.);
#399=EDGE_CURVE('',#577,#574,#689,.F.);
#400=EDGE_CURVE('',#578,#579,#690,.T.);
#401=EDGE_CURVE('',#580,#578,#691,.F.);
#402=EDGE_CURVE('',#580,#581,#692,.T.);
#403=EDGE_CURVE('',#581,#582,#693,.F.);
#404=EDGE_CURVE('',#582,#579,#694,.F.);
#405=EDGE_CURVE('',#574,#583,#695,.T.);
#406=EDGE_CURVE('',#577,#584,#696,.T.);
#407=EDGE_CURVE('',#584,#585,#697,.F.);
#408=EDGE_CURVE('',#585,#583,#698,.F.);
#409=EDGE_CURVE('',#586,#578,#699,.T.);
#410=EDGE_CURVE('',#587,#586,#700,.T.);
#411=EDGE_CURVE('',#587,#588,#701,.F.);
#412=EDGE_CURVE('',#588,#580,#702,.T.);
#413=EDGE_CURVE('',#589,#573,#703,.T.);
#414=EDGE_CURVE('',#590,#589,#704,.F.);
#415=EDGE_CURVE('',#590,#575,#705,.T.);
#416=EDGE_CURVE('',#591,#576,#706,.F.);
#417=EDGE_CURVE('',#592,#575,#707,.F.);
#418=EDGE_CURVE('',#592,#591,#708,.F.);
#419=EDGE_CURVE('',#581,#593,#709,.F.);
#420=EDGE_CURVE('',#594,#593,#710,.T.);
#421=EDGE_CURVE('',#582,#594,#711,.F.);
#422=EDGE_CURVE('',#579,#589,#712,.T.);
#423=EDGE_CURVE('',#582,#590,#713,.T.);
#424=EDGE_CURVE('',#584,#595,#714,.F.);
#425=EDGE_CURVE('',#596,#595,#715,.F.);
#426=EDGE_CURVE('',#585,#596,#716,.F.);
#427=EDGE_CURVE('',#583,#597,#717,.T.);
#428=EDGE_CURVE('',#585,#598,#718,.T.);
#429=EDGE_CURVE('',#598,#597,#719,.F.);
#430=EDGE_CURVE('',#597,#586,#720,.T.);
#431=EDGE_CURVE('',#598,#587,#721,.T.);
#432=EDGE_CURVE('',#599,#588,#722,.F.);
#433=EDGE_CURVE('',#600,#587,#723,.F.);
#434=EDGE_CURVE('',#600,#599,#724,.T.);
#435=EDGE_CURVE('',#601,#602,#725,.T.);
#436=EDGE_CURVE('',#602,#581,#726,.T.);
#437=EDGE_CURVE('',#588,#601,#727,.F.);
#438=EDGE_CURVE('',#576,#603,#728,.T.);
#439=EDGE_CURVE('',#604,#603,#729,.T.);
#440=EDGE_CURVE('',#604,#584,#730,.F.);
#441=EDGE_CURVE('',#589,#578,#19,.F.);
#442=EDGE_CURVE('',#574,#589,#20,.F.);
#443=EDGE_CURVE('',#600,#596,#731,.T.);
#444=EDGE_CURVE('',#578,#597,#21,.F.);
#445=EDGE_CURVE('',#594,#592,#732,.T.);
#446=EDGE_CURVE('',#591,#605,#733,.T.);
#447=EDGE_CURVE('',#603,#605,#734,.T.);
#448=EDGE_CURVE('',#597,#574,#22,.F.);
#449=EDGE_CURVE('',#602,#606,#735,.T.);
#450=EDGE_CURVE('',#606,#593,#736,.T.);
#451=EDGE_CURVE('',#607,#599,#737,.T.);
#452=EDGE_CURVE('',#607,#601,#738,.T.);
#453=EDGE_CURVE('',#608,#609,#739,.T.);
#454=EDGE_CURVE('',#610,#608,#740,.T.);
#455=EDGE_CURVE('',#610,#611,#741,.F.);
#456=EDGE_CURVE('',#611,#612,#742,.T.);
#457=EDGE_CURVE('',#612,#609,#743,.F.);
#458=EDGE_CURVE('',#613,#614,#744,.T.);
#459=EDGE_CURVE('',#615,#613,#745,.F.);
#460=EDGE_CURVE('',#615,#616,#746,.T.);
#461=EDGE_CURVE('',#616,#617,#747,.F.);
#462=EDGE_CURVE('',#617,#614,#748,.F.);
#463=EDGE_CURVE('',#609,#618,#749,.T.);
#464=EDGE_CURVE('',#612,#619,#750,.T.);
#465=EDGE_CURVE('',#619,#620,#751,.F.);
#466=EDGE_CURVE('',#620,#618,#752,.F.);
#467=EDGE_CURVE('',#621,#613,#753,.T.);
#468=EDGE_CURVE('',#622,#621,#754,.T.);
#469=EDGE_CURVE('',#622,#623,#755,.F.);
#470=EDGE_CURVE('',#623,#615,#756,.T.);
#471=EDGE_CURVE('',#624,#608,#757,.T.);
#472=EDGE_CURVE('',#625,#624,#758,.F.);
#473=EDGE_CURVE('',#625,#610,#759,.T.);
#474=EDGE_CURVE('',#626,#611,#760,.F.);
#475=EDGE_CURVE('',#627,#610,#761,.F.);
#476=EDGE_CURVE('',#627,#626,#762,.F.);
#477=EDGE_CURVE('',#616,#628,#763,.F.);
#478=EDGE_CURVE('',#629,#628,#764,.T.);
#479=EDGE_CURVE('',#617,#629,#765,.F.);
#480=EDGE_CURVE('',#614,#624,#766,.T.);
#481=EDGE_CURVE('',#617,#625,#767,.T.);
#482=EDGE_CURVE('',#619,#630,#768,.F.);
#483=EDGE_CURVE('',#631,#630,#769,.F.);
#484=EDGE_CURVE('',#620,#631,#770,.F.);
#485=EDGE_CURVE('',#618,#632,#771,.T.);
#486=EDGE_CURVE('',#620,#633,#772,.T.);
#487=EDGE_CURVE('',#633,#632,#773,.F.);
#488=EDGE_CURVE('',#632,#621,#774,.T.);
#489=EDGE_CURVE('',#633,#622,#775,.T.);
#490=EDGE_CURVE('',#634,#623,#776,.F.);
#491=EDGE_CURVE('',#635,#622,#777,.F.);
#492=EDGE_CURVE('',#635,#634,#778,.T.);
#493=EDGE_CURVE('',#636,#637,#779,.T.);
#494=EDGE_CURVE('',#637,#616,#780,.T.);
#495=EDGE_CURVE('',#623,#636,#781,.F.);
#496=EDGE_CURVE('',#611,#638,#782,.T.);
#497=EDGE_CURVE('',#639,#638,#783,.T.);
#498=EDGE_CURVE('',#639,#619,#784,.F.);
#499=EDGE_CURVE('',#613,#624,#23,.T.);
#500=EDGE_CURVE('',#624,#609,#24,.T.);
#501=EDGE_CURVE('',#635,#631,#785,.T.);
#502=EDGE_CURVE('',#632,#613,#25,.T.);
#503=EDGE_CURVE('',#629,#627,#786,.T.);
#504=EDGE_CURVE('',#626,#640,#787,.T.);
#505=EDGE_CURVE('',#638,#640,#788,.T.);
#506=EDGE_CURVE('',#609,#632,#26,.T.);
#507=EDGE_CURVE('',#637,#641,#789,.T.);
#508=EDGE_CURVE('',#641,#628,#790,.T.);
#509=EDGE_CURVE('',#642,#634,#791,.T.);
#510=EDGE_CURVE('',#642,#636,#792,.T.);
#511=EDGE_CURVE('',#643,#644,#793,.T.);
#512=EDGE_CURVE('',#644,#645,#794,.T.);
#513=EDGE_CURVE('',#646,#645,#795,.T.);
#514=EDGE_CURVE('',#643,#646,#796,.T.);
#515=EDGE_CURVE('',#647,#647,#27,.T.);
#516=EDGE_CURVE('',#648,#648,#28,.T.);
#517=EDGE_CURVE('',#649,#649,#29,.T.);
#518=EDGE_CURVE('',#650,#650,#30,.T.);
#519=EDGE_CURVE('',#651,#651,#31,.T.);
#520=EDGE_CURVE('',#652,#653,#797,.T.);
#521=EDGE_CURVE('',#654,#653,#798,.T.);
#522=EDGE_CURVE('',#654,#655,#799,.T.);
#523=EDGE_CURVE('',#655,#652,#800,.T.);
#524=EDGE_CURVE('',#656,#657,#801,.T.);
#525=EDGE_CURVE('',#657,#658,#802,.T.);
#526=EDGE_CURVE('',#659,#658,#803,.T.);
#527=EDGE_CURVE('',#656,#659,#804,.T.);
#528=EDGE_CURVE('',#660,#660,#32,.F.);
#529=EDGE_CURVE('',#661,#661,#33,.T.);
#530=EDGE_CURVE('',#662,#663,#805,.T.);
#531=EDGE_CURVE('',#663,#664,#806,.T.);
#532=EDGE_CURVE('',#664,#665,#807,.T.);
#533=EDGE_CURVE('',#666,#665,#808,.T.);
#534=EDGE_CURVE('',#666,#667,#809,.T.);
#535=EDGE_CURVE('',#667,#655,#810,.T.);
#536=EDGE_CURVE('',#662,#654,#811,.T.);
#537=EDGE_CURVE('',#668,#652,#812,.T.);
#538=EDGE_CURVE('',#668,#669,#813,.T.);
#539=EDGE_CURVE('',#669,#653,#814,.T.);
#540=EDGE_CURVE('',#670,#671,#815,.T.);
#541=EDGE_CURVE('',#670,#668,#816,.T.);
#542=EDGE_CURVE('',#667,#671,#817,.T.);
#543=EDGE_CURVE('',#672,#672,#34,.T.);
#544=EDGE_CURVE('',#673,#673,#35,.T.);
#545=EDGE_CURVE('',#674,#674,#36,.T.);
#546=EDGE_CURVE('',#675,#675,#37,.T.);
#547=EDGE_CURVE('',#676,#669,#818,.T.);
#548=EDGE_CURVE('',#676,#677,#819,.T.);
#549=EDGE_CURVE('',#662,#677,#820,.T.);
#550=EDGE_CURVE('',#678,#678,#38,.T.);
#551=EDGE_CURVE('',#676,#679,#821,.T.);
#552=EDGE_CURVE('',#680,#670,#822,.T.);
#553=EDGE_CURVE('',#665,#680,#823,.T.);
#554=EDGE_CURVE('',#664,#679,#824,.T.);
#555=EDGE_CURVE('',#681,#679,#825,.T.);
#556=EDGE_CURVE('',#677,#681,#826,.T.);
#557=EDGE_CURVE('',#663,#681,#827,.T.);
#558=EDGE_CURVE('',#682,#680,#828,.T.);
#559=EDGE_CURVE('',#666,#682,#829,.T.);
#560=EDGE_CURVE('',#682,#671,#830,.T.);
#561=EDGE_CURVE('',#683,#604,#831,.T.);
#562=EDGE_CURVE('',#595,#683,#832,.T.);
#563=EDGE_CURVE('',#607,#656,#833,.T.);
#564=EDGE_CURVE('',#683,#657,#834,.T.);
#565=EDGE_CURVE('',#606,#659,#835,.T.);
#566=EDGE_CURVE('',#605,#658,#836,.T.);
#567=EDGE_CURVE('',#642,#643,#837,.T.);
#568=EDGE_CURVE('',#630,#684,#838,.T.);
#569=EDGE_CURVE('',#684,#644,#839,.T.);
#570=EDGE_CURVE('',#641,#646,#840,.T.);
#571=EDGE_CURVE('',#640,#645,#841,.T.);
#572=EDGE_CURVE('',#684,#639,#842,.T.);
#573=VERTEX_POINT('',#1797);
#574=VERTEX_POINT('',#1798);
#575=VERTEX_POINT('',#1800);
#576=VERTEX_POINT('',#1802);
#577=VERTEX_POINT('',#1804);
#578=VERTEX_POINT('',#1808);
#579=VERTEX_POINT('',#1809);
#580=VERTEX_POINT('',#1811);
#581=VERTEX_POINT('',#1813);
#582=VERTEX_POINT('',#1815);
#583=VERTEX_POINT('',#1819);
#584=VERTEX_POINT('',#1821);
#585=VERTEX_POINT('',#1823);
#586=VERTEX_POINT('',#1827);
#587=VERTEX_POINT('',#1829);
#588=VERTEX_POINT('',#1831);
#589=VERTEX_POINT('',#1835);
#590=VERTEX_POINT('',#1837);
#591=VERTEX_POINT('',#1841);
#592=VERTEX_POINT('',#1843);
#593=VERTEX_POINT('',#1847);
#594=VERTEX_POINT('',#1849);
#595=VERTEX_POINT('',#1856);
#596=VERTEX_POINT('',#1858);
#597=VERTEX_POINT('',#1862);
#598=VERTEX_POINT('',#1864);
#599=VERTEX_POINT('',#1871);
#600=VERTEX_POINT('',#1873);
#601=VERTEX_POINT('',#1877);
#602=VERTEX_POINT('',#1878);
#603=VERTEX_POINT('',#1883);
#604=VERTEX_POINT('',#1885);
#605=VERTEX_POINT('',#1899);
#606=VERTEX_POINT('',#1905);
#607=VERTEX_POINT('',#1909);
#608=VERTEX_POINT('',#1913);
#609=VERTEX_POINT('',#1914);
#610=VERTEX_POINT('',#1916);
#611=VERTEX_POINT('',#1918);
#612=VERTEX_POINT('',#1920);
#613=VERTEX_POINT('',#1924);
#614=VERTEX_POINT('',#1925);
#615=VERTEX_POINT('',#1927);
#616=VERTEX_POINT('',#1929);
#617=VERTEX_POINT('',#1931);
#618=VERTEX_POINT('',#1935);
#619=VERTEX_POINT('',#1937);
#620=VERTEX_POINT('',#1939);
#621=VERTEX_POINT('',#1943);
#622=VERTEX_POINT('',#1945);
#623=VERTEX_POINT('',#1947);
#624=VERTEX_POINT('',#1951);
#625=VERTEX_POINT('',#1953);
#626=VERTEX_POINT('',#1957);
#627=VERTEX_POINT('',#1959);
#628=VERTEX_POINT('',#1963);
#629=VERTEX_POINT('',#1965);
#630=VERTEX_POINT('',#1972);
#631=VERTEX_POINT('',#1974);
#632=VERTEX_POINT('',#1978);
#633=VERTEX_POINT('',#1980);
#634=VERTEX_POINT('',#1987);
#635=VERTEX_POINT('',#1989);
#636=VERTEX_POINT('',#1993);
#637=VERTEX_POINT('',#1994);
#638=VERTEX_POINT('',#1999);
#639=VERTEX_POINT('',#2001);
#640=VERTEX_POINT('',#2015);
#641=VERTEX_POINT('',#2021);
#642=VERTEX_POINT('',#2025);
#643=VERTEX_POINT('',#2029);
#644=VERTEX_POINT('',#2030);
#645=VERTEX_POINT('',#2032);
#646=VERTEX_POINT('',#2034);
#647=VERTEX_POINT('',#2037);
#648=VERTEX_POINT('',#2039);
#649=VERTEX_POINT('',#2041);
#650=VERTEX_POINT('',#2043);
#651=VERTEX_POINT('',#2045);
#652=VERTEX_POINT('',#2047);
#653=VERTEX_POINT('',#2048);
#654=VERTEX_POINT('',#2050);
#655=VERTEX_POINT('',#2052);
#656=VERTEX_POINT('',#2055);
#657=VERTEX_POINT('',#2056);
#658=VERTEX_POINT('',#2058);
#659=VERTEX_POINT('',#2060);
#660=VERTEX_POINT('',#2064);
#661=VERTEX_POINT('',#2067);
#662=VERTEX_POINT('',#2070);
#663=VERTEX_POINT('',#2071);
#664=VERTEX_POINT('',#2073);
#665=VERTEX_POINT('',#2075);
#666=VERTEX_POINT('',#2077);
#667=VERTEX_POINT('',#2079);
#668=VERTEX_POINT('',#2084);
#669=VERTEX_POINT('',#2086);
#670=VERTEX_POINT('',#2090);
#671=VERTEX_POINT('',#2091);
#672=VERTEX_POINT('',#2096);
#673=VERTEX_POINT('',#2099);
#674=VERTEX_POINT('',#2102);
#675=VERTEX_POINT('',#2105);
#676=VERTEX_POINT('',#2108);
#677=VERTEX_POINT('',#2110);
#678=VERTEX_POINT('',#2114);
#679=VERTEX_POINT('',#2117);
#680=VERTEX_POINT('',#2119);
#681=VERTEX_POINT('',#2124);
#682=VERTEX_POINT('',#2131);
#683=VERTEX_POINT('',#2138);
#684=VERTEX_POINT('',#2151);
#685=LINE('',#1796,#843);
#686=LINE('',#1799,#844);
#687=LINE('',#1801,#845);
#688=LINE('',#1803,#846);
#689=LINE('',#1805,#847);
#690=LINE('',#1807,#848);
#691=LINE('',#1810,#849);
#692=LINE('',#1812,#850);
#693=LINE('',#1814,#851);
#694=LINE('',#1816,#852);
#695=LINE('',#1818,#853);
#696=LINE('',#1820,#854);
#697=LINE('',#1822,#855);
#698=LINE('',#1824,#856);
#699=LINE('',#1826,#857);
#700=LINE('',#1828,#858);
#701=LINE('',#1830,#859);
#702=LINE('',#1832,#860);
#703=LINE('',#1834,#861);
#704=LINE('',#1836,#862);
#705=LINE('',#1838,#863);
#706=LINE('',#1840,#864);
#707=LINE('',#1842,#865);
#708=LINE('',#1844,#866);
#709=LINE('',#1846,#867);
#710=LINE('',#1848,#868);
#711=LINE('',#1850,#869);
#712=LINE('',#1852,#870);
#713=LINE('',#1853,#871);
#714=LINE('',#1855,#872);
#715=LINE('',#1857,#873);
#716=LINE('',#1859,#874);
#717=LINE('',#1861,#875);
#718=LINE('',#1863,#876);
#719=LINE('',#1865,#877);
#720=LINE('',#1867,#878);
#721=LINE('',#1868,#879);
#722=LINE('',#1870,#880);
#723=LINE('',#1872,#881);
#724=LINE('',#1874,#882);
#725=LINE('',#1876,#883);
#726=LINE('',#1879,#884);
#727=LINE('',#1880,#885);
#728=LINE('',#1882,#886);
#729=LINE('',#1884,#887);
#730=LINE('',#1886,#888);
#731=LINE('',#1892,#889);
#732=LINE('',#1896,#890);
#733=LINE('',#1898,#891);
#734=LINE('',#1900,#892);
#735=LINE('',#1904,#893);
#736=LINE('',#1906,#894);
#737=LINE('',#1908,#895);
#738=LINE('',#1910,#896);
#739=LINE('',#1912,#897);
#740=LINE('',#1915,#898);
#741=LINE('',#1917,#899);
#742=LINE('',#1919,#900);
#743=LINE('',#1921,#901);
#744=LINE('',#1923,#902);
#745=LINE('',#1926,#903);
#746=LINE('',#1928,#904);
#747=LINE('',#1930,#905);
#748=LINE('',#1932,#906);
#749=LINE('',#1934,#907);
#750=LINE('',#1936,#908);
#751=LINE('',#1938,#909);
#752=LINE('',#1940,#910);
#753=LINE('',#1942,#911);
#754=LINE('',#1944,#912);
#755=LINE('',#1946,#913);
#756=LINE('',#1948,#914);
#757=LINE('',#1950,#915);
#758=LINE('',#1952,#916);
#759=LINE('',#1954,#917);
#760=LINE('',#1956,#918);
#761=LINE('',#1958,#919);
#762=LINE('',#1960,#920);
#763=LINE('',#1962,#921);
#764=LINE('',#1964,#922);
#765=LINE('',#1966,#923);
#766=LINE('',#1968,#924);
#767=LINE('',#1969,#925);
#768=LINE('',#1971,#926);
#769=LINE('',#1973,#927);
#770=LINE('',#1975,#928);
#771=LINE('',#1977,#929);
#772=LINE('',#1979,#930);
#773=LINE('',#1981,#931);
#774=LINE('',#1983,#932);
#775=LINE('',#1984,#933);
#776=LINE('',#1986,#934);
#777=LINE('',#1988,#935);
#778=LINE('',#1990,#936);
#779=LINE('',#1992,#937);
#780=LINE('',#1995,#938);
#781=LINE('',#1996,#939);
#782=LINE('',#1998,#940);
#783=LINE('',#2000,#941);
#784=LINE('',#2002,#942);
#785=LINE('',#2008,#943);
#786=LINE('',#2012,#944);
#787=LINE('',#2014,#945);
#788=LINE('',#2016,#946);
#789=LINE('',#2020,#947);
#790=LINE('',#2022,#948);
#791=LINE('',#2024,#949);
#792=LINE('',#2026,#950);
#793=LINE('',#2028,#951);
#794=LINE('',#2031,#952);
#795=LINE('',#2033,#953);
#796=LINE('',#2035,#954);
#797=LINE('',#2046,#955);
#798=LINE('',#2049,#956);
#799=LINE('',#2051,#957);
#800=LINE('',#2053,#958);
#801=LINE('',#2054,#959);
#802=LINE('',#2057,#960);
#803=LINE('',#2059,#961);
#804=LINE('',#2061,#962);
#805=LINE('',#2069,#963);
#806=LINE('',#2072,#964);
#807=LINE('',#2074,#965);
#808=LINE('',#2076,#966);
#809=LINE('',#2078,#967);
#810=LINE('',#2080,#968);
#811=LINE('',#2081,#969);
#812=LINE('',#2083,#970);
#813=LINE('',#2085,#971);
#814=LINE('',#2087,#972);
#815=LINE('',#2089,#973);
#816=LINE('',#2092,#974);
#817=LINE('',#2093,#975);
#818=LINE('',#2107,#976);
#819=LINE('',#2109,#977);
#820=LINE('',#2111,#978);
#821=LINE('',#2116,#979);
#822=LINE('',#2118,#980);
#823=LINE('',#2120,#981);
#824=LINE('',#2121,#982);
#825=LINE('',#2123,#983);
#826=LINE('',#2125,#984);
#827=LINE('',#2127,#985);
#828=LINE('',#2130,#986);
#829=LINE('',#2132,#987);
#830=LINE('',#2134,#988);
#831=LINE('',#2137,#989);
#832=LINE('',#2139,#990);
#833=LINE('',#2141,#991);
#834=LINE('',#2142,#992);
#835=LINE('',#2144,#993);
#836=LINE('',#2146,#994);
#837=LINE('',#2149,#995);
#838=LINE('',#2150,#996);
#839=LINE('',#2152,#997);
#840=LINE('',#2154,#998);
#841=LINE('',#2156,#999);
#842=LINE('',#2158,#1000);
#843=VECTOR('',#1448,1.);
#844=VECTOR('',#1449,1.);
#845=VECTOR('',#1450,1.);
#846=VECTOR('',#1451,1.);
#847=VECTOR('',#1452,1.);
#848=VECTOR('',#1455,1.);
#849=VECTOR('',#1456,1.);
#850=VECTOR('',#1457,1.);
#851=VECTOR('',#1458,1.);
#852=VECTOR('',#1459,1.);
#853=VECTOR('',#1462,1.);
#854=VECTOR('',#1463,1.);
#855=VECTOR('',#1464,1.);
#856=VECTOR('',#1465,1.);
#857=VECTOR('',#1468,1.);
#858=VECTOR('',#1469,1.);
#859=VECTOR('',#1470,1.);
#860=VECTOR('',#1471,1.);
#861=VECTOR('',#1474,1.);
#862=VECTOR('',#1475,1.);
#863=VECTOR('',#1476,1.);
#864=VECTOR('',#1479,1.);
#865=VECTOR('',#1480,1.);
#866=VECTOR('',#1481,1.);
#867=VECTOR('',#1484,1.);
#868=VECTOR('',#1485,1.);
#869=VECTOR('',#1486,1.);
#870=VECTOR('',#1489,1.);
#871=VECTOR('',#1490,1.);
#872=VECTOR('',#1493,1.);
#873=VECTOR('',#1494,1.);
#874=VECTOR('',#1495,1.);
#875=VECTOR('',#1498,1.);
#876=VECTOR('',#1499,1.);
#877=VECTOR('',#1500,1.);
#878=VECTOR('',#1503,1.);
#879=VECTOR('',#1504,1.);
#880=VECTOR('',#1507,1.);
#881=VECTOR('',#1508,1.);
#882=VECTOR('',#1509,1.);
#883=VECTOR('',#1512,1.);
#884=VECTOR('',#1513,1.);
#885=VECTOR('',#1514,1.);
#886=VECTOR('',#1517,1.);
#887=VECTOR('',#1518,1.);
#888=VECTOR('',#1519,1.);
#889=VECTOR('',#1530,1.);
#890=VECTOR('',#1537,1.);
#891=VECTOR('',#1540,1.);
#892=VECTOR('',#1541,1.);
#893=VECTOR('',#1548,1.);
#894=VECTOR('',#1549,1.);
#895=VECTOR('',#1552,1.);
#896=VECTOR('',#1553,1.);
#897=VECTOR('',#1556,1.);
#898=VECTOR('',#1557,1.);
#899=VECTOR('',#1558,1.);
#900=VECTOR('',#1559,1.);
#901=VECTOR('',#1560,1.);
#902=VECTOR('',#1563,1.);
#903=VECTOR('',#1564,1.);
#904=VECTOR('',#1565,1.);
#905=VECTOR('',#1566,1.);
#906=VECTOR('',#1567,1.);
#907=VECTOR('',#1570,1.);
#908=VECTOR('',#1571,1.);
#909=VECTOR('',#1572,1.);
#910=VECTOR('',#1573,1.);
#911=VECTOR('',#1576,1.);
#912=VECTOR('',#1577,1.);
#913=VECTOR('',#1578,1.);
#914=VECTOR('',#1579,1.);
#915=VECTOR('',#1582,1.);
#916=VECTOR('',#1583,1.);
#917=VECTOR('',#1584,1.);
#918=VECTOR('',#1587,1.);
#919=VECTOR('',#1588,1.);
#920=VECTOR('',#1589,1.);
#921=VECTOR('',#1592,1.);
#922=VECTOR('',#1593,1.);
#923=VECTOR('',#1594,1.);
#924=VECTOR('',#1597,1.);
#925=VECTOR('',#1598,1.);
#926=VECTOR('',#1601,1.);
#927=VECTOR('',#1602,1.);
#928=VECTOR('',#1603,1.);
#929=VECTOR('',#1606,1.);
#930=VECTOR('',#1607,1.);
#931=VECTOR('',#1608,1.);
#932=VECTOR('',#1611,1.);
#933=VECTOR('',#1612,1.);
#934=VECTOR('',#1615,1.);
#935=VECTOR('',#1616,1.);
#936=VECTOR('',#1617,1.);
#937=VECTOR('',#1620,1.);
#938=VECTOR('',#1621,1.);
#939=VECTOR('',#1622,1.);
#940=VECTOR('',#1625,1.);
#941=VECTOR('',#1626,1.);
#942=VECTOR('',#1627,1.);
#943=VECTOR('',#1638,1.);
#944=VECTOR('',#1645,1.);
#945=VECTOR('',#1648,1.);
#946=VECTOR('',#1649,1.);
#947=VECTOR('',#1656,1.);
#948=VECTOR('',#1657,1.);
#949=VECTOR('',#1660,1.);
#950=VECTOR('',#1661,1.);
#951=VECTOR('',#1664,1.);
#952=VECTOR('',#1665,1.);
#953=VECTOR('',#1666,1.);
#954=VECTOR('',#1667,1.);
#955=VECTOR('',#1678,1.);
#956=VECTOR('',#1679,1.);
#957=VECTOR('',#1680,1.);
#958=VECTOR('',#1681,1.);
#959=VECTOR('',#1682,1.);
#960=VECTOR('',#1683,1.);
#961=VECTOR('',#1684,1.);
#962=VECTOR('',#1685,1.);
#963=VECTOR('',#1696,1.);
#964=VECTOR('',#1697,1.);
#965=VECTOR('',#1698,1.);
#966=VECTOR('',#1699,1.);
#967=VECTOR('',#1700,1.);
#968=VECTOR('',#1701,1.);
#969=VECTOR('',#1702,1.);
#970=VECTOR('',#1705,1.);
#971=VECTOR('',#1706,1.);
#972=VECTOR('',#1707,1.);
#973=VECTOR('',#1710,1.);
#974=VECTOR('',#1711,1.);
#975=VECTOR('',#1712,1.);
#976=VECTOR('',#1731,1.);
#977=VECTOR('',#1732,1.);
#978=VECTOR('',#1733,1.);
#979=VECTOR('',#1740,1.);
#980=VECTOR('',#1741,1.);
#981=VECTOR('',#1742,1.);
#982=VECTOR('',#1743,1.);
#983=VECTOR('',#1746,1.);
#984=VECTOR('',#1747,1.);
#985=VECTOR('',#1750,1.);
#986=VECTOR('',#1755,1.);
#987=VECTOR('',#1756,1.);
#988=VECTOR('',#1759,1.);
#989=VECTOR('',#1764,1.);
#990=VECTOR('',#1765,1.);
#991=VECTOR('',#1768,1.);
#992=VECTOR('',#1769,1.);
#993=VECTOR('',#1772,1.);
#994=VECTOR('',#1775,1.);
#995=VECTOR('',#1780,1.);
#996=VECTOR('',#1781,1.);
#997=VECTOR('',#1782,1.);
#998=VECTOR('',#1785,1.);
#999=VECTOR('',#1788,1.);
#1000=VECTOR('',#1791,1.);
#1001=EDGE_LOOP('',(#39,#40,#41,#42,#43));
#1002=EDGE_LOOP('',(#44,#45,#46,#47,#48));
#1003=EDGE_LOOP('',(#49,#50,#51,#52,#53));
#1004=EDGE_LOOP('',(#54,#55,#56,#57,#58));
#1005=EDGE_LOOP('',(#59,#60,#61,#62));
#1006=EDGE_LOOP('',(#63,#64,#65,#66));
#1007=EDGE_LOOP('',(#67,#68,#69,#70));
#1008=EDGE_LOOP('',(#71,#72,#73,#74));
#1009=EDGE_LOOP('',(#75,#76,#77,#78));
#1010=EDGE_LOOP('',(#79,#80,#81,#82));
#1011=EDGE_LOOP('',(#83,#84,#85,#86));
#1012=EDGE_LOOP('',(#87,#88,#89,#90));
#1013=EDGE_LOOP('',(#91,#92,#93,#94,#95));
#1014=EDGE_LOOP('',(#96,#97,#98,#99,#100));
#1015=EDGE_LOOP('',(#101,#102,#103));
#1016=EDGE_LOOP('',(#104,#105,#106));
#1017=EDGE_LOOP('',(#107,#108,#109,#110,#111));
#1018=EDGE_LOOP('',(#112,#113,#114));
#1019=EDGE_LOOP('',(#115,#116,#117,#118,#119));
#1020=EDGE_LOOP('',(#120,#121,#122,#123));
#1021=EDGE_LOOP('',(#124,#125,#126));
#1022=EDGE_LOOP('',(#127,#128,#129,#130));
#1023=EDGE_LOOP('',(#131,#132,#133,#134));
#1024=EDGE_LOOP('',(#135,#136,#137,#138,#139));
#1025=EDGE_LOOP('',(#140,#141,#142,#143,#144));
#1026=EDGE_LOOP('',(#145,#146,#147,#148,#149));
#1027=EDGE_LOOP('',(#150,#151,#152,#153,#154));
#1028=EDGE_LOOP('',(#155,#156,#157,#158));
#1029=EDGE_LOOP('',(#159,#160,#161,#162));
#1030=EDGE_LOOP('',(#163,#164,#165,#166));
#1031=EDGE_LOOP('',(#167,#168,#169,#170));
#1032=EDGE_LOOP('',(#171,#172,#173,#174));
#1033=EDGE_LOOP('',(#175,#176,#177,#178));
#1034=EDGE_LOOP('',(#179,#180,#181,#182));
#1035=EDGE_LOOP('',(#183,#184,#185,#186));
#1036=EDGE_LOOP('',(#187,#188,#189,#190,#191));
#1037=EDGE_LOOP('',(#192,#193,#194,#195,#196));
#1038=EDGE_LOOP('',(#197,#198,#199));
#1039=EDGE_LOOP('',(#200,#201,#202));
#1040=EDGE_LOOP('',(#203,#204,#205,#206,#207));
#1041=EDGE_LOOP('',(#208,#209,#210));
#1042=EDGE_LOOP('',(#211,#212,#213,#214,#215));
#1043=EDGE_LOOP('',(#216,#217,#218,#219));
#1044=EDGE_LOOP('',(#220,#221,#222));
#1045=EDGE_LOOP('',(#223,#224,#225,#226));
#1046=EDGE_LOOP('',(#227,#228,#229,#230));
#1047=EDGE_LOOP('',(#231,#232,#233,#234));
#1048=EDGE_LOOP('',(#235));
#1049=EDGE_LOOP('',(#236));
#1050=EDGE_LOOP('',(#237));
#1051=EDGE_LOOP('',(#238));
#1052=EDGE_LOOP('',(#239));
#1053=EDGE_LOOP('',(#240,#241,#242,#243));
#1054=EDGE_LOOP('',(#244,#245,#246,#247));
#1055=EDGE_LOOP('',(#248));
#1056=EDGE_LOOP('',(#249,#250,#251,#252));
#1057=EDGE_LOOP('',(#253));
#1058=EDGE_LOOP('',(#254,#255,#256,#257));
#1059=EDGE_LOOP('',(#258,#259,#260,#261,#262,#263,#264,#265));
#1060=EDGE_LOOP('',(#266,#267,#268,#269));
#1061=EDGE_LOOP('',(#270,#271,#272,#273,#274,#275));
#1062=EDGE_LOOP('',(#276));
#1063=EDGE_LOOP('',(#277));
#1064=EDGE_LOOP('',(#278));
#1065=EDGE_LOOP('',(#279));
#1066=EDGE_LOOP('',(#280));
#1067=EDGE_LOOP('',(#281));
#1068=EDGE_LOOP('',(#282));
#1069=EDGE_LOOP('',(#283));
#1070=EDGE_LOOP('',(#284,#285,#286,#287,#288,#289));
#1071=EDGE_LOOP('',(#290));
#1072=EDGE_LOOP('',(#291));
#1073=EDGE_LOOP('',(#292,#293,#294,#295,#296,#297,#298,#299));
#1074=EDGE_LOOP('',(#300));
#1075=EDGE_LOOP('',(#301));
#1076=EDGE_LOOP('',(#302));
#1077=EDGE_LOOP('',(#303));
#1078=EDGE_LOOP('',(#304));
#1079=EDGE_LOOP('',(#305,#306,#307,#308));
#1080=EDGE_LOOP('',(#309));
#1081=EDGE_LOOP('',(#310,#311,#312,#313));
#1082=EDGE_LOOP('',(#314,#315,#316,#317));
#1083=EDGE_LOOP('',(#318,#319,#320,#321));
#1084=EDGE_LOOP('',(#322,#323,#324,#325));
#1085=EDGE_LOOP('',(#326));
#1086=EDGE_LOOP('',(#327,#328,#329,#330));
#1087=EDGE_LOOP('',(#331,#332,#333,#334));
#1088=EDGE_LOOP('',(#335,#336,#337,#338,#339,#340,#341,#342));
#1089=EDGE_LOOP('',(#343,#344,#345,#346,#347,#348));
#1090=EDGE_LOOP('',(#349,#350,#351,#352,#353,#354,#355,#356));
#1091=EDGE_LOOP('',(#357,#358,#359,#360,#361,#362));
#1092=EDGE_LOOP('',(#363,#364,#365,#366,#367,#368,#369,#370));
#1093=EDGE_LOOP('',(#371,#372,#373,#374,#375,#376));
#1094=EDGE_LOOP('',(#377,#378,#379,#380,#381,#382,#383,#384));
#1095=EDGE_LOOP('',(#385,#386,#387,#388,#389,#390));
#1096=EDGE_LOOP('',(#391,#392,#393,#394));
#1097=FACE_BOUND('',#1001,.T.);
#1098=FACE_BOUND('',#1002,.T.);
#1099=FACE_BOUND('',#1003,.T.);
#1100=FACE_BOUND('',#1004,.T.);
#1101=FACE_BOUND('',#1005,.T.);
#1102=FACE_BOUND('',#1006,.T.);
#1103=FACE_BOUND('',#1007,.T.);
#1104=FACE_BOUND('',#1008,.T.);
#1105=FACE_BOUND('',#1009,.T.);
#1106=FACE_BOUND('',#1010,.T.);
#1107=FACE_BOUND('',#1011,.T.);
#1108=FACE_BOUND('',#1012,.T.);
#1109=FACE_BOUND('',#1013,.T.);
#1110=FACE_BOUND('',#1014,.T.);
#1111=FACE_BOUND('',#1015,.T.);
#1112=FACE_BOUND('',#1016,.T.);
#1113=FACE_BOUND('',#1017,.T.);
#1114=FACE_BOUND('',#1018,.T.);
#1115=FACE_BOUND('',#1019,.T.);
#1116=FACE_BOUND('',#1020,.T.);
#1117=FACE_BOUND('',#1021,.T.);
#1118=FACE_BOUND('',#1022,.T.);
#1119=FACE_BOUND('',#1023,.T.);
#1120=FACE_BOUND('',#1024,.T.);
#1121=FACE_BOUND('',#1025,.T.);
#1122=FACE_BOUND('',#1026,.T.);
#1123=FACE_BOUND('',#1027,.T.);
#1124=FACE_BOUND('',#1028,.T.);
#1125=FACE_BOUND('',#1029,.T.);
#1126=FACE_BOUND('',#1030,.T.);
#1127=FACE_BOUND('',#1031,.T.);
#1128=FACE_BOUND('',#1032,.T.);
#1129=FACE_BOUND('',#1033,.T.);
#1130=FACE_BOUND('',#1034,.T.);
#1131=FACE_BOUND('',#1035,.T.);
#1132=FACE_BOUND('',#1036,.T.);
#1133=FACE_BOUND('',#1037,.T.);
#1134=FACE_BOUND('',#1038,.T.);
#1135=FACE_BOUND('',#1039,.T.);
#1136=FACE_BOUND('',#1040,.T.);
#1137=FACE_BOUND('',#1041,.T.);
#1138=FACE_BOUND('',#1042,.T.);
#1139=FACE_BOUND('',#1043,.T.);
#1140=FACE_BOUND('',#1044,.T.);
#1141=FACE_BOUND('',#1045,.T.);
#1142=FACE_BOUND('',#1046,.T.);
#1143=FACE_BOUND('',#1047,.T.);
#1144=FACE_BOUND('',#1048,.T.);
#1145=FACE_BOUND('',#1049,.T.);
#1146=FACE_BOUND('',#1050,.T.);
#1147=FACE_BOUND('',#1051,.T.);
#1148=FACE_BOUND('',#1052,.T.);
#1149=FACE_BOUND('',#1053,.T.);
#1150=FACE_BOUND('',#1054,.T.);
#1151=FACE_BOUND('',#1055,.T.);
#1152=FACE_BOUND('',#1056,.T.);
#1153=FACE_BOUND('',#1057,.T.);
#1154=FACE_BOUND('',#1058,.T.);
#1155=FACE_BOUND('',#1059,.T.);
#1156=FACE_BOUND('',#1060,.T.);
#1157=FACE_BOUND('',#1061,.T.);
#1158=FACE_BOUND('',#1062,.T.);
#1159=FACE_BOUND('',#1063,.T.);
#1160=FACE_BOUND('',#1064,.T.);
#1161=FACE_BOUND('',#1065,.T.);
#1162=FACE_BOUND('',#1066,.T.);
#1163=FACE_BOUND('',#1067,.T.);
#1164=FACE_BOUND('',#1068,.T.);
#1165=FACE_BOUND('',#1069,.T.);
#1166=FACE_BOUND('',#1070,.T.);
#1167=FACE_BOUND('',#1071,.T.);
#1168=FACE_BOUND('',#1072,.T.);
#1169=FACE_BOUND('',#1073,.T.);
#1170=FACE_BOUND('',#1074,.T.);
#1171=FACE_BOUND('',#1075,.T.);
#1172=FACE_BOUND('',#1076,.T.);
#1173=FACE_BOUND('',#1077,.T.);
#1174=FACE_BOUND('',#1078,.T.);
#1175=FACE_BOUND('',#1079,.T.);
#1176=FACE_BOUND('',#1080,.T.);
#1177=FACE_BOUND('',#1081,.T.);
#1178=FACE_BOUND('',#1082,.T.);
#1179=FACE_BOUND('',#1083,.T.);
#1180=FACE_BOUND('',#1084,.T.);
#1181=FACE_BOUND('',#1085,.T.);
#1182=FACE_BOUND('',#1086,.T.);
#1183=FACE_BOUND('',#1087,.T.);
#1184=FACE_BOUND('',#1088,.T.);
#1185=FACE_BOUND('',#1089,.T.);
#1186=FACE_BOUND('',#1090,.T.);
#1187=FACE_BOUND('',#1091,.T.);
#1188=FACE_BOUND('',#1092,.T.);
#1189=FACE_BOUND('',#1093,.T.);
#1190=FACE_BOUND('',#1094,.T.);
#1191=FACE_BOUND('',#1095,.T.);
#1192=FACE_BOUND('',#1096,.T.);
#1193=PLANE('',#1349);
#1194=PLANE('',#1350);
#1195=PLANE('',#1351);
#1196=PLANE('',#1352);
#1197=PLANE('',#1353);
#1198=PLANE('',#1354);
#1199=PLANE('',#1355);
#1200=PLANE('',#1356);
#1201=PLANE('',#1357);
#1202=PLANE('',#1358);
#1203=PLANE('',#1359);
#1204=PLANE('',#1360);
#1205=PLANE('',#1361);
#1206=PLANE('',#1362);
#1207=PLANE('',#1363);
#1208=PLANE('',#1365);
#1209=PLANE('',#1367);
#1210=PLANE('',#1368);
#1211=PLANE('',#1370);
#1212=PLANE('',#1371);
#1213=PLANE('',#1372);
#1214=PLANE('',#1374);
#1215=PLANE('',#1375);
#1216=PLANE('',#1376);
#1217=PLANE('',#1377);
#1218=PLANE('',#1378);
#1219=PLANE('',#1379);
#1220=PLANE('',#1380);
#1221=PLANE('',#1381);
#1222=PLANE('',#1382);
#1223=PLANE('',#1383);
#1224=PLANE('',#1384);
#1225=PLANE('',#1385);
#1226=PLANE('',#1386);
#1227=PLANE('',#1387);
#1228=PLANE('',#1388);
#1229=PLANE('',#1389);
#1230=PLANE('',#1390);
#1231=PLANE('',#1392);
#1232=PLANE('',#1394);
#1233=PLANE('',#1395);
#1234=PLANE('',#1397);
#1235=PLANE('',#1398);
#1236=PLANE('',#1399);
#1237=PLANE('',#1401);
#1238=PLANE('',#1402);
#1239=PLANE('',#1403);
#1240=PLANE('',#1413);
#1241=PLANE('',#1414);
#1242=PLANE('',#1415);
#1243=PLANE('',#1424);
#1244=PLANE('',#1427);
#1245=PLANE('',#1428);
#1246=PLANE('',#1429);
#1247=PLANE('',#1430);
#1248=PLANE('',#1431);
#1249=PLANE('',#1432);
#1250=PLANE('',#1433);
#1251=PLANE('',#1434);
#1252=PLANE('',#1435);
#1253=PLANE('',#1436);
#1254=PLANE('',#1437);
#1255=PLANE('',#1438);
#1256=PLANE('',#1439);
#1257=PLANE('',#1440);
#1258=PLANE('',#1441);
#1259=PLANE('',#1442);
#1260=PLANE('',#1443);
#1261=ADVANCED_FACE('',(#1097),#1193,.F.);
#1262=ADVANCED_FACE('',(#1098),#1194,.F.);
#1263=ADVANCED_FACE('',(#1099),#1195,.F.);
#1264=ADVANCED_FACE('',(#1100),#1196,.F.);
#1265=ADVANCED_FACE('',(#1101),#1197,.F.);
#1266=ADVANCED_FACE('',(#1102),#1198,.F.);
#1267=ADVANCED_FACE('',(#1103),#1199,.F.);
#1268=ADVANCED_FACE('',(#1104),#1200,.F.);
#1269=ADVANCED_FACE('',(#1105),#1201,.F.);
#1270=ADVANCED_FACE('',(#1106),#1202,.F.);
#1271=ADVANCED_FACE('',(#1107),#1203,.F.);
#1272=ADVANCED_FACE('',(#1108),#1204,.F.);
#1273=ADVANCED_FACE('',(#1109),#1205,.T.);
#1274=ADVANCED_FACE('',(#1110),#1206,.T.);
#1275=ADVANCED_FACE('',(#1111),#1207,.T.);
#1276=ADVANCED_FACE('',(#1112),#1208,.T.);
#1277=ADVANCED_FACE('',(#1113),#1209,.T.);
#1278=ADVANCED_FACE('',(#1114),#1210,.T.);
#1279=ADVANCED_FACE('',(#1115),#1211,.T.);
#1280=ADVANCED_FACE('',(#1116),#1212,.T.);
#1281=ADVANCED_FACE('',(#1117),#1213,.T.);
#1282=ADVANCED_FACE('',(#1118),#1214,.T.);
#1283=ADVANCED_FACE('',(#1119),#1215,.T.);
#1284=ADVANCED_FACE('',(#1120),#1216,.F.);
#1285=ADVANCED_FACE('',(#1121),#1217,.F.);
#1286=ADVANCED_FACE('',(#1122),#1218,.F.);
#1287=ADVANCED_FACE('',(#1123),#1219,.F.);
#1288=ADVANCED_FACE('',(#1124),#1220,.F.);
#1289=ADVANCED_FACE('',(#1125),#1221,.F.);
#1290=ADVANCED_FACE('',(#1126),#1222,.F.);
#1291=ADVANCED_FACE('',(#1127),#1223,.F.);
#1292=ADVANCED_FACE('',(#1128),#1224,.F.);
#1293=ADVANCED_FACE('',(#1129),#1225,.F.);
#1294=ADVANCED_FACE('',(#1130),#1226,.F.);
#1295=ADVANCED_FACE('',(#1131),#1227,.F.);
#1296=ADVANCED_FACE('',(#1132),#1228,.T.);
#1297=ADVANCED_FACE('',(#1133),#1229,.T.);
#1298=ADVANCED_FACE('',(#1134),#1230,.T.);
#1299=ADVANCED_FACE('',(#1135),#1231,.T.);
#1300=ADVANCED_FACE('',(#1136),#1232,.T.);
#1301=ADVANCED_FACE('',(#1137),#1233,.T.);
#1302=ADVANCED_FACE('',(#1138),#1234,.T.);
#1303=ADVANCED_FACE('',(#1139),#1235,.T.);
#1304=ADVANCED_FACE('',(#1140),#1236,.T.);
#1305=ADVANCED_FACE('',(#1141),#1237,.T.);
#1306=ADVANCED_FACE('',(#1142),#1238,.T.);
#1307=ADVANCED_FACE('',(#1143,#1144,#1145,#1146,#1147,#1148,#1149,#1150),
#1239,.F.);
#1308=ADVANCED_FACE('',(#1151,#1152),#12,.F.);
#1309=ADVANCED_FACE('',(#1153,#1154),#13,.F.);
#1310=ADVANCED_FACE('',(#1155),#1240,.T.);
#1311=ADVANCED_FACE('',(#1156),#1241,.T.);
#1312=ADVANCED_FACE('',(#1157),#1242,.T.);
#1313=ADVANCED_FACE('',(#1158,#1159),#14,.F.);
#1314=ADVANCED_FACE('',(#1160,#1161),#15,.F.);
#1315=ADVANCED_FACE('',(#1162,#1163),#16,.F.);
#1316=ADVANCED_FACE('',(#1164,#1165),#17,.F.);
#1317=ADVANCED_FACE('',(#1166),#1243,.F.);
#1318=ADVANCED_FACE('',(#1167,#1168),#18,.F.);
#1319=ADVANCED_FACE('',(#1169,#1170,#1171,#1172,#1173,#1174),#1244,.T.);
#1320=ADVANCED_FACE('',(#1175),#1245,.F.);
#1321=ADVANCED_FACE('',(#1176,#1177),#1246,.T.);
#1322=ADVANCED_FACE('',(#1178),#1247,.T.);
#1323=ADVANCED_FACE('',(#1179),#1248,.F.);
#1324=ADVANCED_FACE('',(#1180),#1249,.F.);
#1325=ADVANCED_FACE('',(#1181,#1182),#1250,.T.);
#1326=ADVANCED_FACE('',(#1183),#1251,.T.);
#1327=ADVANCED_FACE('',(#1184),#1252,.T.);
#1328=ADVANCED_FACE('',(#1185),#1253,.F.);
#1329=ADVANCED_FACE('',(#1186),#1254,.F.);
#1330=ADVANCED_FACE('',(#1187),#1255,.T.);
#1331=ADVANCED_FACE('',(#1188),#1256,.T.);
#1332=ADVANCED_FACE('',(#1189),#1257,.F.);
#1333=ADVANCED_FACE('',(#1190),#1258,.F.);
#1334=ADVANCED_FACE('',(#1191),#1259,.T.);
#1335=ADVANCED_FACE('',(#1192),#1260,.T.);
#1336=CLOSED_SHELL('',(#1261,#1262,#1263,#1264,#1265,#1266,#1267,#1268,
#1269,#1270,#1271,#1272,#1273,#1274,#1275,#1276,#1277,#1278,#1279,#1280,
#1281,#1282,#1283,#1284,#1285,#1286,#1287,#1288,#1289,#1290,#1291,#1292,
#1293,#1294,#1295,#1296,#1297,#1298,#1299,#1300,#1301,#1302,#1303,#1304,
#1305,#1306,#1307,#1308,#1309,#1310,#1311,#1312,#1313,#1314,#1315,#1316,
#1317,#1318,#1319,#1320,#1321,#1322,#1323,#1324,#1325,#1326,#1327,#1328,
#1329,#1330,#1331,#1332,#1333,#1334,#1335));
#1337=STYLED_ITEM('',(#1338),#1345);
#1338=PRESENTATION_STYLE_ASSIGNMENT((#1339));
#1339=SURFACE_STYLE_USAGE(.BOTH.,#1340);
#1340=SURFACE_SIDE_STYLE('',(#1341));
#1341=SURFACE_STYLE_FILL_AREA(#1342);
#1342=FILL_AREA_STYLE('',(#1343));
#1343=FILL_AREA_STYLE_COLOUR('',#1344);
#1344=COLOUR_RGB('',0.129411764705882,0.341176470588236,0.352941176470589);
#1345=MANIFOLD_SOLID_BREP('Left Mid Top Plate',#1336);
#1346=SHAPE_DEFINITION_REPRESENTATION(#2166,#1347);
#1347=SHAPE_REPRESENTATION('Left Mid Top Plate',(#1348),#2161);
#1348=AXIS2_PLACEMENT_3D('',#1794,#1444,#1445);
#1349=AXIS2_PLACEMENT_3D('',#1795,#1446,#1447);
#1350=AXIS2_PLACEMENT_3D('',#1806,#1453,#1454);
#1351=AXIS2_PLACEMENT_3D('',#1817,#1460,#1461);
#1352=AXIS2_PLACEMENT_3D('',#1825,#1466,#1467);
#1353=AXIS2_PLACEMENT_3D('',#1833,#1472,#1473);
#1354=AXIS2_PLACEMENT_3D('',#1839,#1477,#1478);
#1355=AXIS2_PLACEMENT_3D('',#1845,#1482,#1483);
#1356=AXIS2_PLACEMENT_3D('',#1851,#1487,#1488);
#1357=AXIS2_PLACEMENT_3D('',#1854,#1491,#1492);
#1358=AXIS2_PLACEMENT_3D('',#1860,#1496,#1497);
#1359=AXIS2_PLACEMENT_3D('',#1866,#1501,#1502);
#1360=AXIS2_PLACEMENT_3D('',#1869,#1505,#1506);
#1361=AXIS2_PLACEMENT_3D('',#1875,#1510,#1511);
#1362=AXIS2_PLACEMENT_3D('',#1881,#1515,#1516);
#1363=AXIS2_PLACEMENT_3D('',#1887,#1520,#1521);
#1364=AXIS2_PLACEMENT_3D('',#1888,#1522,#1523);
#1365=AXIS2_PLACEMENT_3D('',#1889,#1524,#1525);
#1366=AXIS2_PLACEMENT_3D('',#1890,#1526,#1527);
#1367=AXIS2_PLACEMENT_3D('',#1891,#1528,#1529);
#1368=AXIS2_PLACEMENT_3D('',#1893,#1531,#1532);
#1369=AXIS2_PLACEMENT_3D('',#1894,#1533,#1534);
#1370=AXIS2_PLACEMENT_3D('',#1895,#1535,#1536);
#1371=AXIS2_PLACEMENT_3D('',#1897,#1538,#1539);
#1372=AXIS2_PLACEMENT_3D('',#1901,#1542,#1543);
#1373=AXIS2_PLACEMENT_3D('',#1902,#1544,#1545);
#1374=AXIS2_PLACEMENT_3D('',#1903,#1546,#1547);
#1375=AXIS2_PLACEMENT_3D('',#1907,#1550,#1551);
#1376=AXIS2_PLACEMENT_3D('',#1911,#1554,#1555);
#1377=AXIS2_PLACEMENT_3D('',#1922,#1561,#1562);
#1378=AXIS2_PLACEMENT_3D('',#1933,#1568,#1569);
#1379=AXIS2_PLACEMENT_3D('',#1941,#1574,#1575);
#1380=AXIS2_PLACEMENT_3D('',#1949,#1580,#1581);
#1381=AXIS2_PLACEMENT_3D('',#1955,#1585,#1586);
#1382=AXIS2_PLACEMENT_3D('',#1961,#1590,#1591);
#1383=AXIS2_PLACEMENT_3D('',#1967,#1595,#1596);
#1384=AXIS2_PLACEMENT_3D('',#1970,#1599,#1600);
#1385=AXIS2_PLACEMENT_3D('',#1976,#1604,#1605);
#1386=AXIS2_PLACEMENT_3D('',#1982,#1609,#1610);
#1387=AXIS2_PLACEMENT_3D('',#1985,#1613,#1614);
#1388=AXIS2_PLACEMENT_3D('',#1991,#1618,#1619);
#1389=AXIS2_PLACEMENT_3D('',#1997,#1623,#1624);
#1390=AXIS2_PLACEMENT_3D('',#2003,#1628,#1629);
#1391=AXIS2_PLACEMENT_3D('',#2004,#1630,#1631);
#1392=AXIS2_PLACEMENT_3D('',#2005,#1632,#1633);
#1393=AXIS2_PLACEMENT_3D('',#2006,#1634,#1635);
#1394=AXIS2_PLACEMENT_3D('',#2007,#1636,#1637);
#1395=AXIS2_PLACEMENT_3D('',#2009,#1639,#1640);
#1396=AXIS2_PLACEMENT_3D('',#2010,#1641,#1642);
#1397=AXIS2_PLACEMENT_3D('',#2011,#1643,#1644);
#1398=AXIS2_PLACEMENT_3D('',#2013,#1646,#1647);
#1399=AXIS2_PLACEMENT_3D('',#2017,#1650,#1651);
#1400=AXIS2_PLACEMENT_3D('',#2018,#1652,#1653);
#1401=AXIS2_PLACEMENT_3D('',#2019,#1654,#1655);
#1402=AXIS2_PLACEMENT_3D('',#2023,#1658,#1659);
#1403=AXIS2_PLACEMENT_3D('',#2027,#1662,#1663);
#1404=AXIS2_PLACEMENT_3D('',#2036,#1668,#1669);
#1405=AXIS2_PLACEMENT_3D('',#2038,#1670,#1671);
#1406=AXIS2_PLACEMENT_3D('',#2040,#1672,#1673);
#1407=AXIS2_PLACEMENT_3D('',#2042,#1674,#1675);
#1408=AXIS2_PLACEMENT_3D('',#2044,#1676,#1677);
#1409=AXIS2_PLACEMENT_3D('',#2062,#1686,#1687);
#1410=AXIS2_PLACEMENT_3D('',#2063,#1688,#1689);
#1411=AXIS2_PLACEMENT_3D('',#2065,#1690,#1691);
#1412=AXIS2_PLACEMENT_3D('',#2066,#1692,#1693);
#1413=AXIS2_PLACEMENT_3D('',#2068,#1694,#1695);
#1414=AXIS2_PLACEMENT_3D('',#2082,#1703,#1704);
#1415=AXIS2_PLACEMENT_3D('',#2088,#1708,#1709);
#1416=AXIS2_PLACEMENT_3D('',#2094,#1713,#1714);
#1417=AXIS2_PLACEMENT_3D('',#2095,#1715,#1716);
#1418=AXIS2_PLACEMENT_3D('',#2097,#1717,#1718);
#1419=AXIS2_PLACEMENT_3D('',#2098,#1719,#1720);
#1420=AXIS2_PLACEMENT_3D('',#2100,#1721,#1722);
#1421=AXIS2_PLACEMENT_3D('',#2101,#1723,#1724);
#1422=AXIS2_PLACEMENT_3D('',#2103,#1725,#1726);
#1423=AXIS2_PLACEMENT_3D('',#2104,#1727,#1728);
#1424=AXIS2_PLACEMENT_3D('',#2106,#1729,#1730);
#1425=AXIS2_PLACEMENT_3D('',#2112,#1734,#1735);
#1426=AXIS2_PLACEMENT_3D('',#2113,#1736,#1737);
#1427=AXIS2_PLACEMENT_3D('',#2115,#1738,#1739);
#1428=AXIS2_PLACEMENT_3D('',#2122,#1744,#1745);
#1429=AXIS2_PLACEMENT_3D('',#2126,#1748,#1749);
#1430=AXIS2_PLACEMENT_3D('',#2128,#1751,#1752);
#1431=AXIS2_PLACEMENT_3D('',#2129,#1753,#1754);
#1432=AXIS2_PLACEMENT_3D('',#2133,#1757,#1758);
#1433=AXIS2_PLACEMENT_3D('',#2135,#1760,#1761);
#1434=AXIS2_PLACEMENT_3D('',#2136,#1762,#1763);
#1435=AXIS2_PLACEMENT_3D('',#2140,#1766,#1767);
#1436=AXIS2_PLACEMENT_3D('',#2143,#1770,#1771);
#1437=AXIS2_PLACEMENT_3D('',#2145,#1773,#1774);
#1438=AXIS2_PLACEMENT_3D('',#2147,#1776,#1777);
#1439=AXIS2_PLACEMENT_3D('',#2148,#1778,#1779);
#1440=AXIS2_PLACEMENT_3D('',#2153,#1783,#1784);
#1441=AXIS2_PLACEMENT_3D('',#2155,#1786,#1787);
#1442=AXIS2_PLACEMENT_3D('',#2157,#1789,#1790);
#1443=AXIS2_PLACEMENT_3D('',#2159,#1792,#1793);
#1444=DIRECTION('',(0.,0.,1.));
#1445=DIRECTION('',(1.,0.,0.));
#1446=DIRECTION('',(1.,0.,-1.82602471155453E-16));
#1447=DIRECTION('',(0.,-1.,0.));
#1448=DIRECTION('',(0.,-1.,0.));
#1449=DIRECTION('',(1.82602471155453E-16,0.,1.));
#1450=DIRECTION('',(1.82602471155453E-16,0.,1.));
#1451=DIRECTION('',(0.,-1.,0.));
#1452=DIRECTION('',(-1.82602471155453E-16,0.,-1.));
#1453=DIRECTION('',(-1.,-1.22464679914735E-16,1.82602471155453E-16));
#1454=DIRECTION('',(-1.22464679914735E-16,1.,2.23623531816922E-32));
#1455=DIRECTION('',(-1.22464679914735E-16,1.,2.23623531816922E-32));
#1456=DIRECTION('',(-1.82602471155453E-16,0.,-1.));
#1457=DIRECTION('',(-1.22464679914735E-16,1.,2.23623531816922E-32));
#1458=DIRECTION('',(-1.82602471155453E-16,0.,-1.));
#1459=DIRECTION('',(-1.82602471155453E-16,0.,-1.));
#1460=DIRECTION('',(1.,0.,-1.82602471155453E-16));
#1461=DIRECTION('',(0.,-1.,0.));
#1462=DIRECTION('',(0.,-1.,0.));
#1463=DIRECTION('',(0.,-1.,0.));
#1464=DIRECTION('',(-1.82602471155453E-16,0.,-1.));
#1465=DIRECTION('',(-1.82602471155453E-16,0.,-1.));
#1466=DIRECTION('',(-1.,-1.22464679914735E-16,1.82602471155453E-16));
#1467=DIRECTION('',(-1.22464679914735E-16,1.,2.23623531816922E-32));
#1468=DIRECTION('',(-1.22464679914735E-16,1.,2.23623531816922E-32));
#1469=DIRECTION('',(1.82602471155453E-16,0.,1.));
#1470=DIRECTION('',(1.82602471155453E-16,0.,1.));
#1471=DIRECTION('',(-1.22464679914735E-16,1.,2.23623531816922E-32));
#1472=DIRECTION('',(-1.83697019872103E-16,1.,3.35435297725383E-32));
#1473=DIRECTION('',(1.,1.83697019872103E-16,-1.82602471155453E-16));
#1474=DIRECTION('',(1.,1.83697019872103E-16,-1.82602471155453E-16));
#1475=DIRECTION('',(-1.82602471155453E-16,0.,-1.));
#1476=DIRECTION('',(1.,1.83697019872103E-16,-1.82602471155453E-16));
#1477=DIRECTION('',(1.,0.,-1.82602471155453E-16));
#1478=DIRECTION('',(0.,-1.,0.));
#1479=DIRECTION('',(0.,1.,0.));
#1480=DIRECTION('',(0.,1.,0.));
#1481=DIRECTION('',(1.82602471155453E-16,0.,1.));
#1482=DIRECTION('',(-1.,-1.22464679914735E-16,1.82602471155453E-16));
#1483=DIRECTION('',(-1.22464679914735E-16,1.,2.23623531816922E-32));
#1484=DIRECTION('',(1.22464679914735E-16,-1.,-2.23623531816922E-32));
#1485=DIRECTION('',(-1.82602471155453E-16,0.,-1.));
#1486=DIRECTION('',(1.22464679914735E-16,-1.,-2.23623531816922E-32));
#1487=DIRECTION('',(-1.83697019872103E-16,1.,3.35435297725383E-32));
#1488=DIRECTION('',(1.,1.83697019872103E-16,-1.82602471155453E-16));
#1489=DIRECTION('',(1.,1.83697019872103E-16,-1.82602471155453E-16));
#1490=DIRECTION('',(1.,1.83697019872103E-16,-1.82602471155453E-16));
#1491=DIRECTION('',(1.,0.,-1.82602471155453E-16));
#1492=DIRECTION('',(0.,-1.,0.));
#1493=DIRECTION('',(0.,1.,0.));
#1494=DIRECTION('',(1.82602471155453E-16,0.,1.));
#1495=DIRECTION('',(0.,1.,0.));
#1496=DIRECTION('',(6.12323399573677E-17,-1.,-1.11811765908461E-32));
#1497=DIRECTION('',(-1.,-6.12323399573677E-17,1.82602471155453E-16));
#1498=DIRECTION('',(-1.,-6.12323399573677E-17,1.82602471155453E-16));
#1499=DIRECTION('',(-1.,-6.12323399573677E-17,1.82602471155453E-16));
#1500=DIRECTION('',(-1.82602471155453E-16,0.,-1.));
#1501=DIRECTION('',(6.12323399573677E-17,-1.,-1.11811765908461E-32));
#1502=DIRECTION('',(-1.,-6.12323399573677E-17,1.82602471155453E-16));
#1503=DIRECTION('',(-1.,-6.12323399573677E-17,1.82602471155453E-16));
#1504=DIRECTION('',(-1.,-6.12323399573677E-17,1.82602471155453E-16));
#1505=DIRECTION('',(-1.,-1.22464679914735E-16,1.82602471155453E-16));
#1506=DIRECTION('',(-1.22464679914735E-16,1.,2.23623531816922E-32));
#1507=DIRECTION('',(1.22464679914735E-16,-1.,-2.23623531816922E-32));
#1508=DIRECTION('',(1.22464679914735E-16,-1.,-2.23623531816922E-32));
#1509=DIRECTION('',(-1.82602471155453E-16,0.,-1.));
#1510=DIRECTION('',(-1.82602471155453E-16,0.,-1.));
#1511=DIRECTION('',(1.,0.,-1.82602471155453E-16));
#1512=DIRECTION('',(0.,1.,0.));
#1513=DIRECTION('',(1.,0.,-1.82602471155453E-16));
#1514=DIRECTION('',(1.,0.,-1.82602471155453E-16));
#1515=DIRECTION('',(-1.82602471155453E-16,0.,-1.));
#1516=DIRECTION('',(1.,0.,-1.82602471155453E-16));
#1517=DIRECTION('',(1.,0.,-1.82602471155453E-16));
#1518=DIRECTION('',(0.,1.,0.));
#1519=DIRECTION('',(1.,0.,-1.82602471155453E-16));
#1520=DIRECTION('',(-1.82602471155453E-16,0.,-1.));
#1521=DIRECTION('',(1.,0.,-1.82602471155453E-16));
#1522=DIRECTION('',(-1.82602471155453E-16,0.,-1.));
#1523=DIRECTION('',(-1.,0.,1.82602471155453E-16));
#1524=DIRECTION('',(-1.82602471155453E-16,0.,-1.));
#1525=DIRECTION('',(1.,0.,-1.82602471155453E-16));
#1526=DIRECTION('',(-1.82602471155453E-16,0.,-1.));
#1527=DIRECTION('',(-1.,0.,1.82602471155453E-16));
#1528=DIRECTION('',(-1.82602471155453E-16,0.,-1.));
#1529=DIRECTION('',(1.,0.,-1.82602471155453E-16));
#1530=DIRECTION('',(1.,0.,-1.82602471155453E-16));
#1531=DIRECTION('',(-1.82602471155453E-16,0.,-1.));
#1532=DIRECTION('',(1.,0.,-1.82602471155453E-16));
#1533=DIRECTION('',(-1.82602471155453E-16,0.,-1.));
#1534=DIRECTION('',(-1.,0.,1.82602471155453E-16));
#1535=DIRECTION('',(-1.82602471155453E-16,0.,-1.));
#1536=DIRECTION('',(1.,0.,-1.82602471155453E-16));
#1537=DIRECTION('',(1.,0.,-1.82602471155453E-16));
#1538=DIRECTION('',(-1.82602471155453E-16,0.,-1.));
#1539=DIRECTION('',(1.,0.,-1.82602471155453E-16));
#1540=DIRECTION('',(1.,0.,-1.82602471155453E-16));
#1541=DIRECTION('',(0.,1.,0.));
#1542=DIRECTION('',(-1.82602471155453E-16,0.,-1.));
#1543=DIRECTION('',(1.,0.,-1.82602471155453E-16));
#1544=DIRECTION('',(-1.82602471155453E-16,0.,-1.));
#1545=DIRECTION('',(-1.,0.,1.82602471155453E-16));
#1546=DIRECTION('',(-1.82602471155453E-16,0.,-1.));
#1547=DIRECTION('',(1.,0.,-1.82602471155453E-16));
#1548=DIRECTION('',(0.,1.,0.));
#1549=DIRECTION('',(1.,0.,-1.82602471155453E-16));
#1550=DIRECTION('',(-1.82602471155453E-16,0.,-1.));
#1551=DIRECTION('',(1.,0.,-1.82602471155453E-16));
#1552=DIRECTION('',(1.,0.,-1.82602471155453E-16));
#1553=DIRECTION('',(0.,1.,0.));
#1554=DIRECTION('',(1.,0.,-1.82602471155453E-16));
#1555=DIRECTION('',(0.,-1.,0.));
#1556=DIRECTION('',(0.,-1.,0.));
#1557=DIRECTION('',(1.82602471155453E-16,0.,1.));
#1558=DIRECTION('',(1.82602471155453E-16,0.,1.));
#1559=DIRECTION('',(0.,-1.,0.));
#1560=DIRECTION('',(-1.82602471155453E-16,0.,-1.));
#1561=DIRECTION('',(-1.,-1.22464679914735E-16,1.82602471155453E-16));
#1562=DIRECTION('',(-1.22464679914735E-16,1.,2.23623531816922E-32));
#1563=DIRECTION('',(-1.22464679914735E-16,1.,2.23623531816922E-32));
#1564=DIRECTION('',(-1.82602471155453E-16,0.,-1.));
#1565=DIRECTION('',(-1.22464679914735E-16,1.,2.23623531816922E-32));
#1566=DIRECTION('',(-1.82602471155453E-16,0.,-1.));
#1567=DIRECTION('',(-1.82602471155453E-16,0.,-1.));
#1568=DIRECTION('',(1.,0.,-1.82602471155453E-16));
#1569=DIRECTION('',(0.,-1.,0.));
#1570=DIRECTION('',(0.,-1.,0.));
#1571=DIRECTION('',(0.,-1.,0.));
#1572=DIRECTION('',(-1.82602471155453E-16,0.,-1.));
#1573=DIRECTION('',(-1.82602471155453E-16,0.,-1.));
#1574=DIRECTION('',(-1.,-1.22464679914735E-16,1.82602471155453E-16));
#1575=DIRECTION('',(-1.22464679914735E-16,1.,2.23623531816922E-32));
#1576=DIRECTION('',(-1.22464679914735E-16,1.,2.23623531816922E-32));
#1577=DIRECTION('',(1.82602471155453E-16,0.,1.));
#1578=DIRECTION('',(1.82602471155453E-16,0.,1.));
#1579=DIRECTION('',(-1.22464679914735E-16,1.,2.23623531816922E-32));
#1580=DIRECTION('',(-1.83697019872103E-16,1.,3.35435297725383E-32));
#1581=DIRECTION('',(1.,1.83697019872103E-16,-1.82602471155453E-16));
#1582=DIRECTION('',(1.,1.83697019872103E-16,-1.82602471155453E-16));
#1583=DIRECTION('',(-1.82602471155453E-16,0.,-1.));
#1584=DIRECTION('',(1.,1.83697019872103E-16,-1.82602471155453E-16));
#1585=DIRECTION('',(1.,0.,-1.82602471155453E-16));
#1586=DIRECTION('',(0.,-1.,0.));
#1587=DIRECTION('',(0.,1.,0.));
#1588=DIRECTION('',(0.,1.,0.));
#1589=DIRECTION('',(1.82602471155453E-16,0.,1.));
#1590=DIRECTION('',(-1.,-1.22464679914735E-16,1.82602471155453E-16));
#1591=DIRECTION('',(-1.22464679914735E-16,1.,2.23623531816922E-32));
#1592=DIRECTION('',(1.22464679914735E-16,-1.,-2.23623531816922E-32));
#1593=DIRECTION('',(-1.82602471155453E-16,0.,-1.));
#1594=DIRECTION('',(1.22464679914735E-16,-1.,-2.23623531816922E-32));
#1595=DIRECTION('',(-1.83697019872103E-16,1.,3.35435297725383E-32));
#1596=DIRECTION('',(1.,1.83697019872103E-16,-1.82602471155453E-16));
#1597=DIRECTION('',(1.,1.83697019872103E-16,-1.82602471155453E-16));
#1598=DIRECTION('',(1.,1.83697019872103E-16,-1.82602471155453E-16));
#1599=DIRECTION('',(1.,0.,-1.82602471155453E-16));
#1600=DIRECTION('',(0.,-1.,0.));
#1601=DIRECTION('',(0.,1.,0.));
#1602=DIRECTION('',(1.82602471155453E-16,0.,1.));
#1603=DIRECTION('',(0.,1.,0.));
#1604=DIRECTION('',(6.12323399573677E-17,-1.,-1.11811765908461E-32));
#1605=DIRECTION('',(-1.,-6.12323399573677E-17,1.82602471155453E-16));
#1606=DIRECTION('',(-1.,-6.12323399573677E-17,1.82602471155453E-16));
#1607=DIRECTION('',(-1.,-6.12323399573677E-17,1.82602471155453E-16));
#1608=DIRECTION('',(-1.82602471155453E-16,0.,-1.));
#1609=DIRECTION('',(6.12323399573677E-17,-1.,-1.11811765908461E-32));
#1610=DIRECTION('',(-1.,-6.12323399573677E-17,1.82602471155453E-16));
#1611=DIRECTION('',(-1.,-6.12323399573677E-17,1.82602471155453E-16));
#1612=DIRECTION('',(-1.,-6.12323399573677E-17,1.82602471155453E-16));
#1613=DIRECTION('',(-1.,-1.22464679914735E-16,1.82602471155453E-16));
#1614=DIRECTION('',(-1.22464679914735E-16,1.,2.23623531816922E-32));
#1615=DIRECTION('',(1.22464679914735E-16,-1.,-2.23623531816922E-32));
#1616=DIRECTION('',(1.22464679914735E-16,-1.,-2.23623531816922E-32));
#1617=DIRECTION('',(-1.82602471155453E-16,0.,-1.));
#1618=DIRECTION('',(-1.82602471155453E-16,0.,-1.));
#1619=DIRECTION('',(1.,0.,-1.82602471155453E-16));
#1620=DIRECTION('',(0.,1.,0.));
#1621=DIRECTION('',(1.,0.,-1.82602471155453E-16));
#1622=DIRECTION('',(1.,0.,-1.82602471155453E-16));
#1623=DIRECTION('',(-1.82602471155453E-16,0.,-1.));
#1624=DIRECTION('',(1.,0.,-1.82602471155453E-16));
#1625=DIRECTION('',(1.,0.,-1.82602471155453E-16));
#1626=DIRECTION('',(0.,1.,0.));
#1627=DIRECTION('',(1.,0.,-1.82602471155453E-16));
#1628=DIRECTION('',(-1.82602471155453E-16,0.,-1.));
#1629=DIRECTION('',(1.,0.,-1.82602471155453E-16));
#1630=DIRECTION('',(-1.82602471155453E-16,0.,-1.));
#1631=DIRECTION('',(-1.,0.,1.82602471155453E-16));
#1632=DIRECTION('',(-1.82602471155453E-16,0.,-1.));
#1633=DIRECTION('',(1.,0.,-1.82602471155453E-16));
#1634=DIRECTION('',(-1.82602471155453E-16,0.,-1.));
#1635=DIRECTION('',(-1.,0.,1.82602471155453E-16));
#1636=DIRECTION('',(-1.82602471155453E-16,0.,-1.));
#1637=DIRECTION('',(1.,0.,-1.82602471155453E-16));
#1638=DIRECTION('',(1.,0.,-1.82602471155453E-16));
#1639=DIRECTION('',(-1.82602471155453E-16,0.,-1.));
#1640=DIRECTION('',(1.,0.,-1.82602471155453E-16));
#1641=DIRECTION('',(-1.82602471155453E-16,0.,-1.));
#1642=DIRECTION('',(-1.,0.,1.82602471155453E-16));
#1643=DIRECTION('',(-1.82602471155453E-16,0.,-1.));
#1644=DIRECTION('',(1.,0.,-1.82602471155453E-16));
#1645=DIRECTION('',(1.,0.,-1.82602471155453E-16));
#1646=DIRECTION('',(-1.82602471155453E-16,0.,-1.));
#1647=DIRECTION('',(1.,0.,-1.82602471155453E-16));
#1648=DIRECTION('',(1.,0.,-1.82602471155453E-16));
#1649=DIRECTION('',(0.,1.,0.));
#1650=DIRECTION('',(-1.82602471155453E-16,0.,-1.));
#1651=DIRECTION('',(1.,0.,-1.82602471155453E-16));
#1652=DIRECTION('',(-1.82602471155453E-16,0.,-1.));
#1653=DIRECTION('',(-1.,0.,1.82602471155453E-16));
#1654=DIRECTION('',(-1.82602471155453E-16,0.,-1.));
#1655=DIRECTION('',(1.,0.,-1.82602471155453E-16));
#1656=DIRECTION('',(0.,1.,0.));
#1657=DIRECTION('',(1.,0.,-1.82602471155453E-16));
#1658=DIRECTION('',(-1.82602471155453E-16,0.,-1.));
#1659=DIRECTION('',(1.,0.,-1.82602471155453E-16));
#1660=DIRECTION('',(1.,0.,-1.82602471155453E-16));
#1661=DIRECTION('',(0.,1.,0.));
#1662=DIRECTION('',(1.82602471155453E-16,0.,1.));
#1663=DIRECTION('',(1.,0.,-1.82602471155453E-16));
#1664=DIRECTION('',(1.,0.,-1.82602471155453E-16));
#1665=DIRECTION('',(0.,1.,0.));
#1666=DIRECTION('',(1.,0.,-1.82602471155453E-16));
#1667=DIRECTION('',(0.,1.,0.));
#1668=DIRECTION('',(1.82602471155453E-16,0.,1.));
#1669=DIRECTION('',(1.,0.,-1.82602471155453E-16));
#1670=DIRECTION('',(1.82602471155453E-16,0.,1.));
#1671=DIRECTION('',(1.,0.,-1.82602471155453E-16));
#1672=DIRECTION('',(1.82602471155453E-16,0.,1.));
#1673=DIRECTION('',(1.,0.,-1.82602471155453E-16));
#1674=DIRECTION('',(1.82602471155453E-16,0.,1.));
#1675=DIRECTION('',(1.,0.,-1.82602471155453E-16));
#1676=DIRECTION('',(1.82602471155453E-16,0.,1.));
#1677=DIRECTION('',(1.,0.,-1.82602471155453E-16));
#1678=DIRECTION('',(0.,1.,0.));
#1679=DIRECTION('',(-1.,-6.25830340825906E-16,1.82602471155453E-16));
#1680=DIRECTION('',(0.,-1.,0.));
#1681=DIRECTION('',(-1.,0.,1.82602471155453E-16));
#1682=DIRECTION('',(1.,0.,-1.82602471155453E-16));
#1683=DIRECTION('',(0.,1.,0.));
#1684=DIRECTION('',(1.,0.,-1.82602471155453E-16));
#1685=DIRECTION('',(0.,1.,0.));
#1686=DIRECTION('',(1.82602471155453E-16,0.,1.));
#1687=DIRECTION('',(1.,0.,-1.82602471155453E-16));
#1688=DIRECTION('',(1.82602471155453E-16,0.,1.));
#1689=DIRECTION('',(1.,0.,-1.82602471155453E-16));
#1690=DIRECTION('',(1.82602471155453E-16,0.,1.));
#1691=DIRECTION('',(1.,0.,-1.82602471155453E-16));
#1692=DIRECTION('',(1.82602471155453E-16,0.,1.));
#1693=DIRECTION('',(1.,0.,-1.82602471155453E-16));
#1694=DIRECTION('',(1.,0.,-1.82602471155453E-16));
#1695=DIRECTION('',(-1.82602471155453E-16,0.,-1.));
#1696=DIRECTION('',(0.,-1.,0.));
#1697=DIRECTION('',(1.82602471155453E-16,0.,1.));
#1698=DIRECTION('',(0.,-1.,0.));
#1699=DIRECTION('',(1.82602471155453E-16,0.,1.));
#1700=DIRECTION('',(0.,-1.,0.));
#1701=DIRECTION('',(-1.82602471155453E-16,0.,-1.));
#1702=DIRECTION('',(-1.82602471155453E-16,0.,-1.));
#1703=DIRECTION('',(-1.,0.,1.82602471155453E-16));
#1704=DIRECTION('',(1.82602471155453E-16,0.,1.));
#1705=DIRECTION('',(-1.82602471155453E-16,0.,-1.));
#1706=DIRECTION('',(0.,1.,0.));
#1707=DIRECTION('',(-1.82602471155453E-16,0.,-1.));
#1708=DIRECTION('',(0.,-1.,0.));
#1709=DIRECTION('',(0.,0.,-1.));
#1710=DIRECTION('',(-1.82602471155453E-16,0.,-1.));
#1711=DIRECTION('',(-1.,0.,1.82602471155453E-16));
#1712=DIRECTION('',(-1.,0.,1.82602471155453E-16));
#1713=DIRECTION('',(-1.82602471155453E-16,0.,-1.));
#1714=DIRECTION('',(-1.,0.,1.82602471155453E-16));
#1715=DIRECTION('',(1.82602471155453E-16,0.,1.));
#1716=DIRECTION('',(1.,0.,-1.82602471155453E-16));
#1717=DIRECTION('',(-1.82602471155453E-16,0.,-1.));
#1718=DIRECTION('',(-1.,0.,1.82602471155453E-16));
#1719=DIRECTION('',(1.82602471155453E-16,0.,1.));
#1720=DIRECTION('',(1.,0.,-1.82602471155453E-16));
#1721=DIRECTION('',(-1.82602471155453E-16,0.,-1.));
#1722=DIRECTION('',(-1.,0.,1.82602471155453E-16));
#1723=DIRECTION('',(1.82602471155453E-16,0.,1.));
#1724=DIRECTION('',(1.,0.,-1.82602471155453E-16));
#1725=DIRECTION('',(-1.82602471155453E-16,0.,-1.));
#1726=DIRECTION('',(-1.,0.,1.82602471155453E-16));
#1727=DIRECTION('',(1.82602471155453E-16,0.,1.));
#1728=DIRECTION('',(1.,0.,-1.82602471155453E-16));
#1729=DIRECTION('',(6.25830340825906E-16,-1.,-1.1427816675887E-31));
#1730=DIRECTION('',(1.,6.25830340825906E-16,0.));
#1731=DIRECTION('',(-1.,-6.25830340825906E-16,1.82602471155453E-16));
#1732=DIRECTION('',(-1.82602471155453E-16,-2.18952885050752E-47,-1.));
#1733=DIRECTION('',(-1.,-6.25830340825906E-16,1.82602471155453E-16));
#1734=DIRECTION('',(-1.82602471155453E-16,0.,-1.));
#1735=DIRECTION('',(-1.,0.,1.82602471155453E-16));
#1736=DIRECTION('',(1.82602471155453E-16,0.,1.));
#1737=DIRECTION('',(1.,0.,-1.82602471155453E-16));
#1738=DIRECTION('',(1.82602471155453E-16,0.,1.));
#1739=DIRECTION('',(1.,0.,-1.82602471155453E-16));
#1740=DIRECTION('',(0.,-1.,0.));
#1741=DIRECTION('',(0.,-1.,0.));
#1742=DIRECTION('',(-1.,0.,1.82602471155453E-16));
#1743=DIRECTION('',(-1.,0.,1.82602471155453E-16));
#1744=DIRECTION('',(-1.,0.,1.82602471155453E-16));
#1745=DIRECTION('',(1.82602471155453E-16,0.,1.));
#1746=DIRECTION('',(1.82602471155453E-16,0.,1.));
#1747=DIRECTION('',(0.,-1.,0.));
#1748=DIRECTION('',(1.82602471155453E-16,0.,1.));
#1749=DIRECTION('',(1.,0.,-1.82602471155453E-16));
#1750=DIRECTION('',(-1.,0.,1.82602471155453E-16));
#1751=DIRECTION('',(0.,1.,0.));
#1752=DIRECTION('',(0.,0.,1.));
#1753=DIRECTION('',(0.,1.,0.));
#1754=DIRECTION('',(0.,0.,1.));
#1755=DIRECTION('',(1.82602471155453E-16,0.,1.));
#1756=DIRECTION('',(-1.,0.,1.82602471155453E-16));
#1757=DIRECTION('',(-1.,0.,1.82602471155453E-16));
#1758=DIRECTION('',(1.82602471155453E-16,0.,1.));
#1759=DIRECTION('',(0.,-1.,0.));
#1760=DIRECTION('',(1.82602471155453E-16,0.,1.));
#1761=DIRECTION('',(1.,0.,-1.82602471155453E-16));
#1762=DIRECTION('',(-1.82602471155453E-16,0.,-1.));
#1763=DIRECTION('',(1.,0.,-1.82602471155453E-16));
#1764=DIRECTION('',(0.,1.,0.));
#1765=DIRECTION('',(1.,0.,-1.82602471155453E-16));
#1766=DIRECTION('',(0.,1.,0.));
#1767=DIRECTION('',(0.,0.,1.));
#1768=DIRECTION('',(-1.82602471155453E-16,0.,-1.));
#1769=DIRECTION('',(-1.82602471155453E-16,0.,-1.));
#1770=DIRECTION('',(-1.,0.,1.82602471155453E-16));
#1771=DIRECTION('',(1.82602471155453E-16,0.,1.));
#1772=DIRECTION('',(-1.82602471155453E-16,0.,-1.));
#1773=DIRECTION('',(0.,1.,0.));
#1774=DIRECTION('',(0.,0.,1.));
#1775=DIRECTION('',(-1.82602471155453E-16,0.,-1.));
#1776=DIRECTION('',(-1.,0.,1.82602471155453E-16));
#1777=DIRECTION('',(1.82602471155453E-16,0.,1.));
#1778=DIRECTION('',(0.,1.,0.));
#1779=DIRECTION('',(0.,0.,1.));
#1780=DIRECTION('',(-1.82602471155453E-16,0.,-1.));
#1781=DIRECTION('',(1.,0.,-1.82602471155453E-16));
#1782=DIRECTION('',(-1.82602471155453E-16,0.,-1.));
#1783=DIRECTION('',(-1.,0.,1.82602471155453E-16));
#1784=DIRECTION('',(1.82602471155453E-16,0.,1.));
#1785=DIRECTION('',(-1.82602471155453E-16,0.,-1.));
#1786=DIRECTION('',(0.,1.,0.));
#1787=DIRECTION('',(0.,0.,1.));
#1788=DIRECTION('',(-1.82602471155453E-16,0.,-1.));
#1789=DIRECTION('',(-1.,0.,1.82602471155453E-16));
#1790=DIRECTION('',(1.82602471155453E-16,0.,1.));
#1791=DIRECTION('',(0.,1.,0.));
#1792=DIRECTION('',(-1.82602471155453E-16,0.,-1.));
#1793=DIRECTION('',(1.,0.,-1.82602471155453E-16));
#1794=CARTESIAN_POINT('',(0.,0.,0.));
#1795=CARTESIAN_POINT('',(-0.2848,0.2215,0.021));
#1796=CARTESIAN_POINT('',(-0.2848,0.2215,0.021));
#1797=CARTESIAN_POINT('',(-0.2848,0.2565,0.021));
#1798=CARTESIAN_POINT('',(-0.2848,0.2545,0.021));
#1799=CARTESIAN_POINT('',(-0.2848,0.2565,0.021));
#1800=CARTESIAN_POINT('',(-0.2848,0.2565,0.0208));
#1801=CARTESIAN_POINT('',(-0.2848,0.2565,0.021));
#1802=CARTESIAN_POINT('',(-0.2848,0.2565,0.0206));
#1803=CARTESIAN_POINT('',(-0.2848,0.2215,0.0206));
#1804=CARTESIAN_POINT('',(-0.2848,0.2545,0.0206));
#1805=CARTESIAN_POINT('',(-0.2848,0.2545,0.021));
#1806=CARTESIAN_POINT('',(-0.2888,0.2215,0.021));
#1807=CARTESIAN_POINT('',(-0.2888,0.2215,0.021));
#1808=CARTESIAN_POINT('',(-0.2888,0.2545,0.021));
#1809=CARTESIAN_POINT('',(-0.2888,0.2565,0.021));
#1810=CARTESIAN_POINT('',(-0.2888,0.2545,0.021));
#1811=CARTESIAN_POINT('',(-0.2888,0.2545,0.0206));
#1812=CARTESIAN_POINT('',(-0.2888,0.2215,0.0206));
#1813=CARTESIAN_POINT('',(-0.2888,0.2565,0.0206));
#1814=CARTESIAN_POINT('',(-0.2888,0.2565,0.021));
#1815=CARTESIAN_POINT('',(-0.2888,0.2565,0.0208));
#1816=CARTESIAN_POINT('',(-0.2888,0.2565,0.021));
#1817=CARTESIAN_POINT('',(-0.2848,0.2215,0.021));
#1818=CARTESIAN_POINT('',(-0.2848,0.2215,0.021));
#1819=CARTESIAN_POINT('',(-0.2848,0.2525,0.021));
#1820=CARTESIAN_POINT('',(-0.2848,0.2215,0.0206));
#1821=CARTESIAN_POINT('',(-0.2848,0.2525,0.0206));
#1822=CARTESIAN_POINT('',(-0.2848,0.2525,0.021));
#1823=CARTESIAN_POINT('',(-0.2848,0.2525,0.0208));
#1824=CARTESIAN_POINT('',(-0.2848,0.2525,0.021));
#1825=CARTESIAN_POINT('',(-0.2888,0.2215,0.021));
#1826=CARTESIAN_POINT('',(-0.2888,0.2215,0.021));
#1827=CARTESIAN_POINT('',(-0.2888,0.2525,0.021));
#1828=CARTESIAN_POINT('',(-0.2888,0.2525,0.021));
#1829=CARTESIAN_POINT('',(-0.2888,0.2525,0.0208));
#1830=CARTESIAN_POINT('',(-0.2888,0.2525,0.021));
#1831=CARTESIAN_POINT('',(-0.2888,0.2525,0.0206));
#1832=CARTESIAN_POINT('',(-0.2888,0.2215,0.0206));
#1833=CARTESIAN_POINT('',(-0.23575,0.2565,0.021));
#1834=CARTESIAN_POINT('',(-0.23575,0.2565,0.021));
#1835=CARTESIAN_POINT('',(-0.2868,0.2565,0.021));
#1836=CARTESIAN_POINT('',(-0.2868,0.2565,0.021));
#1837=CARTESIAN_POINT('',(-0.2868,0.2565,0.0208));
#1838=CARTESIAN_POINT('',(-0.23575,0.2565,0.0208));
#1839=CARTESIAN_POINT('',(-0.2848,0.2215,0.021));
#1840=CARTESIAN_POINT('',(-0.2848,0.2215,0.0206));
#1841=CARTESIAN_POINT('',(-0.2848,0.2575,0.0206));
#1842=CARTESIAN_POINT('',(-0.2848,0.2215,0.0208));
#1843=CARTESIAN_POINT('',(-0.2848,0.2575,0.0208));
#1844=CARTESIAN_POINT('',(-0.2848,0.2575,0.021));
#1845=CARTESIAN_POINT('',(-0.2888,0.2215,0.021));
#1846=CARTESIAN_POINT('',(-0.2888,0.2215,0.0206));
#1847=CARTESIAN_POINT('',(-0.2888,0.2575,0.0206));
#1848=CARTESIAN_POINT('',(-0.2888,0.2575,0.021));
#1849=CARTESIAN_POINT('',(-0.2888,0.2575,0.0208));
#1850=CARTESIAN_POINT('',(-0.2888,0.2215,0.0208));
#1851=CARTESIAN_POINT('',(-0.23575,0.2565,0.021));
#1852=CARTESIAN_POINT('',(-0.23575,0.2565,0.021));
#1853=CARTESIAN_POINT('',(-0.23575,0.2565,0.0208));
#1854=CARTESIAN_POINT('',(-0.2848,0.2215,0.021));
#1855=CARTESIAN_POINT('',(-0.2848,0.2215,0.0206));
#1856=CARTESIAN_POINT('',(-0.2848,0.2515,0.0206));
#1857=CARTESIAN_POINT('',(-0.2848,0.2515,0.021));
#1858=CARTESIAN_POINT('',(-0.2848,0.2515,0.0208));
#1859=CARTESIAN_POINT('',(-0.2848,0.2215,0.0208));
#1860=CARTESIAN_POINT('',(-0.23575,0.2525,0.021));
#1861=CARTESIAN_POINT('',(-0.23575,0.2525,0.021));
#1862=CARTESIAN_POINT('',(-0.2868,0.2525,0.021));
#1863=CARTESIAN_POINT('',(-0.23575,0.2525,0.0208));
#1864=CARTESIAN_POINT('',(-0.2868,0.2525,0.0208));
#1865=CARTESIAN_POINT('',(-0.2868,0.2525,0.021));
#1866=CARTESIAN_POINT('',(-0.23575,0.2525,0.021));
#1867=CARTESIAN_POINT('',(-0.23575,0.2525,0.021));
#1868=CARTESIAN_POINT('',(-0.23575,0.2525,0.0208));
#1869=CARTESIAN_POINT('',(-0.2888,0.2215,0.021));
#1870=CARTESIAN_POINT('',(-0.2888,0.2215,0.0206));
#1871=CARTESIAN_POINT('',(-0.2888,0.2515,0.0206));
#1872=CARTESIAN_POINT('',(-0.2888,0.2215,0.0208));
#1873=CARTESIAN_POINT('',(-0.2888,0.2515,0.0208));
#1874=CARTESIAN_POINT('',(-0.2888,0.2515,0.021));
#1875=CARTESIAN_POINT('',(-0.23575,0.2215,0.0206));
#1876=CARTESIAN_POINT('',(-0.2898,0.2215,0.0206));
#1877=CARTESIAN_POINT('',(-0.2898,0.2525,0.0206));
#1878=CARTESIAN_POINT('',(-0.2898,0.2565,0.0206));
#1879=CARTESIAN_POINT('',(-0.23575,0.2565,0.0206));
#1880=CARTESIAN_POINT('',(-0.23575,0.2525,0.0206));
#1881=CARTESIAN_POINT('',(-0.23575,0.2215,0.0206));
#1882=CARTESIAN_POINT('',(-0.23575,0.2565,0.0206));
#1883=CARTESIAN_POINT('',(-0.2838,0.2565,0.0206));
#1884=CARTESIAN_POINT('',(-0.2838,0.2215,0.0206));
#1885=CARTESIAN_POINT('',(-0.2838,0.2525,0.0206));
#1886=CARTESIAN_POINT('',(-0.23575,0.2525,0.0206));
#1887=CARTESIAN_POINT('',(-0.23575,0.2215,0.021));
#1888=CARTESIAN_POINT('',(-0.2868,0.2545,0.021));
#1889=CARTESIAN_POINT('',(-0.23575,0.2215,0.021));
#1890=CARTESIAN_POINT('',(-0.2868,0.2545,0.021));
#1891=CARTESIAN_POINT('',(-0.23575,0.2215,0.0208));
#1892=CARTESIAN_POINT('',(-0.23575,0.2515,0.0208));
#1893=CARTESIAN_POINT('',(-0.23575,0.2215,0.021));
#1894=CARTESIAN_POINT('',(-0.2868,0.2545,0.021));
#1895=CARTESIAN_POINT('',(-0.23575,0.2215,0.0208));
#1896=CARTESIAN_POINT('',(-0.23575,0.2575,0.0208));
#1897=CARTESIAN_POINT('',(-0.23575,0.2215,0.0206));
#1898=CARTESIAN_POINT('',(-0.23575,0.2575,0.0206));
#1899=CARTESIAN_POINT('',(-0.2838,0.2575,0.0206));
#1900=CARTESIAN_POINT('',(-0.2838,0.2215,0.0206));
#1901=CARTESIAN_POINT('',(-0.23575,0.2215,0.021));
#1902=CARTESIAN_POINT('',(-0.2868,0.2545,0.021));
#1903=CARTESIAN_POINT('',(-0.23575,0.2215,0.0206));
#1904=CARTESIAN_POINT('',(-0.2898,0.2215,0.0206));
#1905=CARTESIAN_POINT('',(-0.2898,0.2575,0.0206));
#1906=CARTESIAN_POINT('',(-0.23575,0.2575,0.0206));
#1907=CARTESIAN_POINT('',(-0.23575,0.2215,0.0206));
#1908=CARTESIAN_POINT('',(-0.23575,0.2515,0.0206));
#1909=CARTESIAN_POINT('',(-0.2898,0.2515,0.0206));
#1910=CARTESIAN_POINT('',(-0.2898,0.2215,0.0206));
#1911=CARTESIAN_POINT('',(-0.2848,0.2215,0.021));
#1912=CARTESIAN_POINT('',(-0.2848,0.2215,0.021));
#1913=CARTESIAN_POINT('',(-0.2848,0.1375,0.021));
#1914=CARTESIAN_POINT('',(-0.2848,0.1355,0.021));
#1915=CARTESIAN_POINT('',(-0.2848,0.1375,0.021));
#1916=CARTESIAN_POINT('',(-0.2848,0.1375,0.0208));
#1917=CARTESIAN_POINT('',(-0.2848,0.1375,0.021));
#1918=CARTESIAN_POINT('',(-0.2848,0.1375,0.0206));
#1919=CARTESIAN_POINT('',(-0.2848,0.2215,0.0206));
#1920=CARTESIAN_POINT('',(-0.2848,0.1355,0.0206));
#1921=CARTESIAN_POINT('',(-0.2848,0.1355,0.021));
#1922=CARTESIAN_POINT('',(-0.2888,0.2215,0.021));
#1923=CARTESIAN_POINT('',(-0.2888,0.2215,0.021));
#1924=CARTESIAN_POINT('',(-0.2888,0.1355,0.021));
#1925=CARTESIAN_POINT('',(-0.2888,0.1375,0.021));
#1926=CARTESIAN_POINT('',(-0.2888,0.1355,0.021));
#1927=CARTESIAN_POINT('',(-0.2888,0.1355,0.0206));
#1928=CARTESIAN_POINT('',(-0.2888,0.2215,0.0206));
#1929=CARTESIAN_POINT('',(-0.2888,0.1375,0.0206));
#1930=CARTESIAN_POINT('',(-0.2888,0.1375,0.021));
#1931=CARTESIAN_POINT('',(-0.2888,0.1375,0.0208));
#1932=CARTESIAN_POINT('',(-0.2888,0.1375,0.021));
#1933=CARTESIAN_POINT('',(-0.2848,0.2215,0.021));
#1934=CARTESIAN_POINT('',(-0.2848,0.2215,0.021));
#1935=CARTESIAN_POINT('',(-0.2848,0.1335,0.021));
#1936=CARTESIAN_POINT('',(-0.2848,0.2215,0.0206));
#1937=CARTESIAN_POINT('',(-0.2848,0.1335,0.0206));
#1938=CARTESIAN_POINT('',(-0.2848,0.1335,0.021));
#1939=CARTESIAN_POINT('',(-0.2848,0.1335,0.0208));
#1940=CARTESIAN_POINT('',(-0.2848,0.1335,0.021));
#1941=CARTESIAN_POINT('',(-0.2888,0.2215,0.021));
#1942=CARTESIAN_POINT('',(-0.2888,0.2215,0.021));
#1943=CARTESIAN_POINT('',(-0.2888,0.1335,0.021));
#1944=CARTESIAN_POINT('',(-0.2888,0.1335,0.021));
#1945=CARTESIAN_POINT('',(-0.2888,0.1335,0.0208));
#1946=CARTESIAN_POINT('',(-0.2888,0.1335,0.021));
#1947=CARTESIAN_POINT('',(-0.2888,0.1335,0.0206));
#1948=CARTESIAN_POINT('',(-0.2888,0.2215,0.0206));
#1949=CARTESIAN_POINT('',(-0.23575,0.1375,0.021));
#1950=CARTESIAN_POINT('',(-0.23575,0.1375,0.021));
#1951=CARTESIAN_POINT('',(-0.2868,0.1375,0.021));
#1952=CARTESIAN_POINT('',(-0.2868,0.1375,0.021));
#1953=CARTESIAN_POINT('',(-0.2868,0.1375,0.0208));
#1954=CARTESIAN_POINT('',(-0.23575,0.1375,0.0208));
#1955=CARTESIAN_POINT('',(-0.2848,0.2215,0.021));
#1956=CARTESIAN_POINT('',(-0.2848,0.2215,0.0206));
#1957=CARTESIAN_POINT('',(-0.2848,0.1385,0.0206));
#1958=CARTESIAN_POINT('',(-0.2848,0.2215,0.0208));
#1959=CARTESIAN_POINT('',(-0.2848,0.1385,0.0208));
#1960=CARTESIAN_POINT('',(-0.2848,0.1385,0.021));
#1961=CARTESIAN_POINT('',(-0.2888,0.2215,0.021));
#1962=CARTESIAN_POINT('',(-0.2888,0.2215,0.0206));
#1963=CARTESIAN_POINT('',(-0.2888,0.1385,0.0206));
#1964=CARTESIAN_POINT('',(-0.2888,0.1385,0.021));
#1965=CARTESIAN_POINT('',(-0.2888,0.1385,0.0208));
#1966=CARTESIAN_POINT('',(-0.2888,0.2215,0.0208));
#1967=CARTESIAN_POINT('',(-0.23575,0.1375,0.021));
#1968=CARTESIAN_POINT('',(-0.23575,0.1375,0.021));
#1969=CARTESIAN_POINT('',(-0.23575,0.1375,0.0208));
#1970=CARTESIAN_POINT('',(-0.2848,0.2215,0.021));
#1971=CARTESIAN_POINT('',(-0.2848,0.2215,0.0206));
#1972=CARTESIAN_POINT('',(-0.2848,0.1325,0.0206));
#1973=CARTESIAN_POINT('',(-0.2848,0.1325,0.021));
#1974=CARTESIAN_POINT('',(-0.2848,0.1325,0.0208));
#1975=CARTESIAN_POINT('',(-0.2848,0.2215,0.0208));
#1976=CARTESIAN_POINT('',(-0.23575,0.1335,0.021));
#1977=CARTESIAN_POINT('',(-0.23575,0.1335,0.021));
#1978=CARTESIAN_POINT('',(-0.2868,0.1335,0.021));
#1979=CARTESIAN_POINT('',(-0.23575,0.1335,0.0208));
#1980=CARTESIAN_POINT('',(-0.2868,0.1335,0.0208));
#1981=CARTESIAN_POINT('',(-0.2868,0.1335,0.021));
#1982=CARTESIAN_POINT('',(-0.23575,0.1335,0.021));
#1983=CARTESIAN_POINT('',(-0.23575,0.1335,0.021));
#1984=CARTESIAN_POINT('',(-0.23575,0.1335,0.0208));
#1985=CARTESIAN_POINT('',(-0.2888,0.2215,0.021));
#1986=CARTESIAN_POINT('',(-0.2888,0.2215,0.0206));
#1987=CARTESIAN_POINT('',(-0.2888,0.1325,0.0206));
#1988=CARTESIAN_POINT('',(-0.2888,0.2215,0.0208));
#1989=CARTESIAN_POINT('',(-0.2888,0.1325,0.0208));
#1990=CARTESIAN_POINT('',(-0.2888,0.1325,0.021));
#1991=CARTESIAN_POINT('',(-0.23575,0.2215,0.0206));
#1992=CARTESIAN_POINT('',(-0.2898,0.2215,0.0206));
#1993=CARTESIAN_POINT('',(-0.2898,0.1335,0.0206));
#1994=CARTESIAN_POINT('',(-0.2898,0.1375,0.0206));
#1995=CARTESIAN_POINT('',(-0.23575,0.1375,0.0206));
#1996=CARTESIAN_POINT('',(-0.23575,0.1335,0.0206));
#1997=CARTESIAN_POINT('',(-0.23575,0.2215,0.0206));
#1998=CARTESIAN_POINT('',(-0.23575,0.1375,0.0206));
#1999=CARTESIAN_POINT('',(-0.2838,0.1375,0.0206));
#2000=CARTESIAN_POINT('',(-0.2838,0.2215,0.0206));
#2001=CARTESIAN_POINT('',(-0.2838,0.1335,0.0206));
#2002=CARTESIAN_POINT('',(-0.23575,0.1335,0.0206));
#2003=CARTESIAN_POINT('',(-0.23575,0.2215,0.021));
#2004=CARTESIAN_POINT('',(-0.2868,0.1355,0.021));
#2005=CARTESIAN_POINT('',(-0.23575,0.2215,0.021));
#2006=CARTESIAN_POINT('',(-0.2868,0.1355,0.021));
#2007=CARTESIAN_POINT('',(-0.23575,0.2215,0.0208));
#2008=CARTESIAN_POINT('',(-0.23575,0.1325,0.0208));
#2009=CARTESIAN_POINT('',(-0.23575,0.2215,0.021));
#2010=CARTESIAN_POINT('',(-0.2868,0.1355,0.021));
#2011=CARTESIAN_POINT('',(-0.23575,0.2215,0.0208));
#2012=CARTESIAN_POINT('',(-0.23575,0.1385,0.0208));
#2013=CARTESIAN_POINT('',(-0.23575,0.2215,0.0206));
#2014=CARTESIAN_POINT('',(-0.23575,0.1385,0.0206));
#2015=CARTESIAN_POINT('',(-0.2838,0.1385,0.0206));
#2016=CARTESIAN_POINT('',(-0.2838,0.2215,0.0206));
#2017=CARTESIAN_POINT('',(-0.23575,0.2215,0.021));
#2018=CARTESIAN_POINT('',(-0.2868,0.1355,0.021));
#2019=CARTESIAN_POINT('',(-0.23575,0.2215,0.0206));
#2020=CARTESIAN_POINT('',(-0.2898,0.2215,0.0206));
#2021=CARTESIAN_POINT('',(-0.2898,0.1385,0.0206));
#2022=CARTESIAN_POINT('',(-0.23575,0.1385,0.0206));
#2023=CARTESIAN_POINT('',(-0.23575,0.2215,0.0206));
#2024=CARTESIAN_POINT('',(-0.23575,0.1325,0.0206));
#2025=CARTESIAN_POINT('',(-0.2898,0.1325,0.0206));
#2026=CARTESIAN_POINT('',(-0.2898,0.2215,0.0206));
#2027=CARTESIAN_POINT('',(-0.175,0.20499875,0.02));
#2028=CARTESIAN_POINT('',(-0.2868,0.1325,0.02));
#2029=CARTESIAN_POINT('',(-0.2898,0.1325,0.02));
#2030=CARTESIAN_POINT('',(-0.2838,0.1325,0.02));
#2031=CARTESIAN_POINT('',(-0.2838,0.1355,0.02));
#2032=CARTESIAN_POINT('',(-0.2838,0.1385,0.02));
#2033=CARTESIAN_POINT('',(-0.2868,0.1385,0.02));
#2034=CARTESIAN_POINT('',(-0.2898,0.1385,0.02));
#2035=CARTESIAN_POINT('',(-0.2898,0.1355,0.02));
#2036=CARTESIAN_POINT('',(-0.3155,0.15,0.02));
#2037=CARTESIAN_POINT('',(-0.311,0.15,0.02));
#2038=CARTESIAN_POINT('',(-0.3155,0.24,0.02));
#2039=CARTESIAN_POINT('',(-0.311,0.24,0.02));
#2040=CARTESIAN_POINT('',(-0.3075,0.195,0.02));
#2041=CARTESIAN_POINT('',(-0.295,0.195,0.02));
#2042=CARTESIAN_POINT('',(-0.36,0.14,0.02));
#2043=CARTESIAN_POINT('',(-0.357,0.14,0.02));
#2044=CARTESIAN_POINT('',(-0.36,0.25,0.02));
#2045=CARTESIAN_POINT('',(-0.357,0.25,0.02));
#2046=CARTESIAN_POINT('',(-0.37,0.195,0.02));
#2047=CARTESIAN_POINT('',(-0.37,0.13,0.02));
#2048=CARTESIAN_POINT('',(-0.37,0.26,0.02));
#2049=CARTESIAN_POINT('',(-0.32565,0.26,0.02));
#2050=CARTESIAN_POINT('',(-0.2813,0.26,0.02));
#2051=CARTESIAN_POINT('',(-0.2813,0.195,0.02));
#2052=CARTESIAN_POINT('',(-0.2813,0.13,0.02));
#2053=CARTESIAN_POINT('',(-0.32565,0.13,0.02));
#2054=CARTESIAN_POINT('',(-0.2868,0.2515,0.02));
#2055=CARTESIAN_POINT('',(-0.2898,0.2515,0.02));
#2056=CARTESIAN_POINT('',(-0.2838,0.2515,0.02));
#2057=CARTESIAN_POINT('',(-0.2838,0.2545,0.02));
#2058=CARTESIAN_POINT('',(-0.2838,0.2575,0.02));
#2059=CARTESIAN_POINT('',(-0.2868,0.2575,0.02));
#2060=CARTESIAN_POINT('',(-0.2898,0.2575,0.02));
#2061=CARTESIAN_POINT('',(-0.2898,0.2545,0.02));
#2062=CARTESIAN_POINT('',(-0.2868,0.1355,0.019998));
#2063=CARTESIAN_POINT('',(-0.2868,0.1355,0.022));
#2064=CARTESIAN_POINT('',(-0.2848,0.1355,0.022));
#2065=CARTESIAN_POINT('',(-0.2868,0.2545,0.019998));
#2066=CARTESIAN_POINT('',(-0.2868,0.2545,0.022));
#2067=CARTESIAN_POINT('',(-0.2848,0.2545,0.022));
#2068=CARTESIAN_POINT('',(-0.2813,0.195,0.024));
#2069=CARTESIAN_POINT('',(-0.2813,0.26,0.022));
#2070=CARTESIAN_POINT('',(-0.2813,0.26,0.022));
#2071=CARTESIAN_POINT('',(-0.2813,0.2495,0.022));
#2072=CARTESIAN_POINT('',(-0.2813,0.2495,0.022));
#2073=CARTESIAN_POINT('',(-0.2813,0.2495,0.024));
#2074=CARTESIAN_POINT('',(-0.2813,0.195,0.024));
#2075=CARTESIAN_POINT('',(-0.2813,0.1405,0.024));
#2076=CARTESIAN_POINT('',(-0.2813,0.1405,0.022));
#2077=CARTESIAN_POINT('',(-0.2813,0.1405,0.022));
#2078=CARTESIAN_POINT('',(-0.2813,0.13,0.022));
#2079=CARTESIAN_POINT('',(-0.2813,0.13,0.022));
#2080=CARTESIAN_POINT('',(-0.2813,0.13,0.024));
#2081=CARTESIAN_POINT('',(-0.2813,0.26,0.024));
#2082=CARTESIAN_POINT('',(-0.37,0.195,0.024));
#2083=CARTESIAN_POINT('',(-0.37,0.13,0.024));
#2084=CARTESIAN_POINT('',(-0.37,0.13,0.024));
#2085=CARTESIAN_POINT('',(-0.37,0.195,0.024));
#2086=CARTESIAN_POINT('',(-0.37,0.26,0.024));
#2087=CARTESIAN_POINT('',(-0.37,0.26,0.024));
#2088=CARTESIAN_POINT('',(-0.32565,0.13,0.024));
#2089=CARTESIAN_POINT('',(-0.2923,0.13,0.024));
#2090=CARTESIAN_POINT('',(-0.2923,0.13,0.024));
#2091=CARTESIAN_POINT('',(-0.2923,0.13,0.022));
#2092=CARTESIAN_POINT('',(-0.32565,0.13,0.024));
#2093=CARTESIAN_POINT('',(-0.32565,0.13,0.022));
#2094=CARTESIAN_POINT('',(-0.3155,0.24,0.024));
#2095=CARTESIAN_POINT('',(-0.3155,0.24,0.024));
#2096=CARTESIAN_POINT('',(-0.311,0.24,0.024));
#2097=CARTESIAN_POINT('',(-0.3075,0.195,0.024));
#2098=CARTESIAN_POINT('',(-0.3075,0.195,0.024));
#2099=CARTESIAN_POINT('',(-0.295,0.195,0.024));
#2100=CARTESIAN_POINT('',(-0.36,0.14,0.024));
#2101=CARTESIAN_POINT('',(-0.36,0.14,0.024));
#2102=CARTESIAN_POINT('',(-0.357,0.14,0.024));
#2103=CARTESIAN_POINT('',(-0.36,0.25,0.024));
#2104=CARTESIAN_POINT('',(-0.36,0.25,0.024));
#2105=CARTESIAN_POINT('',(-0.357,0.25,0.024));
#2106=CARTESIAN_POINT('',(-0.32565,0.26,0.024));
#2107=CARTESIAN_POINT('',(-0.32565,0.26,0.024));
#2108=CARTESIAN_POINT('',(-0.2923,0.26,0.024));
#2109=CARTESIAN_POINT('',(-0.2923,0.26,0.024));
#2110=CARTESIAN_POINT('',(-0.2923,0.26,0.022));
#2111=CARTESIAN_POINT('',(-0.32565,0.26,0.022));
#2112=CARTESIAN_POINT('',(-0.3155,0.15,0.024));
#2113=CARTESIAN_POINT('',(-0.3155,0.15,0.024));
#2114=CARTESIAN_POINT('',(-0.311,0.15,0.024));
#2115=CARTESIAN_POINT('',(-0.175,0.20499875,0.024));
#2116=CARTESIAN_POINT('',(-0.2923,0.26,0.024));
#2117=CARTESIAN_POINT('',(-0.2923,0.2495,0.024));
#2118=CARTESIAN_POINT('',(-0.2923,0.13,0.024));
#2119=CARTESIAN_POINT('',(-0.2923,0.1405,0.024));
#2120=CARTESIAN_POINT('',(-0.2868,0.1405,0.024));
#2121=CARTESIAN_POINT('',(-0.2868,0.2495,0.024));
#2122=CARTESIAN_POINT('',(-0.2923,0.26,0.022));
#2123=CARTESIAN_POINT('',(-0.2923,0.2495,0.022));
#2124=CARTESIAN_POINT('',(-0.2923,0.2495,0.022));
#2125=CARTESIAN_POINT('',(-0.2923,0.26,0.022));
#2126=CARTESIAN_POINT('',(-0.2128500125,0.2460000125,0.022));
#2127=CARTESIAN_POINT('',(-0.2868,0.2495,0.022));
#2128=CARTESIAN_POINT('',(-0.2868,0.2495,0.022));
#2129=CARTESIAN_POINT('',(-0.2868,0.1405,0.022));
#2130=CARTESIAN_POINT('',(-0.2923,0.1405,0.022));
#2131=CARTESIAN_POINT('',(-0.2923,0.1405,0.022));
#2132=CARTESIAN_POINT('',(-0.2868,0.1405,0.022));
#2133=CARTESIAN_POINT('',(-0.2923,0.13,0.022));
#2134=CARTESIAN_POINT('',(-0.2923,0.13,0.022));
#2135=CARTESIAN_POINT('',(-0.2128500125,0.2460000125,0.022));
#2136=CARTESIAN_POINT('',(-0.23575,0.2215,0.0206));
#2137=CARTESIAN_POINT('',(-0.2838,0.2215,0.0206));
#2138=CARTESIAN_POINT('',(-0.2838,0.2515,0.0206));
#2139=CARTESIAN_POINT('',(-0.23575,0.2515,0.0206));
#2140=CARTESIAN_POINT('',(-0.2868,0.2515,0.021));
#2141=CARTESIAN_POINT('',(-0.2898,0.2515,0.021));
#2142=CARTESIAN_POINT('',(-0.2838,0.2515,0.021));
#2143=CARTESIAN_POINT('',(-0.2898,0.2545,0.021));
#2144=CARTESIAN_POINT('',(-0.2898,0.2575,0.021));
#2145=CARTESIAN_POINT('',(-0.2868,0.2575,0.021));
#2146=CARTESIAN_POINT('',(-0.2838,0.2575,0.021));
#2147=CARTESIAN_POINT('',(-0.2838,0.2545,0.021));
#2148=CARTESIAN_POINT('',(-0.2868,0.1325,0.021));
#2149=CARTESIAN_POINT('',(-0.2898,0.1325,0.021));
#2150=CARTESIAN_POINT('',(-0.23575,0.1325,0.0206));
#2151=CARTESIAN_POINT('',(-0.2838,0.1325,0.0206));
#2152=CARTESIAN_POINT('',(-0.2838,0.1325,0.021));
#2153=CARTESIAN_POINT('',(-0.2898,0.1355,0.021));
#2154=CARTESIAN_POINT('',(-0.2898,0.1385,0.021));
#2155=CARTESIAN_POINT('',(-0.2868,0.1385,0.021));
#2156=CARTESIAN_POINT('',(-0.2838,0.1385,0.021));
#2157=CARTESIAN_POINT('',(-0.2838,0.1355,0.021));
#2158=CARTESIAN_POINT('',(-0.2838,0.2215,0.0206));
#2159=CARTESIAN_POINT('',(-0.23575,0.2215,0.0206));
#2160=MECHANICAL_DESIGN_GEOMETRIC_PRESENTATION_REPRESENTATION('',(#1337),
#2161);
#2161=(
GEOMETRIC_REPRESENTATION_CONTEXT(3)
GLOBAL_UNCERTAINTY_ASSIGNED_CONTEXT((#2162))
GLOBAL_UNIT_ASSIGNED_CONTEXT((#2165,#2164,#2163))
REPRESENTATION_CONTEXT('Left Mid Top Plate','TOP_LEVEL_ASSEMBLY_PART')
);
#2162=UNCERTAINTY_MEASURE_WITH_UNIT(LENGTH_MEASURE(1.E-8),#2165,
'DISTANCE_ACCURACY_VALUE','Maximum Tolerance applied to model');
#2163=(
NAMED_UNIT(*)
SI_UNIT($,.STERADIAN.)
SOLID_ANGLE_UNIT()
);
#2164=(
NAMED_UNIT(*)
PLANE_ANGLE_UNIT()
SI_UNIT($,.RADIAN.)
);
#2165=(
LENGTH_UNIT()
NAMED_UNIT(*)
SI_UNIT($,.METRE.)
);
#2166=PRODUCT_DEFINITION_SHAPE('','',#2167);
#2167=PRODUCT_DEFINITION('','',#2169,#2168);
#2168=PRODUCT_DEFINITION_CONTEXT('',#2175,'design');
#2169=PRODUCT_DEFINITION_FORMATION_WITH_SPECIFIED_SOURCE('','',#2171,
 .NOT_KNOWN.);
#2170=PRODUCT_RELATED_PRODUCT_CATEGORY('','',(#2171));
#2171=PRODUCT('Left Mid Top Plate','Left Mid Top Plate',
'Left Mid Top Plate',(#2173));
#2172=PRODUCT_CATEGORY('','');
#2173=PRODUCT_CONTEXT('',#2175,'mechanical');
#2174=APPLICATION_PROTOCOL_DEFINITION('international standard',
'ap242_managed_model_based_3d_engineering',2020,#2175);
#2175=APPLICATION_CONTEXT('managed model based 3d engineering');
ENDSEC;
END-ISO-10303-21;
