ISO-10303-21;
HEADER;
/* Generated by software containing ST-Developer
 * from STEP Tools, Inc. (www.steptools.com) 
 */
/* OPTION: using custom renumber hook */

FILE_DESCRIPTION(
/* description */ ('STEP AP242 Edition 2',
'CAx-IF Rec.Pracs.---Representation and Presentation of Product Manufa
cturing Information (PMI)---4.0---2014-10-13',
'CAx-IF Rec.Pracs.---3D Tessellated Geometry---0.4---2014-09-14','2;1',
'CAx-IF Rec.Pracs.---User Defined Attributes---1.5---2016-08-15'),
/* implementation_level */ '2;1');

FILE_NAME(
/* name */ 'Base and Z Axis - Front Foot',
/* time_stamp */ '2026-01-10T06:34:51Z',
/* author */ (''),
/* organization */ (''),
/* preprocessor_version */ 'ST-DEVELOPER v20',
/* originating_system */ 'ONSHAPE BY PTC INC, 1.209',
/* authorisation */ '  ');

FILE_SCHEMA (('AP242_MANAGED_MODEL_BASED_3D_ENGINEERING_MIM_LF { 1 0 10303 442 3 1 4 }'));
ENDSEC;

DATA;
#10=SHAPE_REPRESENTATION_RELATIONSHIP('','',#439,#11);
#11=ADVANCED_BREP_SHAPE_REPRESENTATION('',(#437),#702);
#12=B_SPLINE_CURVE_WITH_KNOTS('',3,(#671,#672,#673,#674),.UNSPECIFIED.,
 .F.,.F.,(4,4),(0.,1.),.UNSPECIFIED.);
#13=CYLINDRICAL_SURFACE('',#453,0.003);
#14=CYLINDRICAL_SURFACE('',#455,0.003);
#15=CYLINDRICAL_SURFACE('',#457,0.003);
#16=CYLINDRICAL_SURFACE('',#460,0.003);
#17=CYLINDRICAL_SURFACE('',#472,0.0065);
#18=CIRCLE('',#442,0.003);
#19=CIRCLE('',#443,0.003);
#20=CIRCLE('',#444,0.003);
#21=CIRCLE('',#445,0.003);
#22=CIRCLE('',#454,0.003);
#23=CIRCLE('',#456,0.003);
#24=CIRCLE('',#458,0.003);
#25=CIRCLE('',#461,0.003);
#26=CIRCLE('',#463,0.0065);
#27=CIRCLE('',#467,0.0065);
#28=ORIENTED_EDGE('',*,*,#136,.F.);
#29=ORIENTED_EDGE('',*,*,#137,.F.);
#30=ORIENTED_EDGE('',*,*,#138,.T.);
#31=ORIENTED_EDGE('',*,*,#139,.T.);
#32=ORIENTED_EDGE('',*,*,#140,.F.);
#33=ORIENTED_EDGE('',*,*,#141,.F.);
#34=ORIENTED_EDGE('',*,*,#142,.T.);
#35=ORIENTED_EDGE('',*,*,#143,.T.);
#36=ORIENTED_EDGE('',*,*,#144,.F.);
#37=ORIENTED_EDGE('',*,*,#145,.F.);
#38=ORIENTED_EDGE('',*,*,#146,.F.);
#39=ORIENTED_EDGE('',*,*,#147,.F.);
#40=ORIENTED_EDGE('',*,*,#148,.F.);
#41=ORIENTED_EDGE('',*,*,#149,.F.);
#42=ORIENTED_EDGE('',*,*,#150,.F.);
#43=ORIENTED_EDGE('',*,*,#151,.T.);
#44=ORIENTED_EDGE('',*,*,#152,.T.);
#45=ORIENTED_EDGE('',*,*,#140,.T.);
#46=ORIENTED_EDGE('',*,*,#139,.F.);
#47=ORIENTED_EDGE('',*,*,#153,.F.);
#48=ORIENTED_EDGE('',*,*,#154,.F.);
#49=ORIENTED_EDGE('',*,*,#155,.T.);
#50=ORIENTED_EDGE('',*,*,#156,.F.);
#51=ORIENTED_EDGE('',*,*,#142,.F.);
#52=ORIENTED_EDGE('',*,*,#157,.F.);
#53=ORIENTED_EDGE('',*,*,#158,.T.);
#54=ORIENTED_EDGE('',*,*,#159,.T.);
#55=ORIENTED_EDGE('',*,*,#160,.F.);
#56=ORIENTED_EDGE('',*,*,#143,.F.);
#57=ORIENTED_EDGE('',*,*,#156,.T.);
#58=ORIENTED_EDGE('',*,*,#161,.F.);
#59=ORIENTED_EDGE('',*,*,#162,.F.);
#60=ORIENTED_EDGE('',*,*,#144,.T.);
#61=ORIENTED_EDGE('',*,*,#160,.T.);
#62=ORIENTED_EDGE('',*,*,#163,.F.);
#63=ORIENTED_EDGE('',*,*,#164,.F.);
#64=ORIENTED_EDGE('',*,*,#145,.T.);
#65=ORIENTED_EDGE('',*,*,#162,.T.);
#66=ORIENTED_EDGE('',*,*,#165,.F.);
#67=ORIENTED_EDGE('',*,*,#166,.F.);
#68=ORIENTED_EDGE('',*,*,#167,.T.);
#69=ORIENTED_EDGE('',*,*,#146,.T.);
#70=ORIENTED_EDGE('',*,*,#164,.T.);
#71=ORIENTED_EDGE('',*,*,#168,.T.);
#72=ORIENTED_EDGE('',*,*,#166,.T.);
#73=ORIENTED_EDGE('',*,*,#169,.F.);
#74=ORIENTED_EDGE('',*,*,#170,.F.);
#75=ORIENTED_EDGE('',*,*,#171,.T.);
#76=ORIENTED_EDGE('',*,*,#149,.T.);
#77=ORIENTED_EDGE('',*,*,#172,.F.);
#78=ORIENTED_EDGE('',*,*,#148,.T.);
#79=ORIENTED_EDGE('',*,*,#173,.F.);
#80=ORIENTED_EDGE('',*,*,#147,.T.);
#81=ORIENTED_EDGE('',*,*,#174,.F.);
#82=ORIENTED_EDGE('',*,*,#158,.F.);
#83=ORIENTED_EDGE('',*,*,#175,.F.);
#84=ORIENTED_EDGE('',*,*,#176,.T.);
#85=ORIENTED_EDGE('',*,*,#170,.T.);
#86=ORIENTED_EDGE('',*,*,#177,.F.);
#87=ORIENTED_EDGE('',*,*,#178,.T.);
#88=ORIENTED_EDGE('',*,*,#150,.T.);
#89=ORIENTED_EDGE('',*,*,#179,.F.);
#90=ORIENTED_EDGE('',*,*,#180,.F.);
#91=ORIENTED_EDGE('',*,*,#178,.F.);
#92=ORIENTED_EDGE('',*,*,#177,.T.);
#93=ORIENTED_EDGE('',*,*,#169,.T.);
#94=ORIENTED_EDGE('',*,*,#165,.T.);
#95=ORIENTED_EDGE('',*,*,#163,.T.);
#96=ORIENTED_EDGE('',*,*,#161,.T.);
#97=ORIENTED_EDGE('',*,*,#159,.F.);
#98=ORIENTED_EDGE('',*,*,#155,.F.);
#99=ORIENTED_EDGE('',*,*,#179,.T.);
#100=ORIENTED_EDGE('',*,*,#172,.T.);
#101=ORIENTED_EDGE('',*,*,#173,.T.);
#102=ORIENTED_EDGE('',*,*,#174,.T.);
#103=ORIENTED_EDGE('',*,*,#138,.F.);
#104=ORIENTED_EDGE('',*,*,#181,.F.);
#105=ORIENTED_EDGE('',*,*,#182,.F.);
#106=ORIENTED_EDGE('',*,*,#153,.T.);
#107=ORIENTED_EDGE('',*,*,#183,.F.);
#108=ORIENTED_EDGE('',*,*,#184,.T.);
#109=ORIENTED_EDGE('',*,*,#181,.T.);
#110=ORIENTED_EDGE('',*,*,#137,.T.);
#111=ORIENTED_EDGE('',*,*,#185,.F.);
#112=ORIENTED_EDGE('',*,*,#176,.F.);
#113=ORIENTED_EDGE('',*,*,#186,.F.);
#114=ORIENTED_EDGE('',*,*,#151,.F.);
#115=ORIENTED_EDGE('',*,*,#154,.T.);
#116=ORIENTED_EDGE('',*,*,#182,.T.);
#117=ORIENTED_EDGE('',*,*,#184,.F.);
#118=ORIENTED_EDGE('',*,*,#187,.F.);
#119=ORIENTED_EDGE('',*,*,#171,.F.);
#120=ORIENTED_EDGE('',*,*,#175,.T.);
#121=ORIENTED_EDGE('',*,*,#157,.T.);
#122=ORIENTED_EDGE('',*,*,#188,.F.);
#123=ORIENTED_EDGE('',*,*,#186,.T.);
#124=ORIENTED_EDGE('',*,*,#188,.T.);
#125=ORIENTED_EDGE('',*,*,#141,.T.);
#126=ORIENTED_EDGE('',*,*,#152,.F.);
#127=ORIENTED_EDGE('',*,*,#168,.F.);
#128=ORIENTED_EDGE('',*,*,#187,.T.);
#129=ORIENTED_EDGE('',*,*,#189,.T.);
#130=ORIENTED_EDGE('',*,*,#167,.F.);
#131=ORIENTED_EDGE('',*,*,#183,.T.);
#132=ORIENTED_EDGE('',*,*,#136,.T.);
#133=ORIENTED_EDGE('',*,*,#189,.F.);
#134=ORIENTED_EDGE('',*,*,#185,.T.);
#135=ORIENTED_EDGE('',*,*,#180,.T.);
#136=EDGE_CURVE('',#190,#191,#229,.T.);
#137=EDGE_CURVE('',#192,#190,#230,.T.);
#138=EDGE_CURVE('',#192,#193,#231,.T.);
#139=EDGE_CURVE('',#193,#194,#232,.T.);
#140=EDGE_CURVE('',#195,#194,#233,.F.);
#141=EDGE_CURVE('',#196,#195,#234,.T.);
#142=EDGE_CURVE('',#196,#197,#235,.T.);
#143=EDGE_CURVE('',#197,#198,#236,.T.);
#144=EDGE_CURVE('',#199,#198,#237,.T.);
#145=EDGE_CURVE('',#200,#199,#238,.T.);
#146=EDGE_CURVE('',#191,#200,#239,.T.);
#147=EDGE_CURVE('',#201,#201,#18,.T.);
#148=EDGE_CURVE('',#202,#202,#19,.T.);
#149=EDGE_CURVE('',#203,#203,#20,.T.);
#150=EDGE_CURVE('',#204,#204,#21,.T.);
#151=EDGE_CURVE('',#205,#206,#240,.F.);
#152=EDGE_CURVE('',#206,#195,#241,.T.);
#153=EDGE_CURVE('',#207,#193,#242,.T.);
#154=EDGE_CURVE('',#205,#207,#243,.T.);
#155=EDGE_CURVE('',#208,#209,#244,.T.);
#156=EDGE_CURVE('',#197,#209,#245,.T.);
#157=EDGE_CURVE('',#210,#196,#246,.T.);
#158=EDGE_CURVE('',#210,#208,#247,.T.);
#159=EDGE_CURVE('',#209,#211,#248,.T.);
#160=EDGE_CURVE('',#198,#211,#249,.T.);
#161=EDGE_CURVE('',#212,#211,#250,.T.);
#162=EDGE_CURVE('',#199,#212,#251,.T.);
#163=EDGE_CURVE('',#213,#212,#252,.T.);
#164=EDGE_CURVE('',#200,#213,#253,.T.);
#165=EDGE_CURVE('',#214,#213,#254,.T.);
#166=EDGE_CURVE('',#215,#214,#255,.T.);
#167=EDGE_CURVE('',#215,#191,#256,.T.);
#168=EDGE_CURVE('',#216,#215,#257,.T.);
#169=EDGE_CURVE('',#217,#214,#258,.T.);
#170=EDGE_CURVE('',#218,#217,#259,.F.);
#171=EDGE_CURVE('',#218,#216,#260,.T.);
#172=EDGE_CURVE('',#219,#219,#22,.T.);
#173=EDGE_CURVE('',#220,#220,#23,.T.);
#174=EDGE_CURVE('',#221,#221,#24,.T.);
#175=EDGE_CURVE('',#222,#210,#261,.T.);
#176=EDGE_CURVE('',#222,#218,#262,.T.);
#177=EDGE_CURVE('',#223,#217,#263,.F.);
#178=EDGE_CURVE('',#223,#208,#12,.T.);
#179=EDGE_CURVE('',#224,#224,#25,.T.);
#180=EDGE_CURVE('',#225,#225,#26,.T.);
#181=EDGE_CURVE('',#226,#192,#264,.T.);
#182=EDGE_CURVE('',#207,#226,#265,.T.);
#183=EDGE_CURVE('',#227,#190,#266,.T.);
#184=EDGE_CURVE('',#227,#226,#267,.T.);
#185=EDGE_CURVE('',#228,#228,#27,.T.);
#186=EDGE_CURVE('',#206,#222,#268,.T.);
#187=EDGE_CURVE('',#216,#227,#269,.T.);
#188=EDGE_CURVE('',#206,#196,#270,.T.);
#189=EDGE_CURVE('',#227,#191,#271,.T.);
#190=VERTEX_POINT('',#585);
#191=VERTEX_POINT('',#586);
#192=VERTEX_POINT('',#588);
#193=VERTEX_POINT('',#590);
#194=VERTEX_POINT('',#592);
#195=VERTEX_POINT('',#594);
#196=VERTEX_POINT('',#596);
#197=VERTEX_POINT('',#598);
#198=VERTEX_POINT('',#600);
#199=VERTEX_POINT('',#602);
#200=VERTEX_POINT('',#604);
#201=VERTEX_POINT('',#607);
#202=VERTEX_POINT('',#609);
#203=VERTEX_POINT('',#611);
#204=VERTEX_POINT('',#613);
#205=VERTEX_POINT('',#616);
#206=VERTEX_POINT('',#617);
#207=VERTEX_POINT('',#620);
#208=VERTEX_POINT('',#624);
#209=VERTEX_POINT('',#625);
#210=VERTEX_POINT('',#628);
#211=VERTEX_POINT('',#632);
#212=VERTEX_POINT('',#636);
#213=VERTEX_POINT('',#640);
#214=VERTEX_POINT('',#644);
#215=VERTEX_POINT('',#646);
#216=VERTEX_POINT('',#650);
#217=VERTEX_POINT('',#652);
#218=VERTEX_POINT('',#654);
#219=VERTEX_POINT('',#658);
#220=VERTEX_POINT('',#661);
#221=VERTEX_POINT('',#664);
#222=VERTEX_POINT('',#667);
#223=VERTEX_POINT('',#670);
#224=VERTEX_POINT('',#677);
#225=VERTEX_POINT('',#680);
#226=VERTEX_POINT('',#683);
#227=VERTEX_POINT('',#687);
#228=VERTEX_POINT('',#691);
#229=LINE('',#584,#272);
#230=LINE('',#587,#273);
#231=LINE('',#589,#274);
#232=LINE('',#591,#275);
#233=LINE('',#593,#276);
#234=LINE('',#595,#277);
#235=LINE('',#597,#278);
#236=LINE('',#599,#279);
#237=LINE('',#601,#280);
#238=LINE('',#603,#281);
#239=LINE('',#605,#282);
#240=LINE('',#615,#283);
#241=LINE('',#618,#284);
#242=LINE('',#619,#285);
#243=LINE('',#621,#286);
#244=LINE('',#623,#287);
#245=LINE('',#626,#288);
#246=LINE('',#627,#289);
#247=LINE('',#629,#290);
#248=LINE('',#631,#291);
#249=LINE('',#633,#292);
#250=LINE('',#635,#293);
#251=LINE('',#637,#294);
#252=LINE('',#639,#295);
#253=LINE('',#641,#296);
#254=LINE('',#643,#297);
#255=LINE('',#645,#298);
#256=LINE('',#647,#299);
#257=LINE('',#649,#300);
#258=LINE('',#651,#301);
#259=LINE('',#653,#302);
#260=LINE('',#655,#303);
#261=LINE('',#666,#304);
#262=LINE('',#668,#305);
#263=LINE('',#669,#306);
#264=LINE('',#682,#307);
#265=LINE('',#684,#308);
#266=LINE('',#686,#309);
#267=LINE('',#688,#310);
#268=LINE('',#692,#311);
#269=LINE('',#693,#312);
#270=LINE('',#695,#313);
#271=LINE('',#698,#314);
#272=VECTOR('',#477,1.);
#273=VECTOR('',#478,1.);
#274=VECTOR('',#479,1.);
#275=VECTOR('',#480,1.);
#276=VECTOR('',#481,1.);
#277=VECTOR('',#482,1.);
#278=VECTOR('',#483,1.);
#279=VECTOR('',#484,1.);
#280=VECTOR('',#485,1.);
#281=VECTOR('',#486,1.);
#282=VECTOR('',#487,1.);
#283=VECTOR('',#498,1.);
#284=VECTOR('',#499,1.);
#285=VECTOR('',#500,1.);
#286=VECTOR('',#501,1.);
#287=VECTOR('',#504,1.);
#288=VECTOR('',#505,1.);
#289=VECTOR('',#506,1.);
#290=VECTOR('',#507,1.);
#291=VECTOR('',#510,1.);
#292=VECTOR('',#511,1.);
#293=VECTOR('',#514,1.);
#294=VECTOR('',#515,1.);
#295=VECTOR('',#518,1.);
#296=VECTOR('',#519,1.);
#297=VECTOR('',#522,1.);
#298=VECTOR('',#523,1.);
#299=VECTOR('',#524,1.);
#300=VECTOR('',#527,1.);
#301=VECTOR('',#528,1.);
#302=VECTOR('',#529,1.);
#303=VECTOR('',#530,1.);
#304=VECTOR('',#545,1.);
#305=VECTOR('',#546,1.);
#306=VECTOR('',#547,1.);
#307=VECTOR('',#558,1.);
#308=VECTOR('',#559,1.);
#309=VECTOR('',#562,1.);
#310=VECTOR('',#563,1.);
#311=VECTOR('',#568,1.);
#312=VECTOR('',#569,1.);
#313=VECTOR('',#572,1.);
#314=VECTOR('',#577,1.);
#315=EDGE_LOOP('',(#28,#29,#30,#31,#32,#33,#34,#35,#36,#37,#38));
#316=EDGE_LOOP('',(#39));
#317=EDGE_LOOP('',(#40));
#318=EDGE_LOOP('',(#41));
#319=EDGE_LOOP('',(#42));
#320=EDGE_LOOP('',(#43,#44,#45,#46,#47,#48));
#321=EDGE_LOOP('',(#49,#50,#51,#52,#53));
#322=EDGE_LOOP('',(#54,#55,#56,#57));
#323=EDGE_LOOP('',(#58,#59,#60,#61));
#324=EDGE_LOOP('',(#62,#63,#64,#65));
#325=EDGE_LOOP('',(#66,#67,#68,#69,#70));
#326=EDGE_LOOP('',(#71,#72,#73,#74,#75));
#327=EDGE_LOOP('',(#76));
#328=EDGE_LOOP('',(#77));
#329=EDGE_LOOP('',(#78));
#330=EDGE_LOOP('',(#79));
#331=EDGE_LOOP('',(#80));
#332=EDGE_LOOP('',(#81));
#333=EDGE_LOOP('',(#82,#83,#84,#85,#86,#87));
#334=EDGE_LOOP('',(#88));
#335=EDGE_LOOP('',(#89));
#336=EDGE_LOOP('',(#90));
#337=EDGE_LOOP('',(#91,#92,#93,#94,#95,#96,#97,#98));
#338=EDGE_LOOP('',(#99));
#339=EDGE_LOOP('',(#100));
#340=EDGE_LOOP('',(#101));
#341=EDGE_LOOP('',(#102));
#342=EDGE_LOOP('',(#103,#104,#105,#106));
#343=EDGE_LOOP('',(#107,#108,#109,#110));
#344=EDGE_LOOP('',(#111));
#345=EDGE_LOOP('',(#112,#113,#114,#115,#116,#117,#118,#119));
#346=EDGE_LOOP('',(#120,#121,#122,#123));
#347=EDGE_LOOP('',(#124,#125,#126));
#348=EDGE_LOOP('',(#127,#128,#129,#130));
#349=EDGE_LOOP('',(#131,#132,#133));
#350=EDGE_LOOP('',(#134));
#351=EDGE_LOOP('',(#135));
#352=FACE_BOUND('',#315,.T.);
#353=FACE_BOUND('',#316,.T.);
#354=FACE_BOUND('',#317,.T.);
#355=FACE_BOUND('',#318,.T.);
#356=FACE_BOUND('',#319,.T.);
#357=FACE_BOUND('',#320,.T.);
#358=FACE_BOUND('',#321,.T.);
#359=FACE_BOUND('',#322,.T.);
#360=FACE_BOUND('',#323,.T.);
#361=FACE_BOUND('',#324,.T.);
#362=FACE_BOUND('',#325,.T.);
#363=FACE_BOUND('',#326,.T.);
#364=FACE_BOUND('',#327,.T.);
#365=FACE_BOUND('',#328,.T.);
#366=FACE_BOUND('',#329,.T.);
#367=FACE_BOUND('',#330,.T.);
#368=FACE_BOUND('',#331,.T.);
#369=FACE_BOUND('',#332,.T.);
#370=FACE_BOUND('',#333,.T.);
#371=FACE_BOUND('',#334,.T.);
#372=FACE_BOUND('',#335,.T.);
#373=FACE_BOUND('',#336,.T.);
#374=FACE_BOUND('',#337,.T.);
#375=FACE_BOUND('',#338,.T.);
#376=FACE_BOUND('',#339,.T.);
#377=FACE_BOUND('',#340,.T.);
#378=FACE_BOUND('',#341,.T.);
#379=FACE_BOUND('',#342,.T.);
#380=FACE_BOUND('',#343,.T.);
#381=FACE_BOUND('',#344,.T.);
#382=FACE_BOUND('',#345,.T.);
#383=FACE_BOUND('',#346,.T.);
#384=FACE_BOUND('',#347,.T.);
#385=FACE_BOUND('',#348,.T.);
#386=FACE_BOUND('',#349,.T.);
#387=FACE_BOUND('',#350,.T.);
#388=FACE_BOUND('',#351,.T.);
#389=PLANE('',#441);
#390=PLANE('',#446);
#391=PLANE('',#447);
#392=PLANE('',#448);
#393=PLANE('',#449);
#394=PLANE('',#450);
#395=PLANE('',#451);
#396=PLANE('',#452);
#397=PLANE('',#459);
#398=PLANE('',#462);
#399=PLANE('',#464);
#400=PLANE('',#465);
#401=PLANE('',#466);
#402=PLANE('',#468);
#403=PLANE('',#469);
#404=PLANE('',#470);
#405=PLANE('',#471);
#406=ADVANCED_FACE('',(#352,#353,#354,#355,#356),#389,.T.);
#407=ADVANCED_FACE('',(#357),#390,.F.);
#408=ADVANCED_FACE('',(#358),#391,.F.);
#409=ADVANCED_FACE('',(#359),#392,.F.);
#410=ADVANCED_FACE('',(#360),#393,.T.);
#411=ADVANCED_FACE('',(#361),#394,.T.);
#412=ADVANCED_FACE('',(#362),#395,.T.);
#413=ADVANCED_FACE('',(#363),#396,.T.);
#414=ADVANCED_FACE('',(#364,#365),#13,.F.);
#415=ADVANCED_FACE('',(#366,#367),#14,.F.);
#416=ADVANCED_FACE('',(#368,#369),#15,.F.);
#417=ADVANCED_FACE('',(#370),#397,.F.);
#418=ADVANCED_FACE('',(#371,#372),#16,.F.);
#419=ADVANCED_FACE('',(#373,#374,#375,#376,#377,#378),#398,.F.);
#420=ADVANCED_FACE('',(#379),#399,.F.);
#421=ADVANCED_FACE('',(#380),#400,.T.);
#422=ADVANCED_FACE('',(#381,#382),#401,.T.);
#423=ADVANCED_FACE('',(#383),#402,.F.);
#424=ADVANCED_FACE('',(#384),#403,.F.);
#425=ADVANCED_FACE('',(#385),#404,.T.);
#426=ADVANCED_FACE('',(#386),#405,.F.);
#427=ADVANCED_FACE('',(#387,#388),#17,.F.);
#428=CLOSED_SHELL('',(#406,#407,#408,#409,#410,#411,#412,#413,#414,#415,
#416,#417,#418,#419,#420,#421,#422,#423,#424,#425,#426,#427));
#429=STYLED_ITEM('',(#430),#437);
#430=PRESENTATION_STYLE_ASSIGNMENT((#431));
#431=SURFACE_STYLE_USAGE(.BOTH.,#432);
#432=SURFACE_SIDE_STYLE('',(#433));
#433=SURFACE_STYLE_FILL_AREA(#434);
#434=FILL_AREA_STYLE('',(#435));
#435=FILL_AREA_STYLE_COLOUR('',#436);
#436=COLOUR_RGB('',0.129411764705882,0.341176470588236,0.352941176470589);
#437=MANIFOLD_SOLID_BREP('Front Foot',#428);
#438=SHAPE_DEFINITION_REPRESENTATION(#707,#439);
#439=SHAPE_REPRESENTATION('Front Foot',(#440),#702);
#440=AXIS2_PLACEMENT_3D('',#582,#473,#474);
#441=AXIS2_PLACEMENT_3D('',#583,#475,#476);
#442=AXIS2_PLACEMENT_3D('',#606,#488,#489);
#443=AXIS2_PLACEMENT_3D('',#608,#490,#491);
#444=AXIS2_PLACEMENT_3D('',#610,#492,#493);
#445=AXIS2_PLACEMENT_3D('',#612,#494,#495);
#446=AXIS2_PLACEMENT_3D('',#614,#496,#497);
#447=AXIS2_PLACEMENT_3D('',#622,#502,#503);
#448=AXIS2_PLACEMENT_3D('',#630,#508,#509);
#449=AXIS2_PLACEMENT_3D('',#634,#512,#513);
#450=AXIS2_PLACEMENT_3D('',#638,#516,#517);
#451=AXIS2_PLACEMENT_3D('',#642,#520,#521);
#452=AXIS2_PLACEMENT_3D('',#648,#525,#526);
#453=AXIS2_PLACEMENT_3D('',#656,#531,#532);
#454=AXIS2_PLACEMENT_3D('',#657,#533,#534);
#455=AXIS2_PLACEMENT_3D('',#659,#535,#536);
#456=AXIS2_PLACEMENT_3D('',#660,#537,#538);
#457=AXIS2_PLACEMENT_3D('',#662,#539,#540);
#458=AXIS2_PLACEMENT_3D('',#663,#541,#542);
#459=AXIS2_PLACEMENT_3D('',#665,#543,#544);
#460=AXIS2_PLACEMENT_3D('',#675,#548,#549);
#461=AXIS2_PLACEMENT_3D('',#676,#550,#551);
#462=AXIS2_PLACEMENT_3D('',#678,#552,#553);
#463=AXIS2_PLACEMENT_3D('',#679,#554,#555);
#464=AXIS2_PLACEMENT_3D('',#681,#556,#557);
#465=AXIS2_PLACEMENT_3D('',#685,#560,#561);
#466=AXIS2_PLACEMENT_3D('',#689,#564,#565);
#467=AXIS2_PLACEMENT_3D('',#690,#566,#567);
#468=AXIS2_PLACEMENT_3D('',#694,#570,#571);
#469=AXIS2_PLACEMENT_3D('',#696,#573,#574);
#470=AXIS2_PLACEMENT_3D('',#697,#575,#576);
#471=AXIS2_PLACEMENT_3D('',#699,#578,#579);
#472=AXIS2_PLACEMENT_3D('',#700,#580,#581);
#473=DIRECTION('',(0.,0.,1.));
#474=DIRECTION('',(1.,0.,0.));
#475=DIRECTION('',(0.,0.,-1.));
#476=DIRECTION('',(1.,0.,0.));
#477=DIRECTION('',(1.,0.,0.));
#478=DIRECTION('',(0.,-1.,0.));
#479=DIRECTION('',(-0.707106781186548,0.707106781186548,0.));
#480=DIRECTION('',(-1.,0.,0.));
#481=DIRECTION('',(-1.,0.,0.));
#482=DIRECTION('',(0.,-1.,0.));
#483=DIRECTION('',(1.,0.,0.));
#484=DIRECTION('',(0.,-1.,0.));
#485=DIRECTION('',(-0.707106781186548,0.707106781186548,0.));
#486=DIRECTION('',(-1.,0.,0.));
#487=DIRECTION('',(0.,1.,0.));
#488=DIRECTION('',(0.,0.,-1.));
#489=DIRECTION('',(-1.,0.,0.));
#490=DIRECTION('',(0.,0.,-1.));
#491=DIRECTION('',(-1.,0.,0.));
#492=DIRECTION('',(0.,0.,-1.));
#493=DIRECTION('',(-1.,0.,0.));
#494=DIRECTION('',(0.,0.,-1.));
#495=DIRECTION('',(-1.,0.,0.));
#496=DIRECTION('',(0.,-1.,0.));
#497=DIRECTION('',(0.,0.,-1.));
#498=DIRECTION('',(1.,0.,0.));
#499=DIRECTION('',(0.,0.,1.));
#500=DIRECTION('',(0.,0.,1.));
#501=DIRECTION('',(1.,0.,0.));
#502=DIRECTION('',(0.,-1.,0.));
#503=DIRECTION('',(0.,0.,-1.));
#504=DIRECTION('',(1.,0.,0.));
#505=DIRECTION('',(0.,0.,1.));
#506=DIRECTION('',(1.,0.,0.));
#507=DIRECTION('',(0.,0.,1.));
#508=DIRECTION('',(-1.,0.,0.));
#509=DIRECTION('',(0.,0.,1.));
#510=DIRECTION('',(0.,-1.,0.));
#511=DIRECTION('',(0.,0.,1.));
#512=DIRECTION('',(0.707106781186548,0.707106781186548,0.));
#513=DIRECTION('',(-0.707106781186548,0.707106781186548,0.));
#514=DIRECTION('',(-0.707106781186548,0.707106781186548,0.));
#515=DIRECTION('',(0.,0.,1.));
#516=DIRECTION('',(0.,1.,0.));
#517=DIRECTION('',(0.,0.,1.));
#518=DIRECTION('',(-1.,0.,0.));
#519=DIRECTION('',(0.,0.,1.));
#520=DIRECTION('',(1.,0.,0.));
#521=DIRECTION('',(0.,0.,-1.));
#522=DIRECTION('',(0.,1.,0.));
#523=DIRECTION('',(0.,0.,1.));
#524=DIRECTION('',(0.,1.,0.));
#525=DIRECTION('',(0.,-1.,0.));
#526=DIRECTION('',(0.,0.,-1.));
#527=DIRECTION('',(0.847998304005088,0.,0.529998940003181));
#528=DIRECTION('',(1.,0.,0.));
#529=DIRECTION('',(0.,0.,-1.));
#530=DIRECTION('',(1.,0.,0.));
#531=DIRECTION('',(0.,0.,1.));
#532=DIRECTION('',(1.,0.,0.));
#533=DIRECTION('',(0.,0.,-1.));
#534=DIRECTION('',(-1.,0.,0.));
#535=DIRECTION('',(0.,0.,1.));
#536=DIRECTION('',(1.,0.,0.));
#537=DIRECTION('',(0.,0.,-1.));
#538=DIRECTION('',(-1.,0.,0.));
#539=DIRECTION('',(0.,0.,1.));
#540=DIRECTION('',(1.,0.,0.));
#541=DIRECTION('',(0.,0.,-1.));
#542=DIRECTION('',(-1.,0.,0.));
#543=DIRECTION('',(1.,0.,0.));
#544=DIRECTION('',(0.,0.,-1.));
#545=DIRECTION('',(0.,0.847998304005088,0.529998940003181));
#546=DIRECTION('',(0.,-1.,0.));
#547=DIRECTION('',(0.,1.,0.));
#548=DIRECTION('',(0.,0.,1.));
#549=DIRECTION('',(1.,0.,0.));
#550=DIRECTION('',(0.,0.,-1.));
#551=DIRECTION('',(-1.,0.,0.));
#552=DIRECTION('',(0.,0.,-1.));
#553=DIRECTION('',(1.,0.,0.));
#554=DIRECTION('',(0.,0.,1.));
#555=DIRECTION('',(1.,0.,0.));
#556=DIRECTION('',(-0.707106781186548,-0.707106781186547,0.));
#557=DIRECTION('',(0.707106781186548,-0.707106781186548,0.));
#558=DIRECTION('',(0.,0.,1.));
#559=DIRECTION('',(0.707106781186548,-0.707106781186548,0.));
#560=DIRECTION('',(1.,0.,0.));
#561=DIRECTION('',(0.,0.,-1.));
#562=DIRECTION('',(0.,0.,1.));
#563=DIRECTION('',(0.,1.,0.));
#564=DIRECTION('',(0.,0.,-1.));
#565=DIRECTION('',(1.,0.,0.));
#566=DIRECTION('',(0.,0.,-1.));
#567=DIRECTION('',(-1.,0.,0.));
#568=DIRECTION('',(-1.,0.,0.));
#569=DIRECTION('',(0.,1.,0.));
#570=DIRECTION('',(0.,-0.529998940003181,0.847998304005088));
#571=DIRECTION('',(0.,-0.847998304005088,-0.529998940003181));
#572=DIRECTION('',(0.,0.847998304005088,0.529998940003181));
#573=DIRECTION('',(-1.,0.,0.));
#574=DIRECTION('',(0.,-1.,0.));
#575=DIRECTION('',(0.529998940003181,0.,-0.847998304005087));
#576=DIRECTION('',(-0.847998304005088,0.,-0.529998940003181));
#577=DIRECTION('',(0.847998304005088,0.,0.529998940003181));
#578=DIRECTION('',(0.,-1.,0.));
#579=DIRECTION('',(1.,0.,0.));
#580=DIRECTION('',(0.,0.,1.));
#581=DIRECTION('',(1.,0.,0.));
#582=CARTESIAN_POINT('',(0.,0.,0.));
#583=CARTESIAN_POINT('',(-0.34000125,0.18500125,-0.006));
#584=CARTESIAN_POINT('',(-0.33,0.00300000000000012,-0.006));
#585=CARTESIAN_POINT('',(-0.35,0.00300000000000012,-0.006));
#586=CARTESIAN_POINT('',(-0.31,0.00300000000000012,-0.006));
#587=CARTESIAN_POINT('',(-0.35,0.18500125,-0.006));
#588=CARTESIAN_POINT('',(-0.35,0.015,-0.006));
#589=CARTESIAN_POINT('',(-0.43000125,0.09500125,-0.006));
#590=CARTESIAN_POINT('',(-0.355,0.02,-0.006));
#591=CARTESIAN_POINT('',(-0.34000125,0.02,-0.006));
#592=CARTESIAN_POINT('',(-0.36458,0.02,-0.006));
#593=CARTESIAN_POINT('',(-0.34000125,0.02,-0.006));
#594=CARTESIAN_POINT('',(-0.368,0.02,-0.006));
#595=CARTESIAN_POINT('',(-0.368,0.0300012375,-0.006));
#596=CARTESIAN_POINT('',(-0.368,0.06,-0.006));
#597=CARTESIAN_POINT('',(-0.36,0.06,-0.006));
#598=CARTESIAN_POINT('',(-0.35,0.06,-0.006));
#599=CARTESIAN_POINT('',(-0.35,0.0425,-0.006));
#600=CARTESIAN_POINT('',(-0.35,0.025,-0.006));
#601=CARTESIAN_POINT('',(-0.3475,0.0225,-0.006));
#602=CARTESIAN_POINT('',(-0.345,0.02,-0.006));
#603=CARTESIAN_POINT('',(-0.3275,0.02,-0.006));
#604=CARTESIAN_POINT('',(-0.31,0.02,-0.006));
#605=CARTESIAN_POINT('',(-0.31,0.01,-0.006));
#606=CARTESIAN_POINT('',(-0.36,0.03,-0.006));
#607=CARTESIAN_POINT('',(-0.363,0.03,-0.006));
#608=CARTESIAN_POINT('',(-0.34,0.01,-0.006));
#609=CARTESIAN_POINT('',(-0.343,0.01,-0.006));
#610=CARTESIAN_POINT('',(-0.32,0.01,-0.006));
#611=CARTESIAN_POINT('',(-0.323,0.01,-0.006));
#612=CARTESIAN_POINT('',(-0.36,0.05,-0.006));
#613=CARTESIAN_POINT('',(-0.363,0.05,-0.006));
#614=CARTESIAN_POINT('',(-0.3625,0.02,-0.031002));
#615=CARTESIAN_POINT('',(-0.3625,0.02,-0.031));
#616=CARTESIAN_POINT('',(-0.36458,0.02,-0.031));
#617=CARTESIAN_POINT('',(-0.368,0.02,-0.031));
#618=CARTESIAN_POINT('',(-0.368,0.02,-0.031002));
#619=CARTESIAN_POINT('',(-0.355,0.02,-0.031002));
#620=CARTESIAN_POINT('',(-0.355,0.02,-0.031));
#621=CARTESIAN_POINT('',(-0.3625,0.02,-0.031));
#622=CARTESIAN_POINT('',(-0.36,0.06,-0.006));
#623=CARTESIAN_POINT('',(-0.36,0.06,0.));
#624=CARTESIAN_POINT('',(-0.37,0.06,0.));
#625=CARTESIAN_POINT('',(-0.35,0.06,0.));
#626=CARTESIAN_POINT('',(-0.35,0.06,-0.006));
#627=CARTESIAN_POINT('',(-0.36,0.06,-0.006));
#628=CARTESIAN_POINT('',(-0.37,0.06,-0.006));
#629=CARTESIAN_POINT('',(-0.37,0.06,-0.006));
#630=CARTESIAN_POINT('',(-0.35,0.0425,-0.006));
#631=CARTESIAN_POINT('',(-0.35,0.0425,0.));
#632=CARTESIAN_POINT('',(-0.35,0.025,0.));
#633=CARTESIAN_POINT('',(-0.35,0.025,-0.006));
#634=CARTESIAN_POINT('',(-0.3475,0.0225,-0.006));
#635=CARTESIAN_POINT('',(-0.3475,0.0225,0.));
#636=CARTESIAN_POINT('',(-0.345,0.02,0.));
#637=CARTESIAN_POINT('',(-0.345,0.02,-0.006));
#638=CARTESIAN_POINT('',(-0.3275,0.02,-0.006));
#639=CARTESIAN_POINT('',(-0.3275,0.02,0.));
#640=CARTESIAN_POINT('',(-0.31,0.02,0.));
#641=CARTESIAN_POINT('',(-0.31,0.02,-0.006));
#642=CARTESIAN_POINT('',(-0.31,0.01,-0.006));
#643=CARTESIAN_POINT('',(-0.31,0.01,0.));
#644=CARTESIAN_POINT('',(-0.31,0.,0.));
#645=CARTESIAN_POINT('',(-0.31,0.,-0.006));
#646=CARTESIAN_POINT('',(-0.31,0.,-0.006));
#647=CARTESIAN_POINT('',(-0.31,0.01,-0.006));
#648=CARTESIAN_POINT('',(-0.33,1.21430643318376E-16,-0.006));
#649=CARTESIAN_POINT('',(-0.33,1.21430643318376E-16,-0.0185));
#650=CARTESIAN_POINT('',(-0.35,1.196959198424E-16,-0.031));
#651=CARTESIAN_POINT('',(-0.33,1.21430643318376E-16,0.));
#652=CARTESIAN_POINT('',(-0.37,1.21430643318376E-16,0.));
#653=CARTESIAN_POINT('',(-0.37,1.11022302462516E-16,-0.006));
#654=CARTESIAN_POINT('',(-0.37,1.21430643318376E-16,-0.031));
#655=CARTESIAN_POINT('',(-0.36,1.21430643318376E-16,-0.031));
#656=CARTESIAN_POINT('',(-0.32,0.01,-0.006));
#657=CARTESIAN_POINT('',(-0.32,0.01,0.));
#658=CARTESIAN_POINT('',(-0.323,0.01,0.));
#659=CARTESIAN_POINT('',(-0.34,0.01,-0.006));
#660=CARTESIAN_POINT('',(-0.34,0.01,0.));
#661=CARTESIAN_POINT('',(-0.343,0.01,0.));
#662=CARTESIAN_POINT('',(-0.36,0.03,-0.006));
#663=CARTESIAN_POINT('',(-0.36,0.03,0.));
#664=CARTESIAN_POINT('',(-0.363,0.03,0.));
#665=CARTESIAN_POINT('',(-0.37,0.18500125,-0.006));
#666=CARTESIAN_POINT('',(-0.37,0.04,-0.0185));
#667=CARTESIAN_POINT('',(-0.37,0.02,-0.031));
#668=CARTESIAN_POINT('',(-0.37,0.0100000000000001,-0.031));
#669=CARTESIAN_POINT('',(-0.37,0.18500125,0.));
#670=CARTESIAN_POINT('',(-0.37,0.0200000001250001,0.));
#671=CARTESIAN_POINT('',(-0.37,0.020000000125,0.));
#672=CARTESIAN_POINT('',(-0.37,0.0333333334166667,0.));
#673=CARTESIAN_POINT('',(-0.37,0.0466666667083333,0.));
#674=CARTESIAN_POINT('',(-0.37,0.06,0.));
#675=CARTESIAN_POINT('',(-0.36,0.05,-0.006));
#676=CARTESIAN_POINT('',(-0.36,0.05,0.));
#677=CARTESIAN_POINT('',(-0.363,0.05,0.));
#678=CARTESIAN_POINT('',(-0.34000125,0.18500125,0.));
#679=CARTESIAN_POINT('',(-0.36,0.0100000000000001,0.));
#680=CARTESIAN_POINT('',(-0.3535,0.0100000000000001,0.));
#681=CARTESIAN_POINT('',(-0.3525,0.0175,-0.031002));
#682=CARTESIAN_POINT('',(-0.35,0.015,-0.031002));
#683=CARTESIAN_POINT('',(-0.35,0.015,-0.031));
#684=CARTESIAN_POINT('',(-0.3525,0.0175,-0.031));
#685=CARTESIAN_POINT('',(-0.35,0.00750000000000014,-0.031002));
#686=CARTESIAN_POINT('',(-0.35,0.00300000000000012,-0.031002));
#687=CARTESIAN_POINT('',(-0.35,0.00300000000000011,-0.031));
#688=CARTESIAN_POINT('',(-0.35,0.00750000000000014,-0.031));
#689=CARTESIAN_POINT('',(-0.33,0.35,-0.031));
#690=CARTESIAN_POINT('',(-0.36,0.0100000000000001,-0.031));
#691=CARTESIAN_POINT('',(-0.3665,0.0100000000000001,-0.031));
#692=CARTESIAN_POINT('',(-0.368,0.02,-0.031));
#693=CARTESIAN_POINT('',(-0.35,0.00750000000000014,-0.031));
#694=CARTESIAN_POINT('',(-0.368,0.04,-0.0185));
#695=CARTESIAN_POINT('',(-0.368,0.04,-0.0185));
#696=CARTESIAN_POINT('',(-0.368,0.0300012375,-0.0154975125));
#697=CARTESIAN_POINT('',(-0.33,0.00300000000000012,-0.0185));
#698=CARTESIAN_POINT('',(-0.33,0.00300000000000012,-0.0185));
#699=CARTESIAN_POINT('',(-0.34,0.00300000000000012,-0.0155));
#700=CARTESIAN_POINT('',(-0.36,0.0100000000000001,-0.578353910705389));
#701=MECHANICAL_DESIGN_GEOMETRIC_PRESENTATION_REPRESENTATION('',(#429),
#702);
#702=(
GEOMETRIC_REPRESENTATION_CONTEXT(3)
GLOBAL_UNCERTAINTY_ASSIGNED_CONTEXT((#703))
GLOBAL_UNIT_ASSIGNED_CONTEXT((#706,#705,#704))
REPRESENTATION_CONTEXT('Front Foot','TOP_LEVEL_ASSEMBLY_PART')
);
#703=UNCERTAINTY_MEASURE_WITH_UNIT(LENGTH_MEASURE(2.E-5),#706,
'DISTANCE_ACCURACY_VALUE','Maximum Tolerance applied to model');
#704=(
NAMED_UNIT(*)
SI_UNIT($,.STERADIAN.)
SOLID_ANGLE_UNIT()
);
#705=(
NAMED_UNIT(*)
PLANE_ANGLE_UNIT()
SI_UNIT($,.RADIAN.)
);
#706=(
LENGTH_UNIT()
NAMED_UNIT(*)
SI_UNIT($,.METRE.)
);
#707=PRODUCT_DEFINITION_SHAPE('','',#708);
#708=PRODUCT_DEFINITION('','',#710,#709);
#709=PRODUCT_DEFINITION_CONTEXT('',#716,'design');
#710=PRODUCT_DEFINITION_FORMATION_WITH_SPECIFIED_SOURCE('','',#712,
 .NOT_KNOWN.);
#711=PRODUCT_RELATED_PRODUCT_CATEGORY('','',(#712));
#712=PRODUCT('Front Foot','Front Foot','Front Foot',(#714));
#713=PRODUCT_CATEGORY('','');
#714=PRODUCT_CONTEXT('',#716,'mechanical');
#715=APPLICATION_PROTOCOL_DEFINITION('international standard',
'ap242_managed_model_based_3d_engineering',2020,#716);
#716=APPLICATION_CONTEXT('managed model based 3d engineering');
ENDSEC;
END-ISO-10303-21;
