ISO-10303-21;
HEADER;
/* Generated by software containing ST-Developer
 * from STEP Tools, Inc. (www.steptools.com) 
 */
/* OPTION: using custom renumber hook */

FILE_DESCRIPTION(
/* description */ ('STEP AP242 Edition 2',
'CAx-IF Rec.Pracs.---Representation and Presentation of Product Manufa
cturing Information (PMI)---4.0---2014-10-13',
'CAx-IF Rec.Pracs.---3D Tessellated Geometry---0.4---2014-09-14','2;1',
'CAx-IF Rec.Pracs.---User Defined Attributes---1.5---2016-08-15'),
/* implementation_level */ '2;1');

FILE_NAME(
/* name */ '6961f2b046b9ae42405cfb10',
/* time_stamp */ '2026-01-10T06:33:21Z',
/* author */ (''),
/* organization */ (''),
/* preprocessor_version */ 'ST-DEVELOPER v20',
/* originating_system */ 'ONSHAPE BY PTC INC, 1.209',
/* authorisation */ '  ');

FILE_SCHEMA (('AP242_MANAGED_MODEL_BASED_3D_ENGINEERING_MIM_LF { 1 0 10303 442 3 1 4 }'));
ENDSEC;

DATA;
#10=SHAPE_REPRESENTATION_RELATIONSHIP('','',#607,#11);
#11=ADVANCED_BREP_SHAPE_REPRESENTATION('',(#605),#959);
#12=CYLINDRICAL_SURFACE('',#613,0.003);
#13=CYLINDRICAL_SURFACE('',#615,0.003);
#14=CYLINDRICAL_SURFACE('',#618,0.002);
#15=CIRCLE('',#610,0.003);
#16=CIRCLE('',#612,0.003);
#17=CIRCLE('',#614,0.003);
#18=CIRCLE('',#616,0.003);
#19=CIRCLE('',#619,0.002);
#20=CIRCLE('',#620,0.002);
#21=ORIENTED_EDGE('',*,*,#181,.T.);
#22=ORIENTED_EDGE('',*,*,#182,.T.);
#23=ORIENTED_EDGE('',*,*,#183,.F.);
#24=ORIENTED_EDGE('',*,*,#184,.T.);
#25=ORIENTED_EDGE('',*,*,#185,.T.);
#26=ORIENTED_EDGE('',*,*,#186,.T.);
#27=ORIENTED_EDGE('',*,*,#187,.F.);
#28=ORIENTED_EDGE('',*,*,#188,.F.);
#29=ORIENTED_EDGE('',*,*,#189,.T.);
#30=ORIENTED_EDGE('',*,*,#190,.F.);
#31=ORIENTED_EDGE('',*,*,#191,.T.);
#32=ORIENTED_EDGE('',*,*,#192,.T.);
#33=ORIENTED_EDGE('',*,*,#193,.T.);
#34=ORIENTED_EDGE('',*,*,#194,.F.);
#35=ORIENTED_EDGE('',*,*,#195,.T.);
#36=ORIENTED_EDGE('',*,*,#196,.F.);
#37=ORIENTED_EDGE('',*,*,#197,.T.);
#38=ORIENTED_EDGE('',*,*,#198,.T.);
#39=ORIENTED_EDGE('',*,*,#199,.F.);
#40=ORIENTED_EDGE('',*,*,#188,.T.);
#41=ORIENTED_EDGE('',*,*,#200,.F.);
#42=ORIENTED_EDGE('',*,*,#201,.T.);
#43=ORIENTED_EDGE('',*,*,#202,.F.);
#44=ORIENTED_EDGE('',*,*,#197,.F.);
#45=ORIENTED_EDGE('',*,*,#203,.F.);
#46=ORIENTED_EDGE('',*,*,#204,.F.);
#47=ORIENTED_EDGE('',*,*,#205,.F.);
#48=ORIENTED_EDGE('',*,*,#206,.T.);
#49=ORIENTED_EDGE('',*,*,#207,.T.);
#50=ORIENTED_EDGE('',*,*,#193,.F.);
#51=ORIENTED_EDGE('',*,*,#208,.F.);
#52=ORIENTED_EDGE('',*,*,#209,.T.);
#53=ORIENTED_EDGE('',*,*,#210,.T.);
#54=ORIENTED_EDGE('',*,*,#211,.F.);
#55=ORIENTED_EDGE('',*,*,#212,.F.);
#56=ORIENTED_EDGE('',*,*,#213,.T.);
#57=ORIENTED_EDGE('',*,*,#214,.T.);
#58=ORIENTED_EDGE('',*,*,#215,.T.);
#59=ORIENTED_EDGE('',*,*,#216,.F.);
#60=ORIENTED_EDGE('',*,*,#217,.T.);
#61=ORIENTED_EDGE('',*,*,#218,.T.);
#62=ORIENTED_EDGE('',*,*,#219,.T.);
#63=ORIENTED_EDGE('',*,*,#205,.T.);
#64=ORIENTED_EDGE('',*,*,#192,.F.);
#65=ORIENTED_EDGE('',*,*,#220,.T.);
#66=ORIENTED_EDGE('',*,*,#221,.T.);
#67=ORIENTED_EDGE('',*,*,#222,.T.);
#68=ORIENTED_EDGE('',*,*,#194,.T.);
#69=ORIENTED_EDGE('',*,*,#207,.F.);
#70=ORIENTED_EDGE('',*,*,#223,.F.);
#71=ORIENTED_EDGE('',*,*,#224,.T.);
#72=ORIENTED_EDGE('',*,*,#225,.T.);
#73=ORIENTED_EDGE('',*,*,#226,.F.);
#74=ORIENTED_EDGE('',*,*,#204,.T.);
#75=ORIENTED_EDGE('',*,*,#227,.T.);
#76=ORIENTED_EDGE('',*,*,#228,.T.);
#77=ORIENTED_EDGE('',*,*,#229,.T.);
#78=ORIENTED_EDGE('',*,*,#230,.T.);
#79=ORIENTED_EDGE('',*,*,#231,.F.);
#80=ORIENTED_EDGE('',*,*,#232,.T.);
#81=ORIENTED_EDGE('',*,*,#233,.T.);
#82=ORIENTED_EDGE('',*,*,#216,.T.);
#83=ORIENTED_EDGE('',*,*,#234,.T.);
#84=ORIENTED_EDGE('',*,*,#228,.F.);
#85=ORIENTED_EDGE('',*,*,#235,.T.);
#86=ORIENTED_EDGE('',*,*,#220,.F.);
#87=ORIENTED_EDGE('',*,*,#236,.T.);
#88=ORIENTED_EDGE('',*,*,#183,.T.);
#89=ORIENTED_EDGE('',*,*,#237,.T.);
#90=ORIENTED_EDGE('',*,*,#212,.T.);
#91=ORIENTED_EDGE('',*,*,#231,.T.);
#92=ORIENTED_EDGE('',*,*,#238,.T.);
#93=ORIENTED_EDGE('',*,*,#190,.T.);
#94=ORIENTED_EDGE('',*,*,#239,.T.);
#95=ORIENTED_EDGE('',*,*,#240,.F.);
#96=ORIENTED_EDGE('',*,*,#201,.F.);
#97=ORIENTED_EDGE('',*,*,#241,.T.);
#98=ORIENTED_EDGE('',*,*,#219,.F.);
#99=ORIENTED_EDGE('',*,*,#242,.T.);
#100=ORIENTED_EDGE('',*,*,#243,.T.);
#101=ORIENTED_EDGE('',*,*,#244,.T.);
#102=ORIENTED_EDGE('',*,*,#223,.T.);
#103=ORIENTED_EDGE('',*,*,#206,.F.);
#104=ORIENTED_EDGE('',*,*,#243,.F.);
#105=ORIENTED_EDGE('',*,*,#245,.T.);
#106=ORIENTED_EDGE('',*,*,#186,.F.);
#107=ORIENTED_EDGE('',*,*,#246,.T.);
#108=ORIENTED_EDGE('',*,*,#230,.F.);
#109=ORIENTED_EDGE('',*,*,#247,.T.);
#110=ORIENTED_EDGE('',*,*,#214,.F.);
#111=ORIENTED_EDGE('',*,*,#191,.F.);
#112=ORIENTED_EDGE('',*,*,#238,.F.);
#113=ORIENTED_EDGE('',*,*,#218,.F.);
#114=ORIENTED_EDGE('',*,*,#248,.T.);
#115=ORIENTED_EDGE('',*,*,#181,.F.);
#116=ORIENTED_EDGE('',*,*,#245,.F.);
#117=ORIENTED_EDGE('',*,*,#242,.F.);
#118=ORIENTED_EDGE('',*,*,#222,.F.);
#119=ORIENTED_EDGE('',*,*,#249,.T.);
#120=ORIENTED_EDGE('',*,*,#232,.F.);
#121=ORIENTED_EDGE('',*,*,#239,.F.);
#122=ORIENTED_EDGE('',*,*,#195,.F.);
#123=ORIENTED_EDGE('',*,*,#185,.F.);
#124=ORIENTED_EDGE('',*,*,#250,.T.);
#125=ORIENTED_EDGE('',*,*,#224,.F.);
#126=ORIENTED_EDGE('',*,*,#244,.F.);
#127=ORIENTED_EDGE('',*,*,#246,.F.);
#128=ORIENTED_EDGE('',*,*,#209,.F.);
#129=ORIENTED_EDGE('',*,*,#251,.F.);
#130=ORIENTED_EDGE('',*,*,#252,.T.);
#131=ORIENTED_EDGE('',*,*,#253,.T.);
#132=ORIENTED_EDGE('',*,*,#208,.T.);
#133=ORIENTED_EDGE('',*,*,#254,.F.);
#134=ORIENTED_EDGE('',*,*,#255,.F.);
#135=ORIENTED_EDGE('',*,*,#251,.T.);
#136=ORIENTED_EDGE('',*,*,#211,.T.);
#137=ORIENTED_EDGE('',*,*,#256,.F.);
#138=ORIENTED_EDGE('',*,*,#257,.F.);
#139=ORIENTED_EDGE('',*,*,#254,.T.);
#140=ORIENTED_EDGE('',*,*,#210,.F.);
#141=ORIENTED_EDGE('',*,*,#253,.F.);
#142=ORIENTED_EDGE('',*,*,#258,.T.);
#143=ORIENTED_EDGE('',*,*,#256,.T.);
#144=ORIENTED_EDGE('',*,*,#213,.F.);
#145=ORIENTED_EDGE('',*,*,#252,.F.);
#146=ORIENTED_EDGE('',*,*,#255,.T.);
#147=ORIENTED_EDGE('',*,*,#257,.T.);
#148=ORIENTED_EDGE('',*,*,#258,.F.);
#149=ORIENTED_EDGE('',*,*,#259,.F.);
#150=ORIENTED_EDGE('',*,*,#189,.F.);
#151=ORIENTED_EDGE('',*,*,#199,.T.);
#152=ORIENTED_EDGE('',*,*,#240,.T.);
#153=ORIENTED_EDGE('',*,*,#187,.T.);
#154=ORIENTED_EDGE('',*,*,#259,.T.);
#155=ORIENTED_EDGE('',*,*,#241,.F.);
#156=ORIENTED_EDGE('',*,*,#200,.T.);
#157=ORIENTED_EDGE('',*,*,#260,.F.);
#158=ORIENTED_EDGE('',*,*,#198,.F.);
#159=ORIENTED_EDGE('',*,*,#202,.T.);
#160=ORIENTED_EDGE('',*,*,#226,.T.);
#161=ORIENTED_EDGE('',*,*,#196,.T.);
#162=ORIENTED_EDGE('',*,*,#260,.T.);
#163=ORIENTED_EDGE('',*,*,#227,.F.);
#164=ORIENTED_EDGE('',*,*,#203,.T.);
#165=ORIENTED_EDGE('',*,*,#234,.F.);
#166=ORIENTED_EDGE('',*,*,#215,.F.);
#167=ORIENTED_EDGE('',*,*,#247,.F.);
#168=ORIENTED_EDGE('',*,*,#229,.F.);
#169=ORIENTED_EDGE('',*,*,#235,.F.);
#170=ORIENTED_EDGE('',*,*,#233,.F.);
#171=ORIENTED_EDGE('',*,*,#249,.F.);
#172=ORIENTED_EDGE('',*,*,#221,.F.);
#173=ORIENTED_EDGE('',*,*,#237,.F.);
#174=ORIENTED_EDGE('',*,*,#182,.F.);
#175=ORIENTED_EDGE('',*,*,#248,.F.);
#176=ORIENTED_EDGE('',*,*,#217,.F.);
#177=ORIENTED_EDGE('',*,*,#236,.F.);
#178=ORIENTED_EDGE('',*,*,#225,.F.);
#179=ORIENTED_EDGE('',*,*,#250,.F.);
#180=ORIENTED_EDGE('',*,*,#184,.F.);
#181=EDGE_CURVE('',#261,#262,#315,.T.);
#182=EDGE_CURVE('',#262,#263,#316,.T.);
#183=EDGE_CURVE('',#264,#263,#317,.T.);
#184=EDGE_CURVE('',#264,#265,#318,.T.);
#185=EDGE_CURVE('',#265,#266,#319,.F.);
#186=EDGE_CURVE('',#266,#261,#320,.T.);
#187=EDGE_CURVE('',#267,#268,#321,.T.);
#188=EDGE_CURVE('',#269,#267,#15,.F.);
#189=EDGE_CURVE('',#269,#268,#322,.T.);
#190=EDGE_CURVE('',#270,#271,#323,.T.);
#191=EDGE_CURVE('',#270,#272,#324,.T.);
#192=EDGE_CURVE('',#272,#273,#325,.T.);
#193=EDGE_CURVE('',#273,#274,#326,.T.);
#194=EDGE_CURVE('',#275,#274,#327,.T.);
#195=EDGE_CURVE('',#275,#271,#328,.F.);
#196=EDGE_CURVE('',#276,#277,#329,.T.);
#197=EDGE_CURVE('',#276,#278,#16,.T.);
#198=EDGE_CURVE('',#278,#277,#330,.T.);
#199=EDGE_CURVE('',#269,#279,#331,.T.);
#200=EDGE_CURVE('',#280,#267,#332,.T.);
#201=EDGE_CURVE('',#280,#279,#17,.T.);
#202=EDGE_CURVE('',#278,#281,#333,.T.);
#203=EDGE_CURVE('',#282,#276,#334,.T.);
#204=EDGE_CURVE('',#281,#282,#18,.F.);
#205=EDGE_CURVE('',#283,#273,#335,.T.);
#206=EDGE_CURVE('',#283,#284,#336,.T.);
#207=EDGE_CURVE('',#284,#274,#337,.T.);
#208=EDGE_CURVE('',#285,#286,#338,.T.);
#209=EDGE_CURVE('',#285,#287,#339,.T.);
#210=EDGE_CURVE('',#287,#288,#340,.T.);
#211=EDGE_CURVE('',#286,#288,#341,.T.);
#212=EDGE_CURVE('',#289,#289,#19,.T.);
#213=EDGE_CURVE('',#290,#290,#20,.T.);
#214=EDGE_CURVE('',#272,#291,#342,.T.);
#215=EDGE_CURVE('',#291,#292,#343,.T.);
#216=EDGE_CURVE('',#293,#292,#344,.T.);
#217=EDGE_CURVE('',#293,#294,#345,.T.);
#218=EDGE_CURVE('',#294,#295,#346,.T.);
#219=EDGE_CURVE('',#295,#283,#347,.T.);
#220=EDGE_CURVE('',#296,#297,#348,.T.);
#221=EDGE_CURVE('',#297,#298,#349,.T.);
#222=EDGE_CURVE('',#298,#275,#350,.T.);
#223=EDGE_CURVE('',#299,#284,#351,.T.);
#224=EDGE_CURVE('',#299,#300,#352,.T.);
#225=EDGE_CURVE('',#300,#296,#353,.T.);
#226=EDGE_CURVE('',#281,#301,#354,.T.);
#227=EDGE_CURVE('',#282,#301,#355,.T.);
#228=EDGE_CURVE('',#302,#303,#356,.T.);
#229=EDGE_CURVE('',#303,#304,#357,.T.);
#230=EDGE_CURVE('',#304,#305,#358,.T.);
#231=EDGE_CURVE('',#306,#305,#359,.T.);
#232=EDGE_CURVE('',#306,#307,#360,.F.);
#233=EDGE_CURVE('',#307,#302,#361,.T.);
#234=EDGE_CURVE('',#292,#303,#362,.T.);
#235=EDGE_CURVE('',#302,#297,#363,.F.);
#236=EDGE_CURVE('',#296,#264,#364,.T.);
#237=EDGE_CURVE('',#263,#293,#365,.F.);
#238=EDGE_CURVE('',#305,#270,#366,.T.);
#239=EDGE_CURVE('',#271,#306,#367,.T.);
#240=EDGE_CURVE('',#279,#308,#368,.T.);
#241=EDGE_CURVE('',#280,#308,#369,.T.);
#242=EDGE_CURVE('',#295,#309,#370,.T.);
#243=EDGE_CURVE('',#309,#310,#371,.T.);
#244=EDGE_CURVE('',#310,#299,#372,.F.);
#245=EDGE_CURVE('',#309,#261,#373,.T.);
#246=EDGE_CURVE('',#266,#310,#374,.T.);
#247=EDGE_CURVE('',#304,#291,#375,.T.);
#248=EDGE_CURVE('',#294,#262,#376,.F.);
#249=EDGE_CURVE('',#298,#307,#377,.T.);
#250=EDGE_CURVE('',#265,#300,#378,.F.);
#251=EDGE_CURVE('',#311,#285,#379,.T.);
#252=EDGE_CURVE('',#311,#312,#380,.T.);
#253=EDGE_CURVE('',#312,#287,#381,.T.);
#254=EDGE_CURVE('',#313,#286,#382,.T.);
#255=EDGE_CURVE('',#311,#313,#383,.T.);
#256=EDGE_CURVE('',#314,#288,#384,.T.);
#257=EDGE_CURVE('',#313,#314,#385,.T.);
#258=EDGE_CURVE('',#312,#314,#386,.T.);
#259=EDGE_CURVE('',#268,#308,#387,.T.);
#260=EDGE_CURVE('',#277,#301,#388,.T.);
#261=VERTEX_POINT('',#796);
#262=VERTEX_POINT('',#797);
#263=VERTEX_POINT('',#799);
#264=VERTEX_POINT('',#801);
#265=VERTEX_POINT('',#803);
#266=VERTEX_POINT('',#805);
#267=VERTEX_POINT('',#808);
#268=VERTEX_POINT('',#809);
#269=VERTEX_POINT('',#811);
#270=VERTEX_POINT('',#815);
#271=VERTEX_POINT('',#816);
#272=VERTEX_POINT('',#818);
#273=VERTEX_POINT('',#820);
#274=VERTEX_POINT('',#822);
#275=VERTEX_POINT('',#824);
#276=VERTEX_POINT('',#827);
#277=VERTEX_POINT('',#828);
#278=VERTEX_POINT('',#830);
#279=VERTEX_POINT('',#834);
#280=VERTEX_POINT('',#836);
#281=VERTEX_POINT('',#840);
#282=VERTEX_POINT('',#842);
#283=VERTEX_POINT('',#846);
#284=VERTEX_POINT('',#848);
#285=VERTEX_POINT('',#851);
#286=VERTEX_POINT('',#852);
#287=VERTEX_POINT('',#854);
#288=VERTEX_POINT('',#856);
#289=VERTEX_POINT('',#860);
#290=VERTEX_POINT('',#862);
#291=VERTEX_POINT('',#865);
#292=VERTEX_POINT('',#867);
#293=VERTEX_POINT('',#869);
#294=VERTEX_POINT('',#871);
#295=VERTEX_POINT('',#873);
#296=VERTEX_POINT('',#877);
#297=VERTEX_POINT('',#878);
#298=VERTEX_POINT('',#880);
#299=VERTEX_POINT('',#883);
#300=VERTEX_POINT('',#885);
#301=VERTEX_POINT('',#889);
#302=VERTEX_POINT('',#892);
#303=VERTEX_POINT('',#893);
#304=VERTEX_POINT('',#895);
#305=VERTEX_POINT('',#897);
#306=VERTEX_POINT('',#899);
#307=VERTEX_POINT('',#901);
#308=VERTEX_POINT('',#913);
#309=VERTEX_POINT('',#916);
#310=VERTEX_POINT('',#918);
#311=VERTEX_POINT('',#933);
#312=VERTEX_POINT('',#935);
#313=VERTEX_POINT('',#939);
#314=VERTEX_POINT('',#943);
#315=LINE('',#795,#389);
#316=LINE('',#798,#390);
#317=LINE('',#800,#391);
#318=LINE('',#802,#392);
#319=LINE('',#804,#393);
#320=LINE('',#806,#394);
#321=LINE('',#807,#395);
#322=LINE('',#812,#396);
#323=LINE('',#814,#397);
#324=LINE('',#817,#398);
#325=LINE('',#819,#399);
#326=LINE('',#821,#400);
#327=LINE('',#823,#401);
#328=LINE('',#825,#402);
#329=LINE('',#826,#403);
#330=LINE('',#831,#404);
#331=LINE('',#833,#405);
#332=LINE('',#835,#406);
#333=LINE('',#839,#407);
#334=LINE('',#841,#408);
#335=LINE('',#845,#409);
#336=LINE('',#847,#410);
#337=LINE('',#849,#411);
#338=LINE('',#850,#412);
#339=LINE('',#853,#413);
#340=LINE('',#855,#414);
#341=LINE('',#857,#415);
#342=LINE('',#864,#416);
#343=LINE('',#866,#417);
#344=LINE('',#868,#418);
#345=LINE('',#870,#419);
#346=LINE('',#872,#420);
#347=LINE('',#874,#421);
#348=LINE('',#876,#422);
#349=LINE('',#879,#423);
#350=LINE('',#881,#424);
#351=LINE('',#882,#425);
#352=LINE('',#884,#426);
#353=LINE('',#886,#427);
#354=LINE('',#888,#428);
#355=LINE('',#890,#429);
#356=LINE('',#891,#430);
#357=LINE('',#894,#431);
#358=LINE('',#896,#432);
#359=LINE('',#898,#433);
#360=LINE('',#900,#434);
#361=LINE('',#902,#435);
#362=LINE('',#904,#436);
#363=LINE('',#905,#437);
#364=LINE('',#906,#438);
#365=LINE('',#907,#439);
#366=LINE('',#909,#440);
#367=LINE('',#910,#441);
#368=LINE('',#912,#442);
#369=LINE('',#914,#443);
#370=LINE('',#915,#444);
#371=LINE('',#917,#445);
#372=LINE('',#919,#446);
#373=LINE('',#921,#447);
#374=LINE('',#922,#448);
#375=LINE('',#924,#449);
#376=LINE('',#926,#450);
#377=LINE('',#928,#451);
#378=LINE('',#930,#452);
#379=LINE('',#932,#453);
#380=LINE('',#934,#454);
#381=LINE('',#936,#455);
#382=LINE('',#938,#456);
#383=LINE('',#940,#457);
#384=LINE('',#942,#458);
#385=LINE('',#944,#459);
#386=LINE('',#946,#460);
#387=LINE('',#949,#461);
#388=LINE('',#952,#462);
#389=VECTOR('',#649,1.);
#390=VECTOR('',#650,1.);
#391=VECTOR('',#651,1.);
#392=VECTOR('',#652,1.);
#393=VECTOR('',#653,1.);
#394=VECTOR('',#654,1.);
#395=VECTOR('',#655,1.);
#396=VECTOR('',#658,1.);
#397=VECTOR('',#661,1.);
#398=VECTOR('',#662,1.);
#399=VECTOR('',#663,1.);
#400=VECTOR('',#664,1.);
#401=VECTOR('',#665,1.);
#402=VECTOR('',#666,1.);
#403=VECTOR('',#667,1.);
#404=VECTOR('',#670,1.);
#405=VECTOR('',#673,1.);
#406=VECTOR('',#674,1.);
#407=VECTOR('',#679,1.);
#408=VECTOR('',#680,1.);
#409=VECTOR('',#685,1.);
#410=VECTOR('',#686,1.);
#411=VECTOR('',#687,1.);
#412=VECTOR('',#688,1.);
#413=VECTOR('',#689,1.);
#414=VECTOR('',#690,1.);
#415=VECTOR('',#691,1.);
#416=VECTOR('',#700,1.);
#417=VECTOR('',#701,1.);
#418=VECTOR('',#702,1.);
#419=VECTOR('',#703,1.);
#420=VECTOR('',#704,1.);
#421=VECTOR('',#705,1.);
#422=VECTOR('',#708,1.);
#423=VECTOR('',#709,1.);
#424=VECTOR('',#710,1.);
#425=VECTOR('',#711,1.);
#426=VECTOR('',#712,1.);
#427=VECTOR('',#713,1.);
#428=VECTOR('',#716,1.);
#429=VECTOR('',#717,1.);
#430=VECTOR('',#718,1.);
#431=VECTOR('',#719,1.);
#432=VECTOR('',#720,1.);
#433=VECTOR('',#721,1.);
#434=VECTOR('',#722,1.);
#435=VECTOR('',#723,1.);
#436=VECTOR('',#726,1.);
#437=VECTOR('',#727,1.);
#438=VECTOR('',#728,1.);
#439=VECTOR('',#729,1.);
#440=VECTOR('',#732,1.);
#441=VECTOR('',#733,1.);
#442=VECTOR('',#736,1.);
#443=VECTOR('',#737,1.);
#444=VECTOR('',#738,1.);
#445=VECTOR('',#739,1.);
#446=VECTOR('',#740,1.);
#447=VECTOR('',#743,1.);
#448=VECTOR('',#744,1.);
#449=VECTOR('',#747,1.);
#450=VECTOR('',#750,1.);
#451=VECTOR('',#753,1.);
#452=VECTOR('',#756,1.);
#453=VECTOR('',#759,1.);
#454=VECTOR('',#760,1.);
#455=VECTOR('',#761,1.);
#456=VECTOR('',#764,1.);
#457=VECTOR('',#765,1.);
#458=VECTOR('',#768,1.);
#459=VECTOR('',#769,1.);
#460=VECTOR('',#772,1.);
#461=VECTOR('',#777,1.);
#462=VECTOR('',#782,1.);
#463=EDGE_LOOP('',(#21,#22,#23,#24,#25,#26));
#464=EDGE_LOOP('',(#27,#28,#29));
#465=EDGE_LOOP('',(#30,#31,#32,#33,#34,#35));
#466=EDGE_LOOP('',(#36,#37,#38));
#467=EDGE_LOOP('',(#39,#40,#41,#42));
#468=EDGE_LOOP('',(#43,#44,#45,#46));
#469=EDGE_LOOP('',(#47,#48,#49,#50));
#470=EDGE_LOOP('',(#51,#52,#53,#54));
#471=EDGE_LOOP('',(#55));
#472=EDGE_LOOP('',(#56));
#473=EDGE_LOOP('',(#57,#58,#59,#60,#61,#62,#63,#64));
#474=EDGE_LOOP('',(#65,#66,#67,#68,#69,#70,#71,#72));
#475=EDGE_LOOP('',(#73,#74,#75));
#476=EDGE_LOOP('',(#76,#77,#78,#79,#80,#81));
#477=EDGE_LOOP('',(#82,#83,#84,#85,#86,#87,#88,#89));
#478=EDGE_LOOP('',(#90));
#479=EDGE_LOOP('',(#91,#92,#93,#94));
#480=EDGE_LOOP('',(#95,#96,#97));
#481=EDGE_LOOP('',(#98,#99,#100,#101,#102,#103));
#482=EDGE_LOOP('',(#104,#105,#106,#107));
#483=EDGE_LOOP('',(#108,#109,#110,#111,#112));
#484=EDGE_LOOP('',(#113,#114,#115,#116,#117));
#485=EDGE_LOOP('',(#118,#119,#120,#121,#122));
#486=EDGE_LOOP('',(#123,#124,#125,#126,#127));
#487=EDGE_LOOP('',(#128,#129,#130,#131));
#488=EDGE_LOOP('',(#132,#133,#134,#135));
#489=EDGE_LOOP('',(#136,#137,#138,#139));
#490=EDGE_LOOP('',(#140,#141,#142,#143));
#491=EDGE_LOOP('',(#144));
#492=EDGE_LOOP('',(#145,#146,#147,#148));
#493=EDGE_LOOP('',(#149,#150,#151,#152));
#494=EDGE_LOOP('',(#153,#154,#155,#156));
#495=EDGE_LOOP('',(#157,#158,#159,#160));
#496=EDGE_LOOP('',(#161,#162,#163,#164));
#497=EDGE_LOOP('',(#165,#166,#167,#168));
#498=EDGE_LOOP('',(#169,#170,#171,#172));
#499=EDGE_LOOP('',(#173,#174,#175,#176));
#500=EDGE_LOOP('',(#177,#178,#179,#180));
#501=FACE_BOUND('',#463,.T.);
#502=FACE_BOUND('',#464,.T.);
#503=FACE_BOUND('',#465,.T.);
#504=FACE_BOUND('',#466,.T.);
#505=FACE_BOUND('',#467,.T.);
#506=FACE_BOUND('',#468,.T.);
#507=FACE_BOUND('',#469,.T.);
#508=FACE_BOUND('',#470,.T.);
#509=FACE_BOUND('',#471,.T.);
#510=FACE_BOUND('',#472,.T.);
#511=FACE_BOUND('',#473,.T.);
#512=FACE_BOUND('',#474,.T.);
#513=FACE_BOUND('',#475,.T.);
#514=FACE_BOUND('',#476,.T.);
#515=FACE_BOUND('',#477,.T.);
#516=FACE_BOUND('',#478,.T.);
#517=FACE_BOUND('',#479,.T.);
#518=FACE_BOUND('',#480,.T.);
#519=FACE_BOUND('',#481,.T.);
#520=FACE_BOUND('',#482,.T.);
#521=FACE_BOUND('',#483,.T.);
#522=FACE_BOUND('',#484,.T.);
#523=FACE_BOUND('',#485,.T.);
#524=FACE_BOUND('',#486,.T.);
#525=FACE_BOUND('',#487,.T.);
#526=FACE_BOUND('',#488,.T.);
#527=FACE_BOUND('',#489,.T.);
#528=FACE_BOUND('',#490,.T.);
#529=FACE_BOUND('',#491,.T.);
#530=FACE_BOUND('',#492,.T.);
#531=FACE_BOUND('',#493,.T.);
#532=FACE_BOUND('',#494,.T.);
#533=FACE_BOUND('',#495,.T.);
#534=FACE_BOUND('',#496,.T.);
#535=FACE_BOUND('',#497,.T.);
#536=FACE_BOUND('',#498,.T.);
#537=FACE_BOUND('',#499,.T.);
#538=FACE_BOUND('',#500,.T.);
#539=PLANE('',#609);
#540=PLANE('',#611);
#541=PLANE('',#617);
#542=PLANE('',#621);
#543=PLANE('',#622);
#544=PLANE('',#623);
#545=PLANE('',#624);
#546=PLANE('',#625);
#547=PLANE('',#626);
#548=PLANE('',#627);
#549=PLANE('',#628);
#550=PLANE('',#629);
#551=PLANE('',#630);
#552=PLANE('',#631);
#553=PLANE('',#632);
#554=PLANE('',#633);
#555=PLANE('',#634);
#556=PLANE('',#635);
#557=PLANE('',#636);
#558=PLANE('',#637);
#559=PLANE('',#638);
#560=PLANE('',#639);
#561=PLANE('',#640);
#562=PLANE('',#641);
#563=PLANE('',#642);
#564=PLANE('',#643);
#565=PLANE('',#644);
#566=ADVANCED_FACE('',(#501,#502),#539,.F.);
#567=ADVANCED_FACE('',(#503,#504),#540,.F.);
#568=ADVANCED_FACE('',(#505),#12,.F.);
#569=ADVANCED_FACE('',(#506),#13,.F.);
#570=ADVANCED_FACE('',(#507,#508),#541,.T.);
#571=ADVANCED_FACE('',(#509,#510),#14,.F.);
#572=ADVANCED_FACE('',(#511),#542,.F.);
#573=ADVANCED_FACE('',(#512),#543,.T.);
#574=ADVANCED_FACE('',(#513,#514),#544,.T.);
#575=ADVANCED_FACE('',(#515,#516),#545,.F.);
#576=ADVANCED_FACE('',(#517),#546,.T.);
#577=ADVANCED_FACE('',(#518,#519),#547,.T.);
#578=ADVANCED_FACE('',(#520),#548,.T.);
#579=ADVANCED_FACE('',(#521),#549,.T.);
#580=ADVANCED_FACE('',(#522),#550,.T.);
#581=ADVANCED_FACE('',(#523),#551,.F.);
#582=ADVANCED_FACE('',(#524),#552,.F.);
#583=ADVANCED_FACE('',(#525),#553,.T.);
#584=ADVANCED_FACE('',(#526),#554,.F.);
#585=ADVANCED_FACE('',(#527),#555,.F.);
#586=ADVANCED_FACE('',(#528),#556,.T.);
#587=ADVANCED_FACE('',(#529,#530),#557,.T.);
#588=ADVANCED_FACE('',(#531),#558,.T.);
#589=ADVANCED_FACE('',(#532),#559,.T.);
#590=ADVANCED_FACE('',(#533),#560,.T.);
#591=ADVANCED_FACE('',(#534),#561,.T.);
#592=ADVANCED_FACE('',(#535),#562,.T.);
#593=ADVANCED_FACE('',(#536),#563,.F.);
#594=ADVANCED_FACE('',(#537),#564,.F.);
#595=ADVANCED_FACE('',(#538),#565,.T.);
#596=CLOSED_SHELL('',(#566,#567,#568,#569,#570,#571,#572,#573,#574,#575,
#576,#577,#578,#579,#580,#581,#582,#583,#584,#585,#586,#587,#588,#589,#590,
#591,#592,#593,#594,#595));
#597=STYLED_ITEM('',(#598),#605);
#598=PRESENTATION_STYLE_ASSIGNMENT((#599));
#599=SURFACE_STYLE_USAGE(.BOTH.,#600);
#600=SURFACE_SIDE_STYLE('',(#601));
#601=SURFACE_STYLE_FILL_AREA(#602);
#602=FILL_AREA_STYLE('',(#603));
#603=FILL_AREA_STYLE_COLOUR('',#604);
#604=COLOUR_RGB('',0.129411764705882,0.341176470588236,0.352941176470589);
#605=MANIFOLD_SOLID_BREP('Tensioner',#596);
#606=SHAPE_DEFINITION_REPRESENTATION(#964,#607);
#607=SHAPE_REPRESENTATION('Tensioner',(#608),#959);
#608=AXIS2_PLACEMENT_3D('',#793,#645,#646);
#609=AXIS2_PLACEMENT_3D('',#794,#647,#648);
#610=AXIS2_PLACEMENT_3D('',#810,#656,#657);
#611=AXIS2_PLACEMENT_3D('',#813,#659,#660);
#612=AXIS2_PLACEMENT_3D('',#829,#668,#669);
#613=AXIS2_PLACEMENT_3D('',#832,#671,#672);
#614=AXIS2_PLACEMENT_3D('',#837,#675,#676);
#615=AXIS2_PLACEMENT_3D('',#838,#677,#678);
#616=AXIS2_PLACEMENT_3D('',#843,#681,#682);
#617=AXIS2_PLACEMENT_3D('',#844,#683,#684);
#618=AXIS2_PLACEMENT_3D('',#858,#692,#693);
#619=AXIS2_PLACEMENT_3D('',#859,#694,#695);
#620=AXIS2_PLACEMENT_3D('',#861,#696,#697);
#621=AXIS2_PLACEMENT_3D('',#863,#698,#699);
#622=AXIS2_PLACEMENT_3D('',#875,#706,#707);
#623=AXIS2_PLACEMENT_3D('',#887,#714,#715);
#624=AXIS2_PLACEMENT_3D('',#903,#724,#725);
#625=AXIS2_PLACEMENT_3D('',#908,#730,#731);
#626=AXIS2_PLACEMENT_3D('',#911,#734,#735);
#627=AXIS2_PLACEMENT_3D('',#920,#741,#742);
#628=AXIS2_PLACEMENT_3D('',#923,#745,#746);
#629=AXIS2_PLACEMENT_3D('',#925,#748,#749);
#630=AXIS2_PLACEMENT_3D('',#927,#751,#752);
#631=AXIS2_PLACEMENT_3D('',#929,#754,#755);
#632=AXIS2_PLACEMENT_3D('',#931,#757,#758);
#633=AXIS2_PLACEMENT_3D('',#937,#762,#763);
#634=AXIS2_PLACEMENT_3D('',#941,#766,#767);
#635=AXIS2_PLACEMENT_3D('',#945,#770,#771);
#636=AXIS2_PLACEMENT_3D('',#947,#773,#774);
#637=AXIS2_PLACEMENT_3D('',#948,#775,#776);
#638=AXIS2_PLACEMENT_3D('',#950,#778,#779);
#639=AXIS2_PLACEMENT_3D('',#951,#780,#781);
#640=AXIS2_PLACEMENT_3D('',#953,#783,#784);
#641=AXIS2_PLACEMENT_3D('',#954,#785,#786);
#642=AXIS2_PLACEMENT_3D('',#955,#787,#788);
#643=AXIS2_PLACEMENT_3D('',#956,#789,#790);
#644=AXIS2_PLACEMENT_3D('',#957,#791,#792);
#645=DIRECTION('',(0.,0.,1.));
#646=DIRECTION('',(1.,0.,0.));
#647=DIRECTION('',(-1.82602471155453E-16,1.,0.));
#648=DIRECTION('',(-1.,-1.82602471155453E-16,0.));
#649=DIRECTION('',(-0.707106781186548,-1.29119445615442E-16,-0.707106781186547));
#650=DIRECTION('',(0.,0.,-1.));
#651=DIRECTION('',(-1.,-1.82602471155453E-16,0.));
#652=DIRECTION('',(0.,0.,1.));
#653=DIRECTION('',(0.707106781186548,1.29119445615442E-16,-0.707106781186547));
#654=DIRECTION('',(-1.,-1.82602471155453E-16,0.));
#655=DIRECTION('',(-0.866025403784439,-1.58138378814438E-16,0.5));
#656=DIRECTION('',(-1.82602471155453E-16,1.,0.));
#657=DIRECTION('',(-1.,-1.82602471155453E-16,0.));
#658=DIRECTION('',(0.866025403784439,0.,0.5));
#659=DIRECTION('',(0.,1.,0.));
#660=DIRECTION('',(0.,0.,1.));
#661=DIRECTION('',(1.,0.,0.));
#662=DIRECTION('',(-0.707106781186548,0.,-0.707106781186547));
#663=DIRECTION('',(0.,0.,-1.));
#664=DIRECTION('',(1.,0.,0.));
#665=DIRECTION('',(0.,0.,-1.));
#666=DIRECTION('',(0.707106781186548,0.,-0.707106781186547));
#667=DIRECTION('',(-0.866025403784439,0.,0.5));
#668=DIRECTION('',(0.,1.,0.));
#669=DIRECTION('',(0.,0.,1.));
#670=DIRECTION('',(0.866025403784439,0.,0.5));
#671=DIRECTION('',(0.,1.,0.));
#672=DIRECTION('',(0.,0.,1.));
#673=DIRECTION('',(0.,1.,0.));
#674=DIRECTION('',(0.,-1.,0.));
#675=DIRECTION('',(0.,1.,0.));
#676=DIRECTION('',(0.,0.,1.));
#677=DIRECTION('',(0.,1.,0.));
#678=DIRECTION('',(0.,0.,1.));
#679=DIRECTION('',(0.,1.,0.));
#680=DIRECTION('',(0.,-1.,0.));
#681=DIRECTION('',(-1.82602471155453E-16,1.,0.));
#682=DIRECTION('',(-1.,-1.82602471155453E-16,0.));
#683=DIRECTION('',(0.,0.,1.));
#684=DIRECTION('',(1.,0.,0.));
#685=DIRECTION('',(-1.5770213417971E-16,1.,0.));
#686=DIRECTION('',(1.,0.,0.));
#687=DIRECTION('',(-1.5770213417971E-16,1.,0.));
#688=DIRECTION('',(-1.44560289664734E-16,-1.,0.));
#689=DIRECTION('',(1.,0.,0.));
#690=DIRECTION('',(-1.44560289664734E-16,-1.,0.));
#691=DIRECTION('',(1.,0.,0.));
#692=DIRECTION('',(0.,0.,1.));
#693=DIRECTION('',(1.,0.,0.));
#694=DIRECTION('',(0.,0.,1.));
#695=DIRECTION('',(1.,0.,0.));
#696=DIRECTION('',(0.,0.,1.));
#697=DIRECTION('',(1.,0.,0.));
#698=DIRECTION('',(1.,1.5770213417971E-16,0.));
#699=DIRECTION('',(-1.5770213417971E-16,1.,0.));
#700=DIRECTION('',(-1.5770213417971E-16,1.,0.));
#701=DIRECTION('',(0.,0.,-1.));
#702=DIRECTION('',(-1.5770213417971E-16,1.,0.));
#703=DIRECTION('',(0.,0.,1.));
#704=DIRECTION('',(-1.5770213417971E-16,1.,0.));
#705=DIRECTION('',(0.,0.,-1.));
#706=DIRECTION('',(1.,1.5770213417971E-16,0.));
#707=DIRECTION('',(-1.5770213417971E-16,1.,0.));
#708=DIRECTION('',(-1.5770213417971E-16,1.,0.));
#709=DIRECTION('',(0.,0.,1.));
#710=DIRECTION('',(1.5770213417971E-16,-1.,0.));
#711=DIRECTION('',(0.,0.,-1.));
#712=DIRECTION('',(1.5770213417971E-16,-1.,0.));
#713=DIRECTION('',(0.,0.,-1.));
#714=DIRECTION('',(-1.82602471155453E-16,1.,0.));
#715=DIRECTION('',(-1.,-1.82602471155453E-16,0.));
#716=DIRECTION('',(0.866025403784439,1.58138378814438E-16,0.5));
#717=DIRECTION('',(-0.866025403784439,0.,0.5));
#718=DIRECTION('',(-1.,-1.82602471155453E-16,0.));
#719=DIRECTION('',(0.,0.,1.));
#720=DIRECTION('',(0.707106781186548,1.29119445615442E-16,0.707106781186547));
#721=DIRECTION('',(-1.,-1.82602471155453E-16,0.));
#722=DIRECTION('',(-0.707106781186548,-1.29119445615442E-16,0.707106781186547));
#723=DIRECTION('',(0.,0.,-1.));
#724=DIRECTION('',(0.,0.,1.));
#725=DIRECTION('',(1.,0.,0.));
#726=DIRECTION('',(0.707106781186548,0.707106781186547,0.));
#727=DIRECTION('',(-0.707106781186548,0.707106781186547,0.));
#728=DIRECTION('',(-0.707106781186547,-0.707106781186548,0.));
#729=DIRECTION('',(0.707106781186547,-0.707106781186548,0.));
#730=DIRECTION('',(0.,0.,1.));
#731=DIRECTION('',(1.,0.,0.));
#732=DIRECTION('',(1.5770213417971E-16,-1.,0.));
#733=DIRECTION('',(-1.5770213417971E-16,1.,0.));
#734=DIRECTION('',(0.,1.,0.));
#735=DIRECTION('',(0.,0.,1.));
#736=DIRECTION('',(0.866025403784439,0.,0.5));
#737=DIRECTION('',(-0.866025403784439,0.,0.5));
#738=DIRECTION('',(0.707106781186548,0.,0.707106781186547));
#739=DIRECTION('',(1.,0.,0.));
#740=DIRECTION('',(-0.707106781186548,0.,0.707106781186547));
#741=DIRECTION('',(0.,0.,1.));
#742=DIRECTION('',(1.,0.,0.));
#743=DIRECTION('',(1.5770213417971E-16,-1.,0.));
#744=DIRECTION('',(-1.5770213417971E-16,1.,0.));
#745=DIRECTION('',(-0.707106781186547,-1.11512248486063E-16,0.707106781186548));
#746=DIRECTION('',(1.5770213417971E-16,-1.,0.));
#747=DIRECTION('',(-0.577350269189626,-0.577350269189625,-0.577350269189626));
#748=DIRECTION('',(-0.707106781186547,-1.11512248486063E-16,0.707106781186548));
#749=DIRECTION('',(1.5770213417971E-16,-1.,0.));
#750=DIRECTION('',(-0.577350269189626,0.577350269189627,-0.577350269189625));
#751=DIRECTION('',(-0.707106781186547,-1.11512248486063E-16,-0.707106781186548));
#752=DIRECTION('',(-1.5770213417971E-16,1.,0.));
#753=DIRECTION('',(-0.577350269189626,0.577350269189626,0.577350269189625));
#754=DIRECTION('',(-0.707106781186547,-1.11512248486063E-16,-0.707106781186548));
#755=DIRECTION('',(-1.5770213417971E-16,1.,0.));
#756=DIRECTION('',(-0.577350269189626,-0.577350269189627,0.577350269189625));
#757=DIRECTION('',(0.,-1.,0.));
#758=DIRECTION('',(0.,0.,-1.));
#759=DIRECTION('',(0.,0.,1.));
#760=DIRECTION('',(1.,0.,0.));
#761=DIRECTION('',(0.,0.,1.));
#762=DIRECTION('',(-1.,1.44560289664734E-16,0.));
#763=DIRECTION('',(-1.44560289664734E-16,-1.,0.));
#764=DIRECTION('',(0.,0.,1.));
#765=DIRECTION('',(-1.44560289664734E-16,-1.,0.));
#766=DIRECTION('',(0.,-1.,0.));
#767=DIRECTION('',(0.,0.,-1.));
#768=DIRECTION('',(0.,0.,1.));
#769=DIRECTION('',(1.,0.,0.));
#770=DIRECTION('',(-1.,1.44560289664734E-16,0.));
#771=DIRECTION('',(-1.44560289664734E-16,-1.,0.));
#772=DIRECTION('',(-1.44560289664734E-16,-1.,0.));
#773=DIRECTION('',(0.,0.,1.));
#774=DIRECTION('',(1.,0.,0.));
#775=DIRECTION('',(0.5,0.,-0.866025403784439));
#776=DIRECTION('',(-0.866025403784439,0.,-0.5));
#777=DIRECTION('',(0.,1.,0.));
#778=DIRECTION('',(-0.5,0.,-0.866025403784439));
#779=DIRECTION('',(-0.866025403784439,0.,0.5));
#780=DIRECTION('',(0.5,0.,-0.866025403784439));
#781=DIRECTION('',(-0.866025403784439,0.,-0.5));
#782=DIRECTION('',(0.,1.,0.));
#783=DIRECTION('',(-0.5,0.,-0.866025403784439));
#784=DIRECTION('',(-0.866025403784439,0.,0.5));
#785=DIRECTION('',(-0.707106781186547,0.707106781186548,0.));
#786=DIRECTION('',(0.,0.,-1.));
#787=DIRECTION('',(-0.707106781186547,-0.707106781186548,0.));
#788=DIRECTION('',(0.,0.,1.));
#789=DIRECTION('',(0.707106781186548,0.707106781186547,0.));
#790=DIRECTION('',(0.,0.,1.));
#791=DIRECTION('',(0.707106781186548,-0.707106781186547,0.));
#792=DIRECTION('',(0.,0.,-1.));
#793=CARTESIAN_POINT('',(0.,0.,0.));
#794=CARTESIAN_POINT('',(1.7347234759768E-18,-0.0095,-0.005));
#795=CARTESIAN_POINT('',(-0.0095,-0.0095,0.022));
#796=CARTESIAN_POINT('',(-0.0065,-0.0095,0.025));
#797=CARTESIAN_POINT('',(-0.0075,-0.0095,0.024));
#798=CARTESIAN_POINT('',(-0.0075,-0.0095,-0.005));
#799=CARTESIAN_POINT('',(-0.0075,-0.0095,-0.005));
#800=CARTESIAN_POINT('',(1.7347234759768E-18,-0.0095,-0.005));
#801=CARTESIAN_POINT('',(0.0075,-0.0095,-0.005));
#802=CARTESIAN_POINT('',(0.0075,-0.0095,0.022));
#803=CARTESIAN_POINT('',(0.0075,-0.0095,0.024));
#804=CARTESIAN_POINT('',(0.0065,-0.0095,0.025));
#805=CARTESIAN_POINT('',(0.0065,-0.0095,0.025));
#806=CARTESIAN_POINT('',(1.7347234759768E-18,-0.0095,0.025));
#807=CARTESIAN_POINT('',(0.0118923048454133,-0.0095,0.0155980762113533));
#808=CARTESIAN_POINT('',(0.00150006174922277,-0.00949861481331936,0.0215981837027719));
#809=CARTESIAN_POINT('',(-2.16840434497101E-18,-0.0095,0.0224641016151377));
#810=CARTESIAN_POINT('',(0.,-0.0095,0.019));
#811=CARTESIAN_POINT('',(-0.00150130108495965,-0.00949935835749705,0.0215975202243583));
#812=CARTESIAN_POINT('',(-0.0015,-0.0095,0.0215980762113533));
#813=CARTESIAN_POINT('',(0.,0.0055,0.025));
#814=CARTESIAN_POINT('',(0.,0.0055,0.025));
#815=CARTESIAN_POINT('',(-0.0065,0.0055,0.025));
#816=CARTESIAN_POINT('',(0.0065,0.0055,0.025));
#817=CARTESIAN_POINT('',(-0.0095,0.0055,0.022));
#818=CARTESIAN_POINT('',(-0.0095,0.0055,0.022));
#819=CARTESIAN_POINT('',(-0.0095,0.0055,0.025));
#820=CARTESIAN_POINT('',(-0.0095,0.0055,0.));
#821=CARTESIAN_POINT('',(0.,0.0055,0.));
#822=CARTESIAN_POINT('',(0.0095,0.0055,0.));
#823=CARTESIAN_POINT('',(0.0095,0.0055,0.025));
#824=CARTESIAN_POINT('',(0.0095,0.0055,0.022));
#825=CARTESIAN_POINT('',(0.0065,0.0055,0.025));
#826=CARTESIAN_POINT('',(-0.00109807621135332,0.0055,0.0230980762113533));
#827=CARTESIAN_POINT('',(0.00150006174927728,0.00550138518668106,0.0215981837028249));
#828=CARTESIAN_POINT('',(2.71050543121376E-19,0.0055,0.0224641016151377));
#829=CARTESIAN_POINT('',(0.,0.0055,0.019));
#830=CARTESIAN_POINT('',(-0.00150130124826919,0.00550064149444749,0.0215975201424666));
#831=CARTESIAN_POINT('',(-0.0015,0.0055,0.0215980762113533));
#832=CARTESIAN_POINT('',(0.,-0.009502,0.019));
#833=CARTESIAN_POINT('',(-0.0015,-0.009497,0.0215980762113533));
#834=CARTESIAN_POINT('',(-0.0015000702317487,-0.00549961221371459,0.0215981984689293));
#835=CARTESIAN_POINT('',(0.0015,-0.009497,0.0215980762113533));
#836=CARTESIAN_POINT('',(0.00150163238375567,-0.00549998616162586,0.0215973786198012));
#837=CARTESIAN_POINT('',(0.,-0.0055,0.019));
#838=CARTESIAN_POINT('',(0.,-0.009502,0.019));
#839=CARTESIAN_POINT('',(-0.0015,0.005503,0.0215980762113533));
#840=CARTESIAN_POINT('',(-0.00150007023181025,0.00950038778628887,0.0215981984689887));
#841=CARTESIAN_POINT('',(0.0015,0.005503,0.0215980762113533));
#842=CARTESIAN_POINT('',(0.00150163235799384,0.0095000137805104,0.0215973786492182));
#843=CARTESIAN_POINT('',(0.,0.0095,0.019));
#844=CARTESIAN_POINT('',(0.,-1.7347234759768E-18,0.));
#845=CARTESIAN_POINT('',(-0.0095,0.,0.));
#846=CARTESIAN_POINT('',(-0.0095,-0.0055,0.));
#847=CARTESIAN_POINT('',(1.7347234759768E-18,-0.0055,0.));
#848=CARTESIAN_POINT('',(0.0095,-0.0055,0.));
#849=CARTESIAN_POINT('',(0.0095,-8.67361737988404E-19,0.));
#850=CARTESIAN_POINT('',(-0.003,0.,0.));
#851=CARTESIAN_POINT('',(-0.003,0.003,0.));
#852=CARTESIAN_POINT('',(-0.003,-0.003,0.));
#853=CARTESIAN_POINT('',(8.67361737988404E-19,0.003,0.));
#854=CARTESIAN_POINT('',(0.003,0.003,0.));
#855=CARTESIAN_POINT('',(0.003,0.,0.));
#856=CARTESIAN_POINT('',(0.003,-0.003,0.));
#857=CARTESIAN_POINT('',(-4.33680868994202E-19,-0.003,0.));
#858=CARTESIAN_POINT('',(0.,1.22464679914735E-19,-0.005));
#859=CARTESIAN_POINT('',(0.,1.22464679914735E-19,-0.005));
#860=CARTESIAN_POINT('',(0.002,1.22464679914735E-19,-0.005));
#861=CARTESIAN_POINT('',(0.,1.22464679914735E-19,-0.002));
#862=CARTESIAN_POINT('',(0.002,1.22464679914735E-19,-0.002));
#863=CARTESIAN_POINT('',(-0.0095,0.,-0.005));
#864=CARTESIAN_POINT('',(-0.0095,0.0095,0.022));
#865=CARTESIAN_POINT('',(-0.0095,0.0075,0.022));
#866=CARTESIAN_POINT('',(-0.0095,0.0075,-0.005));
#867=CARTESIAN_POINT('',(-0.0095,0.0075,-0.005));
#868=CARTESIAN_POINT('',(-0.0095,0.,-0.005));
#869=CARTESIAN_POINT('',(-0.0095,-0.0075,-0.005));
#870=CARTESIAN_POINT('',(-0.0095,-0.0075,-0.005));
#871=CARTESIAN_POINT('',(-0.0095,-0.0075,0.022));
#872=CARTESIAN_POINT('',(-0.0095,-0.0055,0.022));
#873=CARTESIAN_POINT('',(-0.0095,-0.0055,0.022));
#874=CARTESIAN_POINT('',(-0.0095,-0.0055,0.025));
#875=CARTESIAN_POINT('',(0.0095,-8.67361737988404E-19,-0.005));
#876=CARTESIAN_POINT('',(0.0095,-8.67361737988404E-19,-0.005));
#877=CARTESIAN_POINT('',(0.0095,-0.0075,-0.005));
#878=CARTESIAN_POINT('',(0.0095,0.0075,-0.005));
#879=CARTESIAN_POINT('',(0.0095,0.0075,-0.005));
#880=CARTESIAN_POINT('',(0.0095,0.0075,0.022));
#881=CARTESIAN_POINT('',(0.0095,-8.67361737988404E-19,0.022));
#882=CARTESIAN_POINT('',(0.0095,-0.0055,0.025));
#883=CARTESIAN_POINT('',(0.0095,-0.0055,0.022));
#884=CARTESIAN_POINT('',(0.0095,-8.67361737988404E-19,0.022));
#885=CARTESIAN_POINT('',(0.0095,-0.0075,0.022));
#886=CARTESIAN_POINT('',(0.0095,-0.0075,-0.005));
#887=CARTESIAN_POINT('',(-1.7347234759768E-18,0.0095,-0.005));
#888=CARTESIAN_POINT('',(-0.0015,0.0095,0.0215980762113533));
#889=CARTESIAN_POINT('',(-5.96311194867027E-19,0.0095,0.0224641016151377));
#890=CARTESIAN_POINT('',(0.0015,0.0095,0.0215980762113533));
#891=CARTESIAN_POINT('',(-1.7347234759768E-18,0.0095,-0.005));
#892=CARTESIAN_POINT('',(0.0075,0.0095,-0.005));
#893=CARTESIAN_POINT('',(-0.0075,0.0095,-0.005));
#894=CARTESIAN_POINT('',(-0.0075,0.0095,0.022));
#895=CARTESIAN_POINT('',(-0.0075,0.0095,0.024));
#896=CARTESIAN_POINT('',(-0.01825,0.0095,0.01325));
#897=CARTESIAN_POINT('',(-0.0065,0.0095,0.025));
#898=CARTESIAN_POINT('',(-1.7347234759768E-18,0.0095,0.025));
#899=CARTESIAN_POINT('',(0.0065,0.0095,0.025));
#900=CARTESIAN_POINT('',(0.01825,0.0095,0.01325));
#901=CARTESIAN_POINT('',(0.0075,0.0095,0.024));
#902=CARTESIAN_POINT('',(0.0075,0.0095,-0.005));
#903=CARTESIAN_POINT('',(0.,-1.7347234759768E-18,-0.005));
#904=CARTESIAN_POINT('',(-0.0075,0.0095,-0.005));
#905=CARTESIAN_POINT('',(0.0095,0.0075,-0.005));
#906=CARTESIAN_POINT('',(0.0075,-0.0095,-0.005));
#907=CARTESIAN_POINT('',(-0.0095,-0.0075,-0.005));
#908=CARTESIAN_POINT('',(0.,-1.7347234759768E-18,0.025));
#909=CARTESIAN_POINT('',(-0.0065,0.0055,0.025));
#910=CARTESIAN_POINT('',(0.0065,-7.09659603808694E-19,0.025));
#911=CARTESIAN_POINT('',(1.7347234759768E-18,-0.0055,0.025));
#912=CARTESIAN_POINT('',(-0.0015,-0.0055,0.0215980762113533));
#913=CARTESIAN_POINT('',(-4.33680868994202E-19,-0.0055,0.0224641016151377));
#914=CARTESIAN_POINT('',(0.0015,-0.0055,0.0215980762113533));
#915=CARTESIAN_POINT('',(-0.00325,-0.0055,0.02825));
#916=CARTESIAN_POINT('',(-0.0065,-0.0055,0.025));
#917=CARTESIAN_POINT('',(1.7347234759768E-18,-0.0055,0.025));
#918=CARTESIAN_POINT('',(0.0065,-0.0055,0.025));
#919=CARTESIAN_POINT('',(0.00325,-0.0055,0.02825));
#920=CARTESIAN_POINT('',(0.,-1.7347234759768E-18,0.025));
#921=CARTESIAN_POINT('',(-0.0065,-0.0095,0.025));
#922=CARTESIAN_POINT('',(0.0065,-7.09659603808694E-19,0.025));
#923=CARTESIAN_POINT('',(-0.0095,0.,0.022));
#924=CARTESIAN_POINT('',(-0.012,0.005,0.0195));
#925=CARTESIAN_POINT('',(-0.0095,0.,0.022));
#926=CARTESIAN_POINT('',(-0.012,-0.005,0.0195));
#927=CARTESIAN_POINT('',(0.0065,-7.09659603808694E-19,0.025));
#928=CARTESIAN_POINT('',(0.01,0.007,0.0215));
#929=CARTESIAN_POINT('',(0.0065,-7.09659603808694E-19,0.025));
#930=CARTESIAN_POINT('',(0.01,-0.007,0.0215));
#931=CARTESIAN_POINT('',(8.67361737988404E-19,0.003,-0.002));
#932=CARTESIAN_POINT('',(-0.003,0.003,-0.002));
#933=CARTESIAN_POINT('',(-0.003,0.003,-0.002));
#934=CARTESIAN_POINT('',(8.67361737988404E-19,0.003,-0.002));
#935=CARTESIAN_POINT('',(0.003,0.003,-0.002));
#936=CARTESIAN_POINT('',(0.003,0.003,-0.002));
#937=CARTESIAN_POINT('',(-0.003,0.,-0.002));
#938=CARTESIAN_POINT('',(-0.003,-0.003,-0.002));
#939=CARTESIAN_POINT('',(-0.003,-0.003,-0.002));
#940=CARTESIAN_POINT('',(-0.003,0.,-0.002));
#941=CARTESIAN_POINT('',(-4.33680868994202E-19,-0.003,-0.002));
#942=CARTESIAN_POINT('',(0.003,-0.003,-0.002));
#943=CARTESIAN_POINT('',(0.003,-0.003,-0.002));
#944=CARTESIAN_POINT('',(-4.33680868994202E-19,-0.003,-0.002));
#945=CARTESIAN_POINT('',(0.003,0.,-0.002));
#946=CARTESIAN_POINT('',(0.003,0.,-0.002));
#947=CARTESIAN_POINT('',(0.,-1.7347234759768E-18,-0.002));
#948=CARTESIAN_POINT('',(-0.0015,-0.009497,0.0215980762113533));
#949=CARTESIAN_POINT('',(0.,-0.009497,0.0224641016151377));
#950=CARTESIAN_POINT('',(0.0015,-0.009497,0.0215980762113533));
#951=CARTESIAN_POINT('',(-0.0015,0.005503,0.0215980762113533));
#952=CARTESIAN_POINT('',(0.,0.005503,0.0224641016151377));
#953=CARTESIAN_POINT('',(0.0015,0.005503,0.0215980762113533));
#954=CARTESIAN_POINT('',(-0.0075,0.0095,-0.005));
#955=CARTESIAN_POINT('',(0.0095,0.0075,-0.005));
#956=CARTESIAN_POINT('',(-0.0095,-0.0075,-0.005));
#957=CARTESIAN_POINT('',(0.0075,-0.0095,-0.005));
#958=MECHANICAL_DESIGN_GEOMETRIC_PRESENTATION_REPRESENTATION('',(#597),
#959);
#959=(
GEOMETRIC_REPRESENTATION_CONTEXT(3)
GLOBAL_UNCERTAINTY_ASSIGNED_CONTEXT((#960))
GLOBAL_UNIT_ASSIGNED_CONTEXT((#963,#962,#961))
REPRESENTATION_CONTEXT('Tensioner','TOP_LEVEL_ASSEMBLY_PART')
);
#960=UNCERTAINTY_MEASURE_WITH_UNIT(LENGTH_MEASURE(2.6500911962982E-5),#963,
'DISTANCE_ACCURACY_VALUE','Maximum Tolerance applied to model');
#961=(
NAMED_UNIT(*)
SI_UNIT($,.STERADIAN.)
SOLID_ANGLE_UNIT()
);
#962=(
NAMED_UNIT(*)
PLANE_ANGLE_UNIT()
SI_UNIT($,.RADIAN.)
);
#963=(
LENGTH_UNIT()
NAMED_UNIT(*)
SI_UNIT($,.METRE.)
);
#964=PRODUCT_DEFINITION_SHAPE('','',#965);
#965=PRODUCT_DEFINITION('','',#967,#966);
#966=PRODUCT_DEFINITION_CONTEXT('',#973,'design');
#967=PRODUCT_DEFINITION_FORMATION_WITH_SPECIFIED_SOURCE('','',#969,
 .NOT_KNOWN.);
#968=PRODUCT_RELATED_PRODUCT_CATEGORY('','',(#969));
#969=PRODUCT('Tensioner','Tensioner','Tensioner',(#971));
#970=PRODUCT_CATEGORY('','');
#971=PRODUCT_CONTEXT('',#973,'mechanical');
#972=APPLICATION_PROTOCOL_DEFINITION('international standard',
'ap242_managed_model_based_3d_engineering',2020,#973);
#973=APPLICATION_CONTEXT('managed model based 3d engineering');
ENDSEC;
END-ISO-10303-21;
