ISO-10303-21;
HEADER;
/* Generated by software containing ST-Developer
 * from STEP Tools, Inc. (www.steptools.com) 
 */
/* OPTION: using custom renumber hook */

FILE_DESCRIPTION(
/* description */ ('STEP AP242 Edition 2',
'CAx-IF Rec.Pracs.---Representation and Presentation of Product Manufa
cturing Information (PMI)---4.0---2014-10-13',
'CAx-IF Rec.Pracs.---3D Tessellated Geometry---0.4---2014-09-14','2;1',
'CAx-IF Rec.Pracs.---User Defined Attributes---1.5---2016-08-15'),
/* implementation_level */ '2;1');

FILE_NAME(
/* name */ 'Base and Z Axis - IEC Socket Mount',
/* time_stamp */ '2026-01-10T06:34:52Z',
/* author */ (''),
/* organization */ (''),
/* preprocessor_version */ 'ST-DEVELOPER v20',
/* originating_system */ 'ONSHAPE BY PTC INC, 1.209',
/* authorisation */ '  ');

FILE_SCHEMA (('AP242_MANAGED_MODEL_BASED_3D_ENGINEERING_MIM_LF { 1 0 10303 442 3 1 4 }'));
ENDSEC;

DATA;
#10=SHAPE_REPRESENTATION_RELATIONSHIP('','',#504,#11);
#11=ADVANCED_BREP_SHAPE_REPRESENTATION('',(#502),#800);
#12=LINE('',#679,#63);
#13=LINE('',#682,#64);
#14=LINE('',#684,#65);
#15=LINE('',#686,#66);
#16=LINE('',#687,#67);
#17=LINE('',#690,#68);
#18=LINE('',#692,#69);
#19=LINE('',#694,#70);
#20=LINE('',#696,#71);
#21=LINE('',#703,#72);
#22=LINE('',#706,#73);
#23=LINE('',#708,#74);
#24=LINE('',#710,#75);
#25=LINE('',#711,#76);
#26=LINE('',#714,#77);
#27=LINE('',#716,#78);
#28=LINE('',#718,#79);
#29=LINE('',#720,#80);
#30=LINE('',#722,#81);
#31=LINE('',#724,#82);
#32=LINE('',#726,#83);
#33=LINE('',#728,#84);
#34=LINE('',#730,#85);
#35=LINE('',#732,#86);
#36=LINE('',#734,#87);
#37=LINE('',#736,#88);
#38=LINE('',#738,#89);
#39=LINE('',#740,#90);
#40=LINE('',#742,#91);
#41=LINE('',#744,#92);
#42=LINE('',#746,#93);
#43=LINE('',#748,#94);
#44=LINE('',#750,#95);
#45=LINE('',#761,#96);
#46=LINE('',#763,#97);
#47=LINE('',#766,#98);
#48=LINE('',#768,#99);
#49=LINE('',#770,#100);
#50=LINE('',#772,#101);
#51=LINE('',#774,#102);
#52=LINE('',#776,#103);
#53=LINE('',#778,#104);
#54=LINE('',#780,#105);
#55=LINE('',#783,#106);
#56=LINE('',#785,#107);
#57=LINE('',#787,#108);
#58=LINE('',#789,#109);
#59=LINE('',#791,#110);
#60=LINE('',#793,#111);
#61=LINE('',#795,#112);
#62=LINE('',#797,#113);
#63=VECTOR('',#558,1.);
#64=VECTOR('',#559,1.);
#65=VECTOR('',#560,1.);
#66=VECTOR('',#561,1.);
#67=VECTOR('',#562,1.);
#68=VECTOR('',#563,1.);
#69=VECTOR('',#564,1.);
#70=VECTOR('',#565,1.);
#71=VECTOR('',#566,1.);
#72=VECTOR('',#573,1.);
#73=VECTOR('',#574,1.);
#74=VECTOR('',#575,1.);
#75=VECTOR('',#576,1.);
#76=VECTOR('',#577,1.);
#77=VECTOR('',#578,1.);
#78=VECTOR('',#579,1.);
#79=VECTOR('',#580,1.);
#80=VECTOR('',#583,1.);
#81=VECTOR('',#584,1.);
#82=VECTOR('',#585,1.);
#83=VECTOR('',#588,1.);
#84=VECTOR('',#589,1.);
#85=VECTOR('',#592,1.);
#86=VECTOR('',#593,1.);
#87=VECTOR('',#596,1.);
#88=VECTOR('',#597,1.);
#89=VECTOR('',#598,1.);
#90=VECTOR('',#601,1.);
#91=VECTOR('',#602,1.);
#92=VECTOR('',#605,1.);
#93=VECTOR('',#606,1.);
#94=VECTOR('',#609,1.);
#95=VECTOR('',#610,1.);
#96=VECTOR('',#625,1.);
#97=VECTOR('',#628,1.);
#98=VECTOR('',#633,1.);
#99=VECTOR('',#634,1.);
#100=VECTOR('',#635,1.);
#101=VECTOR('',#638,1.);
#102=VECTOR('',#639,1.);
#103=VECTOR('',#642,1.);
#104=VECTOR('',#643,1.);
#105=VECTOR('',#646,1.);
#106=VECTOR('',#651,1.);
#107=VECTOR('',#652,1.);
#108=VECTOR('',#653,1.);
#109=VECTOR('',#656,1.);
#110=VECTOR('',#657,1.);
#111=VECTOR('',#660,1.);
#112=VECTOR('',#661,1.);
#113=VECTOR('',#664,1.);
#114=PLANE('',#512);
#115=PLANE('',#516);
#116=PLANE('',#517);
#117=PLANE('',#518);
#118=PLANE('',#519);
#119=PLANE('',#520);
#120=PLANE('',#521);
#121=PLANE('',#522);
#122=PLANE('',#529);
#123=PLANE('',#530);
#124=PLANE('',#531);
#125=PLANE('',#532);
#126=PLANE('',#533);
#127=PLANE('',#534);
#128=PLANE('',#535);
#129=PLANE('',#536);
#130=PLANE('',#537);
#131=PLANE('',#538);
#132=PLANE('',#539);
#133=PLANE('',#540);
#134=PLANE('',#541);
#135=ORIENTED_EDGE('',*,*,#257,.T.);
#136=ORIENTED_EDGE('',*,*,#258,.T.);
#137=ORIENTED_EDGE('',*,*,#259,.T.);
#138=ORIENTED_EDGE('',*,*,#260,.T.);
#139=ORIENTED_EDGE('',*,*,#261,.T.);
#140=ORIENTED_EDGE('',*,*,#262,.T.);
#141=ORIENTED_EDGE('',*,*,#263,.F.);
#142=ORIENTED_EDGE('',*,*,#264,.F.);
#143=ORIENTED_EDGE('',*,*,#265,.T.);
#144=ORIENTED_EDGE('',*,*,#266,.T.);
#145=ORIENTED_EDGE('',*,*,#267,.T.);
#146=ORIENTED_EDGE('',*,*,#268,.T.);
#147=ORIENTED_EDGE('',*,*,#269,.T.);
#148=ORIENTED_EDGE('',*,*,#270,.T.);
#149=ORIENTED_EDGE('',*,*,#271,.T.);
#150=ORIENTED_EDGE('',*,*,#272,.T.);
#151=ORIENTED_EDGE('',*,*,#273,.T.);
#152=ORIENTED_EDGE('',*,*,#274,.T.);
#153=ORIENTED_EDGE('',*,*,#275,.F.);
#154=ORIENTED_EDGE('',*,*,#276,.F.);
#155=ORIENTED_EDGE('',*,*,#277,.T.);
#156=ORIENTED_EDGE('',*,*,#278,.T.);
#157=ORIENTED_EDGE('',*,*,#279,.F.);
#158=ORIENTED_EDGE('',*,*,#280,.F.);
#159=ORIENTED_EDGE('',*,*,#273,.F.);
#160=ORIENTED_EDGE('',*,*,#281,.F.);
#161=ORIENTED_EDGE('',*,*,#282,.T.);
#162=ORIENTED_EDGE('',*,*,#283,.T.);
#163=ORIENTED_EDGE('',*,*,#276,.T.);
#164=ORIENTED_EDGE('',*,*,#284,.F.);
#165=ORIENTED_EDGE('',*,*,#285,.F.);
#166=ORIENTED_EDGE('',*,*,#281,.T.);
#167=ORIENTED_EDGE('',*,*,#275,.T.);
#168=ORIENTED_EDGE('',*,*,#286,.F.);
#169=ORIENTED_EDGE('',*,*,#287,.F.);
#170=ORIENTED_EDGE('',*,*,#284,.T.);
#171=ORIENTED_EDGE('',*,*,#265,.F.);
#172=ORIENTED_EDGE('',*,*,#288,.F.);
#173=ORIENTED_EDGE('',*,*,#289,.T.);
#174=ORIENTED_EDGE('',*,*,#290,.T.);
#175=ORIENTED_EDGE('',*,*,#269,.F.);
#176=ORIENTED_EDGE('',*,*,#291,.F.);
#177=ORIENTED_EDGE('',*,*,#292,.T.);
#178=ORIENTED_EDGE('',*,*,#288,.T.);
#179=ORIENTED_EDGE('',*,*,#268,.F.);
#180=ORIENTED_EDGE('',*,*,#293,.F.);
#181=ORIENTED_EDGE('',*,*,#294,.T.);
#182=ORIENTED_EDGE('',*,*,#291,.T.);
#183=ORIENTED_EDGE('',*,*,#267,.F.);
#184=ORIENTED_EDGE('',*,*,#295,.F.);
#185=ORIENTED_EDGE('',*,*,#296,.T.);
#186=ORIENTED_EDGE('',*,*,#293,.T.);
#187=ORIENTED_EDGE('',*,*,#297,.T.);
#188=ORIENTED_EDGE('',*,*,#272,.F.);
#189=ORIENTED_EDGE('',*,*,#298,.T.);
#190=ORIENTED_EDGE('',*,*,#271,.F.);
#191=ORIENTED_EDGE('',*,*,#299,.T.);
#192=ORIENTED_EDGE('',*,*,#270,.F.);
#193=ORIENTED_EDGE('',*,*,#266,.F.);
#194=ORIENTED_EDGE('',*,*,#290,.F.);
#195=ORIENTED_EDGE('',*,*,#300,.T.);
#196=ORIENTED_EDGE('',*,*,#295,.T.);
#197=ORIENTED_EDGE('',*,*,#274,.F.);
#198=ORIENTED_EDGE('',*,*,#283,.F.);
#199=ORIENTED_EDGE('',*,*,#301,.T.);
#200=ORIENTED_EDGE('',*,*,#286,.T.);
#201=ORIENTED_EDGE('',*,*,#289,.F.);
#202=ORIENTED_EDGE('',*,*,#292,.F.);
#203=ORIENTED_EDGE('',*,*,#294,.F.);
#204=ORIENTED_EDGE('',*,*,#296,.F.);
#205=ORIENTED_EDGE('',*,*,#300,.F.);
#206=ORIENTED_EDGE('',*,*,#259,.F.);
#207=ORIENTED_EDGE('',*,*,#257,.F.);
#208=ORIENTED_EDGE('',*,*,#299,.F.);
#209=ORIENTED_EDGE('',*,*,#298,.F.);
#210=ORIENTED_EDGE('',*,*,#297,.F.);
#211=ORIENTED_EDGE('',*,*,#282,.F.);
#212=ORIENTED_EDGE('',*,*,#285,.T.);
#213=ORIENTED_EDGE('',*,*,#287,.T.);
#214=ORIENTED_EDGE('',*,*,#301,.F.);
#215=ORIENTED_EDGE('',*,*,#261,.F.);
#216=ORIENTED_EDGE('',*,*,#302,.F.);
#217=ORIENTED_EDGE('',*,*,#303,.T.);
#218=ORIENTED_EDGE('',*,*,#304,.T.);
#219=ORIENTED_EDGE('',*,*,#264,.T.);
#220=ORIENTED_EDGE('',*,*,#305,.F.);
#221=ORIENTED_EDGE('',*,*,#306,.F.);
#222=ORIENTED_EDGE('',*,*,#302,.T.);
#223=ORIENTED_EDGE('',*,*,#263,.T.);
#224=ORIENTED_EDGE('',*,*,#307,.F.);
#225=ORIENTED_EDGE('',*,*,#308,.F.);
#226=ORIENTED_EDGE('',*,*,#305,.T.);
#227=ORIENTED_EDGE('',*,*,#262,.F.);
#228=ORIENTED_EDGE('',*,*,#304,.F.);
#229=ORIENTED_EDGE('',*,*,#309,.T.);
#230=ORIENTED_EDGE('',*,*,#307,.T.);
#231=ORIENTED_EDGE('',*,*,#258,.F.);
#232=ORIENTED_EDGE('',*,*,#303,.F.);
#233=ORIENTED_EDGE('',*,*,#306,.T.);
#234=ORIENTED_EDGE('',*,*,#308,.T.);
#235=ORIENTED_EDGE('',*,*,#309,.F.);
#236=ORIENTED_EDGE('',*,*,#277,.F.);
#237=ORIENTED_EDGE('',*,*,#310,.F.);
#238=ORIENTED_EDGE('',*,*,#311,.T.);
#239=ORIENTED_EDGE('',*,*,#312,.T.);
#240=ORIENTED_EDGE('',*,*,#280,.T.);
#241=ORIENTED_EDGE('',*,*,#313,.F.);
#242=ORIENTED_EDGE('',*,*,#314,.F.);
#243=ORIENTED_EDGE('',*,*,#310,.T.);
#244=ORIENTED_EDGE('',*,*,#279,.T.);
#245=ORIENTED_EDGE('',*,*,#315,.F.);
#246=ORIENTED_EDGE('',*,*,#316,.F.);
#247=ORIENTED_EDGE('',*,*,#313,.T.);
#248=ORIENTED_EDGE('',*,*,#278,.F.);
#249=ORIENTED_EDGE('',*,*,#312,.F.);
#250=ORIENTED_EDGE('',*,*,#317,.T.);
#251=ORIENTED_EDGE('',*,*,#315,.T.);
#252=ORIENTED_EDGE('',*,*,#260,.F.);
#253=ORIENTED_EDGE('',*,*,#311,.F.);
#254=ORIENTED_EDGE('',*,*,#314,.T.);
#255=ORIENTED_EDGE('',*,*,#316,.T.);
#256=ORIENTED_EDGE('',*,*,#317,.F.);
#257=EDGE_CURVE('',#318,#318,#362,.T.);
#258=EDGE_CURVE('',#319,#319,#363,.T.);
#259=EDGE_CURVE('',#320,#320,#364,.T.);
#260=EDGE_CURVE('',#321,#321,#365,.T.);
#261=EDGE_CURVE('',#322,#323,#12,.T.);
#262=EDGE_CURVE('',#323,#324,#13,.T.);
#263=EDGE_CURVE('',#325,#324,#14,.T.);
#264=EDGE_CURVE('',#322,#325,#15,.T.);
#265=EDGE_CURVE('',#326,#327,#16,.T.);
#266=EDGE_CURVE('',#327,#328,#17,.T.);
#267=EDGE_CURVE('',#328,#329,#18,.T.);
#268=EDGE_CURVE('',#329,#330,#19,.T.);
#269=EDGE_CURVE('',#330,#326,#20,.T.);
#270=EDGE_CURVE('',#331,#331,#366,.T.);
#271=EDGE_CURVE('',#332,#332,#367,.T.);
#272=EDGE_CURVE('',#333,#333,#368,.T.);
#273=EDGE_CURVE('',#334,#335,#21,.T.);
#274=EDGE_CURVE('',#335,#336,#22,.T.);
#275=EDGE_CURVE('',#337,#336,#23,.T.);
#276=EDGE_CURVE('',#334,#337,#24,.T.);
#277=EDGE_CURVE('',#338,#339,#25,.T.);
#278=EDGE_CURVE('',#339,#340,#26,.T.);
#279=EDGE_CURVE('',#341,#340,#27,.T.);
#280=EDGE_CURVE('',#338,#341,#28,.T.);
#281=EDGE_CURVE('',#342,#334,#29,.T.);
#282=EDGE_CURVE('',#342,#343,#30,.T.);
#283=EDGE_CURVE('',#343,#335,#31,.T.);
#284=EDGE_CURVE('',#344,#337,#32,.T.);
#285=EDGE_CURVE('',#342,#344,#33,.T.);
#286=EDGE_CURVE('',#345,#336,#34,.T.);
#287=EDGE_CURVE('',#344,#345,#35,.T.);
#288=EDGE_CURVE('',#346,#326,#36,.T.);
#289=EDGE_CURVE('',#346,#347,#37,.T.);
#290=EDGE_CURVE('',#347,#327,#38,.T.);
#291=EDGE_CURVE('',#348,#330,#39,.T.);
#292=EDGE_CURVE('',#348,#346,#40,.T.);
#293=EDGE_CURVE('',#349,#329,#41,.T.);
#294=EDGE_CURVE('',#349,#348,#42,.T.);
#295=EDGE_CURVE('',#350,#328,#43,.T.);
#296=EDGE_CURVE('',#350,#349,#44,.T.);
#297=EDGE_CURVE('',#351,#351,#369,.T.);
#298=EDGE_CURVE('',#352,#352,#370,.T.);
#299=EDGE_CURVE('',#353,#353,#371,.T.);
#300=EDGE_CURVE('',#347,#350,#45,.T.);
#301=EDGE_CURVE('',#343,#345,#46,.T.);
#302=EDGE_CURVE('',#354,#322,#47,.T.);
#303=EDGE_CURVE('',#354,#355,#48,.T.);
#304=EDGE_CURVE('',#355,#323,#49,.T.);
#305=EDGE_CURVE('',#356,#325,#50,.T.);
#306=EDGE_CURVE('',#354,#356,#51,.T.);
#307=EDGE_CURVE('',#357,#324,#52,.T.);
#308=EDGE_CURVE('',#356,#357,#53,.T.);
#309=EDGE_CURVE('',#355,#357,#54,.T.);
#310=EDGE_CURVE('',#358,#338,#55,.T.);
#311=EDGE_CURVE('',#358,#359,#56,.T.);
#312=EDGE_CURVE('',#359,#339,#57,.T.);
#313=EDGE_CURVE('',#360,#341,#58,.T.);
#314=EDGE_CURVE('',#358,#360,#59,.T.);
#315=EDGE_CURVE('',#361,#340,#60,.T.);
#316=EDGE_CURVE('',#360,#361,#61,.T.);
#317=EDGE_CURVE('',#359,#361,#62,.T.);
#318=VERTEX_POINT('',#670);
#319=VERTEX_POINT('',#672);
#320=VERTEX_POINT('',#675);
#321=VERTEX_POINT('',#677);
#322=VERTEX_POINT('',#680);
#323=VERTEX_POINT('',#681);
#324=VERTEX_POINT('',#683);
#325=VERTEX_POINT('',#685);
#326=VERTEX_POINT('',#688);
#327=VERTEX_POINT('',#689);
#328=VERTEX_POINT('',#691);
#329=VERTEX_POINT('',#693);
#330=VERTEX_POINT('',#695);
#331=VERTEX_POINT('',#698);
#332=VERTEX_POINT('',#700);
#333=VERTEX_POINT('',#702);
#334=VERTEX_POINT('',#704);
#335=VERTEX_POINT('',#705);
#336=VERTEX_POINT('',#707);
#337=VERTEX_POINT('',#709);
#338=VERTEX_POINT('',#712);
#339=VERTEX_POINT('',#713);
#340=VERTEX_POINT('',#715);
#341=VERTEX_POINT('',#717);
#342=VERTEX_POINT('',#721);
#343=VERTEX_POINT('',#723);
#344=VERTEX_POINT('',#727);
#345=VERTEX_POINT('',#731);
#346=VERTEX_POINT('',#735);
#347=VERTEX_POINT('',#737);
#348=VERTEX_POINT('',#741);
#349=VERTEX_POINT('',#745);
#350=VERTEX_POINT('',#749);
#351=VERTEX_POINT('',#753);
#352=VERTEX_POINT('',#756);
#353=VERTEX_POINT('',#759);
#354=VERTEX_POINT('',#767);
#355=VERTEX_POINT('',#769);
#356=VERTEX_POINT('',#773);
#357=VERTEX_POINT('',#777);
#358=VERTEX_POINT('',#784);
#359=VERTEX_POINT('',#786);
#360=VERTEX_POINT('',#790);
#361=VERTEX_POINT('',#794);
#362=CIRCLE('',#507,0.002);
#363=CIRCLE('',#508,0.002);
#364=CIRCLE('',#510,0.002);
#365=CIRCLE('',#511,0.002);
#366=CIRCLE('',#513,0.003);
#367=CIRCLE('',#514,0.003);
#368=CIRCLE('',#515,0.003);
#369=CIRCLE('',#524,0.003);
#370=CIRCLE('',#526,0.003);
#371=CIRCLE('',#528,0.003);
#372=EDGE_LOOP('',(#135));
#373=EDGE_LOOP('',(#136));
#374=EDGE_LOOP('',(#137));
#375=EDGE_LOOP('',(#138));
#376=EDGE_LOOP('',(#139,#140,#141,#142));
#377=EDGE_LOOP('',(#143,#144,#145,#146,#147));
#378=EDGE_LOOP('',(#148));
#379=EDGE_LOOP('',(#149));
#380=EDGE_LOOP('',(#150));
#381=EDGE_LOOP('',(#151,#152,#153,#154));
#382=EDGE_LOOP('',(#155,#156,#157,#158));
#383=EDGE_LOOP('',(#159,#160,#161,#162));
#384=EDGE_LOOP('',(#163,#164,#165,#166));
#385=EDGE_LOOP('',(#167,#168,#169,#170));
#386=EDGE_LOOP('',(#171,#172,#173,#174));
#387=EDGE_LOOP('',(#175,#176,#177,#178));
#388=EDGE_LOOP('',(#179,#180,#181,#182));
#389=EDGE_LOOP('',(#183,#184,#185,#186));
#390=EDGE_LOOP('',(#187));
#391=EDGE_LOOP('',(#188));
#392=EDGE_LOOP('',(#189));
#393=EDGE_LOOP('',(#190));
#394=EDGE_LOOP('',(#191));
#395=EDGE_LOOP('',(#192));
#396=EDGE_LOOP('',(#193,#194,#195,#196));
#397=EDGE_LOOP('',(#197,#198,#199,#200));
#398=EDGE_LOOP('',(#201,#202,#203,#204,#205));
#399=EDGE_LOOP('',(#206));
#400=EDGE_LOOP('',(#207));
#401=EDGE_LOOP('',(#208));
#402=EDGE_LOOP('',(#209));
#403=EDGE_LOOP('',(#210));
#404=EDGE_LOOP('',(#211,#212,#213,#214));
#405=EDGE_LOOP('',(#215,#216,#217,#218));
#406=EDGE_LOOP('',(#219,#220,#221,#222));
#407=EDGE_LOOP('',(#223,#224,#225,#226));
#408=EDGE_LOOP('',(#227,#228,#229,#230));
#409=EDGE_LOOP('',(#231));
#410=EDGE_LOOP('',(#232,#233,#234,#235));
#411=EDGE_LOOP('',(#236,#237,#238,#239));
#412=EDGE_LOOP('',(#240,#241,#242,#243));
#413=EDGE_LOOP('',(#244,#245,#246,#247));
#414=EDGE_LOOP('',(#248,#249,#250,#251));
#415=EDGE_LOOP('',(#252));
#416=EDGE_LOOP('',(#253,#254,#255,#256));
#417=FACE_BOUND('',#372,.T.);
#418=FACE_BOUND('',#373,.T.);
#419=FACE_BOUND('',#374,.T.);
#420=FACE_BOUND('',#375,.T.);
#421=FACE_BOUND('',#376,.T.);
#422=FACE_BOUND('',#377,.T.);
#423=FACE_BOUND('',#378,.T.);
#424=FACE_BOUND('',#379,.T.);
#425=FACE_BOUND('',#380,.T.);
#426=FACE_BOUND('',#381,.T.);
#427=FACE_BOUND('',#382,.T.);
#428=FACE_BOUND('',#383,.T.);
#429=FACE_BOUND('',#384,.T.);
#430=FACE_BOUND('',#385,.T.);
#431=FACE_BOUND('',#386,.T.);
#432=FACE_BOUND('',#387,.T.);
#433=FACE_BOUND('',#388,.T.);
#434=FACE_BOUND('',#389,.T.);
#435=FACE_BOUND('',#390,.T.);
#436=FACE_BOUND('',#391,.T.);
#437=FACE_BOUND('',#392,.T.);
#438=FACE_BOUND('',#393,.T.);
#439=FACE_BOUND('',#394,.T.);
#440=FACE_BOUND('',#395,.T.);
#441=FACE_BOUND('',#396,.T.);
#442=FACE_BOUND('',#397,.T.);
#443=FACE_BOUND('',#398,.T.);
#444=FACE_BOUND('',#399,.T.);
#445=FACE_BOUND('',#400,.T.);
#446=FACE_BOUND('',#401,.T.);
#447=FACE_BOUND('',#402,.T.);
#448=FACE_BOUND('',#403,.T.);
#449=FACE_BOUND('',#404,.T.);
#450=FACE_BOUND('',#405,.T.);
#451=FACE_BOUND('',#406,.T.);
#452=FACE_BOUND('',#407,.T.);
#453=FACE_BOUND('',#408,.T.);
#454=FACE_BOUND('',#409,.T.);
#455=FACE_BOUND('',#410,.T.);
#456=FACE_BOUND('',#411,.T.);
#457=FACE_BOUND('',#412,.T.);
#458=FACE_BOUND('',#413,.T.);
#459=FACE_BOUND('',#414,.T.);
#460=FACE_BOUND('',#415,.T.);
#461=FACE_BOUND('',#416,.T.);
#462=CYLINDRICAL_SURFACE('',#506,0.002);
#463=CYLINDRICAL_SURFACE('',#509,0.002);
#464=CYLINDRICAL_SURFACE('',#523,0.003);
#465=CYLINDRICAL_SURFACE('',#525,0.003);
#466=CYLINDRICAL_SURFACE('',#527,0.003);
#467=ADVANCED_FACE('',(#417,#418),#462,.F.);
#468=ADVANCED_FACE('',(#419,#420),#463,.F.);
#469=ADVANCED_FACE('',(#421,#422,#423,#424,#425,#426,#427),#114,.F.);
#470=ADVANCED_FACE('',(#428),#115,.T.);
#471=ADVANCED_FACE('',(#429),#116,.F.);
#472=ADVANCED_FACE('',(#430),#117,.F.);
#473=ADVANCED_FACE('',(#431),#118,.T.);
#474=ADVANCED_FACE('',(#432),#119,.T.);
#475=ADVANCED_FACE('',(#433),#120,.T.);
#476=ADVANCED_FACE('',(#434),#121,.T.);
#477=ADVANCED_FACE('',(#435,#436),#464,.F.);
#478=ADVANCED_FACE('',(#437,#438),#465,.F.);
#479=ADVANCED_FACE('',(#439,#440),#466,.F.);
#480=ADVANCED_FACE('',(#441),#122,.T.);
#481=ADVANCED_FACE('',(#442),#123,.T.);
#482=ADVANCED_FACE('',(#443,#444,#445,#446,#447,#448,#449),#124,.T.);
#483=ADVANCED_FACE('',(#450),#125,.T.);
#484=ADVANCED_FACE('',(#451),#126,.F.);
#485=ADVANCED_FACE('',(#452),#127,.F.);
#486=ADVANCED_FACE('',(#453),#128,.T.);
#487=ADVANCED_FACE('',(#454,#455),#129,.T.);
#488=ADVANCED_FACE('',(#456),#130,.T.);
#489=ADVANCED_FACE('',(#457),#131,.F.);
#490=ADVANCED_FACE('',(#458),#132,.F.);
#491=ADVANCED_FACE('',(#459),#133,.T.);
#492=ADVANCED_FACE('',(#460,#461),#134,.T.);
#493=CLOSED_SHELL('',(#467,#468,#469,#470,#471,#472,#473,#474,#475,#476,
#477,#478,#479,#480,#481,#482,#483,#484,#485,#486,#487,#488,#489,#490,#491,
#492));
#494=STYLED_ITEM('',(#495),#502);
#495=PRESENTATION_STYLE_ASSIGNMENT((#496));
#496=SURFACE_STYLE_USAGE(.BOTH.,#497);
#497=SURFACE_SIDE_STYLE('',(#498));
#498=SURFACE_STYLE_FILL_AREA(#499);
#499=FILL_AREA_STYLE('',(#500));
#500=FILL_AREA_STYLE_COLOUR('',#501);
#501=COLOUR_RGB('',0.129411764705882,0.341176470588236,0.352941176470589);
#502=MANIFOLD_SOLID_BREP('IEC Socket Mount',#493);
#503=SHAPE_DEFINITION_REPRESENTATION(#805,#504);
#504=SHAPE_REPRESENTATION('IEC Socket Mount',(#505),#800);
#505=AXIS2_PLACEMENT_3D('',#667,#542,#543);
#506=AXIS2_PLACEMENT_3D('',#668,#544,#545);
#507=AXIS2_PLACEMENT_3D('',#669,#546,#547);
#508=AXIS2_PLACEMENT_3D('',#671,#548,#549);
#509=AXIS2_PLACEMENT_3D('',#673,#550,#551);
#510=AXIS2_PLACEMENT_3D('',#674,#552,#553);
#511=AXIS2_PLACEMENT_3D('',#676,#554,#555);
#512=AXIS2_PLACEMENT_3D('',#678,#556,#557);
#513=AXIS2_PLACEMENT_3D('',#697,#567,#568);
#514=AXIS2_PLACEMENT_3D('',#699,#569,#570);
#515=AXIS2_PLACEMENT_3D('',#701,#571,#572);
#516=AXIS2_PLACEMENT_3D('',#719,#581,#582);
#517=AXIS2_PLACEMENT_3D('',#725,#586,#587);
#518=AXIS2_PLACEMENT_3D('',#729,#590,#591);
#519=AXIS2_PLACEMENT_3D('',#733,#594,#595);
#520=AXIS2_PLACEMENT_3D('',#739,#599,#600);
#521=AXIS2_PLACEMENT_3D('',#743,#603,#604);
#522=AXIS2_PLACEMENT_3D('',#747,#607,#608);
#523=AXIS2_PLACEMENT_3D('',#751,#611,#612);
#524=AXIS2_PLACEMENT_3D('',#752,#613,#614);
#525=AXIS2_PLACEMENT_3D('',#754,#615,#616);
#526=AXIS2_PLACEMENT_3D('',#755,#617,#618);
#527=AXIS2_PLACEMENT_3D('',#757,#619,#620);
#528=AXIS2_PLACEMENT_3D('',#758,#621,#622);
#529=AXIS2_PLACEMENT_3D('',#760,#623,#624);
#530=AXIS2_PLACEMENT_3D('',#762,#626,#627);
#531=AXIS2_PLACEMENT_3D('',#764,#629,#630);
#532=AXIS2_PLACEMENT_3D('',#765,#631,#632);
#533=AXIS2_PLACEMENT_3D('',#771,#636,#637);
#534=AXIS2_PLACEMENT_3D('',#775,#640,#641);
#535=AXIS2_PLACEMENT_3D('',#779,#644,#645);
#536=AXIS2_PLACEMENT_3D('',#781,#647,#648);
#537=AXIS2_PLACEMENT_3D('',#782,#649,#650);
#538=AXIS2_PLACEMENT_3D('',#788,#654,#655);
#539=AXIS2_PLACEMENT_3D('',#792,#658,#659);
#540=AXIS2_PLACEMENT_3D('',#796,#662,#663);
#541=AXIS2_PLACEMENT_3D('',#798,#665,#666);
#542=DIRECTION('',(0.,0.,1.));
#543=DIRECTION('',(1.,0.,0.));
#544=DIRECTION('',(0.,-1.,-1.82602471155453E-16));
#545=DIRECTION('',(0.,1.82602471155453E-16,-1.));
#546=DIRECTION('',(0.,1.,1.82602471155453E-16));
#547=DIRECTION('',(0.,-1.82602471155453E-16,1.));
#548=DIRECTION('',(0.,-1.,-1.82602471155453E-16));
#549=DIRECTION('',(0.,1.82602471155453E-16,-1.));
#550=DIRECTION('',(0.,-1.,-1.82602471155453E-16));
#551=DIRECTION('',(0.,1.82602471155453E-16,-1.));
#552=DIRECTION('',(0.,1.,1.82602471155453E-16));
#553=DIRECTION('',(0.,-1.82602471155453E-16,1.));
#554=DIRECTION('',(0.,-1.,-1.82602471155453E-16));
#555=DIRECTION('',(0.,1.82602471155453E-16,-1.));
#556=DIRECTION('',(0.,1.,1.82602471155453E-16));
#557=DIRECTION('',(-1.,0.,0.));
#558=DIRECTION('',(0.,1.82602471155453E-16,-1.));
#559=DIRECTION('',(-1.,0.,0.));
#560=DIRECTION('',(0.,1.82602471155453E-16,-1.));
#561=DIRECTION('',(-1.,0.,0.));
#562=DIRECTION('',(0.,-1.82602471155453E-16,1.));
#563=DIRECTION('',(-0.707106781186547,-1.29119445615442E-16,0.707106781186549));
#564=DIRECTION('',(-1.,0.,0.));
#565=DIRECTION('',(0.,1.82602471155453E-16,-1.));
#566=DIRECTION('',(1.,-2.49460096258072E-47,1.36613757020682E-31));
#567=DIRECTION('',(0.,1.,1.82602471155453E-16));
#568=DIRECTION('',(0.,-1.82602471155453E-16,1.));
#569=DIRECTION('',(0.,1.,1.82602471155453E-16));
#570=DIRECTION('',(0.,-1.82602471155453E-16,1.));
#571=DIRECTION('',(0.,1.,1.82602471155453E-16));
#572=DIRECTION('',(0.,-1.82602471155453E-16,1.));
#573=DIRECTION('',(1.,0.,0.));
#574=DIRECTION('',(0.,1.82602471155453E-16,-1.));
#575=DIRECTION('',(1.,-2.63970661237285E-32,1.44560289664734E-16));
#576=DIRECTION('',(0.,1.82602471155453E-16,-1.));
#577=DIRECTION('',(0.,1.82602471155453E-16,-1.));
#578=DIRECTION('',(-1.,0.,0.));
#579=DIRECTION('',(0.,1.82602471155453E-16,-1.));
#580=DIRECTION('',(-1.,0.,0.));
#581=DIRECTION('',(0.,1.82602471155453E-16,-1.));
#582=DIRECTION('',(0.,1.,1.82602471155453E-16));
#583=DIRECTION('',(0.,-1.,-1.82602471155453E-16));
#584=DIRECTION('',(1.,0.,0.));
#585=DIRECTION('',(0.,-1.,-1.82602471155453E-16));
#586=DIRECTION('',(-1.,0.,0.));
#587=DIRECTION('',(0.,0.,1.));
#588=DIRECTION('',(0.,-1.,-1.82602471155453E-16));
#589=DIRECTION('',(0.,1.82602471155453E-16,-1.));
#590=DIRECTION('',(1.44560289664734E-16,1.82602471155453E-16,-1.));
#591=DIRECTION('',(0.,1.,1.82602471155453E-16));
#592=DIRECTION('',(0.,-1.,-1.82602471155453E-16));
#593=DIRECTION('',(1.,-2.63970661237285E-32,1.44560289664734E-16));
#594=DIRECTION('',(1.,0.,0.));
#595=DIRECTION('',(0.,0.,-1.));
#596=DIRECTION('',(0.,-1.,-1.82602471155453E-16));
#597=DIRECTION('',(0.,-1.82602471155453E-16,1.));
#598=DIRECTION('',(0.,-1.,-1.82602471155453E-16));
#599=DIRECTION('',(1.36613757020682E-31,1.82602471155453E-16,-1.));
#600=DIRECTION('',(0.,1.,1.82602471155453E-16));
#601=DIRECTION('',(0.,-1.,-1.82602471155453E-16));
#602=DIRECTION('',(1.,-2.49460096258072E-47,1.36613757020682E-31));
#603=DIRECTION('',(-1.,0.,0.));
#604=DIRECTION('',(0.,0.,1.));
#605=DIRECTION('',(0.,-1.,-1.82602471155453E-16));
#606=DIRECTION('',(0.,1.82602471155453E-16,-1.));
#607=DIRECTION('',(0.,-1.82602471155453E-16,1.));
#608=DIRECTION('',(0.,-1.,-1.82602471155453E-16));
#609=DIRECTION('',(0.,-1.,-1.82602471155453E-16));
#610=DIRECTION('',(-1.,0.,0.));
#611=DIRECTION('',(0.,-1.,-1.82602471155453E-16));
#612=DIRECTION('',(0.,1.82602471155453E-16,-1.));
#613=DIRECTION('',(0.,1.,1.82602471155453E-16));
#614=DIRECTION('',(0.,-1.82602471155453E-16,1.));
#615=DIRECTION('',(0.,-1.,-1.82602471155453E-16));
#616=DIRECTION('',(0.,1.82602471155453E-16,-1.));
#617=DIRECTION('',(0.,1.,1.82602471155453E-16));
#618=DIRECTION('',(0.,-1.82602471155453E-16,1.));
#619=DIRECTION('',(0.,-1.,-1.82602471155453E-16));
#620=DIRECTION('',(0.,1.82602471155453E-16,-1.));
#621=DIRECTION('',(0.,1.,1.82602471155453E-16));
#622=DIRECTION('',(0.,-1.82602471155453E-16,1.));
#623=DIRECTION('',(0.707106781186549,-1.29119445615442E-16,0.707106781186547));
#624=DIRECTION('',(0.707106781186547,0.,-0.707106781186549));
#625=DIRECTION('',(-0.707106781186547,-1.29119445615442E-16,0.707106781186549));
#626=DIRECTION('',(-1.,0.,0.));
#627=DIRECTION('',(0.,0.,1.));
#628=DIRECTION('',(0.,1.82602471155453E-16,-1.));
#629=DIRECTION('',(0.,1.,1.82602471155453E-16));
#630=DIRECTION('',(-1.,0.,0.));
#631=DIRECTION('',(-1.,0.,0.));
#632=DIRECTION('',(0.,0.,1.));
#633=DIRECTION('',(0.,-1.,-1.82602471155453E-16));
#634=DIRECTION('',(0.,1.82602471155453E-16,-1.));
#635=DIRECTION('',(0.,-1.,-1.82602471155453E-16));
#636=DIRECTION('',(0.,-1.82602471155453E-16,1.));
#637=DIRECTION('',(0.,-1.,-1.82602471155453E-16));
#638=DIRECTION('',(0.,-1.,-1.82602471155453E-16));
#639=DIRECTION('',(-1.,0.,0.));
#640=DIRECTION('',(-1.,0.,0.));
#641=DIRECTION('',(0.,0.,1.));
#642=DIRECTION('',(0.,-1.,-1.82602471155453E-16));
#643=DIRECTION('',(0.,1.82602471155453E-16,-1.));
#644=DIRECTION('',(0.,-1.82602471155453E-16,1.));
#645=DIRECTION('',(0.,-1.,-1.82602471155453E-16));
#646=DIRECTION('',(-1.,0.,0.));
#647=DIRECTION('',(0.,-1.,-1.82602471155453E-16));
#648=DIRECTION('',(1.,0.,0.));
#649=DIRECTION('',(-1.,0.,0.));
#650=DIRECTION('',(0.,0.,1.));
#651=DIRECTION('',(0.,-1.,-1.82602471155453E-16));
#652=DIRECTION('',(0.,1.82602471155453E-16,-1.));
#653=DIRECTION('',(0.,-1.,-1.82602471155453E-16));
#654=DIRECTION('',(0.,-1.82602471155453E-16,1.));
#655=DIRECTION('',(0.,-1.,-1.82602471155453E-16));
#656=DIRECTION('',(0.,-1.,-1.82602471155453E-16));
#657=DIRECTION('',(-1.,0.,0.));
#658=DIRECTION('',(-1.,0.,0.));
#659=DIRECTION('',(0.,0.,1.));
#660=DIRECTION('',(0.,-1.,-1.82602471155453E-16));
#661=DIRECTION('',(0.,1.82602471155453E-16,-1.));
#662=DIRECTION('',(0.,-1.82602471155453E-16,1.));
#663=DIRECTION('',(0.,-1.,-1.82602471155453E-16));
#664=DIRECTION('',(-1.,0.,0.));
#665=DIRECTION('',(0.,-1.,-1.82602471155453E-16));
#666=DIRECTION('',(1.,0.,0.));
#667=CARTESIAN_POINT('',(0.,0.,0.));
#668=CARTESIAN_POINT('',(-0.323,0.395,0.029));
#669=CARTESIAN_POINT('',(-0.323,0.395,0.029));
#670=CARTESIAN_POINT('',(-0.323,0.395,0.031));
#671=CARTESIAN_POINT('',(-0.323,0.392,0.029));
#672=CARTESIAN_POINT('',(-0.323,0.392,0.027));
#673=CARTESIAN_POINT('',(-0.323,0.395,0.069));
#674=CARTESIAN_POINT('',(-0.323,0.395,0.069));
#675=CARTESIAN_POINT('',(-0.323,0.395,0.071));
#676=CARTESIAN_POINT('',(-0.323,0.392,0.069));
#677=CARTESIAN_POINT('',(-0.323,0.392,0.067));
#678=CARTESIAN_POINT('',(-0.18499875,0.39,0.037));
#679=CARTESIAN_POINT('',(-0.32,0.39,0.029));
#680=CARTESIAN_POINT('',(-0.32,0.39,0.032));
#681=CARTESIAN_POINT('',(-0.32,0.39,0.026));
#682=CARTESIAN_POINT('',(-0.323,0.39,0.026));
#683=CARTESIAN_POINT('',(-0.326,0.39,0.026));
#684=CARTESIAN_POINT('',(-0.326,0.39,0.029));
#685=CARTESIAN_POINT('',(-0.326,0.39,0.032));
#686=CARTESIAN_POINT('',(-0.323,0.39,0.032));
#687=CARTESIAN_POINT('',(-0.294,0.39,0.0345));
#688=CARTESIAN_POINT('',(-0.294,0.39,3.01052885111562E-32));
#689=CARTESIAN_POINT('',(-0.294,0.39,0.069));
#690=CARTESIAN_POINT('',(-0.2965,0.39,0.0715));
#691=CARTESIAN_POINT('',(-0.299,0.39,0.074));
#692=CARTESIAN_POINT('',(-0.3345,0.39,0.074));
#693=CARTESIAN_POINT('',(-0.37,0.39,0.074));
#694=CARTESIAN_POINT('',(-0.37,0.39,0.037));
#695=CARTESIAN_POINT('',(-0.37,0.39,1.23371551146689E-33));
#696=CARTESIAN_POINT('',(-0.332,0.39,2.49139657443703E-32));
#697=CARTESIAN_POINT('',(-0.304,0.39,0.01));
#698=CARTESIAN_POINT('',(-0.304,0.39,0.013));
#699=CARTESIAN_POINT('',(-0.36,0.39,0.064));
#700=CARTESIAN_POINT('',(-0.36,0.39,0.067));
#701=CARTESIAN_POINT('',(-0.36,0.39,0.01));
#702=CARTESIAN_POINT('',(-0.36,0.39,0.013));
#703=CARTESIAN_POINT('',(-0.323,0.39,0.063));
#704=CARTESIAN_POINT('',(-0.347,0.39,0.063));
#705=CARTESIAN_POINT('',(-0.299,0.39,0.063));
#706=CARTESIAN_POINT('',(-0.299,0.39,0.049));
#707=CARTESIAN_POINT('',(-0.299,0.39,0.035));
#708=CARTESIAN_POINT('',(-0.323,0.39,0.035));
#709=CARTESIAN_POINT('',(-0.347,0.39,0.035));
#710=CARTESIAN_POINT('',(-0.347,0.39,0.049));
#711=CARTESIAN_POINT('',(-0.32,0.39,0.069));
#712=CARTESIAN_POINT('',(-0.32,0.39,0.072));
#713=CARTESIAN_POINT('',(-0.32,0.39,0.066));
#714=CARTESIAN_POINT('',(-0.323,0.39,0.066));
#715=CARTESIAN_POINT('',(-0.326,0.39,0.066));
#716=CARTESIAN_POINT('',(-0.326,0.39,0.069));
#717=CARTESIAN_POINT('',(-0.326,0.39,0.072));
#718=CARTESIAN_POINT('',(-0.323,0.39,0.072));
#719=CARTESIAN_POINT('',(-0.323,0.395,0.063));
#720=CARTESIAN_POINT('',(-0.347,0.395,0.063));
#721=CARTESIAN_POINT('',(-0.347,0.395,0.063));
#722=CARTESIAN_POINT('',(-0.323,0.395,0.063));
#723=CARTESIAN_POINT('',(-0.299,0.395,0.063));
#724=CARTESIAN_POINT('',(-0.299,0.395,0.063));
#725=CARTESIAN_POINT('',(-0.347,0.395,0.049));
#726=CARTESIAN_POINT('',(-0.347,0.395,0.035));
#727=CARTESIAN_POINT('',(-0.347,0.395,0.035));
#728=CARTESIAN_POINT('',(-0.347,0.395,0.049));
#729=CARTESIAN_POINT('',(-0.323,0.395,0.035));
#730=CARTESIAN_POINT('',(-0.299,0.395,0.035));
#731=CARTESIAN_POINT('',(-0.299,0.395,0.035));
#732=CARTESIAN_POINT('',(-0.323,0.395,0.035));
#733=CARTESIAN_POINT('',(-0.294,0.395,0.0345));
#734=CARTESIAN_POINT('',(-0.294,0.395,9.13012355777295E-19));
#735=CARTESIAN_POINT('',(-0.294,0.395,9.13012355777295E-19));
#736=CARTESIAN_POINT('',(-0.294,0.395,0.0345));
#737=CARTESIAN_POINT('',(-0.294,0.395,0.069));
#738=CARTESIAN_POINT('',(-0.294,0.395,0.069));
#739=CARTESIAN_POINT('',(-0.332,0.395,9.1301235577729E-19));
#740=CARTESIAN_POINT('',(-0.37,0.395,9.13012355777266E-19));
#741=CARTESIAN_POINT('',(-0.37,0.395,9.13012355777266E-19));
#742=CARTESIAN_POINT('',(-0.332,0.395,9.1301235577729E-19));
#743=CARTESIAN_POINT('',(-0.37,0.395,0.037));
#744=CARTESIAN_POINT('',(-0.37,0.395,0.074));
#745=CARTESIAN_POINT('',(-0.37,0.395,0.074));
#746=CARTESIAN_POINT('',(-0.37,0.395,0.037));
#747=CARTESIAN_POINT('',(-0.3345,0.395,0.074));
#748=CARTESIAN_POINT('',(-0.299,0.395,0.074));
#749=CARTESIAN_POINT('',(-0.299,0.395,0.074));
#750=CARTESIAN_POINT('',(-0.3345,0.395,0.074));
#751=CARTESIAN_POINT('',(-0.36,0.395,0.01));
#752=CARTESIAN_POINT('',(-0.36,0.395,0.01));
#753=CARTESIAN_POINT('',(-0.36,0.395,0.013));
#754=CARTESIAN_POINT('',(-0.36,0.395,0.064));
#755=CARTESIAN_POINT('',(-0.36,0.395,0.064));
#756=CARTESIAN_POINT('',(-0.36,0.395,0.067));
#757=CARTESIAN_POINT('',(-0.304,0.395,0.01));
#758=CARTESIAN_POINT('',(-0.304,0.395,0.01));
#759=CARTESIAN_POINT('',(-0.304,0.395,0.013));
#760=CARTESIAN_POINT('',(-0.2965,0.395,0.0715));
#761=CARTESIAN_POINT('',(-0.2965,0.395,0.0715));
#762=CARTESIAN_POINT('',(-0.299,0.395,0.049));
#763=CARTESIAN_POINT('',(-0.299,0.395,0.049));
#764=CARTESIAN_POINT('',(-0.18499875,0.395,0.037));
#765=CARTESIAN_POINT('',(-0.32,0.392,0.029));
#766=CARTESIAN_POINT('',(-0.32,0.392,0.032));
#767=CARTESIAN_POINT('',(-0.32,0.392,0.032));
#768=CARTESIAN_POINT('',(-0.32,0.392,0.029));
#769=CARTESIAN_POINT('',(-0.32,0.392,0.026));
#770=CARTESIAN_POINT('',(-0.32,0.392,0.026));
#771=CARTESIAN_POINT('',(-0.323,0.392,0.032));
#772=CARTESIAN_POINT('',(-0.326,0.392,0.032));
#773=CARTESIAN_POINT('',(-0.326,0.392,0.032));
#774=CARTESIAN_POINT('',(-0.323,0.392,0.032));
#775=CARTESIAN_POINT('',(-0.326,0.392,0.029));
#776=CARTESIAN_POINT('',(-0.326,0.392,0.026));
#777=CARTESIAN_POINT('',(-0.326,0.392,0.026));
#778=CARTESIAN_POINT('',(-0.326,0.392,0.029));
#779=CARTESIAN_POINT('',(-0.323,0.392,0.026));
#780=CARTESIAN_POINT('',(-0.323,0.392,0.026));
#781=CARTESIAN_POINT('',(-0.332,0.392,0.037));
#782=CARTESIAN_POINT('',(-0.32,0.392,0.069));
#783=CARTESIAN_POINT('',(-0.32,0.392,0.072));
#784=CARTESIAN_POINT('',(-0.32,0.392,0.072));
#785=CARTESIAN_POINT('',(-0.32,0.392,0.069));
#786=CARTESIAN_POINT('',(-0.32,0.392,0.066));
#787=CARTESIAN_POINT('',(-0.32,0.392,0.066));
#788=CARTESIAN_POINT('',(-0.323,0.392,0.072));
#789=CARTESIAN_POINT('',(-0.326,0.392,0.072));
#790=CARTESIAN_POINT('',(-0.326,0.392,0.072));
#791=CARTESIAN_POINT('',(-0.323,0.392,0.072));
#792=CARTESIAN_POINT('',(-0.326,0.392,0.069));
#793=CARTESIAN_POINT('',(-0.326,0.392,0.066));
#794=CARTESIAN_POINT('',(-0.326,0.392,0.066));
#795=CARTESIAN_POINT('',(-0.326,0.392,0.069));
#796=CARTESIAN_POINT('',(-0.323,0.392,0.066));
#797=CARTESIAN_POINT('',(-0.323,0.392,0.066));
#798=CARTESIAN_POINT('',(-0.332,0.392,0.037));
#799=MECHANICAL_DESIGN_GEOMETRIC_PRESENTATION_REPRESENTATION('',(#494),
#800);
#800=(
GEOMETRIC_REPRESENTATION_CONTEXT(3)
GLOBAL_UNCERTAINTY_ASSIGNED_CONTEXT((#801))
GLOBAL_UNIT_ASSIGNED_CONTEXT((#804,#803,#802))
REPRESENTATION_CONTEXT('IEC Socket Mount','TOP_LEVEL_ASSEMBLY_PART')
);
#801=UNCERTAINTY_MEASURE_WITH_UNIT(LENGTH_MEASURE(1.E-8),#804,
'DISTANCE_ACCURACY_VALUE','Maximum Tolerance applied to model');
#802=(
NAMED_UNIT(*)
SI_UNIT($,.STERADIAN.)
SOLID_ANGLE_UNIT()
);
#803=(
NAMED_UNIT(*)
PLANE_ANGLE_UNIT()
SI_UNIT($,.RADIAN.)
);
#804=(
LENGTH_UNIT()
NAMED_UNIT(*)
SI_UNIT($,.METRE.)
);
#805=PRODUCT_DEFINITION_SHAPE('','',#806);
#806=PRODUCT_DEFINITION('','',#808,#807);
#807=PRODUCT_DEFINITION_CONTEXT('',#814,'design');
#808=PRODUCT_DEFINITION_FORMATION_WITH_SPECIFIED_SOURCE('','',#810,
 .NOT_KNOWN.);
#809=PRODUCT_RELATED_PRODUCT_CATEGORY('','',(#810));
#810=PRODUCT('IEC Socket Mount','IEC Socket Mount','IEC Socket Mount',(#812));
#811=PRODUCT_CATEGORY('','');
#812=PRODUCT_CONTEXT('',#814,'mechanical');
#813=APPLICATION_PROTOCOL_DEFINITION('international standard',
'ap242_managed_model_based_3d_engineering',2020,#814);
#814=APPLICATION_CONTEXT('managed model based 3d engineering');
ENDSEC;
END-ISO-10303-21;
