ISO-10303-21;
HEADER;
/* Generated by software containing ST-Developer
 * from STEP Tools, Inc. (www.steptools.com) 
 */
/* OPTION: using custom renumber hook */

FILE_DESCRIPTION(
/* description */ ('STEP AP242 Edition 2',
'CAx-IF Rec.Pracs.---Representation and Presentation of Product Manufa
cturing Information (PMI)---4.0---2014-10-13',
'CAx-IF Rec.Pracs.---3D Tessellated Geometry---0.4---2014-09-14','2;1',
'CAx-IF Rec.Pracs.---User Defined Attributes---1.5---2016-08-15'),
/* implementation_level */ '2;1');

FILE_NAME(
/* name */ '6961f6a346b9ae42405d00dd',
/* time_stamp */ '2026-01-10T06:50:11Z',
/* author */ (''),
/* organization */ (''),
/* preprocessor_version */ 'ST-DEVELOPER v20',
/* originating_system */ 'ONSHAPE BY PTC INC, 1.209',
/* authorisation */ '  ');

FILE_SCHEMA (('AP242_MANAGED_MODEL_BASED_3D_ENGINEERING_MIM_LF { 1 0 10303 442 3 1 4 }'));
ENDSEC;

DATA;
#10=SHAPE_REPRESENTATION_RELATIONSHIP('','',#477,#11);
#11=ADVANCED_BREP_SHAPE_REPRESENTATION('',(#475),#759);
#12=CYLINDRICAL_SURFACE('',#482,0.00275);
#13=CYLINDRICAL_SURFACE('',#484,0.00275);
#14=CYLINDRICAL_SURFACE('',#489,0.00275);
#15=CYLINDRICAL_SURFACE('',#491,0.00275);
#16=CIRCLE('',#480,0.00275);
#17=CIRCLE('',#481,0.00275);
#18=CIRCLE('',#483,0.00275);
#19=CIRCLE('',#485,0.00275);
#20=CIRCLE('',#487,0.00275);
#21=CIRCLE('',#488,0.00275);
#22=CIRCLE('',#490,0.00275);
#23=CIRCLE('',#492,0.00275);
#24=ORIENTED_EDGE('',*,*,#148,.F.);
#25=ORIENTED_EDGE('',*,*,#149,.F.);
#26=ORIENTED_EDGE('',*,*,#150,.T.);
#27=ORIENTED_EDGE('',*,*,#151,.T.);
#28=ORIENTED_EDGE('',*,*,#152,.F.);
#29=ORIENTED_EDGE('',*,*,#153,.F.);
#30=ORIENTED_EDGE('',*,*,#154,.T.);
#31=ORIENTED_EDGE('',*,*,#155,.F.);
#32=ORIENTED_EDGE('',*,*,#156,.F.);
#33=ORIENTED_EDGE('',*,*,#157,.T.);
#34=ORIENTED_EDGE('',*,*,#158,.F.);
#35=ORIENTED_EDGE('',*,*,#149,.T.);
#36=ORIENTED_EDGE('',*,*,#159,.F.);
#37=ORIENTED_EDGE('',*,*,#160,.T.);
#38=ORIENTED_EDGE('',*,*,#161,.F.);
#39=ORIENTED_EDGE('',*,*,#156,.T.);
#40=ORIENTED_EDGE('',*,*,#162,.F.);
#41=ORIENTED_EDGE('',*,*,#163,.T.);
#42=ORIENTED_EDGE('',*,*,#164,.F.);
#43=ORIENTED_EDGE('',*,*,#165,.F.);
#44=ORIENTED_EDGE('',*,*,#166,.T.);
#45=ORIENTED_EDGE('',*,*,#167,.F.);
#46=ORIENTED_EDGE('',*,*,#168,.T.);
#47=ORIENTED_EDGE('',*,*,#169,.T.);
#48=ORIENTED_EDGE('',*,*,#170,.F.);
#49=ORIENTED_EDGE('',*,*,#171,.F.);
#50=ORIENTED_EDGE('',*,*,#172,.F.);
#51=ORIENTED_EDGE('',*,*,#173,.T.);
#52=ORIENTED_EDGE('',*,*,#174,.F.);
#53=ORIENTED_EDGE('',*,*,#175,.F.);
#54=ORIENTED_EDGE('',*,*,#176,.F.);
#55=ORIENTED_EDGE('',*,*,#165,.T.);
#56=ORIENTED_EDGE('',*,*,#177,.F.);
#57=ORIENTED_EDGE('',*,*,#178,.F.);
#58=ORIENTED_EDGE('',*,*,#179,.F.);
#59=ORIENTED_EDGE('',*,*,#172,.T.);
#60=ORIENTED_EDGE('',*,*,#180,.F.);
#61=ORIENTED_EDGE('',*,*,#163,.F.);
#62=ORIENTED_EDGE('',*,*,#181,.T.);
#63=ORIENTED_EDGE('',*,*,#182,.F.);
#64=ORIENTED_EDGE('',*,*,#160,.F.);
#65=ORIENTED_EDGE('',*,*,#183,.T.);
#66=ORIENTED_EDGE('',*,*,#168,.F.);
#67=ORIENTED_EDGE('',*,*,#184,.T.);
#68=ORIENTED_EDGE('',*,*,#185,.T.);
#69=ORIENTED_EDGE('',*,*,#186,.F.);
#70=ORIENTED_EDGE('',*,*,#187,.F.);
#71=ORIENTED_EDGE('',*,*,#188,.F.);
#72=ORIENTED_EDGE('',*,*,#189,.T.);
#73=ORIENTED_EDGE('',*,*,#190,.T.);
#74=ORIENTED_EDGE('',*,*,#170,.T.);
#75=ORIENTED_EDGE('',*,*,#191,.T.);
#76=ORIENTED_EDGE('',*,*,#192,.F.);
#77=ORIENTED_EDGE('',*,*,#178,.T.);
#78=ORIENTED_EDGE('',*,*,#193,.T.);
#79=ORIENTED_EDGE('',*,*,#194,.F.);
#80=ORIENTED_EDGE('',*,*,#175,.T.);
#81=ORIENTED_EDGE('',*,*,#195,.T.);
#82=ORIENTED_EDGE('',*,*,#196,.F.);
#83=ORIENTED_EDGE('',*,*,#154,.F.);
#84=ORIENTED_EDGE('',*,*,#197,.T.);
#85=ORIENTED_EDGE('',*,*,#188,.T.);
#86=ORIENTED_EDGE('',*,*,#198,.F.);
#87=ORIENTED_EDGE('',*,*,#199,.F.);
#88=ORIENTED_EDGE('',*,*,#185,.F.);
#89=ORIENTED_EDGE('',*,*,#200,.F.);
#90=ORIENTED_EDGE('',*,*,#201,.T.);
#91=ORIENTED_EDGE('',*,*,#152,.T.);
#92=ORIENTED_EDGE('',*,*,#201,.F.);
#93=ORIENTED_EDGE('',*,*,#202,.F.);
#94=ORIENTED_EDGE('',*,*,#189,.F.);
#95=ORIENTED_EDGE('',*,*,#197,.F.);
#96=ORIENTED_EDGE('',*,*,#153,.T.);
#97=ORIENTED_EDGE('',*,*,#203,.T.);
#98=ORIENTED_EDGE('',*,*,#198,.T.);
#99=ORIENTED_EDGE('',*,*,#151,.F.);
#100=ORIENTED_EDGE('',*,*,#196,.T.);
#101=ORIENTED_EDGE('',*,*,#187,.T.);
#102=ORIENTED_EDGE('',*,*,#203,.F.);
#103=ORIENTED_EDGE('',*,*,#191,.F.);
#104=ORIENTED_EDGE('',*,*,#204,.T.);
#105=ORIENTED_EDGE('',*,*,#199,.T.);
#106=ORIENTED_EDGE('',*,*,#204,.F.);
#107=ORIENTED_EDGE('',*,*,#169,.F.);
#108=ORIENTED_EDGE('',*,*,#186,.T.);
#109=ORIENTED_EDGE('',*,*,#202,.T.);
#110=ORIENTED_EDGE('',*,*,#200,.T.);
#111=ORIENTED_EDGE('',*,*,#205,.F.);
#112=ORIENTED_EDGE('',*,*,#190,.F.);
#113=ORIENTED_EDGE('',*,*,#205,.T.);
#114=ORIENTED_EDGE('',*,*,#184,.F.);
#115=ORIENTED_EDGE('',*,*,#167,.T.);
#116=ORIENTED_EDGE('',*,*,#194,.T.);
#117=ORIENTED_EDGE('',*,*,#206,.T.);
#118=ORIENTED_EDGE('',*,*,#166,.F.);
#119=ORIENTED_EDGE('',*,*,#176,.T.);
#120=ORIENTED_EDGE('',*,*,#206,.F.);
#121=ORIENTED_EDGE('',*,*,#195,.F.);
#122=ORIENTED_EDGE('',*,*,#174,.T.);
#123=ORIENTED_EDGE('',*,*,#164,.T.);
#124=ORIENTED_EDGE('',*,*,#192,.T.);
#125=ORIENTED_EDGE('',*,*,#207,.T.);
#126=ORIENTED_EDGE('',*,*,#173,.F.);
#127=ORIENTED_EDGE('',*,*,#179,.T.);
#128=ORIENTED_EDGE('',*,*,#207,.F.);
#129=ORIENTED_EDGE('',*,*,#193,.F.);
#130=ORIENTED_EDGE('',*,*,#177,.T.);
#131=ORIENTED_EDGE('',*,*,#171,.T.);
#132=ORIENTED_EDGE('',*,*,#208,.F.);
#133=ORIENTED_EDGE('',*,*,#150,.F.);
#134=ORIENTED_EDGE('',*,*,#158,.T.);
#135=ORIENTED_EDGE('',*,*,#182,.T.);
#136=ORIENTED_EDGE('',*,*,#148,.T.);
#137=ORIENTED_EDGE('',*,*,#208,.T.);
#138=ORIENTED_EDGE('',*,*,#183,.F.);
#139=ORIENTED_EDGE('',*,*,#159,.T.);
#140=ORIENTED_EDGE('',*,*,#209,.F.);
#141=ORIENTED_EDGE('',*,*,#157,.F.);
#142=ORIENTED_EDGE('',*,*,#161,.T.);
#143=ORIENTED_EDGE('',*,*,#180,.T.);
#144=ORIENTED_EDGE('',*,*,#155,.T.);
#145=ORIENTED_EDGE('',*,*,#209,.T.);
#146=ORIENTED_EDGE('',*,*,#181,.F.);
#147=ORIENTED_EDGE('',*,*,#162,.T.);
#148=EDGE_CURVE('',#210,#211,#250,.T.);
#149=EDGE_CURVE('',#212,#210,#16,.F.);
#150=EDGE_CURVE('',#212,#211,#251,.T.);
#151=EDGE_CURVE('',#213,#214,#252,.T.);
#152=EDGE_CURVE('',#215,#214,#253,.T.);
#153=EDGE_CURVE('',#216,#215,#254,.T.);
#154=EDGE_CURVE('',#216,#213,#255,.T.);
#155=EDGE_CURVE('',#217,#218,#256,.T.);
#156=EDGE_CURVE('',#219,#217,#17,.F.);
#157=EDGE_CURVE('',#219,#218,#257,.T.);
#158=EDGE_CURVE('',#212,#220,#258,.T.);
#159=EDGE_CURVE('',#221,#210,#259,.T.);
#160=EDGE_CURVE('',#221,#220,#18,.T.);
#161=EDGE_CURVE('',#219,#222,#260,.T.);
#162=EDGE_CURVE('',#223,#217,#261,.T.);
#163=EDGE_CURVE('',#223,#222,#19,.T.);
#164=EDGE_CURVE('',#224,#225,#262,.T.);
#165=EDGE_CURVE('',#226,#224,#20,.T.);
#166=EDGE_CURVE('',#226,#225,#263,.T.);
#167=EDGE_CURVE('',#227,#228,#264,.T.);
#168=EDGE_CURVE('',#227,#229,#265,.T.);
#169=EDGE_CURVE('',#229,#230,#266,.T.);
#170=EDGE_CURVE('',#228,#230,#267,.T.);
#171=EDGE_CURVE('',#231,#232,#268,.T.);
#172=EDGE_CURVE('',#233,#231,#21,.T.);
#173=EDGE_CURVE('',#233,#232,#269,.T.);
#174=EDGE_CURVE('',#234,#224,#270,.T.);
#175=EDGE_CURVE('',#235,#234,#22,.F.);
#176=EDGE_CURVE('',#226,#235,#271,.T.);
#177=EDGE_CURVE('',#236,#231,#272,.T.);
#178=EDGE_CURVE('',#237,#236,#23,.F.);
#179=EDGE_CURVE('',#233,#237,#273,.T.);
#180=EDGE_CURVE('',#222,#238,#274,.T.);
#181=EDGE_CURVE('',#223,#238,#275,.T.);
#182=EDGE_CURVE('',#220,#239,#276,.T.);
#183=EDGE_CURVE('',#221,#239,#277,.T.);
#184=EDGE_CURVE('',#227,#240,#278,.T.);
#185=EDGE_CURVE('',#240,#241,#279,.T.);
#186=EDGE_CURVE('',#229,#241,#280,.T.);
#187=EDGE_CURVE('',#242,#243,#281,.T.);
#188=EDGE_CURVE('',#244,#242,#282,.T.);
#189=EDGE_CURVE('',#244,#245,#283,.T.);
#190=EDGE_CURVE('',#245,#228,#284,.T.);
#191=EDGE_CURVE('',#230,#243,#285,.T.);
#192=EDGE_CURVE('',#237,#246,#286,.T.);
#193=EDGE_CURVE('',#236,#246,#287,.T.);
#194=EDGE_CURVE('',#235,#247,#288,.T.);
#195=EDGE_CURVE('',#234,#247,#289,.T.);
#196=EDGE_CURVE('',#213,#242,#290,.T.);
#197=EDGE_CURVE('',#216,#244,#291,.T.);
#198=EDGE_CURVE('',#248,#214,#292,.T.);
#199=EDGE_CURVE('',#241,#248,#293,.T.);
#200=EDGE_CURVE('',#249,#240,#294,.T.);
#201=EDGE_CURVE('',#249,#215,#295,.T.);
#202=EDGE_CURVE('',#245,#249,#296,.T.);
#203=EDGE_CURVE('',#243,#248,#297,.T.);
#204=EDGE_CURVE('',#230,#241,#298,.T.);
#205=EDGE_CURVE('',#228,#240,#299,.T.);
#206=EDGE_CURVE('',#247,#225,#300,.T.);
#207=EDGE_CURVE('',#246,#232,#301,.T.);
#208=EDGE_CURVE('',#211,#239,#302,.T.);
#209=EDGE_CURVE('',#218,#238,#303,.T.);
#210=VERTEX_POINT('',#634);
#211=VERTEX_POINT('',#635);
#212=VERTEX_POINT('',#637);
#213=VERTEX_POINT('',#640);
#214=VERTEX_POINT('',#641);
#215=VERTEX_POINT('',#643);
#216=VERTEX_POINT('',#645);
#217=VERTEX_POINT('',#648);
#218=VERTEX_POINT('',#649);
#219=VERTEX_POINT('',#651);
#220=VERTEX_POINT('',#655);
#221=VERTEX_POINT('',#657);
#222=VERTEX_POINT('',#661);
#223=VERTEX_POINT('',#663);
#224=VERTEX_POINT('',#667);
#225=VERTEX_POINT('',#668);
#226=VERTEX_POINT('',#670);
#227=VERTEX_POINT('',#673);
#228=VERTEX_POINT('',#674);
#229=VERTEX_POINT('',#676);
#230=VERTEX_POINT('',#678);
#231=VERTEX_POINT('',#681);
#232=VERTEX_POINT('',#682);
#233=VERTEX_POINT('',#684);
#234=VERTEX_POINT('',#688);
#235=VERTEX_POINT('',#690);
#236=VERTEX_POINT('',#694);
#237=VERTEX_POINT('',#696);
#238=VERTEX_POINT('',#700);
#239=VERTEX_POINT('',#703);
#240=VERTEX_POINT('',#706);
#241=VERTEX_POINT('',#708);
#242=VERTEX_POINT('',#712);
#243=VERTEX_POINT('',#713);
#244=VERTEX_POINT('',#715);
#245=VERTEX_POINT('',#717);
#246=VERTEX_POINT('',#722);
#247=VERTEX_POINT('',#725);
#248=VERTEX_POINT('',#731);
#249=VERTEX_POINT('',#734);
#250=LINE('',#633,#304);
#251=LINE('',#638,#305);
#252=LINE('',#639,#306);
#253=LINE('',#642,#307);
#254=LINE('',#644,#308);
#255=LINE('',#646,#309);
#256=LINE('',#647,#310);
#257=LINE('',#652,#311);
#258=LINE('',#654,#312);
#259=LINE('',#656,#313);
#260=LINE('',#660,#314);
#261=LINE('',#662,#315);
#262=LINE('',#666,#316);
#263=LINE('',#671,#317);
#264=LINE('',#672,#318);
#265=LINE('',#675,#319);
#266=LINE('',#677,#320);
#267=LINE('',#679,#321);
#268=LINE('',#680,#322);
#269=LINE('',#685,#323);
#270=LINE('',#687,#324);
#271=LINE('',#691,#325);
#272=LINE('',#693,#326);
#273=LINE('',#697,#327);
#274=LINE('',#699,#328);
#275=LINE('',#701,#329);
#276=LINE('',#702,#330);
#277=LINE('',#704,#331);
#278=LINE('',#705,#332);
#279=LINE('',#707,#333);
#280=LINE('',#709,#334);
#281=LINE('',#711,#335);
#282=LINE('',#714,#336);
#283=LINE('',#716,#337);
#284=LINE('',#718,#338);
#285=LINE('',#719,#339);
#286=LINE('',#721,#340);
#287=LINE('',#723,#341);
#288=LINE('',#724,#342);
#289=LINE('',#726,#343);
#290=LINE('',#727,#344);
#291=LINE('',#728,#345);
#292=LINE('',#730,#346);
#293=LINE('',#732,#347);
#294=LINE('',#733,#348);
#295=LINE('',#735,#349);
#296=LINE('',#737,#350);
#297=LINE('',#739,#351);
#298=LINE('',#741,#352);
#299=LINE('',#744,#353);
#300=LINE('',#747,#354);
#301=LINE('',#750,#355);
#302=LINE('',#753,#356);
#303=LINE('',#756,#357);
#304=VECTOR('',#515,1.);
#305=VECTOR('',#518,1.);
#306=VECTOR('',#519,1.);
#307=VECTOR('',#520,1.);
#308=VECTOR('',#521,1.);
#309=VECTOR('',#522,1.);
#310=VECTOR('',#523,1.);
#311=VECTOR('',#526,1.);
#312=VECTOR('',#529,1.);
#313=VECTOR('',#530,1.);
#314=VECTOR('',#535,1.);
#315=VECTOR('',#536,1.);
#316=VECTOR('',#541,1.);
#317=VECTOR('',#544,1.);
#318=VECTOR('',#545,1.);
#319=VECTOR('',#546,1.);
#320=VECTOR('',#547,1.);
#321=VECTOR('',#548,1.);
#322=VECTOR('',#549,1.);
#323=VECTOR('',#552,1.);
#324=VECTOR('',#555,1.);
#325=VECTOR('',#558,1.);
#326=VECTOR('',#561,1.);
#327=VECTOR('',#564,1.);
#328=VECTOR('',#567,1.);
#329=VECTOR('',#568,1.);
#330=VECTOR('',#569,1.);
#331=VECTOR('',#570,1.);
#332=VECTOR('',#571,1.);
#333=VECTOR('',#572,1.);
#334=VECTOR('',#573,1.);
#335=VECTOR('',#576,1.);
#336=VECTOR('',#577,1.);
#337=VECTOR('',#578,1.);
#338=VECTOR('',#579,1.);
#339=VECTOR('',#580,1.);
#340=VECTOR('',#583,1.);
#341=VECTOR('',#584,1.);
#342=VECTOR('',#585,1.);
#343=VECTOR('',#586,1.);
#344=VECTOR('',#587,1.);
#345=VECTOR('',#588,1.);
#346=VECTOR('',#591,1.);
#347=VECTOR('',#592,1.);
#348=VECTOR('',#593,1.);
#349=VECTOR('',#594,1.);
#350=VECTOR('',#597,1.);
#351=VECTOR('',#600,1.);
#352=VECTOR('',#603,1.);
#353=VECTOR('',#608,1.);
#354=VECTOR('',#613,1.);
#355=VECTOR('',#618,1.);
#356=VECTOR('',#623,1.);
#357=VECTOR('',#628,1.);
#358=EDGE_LOOP('',(#24,#25,#26));
#359=EDGE_LOOP('',(#27,#28,#29,#30));
#360=EDGE_LOOP('',(#31,#32,#33));
#361=EDGE_LOOP('',(#34,#35,#36,#37));
#362=EDGE_LOOP('',(#38,#39,#40,#41));
#363=EDGE_LOOP('',(#42,#43,#44));
#364=EDGE_LOOP('',(#45,#46,#47,#48));
#365=EDGE_LOOP('',(#49,#50,#51));
#366=EDGE_LOOP('',(#52,#53,#54,#55));
#367=EDGE_LOOP('',(#56,#57,#58,#59));
#368=EDGE_LOOP('',(#60,#61,#62));
#369=EDGE_LOOP('',(#63,#64,#65));
#370=EDGE_LOOP('',(#66,#67,#68,#69));
#371=EDGE_LOOP('',(#70,#71,#72,#73,#74,#75));
#372=EDGE_LOOP('',(#76,#77,#78));
#373=EDGE_LOOP('',(#79,#80,#81));
#374=EDGE_LOOP('',(#82,#83,#84,#85));
#375=EDGE_LOOP('',(#86,#87,#88,#89,#90,#91));
#376=EDGE_LOOP('',(#92,#93,#94,#95,#96));
#377=EDGE_LOOP('',(#97,#98,#99,#100,#101));
#378=EDGE_LOOP('',(#102,#103,#104,#105));
#379=EDGE_LOOP('',(#106,#107,#108));
#380=EDGE_LOOP('',(#109,#110,#111,#112));
#381=EDGE_LOOP('',(#113,#114,#115));
#382=EDGE_LOOP('',(#116,#117,#118,#119));
#383=EDGE_LOOP('',(#120,#121,#122,#123));
#384=EDGE_LOOP('',(#124,#125,#126,#127));
#385=EDGE_LOOP('',(#128,#129,#130,#131));
#386=EDGE_LOOP('',(#132,#133,#134,#135));
#387=EDGE_LOOP('',(#136,#137,#138,#139));
#388=EDGE_LOOP('',(#140,#141,#142,#143));
#389=EDGE_LOOP('',(#144,#145,#146,#147));
#390=FACE_BOUND('',#358,.T.);
#391=FACE_BOUND('',#359,.T.);
#392=FACE_BOUND('',#360,.T.);
#393=FACE_BOUND('',#361,.T.);
#394=FACE_BOUND('',#362,.T.);
#395=FACE_BOUND('',#363,.T.);
#396=FACE_BOUND('',#364,.T.);
#397=FACE_BOUND('',#365,.T.);
#398=FACE_BOUND('',#366,.T.);
#399=FACE_BOUND('',#367,.T.);
#400=FACE_BOUND('',#368,.T.);
#401=FACE_BOUND('',#369,.T.);
#402=FACE_BOUND('',#370,.T.);
#403=FACE_BOUND('',#371,.T.);
#404=FACE_BOUND('',#372,.T.);
#405=FACE_BOUND('',#373,.T.);
#406=FACE_BOUND('',#374,.T.);
#407=FACE_BOUND('',#375,.T.);
#408=FACE_BOUND('',#376,.T.);
#409=FACE_BOUND('',#377,.T.);
#410=FACE_BOUND('',#378,.T.);
#411=FACE_BOUND('',#379,.T.);
#412=FACE_BOUND('',#380,.T.);
#413=FACE_BOUND('',#381,.T.);
#414=FACE_BOUND('',#382,.T.);
#415=FACE_BOUND('',#383,.T.);
#416=FACE_BOUND('',#384,.T.);
#417=FACE_BOUND('',#385,.T.);
#418=FACE_BOUND('',#386,.T.);
#419=FACE_BOUND('',#387,.T.);
#420=FACE_BOUND('',#388,.T.);
#421=FACE_BOUND('',#389,.T.);
#422=PLANE('',#479);
#423=PLANE('',#486);
#424=PLANE('',#493);
#425=PLANE('',#494);
#426=PLANE('',#495);
#427=PLANE('',#496);
#428=PLANE('',#497);
#429=PLANE('',#498);
#430=PLANE('',#499);
#431=PLANE('',#500);
#432=PLANE('',#501);
#433=PLANE('',#502);
#434=PLANE('',#503);
#435=PLANE('',#504);
#436=PLANE('',#505);
#437=PLANE('',#506);
#438=PLANE('',#507);
#439=PLANE('',#508);
#440=PLANE('',#509);
#441=PLANE('',#510);
#442=ADVANCED_FACE('',(#390,#391,#392),#422,.F.);
#443=ADVANCED_FACE('',(#393),#12,.F.);
#444=ADVANCED_FACE('',(#394),#13,.F.);
#445=ADVANCED_FACE('',(#395,#396,#397),#423,.F.);
#446=ADVANCED_FACE('',(#398),#14,.F.);
#447=ADVANCED_FACE('',(#399),#15,.F.);
#448=ADVANCED_FACE('',(#400,#401,#402),#424,.T.);
#449=ADVANCED_FACE('',(#403),#425,.T.);
#450=ADVANCED_FACE('',(#404,#405,#406),#426,.T.);
#451=ADVANCED_FACE('',(#407),#427,.T.);
#452=ADVANCED_FACE('',(#408),#428,.T.);
#453=ADVANCED_FACE('',(#409),#429,.F.);
#454=ADVANCED_FACE('',(#410),#430,.F.);
#455=ADVANCED_FACE('',(#411),#431,.F.);
#456=ADVANCED_FACE('',(#412),#432,.F.);
#457=ADVANCED_FACE('',(#413),#433,.F.);
#458=ADVANCED_FACE('',(#414),#434,.T.);
#459=ADVANCED_FACE('',(#415),#435,.T.);
#460=ADVANCED_FACE('',(#416),#436,.T.);
#461=ADVANCED_FACE('',(#417),#437,.T.);
#462=ADVANCED_FACE('',(#418),#438,.T.);
#463=ADVANCED_FACE('',(#419),#439,.T.);
#464=ADVANCED_FACE('',(#420),#440,.T.);
#465=ADVANCED_FACE('',(#421),#441,.T.);
#466=CLOSED_SHELL('',(#442,#443,#444,#445,#446,#447,#448,#449,#450,#451,
#452,#453,#454,#455,#456,#457,#458,#459,#460,#461,#462,#463,#464,#465));
#467=STYLED_ITEM('',(#468),#475);
#468=PRESENTATION_STYLE_ASSIGNMENT((#469));
#469=SURFACE_STYLE_USAGE(.BOTH.,#470);
#470=SURFACE_SIDE_STYLE('',(#471));
#471=SURFACE_STYLE_FILL_AREA(#472);
#472=FILL_AREA_STYLE('',(#473));
#473=FILL_AREA_STYLE_COLOUR('',#474);
#474=COLOUR_RGB('',0.129411764705882,0.341176470588236,0.352941176470589);
#475=MANIFOLD_SOLID_BREP('Big Corner Bracket',#466);
#476=SHAPE_DEFINITION_REPRESENTATION(#764,#477);
#477=SHAPE_REPRESENTATION('Big Corner Bracket',(#478),#759);
#478=AXIS2_PLACEMENT_3D('',#631,#511,#512);
#479=AXIS2_PLACEMENT_3D('',#632,#513,#514);
#480=AXIS2_PLACEMENT_3D('',#636,#516,#517);
#481=AXIS2_PLACEMENT_3D('',#650,#524,#525);
#482=AXIS2_PLACEMENT_3D('',#653,#527,#528);
#483=AXIS2_PLACEMENT_3D('',#658,#531,#532);
#484=AXIS2_PLACEMENT_3D('',#659,#533,#534);
#485=AXIS2_PLACEMENT_3D('',#664,#537,#538);
#486=AXIS2_PLACEMENT_3D('',#665,#539,#540);
#487=AXIS2_PLACEMENT_3D('',#669,#542,#543);
#488=AXIS2_PLACEMENT_3D('',#683,#550,#551);
#489=AXIS2_PLACEMENT_3D('',#686,#553,#554);
#490=AXIS2_PLACEMENT_3D('',#689,#556,#557);
#491=AXIS2_PLACEMENT_3D('',#692,#559,#560);
#492=AXIS2_PLACEMENT_3D('',#695,#562,#563);
#493=AXIS2_PLACEMENT_3D('',#698,#565,#566);
#494=AXIS2_PLACEMENT_3D('',#710,#574,#575);
#495=AXIS2_PLACEMENT_3D('',#720,#581,#582);
#496=AXIS2_PLACEMENT_3D('',#729,#589,#590);
#497=AXIS2_PLACEMENT_3D('',#736,#595,#596);
#498=AXIS2_PLACEMENT_3D('',#738,#598,#599);
#499=AXIS2_PLACEMENT_3D('',#740,#601,#602);
#500=AXIS2_PLACEMENT_3D('',#742,#604,#605);
#501=AXIS2_PLACEMENT_3D('',#743,#606,#607);
#502=AXIS2_PLACEMENT_3D('',#745,#609,#610);
#503=AXIS2_PLACEMENT_3D('',#746,#611,#612);
#504=AXIS2_PLACEMENT_3D('',#748,#614,#615);
#505=AXIS2_PLACEMENT_3D('',#749,#616,#617);
#506=AXIS2_PLACEMENT_3D('',#751,#619,#620);
#507=AXIS2_PLACEMENT_3D('',#752,#621,#622);
#508=AXIS2_PLACEMENT_3D('',#754,#624,#625);
#509=AXIS2_PLACEMENT_3D('',#755,#626,#627);
#510=AXIS2_PLACEMENT_3D('',#757,#629,#630);
#511=DIRECTION('',(0.,0.,1.));
#512=DIRECTION('',(1.,0.,0.));
#513=DIRECTION('',(0.,0.,1.));
#514=DIRECTION('',(1.,0.,0.));
#515=DIRECTION('',(0.5,-0.866025403784439,0.));
#516=DIRECTION('',(0.,0.,1.));
#517=DIRECTION('',(1.,0.,0.));
#518=DIRECTION('',(0.5,0.866025403784439,0.));
#519=DIRECTION('',(1.,0.,0.));
#520=DIRECTION('',(0.,1.,0.));
#521=DIRECTION('',(1.,0.,0.));
#522=DIRECTION('',(0.,1.,0.));
#523=DIRECTION('',(0.5,-0.866025403784439,0.));
#524=DIRECTION('',(0.,0.,1.));
#525=DIRECTION('',(1.,0.,0.));
#526=DIRECTION('',(0.5,0.866025403784438,0.));
#527=DIRECTION('',(0.,0.,1.));
#528=DIRECTION('',(1.,0.,0.));
#529=DIRECTION('',(0.,0.,1.));
#530=DIRECTION('',(0.,0.,-1.));
#531=DIRECTION('',(0.,0.,1.));
#532=DIRECTION('',(1.,0.,0.));
#533=DIRECTION('',(0.,0.,1.));
#534=DIRECTION('',(1.,0.,0.));
#535=DIRECTION('',(0.,0.,1.));
#536=DIRECTION('',(0.,0.,-1.));
#537=DIRECTION('',(0.,0.,1.));
#538=DIRECTION('',(1.,0.,0.));
#539=DIRECTION('',(-1.,0.,0.));
#540=DIRECTION('',(0.,0.,1.));
#541=DIRECTION('',(0.,-0.866025403784439,0.5));
#542=DIRECTION('',(1.,0.,0.));
#543=DIRECTION('',(0.,0.,-1.));
#544=DIRECTION('',(0.,0.866025403784439,0.5));
#545=DIRECTION('',(0.,0.,1.));
#546=DIRECTION('',(0.,1.,0.));
#547=DIRECTION('',(0.,0.,1.));
#548=DIRECTION('',(0.,1.,0.));
#549=DIRECTION('',(0.,-0.866025403784438,0.5));
#550=DIRECTION('',(1.,0.,0.));
#551=DIRECTION('',(0.,0.,-1.));
#552=DIRECTION('',(0.,0.866025403784438,0.5));
#553=DIRECTION('',(1.,0.,0.));
#554=DIRECTION('',(0.,0.,-1.));
#555=DIRECTION('',(1.,0.,0.));
#556=DIRECTION('',(-1.,0.,0.));
#557=DIRECTION('',(0.,0.,1.));
#558=DIRECTION('',(-1.,0.,0.));
#559=DIRECTION('',(1.,0.,0.));
#560=DIRECTION('',(0.,0.,-1.));
#561=DIRECTION('',(1.,0.,0.));
#562=DIRECTION('',(-1.,0.,0.));
#563=DIRECTION('',(0.,0.,1.));
#564=DIRECTION('',(-1.,0.,0.));
#565=DIRECTION('',(0.,0.,1.));
#566=DIRECTION('',(1.,0.,0.));
#567=DIRECTION('',(0.5,0.866025403784438,0.));
#568=DIRECTION('',(0.5,-0.866025403784438,0.));
#569=DIRECTION('',(0.5,0.866025403784439,0.));
#570=DIRECTION('',(0.5,-0.866025403784439,0.));
#571=DIRECTION('',(1.,0.,0.));
#572=DIRECTION('',(0.,1.,0.));
#573=DIRECTION('',(1.,0.,0.));
#574=DIRECTION('',(0.,0.,1.));
#575=DIRECTION('',(1.,0.,0.));
#576=DIRECTION('',(1.,0.,0.));
#577=DIRECTION('',(0.,1.,0.));
#578=DIRECTION('',(1.,0.,0.));
#579=DIRECTION('',(0.,1.,0.));
#580=DIRECTION('',(0.,1.,0.));
#581=DIRECTION('',(-1.,0.,0.));
#582=DIRECTION('',(0.,0.,1.));
#583=DIRECTION('',(0.,0.866025403784438,0.5));
#584=DIRECTION('',(0.,-0.866025403784438,0.5));
#585=DIRECTION('',(0.,0.866025403784439,0.5));
#586=DIRECTION('',(0.,-0.866025403784439,0.5));
#587=DIRECTION('',(0.,0.,1.));
#588=DIRECTION('',(0.,0.,1.));
#589=DIRECTION('',(1.,0.,0.));
#590=DIRECTION('',(0.,0.,-1.));
#591=DIRECTION('',(0.,0.,-1.));
#592=DIRECTION('',(0.,1.,0.));
#593=DIRECTION('',(0.,1.,0.));
#594=DIRECTION('',(0.,0.,-1.));
#595=DIRECTION('',(0.,-1.,0.));
#596=DIRECTION('',(1.,0.,0.));
#597=DIRECTION('',(0.707106781186548,0.,-0.707106781186548));
#598=DIRECTION('',(0.,-1.,0.));
#599=DIRECTION('',(1.,0.,0.));
#600=DIRECTION('',(0.707106781186548,0.,-0.707106781186548));
#601=DIRECTION('',(-0.707106781186548,0.,-0.707106781186548));
#602=DIRECTION('',(-0.707106781186548,0.,0.707106781186548));
#603=DIRECTION('',(0.707106781186548,0.,-0.707106781186548));
#604=DIRECTION('',(0.,1.,0.));
#605=DIRECTION('',(1.,0.,0.));
#606=DIRECTION('',(-0.707106781186548,0.,-0.707106781186548));
#607=DIRECTION('',(-0.707106781186548,0.,0.707106781186548));
#608=DIRECTION('',(0.707106781186548,0.,-0.707106781186548));
#609=DIRECTION('',(0.,-1.,0.));
#610=DIRECTION('',(1.,0.,0.));
#611=DIRECTION('',(0.,0.5,-0.866025403784439));
#612=DIRECTION('',(0.,0.866025403784439,0.5));
#613=DIRECTION('',(1.,0.,0.));
#614=DIRECTION('',(0.,-0.5,-0.866025403784439));
#615=DIRECTION('',(0.,0.866025403784439,-0.5));
#616=DIRECTION('',(0.,0.5,-0.866025403784438));
#617=DIRECTION('',(0.,0.866025403784438,0.5));
#618=DIRECTION('',(1.,0.,0.));
#619=DIRECTION('',(0.,-0.5,-0.866025403784438));
#620=DIRECTION('',(0.,0.866025403784438,-0.5));
#621=DIRECTION('',(-0.866025403784439,0.5,0.));
#622=DIRECTION('',(-0.5,-0.866025403784439,0.));
#623=DIRECTION('',(0.,0.,1.));
#624=DIRECTION('',(-0.866025403784439,-0.5,0.));
#625=DIRECTION('',(0.5,-0.866025403784439,0.));
#626=DIRECTION('',(-0.866025403784438,0.5,0.));
#627=DIRECTION('',(-0.5,-0.866025403784438,0.));
#628=DIRECTION('',(0.,0.,1.));
#629=DIRECTION('',(-0.866025403784438,-0.5,0.));
#630=DIRECTION('',(0.5,-0.866025403784439,0.));
#631=CARTESIAN_POINT('',(0.,0.,0.));
#632=CARTESIAN_POINT('',(0.03,-0.01,0.));
#633=CARTESIAN_POINT('',(0.0517116968793294,0.00253525403784437,0.));
#634=CARTESIAN_POINT('',(0.0523816681364272,0.00137505645679453,1.39438027363615E-6));
#635=CARTESIAN_POINT('',(0.0531754264805429,-1.62630325872826E-19,0.));
#636=CARTESIAN_POINT('',(0.05,1.68388934882761E-19,0.));
#637=CARTESIAN_POINT('',(0.0523810680667869,-0.00137617118367534,6.93766641733177E-7));
#638=CARTESIAN_POINT('',(0.0523815698604072,-0.001375,0.));
#639=CARTESIAN_POINT('',(0.03,0.01,0.));
#640=CARTESIAN_POINT('',(0.,0.01,0.));
#641=CARTESIAN_POINT('',(0.06,0.01,0.));
#642=CARTESIAN_POINT('',(0.06,-0.01,0.));
#643=CARTESIAN_POINT('',(0.06,-0.01,0.));
#644=CARTESIAN_POINT('',(0.03,-0.01,0.));
#645=CARTESIAN_POINT('',(0.,-0.01,0.));
#646=CARTESIAN_POINT('',(0.,-0.01,0.));
#647=CARTESIAN_POINT('',(0.0254616968793294,-0.0126201905283833,0.));
#648=CARTESIAN_POINT('',(0.0173816681364274,0.00137505645679461,1.39438027351083E-6));
#649=CARTESIAN_POINT('',(0.018175426480543,2.49366499671666E-18,0.));
#650=CARTESIAN_POINT('',(0.015,4.51457298724685E-19,0.));
#651=CARTESIAN_POINT('',(0.0173810680667868,-0.0013761711836753,6.93766641758278E-7));
#652=CARTESIAN_POINT('',(0.0173815698604072,-0.001375,0.));
#653=CARTESIAN_POINT('',(0.05,1.68388934882761E-19,-2.00000000000027E-6));
#654=CARTESIAN_POINT('',(0.0523815698604072,-0.001375,3.0000000000004E-6));
#655=CARTESIAN_POINT('',(0.0523816806923221,-0.00137506366980112,0.0050003964146123));
#656=CARTESIAN_POINT('',(0.0523815698604072,0.001375,3.0000000000004E-6));
#657=CARTESIAN_POINT('',(0.0523809328899559,0.00137648668569038,0.00500002416555066));
#658=CARTESIAN_POINT('',(0.05,1.68388934882761E-19,0.005));
#659=CARTESIAN_POINT('',(0.015,4.51457298724685E-19,-2.00000000000027E-6));
#660=CARTESIAN_POINT('',(0.0173815698604072,-0.001375,3.0000000000004E-6));
#661=CARTESIAN_POINT('',(0.0173816806923224,-0.00137506366980126,0.00500039641461212));
#662=CARTESIAN_POINT('',(0.0173815698604072,0.001375,3.0000000000004E-6));
#663=CARTESIAN_POINT('',(0.0173809328899553,0.00137648668569047,0.00500002416555075));
#664=CARTESIAN_POINT('',(0.015,4.51457298724685E-19,0.005));
#665=CARTESIAN_POINT('',(0.005,-0.01,0.0325));
#666=CARTESIAN_POINT('',(0.005,-0.0137027222831138,0.0260866968793294));
#667=CARTESIAN_POINT('',(0.0050003964146123,0.00137506366980112,0.0173816806923221));
#668=CARTESIAN_POINT('',(0.005,3.79470760369927E-19,0.018175426480543));
#669=CARTESIAN_POINT('',(0.005,0.,0.015));
#670=CARTESIAN_POINT('',(0.00500002416608777,-0.00137648667566848,0.0173809328956195));
#671=CARTESIAN_POINT('',(0.005,-0.001375,0.0173815698604072));
#672=CARTESIAN_POINT('',(0.005,-0.007,0.0325));
#673=CARTESIAN_POINT('',(0.005,-0.007,0.005));
#674=CARTESIAN_POINT('',(0.005,-0.007,0.06));
#675=CARTESIAN_POINT('',(0.005,-0.01,0.005));
#676=CARTESIAN_POINT('',(0.005,0.007,0.005));
#677=CARTESIAN_POINT('',(0.005,0.007,0.0325));
#678=CARTESIAN_POINT('',(0.005,0.007,0.06));
#679=CARTESIAN_POINT('',(0.005,-0.01,0.06));
#680=CARTESIAN_POINT('',(0.005,0.00145272228311385,0.0523366968793294));
#681=CARTESIAN_POINT('',(0.0050003964146123,0.00137506366980112,0.0523816806923221));
#682=CARTESIAN_POINT('',(0.005,-2.16840434497101E-19,0.0531754264805429));
#683=CARTESIAN_POINT('',(0.005,0.,0.05));
#684=CARTESIAN_POINT('',(0.00500002416608777,-0.00137648667566848,0.0523809328956195));
#685=CARTESIAN_POINT('',(0.005,-0.001375,0.0523815698604072));
#686=CARTESIAN_POINT('',(-2.00000000000027E-6,0.,0.015));
#687=CARTESIAN_POINT('',(3.0000000000004E-6,0.001375,0.0173815698604072));
#688=CARTESIAN_POINT('',(6.93700839196241E-7,0.00137617113728204,0.0173810680986741));
#689=CARTESIAN_POINT('',(0.,0.,0.015));
#690=CARTESIAN_POINT('',(1.39438027380338E-6,-0.0013750564568441,0.0173816681364752));
#691=CARTESIAN_POINT('',(3.0000000000004E-6,-0.001375,0.0173815698604072));
#692=CARTESIAN_POINT('',(-2.00000000000027E-6,0.,0.05));
#693=CARTESIAN_POINT('',(3.0000000000004E-6,0.001375,0.0523815698604072));
#694=CARTESIAN_POINT('',(6.93700839195739E-7,0.00137617113728204,0.0523810680986741));
#695=CARTESIAN_POINT('',(0.,0.,0.05));
#696=CARTESIAN_POINT('',(1.39438027392725E-6,-0.00137505645684403,0.0523816681364751));
#697=CARTESIAN_POINT('',(3.0000000000004E-6,-0.001375,0.0523815698604072));
#698=CARTESIAN_POINT('',(0.0325,-0.01,0.005));
#699=CARTESIAN_POINT('',(0.0173815698604072,-0.001375,0.005));
#700=CARTESIAN_POINT('',(0.018175426480543,5.96311194867027E-19,0.005));
#701=CARTESIAN_POINT('',(0.0173815698604072,0.001375,0.005));
#702=CARTESIAN_POINT('',(0.0523815698604072,-0.001375,0.005));
#703=CARTESIAN_POINT('',(0.0531754264805429,4.33680868994202E-19,0.005));
#704=CARTESIAN_POINT('',(0.0523815698604072,0.001375,0.005));
#705=CARTESIAN_POINT('',(0.0325,-0.007,0.005));
#706=CARTESIAN_POINT('',(0.06,-0.007,0.005));
#707=CARTESIAN_POINT('',(0.06,-0.01,0.005));
#708=CARTESIAN_POINT('',(0.06,0.007,0.005));
#709=CARTESIAN_POINT('',(0.0325,0.007,0.005));
#710=CARTESIAN_POINT('',(0.0025,-0.01,0.06));
#711=CARTESIAN_POINT('',(0.0025,0.01,0.06));
#712=CARTESIAN_POINT('',(0.,0.01,0.06));
#713=CARTESIAN_POINT('',(0.005,0.01,0.06));
#714=CARTESIAN_POINT('',(0.,-0.01,0.06));
#715=CARTESIAN_POINT('',(0.,-0.01,0.06));
#716=CARTESIAN_POINT('',(0.0025,-0.01,0.06));
#717=CARTESIAN_POINT('',(0.005,-0.01,0.06));
#718=CARTESIAN_POINT('',(0.005,-0.01,0.06));
#719=CARTESIAN_POINT('',(0.005,0.007,0.06));
#720=CARTESIAN_POINT('',(0.,-0.01,0.03));
#721=CARTESIAN_POINT('',(0.,-0.001375,0.0523815698604072));
#722=CARTESIAN_POINT('',(0.,5.96311194867027E-19,0.0531754264805429));
#723=CARTESIAN_POINT('',(0.,0.001375,0.0523815698604072));
#724=CARTESIAN_POINT('',(0.,-0.001375,0.0173815698604072));
#725=CARTESIAN_POINT('',(0.,-1.0842021724855E-19,0.018175426480543));
#726=CARTESIAN_POINT('',(0.,0.001375,0.0173815698604072));
#727=CARTESIAN_POINT('',(0.,0.01,0.03));
#728=CARTESIAN_POINT('',(0.,-0.01,0.03));
#729=CARTESIAN_POINT('',(0.06,-0.01,0.0025));
#730=CARTESIAN_POINT('',(0.06,0.01,0.0025));
#731=CARTESIAN_POINT('',(0.06,0.01,0.005));
#732=CARTESIAN_POINT('',(0.06,0.007,0.005));
#733=CARTESIAN_POINT('',(0.06,-0.01,0.005));
#734=CARTESIAN_POINT('',(0.06,-0.01,0.005));
#735=CARTESIAN_POINT('',(0.06,-0.01,0.0025));
#736=CARTESIAN_POINT('',(0.03,-0.01,0.03));
#737=CARTESIAN_POINT('',(0.0325,-0.01,0.0325));
#738=CARTESIAN_POINT('',(0.03,0.01,0.03));
#739=CARTESIAN_POINT('',(0.0325,0.01,0.0325));
#740=CARTESIAN_POINT('',(0.0325,0.007,0.0325));
#741=CARTESIAN_POINT('',(0.0325,0.007,0.0325));
#742=CARTESIAN_POINT('',(0.03,0.007,0.03));
#743=CARTESIAN_POINT('',(0.0325,-0.007,0.0325));
#744=CARTESIAN_POINT('',(0.0325,-0.007,0.0325));
#745=CARTESIAN_POINT('',(0.03,-0.007,0.03));
#746=CARTESIAN_POINT('',(3.0000000000004E-6,-0.001375,0.0173815698604072));
#747=CARTESIAN_POINT('',(3.0000000000004E-6,0.,0.018175426480543));
#748=CARTESIAN_POINT('',(3.0000000000004E-6,0.001375,0.0173815698604072));
#749=CARTESIAN_POINT('',(3.0000000000004E-6,-0.001375,0.0523815698604072));
#750=CARTESIAN_POINT('',(3.0000000000004E-6,0.,0.0531754264805429));
#751=CARTESIAN_POINT('',(3.0000000000004E-6,0.001375,0.0523815698604072));
#752=CARTESIAN_POINT('',(0.0523815698604072,-0.001375,3.0000000000004E-6));
#753=CARTESIAN_POINT('',(0.0531754264805429,2.16840434497101E-19,3.0000000000004E-6));
#754=CARTESIAN_POINT('',(0.0523815698604072,0.001375,3.0000000000004E-6));
#755=CARTESIAN_POINT('',(0.0173815698604072,-0.001375,3.0000000000004E-6));
#756=CARTESIAN_POINT('',(0.018175426480543,4.33680868994202E-19,3.0000000000004E-6));
#757=CARTESIAN_POINT('',(0.0173815698604072,0.001375,3.0000000000004E-6));
#758=MECHANICAL_DESIGN_GEOMETRIC_PRESENTATION_REPRESENTATION('',(#467),
#759);
#759=(
GEOMETRIC_REPRESENTATION_CONTEXT(3)
GLOBAL_UNCERTAINTY_ASSIGNED_CONTEXT((#760))
GLOBAL_UNIT_ASSIGNED_CONTEXT((#763,#762,#761))
REPRESENTATION_CONTEXT('Big Corner Bracket','TOP_LEVEL_ASSEMBLY_PART')
);
#760=UNCERTAINTY_MEASURE_WITH_UNIT(LENGTH_MEASURE(2.6269665336359E-5),#763,
'DISTANCE_ACCURACY_VALUE','Maximum Tolerance applied to model');
#761=(
NAMED_UNIT(*)
SI_UNIT($,.STERADIAN.)
SOLID_ANGLE_UNIT()
);
#762=(
NAMED_UNIT(*)
PLANE_ANGLE_UNIT()
SI_UNIT($,.RADIAN.)
);
#763=(
LENGTH_UNIT()
NAMED_UNIT(*)
SI_UNIT($,.METRE.)
);
#764=PRODUCT_DEFINITION_SHAPE('','',#765);
#765=PRODUCT_DEFINITION('','',#767,#766);
#766=PRODUCT_DEFINITION_CONTEXT('',#773,'design');
#767=PRODUCT_DEFINITION_FORMATION_WITH_SPECIFIED_SOURCE('','',#769,
 .NOT_KNOWN.);
#768=PRODUCT_RELATED_PRODUCT_CATEGORY('','',(#769));
#769=PRODUCT('Big Corner Bracket','Big Corner Bracket',
'Big Corner Bracket',(#771));
#770=PRODUCT_CATEGORY('','');
#771=PRODUCT_CONTEXT('',#773,'mechanical');
#772=APPLICATION_PROTOCOL_DEFINITION('international standard',
'ap242_managed_model_based_3d_engineering',2020,#773);
#773=APPLICATION_CONTEXT('managed model based 3d engineering');
ENDSEC;
END-ISO-10303-21;
