ISO-10303-21;
HEADER;
/* Generated by software containing ST-Developer
 * from STEP Tools, Inc. (www.steptools.com) 
 */
/* OPTION: using custom renumber hook */

FILE_DESCRIPTION(
/* description */ ('STEP AP242 Edition 2',
'CAx-IF Rec.Pracs.---Representation and Presentation of Product Manufa
cturing Information (PMI)---4.0---2014-10-13',
'CAx-IF Rec.Pracs.---3D Tessellated Geometry---0.4---2014-09-14','2;1',
'CAx-IF Rec.Pracs.---User Defined Attributes---1.5---2016-08-15'),
/* implementation_level */ '2;1');

FILE_NAME(
/* name */ 'Base and Z Axis - Rear Foot',
/* time_stamp */ '2026-01-10T06:34:52Z',
/* author */ (''),
/* organization */ (''),
/* preprocessor_version */ 'ST-DEVELOPER v20',
/* originating_system */ 'ONSHAPE BY PTC INC, 1.209',
/* authorisation */ '  ');

FILE_SCHEMA (('AP242_MANAGED_MODEL_BASED_3D_ENGINEERING_MIM_LF { 1 0 10303 442 3 1 4 }'));
ENDSEC;

DATA;
#10=SHAPE_REPRESENTATION_RELATIONSHIP('','',#540,#11);
#11=ADVANCED_BREP_SHAPE_REPRESENTATION('',(#538),#882);
#12=LINE('',#765,#57);
#13=LINE('',#768,#58);
#14=LINE('',#770,#59);
#15=LINE('',#772,#60);
#16=LINE('',#774,#61);
#17=LINE('',#780,#62);
#18=LINE('',#783,#63);
#19=LINE('',#785,#64);
#20=LINE('',#787,#65);
#21=LINE('',#789,#66);
#22=LINE('',#791,#67);
#23=LINE('',#793,#68);
#24=LINE('',#795,#69);
#25=LINE('',#797,#70);
#26=LINE('',#800,#71);
#27=LINE('',#801,#72);
#28=LINE('',#803,#73);
#29=LINE('',#805,#74);
#30=LINE('',#807,#75);
#31=LINE('',#809,#76);
#32=LINE('',#811,#77);
#33=LINE('',#813,#78);
#34=LINE('',#814,#79);
#35=LINE('',#816,#80);
#36=LINE('',#818,#81);
#37=LINE('',#820,#82);
#38=LINE('',#822,#83);
#39=LINE('',#824,#84);
#40=LINE('',#826,#85);
#41=LINE('',#828,#86);
#42=LINE('',#830,#87);
#43=LINE('',#832,#88);
#44=LINE('',#834,#89);
#45=LINE('',#836,#90);
#46=LINE('',#838,#91);
#47=LINE('',#840,#92);
#48=LINE('',#841,#93);
#49=LINE('',#845,#94);
#50=LINE('',#846,#95);
#51=LINE('',#850,#96);
#52=LINE('',#852,#97);
#53=LINE('',#856,#98);
#54=LINE('',#857,#99);
#55=LINE('',#859,#100);
#56=LINE('',#862,#101);
#57=VECTOR('',#624,1.);
#58=VECTOR('',#625,1.);
#59=VECTOR('',#626,1.);
#60=VECTOR('',#627,1.);
#61=VECTOR('',#628,1.);
#62=VECTOR('',#635,1.);
#63=VECTOR('',#636,1.);
#64=VECTOR('',#637,1.);
#65=VECTOR('',#638,1.);
#66=VECTOR('',#639,1.);
#67=VECTOR('',#642,1.);
#68=VECTOR('',#643,1.);
#69=VECTOR('',#644,1.);
#70=VECTOR('',#647,1.);
#71=VECTOR('',#648,1.);
#72=VECTOR('',#649,1.);
#73=VECTOR('',#650,1.);
#74=VECTOR('',#653,1.);
#75=VECTOR('',#654,1.);
#76=VECTOR('',#655,1.);
#77=VECTOR('',#658,1.);
#78=VECTOR('',#659,1.);
#79=VECTOR('',#660,1.);
#80=VECTOR('',#661,1.);
#81=VECTOR('',#664,1.);
#82=VECTOR('',#665,1.);
#83=VECTOR('',#668,1.);
#84=VECTOR('',#669,1.);
#85=VECTOR('',#670,1.);
#86=VECTOR('',#671,1.);
#87=VECTOR('',#674,1.);
#88=VECTOR('',#675,1.);
#89=VECTOR('',#676,1.);
#90=VECTOR('',#677,1.);
#91=VECTOR('',#680,1.);
#92=VECTOR('',#681,1.);
#93=VECTOR('',#682,1.);
#94=VECTOR('',#687,1.);
#95=VECTOR('',#688,1.);
#96=VECTOR('',#695,1.);
#97=VECTOR('',#696,1.);
#98=VECTOR('',#701,1.);
#99=VECTOR('',#702,1.);
#100=VECTOR('',#705,1.);
#101=VECTOR('',#710,1.);
#102=PLANE('',#554);
#103=PLANE('',#557);
#104=PLANE('',#560);
#105=PLANE('',#561);
#106=PLANE('',#562);
#107=PLANE('',#563);
#108=PLANE('',#564);
#109=PLANE('',#565);
#110=PLANE('',#566);
#111=PLANE('',#567);
#112=PLANE('',#568);
#113=PLANE('',#570);
#114=PLANE('',#571);
#115=PLANE('',#572);
#116=PLANE('',#573);
#117=PLANE('',#575);
#118=PLANE('',#576);
#119=PLANE('',#577);
#120=PLANE('',#578);
#121=PLANE('',#581);
#122=PLANE('',#584);
#123=PLANE('',#587);
#124=PLANE('',#590);
#125=ORIENTED_EDGE('',*,*,#251,.F.);
#126=ORIENTED_EDGE('',*,*,#252,.T.);
#127=ORIENTED_EDGE('',*,*,#253,.F.);
#128=ORIENTED_EDGE('',*,*,#254,.T.);
#129=ORIENTED_EDGE('',*,*,#255,.F.);
#130=ORIENTED_EDGE('',*,*,#256,.T.);
#131=ORIENTED_EDGE('',*,*,#257,.F.);
#132=ORIENTED_EDGE('',*,*,#258,.T.);
#133=ORIENTED_EDGE('',*,*,#259,.F.);
#134=ORIENTED_EDGE('',*,*,#260,.F.);
#135=ORIENTED_EDGE('',*,*,#261,.F.);
#136=ORIENTED_EDGE('',*,*,#262,.T.);
#137=ORIENTED_EDGE('',*,*,#263,.F.);
#138=ORIENTED_EDGE('',*,*,#264,.T.);
#139=ORIENTED_EDGE('',*,*,#265,.F.);
#140=ORIENTED_EDGE('',*,*,#266,.F.);
#141=ORIENTED_EDGE('',*,*,#267,.F.);
#142=ORIENTED_EDGE('',*,*,#268,.F.);
#143=ORIENTED_EDGE('',*,*,#269,.T.);
#144=ORIENTED_EDGE('',*,*,#270,.F.);
#145=ORIENTED_EDGE('',*,*,#271,.F.);
#146=ORIENTED_EDGE('',*,*,#272,.T.);
#147=ORIENTED_EDGE('',*,*,#273,.F.);
#148=ORIENTED_EDGE('',*,*,#274,.F.);
#149=ORIENTED_EDGE('',*,*,#275,.T.);
#150=ORIENTED_EDGE('',*,*,#270,.T.);
#151=ORIENTED_EDGE('',*,*,#276,.F.);
#152=ORIENTED_EDGE('',*,*,#277,.T.);
#153=ORIENTED_EDGE('',*,*,#263,.T.);
#154=ORIENTED_EDGE('',*,*,#278,.T.);
#155=ORIENTED_EDGE('',*,*,#279,.T.);
#156=ORIENTED_EDGE('',*,*,#265,.T.);
#157=ORIENTED_EDGE('',*,*,#280,.T.);
#158=ORIENTED_EDGE('',*,*,#281,.F.);
#159=ORIENTED_EDGE('',*,*,#282,.F.);
#160=ORIENTED_EDGE('',*,*,#283,.F.);
#161=ORIENTED_EDGE('',*,*,#284,.F.);
#162=ORIENTED_EDGE('',*,*,#275,.F.);
#163=ORIENTED_EDGE('',*,*,#285,.T.);
#164=ORIENTED_EDGE('',*,*,#286,.T.);
#165=ORIENTED_EDGE('',*,*,#282,.T.);
#166=ORIENTED_EDGE('',*,*,#287,.F.);
#167=ORIENTED_EDGE('',*,*,#288,.T.);
#168=ORIENTED_EDGE('',*,*,#271,.T.);
#169=ORIENTED_EDGE('',*,*,#284,.T.);
#170=ORIENTED_EDGE('',*,*,#289,.T.);
#171=ORIENTED_EDGE('',*,*,#268,.T.);
#172=ORIENTED_EDGE('',*,*,#290,.T.);
#173=ORIENTED_EDGE('',*,*,#291,.F.);
#174=ORIENTED_EDGE('',*,*,#292,.F.);
#175=ORIENTED_EDGE('',*,*,#293,.T.);
#176=ORIENTED_EDGE('',*,*,#294,.F.);
#177=ORIENTED_EDGE('',*,*,#295,.F.);
#178=ORIENTED_EDGE('',*,*,#296,.T.);
#179=ORIENTED_EDGE('',*,*,#292,.T.);
#180=ORIENTED_EDGE('',*,*,#279,.F.);
#181=ORIENTED_EDGE('',*,*,#297,.F.);
#182=ORIENTED_EDGE('',*,*,#298,.F.);
#183=ORIENTED_EDGE('',*,*,#294,.T.);
#184=ORIENTED_EDGE('',*,*,#299,.T.);
#185=ORIENTED_EDGE('',*,*,#300,.F.);
#186=ORIENTED_EDGE('',*,*,#281,.T.);
#187=ORIENTED_EDGE('',*,*,#301,.T.);
#188=ORIENTED_EDGE('',*,*,#276,.T.);
#189=ORIENTED_EDGE('',*,*,#299,.F.);
#190=ORIENTED_EDGE('',*,*,#293,.F.);
#191=ORIENTED_EDGE('',*,*,#291,.T.);
#192=ORIENTED_EDGE('',*,*,#302,.T.);
#193=ORIENTED_EDGE('',*,*,#287,.T.);
#194=ORIENTED_EDGE('',*,*,#283,.T.);
#195=ORIENTED_EDGE('',*,*,#255,.T.);
#196=ORIENTED_EDGE('',*,*,#253,.T.);
#197=ORIENTED_EDGE('',*,*,#251,.T.);
#198=ORIENTED_EDGE('',*,*,#257,.T.);
#199=ORIENTED_EDGE('',*,*,#264,.F.);
#200=ORIENTED_EDGE('',*,*,#277,.F.);
#201=ORIENTED_EDGE('',*,*,#301,.F.);
#202=ORIENTED_EDGE('',*,*,#280,.F.);
#203=ORIENTED_EDGE('',*,*,#272,.F.);
#204=ORIENTED_EDGE('',*,*,#288,.F.);
#205=ORIENTED_EDGE('',*,*,#302,.F.);
#206=ORIENTED_EDGE('',*,*,#290,.F.);
#207=ORIENTED_EDGE('',*,*,#303,.F.);
#208=ORIENTED_EDGE('',*,*,#304,.T.);
#209=ORIENTED_EDGE('',*,*,#261,.T.);
#210=ORIENTED_EDGE('',*,*,#286,.F.);
#211=ORIENTED_EDGE('',*,*,#305,.F.);
#212=ORIENTED_EDGE('',*,*,#285,.F.);
#213=ORIENTED_EDGE('',*,*,#274,.T.);
#214=ORIENTED_EDGE('',*,*,#306,.T.);
#215=ORIENTED_EDGE('',*,*,#295,.T.);
#216=ORIENTED_EDGE('',*,*,#298,.T.);
#217=ORIENTED_EDGE('',*,*,#307,.T.);
#218=ORIENTED_EDGE('',*,*,#303,.T.);
#219=ORIENTED_EDGE('',*,*,#296,.F.);
#220=ORIENTED_EDGE('',*,*,#306,.F.);
#221=ORIENTED_EDGE('',*,*,#308,.T.);
#222=ORIENTED_EDGE('',*,*,#289,.F.);
#223=ORIENTED_EDGE('',*,*,#273,.T.);
#224=ORIENTED_EDGE('',*,*,#269,.F.);
#225=ORIENTED_EDGE('',*,*,#308,.F.);
#226=ORIENTED_EDGE('',*,*,#297,.T.);
#227=ORIENTED_EDGE('',*,*,#278,.F.);
#228=ORIENTED_EDGE('',*,*,#309,.F.);
#229=ORIENTED_EDGE('',*,*,#307,.F.);
#230=ORIENTED_EDGE('',*,*,#309,.T.);
#231=ORIENTED_EDGE('',*,*,#262,.F.);
#232=ORIENTED_EDGE('',*,*,#304,.F.);
#233=ORIENTED_EDGE('',*,*,#310,.F.);
#234=ORIENTED_EDGE('',*,*,#260,.T.);
#235=ORIENTED_EDGE('',*,*,#258,.F.);
#236=ORIENTED_EDGE('',*,*,#310,.T.);
#237=ORIENTED_EDGE('',*,*,#311,.F.);
#238=ORIENTED_EDGE('',*,*,#266,.T.);
#239=ORIENTED_EDGE('',*,*,#256,.F.);
#240=ORIENTED_EDGE('',*,*,#311,.T.);
#241=ORIENTED_EDGE('',*,*,#312,.F.);
#242=ORIENTED_EDGE('',*,*,#259,.T.);
#243=ORIENTED_EDGE('',*,*,#254,.F.);
#244=ORIENTED_EDGE('',*,*,#312,.T.);
#245=ORIENTED_EDGE('',*,*,#313,.F.);
#246=ORIENTED_EDGE('',*,*,#267,.T.);
#247=ORIENTED_EDGE('',*,*,#252,.F.);
#248=ORIENTED_EDGE('',*,*,#313,.T.);
#249=ORIENTED_EDGE('',*,*,#305,.T.);
#250=ORIENTED_EDGE('',*,*,#300,.T.);
#251=EDGE_CURVE('',#314,#314,#360,.T.);
#252=EDGE_CURVE('',#315,#315,#361,.T.);
#253=EDGE_CURVE('',#316,#316,#362,.T.);
#254=EDGE_CURVE('',#317,#317,#363,.T.);
#255=EDGE_CURVE('',#318,#318,#364,.T.);
#256=EDGE_CURVE('',#319,#319,#365,.T.);
#257=EDGE_CURVE('',#320,#320,#366,.T.);
#258=EDGE_CURVE('',#321,#321,#367,.T.);
#259=EDGE_CURVE('',#322,#322,#368,.T.);
#260=EDGE_CURVE('',#323,#323,#369,.T.);
#261=EDGE_CURVE('',#324,#325,#12,.T.);
#262=EDGE_CURVE('',#324,#326,#13,.T.);
#263=EDGE_CURVE('',#327,#326,#14,.T.);
#264=EDGE_CURVE('',#327,#328,#15,.F.);
#265=EDGE_CURVE('',#325,#328,#16,.T.);
#266=EDGE_CURVE('',#329,#329,#370,.T.);
#267=EDGE_CURVE('',#330,#330,#371,.T.);
#268=EDGE_CURVE('',#331,#332,#17,.T.);
#269=EDGE_CURVE('',#331,#333,#18,.T.);
#270=EDGE_CURVE('',#334,#333,#19,.T.);
#271=EDGE_CURVE('',#335,#334,#20,.T.);
#272=EDGE_CURVE('',#335,#332,#21,.F.);
#273=EDGE_CURVE('',#336,#333,#22,.T.);
#274=EDGE_CURVE('',#337,#336,#23,.T.);
#275=EDGE_CURVE('',#337,#334,#24,.T.);
#276=EDGE_CURVE('',#338,#339,#25,.T.);
#277=EDGE_CURVE('',#338,#327,#26,.T.);
#278=EDGE_CURVE('',#326,#340,#27,.T.);
#279=EDGE_CURVE('',#340,#339,#28,.T.);
#280=EDGE_CURVE('',#328,#341,#29,.T.);
#281=EDGE_CURVE('',#342,#341,#30,.T.);
#282=EDGE_CURVE('',#325,#342,#31,.T.);
#283=EDGE_CURVE('',#343,#342,#32,.T.);
#284=EDGE_CURVE('',#334,#343,#33,.T.);
#285=EDGE_CURVE('',#337,#344,#34,.T.);
#286=EDGE_CURVE('',#344,#325,#35,.T.);
#287=EDGE_CURVE('',#345,#343,#36,.T.);
#288=EDGE_CURVE('',#345,#335,#37,.T.);
#289=EDGE_CURVE('',#346,#331,#38,.T.);
#290=EDGE_CURVE('',#332,#347,#39,.T.);
#291=EDGE_CURVE('',#348,#347,#40,.T.);
#292=EDGE_CURVE('',#346,#348,#41,.T.);
#293=EDGE_CURVE('',#348,#349,#42,.T.);
#294=EDGE_CURVE('',#350,#349,#43,.T.);
#295=EDGE_CURVE('',#351,#350,#44,.T.);
#296=EDGE_CURVE('',#351,#346,#45,.T.);
#297=EDGE_CURVE('',#352,#340,#46,.T.);
#298=EDGE_CURVE('',#350,#352,#47,.T.);
#299=EDGE_CURVE('',#349,#339,#48,.T.);
#300=EDGE_CURVE('',#353,#353,#372,.T.);
#301=EDGE_CURVE('',#341,#338,#49,.F.);
#302=EDGE_CURVE('',#347,#345,#50,.F.);
#303=EDGE_CURVE('',#354,#344,#51,.T.);
#304=EDGE_CURVE('',#354,#324,#52,.T.);
#305=EDGE_CURVE('',#355,#355,#373,.T.);
#306=EDGE_CURVE('',#336,#351,#53,.T.);
#307=EDGE_CURVE('',#352,#354,#54,.T.);
#308=EDGE_CURVE('',#336,#331,#55,.T.);
#309=EDGE_CURVE('',#354,#326,#56,.T.);
#310=EDGE_CURVE('',#356,#356,#374,.T.);
#311=EDGE_CURVE('',#357,#357,#375,.T.);
#312=EDGE_CURVE('',#358,#358,#376,.T.);
#313=EDGE_CURVE('',#359,#359,#377,.T.);
#314=VERTEX_POINT('',#742);
#315=VERTEX_POINT('',#744);
#316=VERTEX_POINT('',#747);
#317=VERTEX_POINT('',#749);
#318=VERTEX_POINT('',#752);
#319=VERTEX_POINT('',#754);
#320=VERTEX_POINT('',#757);
#321=VERTEX_POINT('',#759);
#322=VERTEX_POINT('',#762);
#323=VERTEX_POINT('',#764);
#324=VERTEX_POINT('',#766);
#325=VERTEX_POINT('',#767);
#326=VERTEX_POINT('',#769);
#327=VERTEX_POINT('',#771);
#328=VERTEX_POINT('',#773);
#329=VERTEX_POINT('',#777);
#330=VERTEX_POINT('',#779);
#331=VERTEX_POINT('',#781);
#332=VERTEX_POINT('',#782);
#333=VERTEX_POINT('',#784);
#334=VERTEX_POINT('',#786);
#335=VERTEX_POINT('',#788);
#336=VERTEX_POINT('',#792);
#337=VERTEX_POINT('',#794);
#338=VERTEX_POINT('',#798);
#339=VERTEX_POINT('',#799);
#340=VERTEX_POINT('',#802);
#341=VERTEX_POINT('',#806);
#342=VERTEX_POINT('',#808);
#343=VERTEX_POINT('',#812);
#344=VERTEX_POINT('',#815);
#345=VERTEX_POINT('',#819);
#346=VERTEX_POINT('',#823);
#347=VERTEX_POINT('',#825);
#348=VERTEX_POINT('',#827);
#349=VERTEX_POINT('',#831);
#350=VERTEX_POINT('',#833);
#351=VERTEX_POINT('',#835);
#352=VERTEX_POINT('',#839);
#353=VERTEX_POINT('',#844);
#354=VERTEX_POINT('',#851);
#355=VERTEX_POINT('',#855);
#356=VERTEX_POINT('',#866);
#357=VERTEX_POINT('',#870);
#358=VERTEX_POINT('',#874);
#359=VERTEX_POINT('',#878);
#360=CIRCLE('',#543,0.002);
#361=CIRCLE('',#544,0.002);
#362=CIRCLE('',#546,0.002);
#363=CIRCLE('',#547,0.002);
#364=CIRCLE('',#549,0.002);
#365=CIRCLE('',#550,0.002);
#366=CIRCLE('',#552,0.002);
#367=CIRCLE('',#553,0.002);
#368=CIRCLE('',#555,0.003);
#369=CIRCLE('',#556,0.003);
#370=CIRCLE('',#558,0.003);
#371=CIRCLE('',#559,0.003);
#372=CIRCLE('',#569,0.0065);
#373=CIRCLE('',#574,0.0065);
#374=CIRCLE('',#580,0.003);
#375=CIRCLE('',#583,0.003);
#376=CIRCLE('',#586,0.003);
#377=CIRCLE('',#589,0.003);
#378=EDGE_LOOP('',(#125));
#379=EDGE_LOOP('',(#126));
#380=EDGE_LOOP('',(#127));
#381=EDGE_LOOP('',(#128));
#382=EDGE_LOOP('',(#129));
#383=EDGE_LOOP('',(#130));
#384=EDGE_LOOP('',(#131));
#385=EDGE_LOOP('',(#132));
#386=EDGE_LOOP('',(#133));
#387=EDGE_LOOP('',(#134));
#388=EDGE_LOOP('',(#135,#136,#137,#138,#139));
#389=EDGE_LOOP('',(#140));
#390=EDGE_LOOP('',(#141));
#391=EDGE_LOOP('',(#142,#143,#144,#145,#146));
#392=EDGE_LOOP('',(#147,#148,#149,#150));
#393=EDGE_LOOP('',(#151,#152,#153,#154,#155));
#394=EDGE_LOOP('',(#156,#157,#158,#159));
#395=EDGE_LOOP('',(#160,#161,#162,#163,#164,#165));
#396=EDGE_LOOP('',(#166,#167,#168,#169));
#397=EDGE_LOOP('',(#170,#171,#172,#173,#174));
#398=EDGE_LOOP('',(#175,#176,#177,#178,#179));
#399=EDGE_LOOP('',(#180,#181,#182,#183,#184));
#400=EDGE_LOOP('',(#185));
#401=EDGE_LOOP('',(#186,#187,#188,#189,#190,#191,#192,#193,#194));
#402=EDGE_LOOP('',(#195));
#403=EDGE_LOOP('',(#196));
#404=EDGE_LOOP('',(#197));
#405=EDGE_LOOP('',(#198));
#406=EDGE_LOOP('',(#199,#200,#201,#202));
#407=EDGE_LOOP('',(#203,#204,#205,#206));
#408=EDGE_LOOP('',(#207,#208,#209,#210));
#409=EDGE_LOOP('',(#211));
#410=EDGE_LOOP('',(#212,#213,#214,#215,#216,#217,#218));
#411=EDGE_LOOP('',(#219,#220,#221,#222));
#412=EDGE_LOOP('',(#223,#224,#225));
#413=EDGE_LOOP('',(#226,#227,#228,#229));
#414=EDGE_LOOP('',(#230,#231,#232));
#415=EDGE_LOOP('',(#233));
#416=EDGE_LOOP('',(#234));
#417=EDGE_LOOP('',(#235));
#418=EDGE_LOOP('',(#236));
#419=EDGE_LOOP('',(#237));
#420=EDGE_LOOP('',(#238));
#421=EDGE_LOOP('',(#239));
#422=EDGE_LOOP('',(#240));
#423=EDGE_LOOP('',(#241));
#424=EDGE_LOOP('',(#242));
#425=EDGE_LOOP('',(#243));
#426=EDGE_LOOP('',(#244));
#427=EDGE_LOOP('',(#245));
#428=EDGE_LOOP('',(#246));
#429=EDGE_LOOP('',(#247));
#430=EDGE_LOOP('',(#248));
#431=EDGE_LOOP('',(#249));
#432=EDGE_LOOP('',(#250));
#433=FACE_BOUND('',#378,.T.);
#434=FACE_BOUND('',#379,.T.);
#435=FACE_BOUND('',#380,.T.);
#436=FACE_BOUND('',#381,.T.);
#437=FACE_BOUND('',#382,.T.);
#438=FACE_BOUND('',#383,.T.);
#439=FACE_BOUND('',#384,.T.);
#440=FACE_BOUND('',#385,.T.);
#441=FACE_BOUND('',#386,.T.);
#442=FACE_BOUND('',#387,.T.);
#443=FACE_BOUND('',#388,.T.);
#444=FACE_BOUND('',#389,.T.);
#445=FACE_BOUND('',#390,.T.);
#446=FACE_BOUND('',#391,.T.);
#447=FACE_BOUND('',#392,.T.);
#448=FACE_BOUND('',#393,.T.);
#449=FACE_BOUND('',#394,.T.);
#450=FACE_BOUND('',#395,.T.);
#451=FACE_BOUND('',#396,.T.);
#452=FACE_BOUND('',#397,.T.);
#453=FACE_BOUND('',#398,.T.);
#454=FACE_BOUND('',#399,.T.);
#455=FACE_BOUND('',#400,.T.);
#456=FACE_BOUND('',#401,.T.);
#457=FACE_BOUND('',#402,.T.);
#458=FACE_BOUND('',#403,.T.);
#459=FACE_BOUND('',#404,.T.);
#460=FACE_BOUND('',#405,.T.);
#461=FACE_BOUND('',#406,.T.);
#462=FACE_BOUND('',#407,.T.);
#463=FACE_BOUND('',#408,.T.);
#464=FACE_BOUND('',#409,.T.);
#465=FACE_BOUND('',#410,.T.);
#466=FACE_BOUND('',#411,.T.);
#467=FACE_BOUND('',#412,.T.);
#468=FACE_BOUND('',#413,.T.);
#469=FACE_BOUND('',#414,.T.);
#470=FACE_BOUND('',#415,.T.);
#471=FACE_BOUND('',#416,.T.);
#472=FACE_BOUND('',#417,.T.);
#473=FACE_BOUND('',#418,.T.);
#474=FACE_BOUND('',#419,.T.);
#475=FACE_BOUND('',#420,.T.);
#476=FACE_BOUND('',#421,.T.);
#477=FACE_BOUND('',#422,.T.);
#478=FACE_BOUND('',#423,.T.);
#479=FACE_BOUND('',#424,.T.);
#480=FACE_BOUND('',#425,.T.);
#481=FACE_BOUND('',#426,.T.);
#482=FACE_BOUND('',#427,.T.);
#483=FACE_BOUND('',#428,.T.);
#484=FACE_BOUND('',#429,.T.);
#485=FACE_BOUND('',#430,.T.);
#486=FACE_BOUND('',#431,.T.);
#487=FACE_BOUND('',#432,.T.);
#488=CYLINDRICAL_SURFACE('',#542,0.002);
#489=CYLINDRICAL_SURFACE('',#545,0.002);
#490=CYLINDRICAL_SURFACE('',#548,0.002);
#491=CYLINDRICAL_SURFACE('',#551,0.002);
#492=CYLINDRICAL_SURFACE('',#579,0.003);
#493=CYLINDRICAL_SURFACE('',#582,0.003);
#494=CYLINDRICAL_SURFACE('',#585,0.003);
#495=CYLINDRICAL_SURFACE('',#588,0.003);
#496=CYLINDRICAL_SURFACE('',#591,0.0065);
#497=ADVANCED_FACE('',(#433,#434),#488,.F.);
#498=ADVANCED_FACE('',(#435,#436),#489,.F.);
#499=ADVANCED_FACE('',(#437,#438),#490,.F.);
#500=ADVANCED_FACE('',(#439,#440),#491,.F.);
#501=ADVANCED_FACE('',(#441,#442,#443),#102,.T.);
#502=ADVANCED_FACE('',(#444,#445,#446),#103,.T.);
#503=ADVANCED_FACE('',(#447),#104,.F.);
#504=ADVANCED_FACE('',(#448),#105,.T.);
#505=ADVANCED_FACE('',(#449),#106,.T.);
#506=ADVANCED_FACE('',(#450),#107,.T.);
#507=ADVANCED_FACE('',(#451),#108,.T.);
#508=ADVANCED_FACE('',(#452),#109,.T.);
#509=ADVANCED_FACE('',(#453),#110,.F.);
#510=ADVANCED_FACE('',(#454),#111,.F.);
#511=ADVANCED_FACE('',(#455,#456,#457,#458,#459,#460),#112,.F.);
#512=ADVANCED_FACE('',(#461),#113,.F.);
#513=ADVANCED_FACE('',(#462),#114,.F.);
#514=ADVANCED_FACE('',(#463),#115,.F.);
#515=ADVANCED_FACE('',(#464,#465),#116,.T.);
#516=ADVANCED_FACE('',(#466),#117,.T.);
#517=ADVANCED_FACE('',(#467),#118,.F.);
#518=ADVANCED_FACE('',(#468),#119,.F.);
#519=ADVANCED_FACE('',(#469),#120,.F.);
#520=ADVANCED_FACE('',(#470,#471),#492,.F.);
#521=ADVANCED_FACE('',(#472,#473),#121,.T.);
#522=ADVANCED_FACE('',(#474,#475),#493,.F.);
#523=ADVANCED_FACE('',(#476,#477),#122,.T.);
#524=ADVANCED_FACE('',(#478,#479),#494,.F.);
#525=ADVANCED_FACE('',(#480,#481),#123,.T.);
#526=ADVANCED_FACE('',(#482,#483),#495,.F.);
#527=ADVANCED_FACE('',(#484,#485),#124,.T.);
#528=ADVANCED_FACE('',(#486,#487),#496,.F.);
#529=CLOSED_SHELL('',(#497,#498,#499,#500,#501,#502,#503,#504,#505,#506,
#507,#508,#509,#510,#511,#512,#513,#514,#515,#516,#517,#518,#519,#520,#521,
#522,#523,#524,#525,#526,#527,#528));
#530=STYLED_ITEM('',(#531),#538);
#531=PRESENTATION_STYLE_ASSIGNMENT((#532));
#532=SURFACE_STYLE_USAGE(.BOTH.,#533);
#533=SURFACE_SIDE_STYLE('',(#534));
#534=SURFACE_STYLE_FILL_AREA(#535);
#535=FILL_AREA_STYLE('',(#536));
#536=FILL_AREA_STYLE_COLOUR('',#537);
#537=COLOUR_RGB('',0.129411764705882,0.341176470588236,0.352941176470589);
#538=MANIFOLD_SOLID_BREP('Rear Foot',#529);
#539=SHAPE_DEFINITION_REPRESENTATION(#887,#540);
#540=SHAPE_REPRESENTATION('Rear Foot',(#541),#882);
#541=AXIS2_PLACEMENT_3D('',#739,#592,#593);
#542=AXIS2_PLACEMENT_3D('',#740,#594,#595);
#543=AXIS2_PLACEMENT_3D('',#741,#596,#597);
#544=AXIS2_PLACEMENT_3D('',#743,#598,#599);
#545=AXIS2_PLACEMENT_3D('',#745,#600,#601);
#546=AXIS2_PLACEMENT_3D('',#746,#602,#603);
#547=AXIS2_PLACEMENT_3D('',#748,#604,#605);
#548=AXIS2_PLACEMENT_3D('',#750,#606,#607);
#549=AXIS2_PLACEMENT_3D('',#751,#608,#609);
#550=AXIS2_PLACEMENT_3D('',#753,#610,#611);
#551=AXIS2_PLACEMENT_3D('',#755,#612,#613);
#552=AXIS2_PLACEMENT_3D('',#756,#614,#615);
#553=AXIS2_PLACEMENT_3D('',#758,#616,#617);
#554=AXIS2_PLACEMENT_3D('',#760,#618,#619);
#555=AXIS2_PLACEMENT_3D('',#761,#620,#621);
#556=AXIS2_PLACEMENT_3D('',#763,#622,#623);
#557=AXIS2_PLACEMENT_3D('',#775,#629,#630);
#558=AXIS2_PLACEMENT_3D('',#776,#631,#632);
#559=AXIS2_PLACEMENT_3D('',#778,#633,#634);
#560=AXIS2_PLACEMENT_3D('',#790,#640,#641);
#561=AXIS2_PLACEMENT_3D('',#796,#645,#646);
#562=AXIS2_PLACEMENT_3D('',#804,#651,#652);
#563=AXIS2_PLACEMENT_3D('',#810,#656,#657);
#564=AXIS2_PLACEMENT_3D('',#817,#662,#663);
#565=AXIS2_PLACEMENT_3D('',#821,#666,#667);
#566=AXIS2_PLACEMENT_3D('',#829,#672,#673);
#567=AXIS2_PLACEMENT_3D('',#837,#678,#679);
#568=AXIS2_PLACEMENT_3D('',#842,#683,#684);
#569=AXIS2_PLACEMENT_3D('',#843,#685,#686);
#570=AXIS2_PLACEMENT_3D('',#847,#689,#690);
#571=AXIS2_PLACEMENT_3D('',#848,#691,#692);
#572=AXIS2_PLACEMENT_3D('',#849,#693,#694);
#573=AXIS2_PLACEMENT_3D('',#853,#697,#698);
#574=AXIS2_PLACEMENT_3D('',#854,#699,#700);
#575=AXIS2_PLACEMENT_3D('',#858,#703,#704);
#576=AXIS2_PLACEMENT_3D('',#860,#706,#707);
#577=AXIS2_PLACEMENT_3D('',#861,#708,#709);
#578=AXIS2_PLACEMENT_3D('',#863,#711,#712);
#579=AXIS2_PLACEMENT_3D('',#864,#713,#714);
#580=AXIS2_PLACEMENT_3D('',#865,#715,#716);
#581=AXIS2_PLACEMENT_3D('',#867,#717,#718);
#582=AXIS2_PLACEMENT_3D('',#868,#719,#720);
#583=AXIS2_PLACEMENT_3D('',#869,#721,#722);
#584=AXIS2_PLACEMENT_3D('',#871,#723,#724);
#585=AXIS2_PLACEMENT_3D('',#872,#725,#726);
#586=AXIS2_PLACEMENT_3D('',#873,#727,#728);
#587=AXIS2_PLACEMENT_3D('',#875,#729,#730);
#588=AXIS2_PLACEMENT_3D('',#876,#731,#732);
#589=AXIS2_PLACEMENT_3D('',#877,#733,#734);
#590=AXIS2_PLACEMENT_3D('',#879,#735,#736);
#591=AXIS2_PLACEMENT_3D('',#880,#737,#738);
#592=DIRECTION('',(0.,0.,1.));
#593=DIRECTION('',(1.,0.,0.));
#594=DIRECTION('',(0.,0.,1.));
#595=DIRECTION('',(1.,0.,0.));
#596=DIRECTION('',(0.,0.,-1.));
#597=DIRECTION('',(-1.,0.,0.));
#598=DIRECTION('',(0.,0.,-1.));
#599=DIRECTION('',(-1.,0.,0.));
#600=DIRECTION('',(0.,0.,1.));
#601=DIRECTION('',(1.,0.,0.));
#602=DIRECTION('',(0.,0.,-1.));
#603=DIRECTION('',(-1.,0.,0.));
#604=DIRECTION('',(0.,0.,-1.));
#605=DIRECTION('',(-1.,0.,0.));
#606=DIRECTION('',(0.,0.,1.));
#607=DIRECTION('',(1.,0.,0.));
#608=DIRECTION('',(0.,0.,-1.));
#609=DIRECTION('',(-1.,0.,0.));
#610=DIRECTION('',(0.,0.,-1.));
#611=DIRECTION('',(-1.,0.,0.));
#612=DIRECTION('',(0.,0.,1.));
#613=DIRECTION('',(1.,0.,0.));
#614=DIRECTION('',(0.,0.,-1.));
#615=DIRECTION('',(-1.,0.,0.));
#616=DIRECTION('',(0.,0.,-1.));
#617=DIRECTION('',(-1.,0.,0.));
#618=DIRECTION('',(0.,0.,-1.));
#619=DIRECTION('',(1.,0.,0.));
#620=DIRECTION('',(0.,0.,-1.));
#621=DIRECTION('',(-1.,0.,0.));
#622=DIRECTION('',(0.,0.,-1.));
#623=DIRECTION('',(-1.,0.,0.));
#624=DIRECTION('',(0.,-1.,0.));
#625=DIRECTION('',(1.,0.,0.));
#626=DIRECTION('',(0.,1.,0.));
#627=DIRECTION('',(0.707106781186548,0.707106781186548,0.));
#628=DIRECTION('',(1.,0.,0.));
#629=DIRECTION('',(0.,0.,-1.));
#630=DIRECTION('',(1.,0.,0.));
#631=DIRECTION('',(0.,0.,-1.));
#632=DIRECTION('',(-1.,0.,0.));
#633=DIRECTION('',(0.,0.,-1.));
#634=DIRECTION('',(-1.,0.,0.));
#635=DIRECTION('',(1.,0.,0.));
#636=DIRECTION('',(0.,1.,0.));
#637=DIRECTION('',(-1.,0.,0.));
#638=DIRECTION('',(0.,1.,0.));
#639=DIRECTION('',(0.707106781186548,0.707106781186548,0.));
#640=DIRECTION('',(0.,1.,0.));
#641=DIRECTION('',(0.,0.,1.));
#642=DIRECTION('',(0.,0.,1.));
#643=DIRECTION('',(-1.,0.,0.));
#644=DIRECTION('',(0.,0.,1.));
#645=DIRECTION('',(1.,0.,0.));
#646=DIRECTION('',(0.,0.,-1.));
#647=DIRECTION('',(0.,1.,0.));
#648=DIRECTION('',(0.,0.,-1.));
#649=DIRECTION('',(0.,1.,0.));
#650=DIRECTION('',(0.,0.,1.));
#651=DIRECTION('',(0.,-1.,0.));
#652=DIRECTION('',(0.,0.,-1.));
#653=DIRECTION('',(0.,0.,1.));
#654=DIRECTION('',(1.,0.,0.));
#655=DIRECTION('',(0.,0.,1.));
#656=DIRECTION('',(0.707106781186548,-0.707106781186548,0.));
#657=DIRECTION('',(0.707106781186548,0.707106781186548,0.));
#658=DIRECTION('',(0.707106781186548,0.707106781186548,0.));
#659=DIRECTION('',(0.,0.,1.));
#660=DIRECTION('',(0.707106781186548,0.707106781186548,0.));
#661=DIRECTION('',(0.,0.,1.));
#662=DIRECTION('',(1.,0.,0.));
#663=DIRECTION('',(0.,0.,-1.));
#664=DIRECTION('',(0.,1.,0.));
#665=DIRECTION('',(0.,0.,-1.));
#666=DIRECTION('',(0.,-1.,0.));
#667=DIRECTION('',(0.,0.,-1.));
#668=DIRECTION('',(1.,0.,0.));
#669=DIRECTION('',(0.,0.,1.));
#670=DIRECTION('',(1.,0.,0.));
#671=DIRECTION('',(0.,0.,1.));
#672=DIRECTION('',(1.,0.,0.));
#673=DIRECTION('',(0.,0.,-1.));
#674=DIRECTION('',(0.,1.,0.));
#675=DIRECTION('',(0.,0.,1.));
#676=DIRECTION('',(0.,1.,0.));
#677=DIRECTION('',(0.,-0.939793423488437,0.341743063086704));
#678=DIRECTION('',(0.,-1.,0.));
#679=DIRECTION('',(0.,0.,-1.));
#680=DIRECTION('',(0.939793423488437,0.,0.341743063086704));
#681=DIRECTION('',(1.,0.,0.));
#682=DIRECTION('',(1.,0.,0.));
#683=DIRECTION('',(0.,0.,-1.));
#684=DIRECTION('',(1.,0.,0.));
#685=DIRECTION('',(0.,0.,1.));
#686=DIRECTION('',(1.,0.,0.));
#687=DIRECTION('',(-0.707106781186548,-0.707106781186548,0.));
#688=DIRECTION('',(-0.707106781186548,-0.707106781186548,0.));
#689=DIRECTION('',(-0.707106781186548,0.707106781186548,0.));
#690=DIRECTION('',(0.,0.,1.));
#691=DIRECTION('',(-0.707106781186548,0.707106781186548,0.));
#692=DIRECTION('',(0.,0.,1.));
#693=DIRECTION('',(-1.,0.,0.));
#694=DIRECTION('',(0.,0.,1.));
#695=DIRECTION('',(0.,-1.,0.));
#696=DIRECTION('',(0.,0.,1.));
#697=DIRECTION('',(0.,0.,-1.));
#698=DIRECTION('',(1.,0.,0.));
#699=DIRECTION('',(0.,0.,-1.));
#700=DIRECTION('',(-1.,0.,0.));
#701=DIRECTION('',(-1.,0.,0.));
#702=DIRECTION('',(0.,-1.,0.));
#703=DIRECTION('',(0.,-0.341743063086704,-0.939793423488437));
#704=DIRECTION('',(0.,0.939793423488437,-0.341743063086704));
#705=DIRECTION('',(0.,-0.939793423488437,0.341743063086704));
#706=DIRECTION('',(-1.,0.,0.));
#707=DIRECTION('',(0.,-1.,0.));
#708=DIRECTION('',(-0.341743063086704,0.,0.939793423488437));
#709=DIRECTION('',(0.939793423488437,0.,0.341743063086704));
#710=DIRECTION('',(0.939793423488437,0.,0.341743063086704));
#711=DIRECTION('',(0.,1.,0.));
#712=DIRECTION('',(-1.,0.,0.));
#713=DIRECTION('',(0.,0.,-1.));
#714=DIRECTION('',(-1.,0.,0.));
#715=DIRECTION('',(0.,0.,-1.));
#716=DIRECTION('',(-1.,0.,0.));
#717=DIRECTION('',(0.,0.,-1.));
#718=DIRECTION('',(1.,0.,0.));
#719=DIRECTION('',(0.,0.,-1.));
#720=DIRECTION('',(-1.,0.,0.));
#721=DIRECTION('',(0.,0.,-1.));
#722=DIRECTION('',(-1.,0.,0.));
#723=DIRECTION('',(0.,0.,-1.));
#724=DIRECTION('',(1.,0.,0.));
#725=DIRECTION('',(0.,0.,-1.));
#726=DIRECTION('',(-1.,0.,0.));
#727=DIRECTION('',(0.,0.,-1.));
#728=DIRECTION('',(-1.,0.,0.));
#729=DIRECTION('',(0.,0.,-1.));
#730=DIRECTION('',(1.,0.,0.));
#731=DIRECTION('',(0.,0.,-1.));
#732=DIRECTION('',(-1.,0.,0.));
#733=DIRECTION('',(0.,0.,-1.));
#734=DIRECTION('',(-1.,0.,0.));
#735=DIRECTION('',(0.,0.,-1.));
#736=DIRECTION('',(1.,0.,0.));
#737=DIRECTION('',(0.,0.,1.));
#738=DIRECTION('',(1.,0.,0.));
#739=CARTESIAN_POINT('',(0.,0.,0.));
#740=CARTESIAN_POINT('',(-0.36,0.355,-0.011));
#741=CARTESIAN_POINT('',(-0.36,0.355,-0.006));
#742=CARTESIAN_POINT('',(-0.362,0.355,-0.006));
#743=CARTESIAN_POINT('',(-0.36,0.355,-0.009));
#744=CARTESIAN_POINT('',(-0.362,0.355,-0.009));
#745=CARTESIAN_POINT('',(-0.3,0.38,-0.011));
#746=CARTESIAN_POINT('',(-0.3,0.38,-0.006));
#747=CARTESIAN_POINT('',(-0.302,0.38,-0.006));
#748=CARTESIAN_POINT('',(-0.3,0.38,-0.009));
#749=CARTESIAN_POINT('',(-0.302,0.38,-0.009));
#750=CARTESIAN_POINT('',(-0.36,0.32,-0.011));
#751=CARTESIAN_POINT('',(-0.36,0.32,-0.006));
#752=CARTESIAN_POINT('',(-0.362,0.32,-0.006));
#753=CARTESIAN_POINT('',(-0.36,0.32,-0.009));
#754=CARTESIAN_POINT('',(-0.362,0.32,-0.009));
#755=CARTESIAN_POINT('',(-0.335,0.38,-0.011));
#756=CARTESIAN_POINT('',(-0.335,0.38,-0.006));
#757=CARTESIAN_POINT('',(-0.337,0.38,-0.006));
#758=CARTESIAN_POINT('',(-0.335,0.38,-0.009));
#759=CARTESIAN_POINT('',(-0.337,0.38,-0.009));
#760=CARTESIAN_POINT('',(-0.305,0.325,-0.011));
#761=CARTESIAN_POINT('',(-0.3,0.38,-0.011));
#762=CARTESIAN_POINT('',(-0.303,0.38,-0.011));
#763=CARTESIAN_POINT('',(-0.335,0.38,-0.011));
#764=CARTESIAN_POINT('',(-0.338,0.38,-0.011));
#765=CARTESIAN_POINT('',(-0.345,0.38,-0.011));
#766=CARTESIAN_POINT('',(-0.345,0.387,-0.011));
#767=CARTESIAN_POINT('',(-0.345,0.37,-0.011));
#768=CARTESIAN_POINT('',(-0.305,0.387,-0.011));
#769=CARTESIAN_POINT('',(-0.29,0.387,-0.011));
#770=CARTESIAN_POINT('',(-0.29,0.38,-0.011));
#771=CARTESIAN_POINT('',(-0.29,0.373,-0.011));
#772=CARTESIAN_POINT('',(-0.3215,0.3415,-0.011));
#773=CARTESIAN_POINT('',(-0.293,0.37,-0.011));
#774=CARTESIAN_POINT('',(-0.3175,0.37,-0.011));
#775=CARTESIAN_POINT('',(-0.305,0.325,-0.011));
#776=CARTESIAN_POINT('',(-0.36,0.32,-0.011));
#777=CARTESIAN_POINT('',(-0.363,0.32,-0.011));
#778=CARTESIAN_POINT('',(-0.36,0.355,-0.011));
#779=CARTESIAN_POINT('',(-0.363,0.355,-0.011));
#780=CARTESIAN_POINT('',(-0.36,0.31,-0.011));
#781=CARTESIAN_POINT('',(-0.367,0.31,-0.011));
#782=CARTESIAN_POINT('',(-0.353,0.31,-0.011));
#783=CARTESIAN_POINT('',(-0.367,0.325,-0.011));
#784=CARTESIAN_POINT('',(-0.367,0.365,-0.011));
#785=CARTESIAN_POINT('',(-0.36,0.365,-0.011));
#786=CARTESIAN_POINT('',(-0.35,0.365,-0.011));
#787=CARTESIAN_POINT('',(-0.35,0.3375,-0.011));
#788=CARTESIAN_POINT('',(-0.35,0.313,-0.011));
#789=CARTESIAN_POINT('',(-0.3215,0.3415,-0.011));
#790=CARTESIAN_POINT('',(-0.36,0.365,-0.031));
#791=CARTESIAN_POINT('',(-0.367,0.365,-0.031));
#792=CARTESIAN_POINT('',(-0.367,0.365,-0.031));
#793=CARTESIAN_POINT('',(-0.36,0.365,-0.031));
#794=CARTESIAN_POINT('',(-0.35,0.365,-0.031));
#795=CARTESIAN_POINT('',(-0.35,0.365,-0.031));
#796=CARTESIAN_POINT('',(-0.29,0.38,-0.011));
#797=CARTESIAN_POINT('',(-0.29,0.38,-0.006));
#798=CARTESIAN_POINT('',(-0.29,0.373,-0.006));
#799=CARTESIAN_POINT('',(-0.29,0.39,-0.006));
#800=CARTESIAN_POINT('',(-0.29,0.373,-0.011));
#801=CARTESIAN_POINT('',(-0.29,0.387,-0.011));
#802=CARTESIAN_POINT('',(-0.29,0.39,-0.011));
#803=CARTESIAN_POINT('',(-0.29,0.39,-0.011));
#804=CARTESIAN_POINT('',(-0.3175,0.37,-0.011));
#805=CARTESIAN_POINT('',(-0.293,0.37,-0.011));
#806=CARTESIAN_POINT('',(-0.293,0.37,-0.006));
#807=CARTESIAN_POINT('',(-0.3175,0.37,-0.006));
#808=CARTESIAN_POINT('',(-0.345,0.37,-0.006));
#809=CARTESIAN_POINT('',(-0.345,0.37,-0.011));
#810=CARTESIAN_POINT('',(-0.3475,0.3675,-0.011));
#811=CARTESIAN_POINT('',(-0.3475,0.3675,-0.006));
#812=CARTESIAN_POINT('',(-0.35,0.365,-0.006));
#813=CARTESIAN_POINT('',(-0.35,0.365,-0.011));
#814=CARTESIAN_POINT('',(-0.3475,0.3675,-0.031));
#815=CARTESIAN_POINT('',(-0.345,0.37,-0.031));
#816=CARTESIAN_POINT('',(-0.345,0.37,-0.031));
#817=CARTESIAN_POINT('',(-0.35,0.3375,-0.011));
#818=CARTESIAN_POINT('',(-0.35,0.3375,-0.006));
#819=CARTESIAN_POINT('',(-0.35,0.313,-0.006));
#820=CARTESIAN_POINT('',(-0.35,0.313,-0.011));
#821=CARTESIAN_POINT('',(-0.36,0.31,-0.011));
#822=CARTESIAN_POINT('',(-0.36,0.31,-0.011));
#823=CARTESIAN_POINT('',(-0.37,0.31,-0.011));
#824=CARTESIAN_POINT('',(-0.353,0.31,-0.011));
#825=CARTESIAN_POINT('',(-0.353,0.31,-0.006));
#826=CARTESIAN_POINT('',(-0.36,0.31,-0.006));
#827=CARTESIAN_POINT('',(-0.37,0.31,-0.006));
#828=CARTESIAN_POINT('',(-0.37,0.31,-0.011));
#829=CARTESIAN_POINT('',(-0.37,0.325,-0.011));
#830=CARTESIAN_POINT('',(-0.37,0.325,-0.006));
#831=CARTESIAN_POINT('',(-0.37,0.39,-0.006));
#832=CARTESIAN_POINT('',(-0.37,0.39,-0.011));
#833=CARTESIAN_POINT('',(-0.37,0.39,-0.031));
#834=CARTESIAN_POINT('',(-0.37,0.325,-0.031));
#835=CARTESIAN_POINT('',(-0.37,0.365,-0.031));
#836=CARTESIAN_POINT('',(-0.37,0.3375,-0.021));
#837=CARTESIAN_POINT('',(-0.305,0.39,-0.011));
#838=CARTESIAN_POINT('',(-0.3175,0.39,-0.021));
#839=CARTESIAN_POINT('',(-0.345,0.39,-0.031));
#840=CARTESIAN_POINT('',(-0.305,0.39,-0.031));
#841=CARTESIAN_POINT('',(-0.305,0.39,-0.006));
#842=CARTESIAN_POINT('',(-0.305,0.325,-0.006));
#843=CARTESIAN_POINT('',(-0.36,0.38,-0.006));
#844=CARTESIAN_POINT('',(-0.3535,0.38,-0.006));
#845=CARTESIAN_POINT('',(-0.293,0.37,-0.006));
#846=CARTESIAN_POINT('',(-0.353,0.31,-0.006));
#847=CARTESIAN_POINT('',(-0.293,0.37,-0.011));
#848=CARTESIAN_POINT('',(-0.353,0.31,-0.011));
#849=CARTESIAN_POINT('',(-0.345,0.38,-0.031));
#850=CARTESIAN_POINT('',(-0.345,0.38,-0.031));
#851=CARTESIAN_POINT('',(-0.345,0.387,-0.031));
#852=CARTESIAN_POINT('',(-0.345,0.387,-0.031));
#853=CARTESIAN_POINT('',(-0.33,0.35,-0.031));
#854=CARTESIAN_POINT('',(-0.36,0.38,-0.031));
#855=CARTESIAN_POINT('',(-0.3665,0.38,-0.031));
#856=CARTESIAN_POINT('',(-0.367,0.365,-0.031));
#857=CARTESIAN_POINT('',(-0.345,0.38,-0.031));
#858=CARTESIAN_POINT('',(-0.367,0.3375,-0.021));
#859=CARTESIAN_POINT('',(-0.367,0.3375,-0.021));
#860=CARTESIAN_POINT('',(-0.367,0.35,-0.0185));
#861=CARTESIAN_POINT('',(-0.3175,0.387,-0.021));
#862=CARTESIAN_POINT('',(-0.3175,0.387,-0.021));
#863=CARTESIAN_POINT('',(-0.33,0.387,-0.0185));
#864=CARTESIAN_POINT('',(-0.335,0.38,-0.009));
#865=CARTESIAN_POINT('',(-0.335,0.38,-0.009));
#866=CARTESIAN_POINT('',(-0.338,0.38,-0.009));
#867=CARTESIAN_POINT('',(-0.332,0.3465,-0.009));
#868=CARTESIAN_POINT('',(-0.36,0.32,-0.009));
#869=CARTESIAN_POINT('',(-0.36,0.32,-0.009));
#870=CARTESIAN_POINT('',(-0.363,0.32,-0.009));
#871=CARTESIAN_POINT('',(-0.332,0.3465,-0.009));
#872=CARTESIAN_POINT('',(-0.3,0.38,-0.009));
#873=CARTESIAN_POINT('',(-0.3,0.38,-0.009));
#874=CARTESIAN_POINT('',(-0.303,0.38,-0.009));
#875=CARTESIAN_POINT('',(-0.332,0.3465,-0.009));
#876=CARTESIAN_POINT('',(-0.36,0.355,-0.009));
#877=CARTESIAN_POINT('',(-0.36,0.355,-0.009));
#878=CARTESIAN_POINT('',(-0.363,0.355,-0.009));
#879=CARTESIAN_POINT('',(-0.332,0.3465,-0.009));
#880=CARTESIAN_POINT('',(-0.36,0.38,-0.584349034650088));
#881=MECHANICAL_DESIGN_GEOMETRIC_PRESENTATION_REPRESENTATION('',(#530),
#882);
#882=(
GEOMETRIC_REPRESENTATION_CONTEXT(3)
GLOBAL_UNCERTAINTY_ASSIGNED_CONTEXT((#883))
GLOBAL_UNIT_ASSIGNED_CONTEXT((#886,#885,#884))
REPRESENTATION_CONTEXT('Rear Foot','TOP_LEVEL_ASSEMBLY_PART')
);
#883=UNCERTAINTY_MEASURE_WITH_UNIT(LENGTH_MEASURE(1.E-8),#886,
'DISTANCE_ACCURACY_VALUE','Maximum Tolerance applied to model');
#884=(
NAMED_UNIT(*)
SI_UNIT($,.STERADIAN.)
SOLID_ANGLE_UNIT()
);
#885=(
NAMED_UNIT(*)
PLANE_ANGLE_UNIT()
SI_UNIT($,.RADIAN.)
);
#886=(
LENGTH_UNIT()
NAMED_UNIT(*)
SI_UNIT($,.METRE.)
);
#887=PRODUCT_DEFINITION_SHAPE('','',#888);
#888=PRODUCT_DEFINITION('','',#890,#889);
#889=PRODUCT_DEFINITION_CONTEXT('',#896,'design');
#890=PRODUCT_DEFINITION_FORMATION_WITH_SPECIFIED_SOURCE('','',#892,
 .NOT_KNOWN.);
#891=PRODUCT_RELATED_PRODUCT_CATEGORY('','',(#892));
#892=PRODUCT('Rear Foot','Rear Foot','Rear Foot',(#894));
#893=PRODUCT_CATEGORY('','');
#894=PRODUCT_CONTEXT('',#896,'mechanical');
#895=APPLICATION_PROTOCOL_DEFINITION('international standard',
'ap242_managed_model_based_3d_engineering',2020,#896);
#896=APPLICATION_CONTEXT('managed model based 3d engineering');
ENDSEC;
END-ISO-10303-21;
